%
M48
M72
T01C0.0157
T02C0.0400
T03C0.0472
%
T01
X4930Y3930
X5680Y3180
X6430Y3180
X6680Y3430
X6930Y3180
X7180Y3430
X7430Y3180
X7680Y3430
X7930Y3180
X8180Y3430
X8430Y3180
X8680Y3430
X11180Y4180
X10930Y5680
X10930Y6680
X11680Y7180
X10930Y8180
X11243Y8555
X11680Y8368
X12368Y8805
X13055Y9930
X13743Y8805
X14930Y9430
X14680Y10930
X14180Y11180
X14680Y12180
X14680Y13930
X11680Y11680
X11180Y12680
X10462Y12460
X9930Y12055
X9180Y12305
X7430Y11680
X7430Y10680
X6430Y9680
X5680Y8180
X4930Y6930
X5680Y6180
X4930Y5430
X6930Y5930
X7180Y6180
X7430Y5930
X7680Y6180
X7930Y5930
X8180Y6180
X8430Y5930
X9180Y6430
X9680Y8305
X9868Y10243
X5180Y2180
X8868Y1180
X5180Y19180
T02
X6080Y18180
X7080Y18180
X8080Y18180
X9080Y18180
X10080Y18180
X11080Y18180
X12080Y18180
X13080Y18180
X14680Y18180
X15680Y18180
X16680Y18180
X17680Y18180
X18680Y18180
X19680Y18180
X20680Y18180
X21680Y18180
X21180Y16680
X21180Y15680
X20180Y15680
X20180Y16680
X19180Y16680
X19180Y15680
X18180Y15680
X18180Y16680
X17180Y16680
X17180Y15680
X17180Y14680
X18180Y14680
X19180Y14680
X20180Y14680
X21180Y14680
X22180Y14680
X22180Y13680
X22180Y12680
X21180Y12680
X21180Y13680
X20180Y13680
X20180Y12680
X19180Y12680
X19180Y13680
X18180Y13680
X18180Y12680
X17180Y12680
X17180Y13680
X16180Y13680
X16180Y12680
X16180Y11680
X16180Y10680
X16180Y9680
X16180Y8680
X16180Y7680
X16180Y6680
X16180Y5680
X16180Y4680
X17180Y4680
X18180Y4680
X19180Y4680
X20180Y4680
X21180Y4680
X22180Y4680
X22180Y5680
X21180Y5680
X20180Y5680
X19180Y5680
X18180Y5680
X17180Y5680
X17180Y6680
X17180Y7680
X18180Y7680
X18180Y6680
X19180Y6680
X19180Y7680
X20180Y7680
X20180Y6680
X21180Y6680
X21180Y7680
X22180Y7680
X22180Y6680
X22180Y8680
X21180Y8680
X20180Y8680
X19180Y8680
X18180Y8680
X17180Y8680
X17180Y9680
X17180Y10680
X18180Y10680
X18180Y9680
X19180Y9680
X19180Y10680
X20180Y10680
X20180Y9680
X21180Y9680
X21180Y10680
X22180Y10680
X22180Y9680
X22180Y11680
X21180Y11680
X20180Y11680
X19180Y11680
X18180Y11680
X17180Y11680
X16180Y14680
X16180Y15680
X16180Y16680
X12930Y15930
X12930Y14930
X12930Y13930
X12930Y12930
X8680Y12930
X8680Y13930
X8680Y14930
X8680Y15930
X9080Y20180
X10080Y20180
X11080Y20180
X12080Y20180
X13080Y20180
X14680Y20180
X15680Y20180
X16680Y20180
X17680Y20180
X18680Y20180
X19680Y20180
X20680Y20180
X21680Y20180
X22180Y16680
X22180Y15680
X14680Y5930
X14680Y4930
X14680Y3180
X13680Y3180
X12680Y3180
X11680Y3180
X10680Y3180
X9680Y3180
X9680Y1180
X10680Y1180
X11680Y1180
X12680Y1180
X13680Y1180
X14680Y1180
X16680Y1180
X17680Y1180
X18680Y1180
X19680Y1180
X20680Y1180
X21680Y1180
X21680Y3180
X20680Y3180
X19680Y3180
X18680Y3180
X17680Y3180
X16680Y3180
X8080Y20180
X7080Y20180
X6080Y20180
T03
X3430Y1680
X3430Y3680
X3430Y5680
X3430Y7680
X3430Y11180
X3430Y13180
M30
