%
M48
M72
T01C0.0157
T02C0.0320
T03C0.0400
T04C0.0472
%
T01
X3430Y2680
X5180Y5930
X5680Y6930
X6430Y6930
X6680Y7180
X6930Y6930
X7180Y7180
X7430Y6930
X7680Y7180
X7930Y6930
X8180Y7180
X8430Y6930
X8680Y7180
X9380Y8180
X10130Y7930
X8730Y9980
X9180Y10180
X9430Y10680
X8680Y11030
X7680Y9930
X7430Y9680
X7180Y9930
X6930Y9680
X6680Y9930
X6430Y9680
X5680Y9930
X4930Y9180
X4930Y7680
X7930Y9680
X7330Y11930
X8030Y12580
X7430Y12680
X7930Y13180
X7930Y14180
X7430Y14180
X7430Y15180
X9730Y13780
X13055Y13805
X13430Y14430
X13930Y13180
X11680Y10180
X13030Y8030
X14030Y6680
X4930Y10680
X930Y16930
T02
X6230Y2580
X7630Y2580
T03
X9680Y3180
X10680Y3180
X11680Y3180
X12680Y3180
X13680Y3180
X14680Y3180
X15180Y4680
X16180Y4680
X16180Y5680
X15180Y5680
X15180Y6680
X15180Y7680
X16180Y7680
X16180Y6680
X17180Y6680
X17180Y7680
X18180Y7680
X18180Y6680
X19180Y6680
X19180Y7680
X20180Y7680
X20180Y6680
X21180Y6680
X21180Y7680
X22180Y7680
X22180Y6680
X22180Y5680
X21180Y5680
X20180Y5680
X19180Y5680
X18180Y5680
X17180Y5680
X17180Y4680
X18180Y4680
X19180Y4680
X20180Y4680
X21180Y4680
X22180Y4680
X21680Y3180
X20680Y3180
X19680Y3180
X18680Y3180
X17680Y3180
X16680Y3180
X16680Y1180
X17680Y1180
X18680Y1180
X19680Y1180
X20680Y1180
X21680Y1180
X14680Y1180
X13680Y1180
X12680Y1180
X11680Y1180
X10680Y1180
X9680Y1180
X11180Y8680
X11180Y9680
X11180Y10680
X11180Y11680
X11180Y12680
X11180Y13680
X11180Y14680
X11180Y15680
X12180Y15680
X12180Y14680
X12180Y13680
X12180Y12680
X12180Y11680
X12180Y10680
X12180Y9680
X12180Y8680
X15180Y8680
X15180Y9680
X15180Y10680
X15180Y11680
X15180Y12680
X15180Y13680
X15180Y14680
X15180Y15680
X15180Y16680
X16180Y16680
X17180Y16680
X18180Y16680
X19180Y16680
X20180Y16680
X21180Y16680
X22180Y16680
X22180Y15680
X21180Y15680
X20180Y15680
X19180Y15680
X18180Y15680
X17180Y15680
X17180Y14680
X17180Y13680
X18180Y13680
X18180Y14680
X19180Y14680
X19180Y13680
X20180Y13680
X20180Y14680
X21180Y14680
X21180Y13680
X22180Y13680
X22180Y14680
X22180Y12680
X21180Y12680
X20180Y12680
X19180Y12680
X18180Y12680
X17180Y12680
X18180Y11680
X18180Y10680
X19180Y10680
X19180Y11680
X20180Y11680
X20180Y10680
X21180Y10680
X21180Y11680
X22180Y11680
X22180Y10680
X22180Y9680
X21180Y9680
X20180Y9680
X19180Y9680
X19180Y8680
X20180Y8680
X21180Y8680
X22180Y8680
X21680Y18180
X20680Y18180
X19680Y18180
X18680Y18180
X17680Y18180
X16680Y18180
X15680Y18180
X14680Y18180
X13080Y18180
X12080Y18180
X11080Y18180
X10080Y18180
X9080Y18180
X8080Y18180
X7080Y18180
X6080Y18180
X4580Y18180
X6080Y20180
X7080Y20180
X8080Y20180
X9080Y20180
X10080Y20180
X11080Y20180
X12080Y20180
X13080Y20180
X14680Y20180
X15680Y20180
X16680Y20180
X17680Y20180
X18680Y20180
X19680Y20180
X20680Y20180
X21680Y20180
T04
X3430Y15430
X3430Y13430
X3430Y11430
X3430Y9430
X3430Y7430
X3430Y5430
M30
