G75*
G70*
%OFA0B0*%
%FSLAX24Y24*%
%IPPOS*%
%LPD*%
%AMOC8*
5,1,8,0,0,1.08239X$1,22.5*
%
%ADD10C,0.0600*%
%ADD11R,0.0600X0.0600*%
%ADD12C,0.1300*%
%ADD13C,0.0740*%
%ADD14C,0.0240*%
%ADD15C,0.0357*%
%ADD16C,0.0320*%
%ADD17C,0.0160*%
%ADD18C,0.0120*%
%ADD19C,0.0100*%
D10*
X009680Y001180D03*
X010680Y001180D03*
X011680Y001180D03*
X012680Y001180D03*
X013680Y001180D03*
X014680Y001180D03*
X016680Y001180D03*
X017680Y001180D03*
X018680Y001180D03*
X019680Y001180D03*
X020680Y001180D03*
X021680Y001180D03*
X021680Y003180D03*
X020680Y003180D03*
X019680Y003180D03*
X018680Y003180D03*
X017680Y003180D03*
X016680Y003180D03*
X014680Y003180D03*
X013680Y003180D03*
X012680Y003180D03*
X011680Y003180D03*
X010680Y003180D03*
X009680Y003180D03*
X014680Y004930D03*
X014680Y005930D03*
X016180Y005680D03*
X016180Y006680D03*
X016180Y007680D03*
X016180Y008680D03*
X016180Y009680D03*
X016180Y010680D03*
X016180Y011680D03*
X016180Y012680D03*
X016180Y013680D03*
X016180Y014680D03*
X016180Y015680D03*
X017180Y015680D03*
X018180Y015680D03*
X019180Y015680D03*
X020180Y015680D03*
X021180Y015680D03*
X022180Y015680D03*
X022180Y014680D03*
X021180Y014680D03*
X020180Y014680D03*
X019180Y014680D03*
X018180Y014680D03*
X017180Y014680D03*
X017180Y013680D03*
X017180Y012680D03*
X018180Y012680D03*
X018180Y013680D03*
X019180Y013680D03*
X019180Y012680D03*
X020180Y012680D03*
X020180Y013680D03*
X021180Y013680D03*
X021180Y012680D03*
X022180Y012680D03*
X022180Y013680D03*
X022180Y011680D03*
X021180Y011680D03*
X020180Y011680D03*
X019180Y011680D03*
X018180Y011680D03*
X017180Y011680D03*
X017180Y010680D03*
X017180Y009680D03*
X018180Y009680D03*
X018180Y010680D03*
X019180Y010680D03*
X019180Y009680D03*
X020180Y009680D03*
X020180Y010680D03*
X021180Y010680D03*
X021180Y009680D03*
X022180Y009680D03*
X022180Y010680D03*
X022180Y008680D03*
X021180Y008680D03*
X020180Y008680D03*
X019180Y008680D03*
X018180Y008680D03*
X017180Y008680D03*
X017180Y007680D03*
X017180Y006680D03*
X018180Y006680D03*
X018180Y007680D03*
X019180Y007680D03*
X019180Y006680D03*
X020180Y006680D03*
X020180Y007680D03*
X021180Y007680D03*
X021180Y006680D03*
X022180Y006680D03*
X022180Y007680D03*
X022180Y005680D03*
X021180Y005680D03*
X020180Y005680D03*
X019180Y005680D03*
X018180Y005680D03*
X017180Y005680D03*
X012930Y012930D03*
X012930Y013930D03*
X012930Y014930D03*
X012080Y018180D03*
X011080Y018180D03*
X010080Y018180D03*
X009080Y018180D03*
X008080Y018180D03*
X007080Y018180D03*
X006080Y018180D03*
X006080Y020180D03*
X007080Y020180D03*
X008080Y020180D03*
X009080Y020180D03*
X010080Y020180D03*
X011080Y020180D03*
X012080Y020180D03*
X014680Y020180D03*
X015680Y020180D03*
X016680Y020180D03*
X017680Y020180D03*
X018680Y020180D03*
X019680Y020180D03*
X020680Y020180D03*
X020680Y018180D03*
X019680Y018180D03*
X018680Y018180D03*
X017680Y018180D03*
X016680Y018180D03*
X015680Y018180D03*
X014680Y018180D03*
X008680Y014930D03*
X008680Y013930D03*
X008680Y012930D03*
D11*
X008680Y015930D03*
X012930Y015930D03*
X013080Y018180D03*
X013080Y020180D03*
X021680Y020180D03*
X021680Y018180D03*
D12*
X003430Y013180D03*
X003430Y011180D03*
X003430Y007680D03*
X003430Y005680D03*
X003430Y003680D03*
X003430Y001680D03*
D13*
X016180Y004680D03*
X017180Y004680D03*
X018180Y004680D03*
X019180Y004680D03*
X020180Y004680D03*
X021180Y004680D03*
X022180Y004680D03*
X022180Y016680D03*
X021180Y016680D03*
X020180Y016680D03*
X019180Y016680D03*
X018180Y016680D03*
X017180Y016680D03*
X016180Y016680D03*
D14*
X015680Y018180D02*
X015680Y020180D01*
X014680Y020180D02*
X014680Y018180D01*
X013080Y018180D02*
X013080Y020180D01*
X012080Y020180D02*
X012080Y018180D01*
X011080Y018180D02*
X011080Y020180D01*
X010080Y020180D02*
X010080Y018180D01*
X009080Y018180D02*
X009080Y020180D01*
X008080Y020180D02*
X008080Y018180D01*
X006080Y018180D02*
X006080Y020180D01*
X016680Y020180D02*
X016680Y018180D01*
X017680Y018180D02*
X017680Y020180D01*
X018680Y020180D02*
X018680Y018180D01*
X019680Y018180D02*
X019680Y020180D01*
X020680Y020180D02*
X020680Y018180D01*
X021680Y018180D02*
X021680Y020180D01*
X021680Y003180D02*
X021680Y001180D01*
X020680Y001180D02*
X020680Y003180D01*
X019680Y003180D02*
X019680Y001180D01*
X018680Y001180D02*
X018680Y003180D01*
X017680Y003180D02*
X017680Y001180D01*
X016680Y001180D02*
X016680Y003180D01*
X014680Y003180D02*
X014680Y001180D01*
X010680Y001180D02*
X010680Y003180D01*
X009680Y003180D02*
X009680Y001180D01*
D15*
X008868Y001180D03*
X008430Y003180D03*
X008180Y003430D03*
X007930Y003180D03*
X007680Y003430D03*
X007430Y003180D03*
X007180Y003430D03*
X006930Y003180D03*
X006680Y003430D03*
X006430Y003180D03*
X005680Y003180D03*
X004930Y003930D03*
X004930Y005430D03*
X005680Y006180D03*
X004930Y006930D03*
X005680Y008180D03*
X006430Y009680D03*
X007430Y010680D03*
X007430Y011680D03*
X009180Y012305D03*
X009930Y012055D03*
X010462Y012460D03*
X011180Y012680D03*
X011680Y011680D03*
X009868Y010243D03*
X011243Y008555D03*
X011680Y008368D03*
X010930Y008180D03*
X011680Y007180D03*
X010930Y006680D03*
X010930Y005680D03*
X011180Y004180D03*
X008680Y003430D03*
X008430Y005930D03*
X008180Y006180D03*
X007930Y005930D03*
X007680Y006180D03*
X007430Y005930D03*
X007180Y006180D03*
X006930Y005930D03*
X009180Y006430D03*
X009680Y008305D03*
X012368Y008805D03*
X013055Y009930D03*
X013743Y008805D03*
X014930Y009430D03*
X014680Y010930D03*
X014180Y011180D03*
X014680Y012180D03*
X014680Y013930D03*
X005180Y019180D03*
X005180Y002180D03*
D16*
X004930Y002430D01*
X004930Y003930D01*
X005680Y003180D02*
X005680Y001180D01*
X006180Y000680D01*
X008368Y000680D01*
X008868Y001180D01*
X011680Y001180D02*
X011680Y003180D01*
X012430Y003930D01*
X022505Y003930D01*
X023080Y004505D01*
X023080Y014180D01*
X023080Y015080D01*
X013743Y008805D02*
X012368Y008805D01*
X011680Y008368D02*
X011680Y007180D01*
X007430Y010680D02*
X006430Y009680D01*
X005680Y010930D02*
X003430Y013180D01*
X005680Y010930D02*
X005680Y008180D01*
X005680Y006180D01*
X005680Y003180D01*
X004930Y005430D02*
X004930Y006930D01*
X007930Y014430D02*
X005180Y017180D01*
X005180Y019180D01*
D17*
X000571Y000894D02*
X000711Y000711D01*
X000894Y000571D01*
X001106Y000481D01*
X001206Y000460D01*
X005947Y000460D01*
X005499Y000909D01*
X005409Y000999D01*
X005360Y001116D01*
X005360Y001888D01*
X005247Y001841D01*
X005113Y001841D01*
X004988Y001893D01*
X004893Y001988D01*
X004874Y002033D01*
X004659Y002249D01*
X004610Y002366D01*
X004610Y003817D01*
X004591Y003863D01*
X004591Y003997D01*
X004643Y004122D01*
X004738Y004217D01*
X004863Y004269D01*
X004997Y004269D01*
X005122Y004217D01*
X005217Y004122D01*
X005269Y003997D01*
X005269Y003863D01*
X005250Y003817D01*
X005250Y002563D01*
X005327Y002486D01*
X005360Y002472D01*
X005360Y003067D01*
X005341Y003113D01*
X005341Y003247D01*
X005360Y003293D01*
X005360Y006067D01*
X005341Y006113D01*
X005341Y006247D01*
X005360Y006293D01*
X005360Y008067D01*
X005341Y008113D01*
X005341Y008247D01*
X005360Y008293D01*
X005360Y010797D01*
X003730Y012428D01*
X003591Y012370D01*
X003269Y012370D01*
X002971Y012493D01*
X002743Y012721D01*
X002620Y013019D01*
X002620Y013341D01*
X002743Y013639D01*
X002971Y013867D01*
X003269Y013990D01*
X003591Y013990D01*
X003889Y013867D01*
X004117Y013639D01*
X004240Y013341D01*
X004240Y013019D01*
X004182Y012880D01*
X005861Y011201D01*
X005861Y011201D01*
X005951Y011111D01*
X006000Y010994D01*
X006000Y008293D01*
X006019Y008247D01*
X006019Y008113D01*
X006000Y008067D01*
X006000Y006293D01*
X006019Y006247D01*
X006019Y006113D01*
X006000Y006067D01*
X006000Y003293D01*
X006019Y003247D01*
X006019Y003113D01*
X006000Y003067D01*
X006000Y001313D01*
X006313Y001000D01*
X008235Y001000D01*
X008562Y001327D01*
X008580Y001372D01*
X008676Y001467D01*
X008800Y001519D01*
X008935Y001519D01*
X009059Y001467D01*
X009155Y001372D01*
X009206Y001247D01*
X009206Y001113D01*
X009155Y000988D01*
X009059Y000893D01*
X009014Y000874D01*
X008639Y000499D01*
X008600Y000460D01*
X021680Y000460D01*
X021793Y000469D01*
X022007Y000538D01*
X022189Y000671D01*
X022322Y000853D01*
X022391Y001067D01*
X022400Y001180D01*
X022400Y001236D01*
X022443Y001339D01*
X023400Y002296D01*
X023400Y015064D01*
X023400Y015064D01*
X023400Y004441D01*
X023351Y004324D01*
X023261Y004234D01*
X023261Y004234D01*
X022776Y003749D01*
X022776Y003749D01*
X022686Y003659D01*
X022569Y003610D01*
X021844Y003610D01*
X021941Y003570D01*
X022070Y003441D01*
X022140Y003271D01*
X022140Y003088D01*
X022070Y002919D01*
X021960Y002809D01*
X021960Y001551D01*
X022070Y001441D01*
X022140Y001271D01*
X022140Y001088D01*
X022070Y000919D01*
X021941Y000790D01*
X021771Y000720D01*
X021588Y000720D01*
X021419Y000790D01*
X021290Y000919D01*
X021220Y001088D01*
X021220Y001271D01*
X021290Y001441D01*
X021400Y001551D01*
X021400Y002809D01*
X021290Y002919D01*
X021220Y003088D01*
X021220Y003271D01*
X021290Y003441D01*
X021419Y003570D01*
X021516Y003610D01*
X020844Y003610D01*
X020941Y003570D01*
X021070Y003441D01*
X021140Y003271D01*
X021140Y003088D01*
X021070Y002919D01*
X020960Y002809D01*
X020960Y001551D01*
X021070Y001441D01*
X021140Y001271D01*
X021140Y001088D01*
X021070Y000919D01*
X020941Y000790D01*
X020771Y000720D01*
X020588Y000720D01*
X020419Y000790D01*
X020290Y000919D01*
X020220Y001088D01*
X020220Y001271D01*
X020290Y001441D01*
X020400Y001551D01*
X020400Y002809D01*
X020290Y002919D01*
X020220Y003088D01*
X020220Y003271D01*
X020290Y003441D01*
X020419Y003570D01*
X020516Y003610D01*
X019844Y003610D01*
X019941Y003570D01*
X020070Y003441D01*
X020140Y003271D01*
X020140Y003088D01*
X020070Y002919D01*
X019960Y002809D01*
X019960Y001551D01*
X020070Y001441D01*
X020140Y001271D01*
X020140Y001088D01*
X020070Y000919D01*
X019941Y000790D01*
X019771Y000720D01*
X019588Y000720D01*
X019419Y000790D01*
X019290Y000919D01*
X019220Y001088D01*
X019220Y001271D01*
X019290Y001441D01*
X019400Y001551D01*
X019400Y002809D01*
X019290Y002919D01*
X019220Y003088D01*
X019220Y003271D01*
X019290Y003441D01*
X019419Y003570D01*
X019516Y003610D01*
X018844Y003610D01*
X018941Y003570D01*
X019070Y003441D01*
X019140Y003271D01*
X019140Y003088D01*
X019070Y002919D01*
X018960Y002809D01*
X018960Y001551D01*
X019070Y001441D01*
X019140Y001271D01*
X019140Y001088D01*
X019070Y000919D01*
X018941Y000790D01*
X018771Y000720D01*
X018588Y000720D01*
X018419Y000790D01*
X018290Y000919D01*
X018220Y001088D01*
X018220Y001271D01*
X018290Y001441D01*
X018400Y001551D01*
X018400Y002809D01*
X018290Y002919D01*
X018220Y003088D01*
X018220Y003271D01*
X018290Y003441D01*
X018419Y003570D01*
X018516Y003610D01*
X017844Y003610D01*
X017941Y003570D01*
X018070Y003441D01*
X018140Y003271D01*
X018140Y003088D01*
X018070Y002919D01*
X017960Y002809D01*
X017960Y001551D01*
X018070Y001441D01*
X018140Y001271D01*
X018140Y001088D01*
X018070Y000919D01*
X017941Y000790D01*
X017771Y000720D01*
X017588Y000720D01*
X017419Y000790D01*
X017290Y000919D01*
X017220Y001088D01*
X017220Y001271D01*
X017290Y001441D01*
X017400Y001551D01*
X017400Y002809D01*
X017290Y002919D01*
X017220Y003088D01*
X017220Y003271D01*
X017290Y003441D01*
X017419Y003570D01*
X017516Y003610D01*
X016844Y003610D01*
X016941Y003570D01*
X017070Y003441D01*
X017140Y003271D01*
X017140Y003088D01*
X017070Y002919D01*
X016960Y002809D01*
X016960Y001551D01*
X017070Y001441D01*
X017140Y001271D01*
X017140Y001088D01*
X017070Y000919D01*
X016941Y000790D01*
X016771Y000720D01*
X016588Y000720D01*
X016419Y000790D01*
X016290Y000919D01*
X016220Y001088D01*
X016220Y001271D01*
X016290Y001441D01*
X016400Y001551D01*
X016400Y002809D01*
X016290Y002919D01*
X016220Y003088D01*
X016220Y003271D01*
X016290Y003441D01*
X016419Y003570D01*
X016516Y003610D01*
X014844Y003610D01*
X014941Y003570D01*
X015070Y003441D01*
X015140Y003271D01*
X015140Y003088D01*
X015070Y002919D01*
X014960Y002809D01*
X014960Y001551D01*
X015070Y001441D01*
X015140Y001271D01*
X015140Y001088D01*
X015070Y000919D01*
X014941Y000790D01*
X014771Y000720D01*
X014588Y000720D01*
X014419Y000790D01*
X014290Y000919D01*
X014220Y001088D01*
X014220Y001271D01*
X014290Y001441D01*
X014400Y001551D01*
X014400Y002809D01*
X014290Y002919D01*
X014220Y003088D01*
X014220Y003271D01*
X014290Y003441D01*
X014419Y003570D01*
X014516Y003610D01*
X013845Y003610D01*
X013857Y003606D01*
X013921Y003573D01*
X013980Y003531D01*
X014031Y003480D01*
X014073Y003421D01*
X014106Y003357D01*
X014129Y003288D01*
X014140Y003216D01*
X014140Y003200D01*
X013700Y003200D01*
X013700Y003160D01*
X014140Y003160D01*
X014140Y003144D01*
X014129Y003072D01*
X014106Y003003D01*
X014073Y002939D01*
X014031Y002880D01*
X013980Y002829D01*
X013921Y002787D01*
X013857Y002754D01*
X013788Y002731D01*
X013716Y002720D01*
X013700Y002720D01*
X013700Y003160D01*
X013660Y003160D01*
X013660Y002720D01*
X013644Y002720D01*
X013572Y002731D01*
X013503Y002754D01*
X013439Y002787D01*
X013380Y002829D01*
X013329Y002880D01*
X013287Y002939D01*
X013254Y003003D01*
X013231Y003072D01*
X013220Y003144D01*
X013220Y003160D01*
X013660Y003160D01*
X013660Y003200D01*
X013220Y003200D01*
X013220Y003216D01*
X013231Y003288D01*
X013254Y003357D01*
X013287Y003421D01*
X013329Y003480D01*
X013380Y003531D01*
X013439Y003573D01*
X013503Y003606D01*
X013515Y003610D01*
X012845Y003610D01*
X012857Y003606D01*
X012921Y003573D01*
X012980Y003531D01*
X013031Y003480D01*
X013073Y003421D01*
X013106Y003357D01*
X013129Y003288D01*
X013140Y003216D01*
X013140Y003200D01*
X012700Y003200D01*
X012700Y003160D01*
X013140Y003160D01*
X013140Y003144D01*
X013129Y003072D01*
X013106Y003003D01*
X013073Y002939D01*
X013031Y002880D01*
X012980Y002829D01*
X012921Y002787D01*
X012857Y002754D01*
X012788Y002731D01*
X012716Y002720D01*
X012700Y002720D01*
X012700Y003160D01*
X012660Y003160D01*
X012660Y002720D01*
X012644Y002720D01*
X012572Y002731D01*
X012503Y002754D01*
X012439Y002787D01*
X012380Y002829D01*
X012329Y002880D01*
X012287Y002939D01*
X012254Y003003D01*
X012231Y003072D01*
X012220Y003144D01*
X012220Y003160D01*
X012660Y003160D01*
X012660Y003200D01*
X012220Y003200D01*
X012220Y003216D01*
X012230Y003277D01*
X012140Y003187D01*
X012140Y003088D01*
X012070Y002919D01*
X012000Y002849D01*
X012000Y001511D01*
X012070Y001441D01*
X012140Y001271D01*
X012140Y001088D01*
X012070Y000919D01*
X011941Y000790D01*
X011771Y000720D01*
X011588Y000720D01*
X011419Y000790D01*
X011290Y000919D01*
X011220Y001088D01*
X011220Y001271D01*
X011290Y001441D01*
X011360Y001511D01*
X011360Y002849D01*
X011290Y002919D01*
X011220Y003088D01*
X011220Y003271D01*
X011290Y003441D01*
X011419Y003570D01*
X011440Y003578D01*
X011440Y005851D01*
X011269Y005679D01*
X011269Y005613D01*
X011217Y005488D01*
X011122Y005393D01*
X010997Y005341D01*
X010863Y005341D01*
X010738Y005393D01*
X010643Y005488D01*
X010591Y005613D01*
X010591Y005747D01*
X010643Y005872D01*
X010738Y005967D01*
X010863Y006019D01*
X010929Y006019D01*
X011190Y006279D01*
X011190Y006461D01*
X011122Y006393D01*
X010997Y006341D01*
X010863Y006341D01*
X010738Y006393D01*
X010691Y006440D01*
X010132Y006440D01*
X010044Y006477D01*
X009544Y006977D01*
X009477Y007044D01*
X009440Y007132D01*
X009440Y008066D01*
X009420Y008086D01*
X009420Y006669D01*
X009467Y006622D01*
X009519Y006497D01*
X009519Y006363D01*
X009467Y006238D01*
X009372Y006143D01*
X009247Y006091D01*
X009113Y006091D01*
X008988Y006143D01*
X008893Y006238D01*
X008841Y006363D01*
X008841Y006497D01*
X008893Y006622D01*
X008940Y006669D01*
X008940Y010581D01*
X008581Y010940D01*
X007649Y010940D01*
X007717Y010872D01*
X007769Y010747D01*
X007769Y010613D01*
X007717Y010488D01*
X007622Y010393D01*
X007577Y010374D01*
X006736Y009533D01*
X006717Y009488D01*
X006622Y009393D01*
X006497Y009341D01*
X006363Y009341D01*
X006238Y009393D01*
X006143Y009488D01*
X006091Y009613D01*
X006091Y009747D01*
X006143Y009872D01*
X006238Y009967D01*
X006283Y009986D01*
X007124Y010827D01*
X007143Y010872D01*
X007211Y010940D01*
X007132Y010940D01*
X007044Y010977D01*
X006977Y011044D01*
X006727Y011294D01*
X006690Y011382D01*
X006690Y012103D01*
X006727Y012191D01*
X006794Y012258D01*
X007044Y012508D01*
X007132Y012545D01*
X008414Y012545D01*
X008290Y012669D01*
X008220Y012838D01*
X008220Y013021D01*
X008290Y013191D01*
X008419Y013320D01*
X008588Y013390D01*
X008771Y013390D01*
X008941Y013320D01*
X009070Y013191D01*
X009140Y013021D01*
X009140Y012838D01*
X009070Y012669D01*
X008996Y012595D01*
X009113Y012644D01*
X009247Y012644D01*
X009372Y012592D01*
X009467Y012497D01*
X009519Y012372D01*
X009519Y012238D01*
X009467Y012113D01*
X009372Y012018D01*
X009247Y011966D01*
X009113Y011966D01*
X008988Y012018D01*
X008941Y012065D01*
X007279Y012065D01*
X007170Y011956D01*
X007170Y011899D01*
X007238Y011967D01*
X007363Y012019D01*
X007497Y012019D01*
X007622Y011967D01*
X007669Y011920D01*
X009456Y011920D01*
X009591Y012056D01*
X009591Y012122D01*
X009643Y012247D01*
X009738Y012342D01*
X009814Y012374D01*
X009603Y012585D01*
X009589Y012585D01*
X009460Y012714D01*
X009460Y012839D01*
X008812Y013487D01*
X008771Y013470D01*
X008588Y013470D01*
X008419Y013540D01*
X008290Y013669D01*
X008220Y013838D01*
X008220Y014021D01*
X008290Y014191D01*
X008309Y014210D01*
X008163Y014210D01*
X008111Y014159D01*
X007994Y014110D01*
X007866Y014110D01*
X007749Y014159D01*
X004999Y016909D01*
X004909Y016999D01*
X004860Y017116D01*
X004860Y019067D01*
X004841Y019113D01*
X004841Y019247D01*
X004893Y019372D01*
X004988Y019467D01*
X005113Y019519D01*
X005247Y019519D01*
X005372Y019467D01*
X005467Y019372D01*
X005519Y019247D01*
X005519Y019113D01*
X005500Y019067D01*
X005500Y017313D01*
X008163Y014650D01*
X008309Y014650D01*
X008290Y014669D01*
X008220Y014838D01*
X008220Y015021D01*
X008290Y015191D01*
X008419Y015320D01*
X008588Y015390D01*
X008771Y015390D01*
X008941Y015320D01*
X009070Y015191D01*
X009078Y015170D01*
X009478Y015170D01*
X009566Y015133D01*
X009633Y015066D01*
X011008Y013691D01*
X011045Y013603D01*
X011045Y013507D01*
X011025Y013459D01*
X011025Y012336D01*
X011440Y012751D01*
X011440Y013728D01*
X011477Y013816D01*
X012479Y014818D01*
X012470Y014838D01*
X012470Y015021D01*
X012540Y015191D01*
X012669Y015320D01*
X012838Y015390D01*
X013021Y015390D01*
X013191Y015320D01*
X013320Y015191D01*
X013390Y015021D01*
X013390Y014838D01*
X013320Y014669D01*
X013191Y014540D01*
X013021Y014470D01*
X012838Y014470D01*
X012818Y014479D01*
X011920Y013581D01*
X011920Y012731D01*
X011940Y012751D01*
X011940Y013228D01*
X011977Y013316D01*
X012044Y013383D01*
X012479Y013818D01*
X012470Y013838D01*
X012470Y014021D01*
X012540Y014191D01*
X012669Y014320D01*
X012838Y014390D01*
X013021Y014390D01*
X013191Y014320D01*
X013320Y014191D01*
X013390Y014021D01*
X013390Y013838D01*
X013320Y013669D01*
X013191Y013540D01*
X013021Y013470D01*
X012838Y013470D01*
X012818Y013479D01*
X012420Y013081D01*
X012420Y012632D01*
X012383Y012544D01*
X012316Y012477D01*
X012268Y012457D01*
X011806Y011995D01*
X011872Y011967D01*
X011919Y011920D01*
X014081Y011920D01*
X014341Y012181D01*
X014341Y012247D01*
X014393Y012372D01*
X014461Y012440D01*
X013882Y012440D01*
X013794Y012477D01*
X013727Y012544D01*
X013477Y012794D01*
X013440Y012882D01*
X013440Y015081D01*
X013051Y015470D01*
X012564Y015470D01*
X012470Y015564D01*
X012470Y016296D01*
X012564Y016390D01*
X013296Y016390D01*
X013390Y016296D01*
X013390Y015809D01*
X013816Y015383D01*
X013883Y015316D01*
X013920Y015228D01*
X013920Y013029D01*
X014029Y012920D01*
X014853Y012920D01*
X014941Y012883D01*
X015253Y012572D01*
X015253Y013018D01*
X014679Y013591D01*
X014613Y013591D01*
X014488Y013643D01*
X014393Y013738D01*
X014341Y013863D01*
X014341Y013997D01*
X014393Y014122D01*
X014488Y014217D01*
X014613Y014269D01*
X014747Y014269D01*
X014872Y014217D01*
X014967Y014122D01*
X015019Y013997D01*
X015019Y013931D01*
X015696Y013253D01*
X015732Y013165D01*
X015732Y012802D01*
X015790Y012941D01*
X015919Y013070D01*
X016088Y013140D01*
X016271Y013140D01*
X016441Y013070D01*
X016570Y012941D01*
X016640Y012771D01*
X016640Y012588D01*
X016570Y012419D01*
X016441Y012290D01*
X016271Y012220D01*
X016088Y012220D01*
X015919Y012290D01*
X015790Y012419D01*
X015732Y012558D01*
X015732Y011802D01*
X015790Y011941D01*
X015919Y012070D01*
X016088Y012140D01*
X016271Y012140D01*
X016441Y012070D01*
X016570Y011941D01*
X016640Y011771D01*
X016640Y011588D01*
X016570Y011419D01*
X016441Y011290D01*
X016271Y011220D01*
X016088Y011220D01*
X015919Y011290D01*
X015790Y011419D01*
X015732Y011558D01*
X015732Y010802D01*
X015790Y010941D01*
X015919Y011070D01*
X016088Y011140D01*
X016271Y011140D01*
X016441Y011070D01*
X016570Y010941D01*
X016640Y010771D01*
X016640Y010588D01*
X016570Y010419D01*
X016441Y010290D01*
X016271Y010220D01*
X016088Y010220D01*
X015919Y010290D01*
X015790Y010419D01*
X015732Y010558D01*
X015732Y009802D01*
X015790Y009941D01*
X015919Y010070D01*
X016088Y010140D01*
X016271Y010140D01*
X016441Y010070D01*
X016570Y009941D01*
X016640Y009771D01*
X016640Y009588D01*
X016570Y009419D01*
X016441Y009290D01*
X016271Y009220D01*
X016088Y009220D01*
X015919Y009290D01*
X015790Y009419D01*
X015732Y009558D01*
X015732Y009320D01*
X015696Y009232D01*
X015191Y008727D01*
X015103Y008690D01*
X014632Y008690D01*
X014544Y008727D01*
X013581Y009690D01*
X013294Y009690D01*
X013247Y009643D01*
X013122Y009591D01*
X012988Y009591D01*
X012863Y009643D01*
X012768Y009738D01*
X012716Y009863D01*
X012716Y009997D01*
X012768Y010122D01*
X012863Y010217D01*
X012988Y010269D01*
X013122Y010269D01*
X013247Y010217D01*
X013294Y010170D01*
X013728Y010170D01*
X013816Y010133D01*
X013883Y010066D01*
X013883Y010066D01*
X014594Y009355D01*
X014591Y009363D01*
X014591Y009497D01*
X014643Y009622D01*
X014738Y009717D01*
X014863Y009769D01*
X014929Y009769D01*
X014940Y009779D01*
X014940Y011961D01*
X014872Y011893D01*
X014747Y011841D01*
X014681Y011841D01*
X014326Y011486D01*
X014372Y011467D01*
X014467Y011372D01*
X014519Y011247D01*
X014519Y011113D01*
X014467Y010988D01*
X014372Y010893D01*
X014247Y010841D01*
X014113Y010841D01*
X013988Y010893D01*
X013941Y010940D01*
X011507Y010940D01*
X011419Y010977D01*
X011352Y011044D01*
X011332Y011092D01*
X011275Y011149D01*
X011275Y011089D01*
X011170Y010984D01*
X011170Y008882D01*
X011133Y008794D01*
X010920Y008581D01*
X010920Y008529D01*
X010931Y008519D01*
X010997Y008519D01*
X011122Y008467D01*
X011217Y008372D01*
X011269Y008247D01*
X011269Y008113D01*
X011217Y007988D01*
X011122Y007893D01*
X010997Y007841D01*
X010863Y007841D01*
X010738Y007893D01*
X010643Y007988D01*
X010591Y008113D01*
X010591Y008179D01*
X010545Y008226D01*
X010545Y008029D01*
X011341Y007233D01*
X011341Y007247D01*
X011360Y007293D01*
X011360Y008255D01*
X011341Y008300D01*
X011341Y008435D01*
X011393Y008559D01*
X011488Y008655D01*
X011613Y008706D01*
X011747Y008706D01*
X011872Y008655D01*
X011967Y008559D01*
X012019Y008435D01*
X012019Y008300D01*
X012000Y008255D01*
X012000Y007293D01*
X012019Y007247D01*
X012019Y007113D01*
X011967Y006988D01*
X011920Y006941D01*
X011920Y003873D01*
X012159Y004111D01*
X012249Y004201D01*
X012366Y004250D01*
X015870Y004250D01*
X015835Y004276D01*
X015776Y004335D01*
X015727Y004402D01*
X015689Y004477D01*
X015663Y004556D01*
X015650Y004638D01*
X015650Y004660D01*
X016160Y004660D01*
X016160Y004700D01*
X016160Y005210D01*
X016138Y005210D01*
X016056Y005197D01*
X015977Y005171D01*
X015902Y005133D01*
X015835Y005084D01*
X015776Y005025D01*
X015727Y004958D01*
X015689Y004883D01*
X015663Y004804D01*
X015650Y004722D01*
X015650Y004700D01*
X016160Y004700D01*
X016200Y004700D01*
X016710Y004700D01*
X017160Y004700D01*
X017160Y005210D01*
X017138Y005210D01*
X017056Y005197D01*
X016977Y005171D01*
X016902Y005133D01*
X016835Y005084D01*
X016776Y005025D01*
X016727Y004958D01*
X016689Y004883D01*
X016680Y004856D01*
X016671Y004883D01*
X016633Y004958D01*
X016584Y005025D01*
X016525Y005084D01*
X016458Y005133D01*
X016383Y005171D01*
X016304Y005197D01*
X016222Y005210D01*
X016200Y005210D01*
X016200Y004700D01*
X016200Y004660D01*
X017160Y004660D01*
X017160Y004700D01*
X017200Y004700D01*
X017710Y004700D01*
X018160Y004700D01*
X018160Y005210D01*
X018138Y005210D01*
X018056Y005197D01*
X017977Y005171D01*
X017902Y005133D01*
X017835Y005084D01*
X017776Y005025D01*
X017727Y004958D01*
X017689Y004883D01*
X017680Y004856D01*
X017671Y004883D01*
X017633Y004958D01*
X017584Y005025D01*
X017525Y005084D01*
X017458Y005133D01*
X017383Y005171D01*
X017304Y005197D01*
X017222Y005210D01*
X017200Y005210D01*
X017200Y004700D01*
X017200Y004660D01*
X018160Y004660D01*
X018160Y004700D01*
X018200Y004700D01*
X018710Y004700D01*
X019160Y004700D01*
X019160Y005210D01*
X019138Y005210D01*
X019056Y005197D01*
X018977Y005171D01*
X018902Y005133D01*
X018835Y005084D01*
X018776Y005025D01*
X018727Y004958D01*
X018689Y004883D01*
X018680Y004856D01*
X018671Y004883D01*
X018633Y004958D01*
X018584Y005025D01*
X018525Y005084D01*
X018458Y005133D01*
X018383Y005171D01*
X018304Y005197D01*
X018222Y005210D01*
X018200Y005210D01*
X018200Y004700D01*
X018200Y004660D01*
X019160Y004660D01*
X019160Y004700D01*
X019200Y004700D01*
X019710Y004700D01*
X020160Y004700D01*
X020160Y005210D01*
X020138Y005210D01*
X020056Y005197D01*
X019977Y005171D01*
X019902Y005133D01*
X019835Y005084D01*
X019776Y005025D01*
X019727Y004958D01*
X019689Y004883D01*
X019680Y004856D01*
X019671Y004883D01*
X019633Y004958D01*
X019584Y005025D01*
X019525Y005084D01*
X019458Y005133D01*
X019383Y005171D01*
X019304Y005197D01*
X019222Y005210D01*
X019200Y005210D01*
X019200Y004700D01*
X019200Y004660D01*
X020160Y004660D01*
X020160Y004700D01*
X020200Y004700D01*
X020650Y004700D01*
X021160Y004700D01*
X021160Y005210D01*
X021138Y005210D01*
X021056Y005197D01*
X020977Y005171D01*
X020902Y005133D01*
X020835Y005084D01*
X020776Y005025D01*
X020727Y004958D01*
X020689Y004883D01*
X020680Y004856D01*
X020671Y004883D01*
X020633Y004958D01*
X020584Y005025D01*
X020525Y005084D01*
X020458Y005133D01*
X020383Y005171D01*
X020304Y005197D01*
X020222Y005210D01*
X020200Y005210D01*
X020200Y004700D01*
X020200Y004660D01*
X021160Y004660D01*
X021160Y004700D01*
X021200Y004700D01*
X021710Y004700D01*
X022160Y004700D01*
X022160Y005210D01*
X022138Y005210D01*
X022056Y005197D01*
X021977Y005171D01*
X021902Y005133D01*
X021835Y005084D01*
X021776Y005025D01*
X021727Y004958D01*
X021689Y004883D01*
X021680Y004856D01*
X021671Y004883D01*
X021633Y004958D01*
X021584Y005025D01*
X021525Y005084D01*
X021458Y005133D01*
X021383Y005171D01*
X021304Y005197D01*
X021222Y005210D01*
X021200Y005210D01*
X021200Y004700D01*
X021200Y004660D01*
X022160Y004660D01*
X022160Y004700D01*
X022200Y004700D01*
X022200Y005210D01*
X022222Y005210D01*
X022304Y005197D01*
X022383Y005171D01*
X022458Y005133D01*
X022525Y005084D01*
X022584Y005025D01*
X022633Y004958D01*
X022671Y004883D01*
X022697Y004804D01*
X022710Y004722D01*
X022710Y004700D01*
X022200Y004700D01*
X022200Y004660D01*
X022710Y004660D01*
X022710Y004638D01*
X022700Y004578D01*
X022760Y004638D01*
X022760Y013940D01*
X022570Y013940D01*
X022640Y013771D01*
X022640Y013588D01*
X022570Y013419D01*
X022441Y013290D01*
X022271Y013220D01*
X022088Y013220D01*
X021919Y013290D01*
X021790Y013419D01*
X021720Y013588D01*
X021720Y013771D01*
X021790Y013940D01*
X021570Y013940D01*
X021640Y013771D01*
X021640Y013588D01*
X021570Y013419D01*
X021441Y013290D01*
X021271Y013220D01*
X021088Y013220D01*
X020919Y013290D01*
X020790Y013419D01*
X020720Y013588D01*
X020720Y013771D01*
X020790Y013940D01*
X020632Y013940D01*
X020544Y013977D01*
X020477Y014044D01*
X020440Y014132D01*
X020440Y014290D01*
X020271Y014220D01*
X020088Y014220D01*
X019919Y014290D01*
X019790Y014419D01*
X019720Y014588D01*
X019720Y014771D01*
X019790Y014941D01*
X019919Y015070D01*
X020088Y015140D01*
X020271Y015140D01*
X020440Y015070D01*
X020440Y015290D01*
X020271Y015220D01*
X020088Y015220D01*
X019919Y015290D01*
X019790Y015419D01*
X019720Y015588D01*
X019720Y015771D01*
X019790Y015941D01*
X019919Y016070D01*
X020088Y016140D01*
X020271Y016140D01*
X020440Y016070D01*
X020440Y016081D01*
X020346Y016175D01*
X020285Y016150D01*
X020075Y016150D01*
X019880Y016231D01*
X019731Y016380D01*
X019680Y016502D01*
X019629Y016380D01*
X019480Y016231D01*
X019285Y016150D01*
X019075Y016150D01*
X018880Y016231D01*
X018731Y016380D01*
X018680Y016502D01*
X018629Y016380D01*
X018480Y016231D01*
X018285Y016150D01*
X018075Y016150D01*
X017880Y016231D01*
X017731Y016380D01*
X017680Y016502D01*
X017629Y016380D01*
X017480Y016231D01*
X017285Y016150D01*
X017075Y016150D01*
X016880Y016231D01*
X016731Y016380D01*
X016680Y016502D01*
X016629Y016380D01*
X016480Y016231D01*
X016285Y016150D01*
X016075Y016150D01*
X015880Y016231D01*
X015731Y016380D01*
X015650Y016575D01*
X015650Y016785D01*
X015731Y016980D01*
X015880Y017129D01*
X016075Y017210D01*
X016285Y017210D01*
X016480Y017129D01*
X016629Y016980D01*
X016680Y016858D01*
X016731Y016980D01*
X016880Y017129D01*
X017075Y017210D01*
X017285Y017210D01*
X017480Y017129D01*
X017629Y016980D01*
X017680Y016858D01*
X017731Y016980D01*
X017880Y017129D01*
X018075Y017210D01*
X018285Y017210D01*
X018480Y017129D01*
X018629Y016980D01*
X018680Y016858D01*
X018731Y016980D01*
X018880Y017129D01*
X019075Y017210D01*
X019285Y017210D01*
X019480Y017129D01*
X019629Y016980D01*
X019680Y016858D01*
X019731Y016980D01*
X019880Y017129D01*
X020075Y017210D01*
X020285Y017210D01*
X020480Y017129D01*
X020629Y016980D01*
X020680Y016858D01*
X020731Y016980D01*
X020880Y017129D01*
X021075Y017210D01*
X021285Y017210D01*
X021480Y017129D01*
X021629Y016980D01*
X021680Y016858D01*
X021731Y016980D01*
X021880Y017129D01*
X022075Y017210D01*
X022285Y017210D01*
X022480Y017129D01*
X022629Y016980D01*
X022650Y016930D01*
X022650Y020180D01*
X022641Y020293D01*
X022572Y020507D01*
X022439Y020689D01*
X022257Y020822D01*
X022043Y020891D01*
X021930Y020900D01*
X001206Y020900D01*
X001106Y020879D01*
X000894Y020789D01*
X000711Y020649D01*
X000571Y020466D01*
X000481Y020254D01*
X000460Y020154D01*
X000460Y001206D01*
X000481Y001106D01*
X000571Y000894D01*
X000537Y000973D02*
X003021Y000973D01*
X002971Y000993D02*
X003269Y000870D01*
X003591Y000870D01*
X003889Y000993D01*
X004117Y001221D01*
X004240Y001519D01*
X004240Y001841D01*
X004117Y002139D01*
X003889Y002367D01*
X003591Y002490D01*
X003269Y002490D01*
X002971Y002367D01*
X002743Y002139D01*
X002620Y001841D01*
X002620Y001519D01*
X002743Y001221D01*
X002971Y000993D01*
X002833Y001131D02*
X000476Y001131D01*
X000460Y001290D02*
X002715Y001290D01*
X002649Y001448D02*
X000460Y001448D01*
X000460Y001607D02*
X002620Y001607D01*
X002620Y001765D02*
X000460Y001765D01*
X000460Y001924D02*
X002654Y001924D01*
X002720Y002082D02*
X000460Y002082D01*
X000460Y002241D02*
X002845Y002241D01*
X003049Y002399D02*
X000460Y002399D01*
X000460Y002558D02*
X004610Y002558D01*
X004610Y002716D02*
X000460Y002716D01*
X000460Y002875D02*
X003258Y002875D01*
X003269Y002870D02*
X003591Y002870D01*
X003889Y002993D01*
X004117Y003221D01*
X004240Y003519D01*
X004240Y003841D01*
X004117Y004139D01*
X003889Y004367D01*
X003591Y004490D01*
X003269Y004490D01*
X002971Y004367D01*
X002743Y004139D01*
X002620Y003841D01*
X002620Y003519D01*
X002743Y003221D01*
X002971Y002993D01*
X003269Y002870D01*
X002931Y003033D02*
X000460Y003033D01*
X000460Y003192D02*
X002773Y003192D01*
X002690Y003350D02*
X000460Y003350D01*
X000460Y003509D02*
X002624Y003509D01*
X002620Y003667D02*
X000460Y003667D01*
X000460Y003826D02*
X002620Y003826D01*
X002679Y003984D02*
X000460Y003984D01*
X000460Y004143D02*
X002747Y004143D01*
X002905Y004301D02*
X000460Y004301D01*
X000460Y004460D02*
X003195Y004460D01*
X003269Y004870D02*
X003591Y004870D01*
X003889Y004993D01*
X004117Y005221D01*
X004240Y005519D01*
X004240Y005841D01*
X004117Y006139D01*
X003889Y006367D01*
X003591Y006490D01*
X003269Y006490D01*
X002971Y006367D01*
X002743Y006139D01*
X002620Y005841D01*
X002620Y005519D01*
X002743Y005221D01*
X002971Y004993D01*
X003269Y004870D01*
X003112Y004935D02*
X000460Y004935D01*
X000460Y004777D02*
X005360Y004777D01*
X005360Y004935D02*
X003748Y004935D01*
X003989Y005094D02*
X004857Y005094D01*
X004863Y005091D02*
X004997Y005091D01*
X005122Y005143D01*
X005217Y005238D01*
X005269Y005363D01*
X005269Y005497D01*
X005250Y005543D01*
X005250Y006817D01*
X005269Y006863D01*
X005269Y006997D01*
X005217Y007122D01*
X005122Y007217D01*
X004997Y007269D01*
X004863Y007269D01*
X004738Y007217D01*
X004643Y007122D01*
X004591Y006997D01*
X004591Y006863D01*
X004610Y006817D01*
X004610Y005543D01*
X004591Y005497D01*
X004591Y005363D01*
X004643Y005238D01*
X004738Y005143D01*
X004863Y005091D01*
X005003Y005094D02*
X005360Y005094D01*
X005360Y005252D02*
X005223Y005252D01*
X005269Y005411D02*
X005360Y005411D01*
X005360Y005569D02*
X005250Y005569D01*
X005250Y005728D02*
X005360Y005728D01*
X005360Y005886D02*
X005250Y005886D01*
X005250Y006045D02*
X005360Y006045D01*
X005341Y006203D02*
X005250Y006203D01*
X005250Y006362D02*
X005360Y006362D01*
X005360Y006520D02*
X005250Y006520D01*
X005250Y006679D02*
X005360Y006679D01*
X005360Y006837D02*
X005258Y006837D01*
X005269Y006996D02*
X005360Y006996D01*
X005360Y007154D02*
X005185Y007154D01*
X005360Y007313D02*
X004155Y007313D01*
X004117Y007221D02*
X004240Y007519D01*
X004240Y007841D01*
X004117Y008139D01*
X003889Y008367D01*
X003591Y008490D01*
X003269Y008490D01*
X002971Y008367D01*
X002743Y008139D01*
X002620Y007841D01*
X002620Y007519D01*
X002743Y007221D01*
X002971Y006993D01*
X003269Y006870D01*
X003591Y006870D01*
X003889Y006993D01*
X004117Y007221D01*
X004050Y007154D02*
X004675Y007154D01*
X004591Y006996D02*
X003891Y006996D01*
X004220Y007471D02*
X005360Y007471D01*
X005360Y007630D02*
X004240Y007630D01*
X004240Y007788D02*
X005360Y007788D01*
X005360Y007947D02*
X004196Y007947D01*
X004131Y008105D02*
X005344Y008105D01*
X005348Y008264D02*
X003992Y008264D01*
X003755Y008422D02*
X005360Y008422D01*
X005360Y008581D02*
X000460Y008581D01*
X000460Y008739D02*
X005360Y008739D01*
X005360Y008898D02*
X000460Y008898D01*
X000460Y009056D02*
X005360Y009056D01*
X005360Y009215D02*
X000460Y009215D01*
X000460Y009373D02*
X005360Y009373D01*
X005360Y009532D02*
X000460Y009532D01*
X000460Y009690D02*
X005360Y009690D01*
X005360Y009849D02*
X000460Y009849D01*
X000460Y010007D02*
X005360Y010007D01*
X005360Y010166D02*
X000460Y010166D01*
X000460Y010324D02*
X005360Y010324D01*
X005360Y010483D02*
X003842Y010483D01*
X003881Y010505D02*
X003965Y010570D01*
X004040Y010645D01*
X004105Y010729D01*
X004158Y010821D01*
X004199Y010919D01*
X004226Y011022D01*
X004240Y011127D01*
X004240Y011142D01*
X003468Y011142D01*
X003468Y011218D01*
X004240Y011218D01*
X004240Y011233D01*
X004226Y011338D01*
X004199Y011441D01*
X004158Y011539D01*
X004105Y011631D01*
X004040Y011715D01*
X003965Y011790D01*
X003881Y011855D01*
X003789Y011908D01*
X003691Y011949D01*
X003588Y011976D01*
X003483Y011990D01*
X003468Y011990D01*
X003468Y011218D01*
X003392Y011218D01*
X003392Y011142D01*
X003468Y011142D01*
X003468Y010370D01*
X003483Y010370D01*
X003588Y010384D01*
X003691Y010411D01*
X003789Y010452D01*
X003881Y010505D01*
X004037Y010641D02*
X005360Y010641D01*
X005358Y010800D02*
X004146Y010800D01*
X004209Y010958D02*
X005199Y010958D01*
X005041Y011117D02*
X004239Y011117D01*
X004234Y011275D02*
X004882Y011275D01*
X004724Y011434D02*
X004201Y011434D01*
X004127Y011592D02*
X004565Y011592D01*
X004407Y011751D02*
X004005Y011751D01*
X003787Y011909D02*
X004248Y011909D01*
X004090Y012068D02*
X000460Y012068D01*
X000460Y012226D02*
X003931Y012226D01*
X003773Y012385D02*
X003626Y012385D01*
X003234Y012385D02*
X000460Y012385D01*
X000460Y012543D02*
X002921Y012543D01*
X002763Y012702D02*
X000460Y012702D01*
X000460Y012860D02*
X002686Y012860D01*
X002620Y013019D02*
X000460Y013019D01*
X000460Y013177D02*
X002620Y013177D01*
X002620Y013336D02*
X000460Y013336D01*
X000460Y013494D02*
X002683Y013494D01*
X002757Y013653D02*
X000460Y013653D01*
X000460Y013811D02*
X002916Y013811D01*
X003219Y013970D02*
X000460Y013970D01*
X000460Y014128D02*
X007823Y014128D01*
X008037Y014128D02*
X008264Y014128D01*
X008220Y013970D02*
X003641Y013970D01*
X003944Y013811D02*
X008231Y013811D01*
X008307Y013653D02*
X004103Y013653D01*
X004177Y013494D02*
X008531Y013494D01*
X008457Y013336D02*
X004240Y013336D01*
X004240Y013177D02*
X008284Y013177D01*
X008220Y013019D02*
X004240Y013019D01*
X004203Y012860D02*
X008220Y012860D01*
X008277Y012702D02*
X004361Y012702D01*
X004520Y012543D02*
X007127Y012543D01*
X007180Y012305D02*
X006930Y012055D01*
X006930Y011430D01*
X007180Y011180D01*
X008680Y011180D01*
X009180Y010680D01*
X009180Y006430D01*
X008851Y006520D02*
X006000Y006520D01*
X006000Y006362D02*
X008842Y006362D01*
X008928Y006203D02*
X006019Y006203D01*
X006000Y006045D02*
X010955Y006045D01*
X011114Y006203D02*
X009432Y006203D01*
X009518Y006362D02*
X010814Y006362D01*
X011046Y006362D02*
X011190Y006362D01*
X011430Y006180D02*
X010930Y005680D01*
X010609Y005569D02*
X006000Y005569D01*
X006000Y005411D02*
X010720Y005411D01*
X010591Y005728D02*
X006000Y005728D01*
X006000Y005886D02*
X010657Y005886D01*
X011140Y005411D02*
X011440Y005411D01*
X011440Y005569D02*
X011251Y005569D01*
X011317Y005728D02*
X011440Y005728D01*
X011430Y006180D02*
X011430Y006805D01*
X010305Y007930D01*
X010305Y010805D01*
X009868Y010930D02*
X009868Y010243D01*
X009493Y009868D02*
X009680Y009680D01*
X009680Y008305D01*
X009680Y007180D01*
X010180Y006680D01*
X010930Y006680D01*
X011262Y007313D02*
X011360Y007313D01*
X011360Y007471D02*
X011103Y007471D01*
X010945Y007630D02*
X011360Y007630D01*
X011360Y007788D02*
X010786Y007788D01*
X010684Y007947D02*
X010628Y007947D01*
X010594Y008105D02*
X010545Y008105D01*
X010680Y008430D02*
X010930Y008180D01*
X011167Y008422D02*
X011341Y008422D01*
X011356Y008264D02*
X011262Y008264D01*
X011266Y008105D02*
X011360Y008105D01*
X011360Y007947D02*
X011176Y007947D01*
X010680Y008430D02*
X010680Y008680D01*
X010930Y008930D01*
X010930Y011055D01*
X011170Y010958D02*
X011464Y010958D01*
X011307Y011117D02*
X011275Y011117D01*
X011555Y011180D02*
X014180Y011180D01*
X014406Y011434D02*
X014940Y011434D01*
X014940Y011592D02*
X014431Y011592D01*
X014590Y011751D02*
X014940Y011751D01*
X014940Y011909D02*
X014888Y011909D01*
X014680Y012180D02*
X014180Y011680D01*
X011680Y011680D01*
X011879Y012068D02*
X014228Y012068D01*
X014341Y012226D02*
X012037Y012226D01*
X012196Y012385D02*
X014405Y012385D01*
X014805Y012680D02*
X013930Y012680D01*
X013680Y012930D01*
X013680Y015180D01*
X012930Y015930D01*
X013390Y015872D02*
X015761Y015872D01*
X015790Y015941D02*
X015720Y015771D01*
X015720Y015588D01*
X015790Y015419D01*
X015919Y015290D01*
X016088Y015220D01*
X016271Y015220D01*
X016441Y015290D01*
X016570Y015419D01*
X016640Y015588D01*
X016640Y015771D01*
X016570Y015941D01*
X016441Y016070D01*
X016271Y016140D01*
X016088Y016140D01*
X015919Y016070D01*
X015790Y015941D01*
X015879Y016030D02*
X013390Y016030D01*
X013390Y016189D02*
X015982Y016189D01*
X015763Y016347D02*
X013339Y016347D01*
X013486Y015713D02*
X015720Y015713D01*
X015734Y015555D02*
X013645Y015555D01*
X013803Y015396D02*
X015813Y015396D01*
X016046Y015238D02*
X013916Y015238D01*
X013920Y015079D02*
X015941Y015079D01*
X015919Y015070D02*
X015790Y014941D01*
X015720Y014771D01*
X015720Y014588D01*
X015790Y014419D01*
X015919Y014290D01*
X016088Y014220D01*
X016271Y014220D01*
X016441Y014290D01*
X016570Y014419D01*
X016640Y014588D01*
X016640Y014771D01*
X016570Y014941D01*
X016441Y015070D01*
X016271Y015140D01*
X016088Y015140D01*
X015919Y015070D01*
X015782Y014921D02*
X013920Y014921D01*
X013920Y014762D02*
X015720Y014762D01*
X015720Y014604D02*
X013920Y014604D01*
X013920Y014445D02*
X015779Y014445D01*
X015928Y014287D02*
X013920Y014287D01*
X013920Y014128D02*
X014399Y014128D01*
X014341Y013970D02*
X013920Y013970D01*
X013920Y013811D02*
X014363Y013811D01*
X014478Y013653D02*
X013920Y013653D01*
X013920Y013494D02*
X014777Y013494D01*
X014935Y013336D02*
X013920Y013336D01*
X013920Y013177D02*
X015094Y013177D01*
X015252Y013019D02*
X013931Y013019D01*
X013569Y012702D02*
X013333Y012702D01*
X013320Y012669D02*
X013390Y012838D01*
X013390Y013021D01*
X013320Y013191D01*
X013191Y013320D01*
X013021Y013390D01*
X012838Y013390D01*
X012669Y013320D01*
X012540Y013191D01*
X012470Y013021D01*
X012470Y012838D01*
X012540Y012669D01*
X012669Y012540D01*
X012838Y012470D01*
X013021Y012470D01*
X013191Y012540D01*
X013320Y012669D01*
X013194Y012543D02*
X013728Y012543D01*
X013449Y012860D02*
X013390Y012860D01*
X013390Y013019D02*
X013440Y013019D01*
X013440Y013177D02*
X013326Y013177D01*
X013440Y013336D02*
X013153Y013336D01*
X013079Y013494D02*
X013440Y013494D01*
X013440Y013653D02*
X013303Y013653D01*
X013379Y013811D02*
X013440Y013811D01*
X013440Y013970D02*
X013390Y013970D01*
X013346Y014128D02*
X013440Y014128D01*
X013440Y014287D02*
X013224Y014287D01*
X013440Y014445D02*
X012784Y014445D01*
X012636Y014287D02*
X012626Y014287D01*
X012514Y014128D02*
X012467Y014128D01*
X012470Y013970D02*
X012309Y013970D01*
X012150Y013811D02*
X012472Y013811D01*
X012313Y013653D02*
X011992Y013653D01*
X011920Y013494D02*
X012155Y013494D01*
X011996Y013336D02*
X011920Y013336D01*
X011920Y013177D02*
X011940Y013177D01*
X011940Y013019D02*
X011920Y013019D01*
X011920Y012860D02*
X011940Y012860D01*
X012180Y012680D02*
X012180Y013180D01*
X012930Y013930D01*
X012707Y013336D02*
X012675Y013336D01*
X012534Y013177D02*
X012516Y013177D01*
X012470Y013019D02*
X012420Y013019D01*
X012420Y012860D02*
X012470Y012860D01*
X012420Y012702D02*
X012527Y012702D01*
X012666Y012543D02*
X012382Y012543D01*
X011680Y012680D02*
X011680Y013680D01*
X012930Y014930D01*
X013254Y014604D02*
X013440Y014604D01*
X013440Y014762D02*
X013358Y014762D01*
X013390Y014921D02*
X013440Y014921D01*
X013440Y015079D02*
X013366Y015079D01*
X013283Y015238D02*
X013273Y015238D01*
X013125Y015396D02*
X007417Y015396D01*
X007575Y015238D02*
X008337Y015238D01*
X008244Y015079D02*
X007734Y015079D01*
X007892Y014921D02*
X008220Y014921D01*
X008252Y014762D02*
X008051Y014762D01*
X007621Y014287D02*
X000460Y014287D01*
X000460Y014445D02*
X007462Y014445D01*
X007304Y014604D02*
X000460Y014604D01*
X000460Y014762D02*
X007145Y014762D01*
X006987Y014921D02*
X000460Y014921D01*
X000460Y015079D02*
X006828Y015079D01*
X006670Y015238D02*
X000460Y015238D01*
X000460Y015396D02*
X006511Y015396D01*
X006353Y015555D02*
X000460Y015555D01*
X000460Y015713D02*
X006194Y015713D01*
X006036Y015872D02*
X000460Y015872D01*
X000460Y016030D02*
X005877Y016030D01*
X005719Y016189D02*
X000460Y016189D01*
X000460Y016347D02*
X005560Y016347D01*
X005402Y016506D02*
X000460Y016506D01*
X000460Y016664D02*
X005243Y016664D01*
X005085Y016823D02*
X000460Y016823D01*
X000460Y016981D02*
X004926Y016981D01*
X004860Y017140D02*
X000460Y017140D01*
X000460Y017298D02*
X004860Y017298D01*
X004860Y017457D02*
X000460Y017457D01*
X000460Y017615D02*
X004860Y017615D01*
X004860Y017774D02*
X000460Y017774D01*
X000460Y017932D02*
X004860Y017932D01*
X004860Y018091D02*
X000460Y018091D01*
X000460Y018249D02*
X004860Y018249D01*
X004860Y018408D02*
X000460Y018408D01*
X000460Y018566D02*
X004860Y018566D01*
X004860Y018725D02*
X000460Y018725D01*
X000460Y018883D02*
X004860Y018883D01*
X004860Y019042D02*
X000460Y019042D01*
X000460Y019200D02*
X004841Y019200D01*
X004887Y019359D02*
X000460Y019359D01*
X000460Y019517D02*
X005108Y019517D01*
X005252Y019517D02*
X005800Y019517D01*
X005800Y019359D02*
X005473Y019359D01*
X005519Y019200D02*
X005800Y019200D01*
X005800Y019042D02*
X005500Y019042D01*
X005500Y018883D02*
X005800Y018883D01*
X005800Y018725D02*
X005500Y018725D01*
X005500Y018566D02*
X005800Y018566D01*
X005800Y018551D02*
X005690Y018441D01*
X005620Y018271D01*
X005620Y018088D01*
X005690Y017919D01*
X005819Y017790D01*
X005988Y017720D01*
X006171Y017720D01*
X006341Y017790D01*
X006470Y017919D01*
X006540Y018088D01*
X006540Y018271D01*
X006470Y018441D01*
X006360Y018551D01*
X006360Y019809D01*
X006470Y019919D01*
X006540Y020088D01*
X006540Y020271D01*
X006470Y020441D01*
X006341Y020570D01*
X006171Y020640D01*
X005988Y020640D01*
X005819Y020570D01*
X005690Y020441D01*
X005620Y020271D01*
X005620Y020088D01*
X005690Y019919D01*
X005800Y019809D01*
X005800Y018551D01*
X005676Y018408D02*
X005500Y018408D01*
X005500Y018249D02*
X005620Y018249D01*
X005620Y018091D02*
X005500Y018091D01*
X005500Y017932D02*
X005685Y017932D01*
X005859Y017774D02*
X005500Y017774D01*
X005500Y017615D02*
X022650Y017615D01*
X022650Y017457D02*
X005500Y017457D01*
X005515Y017298D02*
X022650Y017298D01*
X022650Y017140D02*
X022456Y017140D01*
X022629Y016981D02*
X022650Y016981D01*
X022180Y016680D02*
X021680Y016180D01*
X020680Y016180D01*
X021180Y016680D01*
X021680Y016180D01*
X021680Y015180D01*
X023080Y015180D01*
X023080Y015080D01*
X023400Y014921D02*
X023400Y014921D01*
X023400Y014762D02*
X023400Y014762D01*
X023400Y014604D02*
X023400Y014604D01*
X023400Y014445D02*
X023400Y014445D01*
X023400Y014287D02*
X023400Y014287D01*
X023400Y014128D02*
X023400Y014128D01*
X023400Y013970D02*
X023400Y013970D01*
X023400Y013811D02*
X023400Y013811D01*
X023400Y013653D02*
X023400Y013653D01*
X023400Y013494D02*
X023400Y013494D01*
X023400Y013336D02*
X023400Y013336D01*
X023400Y013177D02*
X023400Y013177D01*
X023400Y013019D02*
X023400Y013019D01*
X023400Y012860D02*
X023400Y012860D01*
X023400Y012702D02*
X023400Y012702D01*
X023400Y012543D02*
X023400Y012543D01*
X023400Y012385D02*
X023400Y012385D01*
X023400Y012226D02*
X023400Y012226D01*
X023400Y012068D02*
X023400Y012068D01*
X023400Y011909D02*
X023400Y011909D01*
X023400Y011751D02*
X023400Y011751D01*
X023400Y011592D02*
X023400Y011592D01*
X023400Y011434D02*
X023400Y011434D01*
X023400Y011275D02*
X023400Y011275D01*
X023400Y011117D02*
X023400Y011117D01*
X023400Y010958D02*
X023400Y010958D01*
X023400Y010800D02*
X023400Y010800D01*
X023400Y010641D02*
X023400Y010641D01*
X023400Y010483D02*
X023400Y010483D01*
X023400Y010324D02*
X023400Y010324D01*
X023400Y010166D02*
X023400Y010166D01*
X023400Y010007D02*
X023400Y010007D01*
X023400Y009849D02*
X023400Y009849D01*
X023400Y009690D02*
X023400Y009690D01*
X023400Y009532D02*
X023400Y009532D01*
X023400Y009373D02*
X023400Y009373D01*
X023400Y009215D02*
X023400Y009215D01*
X023400Y009056D02*
X023400Y009056D01*
X023400Y008898D02*
X023400Y008898D01*
X023400Y008739D02*
X023400Y008739D01*
X023400Y008581D02*
X023400Y008581D01*
X023400Y008422D02*
X023400Y008422D01*
X023400Y008264D02*
X023400Y008264D01*
X023400Y008105D02*
X023400Y008105D01*
X023400Y007947D02*
X023400Y007947D01*
X023400Y007788D02*
X023400Y007788D01*
X023400Y007630D02*
X023400Y007630D01*
X023400Y007471D02*
X023400Y007471D01*
X023400Y007313D02*
X023400Y007313D01*
X023400Y007154D02*
X023400Y007154D01*
X023400Y006996D02*
X023400Y006996D01*
X023400Y006837D02*
X023400Y006837D01*
X023400Y006679D02*
X023400Y006679D01*
X023400Y006520D02*
X023400Y006520D01*
X023400Y006362D02*
X023400Y006362D01*
X023400Y006203D02*
X023400Y006203D01*
X023400Y006045D02*
X023400Y006045D01*
X023400Y005886D02*
X023400Y005886D01*
X023400Y005728D02*
X023400Y005728D01*
X023400Y005569D02*
X023400Y005569D01*
X023400Y005411D02*
X023400Y005411D01*
X023400Y005252D02*
X023400Y005252D01*
X023400Y005094D02*
X023400Y005094D01*
X023400Y004935D02*
X023400Y004935D01*
X023400Y004777D02*
X023400Y004777D01*
X023400Y004618D02*
X023400Y004618D01*
X023400Y004460D02*
X023400Y004460D01*
X023400Y004301D02*
X023329Y004301D01*
X023400Y004143D02*
X023170Y004143D01*
X023012Y003984D02*
X023400Y003984D01*
X023400Y003826D02*
X022853Y003826D01*
X022695Y003667D02*
X023400Y003667D01*
X023400Y003509D02*
X022002Y003509D01*
X022107Y003350D02*
X023400Y003350D01*
X023400Y003192D02*
X022140Y003192D01*
X022117Y003033D02*
X023400Y003033D01*
X023400Y002875D02*
X022025Y002875D01*
X021960Y002716D02*
X023400Y002716D01*
X023400Y002558D02*
X021960Y002558D01*
X021960Y002399D02*
X023400Y002399D01*
X023345Y002241D02*
X021960Y002241D01*
X021960Y002082D02*
X023186Y002082D01*
X023028Y001924D02*
X021960Y001924D01*
X021960Y001765D02*
X022869Y001765D01*
X022711Y001607D02*
X021960Y001607D01*
X022063Y001448D02*
X022552Y001448D01*
X022422Y001290D02*
X022133Y001290D01*
X022140Y001131D02*
X022396Y001131D01*
X022360Y000973D02*
X022092Y000973D01*
X021965Y000814D02*
X022293Y000814D01*
X022168Y000656D02*
X008796Y000656D01*
X008954Y000814D02*
X009395Y000814D01*
X009419Y000790D02*
X009588Y000720D01*
X009771Y000720D01*
X009941Y000790D01*
X010070Y000919D01*
X010140Y001088D01*
X010140Y001271D01*
X010070Y001441D01*
X009960Y001551D01*
X009960Y002809D01*
X010070Y002919D01*
X010140Y003088D01*
X010140Y003271D01*
X010070Y003441D01*
X009941Y003570D01*
X009771Y003640D01*
X009588Y003640D01*
X009419Y003570D01*
X009290Y003441D01*
X009220Y003271D01*
X009220Y003088D01*
X009290Y002919D01*
X009400Y002809D01*
X009400Y001551D01*
X009290Y001441D01*
X009220Y001271D01*
X009220Y001088D01*
X009290Y000919D01*
X009419Y000790D01*
X009268Y000973D02*
X009139Y000973D01*
X009206Y001131D02*
X009220Y001131D01*
X009227Y001290D02*
X009189Y001290D01*
X009297Y001448D02*
X009079Y001448D01*
X009400Y001607D02*
X006000Y001607D01*
X006000Y001765D02*
X009400Y001765D01*
X009400Y001924D02*
X006000Y001924D01*
X006000Y002082D02*
X009400Y002082D01*
X009400Y002241D02*
X006000Y002241D01*
X006000Y002399D02*
X009400Y002399D01*
X009400Y002558D02*
X006000Y002558D01*
X006000Y002716D02*
X009400Y002716D01*
X009335Y002875D02*
X006000Y002875D01*
X006000Y003033D02*
X009243Y003033D01*
X009220Y003192D02*
X006019Y003192D01*
X006000Y003350D02*
X009253Y003350D01*
X009358Y003509D02*
X006000Y003509D01*
X006000Y003667D02*
X011440Y003667D01*
X011440Y003826D02*
X006000Y003826D01*
X006000Y003984D02*
X011440Y003984D01*
X011440Y004143D02*
X006000Y004143D01*
X006000Y004301D02*
X011440Y004301D01*
X011440Y004460D02*
X006000Y004460D01*
X006000Y004618D02*
X011440Y004618D01*
X011440Y004777D02*
X006000Y004777D01*
X006000Y004935D02*
X011440Y004935D01*
X011440Y005094D02*
X006000Y005094D01*
X006000Y005252D02*
X011440Y005252D01*
X011920Y005252D02*
X014351Y005252D01*
X014290Y005191D02*
X014419Y005320D01*
X014588Y005390D01*
X014771Y005390D01*
X014941Y005320D01*
X015070Y005191D01*
X015140Y005021D01*
X015140Y004838D01*
X015070Y004669D01*
X014941Y004540D01*
X014771Y004470D01*
X014588Y004470D01*
X014419Y004540D01*
X014290Y004669D01*
X014220Y004838D01*
X014220Y005021D01*
X014290Y005191D01*
X014250Y005094D02*
X011920Y005094D01*
X011920Y004935D02*
X014220Y004935D01*
X014246Y004777D02*
X011920Y004777D01*
X011920Y004618D02*
X014341Y004618D01*
X015019Y004618D02*
X015653Y004618D01*
X015659Y004777D02*
X015114Y004777D01*
X015140Y004935D02*
X015715Y004935D01*
X015847Y005094D02*
X015110Y005094D01*
X015009Y005252D02*
X016011Y005252D01*
X016088Y005220D02*
X016271Y005220D01*
X016441Y005290D01*
X016570Y005419D01*
X016640Y005588D01*
X016640Y005771D01*
X016570Y005941D01*
X016441Y006070D01*
X016271Y006140D01*
X016088Y006140D01*
X015919Y006070D01*
X015790Y005941D01*
X015720Y005771D01*
X015720Y005588D01*
X015790Y005419D01*
X015919Y005290D01*
X016088Y005220D01*
X016160Y005094D02*
X016200Y005094D01*
X016200Y004935D02*
X016160Y004935D01*
X016160Y004777D02*
X016200Y004777D01*
X016513Y005094D02*
X016847Y005094D01*
X016715Y004935D02*
X016645Y004935D01*
X016349Y005252D02*
X017011Y005252D01*
X017088Y005220D02*
X017271Y005220D01*
X017441Y005290D01*
X017570Y005419D01*
X017640Y005588D01*
X017640Y005771D01*
X017570Y005941D01*
X017441Y006070D01*
X017271Y006140D01*
X017088Y006140D01*
X016919Y006070D01*
X016790Y005941D01*
X016720Y005771D01*
X016720Y005588D01*
X016790Y005419D01*
X016919Y005290D01*
X017088Y005220D01*
X017160Y005094D02*
X017200Y005094D01*
X017200Y004935D02*
X017160Y004935D01*
X017160Y004777D02*
X017200Y004777D01*
X017513Y005094D02*
X017847Y005094D01*
X017715Y004935D02*
X017645Y004935D01*
X017349Y005252D02*
X018011Y005252D01*
X018088Y005220D02*
X018271Y005220D01*
X018441Y005290D01*
X018570Y005419D01*
X018640Y005588D01*
X018640Y005771D01*
X018570Y005941D01*
X018441Y006070D01*
X018271Y006140D01*
X018088Y006140D01*
X017919Y006070D01*
X017790Y005941D01*
X017720Y005771D01*
X017720Y005588D01*
X017790Y005419D01*
X017919Y005290D01*
X018088Y005220D01*
X018160Y005094D02*
X018200Y005094D01*
X018200Y004935D02*
X018160Y004935D01*
X018160Y004777D02*
X018200Y004777D01*
X018513Y005094D02*
X018847Y005094D01*
X018715Y004935D02*
X018645Y004935D01*
X018349Y005252D02*
X019011Y005252D01*
X019088Y005220D02*
X018919Y005290D01*
X018790Y005419D01*
X018720Y005588D01*
X018720Y005771D01*
X018790Y005941D01*
X018919Y006070D01*
X019088Y006140D01*
X019271Y006140D01*
X019441Y006070D01*
X019570Y005941D01*
X019640Y005771D01*
X019640Y005588D01*
X019570Y005419D01*
X019441Y005290D01*
X019271Y005220D01*
X019088Y005220D01*
X019160Y005094D02*
X019200Y005094D01*
X019200Y004935D02*
X019160Y004935D01*
X019160Y004777D02*
X019200Y004777D01*
X019513Y005094D02*
X019847Y005094D01*
X019715Y004935D02*
X019645Y004935D01*
X019349Y005252D02*
X020011Y005252D01*
X020088Y005220D02*
X019919Y005290D01*
X019790Y005419D01*
X019720Y005588D01*
X019720Y005771D01*
X019790Y005941D01*
X019919Y006070D01*
X020088Y006140D01*
X020271Y006140D01*
X020441Y006070D01*
X020570Y005941D01*
X020640Y005771D01*
X020640Y005588D01*
X020570Y005419D01*
X020441Y005290D01*
X020271Y005220D01*
X020088Y005220D01*
X020160Y005094D02*
X020200Y005094D01*
X020200Y004935D02*
X020160Y004935D01*
X020160Y004777D02*
X020200Y004777D01*
X020513Y005094D02*
X020847Y005094D01*
X020715Y004935D02*
X020645Y004935D01*
X020349Y005252D02*
X021011Y005252D01*
X021088Y005220D02*
X021271Y005220D01*
X021441Y005290D01*
X021570Y005419D01*
X021640Y005588D01*
X021640Y005771D01*
X021570Y005941D01*
X021441Y006070D01*
X021271Y006140D01*
X021088Y006140D01*
X020919Y006070D01*
X020790Y005941D01*
X020720Y005771D01*
X020720Y005588D01*
X020790Y005419D01*
X020919Y005290D01*
X021088Y005220D01*
X021160Y005094D02*
X021200Y005094D01*
X021200Y004935D02*
X021160Y004935D01*
X021160Y004777D02*
X021200Y004777D01*
X021513Y005094D02*
X021847Y005094D01*
X021715Y004935D02*
X021645Y004935D01*
X021349Y005252D02*
X022011Y005252D01*
X022088Y005220D02*
X022271Y005220D01*
X022441Y005290D01*
X022570Y005419D01*
X022640Y005588D01*
X022640Y005771D01*
X022570Y005941D01*
X022441Y006070D01*
X022271Y006140D01*
X022088Y006140D01*
X021919Y006070D01*
X021790Y005941D01*
X021720Y005771D01*
X021720Y005588D01*
X021790Y005419D01*
X021919Y005290D01*
X022088Y005220D01*
X022160Y005094D02*
X022200Y005094D01*
X022200Y004935D02*
X022160Y004935D01*
X022160Y004777D02*
X022200Y004777D01*
X022513Y005094D02*
X022760Y005094D01*
X022760Y005252D02*
X022349Y005252D01*
X022561Y005411D02*
X022760Y005411D01*
X022760Y005569D02*
X022632Y005569D01*
X022640Y005728D02*
X022760Y005728D01*
X022760Y005886D02*
X022593Y005886D01*
X022466Y006045D02*
X022760Y006045D01*
X022760Y006203D02*
X015058Y006203D01*
X015070Y006191D02*
X014941Y006320D01*
X014771Y006390D01*
X014588Y006390D01*
X014419Y006320D01*
X014290Y006191D01*
X014220Y006021D01*
X014220Y005838D01*
X014290Y005669D01*
X014419Y005540D01*
X014588Y005470D01*
X014771Y005470D01*
X014941Y005540D01*
X015070Y005669D01*
X015140Y005838D01*
X015140Y006021D01*
X015070Y006191D01*
X015130Y006045D02*
X015894Y006045D01*
X015767Y005886D02*
X015140Y005886D01*
X015094Y005728D02*
X015720Y005728D01*
X015728Y005569D02*
X014970Y005569D01*
X014390Y005569D02*
X011920Y005569D01*
X011920Y005411D02*
X015799Y005411D01*
X016561Y005411D02*
X016799Y005411D01*
X016728Y005569D02*
X016632Y005569D01*
X016640Y005728D02*
X016720Y005728D01*
X016767Y005886D02*
X016593Y005886D01*
X016466Y006045D02*
X016894Y006045D01*
X016919Y006290D02*
X017088Y006220D01*
X017271Y006220D01*
X017441Y006290D01*
X017570Y006419D01*
X017640Y006588D01*
X017640Y006771D01*
X017570Y006941D01*
X017441Y007070D01*
X017271Y007140D01*
X017088Y007140D01*
X016919Y007070D01*
X016790Y006941D01*
X016720Y006771D01*
X016720Y006588D01*
X016790Y006419D01*
X016919Y006290D01*
X016848Y006362D02*
X016512Y006362D01*
X016570Y006419D02*
X016640Y006588D01*
X016640Y006771D01*
X016570Y006941D01*
X016441Y007070D01*
X016271Y007140D01*
X016088Y007140D01*
X015919Y007070D01*
X015790Y006941D01*
X015720Y006771D01*
X015720Y006588D01*
X015790Y006419D01*
X015919Y006290D01*
X016088Y006220D01*
X016271Y006220D01*
X016441Y006290D01*
X016570Y006419D01*
X016612Y006520D02*
X016748Y006520D01*
X016720Y006679D02*
X016640Y006679D01*
X016613Y006837D02*
X016747Y006837D01*
X016845Y006996D02*
X016515Y006996D01*
X016441Y007290D02*
X016271Y007220D01*
X016088Y007220D01*
X015919Y007290D01*
X015790Y007419D01*
X015720Y007588D01*
X015720Y007771D01*
X015790Y007941D01*
X015919Y008070D01*
X016088Y008140D01*
X016271Y008140D01*
X016441Y008070D01*
X016570Y007941D01*
X016640Y007771D01*
X016640Y007588D01*
X016570Y007419D01*
X016441Y007290D01*
X016463Y007313D02*
X016897Y007313D01*
X016919Y007290D02*
X017088Y007220D01*
X017271Y007220D01*
X017441Y007290D01*
X017570Y007419D01*
X017640Y007588D01*
X017640Y007771D01*
X017570Y007941D01*
X017441Y008070D01*
X017271Y008140D01*
X017088Y008140D01*
X016919Y008070D01*
X016790Y007941D01*
X016720Y007771D01*
X016720Y007588D01*
X016790Y007419D01*
X016919Y007290D01*
X016769Y007471D02*
X016591Y007471D01*
X016640Y007630D02*
X016720Y007630D01*
X016727Y007788D02*
X016633Y007788D01*
X016564Y007947D02*
X016796Y007947D01*
X017004Y008105D02*
X016356Y008105D01*
X016271Y008220D02*
X016088Y008220D01*
X015919Y008290D01*
X015790Y008419D01*
X015720Y008588D01*
X015720Y008771D01*
X015790Y008941D01*
X015919Y009070D01*
X016088Y009140D01*
X016271Y009140D01*
X016441Y009070D01*
X016570Y008941D01*
X016640Y008771D01*
X016640Y008588D01*
X016570Y008419D01*
X016441Y008290D01*
X016271Y008220D01*
X016377Y008264D02*
X016983Y008264D01*
X016919Y008290D02*
X017088Y008220D01*
X017271Y008220D01*
X017441Y008290D01*
X017570Y008419D01*
X017640Y008588D01*
X017640Y008771D01*
X017570Y008941D01*
X017441Y009070D01*
X017271Y009140D01*
X017088Y009140D01*
X016919Y009070D01*
X016790Y008941D01*
X016720Y008771D01*
X016720Y008588D01*
X016790Y008419D01*
X016919Y008290D01*
X016789Y008422D02*
X016571Y008422D01*
X016637Y008581D02*
X016723Y008581D01*
X016720Y008739D02*
X016640Y008739D01*
X016588Y008898D02*
X016772Y008898D01*
X016905Y009056D02*
X016455Y009056D01*
X016524Y009373D02*
X016836Y009373D01*
X016790Y009419D02*
X016919Y009290D01*
X017088Y009220D01*
X017271Y009220D01*
X017441Y009290D01*
X017570Y009419D01*
X017640Y009588D01*
X017640Y009771D01*
X017570Y009941D01*
X017441Y010070D01*
X017271Y010140D01*
X017088Y010140D01*
X016919Y010070D01*
X016790Y009941D01*
X016720Y009771D01*
X016720Y009588D01*
X016790Y009419D01*
X016744Y009532D02*
X016616Y009532D01*
X016640Y009690D02*
X016720Y009690D01*
X016752Y009849D02*
X016608Y009849D01*
X016504Y010007D02*
X016856Y010007D01*
X016919Y010290D02*
X017088Y010220D01*
X017271Y010220D01*
X017441Y010290D01*
X017570Y010419D01*
X017640Y010588D01*
X017640Y010771D01*
X017570Y010941D01*
X017441Y011070D01*
X017271Y011140D01*
X017088Y011140D01*
X016919Y011070D01*
X016790Y010941D01*
X016720Y010771D01*
X016720Y010588D01*
X016790Y010419D01*
X016919Y010290D01*
X016885Y010324D02*
X016475Y010324D01*
X016596Y010483D02*
X016764Y010483D01*
X016720Y010641D02*
X016640Y010641D01*
X016628Y010800D02*
X016732Y010800D01*
X016807Y010958D02*
X016553Y010958D01*
X016328Y011117D02*
X017032Y011117D01*
X017088Y011220D02*
X016919Y011290D01*
X016790Y011419D01*
X016720Y011588D01*
X016720Y011771D01*
X016790Y011941D01*
X016919Y012070D01*
X017088Y012140D01*
X017271Y012140D01*
X017441Y012070D01*
X017570Y011941D01*
X017640Y011771D01*
X017640Y011588D01*
X017570Y011419D01*
X017441Y011290D01*
X017271Y011220D01*
X017088Y011220D01*
X016956Y011275D02*
X016404Y011275D01*
X016576Y011434D02*
X016784Y011434D01*
X016720Y011592D02*
X016640Y011592D01*
X016640Y011751D02*
X016720Y011751D01*
X016777Y011909D02*
X016583Y011909D01*
X016443Y012068D02*
X016917Y012068D01*
X016919Y012290D02*
X017088Y012220D01*
X017271Y012220D01*
X017441Y012290D01*
X017570Y012419D01*
X017640Y012588D01*
X017640Y012771D01*
X017570Y012941D01*
X017441Y013070D01*
X017271Y013140D01*
X017088Y013140D01*
X016919Y013070D01*
X016790Y012941D01*
X016720Y012771D01*
X016720Y012588D01*
X016790Y012419D01*
X016919Y012290D01*
X016825Y012385D02*
X016535Y012385D01*
X016621Y012543D02*
X016739Y012543D01*
X016720Y012702D02*
X016640Y012702D01*
X016603Y012860D02*
X016757Y012860D01*
X016868Y013019D02*
X016492Y013019D01*
X016441Y013290D02*
X016271Y013220D01*
X016088Y013220D01*
X015919Y013290D01*
X015790Y013419D01*
X015720Y013588D01*
X015720Y013771D01*
X015790Y013941D01*
X015919Y014070D01*
X016088Y014140D01*
X016271Y014140D01*
X016441Y014070D01*
X016570Y013941D01*
X016640Y013771D01*
X016640Y013588D01*
X016570Y013419D01*
X016441Y013290D01*
X016486Y013336D02*
X016874Y013336D01*
X016919Y013290D02*
X017088Y013220D01*
X017271Y013220D01*
X017441Y013290D01*
X017570Y013419D01*
X017640Y013588D01*
X017640Y013771D01*
X017570Y013941D01*
X017441Y014070D01*
X017271Y014140D01*
X017088Y014140D01*
X016919Y014070D01*
X016790Y013941D01*
X016720Y013771D01*
X016720Y013588D01*
X016790Y013419D01*
X016919Y013290D01*
X016759Y013494D02*
X016601Y013494D01*
X016640Y013653D02*
X016720Y013653D01*
X016736Y013811D02*
X016624Y013811D01*
X016541Y013970D02*
X016819Y013970D01*
X017060Y014128D02*
X016300Y014128D01*
X016432Y014287D02*
X016928Y014287D01*
X016919Y014290D02*
X017088Y014220D01*
X017271Y014220D01*
X017441Y014290D01*
X017570Y014419D01*
X017640Y014588D01*
X017640Y014771D01*
X017570Y014941D01*
X017441Y015070D01*
X017271Y015140D01*
X017088Y015140D01*
X016919Y015070D01*
X016790Y014941D01*
X016720Y014771D01*
X016720Y014588D01*
X016790Y014419D01*
X016919Y014290D01*
X016779Y014445D02*
X016581Y014445D01*
X016640Y014604D02*
X016720Y014604D01*
X016720Y014762D02*
X016640Y014762D01*
X016578Y014921D02*
X016782Y014921D01*
X016941Y015079D02*
X016419Y015079D01*
X016314Y015238D02*
X017046Y015238D01*
X017088Y015220D02*
X017271Y015220D01*
X017441Y015290D01*
X017570Y015419D01*
X017640Y015588D01*
X017640Y015771D01*
X017570Y015941D01*
X017441Y016070D01*
X017271Y016140D01*
X017088Y016140D01*
X016919Y016070D01*
X016790Y015941D01*
X016720Y015771D01*
X016720Y015588D01*
X016790Y015419D01*
X016919Y015290D01*
X017088Y015220D01*
X017314Y015238D02*
X018046Y015238D01*
X018088Y015220D02*
X018271Y015220D01*
X018441Y015290D01*
X018570Y015419D01*
X018640Y015588D01*
X018640Y015771D01*
X018570Y015941D01*
X018441Y016070D01*
X018271Y016140D01*
X018088Y016140D01*
X017919Y016070D01*
X017790Y015941D01*
X017720Y015771D01*
X017720Y015588D01*
X017790Y015419D01*
X017919Y015290D01*
X018088Y015220D01*
X018088Y015140D02*
X017919Y015070D01*
X017790Y014941D01*
X017720Y014771D01*
X017720Y014588D01*
X017790Y014419D01*
X017919Y014290D01*
X018088Y014220D01*
X018271Y014220D01*
X018441Y014290D01*
X018570Y014419D01*
X018640Y014588D01*
X018640Y014771D01*
X018570Y014941D01*
X018441Y015070D01*
X018271Y015140D01*
X018088Y015140D01*
X017941Y015079D02*
X017419Y015079D01*
X017578Y014921D02*
X017782Y014921D01*
X017720Y014762D02*
X017640Y014762D01*
X017640Y014604D02*
X017720Y014604D01*
X017779Y014445D02*
X017581Y014445D01*
X017432Y014287D02*
X017928Y014287D01*
X018060Y014128D02*
X017300Y014128D01*
X017541Y013970D02*
X017819Y013970D01*
X017790Y013941D02*
X017720Y013771D01*
X017720Y013588D01*
X017790Y013419D01*
X017919Y013290D01*
X018088Y013220D01*
X018271Y013220D01*
X018441Y013290D01*
X018570Y013419D01*
X018640Y013588D01*
X018640Y013771D01*
X018570Y013941D01*
X018441Y014070D01*
X018271Y014140D01*
X018088Y014140D01*
X017919Y014070D01*
X017790Y013941D01*
X017736Y013811D02*
X017624Y013811D01*
X017640Y013653D02*
X017720Y013653D01*
X017759Y013494D02*
X017601Y013494D01*
X017486Y013336D02*
X017874Y013336D01*
X017919Y013070D02*
X017790Y012941D01*
X017720Y012771D01*
X017720Y012588D01*
X017790Y012419D01*
X017919Y012290D01*
X018088Y012220D01*
X018271Y012220D01*
X018441Y012290D01*
X018570Y012419D01*
X018640Y012588D01*
X018640Y012771D01*
X018570Y012941D01*
X018441Y013070D01*
X018271Y013140D01*
X018088Y013140D01*
X017919Y013070D01*
X017868Y013019D02*
X017492Y013019D01*
X017603Y012860D02*
X017757Y012860D01*
X017720Y012702D02*
X017640Y012702D01*
X017621Y012543D02*
X017739Y012543D01*
X017825Y012385D02*
X017535Y012385D01*
X017286Y012226D02*
X018074Y012226D01*
X018088Y012140D02*
X017919Y012070D01*
X017790Y011941D01*
X017720Y011771D01*
X017720Y011588D01*
X017790Y011419D01*
X017919Y011290D01*
X018088Y011220D01*
X018271Y011220D01*
X018441Y011290D01*
X018570Y011419D01*
X018640Y011588D01*
X018640Y011771D01*
X018570Y011941D01*
X018441Y012070D01*
X018271Y012140D01*
X018088Y012140D01*
X017917Y012068D02*
X017443Y012068D01*
X017583Y011909D02*
X017777Y011909D01*
X017720Y011751D02*
X017640Y011751D01*
X017640Y011592D02*
X017720Y011592D01*
X017784Y011434D02*
X017576Y011434D01*
X017404Y011275D02*
X017956Y011275D01*
X018032Y011117D02*
X017328Y011117D01*
X017553Y010958D02*
X017807Y010958D01*
X017790Y010941D02*
X017720Y010771D01*
X017720Y010588D01*
X017790Y010419D01*
X017919Y010290D01*
X018088Y010220D01*
X018271Y010220D01*
X018441Y010290D01*
X018570Y010419D01*
X018640Y010588D01*
X018640Y010771D01*
X018570Y010941D01*
X018441Y011070D01*
X018271Y011140D01*
X018088Y011140D01*
X017919Y011070D01*
X017790Y010941D01*
X017732Y010800D02*
X017628Y010800D01*
X017640Y010641D02*
X017720Y010641D01*
X017764Y010483D02*
X017596Y010483D01*
X017475Y010324D02*
X017885Y010324D01*
X017919Y010070D02*
X017790Y009941D01*
X017720Y009771D01*
X017720Y009588D01*
X017790Y009419D01*
X017919Y009290D01*
X018088Y009220D01*
X018271Y009220D01*
X018441Y009290D01*
X018570Y009419D01*
X018640Y009588D01*
X018640Y009771D01*
X018570Y009941D01*
X018441Y010070D01*
X018271Y010140D01*
X018088Y010140D01*
X017919Y010070D01*
X017856Y010007D02*
X017504Y010007D01*
X017608Y009849D02*
X017752Y009849D01*
X017720Y009690D02*
X017640Y009690D01*
X017616Y009532D02*
X017744Y009532D01*
X017836Y009373D02*
X017524Y009373D01*
X017455Y009056D02*
X017905Y009056D01*
X017919Y009070D02*
X017790Y008941D01*
X017720Y008771D01*
X017720Y008588D01*
X017790Y008419D01*
X017919Y008290D01*
X018088Y008220D01*
X018271Y008220D01*
X018441Y008290D01*
X018570Y008419D01*
X018640Y008588D01*
X018640Y008771D01*
X018570Y008941D01*
X018441Y009070D01*
X018271Y009140D01*
X018088Y009140D01*
X017919Y009070D01*
X017772Y008898D02*
X017588Y008898D01*
X017640Y008739D02*
X017720Y008739D01*
X017723Y008581D02*
X017637Y008581D01*
X017571Y008422D02*
X017789Y008422D01*
X017983Y008264D02*
X017377Y008264D01*
X017356Y008105D02*
X018004Y008105D01*
X018088Y008140D02*
X017919Y008070D01*
X017790Y007941D01*
X017720Y007771D01*
X017720Y007588D01*
X017790Y007419D01*
X017919Y007290D01*
X018088Y007220D01*
X018271Y007220D01*
X018441Y007290D01*
X018570Y007419D01*
X018640Y007588D01*
X018640Y007771D01*
X018570Y007941D01*
X018441Y008070D01*
X018271Y008140D01*
X018088Y008140D01*
X018356Y008105D02*
X019004Y008105D01*
X019088Y008140D02*
X018919Y008070D01*
X018790Y007941D01*
X018720Y007771D01*
X018720Y007588D01*
X018790Y007419D01*
X018919Y007290D01*
X019088Y007220D01*
X019271Y007220D01*
X019441Y007290D01*
X019570Y007419D01*
X019640Y007588D01*
X019640Y007771D01*
X019570Y007941D01*
X019441Y008070D01*
X019271Y008140D01*
X019088Y008140D01*
X019088Y008220D02*
X018919Y008290D01*
X018790Y008419D01*
X018720Y008588D01*
X018720Y008771D01*
X018790Y008941D01*
X018919Y009070D01*
X019088Y009140D01*
X019271Y009140D01*
X019441Y009070D01*
X019570Y008941D01*
X019640Y008771D01*
X019640Y008588D01*
X019570Y008419D01*
X019441Y008290D01*
X019271Y008220D01*
X019088Y008220D01*
X018983Y008264D02*
X018377Y008264D01*
X018571Y008422D02*
X018789Y008422D01*
X018723Y008581D02*
X018637Y008581D01*
X018640Y008739D02*
X018720Y008739D01*
X018772Y008898D02*
X018588Y008898D01*
X018455Y009056D02*
X018905Y009056D01*
X018919Y009290D02*
X018790Y009419D01*
X018720Y009588D01*
X018720Y009771D01*
X018790Y009941D01*
X018919Y010070D01*
X019088Y010140D01*
X019271Y010140D01*
X019441Y010070D01*
X019570Y009941D01*
X019640Y009771D01*
X019640Y009588D01*
X019570Y009419D01*
X019441Y009290D01*
X019271Y009220D01*
X019088Y009220D01*
X018919Y009290D01*
X018836Y009373D02*
X018524Y009373D01*
X018616Y009532D02*
X018744Y009532D01*
X018720Y009690D02*
X018640Y009690D01*
X018608Y009849D02*
X018752Y009849D01*
X018856Y010007D02*
X018504Y010007D01*
X018475Y010324D02*
X018885Y010324D01*
X018919Y010290D02*
X019088Y010220D01*
X019271Y010220D01*
X019441Y010290D01*
X019570Y010419D01*
X019640Y010588D01*
X019640Y010771D01*
X019570Y010941D01*
X019441Y011070D01*
X019271Y011140D01*
X019088Y011140D01*
X018919Y011070D01*
X018790Y010941D01*
X018720Y010771D01*
X018720Y010588D01*
X018790Y010419D01*
X018919Y010290D01*
X018764Y010483D02*
X018596Y010483D01*
X018640Y010641D02*
X018720Y010641D01*
X018732Y010800D02*
X018628Y010800D01*
X018553Y010958D02*
X018807Y010958D01*
X019032Y011117D02*
X018328Y011117D01*
X018404Y011275D02*
X018956Y011275D01*
X018919Y011290D02*
X019088Y011220D01*
X019271Y011220D01*
X019441Y011290D01*
X019570Y011419D01*
X019640Y011588D01*
X019640Y011771D01*
X019570Y011941D01*
X019441Y012070D01*
X019271Y012140D01*
X019088Y012140D01*
X018919Y012070D01*
X018790Y011941D01*
X018720Y011771D01*
X018720Y011588D01*
X018790Y011419D01*
X018919Y011290D01*
X018784Y011434D02*
X018576Y011434D01*
X018640Y011592D02*
X018720Y011592D01*
X018720Y011751D02*
X018640Y011751D01*
X018583Y011909D02*
X018777Y011909D01*
X018917Y012068D02*
X018443Y012068D01*
X018286Y012226D02*
X019074Y012226D01*
X019088Y012220D02*
X018919Y012290D01*
X018790Y012419D01*
X018720Y012588D01*
X018720Y012771D01*
X018790Y012941D01*
X018919Y013070D01*
X019088Y013140D01*
X019271Y013140D01*
X019441Y013070D01*
X019570Y012941D01*
X019640Y012771D01*
X019640Y012588D01*
X019570Y012419D01*
X019441Y012290D01*
X019271Y012220D01*
X019088Y012220D01*
X019286Y012226D02*
X020074Y012226D01*
X020088Y012220D02*
X020271Y012220D01*
X020441Y012290D01*
X020570Y012419D01*
X020640Y012588D01*
X020640Y012771D01*
X020570Y012941D01*
X020441Y013070D01*
X020271Y013140D01*
X020088Y013140D01*
X019919Y013070D01*
X019790Y012941D01*
X019720Y012771D01*
X019720Y012588D01*
X019790Y012419D01*
X019919Y012290D01*
X020088Y012220D01*
X020088Y012140D02*
X019919Y012070D01*
X019790Y011941D01*
X019720Y011771D01*
X019720Y011588D01*
X019790Y011419D01*
X019919Y011290D01*
X020088Y011220D01*
X020271Y011220D01*
X020441Y011290D01*
X020570Y011419D01*
X020640Y011588D01*
X020640Y011771D01*
X020570Y011941D01*
X020441Y012070D01*
X020271Y012140D01*
X020088Y012140D01*
X019917Y012068D02*
X019443Y012068D01*
X019583Y011909D02*
X019777Y011909D01*
X019720Y011751D02*
X019640Y011751D01*
X019640Y011592D02*
X019720Y011592D01*
X019784Y011434D02*
X019576Y011434D01*
X019404Y011275D02*
X019956Y011275D01*
X020032Y011117D02*
X019328Y011117D01*
X019553Y010958D02*
X019807Y010958D01*
X019790Y010941D02*
X019919Y011070D01*
X020088Y011140D01*
X020271Y011140D01*
X020441Y011070D01*
X020570Y010941D01*
X020640Y010771D01*
X020640Y010588D01*
X020570Y010419D01*
X020441Y010290D01*
X020271Y010220D01*
X020088Y010220D01*
X019919Y010290D01*
X019790Y010419D01*
X019720Y010588D01*
X019720Y010771D01*
X019790Y010941D01*
X019732Y010800D02*
X019628Y010800D01*
X019640Y010641D02*
X019720Y010641D01*
X019764Y010483D02*
X019596Y010483D01*
X019475Y010324D02*
X019885Y010324D01*
X019919Y010070D02*
X019790Y009941D01*
X019720Y009771D01*
X019720Y009588D01*
X019790Y009419D01*
X019919Y009290D01*
X020088Y009220D01*
X020271Y009220D01*
X020441Y009290D01*
X020570Y009419D01*
X020640Y009588D01*
X020640Y009771D01*
X020570Y009941D01*
X020441Y010070D01*
X020271Y010140D01*
X020088Y010140D01*
X019919Y010070D01*
X019856Y010007D02*
X019504Y010007D01*
X019608Y009849D02*
X019752Y009849D01*
X019720Y009690D02*
X019640Y009690D01*
X019616Y009532D02*
X019744Y009532D01*
X019836Y009373D02*
X019524Y009373D01*
X019455Y009056D02*
X019905Y009056D01*
X019919Y009070D02*
X019790Y008941D01*
X019720Y008771D01*
X019720Y008588D01*
X019790Y008419D01*
X019919Y008290D01*
X020088Y008220D01*
X020271Y008220D01*
X020441Y008290D01*
X020570Y008419D01*
X020640Y008588D01*
X020640Y008771D01*
X020570Y008941D01*
X020441Y009070D01*
X020271Y009140D01*
X020088Y009140D01*
X019919Y009070D01*
X019772Y008898D02*
X019588Y008898D01*
X019640Y008739D02*
X019720Y008739D01*
X019723Y008581D02*
X019637Y008581D01*
X019571Y008422D02*
X019789Y008422D01*
X019983Y008264D02*
X019377Y008264D01*
X019356Y008105D02*
X020004Y008105D01*
X020088Y008140D02*
X019919Y008070D01*
X019790Y007941D01*
X019720Y007771D01*
X019720Y007588D01*
X019790Y007419D01*
X019919Y007290D01*
X020088Y007220D01*
X020271Y007220D01*
X020441Y007290D01*
X020570Y007419D01*
X020640Y007588D01*
X020640Y007771D01*
X020570Y007941D01*
X020441Y008070D01*
X020271Y008140D01*
X020088Y008140D01*
X020356Y008105D02*
X021004Y008105D01*
X021088Y008140D02*
X020919Y008070D01*
X020790Y007941D01*
X020720Y007771D01*
X020720Y007588D01*
X020790Y007419D01*
X020919Y007290D01*
X021088Y007220D01*
X021271Y007220D01*
X021441Y007290D01*
X021570Y007419D01*
X021640Y007588D01*
X021640Y007771D01*
X021570Y007941D01*
X021441Y008070D01*
X021271Y008140D01*
X021088Y008140D01*
X021088Y008220D02*
X020919Y008290D01*
X020790Y008419D01*
X020720Y008588D01*
X020720Y008771D01*
X020790Y008941D01*
X020919Y009070D01*
X021088Y009140D01*
X021271Y009140D01*
X021441Y009070D01*
X021570Y008941D01*
X021640Y008771D01*
X021640Y008588D01*
X021570Y008419D01*
X021441Y008290D01*
X021271Y008220D01*
X021088Y008220D01*
X020983Y008264D02*
X020377Y008264D01*
X020571Y008422D02*
X020789Y008422D01*
X020723Y008581D02*
X020637Y008581D01*
X020640Y008739D02*
X020720Y008739D01*
X020772Y008898D02*
X020588Y008898D01*
X020455Y009056D02*
X020905Y009056D01*
X020919Y009290D02*
X021088Y009220D01*
X021271Y009220D01*
X021441Y009290D01*
X021570Y009419D01*
X021640Y009588D01*
X021640Y009771D01*
X021570Y009941D01*
X021441Y010070D01*
X021271Y010140D01*
X021088Y010140D01*
X020919Y010070D01*
X020790Y009941D01*
X020720Y009771D01*
X020720Y009588D01*
X020790Y009419D01*
X020919Y009290D01*
X020836Y009373D02*
X020524Y009373D01*
X020616Y009532D02*
X020744Y009532D01*
X020720Y009690D02*
X020640Y009690D01*
X020608Y009849D02*
X020752Y009849D01*
X020856Y010007D02*
X020504Y010007D01*
X020475Y010324D02*
X020885Y010324D01*
X020919Y010290D02*
X021088Y010220D01*
X021271Y010220D01*
X021441Y010290D01*
X021570Y010419D01*
X021640Y010588D01*
X021640Y010771D01*
X021570Y010941D01*
X021441Y011070D01*
X021271Y011140D01*
X021088Y011140D01*
X020919Y011070D01*
X020790Y010941D01*
X020720Y010771D01*
X020720Y010588D01*
X020790Y010419D01*
X020919Y010290D01*
X020764Y010483D02*
X020596Y010483D01*
X020640Y010641D02*
X020720Y010641D01*
X020732Y010800D02*
X020628Y010800D01*
X020553Y010958D02*
X020807Y010958D01*
X021032Y011117D02*
X020328Y011117D01*
X020404Y011275D02*
X020956Y011275D01*
X020919Y011290D02*
X021088Y011220D01*
X021271Y011220D01*
X021441Y011290D01*
X021570Y011419D01*
X021640Y011588D01*
X021640Y011771D01*
X021570Y011941D01*
X021441Y012070D01*
X021271Y012140D01*
X021088Y012140D01*
X020919Y012070D01*
X020790Y011941D01*
X020720Y011771D01*
X020720Y011588D01*
X020790Y011419D01*
X020919Y011290D01*
X020784Y011434D02*
X020576Y011434D01*
X020640Y011592D02*
X020720Y011592D01*
X020720Y011751D02*
X020640Y011751D01*
X020583Y011909D02*
X020777Y011909D01*
X020917Y012068D02*
X020443Y012068D01*
X020286Y012226D02*
X021074Y012226D01*
X021088Y012220D02*
X021271Y012220D01*
X021441Y012290D01*
X021570Y012419D01*
X021640Y012588D01*
X021640Y012771D01*
X021570Y012941D01*
X021441Y013070D01*
X021271Y013140D01*
X021088Y013140D01*
X020919Y013070D01*
X020790Y012941D01*
X020720Y012771D01*
X020720Y012588D01*
X020790Y012419D01*
X020919Y012290D01*
X021088Y012220D01*
X021286Y012226D02*
X022074Y012226D01*
X022088Y012220D02*
X022271Y012220D01*
X022441Y012290D01*
X022570Y012419D01*
X022640Y012588D01*
X022640Y012771D01*
X022570Y012941D01*
X022441Y013070D01*
X022271Y013140D01*
X022088Y013140D01*
X021919Y013070D01*
X021790Y012941D01*
X021720Y012771D01*
X021720Y012588D01*
X021790Y012419D01*
X021919Y012290D01*
X022088Y012220D01*
X022088Y012140D02*
X021919Y012070D01*
X021790Y011941D01*
X021720Y011771D01*
X021720Y011588D01*
X021790Y011419D01*
X021919Y011290D01*
X022088Y011220D01*
X022271Y011220D01*
X022441Y011290D01*
X022570Y011419D01*
X022640Y011588D01*
X022640Y011771D01*
X022570Y011941D01*
X022441Y012070D01*
X022271Y012140D01*
X022088Y012140D01*
X021917Y012068D02*
X021443Y012068D01*
X021583Y011909D02*
X021777Y011909D01*
X021720Y011751D02*
X021640Y011751D01*
X021640Y011592D02*
X021720Y011592D01*
X021784Y011434D02*
X021576Y011434D01*
X021404Y011275D02*
X021956Y011275D01*
X022032Y011117D02*
X021328Y011117D01*
X021553Y010958D02*
X021807Y010958D01*
X021790Y010941D02*
X021720Y010771D01*
X021720Y010588D01*
X021790Y010419D01*
X021919Y010290D01*
X022088Y010220D01*
X022271Y010220D01*
X022441Y010290D01*
X022570Y010419D01*
X022640Y010588D01*
X022640Y010771D01*
X022570Y010941D01*
X022441Y011070D01*
X022271Y011140D01*
X022088Y011140D01*
X021919Y011070D01*
X021790Y010941D01*
X021732Y010800D02*
X021628Y010800D01*
X021640Y010641D02*
X021720Y010641D01*
X021764Y010483D02*
X021596Y010483D01*
X021475Y010324D02*
X021885Y010324D01*
X021919Y010070D02*
X021790Y009941D01*
X021720Y009771D01*
X021720Y009588D01*
X021790Y009419D01*
X021919Y009290D01*
X022088Y009220D01*
X022271Y009220D01*
X022441Y009290D01*
X022570Y009419D01*
X022640Y009588D01*
X022640Y009771D01*
X022570Y009941D01*
X022441Y010070D01*
X022271Y010140D01*
X022088Y010140D01*
X021919Y010070D01*
X021856Y010007D02*
X021504Y010007D01*
X021608Y009849D02*
X021752Y009849D01*
X021720Y009690D02*
X021640Y009690D01*
X021616Y009532D02*
X021744Y009532D01*
X021836Y009373D02*
X021524Y009373D01*
X021455Y009056D02*
X021905Y009056D01*
X021919Y009070D02*
X021790Y008941D01*
X021720Y008771D01*
X021720Y008588D01*
X021790Y008419D01*
X021919Y008290D01*
X022088Y008220D01*
X022271Y008220D01*
X022441Y008290D01*
X022570Y008419D01*
X022640Y008588D01*
X022640Y008771D01*
X022570Y008941D01*
X022441Y009070D01*
X022271Y009140D01*
X022088Y009140D01*
X021919Y009070D01*
X021772Y008898D02*
X021588Y008898D01*
X021640Y008739D02*
X021720Y008739D01*
X021723Y008581D02*
X021637Y008581D01*
X021571Y008422D02*
X021789Y008422D01*
X021983Y008264D02*
X021377Y008264D01*
X021356Y008105D02*
X022004Y008105D01*
X022088Y008140D02*
X021919Y008070D01*
X021790Y007941D01*
X021720Y007771D01*
X021720Y007588D01*
X021790Y007419D01*
X021919Y007290D01*
X022088Y007220D01*
X022271Y007220D01*
X022441Y007290D01*
X022570Y007419D01*
X022640Y007588D01*
X022640Y007771D01*
X022570Y007941D01*
X022441Y008070D01*
X022271Y008140D01*
X022088Y008140D01*
X022356Y008105D02*
X022760Y008105D01*
X022760Y007947D02*
X022564Y007947D01*
X022633Y007788D02*
X022760Y007788D01*
X022760Y007630D02*
X022640Y007630D01*
X022591Y007471D02*
X022760Y007471D01*
X022760Y007313D02*
X022463Y007313D01*
X022441Y007070D02*
X022271Y007140D01*
X022088Y007140D01*
X021919Y007070D01*
X021790Y006941D01*
X021720Y006771D01*
X021720Y006588D01*
X021790Y006419D01*
X021919Y006290D01*
X022088Y006220D01*
X022271Y006220D01*
X022441Y006290D01*
X022570Y006419D01*
X022640Y006588D01*
X022640Y006771D01*
X022570Y006941D01*
X022441Y007070D01*
X022515Y006996D02*
X022760Y006996D01*
X022760Y007154D02*
X012019Y007154D01*
X012000Y007313D02*
X015897Y007313D01*
X015769Y007471D02*
X012000Y007471D01*
X012000Y007630D02*
X015720Y007630D01*
X015727Y007788D02*
X012000Y007788D01*
X012000Y007947D02*
X015796Y007947D01*
X016004Y008105D02*
X012000Y008105D01*
X012004Y008264D02*
X015983Y008264D01*
X015789Y008422D02*
X012019Y008422D01*
X011946Y008581D02*
X012113Y008581D01*
X012080Y008613D02*
X012176Y008518D01*
X012300Y008466D01*
X012435Y008466D01*
X012480Y008485D01*
X013630Y008485D01*
X013675Y008466D01*
X013810Y008466D01*
X013934Y008518D01*
X014030Y008613D01*
X014081Y008738D01*
X014081Y008872D01*
X014030Y008997D01*
X013934Y009092D01*
X013810Y009144D01*
X013675Y009144D01*
X013630Y009125D01*
X012480Y009125D01*
X012435Y009144D01*
X012300Y009144D01*
X012176Y009092D01*
X012080Y008997D01*
X012029Y008872D01*
X012029Y008738D01*
X012080Y008613D01*
X012029Y008739D02*
X011078Y008739D01*
X011170Y008898D02*
X012039Y008898D01*
X012139Y009056D02*
X011170Y009056D01*
X011170Y009215D02*
X014056Y009215D01*
X013971Y009056D02*
X014215Y009056D01*
X014071Y008898D02*
X014373Y008898D01*
X014532Y008739D02*
X014081Y008739D01*
X013997Y008581D02*
X015723Y008581D01*
X015720Y008739D02*
X015203Y008739D01*
X015362Y008898D02*
X015772Y008898D01*
X015905Y009056D02*
X015520Y009056D01*
X015679Y009215D02*
X022760Y009215D01*
X022760Y009373D02*
X022524Y009373D01*
X022616Y009532D02*
X022760Y009532D01*
X022760Y009690D02*
X022640Y009690D01*
X022608Y009849D02*
X022760Y009849D01*
X022760Y010007D02*
X022504Y010007D01*
X022760Y010166D02*
X015732Y010166D01*
X015732Y010324D02*
X015885Y010324D01*
X015764Y010483D02*
X015732Y010483D01*
X015732Y010007D02*
X015856Y010007D01*
X015752Y009849D02*
X015732Y009849D01*
X015732Y009532D02*
X015744Y009532D01*
X015732Y009373D02*
X015836Y009373D01*
X015493Y009368D02*
X015493Y013118D01*
X014680Y013930D01*
X015019Y013970D02*
X015819Y013970D01*
X015736Y013811D02*
X015138Y013811D01*
X015297Y013653D02*
X015720Y013653D01*
X015759Y013494D02*
X015455Y013494D01*
X015614Y013336D02*
X015874Y013336D01*
X015728Y013177D02*
X022760Y013177D01*
X022760Y013019D02*
X022492Y013019D01*
X022603Y012860D02*
X022760Y012860D01*
X022760Y012702D02*
X022640Y012702D01*
X022621Y012543D02*
X022760Y012543D01*
X022760Y012385D02*
X022535Y012385D01*
X022760Y012226D02*
X022286Y012226D01*
X022443Y012068D02*
X022760Y012068D01*
X022760Y011909D02*
X022583Y011909D01*
X022640Y011751D02*
X022760Y011751D01*
X022760Y011592D02*
X022640Y011592D01*
X022576Y011434D02*
X022760Y011434D01*
X022760Y011275D02*
X022404Y011275D01*
X022328Y011117D02*
X022760Y011117D01*
X022760Y010958D02*
X022553Y010958D01*
X022628Y010800D02*
X022760Y010800D01*
X022760Y010641D02*
X022640Y010641D01*
X022596Y010483D02*
X022760Y010483D01*
X022760Y010324D02*
X022475Y010324D01*
X022455Y009056D02*
X022760Y009056D01*
X022760Y008898D02*
X022588Y008898D01*
X022640Y008739D02*
X022760Y008739D01*
X022760Y008581D02*
X022637Y008581D01*
X022571Y008422D02*
X022760Y008422D01*
X022760Y008264D02*
X022377Y008264D01*
X021796Y007947D02*
X021564Y007947D01*
X021633Y007788D02*
X021727Y007788D01*
X021720Y007630D02*
X021640Y007630D01*
X021591Y007471D02*
X021769Y007471D01*
X021897Y007313D02*
X021463Y007313D01*
X021441Y007070D02*
X021271Y007140D01*
X021088Y007140D01*
X020919Y007070D01*
X020790Y006941D01*
X020720Y006771D01*
X020720Y006588D01*
X020790Y006419D01*
X020919Y006290D01*
X021088Y006220D01*
X021271Y006220D01*
X021441Y006290D01*
X021570Y006419D01*
X021640Y006588D01*
X021640Y006771D01*
X021570Y006941D01*
X021441Y007070D01*
X021515Y006996D02*
X021845Y006996D01*
X021747Y006837D02*
X021613Y006837D01*
X021640Y006679D02*
X021720Y006679D01*
X021748Y006520D02*
X021612Y006520D01*
X021512Y006362D02*
X021848Y006362D01*
X021894Y006045D02*
X021466Y006045D01*
X021593Y005886D02*
X021767Y005886D01*
X021720Y005728D02*
X021640Y005728D01*
X021632Y005569D02*
X021728Y005569D01*
X021799Y005411D02*
X021561Y005411D01*
X020799Y005411D02*
X020561Y005411D01*
X020632Y005569D02*
X020728Y005569D01*
X020720Y005728D02*
X020640Y005728D01*
X020593Y005886D02*
X020767Y005886D01*
X020894Y006045D02*
X020466Y006045D01*
X020441Y006290D02*
X020271Y006220D01*
X020088Y006220D01*
X019919Y006290D01*
X019790Y006419D01*
X019720Y006588D01*
X019720Y006771D01*
X019790Y006941D01*
X019919Y007070D01*
X020088Y007140D01*
X020271Y007140D01*
X020441Y007070D01*
X020570Y006941D01*
X020640Y006771D01*
X020640Y006588D01*
X020570Y006419D01*
X020441Y006290D01*
X020512Y006362D02*
X020848Y006362D01*
X020748Y006520D02*
X020612Y006520D01*
X020640Y006679D02*
X020720Y006679D01*
X020747Y006837D02*
X020613Y006837D01*
X020515Y006996D02*
X020845Y006996D01*
X020897Y007313D02*
X020463Y007313D01*
X020591Y007471D02*
X020769Y007471D01*
X020720Y007630D02*
X020640Y007630D01*
X020633Y007788D02*
X020727Y007788D01*
X020796Y007947D02*
X020564Y007947D01*
X019897Y007313D02*
X019463Y007313D01*
X019591Y007471D02*
X019769Y007471D01*
X019720Y007630D02*
X019640Y007630D01*
X019633Y007788D02*
X019727Y007788D01*
X019796Y007947D02*
X019564Y007947D01*
X018796Y007947D02*
X018564Y007947D01*
X018633Y007788D02*
X018727Y007788D01*
X018720Y007630D02*
X018640Y007630D01*
X018591Y007471D02*
X018769Y007471D01*
X018897Y007313D02*
X018463Y007313D01*
X018441Y007070D02*
X018271Y007140D01*
X018088Y007140D01*
X017919Y007070D01*
X017790Y006941D01*
X017720Y006771D01*
X017720Y006588D01*
X017790Y006419D01*
X017919Y006290D01*
X018088Y006220D01*
X018271Y006220D01*
X018441Y006290D01*
X018570Y006419D01*
X018640Y006588D01*
X018640Y006771D01*
X018570Y006941D01*
X018441Y007070D01*
X018515Y006996D02*
X018845Y006996D01*
X018790Y006941D02*
X018720Y006771D01*
X018720Y006588D01*
X018790Y006419D01*
X018919Y006290D01*
X019088Y006220D01*
X019271Y006220D01*
X019441Y006290D01*
X019570Y006419D01*
X019640Y006588D01*
X019640Y006771D01*
X019570Y006941D01*
X019441Y007070D01*
X019271Y007140D01*
X019088Y007140D01*
X018919Y007070D01*
X018790Y006941D01*
X018747Y006837D02*
X018613Y006837D01*
X018640Y006679D02*
X018720Y006679D01*
X018748Y006520D02*
X018612Y006520D01*
X018512Y006362D02*
X018848Y006362D01*
X018894Y006045D02*
X018466Y006045D01*
X018593Y005886D02*
X018767Y005886D01*
X018720Y005728D02*
X018640Y005728D01*
X018632Y005569D02*
X018728Y005569D01*
X018799Y005411D02*
X018561Y005411D01*
X017799Y005411D02*
X017561Y005411D01*
X017632Y005569D02*
X017728Y005569D01*
X017720Y005728D02*
X017640Y005728D01*
X017593Y005886D02*
X017767Y005886D01*
X017894Y006045D02*
X017466Y006045D01*
X017512Y006362D02*
X017848Y006362D01*
X017748Y006520D02*
X017612Y006520D01*
X017640Y006679D02*
X017720Y006679D01*
X017747Y006837D02*
X017613Y006837D01*
X017515Y006996D02*
X017845Y006996D01*
X017897Y007313D02*
X017463Y007313D01*
X017591Y007471D02*
X017769Y007471D01*
X017720Y007630D02*
X017640Y007630D01*
X017633Y007788D02*
X017727Y007788D01*
X017796Y007947D02*
X017564Y007947D01*
X015845Y006996D02*
X011970Y006996D01*
X011920Y006837D02*
X015747Y006837D01*
X015720Y006679D02*
X011920Y006679D01*
X011920Y006520D02*
X015748Y006520D01*
X015848Y006362D02*
X014840Y006362D01*
X014520Y006362D02*
X011920Y006362D01*
X011920Y006203D02*
X014302Y006203D01*
X014230Y006045D02*
X011920Y006045D01*
X011920Y005886D02*
X014220Y005886D01*
X014266Y005728D02*
X011920Y005728D01*
X011920Y004460D02*
X015698Y004460D01*
X015809Y004301D02*
X011920Y004301D01*
X011920Y004143D02*
X012190Y004143D01*
X012031Y003984D02*
X011920Y003984D01*
X011358Y003509D02*
X011002Y003509D01*
X010941Y003570D02*
X011070Y003441D01*
X011140Y003271D01*
X011140Y003088D01*
X011070Y002919D01*
X010960Y002809D01*
X010960Y001551D01*
X011070Y001441D01*
X011140Y001271D01*
X011140Y001088D01*
X011070Y000919D01*
X010941Y000790D01*
X010771Y000720D01*
X010588Y000720D01*
X010419Y000790D01*
X010290Y000919D01*
X010220Y001088D01*
X010220Y001271D01*
X010290Y001441D01*
X010400Y001551D01*
X010400Y002809D01*
X010290Y002919D01*
X010220Y003088D01*
X010220Y003271D01*
X010290Y003441D01*
X010419Y003570D01*
X010588Y003640D01*
X010771Y003640D01*
X010941Y003570D01*
X011107Y003350D02*
X011253Y003350D01*
X011220Y003192D02*
X011140Y003192D01*
X011117Y003033D02*
X011243Y003033D01*
X011335Y002875D02*
X011025Y002875D01*
X010960Y002716D02*
X011360Y002716D01*
X011360Y002558D02*
X010960Y002558D01*
X010960Y002399D02*
X011360Y002399D01*
X011360Y002241D02*
X010960Y002241D01*
X010960Y002082D02*
X011360Y002082D01*
X011360Y001924D02*
X010960Y001924D01*
X010960Y001765D02*
X011360Y001765D01*
X011360Y001607D02*
X010960Y001607D01*
X011063Y001448D02*
X011297Y001448D01*
X011227Y001290D02*
X011133Y001290D01*
X011140Y001131D02*
X011220Y001131D01*
X011268Y000973D02*
X011092Y000973D01*
X010965Y000814D02*
X011395Y000814D01*
X011965Y000814D02*
X012401Y000814D01*
X012380Y000829D02*
X012439Y000787D01*
X012503Y000754D01*
X012572Y000731D01*
X012644Y000720D01*
X012660Y000720D01*
X012660Y001160D01*
X012220Y001160D01*
X012220Y001144D01*
X012231Y001072D01*
X012254Y001003D01*
X012287Y000939D01*
X012329Y000880D01*
X012380Y000829D01*
X012269Y000973D02*
X012092Y000973D01*
X012140Y001131D02*
X012222Y001131D01*
X012220Y001200D02*
X012660Y001200D01*
X012660Y001640D01*
X012644Y001640D01*
X012572Y001629D01*
X012503Y001606D01*
X012439Y001573D01*
X012380Y001531D01*
X012329Y001480D01*
X012287Y001421D01*
X012254Y001357D01*
X012231Y001288D01*
X012220Y001216D01*
X012220Y001200D01*
X012232Y001290D02*
X012133Y001290D01*
X012063Y001448D02*
X012306Y001448D01*
X012504Y001607D02*
X012000Y001607D01*
X012000Y001765D02*
X014400Y001765D01*
X014400Y001607D02*
X013856Y001607D01*
X013857Y001606D02*
X013788Y001629D01*
X013716Y001640D01*
X013700Y001640D01*
X013700Y001200D01*
X013660Y001200D01*
X013660Y001640D01*
X013644Y001640D01*
X013572Y001629D01*
X013503Y001606D01*
X013439Y001573D01*
X013380Y001531D01*
X013329Y001480D01*
X013287Y001421D01*
X013254Y001357D01*
X013231Y001288D01*
X013220Y001216D01*
X013220Y001200D01*
X013660Y001200D01*
X013660Y001160D01*
X013220Y001160D01*
X013220Y001144D01*
X013231Y001072D01*
X013254Y001003D01*
X013287Y000939D01*
X013329Y000880D01*
X013380Y000829D01*
X013439Y000787D01*
X013503Y000754D01*
X013572Y000731D01*
X013644Y000720D01*
X013660Y000720D01*
X013660Y001160D01*
X013700Y001160D01*
X013700Y001200D01*
X014140Y001200D01*
X014140Y001216D01*
X014129Y001288D01*
X014106Y001357D01*
X014073Y001421D01*
X014031Y001480D01*
X013980Y001531D01*
X013921Y001573D01*
X013857Y001606D01*
X013700Y001607D02*
X013660Y001607D01*
X013504Y001607D02*
X012856Y001607D01*
X012857Y001606D02*
X012788Y001629D01*
X012716Y001640D01*
X012700Y001640D01*
X012700Y001200D01*
X012660Y001200D01*
X012660Y001160D01*
X012700Y001160D01*
X012700Y001200D01*
X013140Y001200D01*
X013140Y001216D01*
X013129Y001288D01*
X013106Y001357D01*
X013073Y001421D01*
X013031Y001480D01*
X012980Y001531D01*
X012921Y001573D01*
X012857Y001606D01*
X012700Y001607D02*
X012660Y001607D01*
X012660Y001448D02*
X012700Y001448D01*
X012700Y001290D02*
X012660Y001290D01*
X012700Y001160D02*
X013140Y001160D01*
X013140Y001144D01*
X013129Y001072D01*
X013106Y001003D01*
X013073Y000939D01*
X013031Y000880D01*
X012980Y000829D01*
X012921Y000787D01*
X012857Y000754D01*
X012788Y000731D01*
X012716Y000720D01*
X012700Y000720D01*
X012700Y001160D01*
X012700Y001131D02*
X012660Y001131D01*
X012660Y000973D02*
X012700Y000973D01*
X012700Y000814D02*
X012660Y000814D01*
X012959Y000814D02*
X013401Y000814D01*
X013269Y000973D02*
X013091Y000973D01*
X013138Y001131D02*
X013222Y001131D01*
X013232Y001290D02*
X013128Y001290D01*
X013054Y001448D02*
X013306Y001448D01*
X013660Y001448D02*
X013700Y001448D01*
X013700Y001290D02*
X013660Y001290D01*
X013700Y001160D02*
X014140Y001160D01*
X014140Y001144D01*
X014129Y001072D01*
X014106Y001003D01*
X014073Y000939D01*
X014031Y000880D01*
X013980Y000829D01*
X013921Y000787D01*
X013857Y000754D01*
X013788Y000731D01*
X013716Y000720D01*
X013700Y000720D01*
X013700Y001160D01*
X013700Y001131D02*
X013660Y001131D01*
X013660Y000973D02*
X013700Y000973D01*
X013700Y000814D02*
X013660Y000814D01*
X013959Y000814D02*
X014395Y000814D01*
X014268Y000973D02*
X014091Y000973D01*
X014138Y001131D02*
X014220Y001131D01*
X014227Y001290D02*
X014128Y001290D01*
X014054Y001448D02*
X014297Y001448D01*
X014400Y001924D02*
X012000Y001924D01*
X012000Y002082D02*
X014400Y002082D01*
X014400Y002241D02*
X012000Y002241D01*
X012000Y002399D02*
X014400Y002399D01*
X014400Y002558D02*
X012000Y002558D01*
X012000Y002716D02*
X014400Y002716D01*
X014335Y002875D02*
X014025Y002875D01*
X014116Y003033D02*
X014243Y003033D01*
X014220Y003192D02*
X013700Y003192D01*
X013660Y003192D02*
X012700Y003192D01*
X012660Y003192D02*
X012144Y003192D01*
X012117Y003033D02*
X012244Y003033D01*
X012335Y002875D02*
X012025Y002875D01*
X011680Y003180D02*
X011680Y007180D01*
X011414Y008581D02*
X010920Y008581D01*
X011170Y009373D02*
X013898Y009373D01*
X013739Y009532D02*
X011170Y009532D01*
X011170Y009690D02*
X012816Y009690D01*
X012722Y009849D02*
X011170Y009849D01*
X011170Y010007D02*
X012720Y010007D01*
X012811Y010166D02*
X011170Y010166D01*
X011170Y010324D02*
X014940Y010324D01*
X014940Y010166D02*
X013739Y010166D01*
X013680Y009930D02*
X013055Y009930D01*
X013680Y009930D02*
X014680Y008930D01*
X015055Y008930D01*
X015493Y009368D01*
X015180Y009680D02*
X014930Y009430D01*
X014711Y009690D02*
X014259Y009690D01*
X014101Y009849D02*
X014940Y009849D01*
X014940Y010007D02*
X013942Y010007D01*
X014418Y009532D02*
X014605Y009532D01*
X014591Y009373D02*
X014576Y009373D01*
X015180Y009680D02*
X015180Y012305D01*
X014805Y012680D01*
X014964Y012860D02*
X015253Y012860D01*
X015253Y012702D02*
X015123Y012702D01*
X015732Y012860D02*
X015757Y012860D01*
X015732Y013019D02*
X015868Y013019D01*
X015739Y012543D02*
X015732Y012543D01*
X015732Y012385D02*
X015825Y012385D01*
X015732Y012226D02*
X016074Y012226D01*
X016286Y012226D02*
X017074Y012226D01*
X015917Y012068D02*
X015732Y012068D01*
X015732Y011909D02*
X015777Y011909D01*
X015784Y011434D02*
X015732Y011434D01*
X015732Y011275D02*
X015956Y011275D01*
X016032Y011117D02*
X015732Y011117D01*
X015732Y010958D02*
X015807Y010958D01*
X014940Y010958D02*
X014437Y010958D01*
X014519Y011117D02*
X014940Y011117D01*
X014940Y011275D02*
X014507Y011275D01*
X014940Y010800D02*
X011170Y010800D01*
X011170Y010641D02*
X014940Y010641D01*
X014940Y010483D02*
X011170Y010483D01*
X010462Y011525D02*
X009868Y010930D01*
X009680Y011243D02*
X009493Y011055D01*
X009493Y009868D01*
X008940Y009849D02*
X007051Y009849D01*
X007210Y010007D02*
X008940Y010007D01*
X008940Y010166D02*
X007368Y010166D01*
X007527Y010324D02*
X008940Y010324D01*
X008940Y010483D02*
X007712Y010483D01*
X007769Y010641D02*
X008880Y010641D01*
X008721Y010800D02*
X007747Y010800D01*
X007097Y010800D02*
X006000Y010800D01*
X006000Y010958D02*
X007089Y010958D01*
X006904Y011117D02*
X005946Y011117D01*
X005788Y011275D02*
X006746Y011275D01*
X006690Y011434D02*
X005629Y011434D01*
X005471Y011592D02*
X006690Y011592D01*
X006690Y011751D02*
X005312Y011751D01*
X005154Y011909D02*
X006690Y011909D01*
X006690Y012068D02*
X004995Y012068D01*
X004837Y012226D02*
X006762Y012226D01*
X006920Y012385D02*
X004678Y012385D01*
X003468Y011909D02*
X003392Y011909D01*
X003392Y011990D02*
X003377Y011990D01*
X003272Y011976D01*
X003169Y011949D01*
X003071Y011908D01*
X002979Y011855D01*
X002895Y011790D01*
X002820Y011715D01*
X002755Y011631D01*
X002702Y011539D01*
X002661Y011441D01*
X002634Y011338D01*
X002620Y011233D01*
X002620Y011218D01*
X003392Y011218D01*
X003392Y011990D01*
X003392Y011751D02*
X003468Y011751D01*
X003468Y011592D02*
X003392Y011592D01*
X003392Y011434D02*
X003468Y011434D01*
X003468Y011275D02*
X003392Y011275D01*
X003392Y011142D02*
X002620Y011142D01*
X002620Y011127D01*
X002634Y011022D01*
X002661Y010919D01*
X002702Y010821D01*
X002755Y010729D01*
X002820Y010645D01*
X002895Y010570D01*
X002979Y010505D01*
X003071Y010452D01*
X003169Y010411D01*
X003272Y010384D01*
X003377Y010370D01*
X003392Y010370D01*
X003392Y011142D01*
X003392Y011117D02*
X003468Y011117D01*
X003468Y010958D02*
X003392Y010958D01*
X003392Y010800D02*
X003468Y010800D01*
X003468Y010641D02*
X003392Y010641D01*
X003392Y010483D02*
X003468Y010483D01*
X003018Y010483D02*
X000460Y010483D01*
X000460Y010641D02*
X002823Y010641D01*
X002714Y010800D02*
X000460Y010800D01*
X000460Y010958D02*
X002651Y010958D01*
X002621Y011117D02*
X000460Y011117D01*
X000460Y011275D02*
X002626Y011275D01*
X002659Y011434D02*
X000460Y011434D01*
X000460Y011592D02*
X002733Y011592D01*
X002855Y011751D02*
X000460Y011751D01*
X000460Y011909D02*
X003073Y011909D01*
X006000Y010641D02*
X006938Y010641D01*
X006780Y010483D02*
X006000Y010483D01*
X006000Y010324D02*
X006621Y010324D01*
X006463Y010166D02*
X006000Y010166D01*
X006000Y010007D02*
X006304Y010007D01*
X006133Y009849D02*
X006000Y009849D01*
X006000Y009690D02*
X006091Y009690D01*
X006125Y009532D02*
X006000Y009532D01*
X006000Y009373D02*
X006286Y009373D01*
X006574Y009373D02*
X008940Y009373D01*
X008940Y009215D02*
X006000Y009215D01*
X006000Y009056D02*
X008940Y009056D01*
X008940Y008898D02*
X006000Y008898D01*
X006000Y008739D02*
X008940Y008739D01*
X008940Y008581D02*
X006000Y008581D01*
X006000Y008422D02*
X008940Y008422D01*
X008940Y008264D02*
X006012Y008264D01*
X006016Y008105D02*
X008940Y008105D01*
X008940Y007947D02*
X006000Y007947D01*
X006000Y007788D02*
X008940Y007788D01*
X008940Y007630D02*
X006000Y007630D01*
X006000Y007471D02*
X008940Y007471D01*
X008940Y007313D02*
X006000Y007313D01*
X006000Y007154D02*
X008940Y007154D01*
X008940Y006996D02*
X006000Y006996D01*
X006000Y006837D02*
X008940Y006837D01*
X008940Y006679D02*
X006000Y006679D01*
X004610Y006679D02*
X000460Y006679D01*
X000460Y006837D02*
X004602Y006837D01*
X004610Y006520D02*
X000460Y006520D01*
X000460Y006362D02*
X002966Y006362D01*
X002807Y006203D02*
X000460Y006203D01*
X000460Y006045D02*
X002704Y006045D01*
X002639Y005886D02*
X000460Y005886D01*
X000460Y005728D02*
X002620Y005728D01*
X002620Y005569D02*
X000460Y005569D01*
X000460Y005411D02*
X002665Y005411D01*
X002731Y005252D02*
X000460Y005252D01*
X000460Y005094D02*
X002871Y005094D01*
X003665Y004460D02*
X005360Y004460D01*
X005360Y004618D02*
X000460Y004618D01*
X000460Y006996D02*
X002969Y006996D01*
X002810Y007154D02*
X000460Y007154D01*
X000460Y007313D02*
X002705Y007313D01*
X002640Y007471D02*
X000460Y007471D01*
X000460Y007630D02*
X002620Y007630D01*
X002620Y007788D02*
X000460Y007788D01*
X000460Y007947D02*
X002664Y007947D01*
X002729Y008105D02*
X000460Y008105D01*
X000460Y008264D02*
X002868Y008264D01*
X003105Y008422D02*
X000460Y008422D01*
X003894Y006362D02*
X004610Y006362D01*
X004610Y006203D02*
X004053Y006203D01*
X004156Y006045D02*
X004610Y006045D01*
X004610Y005886D02*
X004221Y005886D01*
X004240Y005728D02*
X004610Y005728D01*
X004610Y005569D02*
X004240Y005569D01*
X004195Y005411D02*
X004591Y005411D01*
X004637Y005252D02*
X004129Y005252D01*
X003955Y004301D02*
X005360Y004301D01*
X005360Y004143D02*
X005197Y004143D01*
X005269Y003984D02*
X005360Y003984D01*
X005360Y003826D02*
X005253Y003826D01*
X005250Y003667D02*
X005360Y003667D01*
X005360Y003509D02*
X005250Y003509D01*
X005250Y003350D02*
X005360Y003350D01*
X005341Y003192D02*
X005250Y003192D01*
X005250Y003033D02*
X005360Y003033D01*
X005360Y002875D02*
X005250Y002875D01*
X005250Y002716D02*
X005360Y002716D01*
X005360Y002558D02*
X005255Y002558D01*
X004825Y002082D02*
X004140Y002082D01*
X004206Y001924D02*
X004957Y001924D01*
X004667Y002241D02*
X004015Y002241D01*
X003811Y002399D02*
X004610Y002399D01*
X004610Y002875D02*
X003602Y002875D01*
X003929Y003033D02*
X004610Y003033D01*
X004610Y003192D02*
X004087Y003192D01*
X004170Y003350D02*
X004610Y003350D01*
X004610Y003509D02*
X004236Y003509D01*
X004240Y003667D02*
X004610Y003667D01*
X004607Y003826D02*
X004240Y003826D01*
X004181Y003984D02*
X004591Y003984D01*
X004663Y004143D02*
X004113Y004143D01*
X004240Y001765D02*
X005360Y001765D01*
X005360Y001607D02*
X004240Y001607D01*
X004211Y001448D02*
X005360Y001448D01*
X005360Y001290D02*
X004145Y001290D01*
X004027Y001131D02*
X005360Y001131D01*
X005435Y000973D02*
X003839Y000973D01*
X005593Y000814D02*
X000632Y000814D01*
X000784Y000656D02*
X005752Y000656D01*
X005910Y000497D02*
X001068Y000497D01*
X006023Y001290D02*
X008524Y001290D01*
X008656Y001448D02*
X006000Y001448D01*
X006182Y001131D02*
X008366Y001131D01*
X008637Y000497D02*
X021879Y000497D01*
X021395Y000814D02*
X020965Y000814D01*
X021092Y000973D02*
X021268Y000973D01*
X021220Y001131D02*
X021140Y001131D01*
X021133Y001290D02*
X021227Y001290D01*
X021297Y001448D02*
X021063Y001448D01*
X020960Y001607D02*
X021400Y001607D01*
X021400Y001765D02*
X020960Y001765D01*
X020960Y001924D02*
X021400Y001924D01*
X021400Y002082D02*
X020960Y002082D01*
X020960Y002241D02*
X021400Y002241D01*
X021400Y002399D02*
X020960Y002399D01*
X020960Y002558D02*
X021400Y002558D01*
X021400Y002716D02*
X020960Y002716D01*
X021025Y002875D02*
X021335Y002875D01*
X021243Y003033D02*
X021117Y003033D01*
X021140Y003192D02*
X021220Y003192D01*
X021253Y003350D02*
X021107Y003350D01*
X021002Y003509D02*
X021358Y003509D01*
X020358Y003509D02*
X020002Y003509D01*
X020107Y003350D02*
X020253Y003350D01*
X020220Y003192D02*
X020140Y003192D01*
X020117Y003033D02*
X020243Y003033D01*
X020335Y002875D02*
X020025Y002875D01*
X019960Y002716D02*
X020400Y002716D01*
X020400Y002558D02*
X019960Y002558D01*
X019960Y002399D02*
X020400Y002399D01*
X020400Y002241D02*
X019960Y002241D01*
X019960Y002082D02*
X020400Y002082D01*
X020400Y001924D02*
X019960Y001924D01*
X019960Y001765D02*
X020400Y001765D01*
X020400Y001607D02*
X019960Y001607D01*
X020063Y001448D02*
X020297Y001448D01*
X020227Y001290D02*
X020133Y001290D01*
X020140Y001131D02*
X020220Y001131D01*
X020268Y000973D02*
X020092Y000973D01*
X019965Y000814D02*
X020395Y000814D01*
X019395Y000814D02*
X018965Y000814D01*
X019092Y000973D02*
X019268Y000973D01*
X019220Y001131D02*
X019140Y001131D01*
X019133Y001290D02*
X019227Y001290D01*
X019297Y001448D02*
X019063Y001448D01*
X018960Y001607D02*
X019400Y001607D01*
X019400Y001765D02*
X018960Y001765D01*
X018960Y001924D02*
X019400Y001924D01*
X019400Y002082D02*
X018960Y002082D01*
X018960Y002241D02*
X019400Y002241D01*
X019400Y002399D02*
X018960Y002399D01*
X018960Y002558D02*
X019400Y002558D01*
X019400Y002716D02*
X018960Y002716D01*
X019025Y002875D02*
X019335Y002875D01*
X019243Y003033D02*
X019117Y003033D01*
X019140Y003192D02*
X019220Y003192D01*
X019253Y003350D02*
X019107Y003350D01*
X019002Y003509D02*
X019358Y003509D01*
X018400Y002716D02*
X017960Y002716D01*
X017960Y002558D02*
X018400Y002558D01*
X018400Y002399D02*
X017960Y002399D01*
X017960Y002241D02*
X018400Y002241D01*
X018400Y002082D02*
X017960Y002082D01*
X017960Y001924D02*
X018400Y001924D01*
X018400Y001765D02*
X017960Y001765D01*
X017960Y001607D02*
X018400Y001607D01*
X018297Y001448D02*
X018063Y001448D01*
X018133Y001290D02*
X018227Y001290D01*
X018220Y001131D02*
X018140Y001131D01*
X018092Y000973D02*
X018268Y000973D01*
X018395Y000814D02*
X017965Y000814D01*
X017395Y000814D02*
X016965Y000814D01*
X017092Y000973D02*
X017268Y000973D01*
X017220Y001131D02*
X017140Y001131D01*
X017133Y001290D02*
X017227Y001290D01*
X017297Y001448D02*
X017063Y001448D01*
X016960Y001607D02*
X017400Y001607D01*
X017400Y001765D02*
X016960Y001765D01*
X016960Y001924D02*
X017400Y001924D01*
X017400Y002082D02*
X016960Y002082D01*
X016960Y002241D02*
X017400Y002241D01*
X017400Y002399D02*
X016960Y002399D01*
X016960Y002558D02*
X017400Y002558D01*
X017400Y002716D02*
X016960Y002716D01*
X017025Y002875D02*
X017335Y002875D01*
X017243Y003033D02*
X017117Y003033D01*
X017140Y003192D02*
X017220Y003192D01*
X017253Y003350D02*
X017107Y003350D01*
X017002Y003509D02*
X017358Y003509D01*
X018002Y003509D02*
X018358Y003509D01*
X018253Y003350D02*
X018107Y003350D01*
X018140Y003192D02*
X018220Y003192D01*
X018243Y003033D02*
X018117Y003033D01*
X018025Y002875D02*
X018335Y002875D01*
X016400Y002716D02*
X014960Y002716D01*
X014960Y002558D02*
X016400Y002558D01*
X016400Y002399D02*
X014960Y002399D01*
X014960Y002241D02*
X016400Y002241D01*
X016400Y002082D02*
X014960Y002082D01*
X014960Y001924D02*
X016400Y001924D01*
X016400Y001765D02*
X014960Y001765D01*
X014960Y001607D02*
X016400Y001607D01*
X016297Y001448D02*
X015063Y001448D01*
X015133Y001290D02*
X016227Y001290D01*
X016220Y001131D02*
X015140Y001131D01*
X015092Y000973D02*
X016268Y000973D01*
X016395Y000814D02*
X014965Y000814D01*
X015025Y002875D02*
X016335Y002875D01*
X016243Y003033D02*
X015117Y003033D01*
X015140Y003192D02*
X016220Y003192D01*
X016253Y003350D02*
X015107Y003350D01*
X015002Y003509D02*
X016358Y003509D01*
X014358Y003509D02*
X014002Y003509D01*
X014108Y003350D02*
X014253Y003350D01*
X013700Y003033D02*
X013660Y003033D01*
X013660Y002875D02*
X013700Y002875D01*
X013335Y002875D02*
X013025Y002875D01*
X013116Y003033D02*
X013244Y003033D01*
X013252Y003350D02*
X013108Y003350D01*
X013002Y003509D02*
X013358Y003509D01*
X012700Y003033D02*
X012660Y003033D01*
X012660Y002875D02*
X012700Y002875D01*
X010400Y002716D02*
X009960Y002716D01*
X009960Y002558D02*
X010400Y002558D01*
X010400Y002399D02*
X009960Y002399D01*
X009960Y002241D02*
X010400Y002241D01*
X010400Y002082D02*
X009960Y002082D01*
X009960Y001924D02*
X010400Y001924D01*
X010400Y001765D02*
X009960Y001765D01*
X009960Y001607D02*
X010400Y001607D01*
X010297Y001448D02*
X010063Y001448D01*
X010133Y001290D02*
X010227Y001290D01*
X010220Y001131D02*
X010140Y001131D01*
X010092Y000973D02*
X010268Y000973D01*
X010395Y000814D02*
X009965Y000814D01*
X010025Y002875D02*
X010335Y002875D01*
X010243Y003033D02*
X010117Y003033D01*
X010140Y003192D02*
X010220Y003192D01*
X010253Y003350D02*
X010107Y003350D01*
X010002Y003509D02*
X010358Y003509D01*
X010001Y006520D02*
X009509Y006520D01*
X009420Y006679D02*
X009842Y006679D01*
X009684Y006837D02*
X009420Y006837D01*
X009420Y006996D02*
X009525Y006996D01*
X009440Y007154D02*
X009420Y007154D01*
X009420Y007313D02*
X009440Y007313D01*
X009440Y007471D02*
X009420Y007471D01*
X009420Y007630D02*
X009440Y007630D01*
X009440Y007788D02*
X009420Y007788D01*
X009420Y007947D02*
X009440Y007947D01*
X008940Y009532D02*
X006735Y009532D01*
X006893Y009690D02*
X008940Y009690D01*
X009555Y011680D02*
X007430Y011680D01*
X007180Y011909D02*
X007170Y011909D01*
X007180Y012305D02*
X009180Y012305D01*
X009421Y012543D02*
X009645Y012543D01*
X009514Y012385D02*
X009803Y012385D01*
X009634Y012226D02*
X009514Y012226D01*
X009591Y012068D02*
X009422Y012068D01*
X009555Y011680D02*
X009930Y012055D01*
X009472Y012702D02*
X009083Y012702D01*
X009140Y012860D02*
X009439Y012860D01*
X009280Y013019D02*
X009140Y013019D01*
X009122Y013177D02*
X009076Y013177D01*
X008963Y013336D02*
X008903Y013336D01*
X010254Y014445D02*
X012106Y014445D01*
X012264Y014604D02*
X010096Y014604D01*
X009937Y014762D02*
X012423Y014762D01*
X012470Y014921D02*
X009779Y014921D01*
X009620Y015079D02*
X012494Y015079D01*
X012587Y015238D02*
X009023Y015238D01*
X009046Y015470D02*
X009140Y015564D01*
X009140Y016296D01*
X009046Y016390D01*
X008314Y016390D01*
X008220Y016296D01*
X008220Y015564D01*
X008314Y015470D01*
X009046Y015470D01*
X009131Y015555D02*
X012479Y015555D01*
X012470Y015713D02*
X009140Y015713D01*
X009140Y015872D02*
X012470Y015872D01*
X012470Y016030D02*
X009140Y016030D01*
X009140Y016189D02*
X012470Y016189D01*
X012521Y016347D02*
X009089Y016347D01*
X008271Y016347D02*
X006466Y016347D01*
X006624Y016189D02*
X008220Y016189D01*
X008220Y016030D02*
X006783Y016030D01*
X006941Y015872D02*
X008220Y015872D01*
X008220Y015713D02*
X007100Y015713D01*
X007258Y015555D02*
X008229Y015555D01*
X008680Y014930D02*
X009430Y014930D01*
X010805Y013555D01*
X011024Y013653D02*
X011440Y013653D01*
X011440Y013494D02*
X011040Y013494D01*
X011025Y013336D02*
X011440Y013336D01*
X011440Y013177D02*
X011025Y013177D01*
X011025Y013019D02*
X011440Y013019D01*
X011440Y012860D02*
X011025Y012860D01*
X011025Y012702D02*
X011390Y012702D01*
X011232Y012543D02*
X011025Y012543D01*
X011025Y012385D02*
X011073Y012385D01*
X010888Y013811D02*
X011474Y013811D01*
X011630Y013970D02*
X010730Y013970D01*
X010571Y014128D02*
X011789Y014128D01*
X011947Y014287D02*
X010413Y014287D01*
X010171Y017720D02*
X009988Y017720D01*
X009819Y017790D01*
X009690Y017919D01*
X009620Y018088D01*
X009620Y018271D01*
X009690Y018441D01*
X009800Y018551D01*
X009800Y019809D01*
X009690Y019919D01*
X009620Y020088D01*
X009620Y020271D01*
X009690Y020441D01*
X009819Y020570D01*
X009988Y020640D01*
X010171Y020640D01*
X010341Y020570D01*
X010470Y020441D01*
X010540Y020271D01*
X010540Y020088D01*
X010470Y019919D01*
X010360Y019809D01*
X010360Y018551D01*
X010470Y018441D01*
X010540Y018271D01*
X010540Y018088D01*
X010470Y017919D01*
X010341Y017790D01*
X010171Y017720D01*
X010301Y017774D02*
X010859Y017774D01*
X010819Y017790D02*
X010690Y017919D01*
X010620Y018088D01*
X010620Y018271D01*
X010690Y018441D01*
X010800Y018551D01*
X010800Y019809D01*
X010690Y019919D01*
X010620Y020088D01*
X010620Y020271D01*
X010690Y020441D01*
X010819Y020570D01*
X010988Y020640D01*
X011171Y020640D01*
X011341Y020570D01*
X011470Y020441D01*
X011540Y020271D01*
X011540Y020088D01*
X011470Y019919D01*
X011360Y019809D01*
X011360Y018551D01*
X011470Y018441D01*
X011540Y018271D01*
X011540Y018088D01*
X011470Y017919D01*
X011341Y017790D01*
X011171Y017720D01*
X010988Y017720D01*
X010819Y017790D01*
X010685Y017932D02*
X010475Y017932D01*
X010540Y018091D02*
X010620Y018091D01*
X010620Y018249D02*
X010540Y018249D01*
X010484Y018408D02*
X010676Y018408D01*
X010800Y018566D02*
X010360Y018566D01*
X010360Y018725D02*
X010800Y018725D01*
X010800Y018883D02*
X010360Y018883D01*
X010360Y019042D02*
X010800Y019042D01*
X010800Y019200D02*
X010360Y019200D01*
X010360Y019359D02*
X010800Y019359D01*
X010800Y019517D02*
X010360Y019517D01*
X010360Y019676D02*
X010800Y019676D01*
X010775Y019834D02*
X010385Y019834D01*
X010500Y019993D02*
X010660Y019993D01*
X010620Y020151D02*
X010540Y020151D01*
X010524Y020310D02*
X010636Y020310D01*
X010717Y020468D02*
X010443Y020468D01*
X010204Y020627D02*
X010956Y020627D01*
X011204Y020627D02*
X011956Y020627D01*
X011988Y020640D02*
X011819Y020570D01*
X011690Y020441D01*
X011620Y020271D01*
X011620Y020088D01*
X011690Y019919D01*
X011800Y019809D01*
X011800Y018551D01*
X011690Y018441D01*
X011620Y018271D01*
X011620Y018088D01*
X011690Y017919D01*
X011819Y017790D01*
X011988Y017720D01*
X012171Y017720D01*
X012341Y017790D01*
X012470Y017919D01*
X012540Y018088D01*
X012540Y018271D01*
X012470Y018441D01*
X012360Y018551D01*
X012360Y019809D01*
X012470Y019919D01*
X012540Y020088D01*
X012540Y020271D01*
X012470Y020441D01*
X012341Y020570D01*
X012171Y020640D01*
X011988Y020640D01*
X012204Y020627D02*
X012700Y020627D01*
X012714Y020640D02*
X012620Y020546D01*
X012620Y019814D01*
X012714Y019720D01*
X012800Y019720D01*
X012800Y018640D01*
X012714Y018640D01*
X012620Y018546D01*
X012620Y017814D01*
X012714Y017720D01*
X013446Y017720D01*
X013540Y017814D01*
X013540Y018546D01*
X013446Y018640D01*
X013360Y018640D01*
X013360Y019720D01*
X013446Y019720D01*
X013540Y019814D01*
X013540Y020546D01*
X013446Y020640D01*
X012714Y020640D01*
X012620Y020468D02*
X012443Y020468D01*
X012524Y020310D02*
X012620Y020310D01*
X012620Y020151D02*
X012540Y020151D01*
X012500Y019993D02*
X012620Y019993D01*
X012620Y019834D02*
X012385Y019834D01*
X012360Y019676D02*
X012800Y019676D01*
X012800Y019517D02*
X012360Y019517D01*
X012360Y019359D02*
X012800Y019359D01*
X012800Y019200D02*
X012360Y019200D01*
X012360Y019042D02*
X012800Y019042D01*
X012800Y018883D02*
X012360Y018883D01*
X012360Y018725D02*
X012800Y018725D01*
X012640Y018566D02*
X012360Y018566D01*
X012484Y018408D02*
X012620Y018408D01*
X012620Y018249D02*
X012540Y018249D01*
X012540Y018091D02*
X012620Y018091D01*
X012620Y017932D02*
X012475Y017932D01*
X012301Y017774D02*
X012660Y017774D01*
X013500Y017774D02*
X014459Y017774D01*
X014419Y017790D02*
X014290Y017919D01*
X014220Y018088D01*
X014220Y018271D01*
X014290Y018441D01*
X014400Y018551D01*
X014400Y019809D01*
X014290Y019919D01*
X014220Y020088D01*
X014220Y020271D01*
X014290Y020441D01*
X014419Y020570D01*
X014588Y020640D01*
X014771Y020640D01*
X014941Y020570D01*
X015070Y020441D01*
X015140Y020271D01*
X015140Y020088D01*
X015070Y019919D01*
X014960Y019809D01*
X014960Y018551D01*
X015070Y018441D01*
X015140Y018271D01*
X015140Y018088D01*
X015070Y017919D01*
X014941Y017790D01*
X014771Y017720D01*
X014588Y017720D01*
X014419Y017790D01*
X014285Y017932D02*
X013540Y017932D01*
X013540Y018091D02*
X014220Y018091D01*
X014220Y018249D02*
X013540Y018249D01*
X013540Y018408D02*
X014276Y018408D01*
X014400Y018566D02*
X013520Y018566D01*
X013360Y018725D02*
X014400Y018725D01*
X014400Y018883D02*
X013360Y018883D01*
X013360Y019042D02*
X014400Y019042D01*
X014400Y019200D02*
X013360Y019200D01*
X013360Y019359D02*
X014400Y019359D01*
X014400Y019517D02*
X013360Y019517D01*
X013360Y019676D02*
X014400Y019676D01*
X014375Y019834D02*
X013540Y019834D01*
X013540Y019993D02*
X014260Y019993D01*
X014220Y020151D02*
X013540Y020151D01*
X013540Y020310D02*
X014236Y020310D01*
X014317Y020468D02*
X013540Y020468D01*
X013460Y020627D02*
X014556Y020627D01*
X014804Y020627D02*
X015556Y020627D01*
X015588Y020640D02*
X015419Y020570D01*
X015290Y020441D01*
X015220Y020271D01*
X015220Y020088D01*
X015290Y019919D01*
X015400Y019809D01*
X015400Y018551D01*
X015290Y018441D01*
X015220Y018271D01*
X015220Y018088D01*
X015290Y017919D01*
X015419Y017790D01*
X015588Y017720D01*
X015771Y017720D01*
X015941Y017790D01*
X016070Y017919D01*
X016140Y018088D01*
X016140Y018271D01*
X016070Y018441D01*
X015960Y018551D01*
X015960Y019809D01*
X016070Y019919D01*
X016140Y020088D01*
X016140Y020271D01*
X016070Y020441D01*
X015941Y020570D01*
X015771Y020640D01*
X015588Y020640D01*
X015804Y020627D02*
X016556Y020627D01*
X016588Y020640D02*
X016419Y020570D01*
X016290Y020441D01*
X016220Y020271D01*
X016220Y020088D01*
X016290Y019919D01*
X016400Y019809D01*
X016400Y018551D01*
X016290Y018441D01*
X016220Y018271D01*
X016220Y018088D01*
X016290Y017919D01*
X016419Y017790D01*
X016588Y017720D01*
X016771Y017720D01*
X016941Y017790D01*
X017070Y017919D01*
X017140Y018088D01*
X017140Y018271D01*
X017070Y018441D01*
X016960Y018551D01*
X016960Y019809D01*
X017070Y019919D01*
X017140Y020088D01*
X017140Y020271D01*
X017070Y020441D01*
X016941Y020570D01*
X016771Y020640D01*
X016588Y020640D01*
X016804Y020627D02*
X017556Y020627D01*
X017588Y020640D02*
X017419Y020570D01*
X017290Y020441D01*
X017220Y020271D01*
X017220Y020088D01*
X017290Y019919D01*
X017400Y019809D01*
X017400Y018551D01*
X017290Y018441D01*
X017220Y018271D01*
X017220Y018088D01*
X017290Y017919D01*
X017419Y017790D01*
X017588Y017720D01*
X017771Y017720D01*
X017941Y017790D01*
X018070Y017919D01*
X018140Y018088D01*
X018140Y018271D01*
X018070Y018441D01*
X017960Y018551D01*
X017960Y019809D01*
X018070Y019919D01*
X018140Y020088D01*
X018140Y020271D01*
X018070Y020441D01*
X017941Y020570D01*
X017771Y020640D01*
X017588Y020640D01*
X017804Y020627D02*
X018556Y020627D01*
X018588Y020640D02*
X018419Y020570D01*
X018290Y020441D01*
X018220Y020271D01*
X018220Y020088D01*
X018290Y019919D01*
X018400Y019809D01*
X018400Y018551D01*
X018290Y018441D01*
X018220Y018271D01*
X018220Y018088D01*
X018290Y017919D01*
X018419Y017790D01*
X018588Y017720D01*
X018771Y017720D01*
X018941Y017790D01*
X019070Y017919D01*
X019140Y018088D01*
X019140Y018271D01*
X019070Y018441D01*
X018960Y018551D01*
X018960Y019809D01*
X019070Y019919D01*
X019140Y020088D01*
X019140Y020271D01*
X019070Y020441D01*
X018941Y020570D01*
X018771Y020640D01*
X018588Y020640D01*
X018804Y020627D02*
X019556Y020627D01*
X019588Y020640D02*
X019419Y020570D01*
X019290Y020441D01*
X019220Y020271D01*
X019220Y020088D01*
X019290Y019919D01*
X019400Y019809D01*
X019400Y018551D01*
X019290Y018441D01*
X019220Y018271D01*
X019220Y018088D01*
X019290Y017919D01*
X019419Y017790D01*
X019588Y017720D01*
X019771Y017720D01*
X019941Y017790D01*
X020070Y017919D01*
X020140Y018088D01*
X020140Y018271D01*
X020070Y018441D01*
X019960Y018551D01*
X019960Y019809D01*
X020070Y019919D01*
X020140Y020088D01*
X020140Y020271D01*
X020070Y020441D01*
X019941Y020570D01*
X019771Y020640D01*
X019588Y020640D01*
X019804Y020627D02*
X020556Y020627D01*
X020588Y020640D02*
X020419Y020570D01*
X020290Y020441D01*
X020220Y020271D01*
X020220Y020088D01*
X020290Y019919D01*
X020400Y019809D01*
X020400Y018551D01*
X020290Y018441D01*
X020220Y018271D01*
X020220Y018088D01*
X020290Y017919D01*
X020419Y017790D01*
X020588Y017720D01*
X020771Y017720D01*
X020941Y017790D01*
X021070Y017919D01*
X021140Y018088D01*
X021140Y018271D01*
X021070Y018441D01*
X020960Y018551D01*
X020960Y019809D01*
X021070Y019919D01*
X021140Y020088D01*
X021140Y020271D01*
X021070Y020441D01*
X020941Y020570D01*
X020771Y020640D01*
X020588Y020640D01*
X020804Y020627D02*
X021300Y020627D01*
X021314Y020640D02*
X021220Y020546D01*
X021220Y019814D01*
X021314Y019720D01*
X021400Y019720D01*
X021400Y018640D01*
X021314Y018640D01*
X021220Y018546D01*
X021220Y017814D01*
X021314Y017720D01*
X022046Y017720D01*
X022140Y017814D01*
X022140Y018546D01*
X022046Y018640D01*
X021960Y018640D01*
X021960Y019720D01*
X022046Y019720D01*
X022140Y019814D01*
X022140Y020546D01*
X022046Y020640D01*
X021314Y020640D01*
X021220Y020468D02*
X021043Y020468D01*
X021124Y020310D02*
X021220Y020310D01*
X021220Y020151D02*
X021140Y020151D01*
X021100Y019993D02*
X021220Y019993D01*
X021220Y019834D02*
X020985Y019834D01*
X020960Y019676D02*
X021400Y019676D01*
X021400Y019517D02*
X020960Y019517D01*
X020960Y019359D02*
X021400Y019359D01*
X021400Y019200D02*
X020960Y019200D01*
X020960Y019042D02*
X021400Y019042D01*
X021400Y018883D02*
X020960Y018883D01*
X020960Y018725D02*
X021400Y018725D01*
X021240Y018566D02*
X020960Y018566D01*
X021084Y018408D02*
X021220Y018408D01*
X021220Y018249D02*
X021140Y018249D01*
X021140Y018091D02*
X021220Y018091D01*
X021220Y017932D02*
X021075Y017932D01*
X020901Y017774D02*
X021260Y017774D01*
X021456Y017140D02*
X021904Y017140D01*
X021731Y016981D02*
X021629Y016981D01*
X020904Y017140D02*
X020456Y017140D01*
X020629Y016981D02*
X020731Y016981D01*
X020180Y016680D02*
X020680Y016180D01*
X020680Y015180D01*
X020680Y014180D01*
X021680Y014180D01*
X023080Y014180D01*
X022760Y013811D02*
X022624Y013811D01*
X022640Y013653D02*
X022760Y013653D01*
X022760Y013494D02*
X022601Y013494D01*
X022486Y013336D02*
X022760Y013336D01*
X021874Y013336D02*
X021486Y013336D01*
X021601Y013494D02*
X021759Y013494D01*
X021720Y013653D02*
X021640Y013653D01*
X021624Y013811D02*
X021736Y013811D01*
X021680Y014180D02*
X021680Y015180D01*
X020680Y015180D01*
X020440Y015238D02*
X020314Y015238D01*
X020419Y015079D02*
X020440Y015079D01*
X020046Y015238D02*
X019314Y015238D01*
X019271Y015220D02*
X019441Y015290D01*
X019570Y015419D01*
X019640Y015588D01*
X019640Y015771D01*
X019570Y015941D01*
X019441Y016070D01*
X019271Y016140D01*
X019088Y016140D01*
X018919Y016070D01*
X018790Y015941D01*
X018720Y015771D01*
X018720Y015588D01*
X018790Y015419D01*
X018919Y015290D01*
X019088Y015220D01*
X019271Y015220D01*
X019271Y015140D02*
X019088Y015140D01*
X018919Y015070D01*
X018790Y014941D01*
X018720Y014771D01*
X018720Y014588D01*
X018790Y014419D01*
X018919Y014290D01*
X019088Y014220D01*
X019271Y014220D01*
X019441Y014290D01*
X019570Y014419D01*
X019640Y014588D01*
X019640Y014771D01*
X019570Y014941D01*
X019441Y015070D01*
X019271Y015140D01*
X019419Y015079D02*
X019941Y015079D01*
X019782Y014921D02*
X019578Y014921D01*
X019640Y014762D02*
X019720Y014762D01*
X019720Y014604D02*
X019640Y014604D01*
X019581Y014445D02*
X019779Y014445D01*
X019928Y014287D02*
X019432Y014287D01*
X019300Y014128D02*
X020060Y014128D01*
X020088Y014140D02*
X019919Y014070D01*
X019790Y013941D01*
X019720Y013771D01*
X019720Y013588D01*
X019790Y013419D01*
X019919Y013290D01*
X020088Y013220D01*
X020271Y013220D01*
X020441Y013290D01*
X020570Y013419D01*
X020640Y013588D01*
X020640Y013771D01*
X020570Y013941D01*
X020441Y014070D01*
X020271Y014140D01*
X020088Y014140D01*
X020300Y014128D02*
X020442Y014128D01*
X020432Y014287D02*
X020440Y014287D01*
X020541Y013970D02*
X020561Y013970D01*
X020624Y013811D02*
X020736Y013811D01*
X020720Y013653D02*
X020640Y013653D01*
X020601Y013494D02*
X020759Y013494D01*
X020874Y013336D02*
X020486Y013336D01*
X020492Y013019D02*
X020868Y013019D01*
X020757Y012860D02*
X020603Y012860D01*
X020640Y012702D02*
X020720Y012702D01*
X020739Y012543D02*
X020621Y012543D01*
X020535Y012385D02*
X020825Y012385D01*
X021535Y012385D02*
X021825Y012385D01*
X021739Y012543D02*
X021621Y012543D01*
X021640Y012702D02*
X021720Y012702D01*
X021757Y012860D02*
X021603Y012860D01*
X021492Y013019D02*
X021868Y013019D01*
X019868Y013019D02*
X019492Y013019D01*
X019603Y012860D02*
X019757Y012860D01*
X019720Y012702D02*
X019640Y012702D01*
X019621Y012543D02*
X019739Y012543D01*
X019825Y012385D02*
X019535Y012385D01*
X018825Y012385D02*
X018535Y012385D01*
X018621Y012543D02*
X018739Y012543D01*
X018720Y012702D02*
X018640Y012702D01*
X018603Y012860D02*
X018757Y012860D01*
X018868Y013019D02*
X018492Y013019D01*
X018486Y013336D02*
X018874Y013336D01*
X018919Y013290D02*
X019088Y013220D01*
X019271Y013220D01*
X019441Y013290D01*
X019570Y013419D01*
X019640Y013588D01*
X019640Y013771D01*
X019570Y013941D01*
X019441Y014070D01*
X019271Y014140D01*
X019088Y014140D01*
X018919Y014070D01*
X018790Y013941D01*
X018720Y013771D01*
X018720Y013588D01*
X018790Y013419D01*
X018919Y013290D01*
X018759Y013494D02*
X018601Y013494D01*
X018640Y013653D02*
X018720Y013653D01*
X018736Y013811D02*
X018624Y013811D01*
X018541Y013970D02*
X018819Y013970D01*
X019060Y014128D02*
X018300Y014128D01*
X018432Y014287D02*
X018928Y014287D01*
X018779Y014445D02*
X018581Y014445D01*
X018640Y014604D02*
X018720Y014604D01*
X018720Y014762D02*
X018640Y014762D01*
X018578Y014921D02*
X018782Y014921D01*
X018941Y015079D02*
X018419Y015079D01*
X018314Y015238D02*
X019046Y015238D01*
X018813Y015396D02*
X018547Y015396D01*
X018626Y015555D02*
X018734Y015555D01*
X018720Y015713D02*
X018640Y015713D01*
X018599Y015872D02*
X018761Y015872D01*
X018879Y016030D02*
X018481Y016030D01*
X018378Y016189D02*
X018982Y016189D01*
X018763Y016347D02*
X018597Y016347D01*
X017982Y016189D02*
X017378Y016189D01*
X017481Y016030D02*
X017879Y016030D01*
X017761Y015872D02*
X017599Y015872D01*
X017640Y015713D02*
X017720Y015713D01*
X017734Y015555D02*
X017626Y015555D01*
X017547Y015396D02*
X017813Y015396D01*
X016813Y015396D02*
X016547Y015396D01*
X016626Y015555D02*
X016734Y015555D01*
X016720Y015713D02*
X016640Y015713D01*
X016599Y015872D02*
X016761Y015872D01*
X016879Y016030D02*
X016481Y016030D01*
X016378Y016189D02*
X016982Y016189D01*
X016763Y016347D02*
X016597Y016347D01*
X016629Y016981D02*
X016731Y016981D01*
X016904Y017140D02*
X016456Y017140D01*
X015904Y017140D02*
X005673Y017140D01*
X005832Y016981D02*
X015731Y016981D01*
X015665Y016823D02*
X005990Y016823D01*
X006149Y016664D02*
X015650Y016664D01*
X015679Y016506D02*
X006307Y016506D01*
X006301Y017774D02*
X006865Y017774D01*
X006839Y017787D02*
X006903Y017754D01*
X006972Y017731D01*
X007044Y017720D01*
X007060Y017720D01*
X007060Y018160D01*
X006620Y018160D01*
X006620Y018144D01*
X006631Y018072D01*
X006654Y018003D01*
X006687Y017939D01*
X006729Y017880D01*
X006780Y017829D01*
X006839Y017787D01*
X006692Y017932D02*
X006475Y017932D01*
X006540Y018091D02*
X006628Y018091D01*
X006620Y018200D02*
X007060Y018200D01*
X007060Y018640D01*
X007044Y018640D01*
X006972Y018629D01*
X006903Y018606D01*
X006839Y018573D01*
X006780Y018531D01*
X006729Y018480D01*
X006687Y018421D01*
X006654Y018357D01*
X006631Y018288D01*
X006620Y018216D01*
X006620Y018200D01*
X006625Y018249D02*
X006540Y018249D01*
X006484Y018408D02*
X006680Y018408D01*
X006829Y018566D02*
X006360Y018566D01*
X006360Y018725D02*
X007800Y018725D01*
X007800Y018883D02*
X006360Y018883D01*
X006360Y019042D02*
X007800Y019042D01*
X007800Y019200D02*
X006360Y019200D01*
X006360Y019359D02*
X007800Y019359D01*
X007800Y019517D02*
X006360Y019517D01*
X006360Y019676D02*
X007800Y019676D01*
X007800Y019809D02*
X007800Y018551D01*
X007690Y018441D01*
X007620Y018271D01*
X007620Y018088D01*
X007690Y017919D01*
X007819Y017790D01*
X007988Y017720D01*
X008171Y017720D01*
X008341Y017790D01*
X008470Y017919D01*
X008540Y018088D01*
X008540Y018271D01*
X008470Y018441D01*
X008360Y018551D01*
X008360Y019809D01*
X008470Y019919D01*
X008540Y020088D01*
X008540Y020271D01*
X008470Y020441D01*
X008341Y020570D01*
X008171Y020640D01*
X007988Y020640D01*
X007819Y020570D01*
X007690Y020441D01*
X007620Y020271D01*
X007620Y020088D01*
X007690Y019919D01*
X007800Y019809D01*
X007775Y019834D02*
X007385Y019834D01*
X007380Y019829D02*
X007431Y019880D01*
X007473Y019939D01*
X007506Y020003D01*
X007529Y020072D01*
X007540Y020144D01*
X007540Y020160D01*
X007100Y020160D01*
X007100Y020200D01*
X007060Y020200D01*
X007060Y020640D01*
X007044Y020640D01*
X006972Y020629D01*
X006903Y020606D01*
X006839Y020573D01*
X006780Y020531D01*
X006729Y020480D01*
X006687Y020421D01*
X006654Y020357D01*
X006631Y020288D01*
X006620Y020216D01*
X006620Y020200D01*
X007060Y020200D01*
X007060Y020160D01*
X006620Y020160D01*
X006620Y020144D01*
X006631Y020072D01*
X006654Y020003D01*
X006687Y019939D01*
X006729Y019880D01*
X006780Y019829D01*
X006839Y019787D01*
X006903Y019754D01*
X006972Y019731D01*
X007044Y019720D01*
X007060Y019720D01*
X007060Y020160D01*
X007100Y020160D01*
X007100Y019720D01*
X007116Y019720D01*
X007188Y019731D01*
X007257Y019754D01*
X007321Y019787D01*
X007380Y019829D01*
X007501Y019993D02*
X007660Y019993D01*
X007620Y020151D02*
X007540Y020151D01*
X007540Y020200D02*
X007540Y020216D01*
X007529Y020288D01*
X007506Y020357D01*
X007473Y020421D01*
X007431Y020480D01*
X007380Y020531D01*
X007321Y020573D01*
X007257Y020606D01*
X007188Y020629D01*
X007116Y020640D01*
X007100Y020640D01*
X007100Y020200D01*
X007540Y020200D01*
X007522Y020310D02*
X007636Y020310D01*
X007717Y020468D02*
X007439Y020468D01*
X007194Y020627D02*
X007956Y020627D01*
X008204Y020627D02*
X008956Y020627D01*
X008988Y020640D02*
X008819Y020570D01*
X008690Y020441D01*
X008620Y020271D01*
X008620Y020088D01*
X008690Y019919D01*
X008800Y019809D01*
X008800Y018551D01*
X008690Y018441D01*
X008620Y018271D01*
X008620Y018088D01*
X008690Y017919D01*
X008819Y017790D01*
X008988Y017720D01*
X009171Y017720D01*
X009341Y017790D01*
X009470Y017919D01*
X009540Y018088D01*
X009540Y018271D01*
X009470Y018441D01*
X009360Y018551D01*
X009360Y019809D01*
X009470Y019919D01*
X009540Y020088D01*
X009540Y020271D01*
X009470Y020441D01*
X009341Y020570D01*
X009171Y020640D01*
X008988Y020640D01*
X009204Y020627D02*
X009956Y020627D01*
X009717Y020468D02*
X009443Y020468D01*
X009524Y020310D02*
X009636Y020310D01*
X009620Y020151D02*
X009540Y020151D01*
X009500Y019993D02*
X009660Y019993D01*
X009775Y019834D02*
X009385Y019834D01*
X009360Y019676D02*
X009800Y019676D01*
X009800Y019517D02*
X009360Y019517D01*
X009360Y019359D02*
X009800Y019359D01*
X009800Y019200D02*
X009360Y019200D01*
X009360Y019042D02*
X009800Y019042D01*
X009800Y018883D02*
X009360Y018883D01*
X009360Y018725D02*
X009800Y018725D01*
X009800Y018566D02*
X009360Y018566D01*
X009484Y018408D02*
X009676Y018408D01*
X009620Y018249D02*
X009540Y018249D01*
X009540Y018091D02*
X009620Y018091D01*
X009685Y017932D02*
X009475Y017932D01*
X009301Y017774D02*
X009859Y017774D01*
X008859Y017774D02*
X008301Y017774D01*
X008475Y017932D02*
X008685Y017932D01*
X008620Y018091D02*
X008540Y018091D01*
X008540Y018249D02*
X008620Y018249D01*
X008676Y018408D02*
X008484Y018408D01*
X008360Y018566D02*
X008800Y018566D01*
X008800Y018725D02*
X008360Y018725D01*
X008360Y018883D02*
X008800Y018883D01*
X008800Y019042D02*
X008360Y019042D01*
X008360Y019200D02*
X008800Y019200D01*
X008800Y019359D02*
X008360Y019359D01*
X008360Y019517D02*
X008800Y019517D01*
X008800Y019676D02*
X008360Y019676D01*
X008385Y019834D02*
X008775Y019834D01*
X008660Y019993D02*
X008500Y019993D01*
X008540Y020151D02*
X008620Y020151D01*
X008636Y020310D02*
X008524Y020310D01*
X008443Y020468D02*
X008717Y020468D01*
X007100Y020468D02*
X007060Y020468D01*
X007060Y020310D02*
X007100Y020310D01*
X007100Y020151D02*
X007060Y020151D01*
X007060Y019993D02*
X007100Y019993D01*
X007100Y019834D02*
X007060Y019834D01*
X006775Y019834D02*
X006385Y019834D01*
X006500Y019993D02*
X006659Y019993D01*
X006620Y020151D02*
X006540Y020151D01*
X006524Y020310D02*
X006638Y020310D01*
X006721Y020468D02*
X006443Y020468D01*
X006204Y020627D02*
X006966Y020627D01*
X007060Y020627D02*
X007100Y020627D01*
X005956Y020627D02*
X000694Y020627D01*
X000572Y020468D02*
X005717Y020468D01*
X005636Y020310D02*
X000504Y020310D01*
X000460Y020151D02*
X005620Y020151D01*
X005660Y019993D02*
X000460Y019993D01*
X000460Y019834D02*
X005775Y019834D01*
X005800Y019676D02*
X000460Y019676D01*
X000888Y020785D02*
X022307Y020785D01*
X022485Y020627D02*
X022060Y020627D01*
X022140Y020468D02*
X022584Y020468D01*
X022636Y020310D02*
X022140Y020310D01*
X022140Y020151D02*
X022650Y020151D01*
X022650Y019993D02*
X022140Y019993D01*
X022140Y019834D02*
X022650Y019834D01*
X022650Y019676D02*
X021960Y019676D01*
X021960Y019517D02*
X022650Y019517D01*
X022650Y019359D02*
X021960Y019359D01*
X021960Y019200D02*
X022650Y019200D01*
X022650Y019042D02*
X021960Y019042D01*
X021960Y018883D02*
X022650Y018883D01*
X022650Y018725D02*
X021960Y018725D01*
X022120Y018566D02*
X022650Y018566D01*
X022650Y018408D02*
X022140Y018408D01*
X022140Y018249D02*
X022650Y018249D01*
X022650Y018091D02*
X022140Y018091D01*
X022140Y017932D02*
X022650Y017932D01*
X022650Y017774D02*
X022100Y017774D01*
X020459Y017774D02*
X019901Y017774D01*
X020075Y017932D02*
X020285Y017932D01*
X020220Y018091D02*
X020140Y018091D01*
X020140Y018249D02*
X020220Y018249D01*
X020276Y018408D02*
X020084Y018408D01*
X019960Y018566D02*
X020400Y018566D01*
X020400Y018725D02*
X019960Y018725D01*
X019960Y018883D02*
X020400Y018883D01*
X020400Y019042D02*
X019960Y019042D01*
X019960Y019200D02*
X020400Y019200D01*
X020400Y019359D02*
X019960Y019359D01*
X019960Y019517D02*
X020400Y019517D01*
X020400Y019676D02*
X019960Y019676D01*
X019985Y019834D02*
X020375Y019834D01*
X020260Y019993D02*
X020100Y019993D01*
X020140Y020151D02*
X020220Y020151D01*
X020236Y020310D02*
X020124Y020310D01*
X020043Y020468D02*
X020317Y020468D01*
X019375Y019834D02*
X018985Y019834D01*
X018960Y019676D02*
X019400Y019676D01*
X019400Y019517D02*
X018960Y019517D01*
X018960Y019359D02*
X019400Y019359D01*
X019400Y019200D02*
X018960Y019200D01*
X018960Y019042D02*
X019400Y019042D01*
X019400Y018883D02*
X018960Y018883D01*
X018960Y018725D02*
X019400Y018725D01*
X019400Y018566D02*
X018960Y018566D01*
X019084Y018408D02*
X019276Y018408D01*
X019220Y018249D02*
X019140Y018249D01*
X019140Y018091D02*
X019220Y018091D01*
X019285Y017932D02*
X019075Y017932D01*
X018901Y017774D02*
X019459Y017774D01*
X019456Y017140D02*
X019904Y017140D01*
X019731Y016981D02*
X019629Y016981D01*
X019597Y016347D02*
X019763Y016347D01*
X019982Y016189D02*
X019378Y016189D01*
X019481Y016030D02*
X019879Y016030D01*
X019761Y015872D02*
X019599Y015872D01*
X019640Y015713D02*
X019720Y015713D01*
X019734Y015555D02*
X019626Y015555D01*
X019547Y015396D02*
X019813Y015396D01*
X019819Y013970D02*
X019541Y013970D01*
X019624Y013811D02*
X019736Y013811D01*
X019720Y013653D02*
X019640Y013653D01*
X019601Y013494D02*
X019759Y013494D01*
X019874Y013336D02*
X019486Y013336D01*
X017763Y016347D02*
X017597Y016347D01*
X017629Y016981D02*
X017731Y016981D01*
X017904Y017140D02*
X017456Y017140D01*
X017459Y017774D02*
X016901Y017774D01*
X017075Y017932D02*
X017285Y017932D01*
X017220Y018091D02*
X017140Y018091D01*
X017140Y018249D02*
X017220Y018249D01*
X017276Y018408D02*
X017084Y018408D01*
X016960Y018566D02*
X017400Y018566D01*
X017400Y018725D02*
X016960Y018725D01*
X016960Y018883D02*
X017400Y018883D01*
X017400Y019042D02*
X016960Y019042D01*
X016960Y019200D02*
X017400Y019200D01*
X017400Y019359D02*
X016960Y019359D01*
X016960Y019517D02*
X017400Y019517D01*
X017400Y019676D02*
X016960Y019676D01*
X016985Y019834D02*
X017375Y019834D01*
X017260Y019993D02*
X017100Y019993D01*
X017140Y020151D02*
X017220Y020151D01*
X017236Y020310D02*
X017124Y020310D01*
X017043Y020468D02*
X017317Y020468D01*
X018043Y020468D02*
X018317Y020468D01*
X018236Y020310D02*
X018124Y020310D01*
X018140Y020151D02*
X018220Y020151D01*
X018260Y019993D02*
X018100Y019993D01*
X017985Y019834D02*
X018375Y019834D01*
X018400Y019676D02*
X017960Y019676D01*
X017960Y019517D02*
X018400Y019517D01*
X018400Y019359D02*
X017960Y019359D01*
X017960Y019200D02*
X018400Y019200D01*
X018400Y019042D02*
X017960Y019042D01*
X017960Y018883D02*
X018400Y018883D01*
X018400Y018725D02*
X017960Y018725D01*
X017960Y018566D02*
X018400Y018566D01*
X018276Y018408D02*
X018084Y018408D01*
X018140Y018249D02*
X018220Y018249D01*
X018220Y018091D02*
X018140Y018091D01*
X018075Y017932D02*
X018285Y017932D01*
X018459Y017774D02*
X017901Y017774D01*
X018456Y017140D02*
X018904Y017140D01*
X018731Y016981D02*
X018629Y016981D01*
X016459Y017774D02*
X015901Y017774D01*
X016075Y017932D02*
X016285Y017932D01*
X016220Y018091D02*
X016140Y018091D01*
X016140Y018249D02*
X016220Y018249D01*
X016276Y018408D02*
X016084Y018408D01*
X015960Y018566D02*
X016400Y018566D01*
X016400Y018725D02*
X015960Y018725D01*
X015960Y018883D02*
X016400Y018883D01*
X016400Y019042D02*
X015960Y019042D01*
X015960Y019200D02*
X016400Y019200D01*
X016400Y019359D02*
X015960Y019359D01*
X015960Y019517D02*
X016400Y019517D01*
X016400Y019676D02*
X015960Y019676D01*
X015985Y019834D02*
X016375Y019834D01*
X016260Y019993D02*
X016100Y019993D01*
X016140Y020151D02*
X016220Y020151D01*
X016236Y020310D02*
X016124Y020310D01*
X016043Y020468D02*
X016317Y020468D01*
X015317Y020468D02*
X015043Y020468D01*
X015124Y020310D02*
X015236Y020310D01*
X015220Y020151D02*
X015140Y020151D01*
X015100Y019993D02*
X015260Y019993D01*
X015375Y019834D02*
X014985Y019834D01*
X014960Y019676D02*
X015400Y019676D01*
X015400Y019517D02*
X014960Y019517D01*
X014960Y019359D02*
X015400Y019359D01*
X015400Y019200D02*
X014960Y019200D01*
X014960Y019042D02*
X015400Y019042D01*
X015400Y018883D02*
X014960Y018883D01*
X014960Y018725D02*
X015400Y018725D01*
X015400Y018566D02*
X014960Y018566D01*
X015084Y018408D02*
X015276Y018408D01*
X015220Y018249D02*
X015140Y018249D01*
X015140Y018091D02*
X015220Y018091D01*
X015285Y017932D02*
X015075Y017932D01*
X014901Y017774D02*
X015459Y017774D01*
X011859Y017774D02*
X011301Y017774D01*
X011475Y017932D02*
X011685Y017932D01*
X011620Y018091D02*
X011540Y018091D01*
X011540Y018249D02*
X011620Y018249D01*
X011676Y018408D02*
X011484Y018408D01*
X011360Y018566D02*
X011800Y018566D01*
X011800Y018725D02*
X011360Y018725D01*
X011360Y018883D02*
X011800Y018883D01*
X011800Y019042D02*
X011360Y019042D01*
X011360Y019200D02*
X011800Y019200D01*
X011800Y019359D02*
X011360Y019359D01*
X011360Y019517D02*
X011800Y019517D01*
X011800Y019676D02*
X011360Y019676D01*
X011385Y019834D02*
X011775Y019834D01*
X011660Y019993D02*
X011500Y019993D01*
X011540Y020151D02*
X011620Y020151D01*
X011636Y020310D02*
X011524Y020310D01*
X011443Y020468D02*
X011717Y020468D01*
X007800Y018566D02*
X007331Y018566D01*
X007321Y018573D02*
X007257Y018606D01*
X007188Y018629D01*
X007116Y018640D01*
X007100Y018640D01*
X007100Y018200D01*
X007060Y018200D01*
X007060Y018160D01*
X007100Y018160D01*
X007100Y018200D01*
X007540Y018200D01*
X007540Y018216D01*
X007529Y018288D01*
X007506Y018357D01*
X007473Y018421D01*
X007431Y018480D01*
X007380Y018531D01*
X007321Y018573D01*
X007100Y018566D02*
X007060Y018566D01*
X007060Y018408D02*
X007100Y018408D01*
X007100Y018249D02*
X007060Y018249D01*
X007100Y018160D02*
X007540Y018160D01*
X007540Y018144D01*
X007529Y018072D01*
X007506Y018003D01*
X007473Y017939D01*
X007431Y017880D01*
X007380Y017829D01*
X007321Y017787D01*
X007257Y017754D01*
X007188Y017731D01*
X007116Y017720D01*
X007100Y017720D01*
X007100Y018160D01*
X007100Y018091D02*
X007060Y018091D01*
X007060Y017932D02*
X007100Y017932D01*
X007100Y017774D02*
X007060Y017774D01*
X007295Y017774D02*
X007859Y017774D01*
X007685Y017932D02*
X007468Y017932D01*
X007532Y018091D02*
X007620Y018091D01*
X007620Y018249D02*
X007535Y018249D01*
X007480Y018408D02*
X007676Y018408D01*
X014961Y014128D02*
X016060Y014128D01*
X019100Y019993D02*
X019260Y019993D01*
X019220Y020151D02*
X019140Y020151D01*
X019124Y020310D02*
X019236Y020310D01*
X019317Y020468D02*
X019043Y020468D01*
X019515Y006996D02*
X019845Y006996D01*
X019747Y006837D02*
X019613Y006837D01*
X019640Y006679D02*
X019720Y006679D01*
X019748Y006520D02*
X019612Y006520D01*
X019512Y006362D02*
X019848Y006362D01*
X019894Y006045D02*
X019466Y006045D01*
X019593Y005886D02*
X019767Y005886D01*
X019720Y005728D02*
X019640Y005728D01*
X019632Y005569D02*
X019728Y005569D01*
X019799Y005411D02*
X019561Y005411D01*
X022512Y006362D02*
X022760Y006362D01*
X022760Y006520D02*
X022612Y006520D01*
X022640Y006679D02*
X022760Y006679D01*
X022760Y006837D02*
X022613Y006837D01*
X022645Y004935D02*
X022760Y004935D01*
X022760Y004777D02*
X022701Y004777D01*
X022707Y004618D02*
X022740Y004618D01*
D18*
X012180Y012680D02*
X011305Y011805D01*
X011305Y011430D01*
X011555Y011180D01*
X011055Y011180D02*
X011055Y012055D01*
X011680Y012680D01*
X010805Y013555D02*
X010805Y011305D01*
X010305Y010805D01*
X010930Y011055D02*
X011055Y011180D01*
X010462Y011525D02*
X010462Y012460D01*
X010462Y012898D01*
X008930Y014430D01*
X007930Y014430D01*
X008680Y013930D02*
X009680Y012930D01*
X009680Y012805D01*
X010243Y011805D02*
X009680Y011243D01*
D19*
X010243Y011805D02*
X010243Y012243D01*
X009680Y012805D01*
M02*
