G75*
G70*
%OFA0B0*%
%FSLAX24Y24*%
%IPPOS*%
%LPD*%
%AMOC8*
5,1,8,0,0,1.08239X$1,22.5*
%
%ADD10C,0.0660*%
%ADD11R,0.0660X0.0660*%
%ADD12R,0.0360X0.0360*%
%ADD13R,0.0360X0.0860*%
%ADD14R,0.1217X0.1469*%
%ADD15R,0.0433X0.0197*%
%ADD16R,0.0769X0.1123*%
%ADD17C,0.1360*%
%ADD18OC8,0.0690*%
%ADD19C,0.0690*%
%ADD20R,0.0860X0.0320*%
D10*
X009680Y001180D03*
X010680Y001180D03*
X011680Y001180D03*
X012680Y001180D03*
X013680Y001180D03*
X014680Y001180D03*
X016680Y001180D03*
X017680Y001180D03*
X018680Y001180D03*
X019680Y001180D03*
X020680Y001180D03*
X021680Y001180D03*
X021680Y003180D03*
X020680Y003180D03*
X019680Y003180D03*
X018680Y003180D03*
X017680Y003180D03*
X016680Y003180D03*
X016180Y004680D03*
X015180Y004680D03*
X015180Y005680D03*
X016180Y005680D03*
X016180Y006680D03*
X015180Y006680D03*
X015180Y007680D03*
X015180Y008680D03*
X015180Y009680D03*
X015180Y010680D03*
X015180Y011680D03*
X015180Y012680D03*
X015180Y013680D03*
X015180Y015680D03*
X016180Y015680D03*
X016180Y016680D03*
X015180Y016680D03*
X014680Y018180D03*
X015680Y018180D03*
X016680Y018180D03*
X017680Y018180D03*
X018680Y018180D03*
X019680Y018180D03*
X020680Y018180D03*
X020180Y016680D03*
X019180Y016680D03*
X018180Y016680D03*
X017180Y016680D03*
X017180Y015680D03*
X018180Y015680D03*
X019180Y015680D03*
X020180Y015680D03*
X021180Y015680D03*
X022180Y015680D03*
X022180Y014680D03*
X022180Y013680D03*
X021180Y013680D03*
X021180Y014680D03*
X020180Y014680D03*
X020180Y013680D03*
X019180Y013680D03*
X019180Y014680D03*
X018180Y014680D03*
X018180Y013680D03*
X017180Y013680D03*
X017180Y014680D03*
X017180Y012680D03*
X018180Y012680D03*
X019180Y012680D03*
X020180Y012680D03*
X021180Y012680D03*
X022180Y012680D03*
X022180Y011680D03*
X022180Y010680D03*
X021180Y010680D03*
X021180Y011680D03*
X020180Y011680D03*
X020180Y010680D03*
X019180Y010680D03*
X019180Y011680D03*
X018180Y011680D03*
X018180Y010680D03*
X017180Y011680D03*
X018180Y009680D03*
X019180Y009680D03*
X020180Y009680D03*
X021180Y009680D03*
X022180Y009680D03*
X022180Y008680D03*
X021180Y008680D03*
X020180Y008680D03*
X019180Y008680D03*
X019180Y007680D03*
X019180Y006680D03*
X018180Y006680D03*
X017180Y006680D03*
X017180Y005680D03*
X018180Y005680D03*
X019180Y005680D03*
X020180Y005680D03*
X021180Y005680D03*
X022180Y005680D03*
X022180Y006680D03*
X022180Y007680D03*
X021180Y007680D03*
X021180Y006680D03*
X020180Y006680D03*
X020180Y007680D03*
X020180Y004680D03*
X019180Y004680D03*
X018180Y004680D03*
X017180Y004680D03*
X014680Y003180D03*
X013680Y003180D03*
X012680Y003180D03*
X011680Y003180D03*
X010680Y003180D03*
X009680Y003180D03*
X011180Y008680D03*
X011180Y009680D03*
X011180Y010680D03*
X011180Y011680D03*
X011180Y012680D03*
X011180Y013680D03*
X011180Y014680D03*
X011180Y015680D03*
X012180Y015680D03*
X012180Y014680D03*
X012180Y013680D03*
X012180Y012680D03*
X012180Y011680D03*
X012180Y010680D03*
X012180Y009680D03*
X012180Y008680D03*
X021180Y004680D03*
X021180Y016680D03*
X020680Y020180D03*
X019680Y020180D03*
X018680Y020180D03*
X017680Y020180D03*
X016680Y020180D03*
X015680Y020180D03*
X014680Y020180D03*
X012080Y020180D03*
X011080Y020180D03*
X010080Y020180D03*
X009080Y020180D03*
X008080Y020180D03*
X007080Y020180D03*
X006080Y020180D03*
X006080Y018180D03*
X007080Y018180D03*
X008080Y018180D03*
X009080Y018180D03*
X010080Y018180D03*
X011080Y018180D03*
X012080Y018180D03*
X004580Y018180D03*
D11*
X013080Y018180D03*
X013080Y020180D03*
X015180Y014680D03*
X021680Y018180D03*
X022180Y016680D03*
X021680Y020180D03*
X022180Y004680D03*
D12*
X014230Y006180D03*
X013630Y006180D03*
X013630Y007180D03*
X014230Y007180D03*
X014230Y007930D03*
X013630Y007930D03*
X013630Y008680D03*
X014230Y008680D03*
X014230Y009430D03*
X013630Y009430D03*
X013630Y010430D03*
X014230Y010430D03*
X014230Y011180D03*
X013630Y011180D03*
X013630Y011930D03*
X014230Y011930D03*
X014230Y012680D03*
X013630Y012680D03*
X013430Y014880D03*
X013430Y015480D03*
X009180Y015880D03*
X009180Y016480D03*
X008430Y016480D03*
X008430Y015880D03*
X003580Y018180D03*
X003580Y018780D03*
X002080Y016930D03*
X001480Y016930D03*
X010180Y007480D03*
X010180Y006880D03*
X010930Y006880D03*
X010930Y007480D03*
X011680Y007480D03*
X011680Y006880D03*
X007230Y004805D03*
X006630Y004805D03*
X005180Y001730D03*
X005180Y001130D03*
X004480Y001130D03*
X004480Y001730D03*
X003430Y001730D03*
X003430Y001130D03*
D13*
X001080Y001330D03*
X002580Y001330D03*
X002580Y003530D03*
X001080Y003530D03*
X001080Y017880D03*
X002580Y017880D03*
X002580Y020080D03*
X001080Y020080D03*
D14*
X007580Y008430D03*
D15*
X006487Y008302D03*
X006487Y008046D03*
X006487Y007790D03*
X006487Y007534D03*
X006487Y008558D03*
X006487Y008814D03*
X006487Y009070D03*
X006487Y009326D03*
X008673Y009326D03*
X008673Y009070D03*
X008673Y008814D03*
X008673Y008558D03*
X008673Y008302D03*
X008673Y008046D03*
X008673Y007790D03*
X008673Y007534D03*
D16*
X007796Y005930D03*
X006064Y005930D03*
X006314Y010930D03*
X008046Y010930D03*
D17*
X003430Y011430D03*
X003430Y009430D03*
X003430Y007430D03*
X003430Y005430D03*
X003430Y013430D03*
X003430Y015430D03*
D18*
X007630Y002580D03*
D19*
X006230Y002580D03*
D20*
X006520Y012180D03*
X006520Y012680D03*
X006520Y013180D03*
X006520Y013680D03*
X006520Y014180D03*
X006520Y014680D03*
X006520Y015180D03*
X008940Y015180D03*
X008940Y014680D03*
X008940Y014180D03*
X008940Y013680D03*
X008940Y013180D03*
X008940Y012680D03*
X008940Y012180D03*
M02*
