G75*
G70*
%OFA0B0*%
%FSLAX24Y24*%
%IPPOS*%
%LPD*%
%AMOC8*
5,1,8,0,0,1.08239X$1,22.5*
%
%ADD10C,0.0100*%
%ADD11C,0.0160*%
%ADD12C,0.0080*%
%ADD13C,0.0120*%
%ADD14C,0.0090*%
%ADD15C,0.0050*%
%ADD16C,0.0070*%
%ADD17R,0.0200X0.0450*%
%ADD18R,0.0200X0.0100*%
%ADD19R,0.0200X0.0300*%
%ADD20C,0.0060*%
%ADD21C,0.0040*%
D10*
X006730Y008080D02*
X006830Y008080D01*
X006830Y008280D02*
X006730Y008280D01*
X008880Y008205D02*
X008980Y008205D01*
X008980Y008405D02*
X008880Y008405D01*
X010880Y009455D02*
X010980Y009455D01*
X010980Y009655D02*
X010880Y009655D01*
X012380Y008468D02*
X012480Y008468D01*
X012480Y008268D02*
X012380Y008268D01*
X012380Y007905D02*
X012480Y007905D01*
X012480Y007705D02*
X012380Y007705D01*
X014130Y009455D02*
X014230Y009455D01*
X014230Y009655D02*
X014130Y009655D01*
X014818Y010018D02*
X014918Y010018D01*
X014918Y010218D02*
X014818Y010218D01*
X014355Y014330D02*
X014255Y014330D01*
X014255Y014530D02*
X014355Y014530D01*
X010168Y014280D02*
X010068Y014280D01*
X010068Y014080D02*
X010168Y014080D01*
X006730Y012530D02*
X006630Y012530D01*
X006630Y012330D02*
X006730Y012330D01*
X001305Y012930D02*
X001180Y012805D01*
X001305Y012930D02*
X001180Y013055D01*
X001305Y012930D02*
X000680Y012930D01*
X001118Y011368D02*
X001118Y011180D01*
X001118Y010993D01*
X000993Y011055D02*
X000993Y011305D01*
X000868Y011243D02*
X000868Y011118D01*
X001118Y011180D02*
X001305Y011180D01*
X004393Y018818D02*
X004393Y018918D01*
X004593Y018918D02*
X004593Y018818D01*
X004593Y020005D02*
X004593Y020105D01*
X004393Y020105D02*
X004393Y020005D01*
X015680Y005130D02*
X022680Y005130D01*
X022680Y004230D02*
X015680Y004230D01*
D11*
X015680Y004280D02*
X015680Y005080D01*
X016680Y005080D02*
X016680Y004280D01*
X017680Y004280D02*
X017680Y005080D01*
X018680Y005080D02*
X018680Y004280D01*
X019680Y004280D02*
X019680Y005080D01*
X020680Y005080D02*
X020680Y004280D01*
X021680Y004280D02*
X021680Y005080D01*
X022680Y005080D02*
X022680Y004280D01*
X015430Y009180D02*
X015430Y009834D01*
X015430Y010228D02*
X015430Y010882D01*
X015430Y011276D02*
X015430Y011930D01*
X014930Y011930D01*
X014180Y012430D02*
X013680Y012430D01*
X013680Y016680D01*
X012180Y016680D01*
X012180Y012430D01*
X011680Y012430D01*
X011680Y009930D01*
X014180Y009930D01*
X014180Y012430D01*
X011930Y011680D02*
X011618Y011680D01*
X011930Y010680D02*
X011180Y010680D01*
X010430Y010680D02*
X009930Y010680D01*
X009680Y010680D01*
X009930Y010680D02*
X009930Y009930D01*
X007430Y009930D01*
X007430Y012430D01*
X007930Y012430D01*
X007930Y016680D01*
X009430Y016680D01*
X009430Y012430D01*
X009930Y012430D01*
X009930Y010680D01*
X009180Y010180D02*
X009180Y009680D01*
X008680Y009680D01*
X008180Y009680D01*
X008180Y010180D01*
X008680Y010180D02*
X008680Y009680D01*
X008055Y009180D02*
X007314Y009180D01*
X006921Y009180D02*
X006180Y009180D01*
X006180Y009834D01*
X006180Y010228D02*
X006180Y010882D01*
X006180Y011276D02*
X006180Y011930D01*
X006680Y011930D01*
X009680Y011680D02*
X010055Y011680D01*
X012430Y010180D02*
X012430Y009680D01*
X012930Y009680D01*
X013430Y009680D01*
X013430Y010180D01*
X012930Y010180D02*
X012930Y009680D01*
X012368Y009180D02*
X011913Y009180D01*
X011519Y009180D02*
X011064Y009180D01*
X010671Y009180D02*
X010216Y009180D01*
X009822Y009180D02*
X009368Y009180D01*
X013555Y009180D02*
X014296Y009180D01*
X014689Y009180D02*
X015430Y009180D01*
X014680Y006930D02*
X014868Y006743D01*
X014680Y006930D02*
X014680Y006430D01*
X014493Y006743D02*
X014680Y006930D01*
X014680Y004430D02*
X014680Y003680D01*
D12*
X014430Y003680D02*
X014930Y003680D01*
X015180Y003430D01*
X015180Y002930D01*
X014930Y002680D01*
X014430Y002680D01*
X014180Y002930D01*
X013930Y002680D01*
X013430Y002680D01*
X013180Y002930D01*
X012930Y002680D01*
X012430Y002680D01*
X012180Y002930D01*
X011930Y002680D01*
X011430Y002680D01*
X011180Y002930D01*
X010930Y002680D01*
X010430Y002680D01*
X010180Y002930D01*
X009930Y002680D01*
X009430Y002680D01*
X009180Y002930D01*
X009180Y003430D01*
X009430Y003680D01*
X009930Y003680D01*
X010180Y003430D01*
X010430Y003680D01*
X010930Y003680D01*
X011180Y003430D01*
X011430Y003680D01*
X011930Y003680D01*
X012180Y003430D01*
X012430Y003680D01*
X012930Y003680D01*
X013180Y003430D01*
X013430Y003680D01*
X013930Y003680D01*
X014180Y003430D01*
X014430Y003680D01*
X014430Y004430D02*
X014180Y004680D01*
X014180Y005180D01*
X014430Y005430D01*
X014180Y005680D01*
X014180Y006180D01*
X014430Y006430D01*
X014930Y006430D01*
X015180Y006180D01*
X015180Y005680D01*
X014930Y005430D01*
X015180Y005180D01*
X015180Y004680D01*
X014930Y004430D01*
X014430Y004430D01*
X015680Y004430D02*
X015680Y004930D01*
X015930Y005180D01*
X016430Y005180D01*
X016680Y004930D01*
X016930Y005180D01*
X017430Y005180D01*
X017680Y004930D01*
X017930Y005180D01*
X018430Y005180D01*
X018680Y004930D01*
X018930Y005180D01*
X019430Y005180D01*
X019680Y004930D01*
X019930Y005180D01*
X020430Y005180D01*
X020680Y004930D01*
X020930Y005180D01*
X021430Y005180D01*
X021680Y004930D01*
X021930Y005180D01*
X022430Y005180D01*
X022680Y004930D01*
X022680Y004430D01*
X022430Y004180D01*
X021930Y004180D01*
X021680Y004430D01*
X021430Y004180D01*
X020930Y004180D01*
X020680Y004430D01*
X020430Y004180D01*
X019930Y004180D01*
X019680Y004430D01*
X019430Y004180D01*
X018930Y004180D01*
X018680Y004430D01*
X018430Y004180D01*
X017930Y004180D01*
X017680Y004430D01*
X017430Y004180D01*
X016930Y004180D01*
X016680Y004430D01*
X016430Y004180D01*
X015930Y004180D01*
X015680Y004430D01*
X016430Y003680D02*
X016180Y003430D01*
X016180Y002930D01*
X016430Y002680D01*
X016930Y002680D01*
X017180Y002930D01*
X017430Y002680D01*
X017930Y002680D01*
X018180Y002930D01*
X018430Y002680D01*
X018930Y002680D01*
X019180Y002930D01*
X019430Y002680D01*
X019930Y002680D01*
X020180Y002930D01*
X020430Y002680D01*
X020930Y002680D01*
X021180Y002930D01*
X021430Y002680D01*
X021930Y002680D01*
X022180Y002930D01*
X022180Y003430D01*
X021930Y003680D01*
X021430Y003680D01*
X021180Y003430D01*
X020930Y003680D01*
X020430Y003680D01*
X020180Y003430D01*
X019930Y003680D01*
X019430Y003680D01*
X019180Y003430D01*
X018930Y003680D01*
X018430Y003680D01*
X018180Y003430D01*
X017930Y003680D01*
X017430Y003680D01*
X017180Y003430D01*
X016930Y003680D01*
X016430Y003680D01*
X016430Y001680D02*
X016180Y001430D01*
X016180Y000930D01*
X016430Y000680D01*
X016930Y000680D01*
X017180Y000930D01*
X017430Y000680D01*
X017930Y000680D01*
X018180Y000930D01*
X018430Y000680D01*
X018930Y000680D01*
X019180Y000930D01*
X019430Y000680D01*
X019930Y000680D01*
X020180Y000930D01*
X020430Y000680D01*
X020930Y000680D01*
X021180Y000930D01*
X021430Y000680D01*
X021930Y000680D01*
X022180Y000930D01*
X022180Y001430D01*
X021930Y001680D01*
X021430Y001680D01*
X021180Y001430D01*
X020930Y001680D01*
X020430Y001680D01*
X020180Y001430D01*
X019930Y001680D01*
X019430Y001680D01*
X019180Y001430D01*
X018930Y001680D01*
X018430Y001680D01*
X018180Y001430D01*
X017930Y001680D01*
X017430Y001680D01*
X017180Y001430D01*
X016930Y001680D01*
X016430Y001680D01*
X015180Y001430D02*
X015180Y000930D01*
X014930Y000680D01*
X014430Y000680D01*
X014180Y000930D01*
X013930Y000680D01*
X013430Y000680D01*
X013180Y000930D01*
X012930Y000680D01*
X012430Y000680D01*
X012180Y000930D01*
X011930Y000680D01*
X011430Y000680D01*
X011180Y000930D01*
X010930Y000680D01*
X010430Y000680D01*
X010180Y000930D01*
X009930Y000680D01*
X009430Y000680D01*
X009180Y000930D01*
X009180Y001430D01*
X009430Y001680D01*
X009930Y001680D01*
X010180Y001430D01*
X010430Y001680D01*
X010930Y001680D01*
X011180Y001430D01*
X011430Y001680D01*
X011930Y001680D01*
X012180Y001430D01*
X012430Y001680D01*
X012930Y001680D01*
X013180Y001430D01*
X013430Y001680D01*
X013930Y001680D01*
X014180Y001430D01*
X014430Y001680D01*
X014930Y001680D01*
X015180Y001430D01*
X013180Y012430D02*
X012680Y012430D01*
X012430Y012680D01*
X012430Y013180D01*
X012680Y013430D01*
X012430Y013680D01*
X012430Y014180D01*
X012680Y014430D01*
X012430Y014680D01*
X012430Y015180D01*
X012680Y015430D01*
X012430Y015680D01*
X012430Y016180D01*
X012680Y016430D01*
X013180Y016430D01*
X013430Y016180D01*
X013430Y015680D01*
X013180Y015430D01*
X013430Y015180D01*
X013430Y014680D01*
X013180Y014430D01*
X013430Y014180D01*
X013430Y013680D01*
X013180Y013430D01*
X013430Y013180D01*
X013430Y012680D01*
X013180Y012430D01*
X009180Y012680D02*
X008930Y012430D01*
X008430Y012430D01*
X008180Y012680D01*
X008180Y013180D01*
X008430Y013430D01*
X008180Y013680D01*
X008180Y014180D01*
X008430Y014430D01*
X008180Y014680D01*
X008180Y015180D01*
X008430Y015430D01*
X008180Y015680D01*
X008180Y016180D01*
X008430Y016430D01*
X008930Y016430D01*
X009180Y016180D01*
X009180Y015680D01*
X008930Y015430D01*
X009180Y015180D01*
X009180Y014680D01*
X008930Y014430D01*
X009180Y014180D01*
X009180Y013680D01*
X008930Y013430D01*
X009180Y013180D01*
X009180Y012680D01*
X009330Y017680D02*
X008830Y017680D01*
X008580Y017930D01*
X008330Y017680D01*
X007830Y017680D01*
X007580Y017930D01*
X007330Y017680D01*
X006830Y017680D01*
X006580Y017930D01*
X006330Y017680D01*
X005830Y017680D01*
X005580Y017930D01*
X005580Y018430D01*
X005830Y018680D01*
X006330Y018680D01*
X006580Y018430D01*
X006830Y018680D01*
X007330Y018680D01*
X007580Y018430D01*
X007830Y018680D01*
X008330Y018680D01*
X008580Y018430D01*
X008830Y018680D01*
X009330Y018680D01*
X009580Y018430D01*
X009830Y018680D01*
X010330Y018680D01*
X010580Y018430D01*
X010830Y018680D01*
X011330Y018680D01*
X011580Y018430D01*
X011830Y018680D01*
X012330Y018680D01*
X012580Y018430D01*
X012830Y018680D01*
X013330Y018680D01*
X013580Y018430D01*
X013580Y017930D01*
X013330Y017680D01*
X012830Y017680D01*
X012580Y017930D01*
X012330Y017680D01*
X011830Y017680D01*
X011580Y017930D01*
X011330Y017680D01*
X010830Y017680D01*
X010580Y017930D01*
X010330Y017680D01*
X009830Y017680D01*
X009580Y017930D01*
X009330Y017680D01*
X009330Y019680D02*
X008830Y019680D01*
X008580Y019930D01*
X008330Y019680D01*
X007830Y019680D01*
X007580Y019930D01*
X007330Y019680D01*
X006830Y019680D01*
X006580Y019930D01*
X006330Y019680D01*
X005830Y019680D01*
X005580Y019930D01*
X005580Y020430D01*
X005830Y020680D01*
X006330Y020680D01*
X006580Y020430D01*
X006830Y020680D01*
X007330Y020680D01*
X007580Y020430D01*
X007830Y020680D01*
X008330Y020680D01*
X008580Y020430D01*
X008830Y020680D01*
X009330Y020680D01*
X009580Y020430D01*
X009830Y020680D01*
X010330Y020680D01*
X010580Y020430D01*
X010830Y020680D01*
X011330Y020680D01*
X011580Y020430D01*
X011830Y020680D01*
X012330Y020680D01*
X012580Y020430D01*
X012830Y020680D01*
X013330Y020680D01*
X013580Y020430D01*
X013580Y019930D01*
X013330Y019680D01*
X012830Y019680D01*
X012580Y019930D01*
X012330Y019680D01*
X011830Y019680D01*
X011580Y019930D01*
X011330Y019680D01*
X010830Y019680D01*
X010580Y019930D01*
X010330Y019680D01*
X009830Y019680D01*
X009580Y019930D01*
X009330Y019680D01*
X005350Y020125D02*
X005180Y020125D01*
X005330Y019985D01*
X005030Y019985D01*
X005180Y020126D01*
X005180Y020125D02*
X005010Y020125D01*
X003430Y019956D02*
X003430Y018979D01*
X003036Y018468D02*
X001824Y018468D01*
X001430Y018979D02*
X001430Y019968D01*
X001824Y020468D02*
X003036Y020468D01*
X001930Y019468D02*
X001932Y019512D01*
X001938Y019556D01*
X001948Y019599D01*
X001961Y019641D01*
X001978Y019682D01*
X001999Y019721D01*
X002023Y019758D01*
X002050Y019793D01*
X002080Y019825D01*
X002113Y019855D01*
X002149Y019881D01*
X002186Y019905D01*
X002226Y019924D01*
X002267Y019941D01*
X002310Y019953D01*
X002353Y019962D01*
X002397Y019967D01*
X002441Y019968D01*
X002485Y019965D01*
X002529Y019958D01*
X002572Y019947D01*
X002614Y019933D01*
X002654Y019915D01*
X002693Y019893D01*
X002729Y019869D01*
X002763Y019841D01*
X002795Y019810D01*
X002824Y019776D01*
X002850Y019740D01*
X002872Y019702D01*
X002891Y019662D01*
X002906Y019620D01*
X002918Y019578D01*
X002926Y019534D01*
X002930Y019490D01*
X002930Y019446D01*
X002926Y019402D01*
X002918Y019358D01*
X002906Y019316D01*
X002891Y019274D01*
X002872Y019234D01*
X002850Y019196D01*
X002824Y019160D01*
X002795Y019126D01*
X002763Y019095D01*
X002729Y019067D01*
X002693Y019043D01*
X002654Y019021D01*
X002614Y019003D01*
X002572Y018989D01*
X002529Y018978D01*
X002485Y018971D01*
X002441Y018968D01*
X002397Y018969D01*
X002353Y018974D01*
X002310Y018983D01*
X002267Y018995D01*
X002226Y019012D01*
X002186Y019031D01*
X002149Y019055D01*
X002113Y019081D01*
X002080Y019111D01*
X002050Y019143D01*
X002023Y019178D01*
X001999Y019215D01*
X001978Y019254D01*
X001961Y019295D01*
X001948Y019337D01*
X001938Y019380D01*
X001932Y019424D01*
X001930Y019468D01*
X014180Y019930D02*
X014180Y020430D01*
X014430Y020680D01*
X014930Y020680D01*
X015180Y020430D01*
X015430Y020680D01*
X015930Y020680D01*
X016180Y020430D01*
X016430Y020680D01*
X016930Y020680D01*
X017180Y020430D01*
X017430Y020680D01*
X017930Y020680D01*
X018180Y020430D01*
X018430Y020680D01*
X018930Y020680D01*
X019180Y020430D01*
X019430Y020680D01*
X019930Y020680D01*
X020180Y020430D01*
X020430Y020680D01*
X020930Y020680D01*
X021180Y020430D01*
X021430Y020680D01*
X021930Y020680D01*
X022180Y020430D01*
X022180Y019930D01*
X021930Y019680D01*
X021430Y019680D01*
X021180Y019930D01*
X020930Y019680D01*
X020430Y019680D01*
X020180Y019930D01*
X019930Y019680D01*
X019430Y019680D01*
X019180Y019930D01*
X018930Y019680D01*
X018430Y019680D01*
X018180Y019930D01*
X017930Y019680D01*
X017430Y019680D01*
X017180Y019930D01*
X016930Y019680D01*
X016430Y019680D01*
X016180Y019930D01*
X015930Y019680D01*
X015430Y019680D01*
X015180Y019930D01*
X014930Y019680D01*
X014430Y019680D01*
X014180Y019930D01*
X014430Y018680D02*
X014930Y018680D01*
X015180Y018430D01*
X015430Y018680D01*
X015930Y018680D01*
X016180Y018430D01*
X016430Y018680D01*
X016930Y018680D01*
X017180Y018430D01*
X017430Y018680D01*
X017930Y018680D01*
X018180Y018430D01*
X018430Y018680D01*
X018930Y018680D01*
X019180Y018430D01*
X019430Y018680D01*
X019930Y018680D01*
X020180Y018430D01*
X020430Y018680D01*
X020930Y018680D01*
X021180Y018430D01*
X021430Y018680D01*
X021930Y018680D01*
X022180Y018430D01*
X022180Y017930D01*
X021930Y017680D01*
X021430Y017680D01*
X021180Y017930D01*
X020930Y017680D01*
X020430Y017680D01*
X020180Y017930D01*
X019930Y017680D01*
X019430Y017680D01*
X019180Y017930D01*
X018930Y017680D01*
X018430Y017680D01*
X018180Y017930D01*
X017930Y017680D01*
X017430Y017680D01*
X017180Y017930D01*
X016930Y017680D01*
X016430Y017680D01*
X016180Y017930D01*
X015930Y017680D01*
X015430Y017680D01*
X015180Y017930D01*
X014930Y017680D01*
X014430Y017680D01*
X014180Y017930D01*
X014180Y018430D01*
X014430Y018680D01*
X015930Y017180D02*
X016430Y017180D01*
X016680Y016930D01*
X016930Y017180D01*
X017430Y017180D01*
X017680Y016930D01*
X017930Y017180D01*
X018430Y017180D01*
X018680Y016930D01*
X018930Y017180D01*
X019430Y017180D01*
X019680Y016930D01*
X019930Y017180D01*
X020430Y017180D01*
X020680Y016930D01*
X020930Y017180D01*
X021430Y017180D01*
X021680Y016930D01*
X021930Y017180D01*
X022430Y017180D01*
X022680Y016930D01*
X022680Y016430D01*
X022430Y016180D01*
X021930Y016180D01*
X021680Y016430D01*
X021430Y016180D01*
X020930Y016180D01*
X020680Y016430D01*
X020430Y016180D01*
X019930Y016180D01*
X019680Y016430D01*
X019430Y016180D01*
X018930Y016180D01*
X018680Y016430D01*
X018430Y016180D01*
X017930Y016180D01*
X017680Y016430D01*
X017430Y016180D01*
X016930Y016180D01*
X016680Y016430D01*
X016430Y016180D01*
X015930Y016180D01*
X015680Y016430D01*
X015680Y016930D01*
X015930Y017180D01*
X022180Y017180D01*
X021680Y016930D02*
X021680Y016430D01*
X022180Y016180D02*
X015930Y016180D01*
X015680Y016430D02*
X015680Y016930D01*
X015508Y016838D02*
X015508Y016558D01*
X015368Y016418D01*
X015228Y016558D01*
X015228Y016838D01*
X015048Y016838D02*
X014768Y016838D01*
X014768Y016628D01*
X014908Y016698D01*
X014978Y016698D01*
X015048Y016628D01*
X015048Y016488D01*
X014978Y016418D01*
X014838Y016418D01*
X014768Y016488D01*
X016680Y016430D02*
X016680Y016930D01*
X017680Y016930D02*
X017680Y016430D01*
X018680Y016430D02*
X018680Y016930D01*
X019680Y016930D02*
X019680Y016430D01*
X020680Y016430D02*
X020680Y016930D01*
D13*
X022480Y017180D02*
X022480Y020080D01*
X022475Y020139D01*
X022466Y020198D01*
X022454Y020257D01*
X022437Y020314D01*
X022418Y020371D01*
X022395Y020426D01*
X022368Y020480D01*
X022338Y020531D01*
X022305Y020581D01*
X022269Y020629D01*
X022230Y020674D01*
X022188Y020717D01*
X022144Y020757D01*
X022097Y020794D01*
X022048Y020828D01*
X021997Y020859D01*
X021944Y020886D01*
X021889Y020911D01*
X021833Y020931D01*
X021776Y020949D01*
X021718Y020962D01*
X021659Y020972D01*
X021599Y020978D01*
X021540Y020981D01*
X021480Y020980D01*
X001380Y020980D01*
X001319Y020979D01*
X001258Y020975D01*
X001197Y020967D01*
X001137Y020955D01*
X001078Y020940D01*
X001019Y020920D01*
X000963Y020898D01*
X000907Y020871D01*
X000854Y020841D01*
X000802Y020808D01*
X000753Y020772D01*
X000706Y020733D01*
X000662Y020690D01*
X000620Y020646D01*
X000581Y020598D01*
X000545Y020548D01*
X000513Y020496D01*
X000484Y020443D01*
X000458Y020387D01*
X000436Y020330D01*
X000417Y020272D01*
X000402Y020212D01*
X000391Y020152D01*
X000384Y020091D01*
X000380Y020030D01*
X000380Y001380D01*
X000385Y001317D01*
X000394Y001254D01*
X000406Y001192D01*
X000423Y001130D01*
X000443Y001070D01*
X000466Y001011D01*
X000493Y000954D01*
X000524Y000898D01*
X000557Y000844D01*
X000594Y000792D01*
X000634Y000743D01*
X000677Y000696D01*
X000723Y000652D01*
X000771Y000611D01*
X000822Y000573D01*
X000875Y000538D01*
X000930Y000506D01*
X000986Y000477D01*
X001045Y000452D01*
X001104Y000431D01*
X001165Y000413D01*
X001227Y000399D01*
X001290Y000388D01*
X001353Y000382D01*
X001417Y000379D01*
X001480Y000380D01*
X021580Y000380D01*
X021639Y000382D01*
X021697Y000388D01*
X021756Y000397D01*
X021813Y000411D01*
X021869Y000428D01*
X021924Y000449D01*
X021978Y000473D01*
X022030Y000501D01*
X022080Y000532D01*
X022128Y000566D01*
X022173Y000603D01*
X022216Y000644D01*
X022257Y000687D01*
X022294Y000732D01*
X022328Y000780D01*
X022359Y000830D01*
X022387Y000882D01*
X022411Y000936D01*
X022432Y000991D01*
X022449Y001047D01*
X022463Y001104D01*
X022472Y001163D01*
X022478Y001221D01*
X022480Y001280D01*
X023480Y002280D01*
X023480Y015080D01*
X022480Y016080D01*
X011243Y011118D02*
X011243Y010930D01*
X011055Y010930D01*
X011243Y010930D02*
X010805Y011368D01*
X010368Y010930D01*
X010555Y010930D01*
X010368Y010930D02*
X010368Y011118D01*
D14*
X022699Y011541D02*
X022785Y011541D01*
X022955Y011541D02*
X023295Y011541D01*
X023295Y011456D02*
X023295Y011626D01*
X023210Y011824D02*
X023040Y011824D01*
X022955Y011909D01*
X022955Y012165D01*
X023040Y012377D02*
X022955Y012462D01*
X022955Y012717D01*
X023125Y012632D02*
X023125Y012462D01*
X023040Y012377D01*
X023295Y012377D02*
X023295Y012632D01*
X023210Y012717D01*
X023125Y012632D01*
X023210Y012929D02*
X023210Y013014D01*
X023295Y013014D01*
X023295Y012929D01*
X023210Y012929D01*
X023210Y013205D02*
X023040Y013205D01*
X022955Y013291D01*
X022955Y013546D01*
X023040Y013758D02*
X023210Y013758D01*
X023295Y013843D01*
X023295Y014013D01*
X023210Y014098D01*
X023040Y014098D01*
X022955Y014013D01*
X022955Y013843D01*
X023040Y013758D01*
X023295Y013546D02*
X023295Y013291D01*
X023210Y013205D01*
X023295Y012165D02*
X023295Y011909D01*
X023210Y011824D01*
X022955Y011541D02*
X022955Y011456D01*
X023040Y011244D02*
X023295Y011244D01*
X023040Y011244D02*
X022955Y011159D01*
X022955Y010903D01*
X023295Y010903D01*
X023210Y010691D02*
X023040Y010691D01*
X022955Y010606D01*
X022955Y010436D01*
X023040Y010351D01*
X023210Y010351D01*
X023295Y010436D01*
X023295Y010606D01*
X023210Y010691D01*
X022955Y010146D02*
X022955Y010061D01*
X023125Y009891D01*
X023295Y009891D02*
X022955Y009891D01*
X022955Y009692D02*
X022955Y009522D01*
X022870Y009607D02*
X023210Y009607D01*
X023295Y009692D01*
X023125Y009310D02*
X023125Y008970D01*
X023210Y008970D02*
X023040Y008970D01*
X022955Y009055D01*
X022955Y009225D01*
X023040Y009310D01*
X023125Y009310D01*
X023295Y009225D02*
X023295Y009055D01*
X023210Y008970D01*
X023125Y008758D02*
X023125Y008417D01*
X023210Y008417D02*
X023040Y008417D01*
X022955Y008502D01*
X022955Y008673D01*
X023040Y008758D01*
X023125Y008758D01*
X023295Y008673D02*
X023295Y008502D01*
X023210Y008417D01*
X022955Y008212D02*
X022955Y008127D01*
X023125Y007957D01*
X023295Y007957D02*
X022955Y007957D01*
X023040Y007759D02*
X023040Y007589D01*
X022870Y007674D02*
X022785Y007759D01*
X022870Y007674D02*
X023295Y007674D01*
X023295Y007397D02*
X023295Y007312D01*
X023210Y007312D01*
X023210Y007397D01*
X023295Y007397D01*
X023210Y007100D02*
X022955Y007100D01*
X023210Y007100D02*
X023295Y007015D01*
X023210Y006930D01*
X023295Y006845D01*
X023210Y006760D01*
X022955Y006760D01*
X022955Y006548D02*
X023210Y006548D01*
X023295Y006463D01*
X023210Y006378D01*
X023295Y006293D01*
X023210Y006207D01*
X022955Y006207D01*
X022955Y005995D02*
X023210Y005995D01*
X023295Y005910D01*
X023210Y005825D01*
X023295Y005740D01*
X023210Y005655D01*
X022955Y005655D01*
X022955Y014310D02*
X022955Y014395D01*
X023040Y014481D01*
X022955Y014566D01*
X023040Y014651D01*
X023295Y014651D01*
X023295Y014481D02*
X023040Y014481D01*
X022955Y014310D02*
X023295Y014310D01*
D15*
X015715Y007505D02*
X015715Y007205D01*
X015515Y007505D01*
X015515Y007205D01*
X015400Y007205D02*
X015300Y007205D01*
X015350Y007205D02*
X015350Y007505D01*
X015300Y007505D02*
X015400Y007505D01*
X015178Y007505D02*
X015178Y007305D01*
X015078Y007205D01*
X014978Y007305D01*
X014978Y007505D01*
X014537Y007405D02*
X014487Y007405D01*
X014387Y007305D01*
X014387Y007205D02*
X014387Y007405D01*
X014265Y007355D02*
X014265Y007255D01*
X014215Y007205D01*
X014114Y007205D01*
X014064Y007255D01*
X014064Y007355D01*
X014114Y007405D01*
X014215Y007405D01*
X014265Y007355D01*
X013950Y007405D02*
X013850Y007405D01*
X013900Y007455D02*
X013900Y007255D01*
X013950Y007205D01*
X013727Y007255D02*
X013727Y007355D01*
X013677Y007405D01*
X013577Y007405D01*
X013527Y007355D01*
X013527Y007255D01*
X013577Y007205D01*
X013677Y007205D01*
X013727Y007255D01*
X013405Y007205D02*
X013405Y007505D01*
X013305Y007405D01*
X013205Y007505D01*
X013205Y007205D01*
X013278Y008705D02*
X013188Y008795D01*
X013233Y008795D02*
X013098Y008795D01*
X013098Y008705D02*
X013098Y008975D01*
X013233Y008975D01*
X013278Y008930D01*
X013278Y008840D01*
X013233Y008795D01*
X013393Y008840D02*
X013573Y008840D01*
X013573Y008885D02*
X013573Y008705D01*
X013573Y008885D02*
X013483Y008975D01*
X013393Y008885D01*
X013393Y008705D01*
X013777Y008705D02*
X013777Y008975D01*
X013687Y008975D02*
X013867Y008975D01*
X013982Y008975D02*
X014072Y008975D01*
X014027Y008975D02*
X014027Y008705D01*
X013982Y008705D02*
X014072Y008705D01*
X014178Y008750D02*
X014178Y008930D01*
X014223Y008975D01*
X014314Y008975D01*
X014359Y008930D01*
X014359Y008750D01*
X014314Y008705D01*
X014223Y008705D01*
X014178Y008750D01*
X014473Y008705D02*
X014473Y008975D01*
X014653Y008705D01*
X014653Y008975D01*
X013434Y009268D02*
X013434Y009448D01*
X013344Y009538D01*
X013254Y009448D01*
X013254Y009268D01*
X013140Y009268D02*
X012959Y009268D01*
X013140Y009448D01*
X013140Y009493D01*
X013095Y009538D01*
X013005Y009538D01*
X012959Y009493D01*
X012857Y009313D02*
X012857Y009268D01*
X012812Y009268D01*
X012812Y009313D01*
X012857Y009313D01*
X012698Y009268D02*
X012518Y009268D01*
X012608Y009268D02*
X012608Y009538D01*
X012518Y009448D01*
X012554Y008975D02*
X012509Y008930D01*
X012509Y008750D01*
X012554Y008705D01*
X012644Y008705D01*
X012689Y008750D01*
X012689Y008840D01*
X012599Y008840D01*
X012689Y008930D02*
X012644Y008975D01*
X012554Y008975D01*
X012402Y008975D02*
X012312Y008975D01*
X012357Y008975D02*
X012357Y008705D01*
X012312Y008705D02*
X012402Y008705D01*
X012108Y008840D02*
X012018Y008840D01*
X012018Y008705D02*
X012018Y008975D01*
X012198Y008975D01*
X011903Y008975D02*
X011903Y008705D01*
X011723Y008975D01*
X011723Y008705D01*
X011608Y008750D02*
X011608Y008930D01*
X011563Y008975D01*
X011473Y008975D01*
X011428Y008930D01*
X011428Y008750D01*
X011473Y008705D01*
X011563Y008705D01*
X011608Y008750D01*
X011314Y008750D02*
X011269Y008705D01*
X011179Y008705D01*
X011134Y008750D01*
X011134Y008930D01*
X011179Y008975D01*
X011269Y008975D01*
X011314Y008930D01*
X010725Y008975D02*
X010544Y008975D01*
X010634Y008975D02*
X010634Y008705D01*
X010438Y008705D02*
X010348Y008705D01*
X010393Y008705D02*
X010393Y008975D01*
X010348Y008975D02*
X010438Y008975D01*
X010233Y008975D02*
X010233Y008705D01*
X010053Y008705D02*
X010053Y008975D01*
X010143Y008885D01*
X010233Y008975D01*
X009947Y008975D02*
X009857Y008975D01*
X009902Y008975D02*
X009902Y008705D01*
X009857Y008705D02*
X009947Y008705D01*
X009742Y008705D02*
X009562Y008705D01*
X009562Y008975D01*
X009153Y008975D02*
X008973Y008975D01*
X009063Y008975D02*
X009063Y008705D01*
X008858Y008705D02*
X008858Y008975D01*
X008678Y008975D02*
X008678Y008705D01*
X008564Y008705D02*
X008384Y008705D01*
X008384Y008975D01*
X008564Y008975D01*
X008678Y008975D02*
X008858Y008705D01*
X008474Y008840D02*
X008384Y008840D01*
X008269Y008840D02*
X008224Y008795D01*
X008089Y008795D01*
X008089Y008705D02*
X008089Y008975D01*
X008224Y008975D01*
X008269Y008930D01*
X008269Y008840D01*
X008179Y008795D02*
X008269Y008705D01*
X007974Y008705D02*
X007884Y008795D01*
X007929Y008795D02*
X007794Y008795D01*
X007794Y008705D02*
X007794Y008975D01*
X007929Y008975D01*
X007974Y008930D01*
X007974Y008840D01*
X007929Y008795D01*
X007680Y008750D02*
X007680Y008975D01*
X007500Y008975D02*
X007500Y008750D01*
X007545Y008705D01*
X007635Y008705D01*
X007680Y008750D01*
X007385Y008750D02*
X007340Y008705D01*
X007250Y008705D01*
X007205Y008750D01*
X007205Y008930D01*
X007250Y008975D01*
X007340Y008975D01*
X007385Y008930D01*
X008268Y009268D02*
X008448Y009268D01*
X008358Y009268D02*
X008358Y009538D01*
X008268Y009448D01*
X008562Y009313D02*
X008607Y009313D01*
X008607Y009268D01*
X008562Y009268D01*
X008562Y009313D01*
X008709Y009268D02*
X008890Y009448D01*
X008890Y009493D01*
X008845Y009538D01*
X008755Y009538D01*
X008709Y009493D01*
X008709Y009268D02*
X008890Y009268D01*
X009004Y009268D02*
X009004Y009448D01*
X009094Y009538D01*
X009184Y009448D01*
X009184Y009268D01*
X009184Y009403D02*
X009004Y009403D01*
X010580Y010518D02*
X010760Y010518D01*
X010670Y010518D02*
X010670Y010788D01*
X010580Y010698D01*
X010875Y010698D02*
X010965Y010788D01*
X011055Y010698D01*
X011055Y010518D01*
X011055Y010653D02*
X010875Y010653D01*
X010875Y010698D02*
X010875Y010518D01*
X010876Y011518D02*
X010696Y011788D01*
X010590Y011788D02*
X010500Y011788D01*
X010545Y011788D02*
X010545Y011518D01*
X010500Y011518D02*
X010590Y011518D01*
X010696Y011518D02*
X010876Y011788D01*
X010991Y011788D02*
X010991Y011518D01*
X011171Y011518D01*
X011285Y011518D02*
X011421Y011518D01*
X011466Y011563D01*
X011466Y011743D01*
X011421Y011788D01*
X011285Y011788D01*
X011285Y011518D01*
X011081Y011653D02*
X010991Y011653D01*
X010991Y011788D02*
X011171Y011788D01*
X010385Y011788D02*
X010205Y011788D01*
X010205Y011518D01*
X010205Y011653D02*
X010295Y011653D01*
X011205Y012705D02*
X011205Y012975D01*
X011340Y012975D01*
X011385Y012930D01*
X011385Y012840D01*
X011340Y012795D01*
X011205Y012795D01*
X011205Y013080D02*
X011205Y013350D01*
X011340Y013350D01*
X011385Y013305D01*
X011385Y013215D01*
X011340Y013170D01*
X011205Y013170D01*
X011295Y013170D02*
X011385Y013080D01*
X011500Y013080D02*
X011500Y013350D01*
X011680Y013350D01*
X011794Y013350D02*
X011794Y013080D01*
X011794Y012975D02*
X011884Y012885D01*
X011974Y012975D01*
X011974Y012705D01*
X011794Y012705D02*
X011794Y012975D01*
X011680Y012975D02*
X011680Y012705D01*
X011590Y012795D01*
X011500Y012705D01*
X011500Y012975D01*
X011500Y013080D02*
X011680Y013080D01*
X011590Y013215D02*
X011500Y013215D01*
X011794Y013215D02*
X011884Y013215D01*
X011794Y013350D02*
X011974Y013350D01*
X011974Y013830D02*
X011974Y014100D01*
X011884Y014010D01*
X011794Y014100D01*
X011794Y013830D01*
X011680Y013830D02*
X011680Y014100D01*
X011500Y014100D02*
X011500Y013830D01*
X011590Y013920D01*
X011680Y013830D01*
X011385Y013965D02*
X011340Y013920D01*
X011205Y013920D01*
X011205Y013830D02*
X011205Y014100D01*
X011340Y014100D01*
X011385Y014055D01*
X011385Y013965D01*
X011330Y014830D02*
X011465Y014830D01*
X011510Y014875D01*
X011510Y014920D01*
X011465Y014965D01*
X011330Y014965D01*
X011330Y014830D02*
X011330Y015100D01*
X011465Y015100D01*
X011510Y015055D01*
X011510Y015010D01*
X011465Y014965D01*
X011625Y015055D02*
X011670Y015100D01*
X011760Y015100D01*
X011805Y015055D01*
X011805Y015010D01*
X011625Y014830D01*
X011805Y014830D01*
X011805Y015830D02*
X011625Y015830D01*
X011715Y015830D02*
X011715Y016100D01*
X011625Y016010D01*
X011510Y016010D02*
X011465Y015965D01*
X011330Y015965D01*
X011330Y015830D02*
X011465Y015830D01*
X011510Y015875D01*
X011510Y015920D01*
X011465Y015965D01*
X011510Y016010D02*
X011510Y016055D01*
X011465Y016100D01*
X011330Y016100D01*
X011330Y015830D01*
X012500Y016955D02*
X012590Y016955D01*
X012635Y017000D01*
X012750Y016955D02*
X012750Y017225D01*
X012635Y017180D02*
X012590Y017225D01*
X012500Y017225D01*
X012455Y017180D01*
X012455Y017000D01*
X012500Y016955D01*
X012750Y017090D02*
X012930Y017090D01*
X012930Y017225D02*
X012930Y016955D01*
X013339Y016955D02*
X013339Y017225D01*
X013474Y017225D01*
X013519Y017180D01*
X013519Y017135D01*
X013474Y017090D01*
X013339Y017090D01*
X013339Y016955D02*
X013474Y016955D01*
X013519Y017000D01*
X013519Y017045D01*
X013474Y017090D01*
X011429Y019205D02*
X011339Y019205D01*
X011294Y019250D01*
X011474Y019430D01*
X011474Y019250D01*
X011429Y019205D01*
X011294Y019250D02*
X011294Y019430D01*
X011339Y019475D01*
X011429Y019475D01*
X011474Y019430D01*
X011180Y019205D02*
X011000Y019205D01*
X011090Y019205D02*
X011090Y019475D01*
X011000Y019385D01*
X010885Y019430D02*
X010885Y019250D01*
X010840Y019205D01*
X010705Y019205D01*
X010705Y019475D01*
X010840Y019475D01*
X010885Y019430D01*
X010384Y019125D02*
X010384Y018855D01*
X010294Y018855D02*
X010474Y018855D01*
X010294Y019035D02*
X010384Y019125D01*
X010090Y019125D02*
X010090Y018855D01*
X010000Y018855D02*
X010180Y018855D01*
X010000Y019035D02*
X010090Y019125D01*
X009885Y019080D02*
X009885Y018900D01*
X009840Y018855D01*
X009705Y018855D01*
X009705Y019125D01*
X009840Y019125D01*
X009885Y019080D01*
X009474Y019205D02*
X009294Y019205D01*
X009474Y019385D01*
X009474Y019430D01*
X009429Y019475D01*
X009339Y019475D01*
X009294Y019430D01*
X009090Y019475D02*
X009090Y019205D01*
X009000Y019205D02*
X009180Y019205D01*
X009000Y019385D02*
X009090Y019475D01*
X008885Y019430D02*
X008885Y019250D01*
X008840Y019205D01*
X008705Y019205D01*
X008705Y019475D01*
X008840Y019475D01*
X008885Y019430D01*
X008474Y019080D02*
X008474Y019035D01*
X008429Y018990D01*
X008474Y018945D01*
X008474Y018900D01*
X008429Y018855D01*
X008339Y018855D01*
X008294Y018900D01*
X008180Y018855D02*
X008000Y018855D01*
X008090Y018855D02*
X008090Y019125D01*
X008000Y019035D01*
X007885Y019080D02*
X007885Y018900D01*
X007840Y018855D01*
X007705Y018855D01*
X007705Y019125D01*
X007840Y019125D01*
X007885Y019080D01*
X008294Y019080D02*
X008339Y019125D01*
X008429Y019125D01*
X008474Y019080D01*
X008429Y018990D02*
X008384Y018990D01*
X007474Y019250D02*
X007474Y019430D01*
X007429Y019475D01*
X007294Y019475D01*
X007294Y019205D01*
X007429Y019205D01*
X007474Y019250D01*
X007180Y019205D02*
X007180Y019475D01*
X007000Y019475D02*
X007000Y019205D01*
X006885Y019250D02*
X006885Y019340D01*
X006795Y019340D01*
X006705Y019430D02*
X006705Y019250D01*
X006750Y019205D01*
X006840Y019205D01*
X006885Y019250D01*
X006885Y019430D02*
X006840Y019475D01*
X006750Y019475D01*
X006705Y019430D01*
X007000Y019475D02*
X007180Y019205D01*
X006474Y019125D02*
X006294Y019125D01*
X006294Y018855D01*
X006180Y018855D02*
X006000Y018855D01*
X006000Y019125D01*
X006180Y019125D01*
X006185Y019255D02*
X006185Y019435D01*
X006095Y019525D01*
X006005Y019435D01*
X006005Y019255D01*
X006005Y019390D02*
X006185Y019390D01*
X005885Y019080D02*
X005885Y018990D01*
X005840Y018945D01*
X005705Y018945D01*
X005705Y018855D02*
X005705Y019125D01*
X005840Y019125D01*
X005885Y019080D01*
X006000Y018990D02*
X006090Y018990D01*
X006294Y018990D02*
X006384Y018990D01*
X005885Y018855D02*
X005795Y018945D01*
X005549Y020580D02*
X005466Y020663D01*
X005508Y020663D02*
X005382Y020663D01*
X005382Y020580D02*
X005382Y020830D01*
X005508Y020830D01*
X005549Y020789D01*
X005549Y020705D01*
X005508Y020663D01*
X005273Y020580D02*
X005273Y020830D01*
X005106Y020830D02*
X005106Y020580D01*
X005190Y020663D01*
X005273Y020580D01*
X004997Y020705D02*
X004955Y020663D01*
X004830Y020663D01*
X004830Y020580D02*
X004830Y020830D01*
X004955Y020830D01*
X004997Y020789D01*
X004997Y020705D01*
X003102Y020830D02*
X002935Y020830D01*
X003018Y020830D02*
X003018Y020580D01*
X002826Y020580D02*
X002659Y020580D01*
X002659Y020830D01*
X002826Y020830D01*
X002742Y020705D02*
X002659Y020705D01*
X002549Y020663D02*
X002549Y020622D01*
X002508Y020580D01*
X002424Y020580D01*
X002382Y020622D01*
X002424Y020705D02*
X002382Y020747D01*
X002382Y020789D01*
X002424Y020830D01*
X002508Y020830D01*
X002549Y020789D01*
X002508Y020705D02*
X002549Y020663D01*
X002508Y020705D02*
X002424Y020705D01*
X002273Y020580D02*
X002106Y020580D01*
X002106Y020830D01*
X002273Y020830D01*
X002190Y020705D02*
X002106Y020705D01*
X001997Y020705D02*
X001955Y020663D01*
X001830Y020663D01*
X001830Y020580D02*
X001830Y020830D01*
X001955Y020830D01*
X001997Y020789D01*
X001997Y020705D01*
X001913Y020663D02*
X001997Y020580D01*
X007080Y016010D02*
X007170Y016100D01*
X007260Y016010D01*
X007260Y015830D01*
X007375Y015830D02*
X007555Y015830D01*
X007465Y015830D02*
X007465Y016100D01*
X007375Y016010D01*
X007260Y015965D02*
X007080Y015965D01*
X007080Y016010D02*
X007080Y015830D01*
X007170Y015100D02*
X007080Y015010D01*
X007080Y014830D01*
X007080Y014965D02*
X007260Y014965D01*
X007260Y015010D02*
X007260Y014830D01*
X007375Y014830D02*
X007555Y015010D01*
X007555Y015055D01*
X007510Y015100D01*
X007420Y015100D01*
X007375Y015055D01*
X007260Y015010D02*
X007170Y015100D01*
X007375Y014830D02*
X007555Y014830D01*
X007544Y014100D02*
X007634Y014010D01*
X007724Y014100D01*
X007724Y013830D01*
X007544Y013830D02*
X007544Y014100D01*
X007430Y014100D02*
X007430Y013830D01*
X007340Y013920D01*
X007250Y013830D01*
X007250Y014100D01*
X007135Y014055D02*
X007135Y013965D01*
X007090Y013920D01*
X006955Y013920D01*
X006955Y013830D02*
X006955Y014100D01*
X007090Y014100D01*
X007135Y014055D01*
X007090Y013350D02*
X007135Y013305D01*
X007135Y013215D01*
X007090Y013170D01*
X006955Y013170D01*
X006955Y013080D02*
X006955Y013350D01*
X007090Y013350D01*
X007250Y013350D02*
X007250Y013080D01*
X007430Y013080D01*
X007430Y012975D02*
X007430Y012705D01*
X007340Y012795D01*
X007250Y012705D01*
X007250Y012975D01*
X007135Y012930D02*
X007135Y012840D01*
X007090Y012795D01*
X006955Y012795D01*
X006955Y012705D02*
X006955Y012975D01*
X007090Y012975D01*
X007135Y012930D01*
X007135Y013080D02*
X007045Y013170D01*
X007250Y013215D02*
X007340Y013215D01*
X007430Y013350D02*
X007250Y013350D01*
X007544Y013350D02*
X007544Y013080D01*
X007544Y012975D02*
X007634Y012885D01*
X007724Y012975D01*
X007724Y012705D01*
X007544Y012705D02*
X007544Y012975D01*
X007544Y013215D02*
X007634Y013215D01*
X007544Y013350D02*
X007724Y013350D01*
X007224Y011725D02*
X007134Y011635D01*
X007044Y011725D01*
X007044Y011455D01*
X006930Y011455D02*
X006930Y011725D01*
X006750Y011725D02*
X006750Y011455D01*
X006840Y011545D01*
X006930Y011455D01*
X007224Y011455D02*
X007224Y011725D01*
X006635Y011680D02*
X006635Y011590D01*
X006590Y011545D01*
X006455Y011545D01*
X006455Y011455D02*
X006455Y011725D01*
X006590Y011725D01*
X006635Y011680D01*
X006465Y010725D02*
X006375Y010725D01*
X006330Y010680D01*
X006330Y010500D01*
X006510Y010680D01*
X006510Y010500D01*
X006465Y010455D01*
X006375Y010455D01*
X006330Y010500D01*
X006510Y010680D02*
X006465Y010725D01*
X006625Y010500D02*
X006670Y010500D01*
X006670Y010455D01*
X006625Y010455D01*
X006625Y010500D01*
X006772Y010500D02*
X006817Y010455D01*
X006907Y010455D01*
X006952Y010500D01*
X006952Y010545D01*
X006907Y010590D01*
X006772Y010590D01*
X006772Y010500D01*
X006772Y010590D02*
X006862Y010680D01*
X006952Y010725D01*
X007067Y010635D02*
X007157Y010725D01*
X007247Y010635D01*
X007247Y010455D01*
X007247Y010590D02*
X007067Y010590D01*
X007067Y010635D02*
X007067Y010455D01*
X005661Y009905D02*
X005461Y009905D01*
X005461Y009805D02*
X005661Y009805D01*
X005561Y009505D02*
X005461Y009505D01*
X005511Y009505D02*
X005511Y009205D01*
X005461Y009205D02*
X005561Y009205D01*
X005017Y009205D02*
X004816Y009405D01*
X004694Y009355D02*
X004694Y009205D01*
X004544Y009205D01*
X004494Y009255D01*
X004544Y009305D01*
X004694Y009305D01*
X004694Y009355D02*
X004644Y009405D01*
X004544Y009405D01*
X004372Y009355D02*
X004372Y009205D01*
X004272Y009205D02*
X004272Y009355D01*
X004322Y009405D01*
X004372Y009355D01*
X004272Y009355D02*
X004222Y009405D01*
X004172Y009405D01*
X004172Y009205D01*
X003727Y009205D02*
X003727Y009405D01*
X003627Y009505D01*
X003527Y009405D01*
X003527Y009205D01*
X003405Y009205D02*
X003205Y009205D01*
X003405Y009405D01*
X003405Y009455D01*
X003355Y009505D01*
X003255Y009505D01*
X003205Y009455D01*
X003205Y009705D02*
X003405Y009905D01*
X003405Y009955D01*
X003355Y010005D01*
X003255Y010005D01*
X003205Y009955D01*
X003205Y009705D02*
X003405Y009705D01*
X003527Y009755D02*
X003577Y009705D01*
X003677Y009705D01*
X003727Y009755D01*
X003727Y009855D01*
X003677Y009905D01*
X003627Y009905D01*
X003527Y009855D01*
X003527Y010005D01*
X003727Y010005D01*
X003850Y010005D02*
X003850Y009855D01*
X003950Y009905D01*
X004000Y009905D01*
X004050Y009855D01*
X004050Y009755D01*
X004000Y009705D01*
X003900Y009705D01*
X003850Y009755D01*
X003850Y010005D02*
X004050Y010005D01*
X004494Y010005D02*
X004494Y009705D01*
X004494Y009805D02*
X004644Y009805D01*
X004694Y009855D01*
X004694Y009955D01*
X004644Y010005D01*
X004494Y010005D01*
X004816Y010005D02*
X004816Y009705D01*
X004916Y009805D01*
X005017Y009705D01*
X005017Y010005D01*
X005139Y010005D02*
X005239Y009905D01*
X005339Y010005D01*
X005339Y009705D01*
X005139Y009705D02*
X005139Y010005D01*
X005017Y009405D02*
X004816Y009205D01*
X003727Y009355D02*
X003527Y009355D01*
X001255Y007805D02*
X001155Y007705D01*
X000955Y007705D01*
X000955Y007583D02*
X000955Y007383D01*
X000955Y007483D02*
X001255Y007483D01*
X001155Y007583D01*
X001105Y007705D02*
X001105Y007905D01*
X001155Y007905D02*
X001255Y007805D01*
X001155Y007905D02*
X000955Y007905D01*
X000818Y007792D02*
X000818Y007692D01*
X000768Y007642D01*
X000568Y007642D01*
X000518Y007692D01*
X000518Y007792D01*
X000568Y007843D01*
X000768Y007843D01*
X000818Y007792D01*
X000818Y007520D02*
X000568Y007520D01*
X000518Y007470D01*
X000518Y007370D01*
X000568Y007320D01*
X000818Y007320D01*
X000818Y007198D02*
X000818Y006998D01*
X000818Y007098D02*
X000518Y007098D01*
X000518Y006876D02*
X000818Y006876D01*
X000818Y006726D01*
X000768Y006676D01*
X000668Y006676D01*
X000618Y006726D01*
X000618Y006876D01*
X000568Y006553D02*
X000518Y006503D01*
X000518Y006403D01*
X000568Y006353D01*
X000818Y006353D01*
X000818Y006231D02*
X000818Y006031D01*
X000818Y006131D02*
X000518Y006131D01*
X000568Y006553D02*
X000818Y006553D01*
X000955Y005905D02*
X001155Y005905D01*
X001255Y005805D01*
X001155Y005705D01*
X000955Y005705D01*
X000955Y005583D02*
X001155Y005383D01*
X001205Y005383D01*
X001255Y005433D01*
X001255Y005533D01*
X001205Y005583D01*
X001105Y005705D02*
X001105Y005905D01*
X000955Y005583D02*
X000955Y005383D01*
X000818Y005486D02*
X000718Y005587D01*
X000518Y005587D01*
X000668Y005587D02*
X000668Y005386D01*
X000718Y005386D02*
X000518Y005386D01*
X000718Y005386D02*
X000818Y005486D01*
X000955Y003905D02*
X000955Y003755D01*
X001005Y003705D01*
X001055Y003705D01*
X001105Y003755D01*
X001105Y003905D01*
X000955Y003905D02*
X001255Y003905D01*
X001255Y003755D01*
X001205Y003705D01*
X001155Y003705D01*
X001105Y003755D01*
X001155Y003583D02*
X001255Y003483D01*
X000955Y003483D01*
X000955Y003583D02*
X000955Y003383D01*
X000818Y003320D02*
X000568Y003320D01*
X000518Y003370D01*
X000518Y003470D01*
X000568Y003520D01*
X000818Y003520D01*
X000768Y003642D02*
X000568Y003642D01*
X000518Y003692D01*
X000518Y003792D01*
X000568Y003843D01*
X000768Y003843D01*
X000818Y003792D01*
X000818Y003692D01*
X000768Y003642D01*
X000818Y003198D02*
X000818Y002998D01*
X000818Y003098D02*
X000518Y003098D01*
X000518Y002876D02*
X000818Y002876D01*
X000818Y002726D01*
X000768Y002676D01*
X000668Y002676D01*
X000618Y002726D01*
X000618Y002876D01*
X000568Y002553D02*
X000518Y002503D01*
X000518Y002403D01*
X000568Y002353D01*
X000818Y002353D01*
X000818Y002231D02*
X000818Y002031D01*
X000818Y002131D02*
X000518Y002131D01*
X000568Y002553D02*
X000818Y002553D01*
X000955Y001905D02*
X000955Y001755D01*
X001005Y001705D01*
X001055Y001705D01*
X001105Y001755D01*
X001105Y001905D01*
X000955Y001905D02*
X001255Y001905D01*
X001255Y001755D01*
X001205Y001705D01*
X001155Y001705D01*
X001105Y001755D01*
X001205Y001583D02*
X001255Y001533D01*
X001255Y001433D01*
X001205Y001383D01*
X001155Y001383D01*
X000955Y001583D01*
X000955Y001383D01*
X000818Y001436D02*
X000818Y001587D01*
X000518Y001587D01*
X000518Y001436D01*
X000568Y001386D01*
X000618Y001386D01*
X000668Y001436D01*
X000668Y001587D01*
X000668Y001436D02*
X000718Y001386D01*
X000768Y001386D01*
X000818Y001436D01*
X009305Y001855D02*
X009305Y002125D01*
X009440Y002125D01*
X009485Y002080D01*
X009485Y001990D01*
X009440Y001945D01*
X009305Y001945D01*
X009395Y001945D02*
X009485Y001855D01*
X009600Y001900D02*
X009645Y001855D01*
X009735Y001855D01*
X009780Y001900D01*
X009780Y001945D01*
X009735Y001990D01*
X009645Y001990D01*
X009600Y002035D01*
X009600Y002080D01*
X009645Y002125D01*
X009735Y002125D01*
X009780Y002080D01*
X009894Y002125D02*
X010074Y002125D01*
X009984Y002125D02*
X009984Y001855D01*
X010350Y002205D02*
X010305Y002250D01*
X010350Y002205D02*
X010440Y002205D01*
X010485Y002250D01*
X010485Y002295D01*
X010440Y002340D01*
X010395Y002340D01*
X010440Y002340D02*
X010485Y002385D01*
X010485Y002430D01*
X010440Y002475D01*
X010350Y002475D01*
X010305Y002430D01*
X010600Y002475D02*
X010600Y002295D01*
X010690Y002205D01*
X010780Y002295D01*
X010780Y002475D01*
X010894Y002430D02*
X010939Y002475D01*
X011029Y002475D01*
X011074Y002430D01*
X011074Y002385D01*
X011029Y002340D01*
X011074Y002295D01*
X011074Y002250D01*
X011029Y002205D01*
X010939Y002205D01*
X010894Y002250D01*
X010984Y002340D02*
X011029Y002340D01*
X011455Y002125D02*
X011455Y001990D01*
X011545Y002035D01*
X011590Y002035D01*
X011635Y001990D01*
X011635Y001900D01*
X011590Y001855D01*
X011500Y001855D01*
X011455Y001900D01*
X011455Y002125D02*
X011635Y002125D01*
X011750Y002125D02*
X011750Y001945D01*
X011840Y001855D01*
X011930Y001945D01*
X011930Y002125D01*
X012305Y002250D02*
X012350Y002205D01*
X012440Y002205D01*
X012485Y002250D01*
X012485Y002340D01*
X012395Y002340D01*
X012305Y002430D02*
X012305Y002250D01*
X012305Y002430D02*
X012350Y002475D01*
X012440Y002475D01*
X012485Y002430D01*
X012600Y002475D02*
X012780Y002205D01*
X012780Y002475D01*
X012894Y002475D02*
X012894Y002205D01*
X013029Y002205D01*
X013074Y002250D01*
X013074Y002430D01*
X013029Y002475D01*
X012894Y002475D01*
X012600Y002475D02*
X012600Y002205D01*
X013305Y002080D02*
X013305Y001900D01*
X013350Y001855D01*
X013440Y001855D01*
X013485Y001900D01*
X013485Y001990D01*
X013395Y001990D01*
X013305Y002080D02*
X013350Y002125D01*
X013440Y002125D01*
X013485Y002080D01*
X013600Y002125D02*
X013780Y001855D01*
X013780Y002125D01*
X013894Y002125D02*
X013894Y001855D01*
X014029Y001855D01*
X014074Y001900D01*
X014074Y002080D01*
X014029Y002125D01*
X013894Y002125D01*
X013600Y002125D02*
X013600Y001855D01*
X014355Y002295D02*
X014445Y002205D01*
X014535Y002295D01*
X014535Y002475D01*
X014650Y002475D02*
X014740Y002475D01*
X014695Y002475D02*
X014695Y002205D01*
X014650Y002205D02*
X014740Y002205D01*
X014846Y002205D02*
X014846Y002475D01*
X015026Y002205D01*
X015026Y002475D01*
X014355Y002475D02*
X014355Y002295D01*
X012938Y008705D02*
X012848Y008705D01*
X012803Y008750D01*
X012803Y008975D01*
X012984Y008975D02*
X012984Y008750D01*
X012938Y008705D01*
X013254Y009403D02*
X013434Y009403D01*
X014375Y010455D02*
X014330Y010500D01*
X014510Y010680D01*
X014510Y010500D01*
X014465Y010455D01*
X014375Y010455D01*
X014330Y010500D02*
X014330Y010680D01*
X014375Y010725D01*
X014465Y010725D01*
X014510Y010680D01*
X014625Y010500D02*
X014625Y010455D01*
X014670Y010455D01*
X014670Y010500D01*
X014625Y010500D01*
X014772Y010500D02*
X014817Y010455D01*
X014907Y010455D01*
X014952Y010500D01*
X014952Y010545D01*
X014907Y010590D01*
X014772Y010590D01*
X014772Y010500D01*
X014772Y010590D02*
X014862Y010680D01*
X014952Y010725D01*
X015067Y010635D02*
X015157Y010725D01*
X015247Y010635D01*
X015247Y010455D01*
X015247Y010590D02*
X015067Y010590D01*
X015067Y010635D02*
X015067Y010455D01*
X015044Y011455D02*
X015044Y011725D01*
X015134Y011635D01*
X015224Y011725D01*
X015224Y011455D01*
X014930Y011455D02*
X014930Y011725D01*
X014750Y011725D02*
X014750Y011455D01*
X014840Y011545D01*
X014930Y011455D01*
X014635Y011590D02*
X014590Y011545D01*
X014455Y011545D01*
X014455Y011455D02*
X014455Y011725D01*
X014590Y011725D01*
X014635Y011680D01*
X014635Y011590D01*
X009269Y016955D02*
X009269Y017135D01*
X009179Y017225D01*
X009089Y017135D01*
X009089Y016955D01*
X009089Y017090D02*
X009269Y017090D01*
X008680Y017090D02*
X008500Y017090D01*
X008500Y016955D02*
X008500Y017225D01*
X008385Y017180D02*
X008340Y017225D01*
X008250Y017225D01*
X008205Y017180D01*
X008205Y017000D01*
X008250Y016955D01*
X008340Y016955D01*
X008385Y017000D01*
X008680Y016955D02*
X008680Y017225D01*
D16*
X011765Y018865D02*
X011980Y018865D01*
X012052Y018937D01*
X012052Y019224D01*
X011980Y019295D01*
X011765Y019295D01*
X011765Y018865D01*
X012225Y018937D02*
X012297Y018865D01*
X012441Y018865D01*
X012512Y018937D01*
X012512Y019224D01*
X012441Y019295D01*
X012297Y019295D01*
X012225Y019224D01*
X012225Y019152D01*
X012297Y019080D01*
X012512Y019080D01*
X012765Y019065D02*
X012980Y019065D01*
X013052Y019137D01*
X013052Y019424D01*
X012980Y019495D01*
X012765Y019495D01*
X012765Y019065D01*
X013225Y019137D02*
X013297Y019065D01*
X013441Y019065D01*
X013512Y019137D01*
X013512Y019208D01*
X013441Y019280D01*
X013297Y019280D01*
X013225Y019352D01*
X013225Y019424D01*
X013297Y019495D01*
X013441Y019495D01*
X013512Y019424D01*
X013512Y019352D01*
X013441Y019280D01*
X013297Y019280D02*
X013225Y019208D01*
X013225Y019137D01*
X014315Y019295D02*
X014315Y018865D01*
X014530Y018865D01*
X014602Y018937D01*
X014602Y019224D01*
X014530Y019295D01*
X014315Y019295D01*
X014775Y019295D02*
X015062Y019295D01*
X015062Y019224D01*
X014775Y018937D01*
X014775Y018865D01*
X015315Y019065D02*
X015315Y019495D01*
X015530Y019495D01*
X015602Y019424D01*
X015602Y019137D01*
X015530Y019065D01*
X015315Y019065D01*
X015775Y019137D02*
X015847Y019065D01*
X015991Y019065D01*
X016062Y019137D01*
X016062Y019208D01*
X015991Y019280D01*
X015775Y019280D01*
X015775Y019137D01*
X015775Y019280D02*
X015919Y019424D01*
X016062Y019495D01*
X016315Y019295D02*
X016530Y019295D01*
X016602Y019224D01*
X016602Y018937D01*
X016530Y018865D01*
X016315Y018865D01*
X016315Y019295D01*
X016775Y019295D02*
X016775Y019080D01*
X016919Y019152D01*
X016991Y019152D01*
X017062Y019080D01*
X017062Y018937D01*
X016991Y018865D01*
X016847Y018865D01*
X016775Y018937D01*
X016775Y019295D02*
X017062Y019295D01*
X017315Y019495D02*
X017530Y019495D01*
X017602Y019424D01*
X017602Y019137D01*
X017530Y019065D01*
X017315Y019065D01*
X017315Y019495D01*
X017775Y019280D02*
X018062Y019280D01*
X017991Y019065D02*
X017991Y019495D01*
X017775Y019280D01*
X018315Y019295D02*
X018315Y018865D01*
X018530Y018865D01*
X018602Y018937D01*
X018602Y019224D01*
X018530Y019295D01*
X018315Y019295D01*
X018775Y019224D02*
X018847Y019295D01*
X018991Y019295D01*
X019062Y019224D01*
X019062Y019152D01*
X018991Y019080D01*
X019062Y019008D01*
X019062Y018937D01*
X018991Y018865D01*
X018847Y018865D01*
X018775Y018937D01*
X018919Y019080D02*
X018991Y019080D01*
X019315Y019065D02*
X019530Y019065D01*
X019602Y019137D01*
X019602Y019424D01*
X019530Y019495D01*
X019315Y019495D01*
X019315Y019065D01*
X019775Y019065D02*
X020062Y019352D01*
X020062Y019424D01*
X019991Y019495D01*
X019847Y019495D01*
X019775Y019424D01*
X019775Y019065D02*
X020062Y019065D01*
X020315Y018865D02*
X020530Y018865D01*
X020602Y018937D01*
X020602Y019224D01*
X020530Y019295D01*
X020315Y019295D01*
X020315Y018865D01*
X020775Y018865D02*
X021062Y018865D01*
X020919Y018865D02*
X020919Y019295D01*
X020775Y019152D01*
X021315Y019065D02*
X021315Y019495D01*
X021530Y019495D01*
X021602Y019424D01*
X021602Y019137D01*
X021530Y019065D01*
X021315Y019065D01*
X021775Y019137D02*
X021775Y019424D01*
X021847Y019495D01*
X021991Y019495D01*
X022062Y019424D01*
X021775Y019137D01*
X021847Y019065D01*
X021991Y019065D01*
X022062Y019137D01*
X022062Y019424D01*
X022062Y002495D02*
X021775Y002495D01*
X021775Y002280D01*
X021919Y002352D01*
X021991Y002352D01*
X022062Y002280D01*
X022062Y002137D01*
X021991Y002065D01*
X021847Y002065D01*
X021775Y002137D01*
X021602Y002065D02*
X021602Y002352D01*
X021458Y002495D01*
X021315Y002352D01*
X021315Y002065D01*
X021315Y002280D02*
X021602Y002280D01*
X021062Y002080D02*
X020775Y002080D01*
X020991Y002295D01*
X020991Y001865D01*
X020602Y001865D02*
X020602Y002152D01*
X020458Y002295D01*
X020315Y002152D01*
X020315Y001865D01*
X020315Y002080D02*
X020602Y002080D01*
X020062Y002137D02*
X019991Y002065D01*
X019847Y002065D01*
X019775Y002137D01*
X019602Y002065D02*
X019602Y002352D01*
X019458Y002495D01*
X019315Y002352D01*
X019315Y002065D01*
X019315Y002280D02*
X019602Y002280D01*
X019775Y002424D02*
X019847Y002495D01*
X019991Y002495D01*
X020062Y002424D01*
X020062Y002352D01*
X019991Y002280D01*
X020062Y002208D01*
X020062Y002137D01*
X019991Y002280D02*
X019919Y002280D01*
X019062Y002224D02*
X018991Y002295D01*
X018847Y002295D01*
X018775Y002224D01*
X018602Y002152D02*
X018602Y001865D01*
X018775Y001865D02*
X019062Y002152D01*
X019062Y002224D01*
X019062Y001865D02*
X018775Y001865D01*
X018602Y002080D02*
X018315Y002080D01*
X018315Y002152D02*
X018315Y001865D01*
X018062Y002065D02*
X017775Y002065D01*
X017919Y002065D02*
X017919Y002495D01*
X017775Y002352D01*
X017602Y002352D02*
X017602Y002065D01*
X017602Y002280D02*
X017315Y002280D01*
X017315Y002352D02*
X017458Y002495D01*
X017602Y002352D01*
X017315Y002352D02*
X017315Y002065D01*
X017062Y001937D02*
X016991Y001865D01*
X016847Y001865D01*
X016775Y001937D01*
X017062Y002224D01*
X017062Y001937D01*
X016775Y001937D02*
X016775Y002224D01*
X016847Y002295D01*
X016991Y002295D01*
X017062Y002224D01*
X016602Y002152D02*
X016602Y001865D01*
X016602Y002080D02*
X016315Y002080D01*
X016315Y002152D02*
X016315Y001865D01*
X016315Y002152D02*
X016458Y002295D01*
X016602Y002152D01*
X018315Y002152D02*
X018458Y002295D01*
X018602Y002152D01*
D17*
X014680Y001905D03*
X013680Y002455D03*
X012680Y001905D03*
X011680Y002455D03*
X010680Y001905D03*
X009680Y002455D03*
X009080Y018905D03*
X010080Y019455D03*
X011080Y018905D03*
X008080Y019455D03*
X007080Y018905D03*
D18*
X007080Y019630D03*
X006080Y019630D03*
X006080Y018730D03*
X008080Y018730D03*
X009080Y019630D03*
X010080Y018730D03*
X011080Y019630D03*
X012080Y018730D03*
X013080Y019630D03*
X014680Y018730D03*
X015680Y019630D03*
X016680Y018730D03*
X017680Y019630D03*
X018680Y018730D03*
X019680Y019630D03*
X020680Y018730D03*
X021680Y019630D03*
X021680Y002630D03*
X020680Y001730D03*
X019680Y002630D03*
X018680Y001730D03*
X017680Y002630D03*
X016680Y001730D03*
X014680Y002630D03*
X013680Y001730D03*
X012680Y002630D03*
X011680Y001730D03*
X010680Y002630D03*
X009680Y001730D03*
D19*
X016680Y002530D03*
X017680Y001830D03*
X018680Y002530D03*
X019680Y001830D03*
X020680Y002530D03*
X021680Y001830D03*
X021680Y018830D03*
X020680Y019530D03*
X019680Y018830D03*
X018680Y019530D03*
X017680Y018830D03*
X016680Y019530D03*
X015680Y018830D03*
X014680Y019530D03*
X013080Y018830D03*
X012080Y019530D03*
D20*
X005430Y000680D02*
X001430Y000680D01*
X001430Y004680D01*
X005430Y004680D01*
X005430Y000680D01*
X006793Y003710D02*
X008377Y003710D01*
X008240Y003915D02*
X008242Y003931D01*
X008247Y003946D01*
X008256Y003960D01*
X008268Y003971D01*
X008282Y003979D01*
X008298Y003984D01*
X008314Y003985D01*
X008330Y003982D01*
X008345Y003976D01*
X008358Y003966D01*
X008368Y003953D01*
X008376Y003939D01*
X008380Y003923D01*
X008380Y003907D01*
X008376Y003891D01*
X008368Y003877D01*
X008358Y003864D01*
X008345Y003854D01*
X008330Y003848D01*
X008314Y003845D01*
X008298Y003846D01*
X008282Y003851D01*
X008268Y003859D01*
X008256Y003870D01*
X008247Y003884D01*
X008242Y003899D01*
X008240Y003915D01*
X008377Y005660D02*
X006793Y005660D01*
X005430Y004680D02*
X001430Y004680D01*
X001430Y008680D01*
X005430Y008680D01*
X005430Y004680D01*
X010523Y004068D02*
X010523Y007269D01*
X010523Y007280D02*
X010525Y007303D01*
X010530Y007326D01*
X010539Y007348D01*
X010552Y007368D01*
X010567Y007386D01*
X010585Y007401D01*
X010605Y007414D01*
X010627Y007423D01*
X010650Y007428D01*
X010673Y007430D01*
X011030Y007430D01*
X011032Y007403D01*
X011037Y007376D01*
X011047Y007350D01*
X011059Y007326D01*
X011075Y007304D01*
X011093Y007284D01*
X011115Y007267D01*
X011138Y007252D01*
X011163Y007242D01*
X011189Y007234D01*
X011216Y007230D01*
X011244Y007230D01*
X011271Y007234D01*
X011297Y007242D01*
X011322Y007252D01*
X011345Y007267D01*
X011367Y007284D01*
X011385Y007304D01*
X011401Y007326D01*
X011413Y007350D01*
X011423Y007376D01*
X011428Y007403D01*
X011430Y007430D01*
X011788Y007430D01*
X011811Y007428D01*
X011834Y007423D01*
X011856Y007414D01*
X011876Y007401D01*
X011894Y007386D01*
X011909Y007368D01*
X011922Y007348D01*
X011931Y007326D01*
X011936Y007303D01*
X011938Y007280D01*
X011938Y007269D02*
X011938Y004068D01*
X011938Y004080D02*
X011936Y004057D01*
X011931Y004034D01*
X011922Y004012D01*
X011909Y003992D01*
X011894Y003974D01*
X011876Y003959D01*
X011856Y003946D01*
X011834Y003937D01*
X011811Y003932D01*
X011788Y003930D01*
X010673Y003930D01*
X010650Y003932D01*
X010627Y003937D01*
X010605Y003946D01*
X010585Y003959D01*
X010567Y003974D01*
X010552Y003992D01*
X010539Y004012D01*
X010530Y004034D01*
X010525Y004057D01*
X010523Y004080D01*
X009530Y010280D02*
X007830Y010280D01*
X007813Y010282D01*
X007796Y010286D01*
X007780Y010293D01*
X007766Y010303D01*
X007753Y010316D01*
X007743Y010330D01*
X007736Y010346D01*
X007732Y010363D01*
X007730Y010380D01*
X007730Y010980D01*
X007732Y010997D01*
X007736Y011014D01*
X007743Y011030D01*
X007753Y011044D01*
X007766Y011057D01*
X007780Y011067D01*
X007796Y011074D01*
X007813Y011078D01*
X007830Y011080D01*
X009530Y011080D01*
X009547Y011078D01*
X009564Y011074D01*
X009580Y011067D01*
X009594Y011057D01*
X009607Y011044D01*
X009617Y011030D01*
X009624Y011014D01*
X009628Y010997D01*
X009630Y010980D01*
X009630Y010380D01*
X009628Y010363D01*
X009624Y010346D01*
X009617Y010330D01*
X009607Y010316D01*
X009594Y010303D01*
X009580Y010293D01*
X009564Y010286D01*
X009547Y010282D01*
X009530Y010280D01*
X009530Y011280D02*
X007830Y011280D01*
X007813Y011282D01*
X007796Y011286D01*
X007780Y011293D01*
X007766Y011303D01*
X007753Y011316D01*
X007743Y011330D01*
X007736Y011346D01*
X007732Y011363D01*
X007730Y011380D01*
X007730Y011980D01*
X007732Y011997D01*
X007736Y012014D01*
X007743Y012030D01*
X007753Y012044D01*
X007766Y012057D01*
X007780Y012067D01*
X007796Y012074D01*
X007813Y012078D01*
X007830Y012080D01*
X009530Y012080D01*
X009547Y012078D01*
X009564Y012074D01*
X009580Y012067D01*
X009594Y012057D01*
X009607Y012044D01*
X009617Y012030D01*
X009624Y012014D01*
X009628Y011997D01*
X009630Y011980D01*
X009630Y011380D01*
X009628Y011363D01*
X009624Y011346D01*
X009617Y011330D01*
X009607Y011316D01*
X009594Y011303D01*
X009580Y011293D01*
X009564Y011286D01*
X009547Y011282D01*
X009530Y011280D01*
X011980Y011380D02*
X011980Y011980D01*
X011982Y011997D01*
X011986Y012014D01*
X011993Y012030D01*
X012003Y012044D01*
X012016Y012057D01*
X012030Y012067D01*
X012046Y012074D01*
X012063Y012078D01*
X012080Y012080D01*
X013780Y012080D01*
X013797Y012078D01*
X013814Y012074D01*
X013830Y012067D01*
X013844Y012057D01*
X013857Y012044D01*
X013867Y012030D01*
X013874Y012014D01*
X013878Y011997D01*
X013880Y011980D01*
X013880Y011380D01*
X013878Y011363D01*
X013874Y011346D01*
X013867Y011330D01*
X013857Y011316D01*
X013844Y011303D01*
X013830Y011293D01*
X013814Y011286D01*
X013797Y011282D01*
X013780Y011280D01*
X012080Y011280D01*
X012063Y011282D01*
X012046Y011286D01*
X012030Y011293D01*
X012016Y011303D01*
X012003Y011316D01*
X011993Y011330D01*
X011986Y011346D01*
X011982Y011363D01*
X011980Y011380D01*
X012080Y011080D02*
X013780Y011080D01*
X013797Y011078D01*
X013814Y011074D01*
X013830Y011067D01*
X013844Y011057D01*
X013857Y011044D01*
X013867Y011030D01*
X013874Y011014D01*
X013878Y010997D01*
X013880Y010980D01*
X013880Y010380D01*
X013878Y010363D01*
X013874Y010346D01*
X013867Y010330D01*
X013857Y010316D01*
X013844Y010303D01*
X013830Y010293D01*
X013814Y010286D01*
X013797Y010282D01*
X013780Y010280D01*
X012080Y010280D01*
X012063Y010282D01*
X012046Y010286D01*
X012030Y010293D01*
X012016Y010303D01*
X012003Y010316D01*
X011993Y010330D01*
X011986Y010346D01*
X011982Y010363D01*
X011980Y010380D01*
X011980Y010980D01*
X011982Y010997D01*
X011986Y011014D01*
X011993Y011030D01*
X012003Y011044D01*
X012016Y011057D01*
X012030Y011067D01*
X012046Y011074D01*
X012063Y011078D01*
X012080Y011080D01*
X005937Y016380D02*
X005710Y016380D01*
X005823Y016267D02*
X005823Y016494D01*
X005430Y014180D02*
X001430Y014180D01*
X001430Y010180D01*
X005430Y010180D01*
X005430Y014180D01*
X001050Y014210D02*
X000823Y014210D01*
X000710Y014097D01*
X000823Y013983D01*
X001050Y013983D01*
X001050Y013842D02*
X001050Y013728D01*
X001050Y013785D02*
X000710Y013785D01*
X000710Y013842D02*
X000710Y013728D01*
X000710Y013596D02*
X001050Y013596D01*
X000710Y013369D01*
X001050Y013369D01*
X000880Y014352D02*
X000880Y014578D01*
X000767Y014465D02*
X000994Y014465D01*
X001050Y015088D02*
X000710Y015315D01*
X000710Y015457D02*
X000937Y015457D01*
X001050Y015570D01*
X000937Y015683D01*
X000710Y015683D01*
X000710Y015825D02*
X001050Y015825D01*
X000937Y015938D01*
X001050Y016052D01*
X000710Y016052D01*
X000880Y015683D02*
X000880Y015457D01*
X001050Y015315D02*
X000710Y015088D01*
X000823Y016562D02*
X000710Y016675D01*
X000823Y016788D01*
X001050Y016788D01*
X000994Y016930D02*
X000767Y016930D01*
X000710Y016987D01*
X000710Y017100D01*
X000767Y017157D01*
X000994Y016930D01*
X001050Y016987D01*
X001050Y017100D01*
X000994Y017157D01*
X000767Y017157D01*
X000880Y017298D02*
X000880Y017525D01*
X001050Y017355D01*
X000710Y017355D01*
X000823Y016562D02*
X001050Y016562D01*
X000994Y010900D02*
X000767Y010900D01*
X000710Y010843D01*
X000710Y010730D01*
X000767Y010673D01*
X000880Y010673D01*
X000880Y010787D01*
X000994Y010900D02*
X001050Y010843D01*
X001050Y010730D01*
X000994Y010673D01*
X001050Y010532D02*
X000710Y010305D01*
X001050Y010305D01*
X001050Y010163D02*
X001050Y009993D01*
X000994Y009937D01*
X000767Y009937D01*
X000710Y009993D01*
X000710Y010163D01*
X001050Y010163D01*
X001050Y010532D02*
X000710Y010532D01*
X022210Y003994D02*
X022210Y003767D01*
X022267Y003710D01*
X022380Y003710D01*
X022437Y003767D01*
X022437Y003880D01*
X022323Y003880D01*
X022210Y003994D02*
X022267Y004050D01*
X022380Y004050D01*
X022437Y003994D01*
X022578Y004050D02*
X022805Y003710D01*
X022805Y004050D01*
X022947Y004050D02*
X022947Y003710D01*
X023117Y003710D01*
X023173Y003767D01*
X023173Y003994D01*
X023117Y004050D01*
X022947Y004050D01*
X022578Y004050D02*
X022578Y003710D01*
D21*
X005219Y015646D02*
X004314Y014741D01*
X001991Y014741D01*
X001991Y016001D01*
X001991Y016709D02*
X001991Y017969D01*
X004314Y017969D01*
X005219Y017064D01*
X005219Y016709D01*
X005219Y016001D02*
X005219Y015646D01*
X005121Y016001D02*
X005101Y015924D01*
X005078Y015849D01*
X005050Y015775D01*
X005019Y015703D01*
X004984Y015632D01*
X004946Y015563D01*
X004904Y015497D01*
X004859Y015432D01*
X004811Y015370D01*
X004759Y015310D01*
X004705Y015253D01*
X004648Y015199D01*
X004588Y015147D01*
X004526Y015099D01*
X004461Y015054D01*
X004394Y015013D01*
X004325Y014975D01*
X004254Y014940D01*
X004182Y014909D01*
X004108Y014881D01*
X004033Y014858D01*
X003957Y014838D01*
X003879Y014822D01*
X003801Y014810D01*
X003723Y014802D01*
X003644Y014798D01*
X003566Y014798D01*
X003487Y014802D01*
X003409Y014810D01*
X003331Y014822D01*
X003253Y014838D01*
X003177Y014858D01*
X003102Y014881D01*
X003028Y014909D01*
X002956Y014940D01*
X002885Y014975D01*
X002816Y015013D01*
X002749Y015054D01*
X002684Y015099D01*
X002622Y015147D01*
X002562Y015199D01*
X002505Y015253D01*
X002451Y015310D01*
X002399Y015370D01*
X002351Y015432D01*
X002306Y015497D01*
X002264Y015563D01*
X002226Y015632D01*
X002191Y015703D01*
X002160Y015775D01*
X002132Y015849D01*
X002109Y015924D01*
X002089Y016001D01*
X002089Y016709D02*
X002109Y016786D01*
X002132Y016861D01*
X002160Y016935D01*
X002191Y017007D01*
X002226Y017078D01*
X002264Y017147D01*
X002306Y017213D01*
X002351Y017278D01*
X002399Y017340D01*
X002451Y017400D01*
X002505Y017457D01*
X002562Y017511D01*
X002622Y017563D01*
X002684Y017611D01*
X002749Y017656D01*
X002816Y017697D01*
X002885Y017735D01*
X002956Y017770D01*
X003028Y017801D01*
X003102Y017829D01*
X003177Y017852D01*
X003253Y017872D01*
X003331Y017888D01*
X003409Y017900D01*
X003487Y017908D01*
X003566Y017912D01*
X003644Y017912D01*
X003723Y017908D01*
X003801Y017900D01*
X003879Y017888D01*
X003957Y017872D01*
X004033Y017852D01*
X004108Y017829D01*
X004182Y017801D01*
X004254Y017770D01*
X004325Y017735D01*
X004394Y017697D01*
X004461Y017656D01*
X004526Y017611D01*
X004588Y017563D01*
X004648Y017511D01*
X004705Y017457D01*
X004759Y017400D01*
X004811Y017340D01*
X004859Y017278D01*
X004904Y017213D01*
X004946Y017147D01*
X004984Y017078D01*
X005019Y017007D01*
X005050Y016935D01*
X005078Y016861D01*
X005101Y016786D01*
X005121Y016709D01*
M02*
