G75*
G70*
%OFA0B0*%
%FSLAX24Y24*%
%IPPOS*%
%LPD*%
%AMOC8*
5,1,8,0,0,1.08239X$1,22.5*
%
%ADD10C,0.0190*%
%ADD11C,0.0080*%
%ADD12C,0.0120*%
%ADD13C,0.0090*%
%ADD14C,0.0050*%
%ADD15C,0.0070*%
%ADD16C,0.0060*%
%ADD17R,0.0200X0.0450*%
%ADD18R,0.0200X0.0100*%
%ADD19R,0.0200X0.0300*%
%ADD20R,0.0200X0.0730*%
%ADD21R,0.1900X0.0200*%
%ADD22R,0.0200X0.0820*%
%ADD23R,0.0600X0.0090*%
%ADD24R,0.0405X0.0090*%
%ADD25R,0.0200X0.0250*%
%ADD26R,0.0700X0.0090*%
%ADD27C,0.0100*%
D10*
X014680Y004250D02*
X022680Y004250D01*
X022680Y004280D02*
X022680Y005080D01*
X022680Y005110D02*
X014680Y005110D01*
X014680Y005080D02*
X014680Y004280D01*
X015680Y004280D02*
X015680Y005080D01*
X016680Y005080D02*
X016680Y004280D01*
X017680Y004280D02*
X017680Y005080D01*
X018680Y005080D02*
X018680Y004280D01*
X019680Y004280D02*
X019680Y005080D01*
X020680Y005080D02*
X020680Y004280D01*
X021680Y004280D02*
X021680Y005080D01*
D11*
X021680Y004930D02*
X021430Y005180D01*
X020930Y005180D01*
X020680Y004930D01*
X020430Y005180D01*
X019930Y005180D01*
X019680Y004930D01*
X019430Y005180D01*
X018930Y005180D01*
X018680Y004930D01*
X018430Y005180D01*
X017930Y005180D01*
X017680Y004930D01*
X017430Y005180D01*
X016930Y005180D01*
X016680Y004930D01*
X016430Y005180D01*
X015930Y005180D01*
X015680Y004930D01*
X015430Y005180D01*
X014930Y005180D01*
X014680Y004930D01*
X014680Y004430D01*
X014930Y004180D01*
X015430Y004180D01*
X015680Y004430D01*
X015930Y004180D01*
X016430Y004180D01*
X016680Y004430D01*
X016930Y004180D01*
X017430Y004180D01*
X017680Y004430D01*
X017930Y004180D01*
X018430Y004180D01*
X018680Y004430D01*
X018930Y004180D01*
X019430Y004180D01*
X019680Y004430D01*
X019930Y004180D01*
X020430Y004180D01*
X020680Y004430D01*
X020930Y004180D01*
X021430Y004180D01*
X021680Y004430D01*
X021930Y004180D01*
X022430Y004180D01*
X022680Y004430D01*
X022680Y004930D01*
X022430Y005180D01*
X021930Y005180D01*
X021680Y004930D01*
X021430Y003680D02*
X021930Y003680D01*
X022180Y003430D01*
X022180Y002930D01*
X021930Y002680D01*
X021430Y002680D01*
X021180Y002930D01*
X020930Y002680D01*
X020430Y002680D01*
X020180Y002930D01*
X019930Y002680D01*
X019430Y002680D01*
X019180Y002930D01*
X018930Y002680D01*
X018430Y002680D01*
X018180Y002930D01*
X017930Y002680D01*
X017430Y002680D01*
X017180Y002930D01*
X016930Y002680D01*
X016430Y002680D01*
X016180Y002930D01*
X016180Y003430D01*
X016430Y003680D01*
X016930Y003680D01*
X017180Y003430D01*
X017430Y003680D01*
X017930Y003680D01*
X018180Y003430D01*
X018430Y003680D01*
X018930Y003680D01*
X019180Y003430D01*
X019430Y003680D01*
X019930Y003680D01*
X020180Y003430D01*
X020430Y003680D01*
X020930Y003680D01*
X021180Y003430D01*
X021430Y003680D01*
X021430Y001680D02*
X021930Y001680D01*
X022180Y001430D01*
X022180Y000930D01*
X021930Y000680D01*
X021430Y000680D01*
X021180Y000930D01*
X020930Y000680D01*
X020430Y000680D01*
X020180Y000930D01*
X019930Y000680D01*
X019430Y000680D01*
X019180Y000930D01*
X018930Y000680D01*
X018430Y000680D01*
X018180Y000930D01*
X017930Y000680D01*
X017430Y000680D01*
X017180Y000930D01*
X016930Y000680D01*
X016430Y000680D01*
X016180Y000930D01*
X016180Y001430D01*
X016430Y001680D01*
X016930Y001680D01*
X017180Y001430D01*
X017430Y001680D01*
X017930Y001680D01*
X018180Y001430D01*
X018430Y001680D01*
X018930Y001680D01*
X019180Y001430D01*
X019430Y001680D01*
X019930Y001680D01*
X020180Y001430D01*
X020430Y001680D01*
X020930Y001680D01*
X021180Y001430D01*
X021430Y001680D01*
X015180Y001430D02*
X015180Y000930D01*
X014930Y000680D01*
X014430Y000680D01*
X014180Y000930D01*
X013930Y000680D01*
X013430Y000680D01*
X013180Y000930D01*
X012930Y000680D01*
X012430Y000680D01*
X012180Y000930D01*
X011930Y000680D01*
X011430Y000680D01*
X011180Y000930D01*
X010930Y000680D01*
X010430Y000680D01*
X010180Y000930D01*
X009930Y000680D01*
X009430Y000680D01*
X009180Y000930D01*
X009180Y001430D01*
X009430Y001680D01*
X009930Y001680D01*
X010180Y001430D01*
X010430Y001680D01*
X010930Y001680D01*
X011180Y001430D01*
X011430Y001680D01*
X011930Y001680D01*
X012180Y001430D01*
X012430Y001680D01*
X012930Y001680D01*
X013180Y001430D01*
X013430Y001680D01*
X013930Y001680D01*
X014180Y001430D01*
X014430Y001680D01*
X014930Y001680D01*
X015180Y001430D01*
X014930Y002680D02*
X014430Y002680D01*
X014180Y002930D01*
X013930Y002680D01*
X013430Y002680D01*
X013180Y002930D01*
X012930Y002680D01*
X012430Y002680D01*
X012180Y002930D01*
X011930Y002680D01*
X011430Y002680D01*
X011180Y002930D01*
X010930Y002680D01*
X010430Y002680D01*
X010180Y002930D01*
X009930Y002680D01*
X009430Y002680D01*
X009180Y002930D01*
X009180Y003430D01*
X009430Y003680D01*
X009930Y003680D01*
X010180Y003430D01*
X010430Y003680D01*
X010930Y003680D01*
X011180Y003430D01*
X011430Y003680D01*
X011930Y003680D01*
X012180Y003430D01*
X012430Y003680D01*
X012930Y003680D01*
X013180Y003430D01*
X013430Y003680D01*
X013930Y003680D01*
X014180Y003430D01*
X014430Y003680D01*
X014930Y003680D01*
X015180Y003430D01*
X015180Y002930D01*
X014930Y002680D01*
X014930Y008180D02*
X014680Y008430D01*
X014680Y008930D01*
X014930Y009180D01*
X014680Y009430D01*
X014680Y009930D01*
X014930Y010180D01*
X014680Y010430D01*
X014680Y010930D01*
X014930Y011180D01*
X014680Y011430D01*
X014680Y011930D01*
X014930Y012180D01*
X014680Y012430D01*
X014680Y012930D01*
X014930Y013180D01*
X014680Y013430D01*
X014680Y013930D01*
X014930Y014180D01*
X014680Y014430D01*
X014680Y014930D01*
X014930Y015180D01*
X014680Y015430D01*
X014680Y015930D01*
X014930Y016180D01*
X014680Y016430D01*
X014680Y016930D01*
X014930Y017180D01*
X015430Y017180D01*
X015680Y016930D01*
X015930Y017180D01*
X016430Y017180D01*
X016680Y016930D01*
X016930Y017180D01*
X017430Y017180D01*
X017680Y016930D01*
X017930Y017180D01*
X018430Y017180D01*
X018680Y016930D01*
X018930Y017180D01*
X019430Y017180D01*
X019680Y016930D01*
X019930Y017180D01*
X020430Y017180D01*
X020680Y016930D01*
X020930Y017180D01*
X021430Y017180D01*
X021680Y016930D01*
X021930Y017180D01*
X022430Y017180D01*
X022680Y016930D01*
X022680Y016430D01*
X022430Y016180D01*
X021930Y016180D01*
X021680Y016430D01*
X021430Y016180D01*
X020930Y016180D01*
X020680Y016430D01*
X020430Y016180D01*
X019930Y016180D01*
X019680Y016430D01*
X019430Y016180D01*
X018930Y016180D01*
X018680Y016430D01*
X018430Y016180D01*
X017930Y016180D01*
X017680Y016430D01*
X017430Y016180D01*
X016930Y016180D01*
X016680Y016430D01*
X016430Y016180D01*
X015930Y016180D01*
X015680Y016430D01*
X015430Y016180D01*
X014930Y016180D01*
X015430Y016180D01*
X015680Y015930D01*
X015680Y015430D01*
X015430Y015180D01*
X015680Y014930D01*
X015680Y014430D01*
X015430Y014180D01*
X015680Y013930D01*
X015680Y013430D01*
X015430Y013180D01*
X015680Y012930D01*
X015680Y012430D01*
X015430Y012180D01*
X015680Y011930D01*
X015680Y011430D01*
X015430Y011180D01*
X015680Y010930D01*
X015680Y010430D01*
X015430Y010180D01*
X015680Y009930D01*
X015680Y009430D01*
X015430Y009180D01*
X015680Y008930D01*
X015680Y008430D01*
X015430Y008180D01*
X014930Y008180D01*
X012680Y008430D02*
X012680Y008930D01*
X012430Y009180D01*
X012680Y009430D01*
X012680Y009930D01*
X012430Y010180D01*
X011930Y010180D01*
X011680Y009930D01*
X011680Y009430D01*
X011930Y009180D01*
X011680Y008930D01*
X011680Y008430D01*
X011930Y008180D01*
X012430Y008180D01*
X012680Y008430D01*
X011680Y008430D02*
X011430Y008180D01*
X010930Y008180D01*
X010680Y008430D01*
X010680Y008930D01*
X010930Y009180D01*
X010680Y009430D01*
X010680Y009930D01*
X010930Y010180D01*
X011430Y010180D01*
X011680Y010430D01*
X011680Y010930D01*
X011930Y011180D01*
X011680Y011430D01*
X011680Y011930D01*
X011930Y012180D01*
X011680Y012430D01*
X011680Y012930D01*
X011930Y013180D01*
X011680Y013430D01*
X011680Y013930D01*
X011930Y014180D01*
X012430Y014180D01*
X012680Y013930D01*
X012680Y013430D01*
X012430Y013180D01*
X012680Y012930D01*
X012680Y012430D01*
X012430Y012180D01*
X011930Y012180D01*
X012430Y012180D01*
X012680Y011930D01*
X012680Y011430D01*
X012430Y011180D01*
X012680Y010930D01*
X012680Y010430D01*
X012430Y010180D01*
X011930Y010180D01*
X011680Y010430D01*
X011680Y010930D01*
X011430Y011180D01*
X011680Y011430D01*
X011680Y011930D01*
X011430Y012180D01*
X010930Y012180D01*
X010680Y012430D01*
X010680Y012930D01*
X010930Y013180D01*
X010680Y013430D01*
X010680Y013930D01*
X010930Y014180D01*
X011430Y014180D01*
X011680Y014430D01*
X011680Y014930D01*
X011930Y015180D01*
X011680Y015430D01*
X011680Y015930D01*
X011930Y016180D01*
X012430Y016180D01*
X012680Y015930D01*
X012680Y015430D01*
X012430Y015180D01*
X012680Y014930D01*
X012680Y014430D01*
X012430Y014180D01*
X011930Y014180D01*
X011680Y014430D01*
X011680Y014930D01*
X011430Y015180D01*
X011680Y015430D01*
X011680Y015930D01*
X011430Y016180D01*
X010930Y016180D01*
X010680Y015930D01*
X010680Y015430D01*
X010930Y015180D01*
X010680Y014930D01*
X010680Y014430D01*
X010930Y014180D01*
X011430Y014180D01*
X011680Y013930D01*
X011680Y013430D01*
X011430Y013180D01*
X011680Y012930D01*
X011680Y012430D01*
X011430Y012180D01*
X010930Y012180D01*
X010680Y011930D01*
X010680Y011430D01*
X010930Y011180D01*
X010680Y010930D01*
X010680Y010430D01*
X010930Y010180D01*
X011430Y010180D01*
X011680Y009930D01*
X011680Y009430D01*
X011430Y009180D01*
X011680Y008930D01*
X011680Y008430D01*
X004630Y001500D02*
X004330Y001500D01*
X004480Y001360D01*
X004650Y001360D01*
X004630Y001500D02*
X004480Y001359D01*
X004480Y001360D02*
X004310Y001360D01*
X002830Y001824D02*
X002830Y003036D01*
X002318Y003430D02*
X001342Y003430D01*
X000830Y003036D02*
X000830Y001824D01*
X001330Y001430D02*
X002318Y001430D01*
X001330Y002430D02*
X001332Y002474D01*
X001338Y002518D01*
X001348Y002561D01*
X001361Y002603D01*
X001378Y002644D01*
X001399Y002683D01*
X001423Y002720D01*
X001450Y002755D01*
X001480Y002787D01*
X001513Y002817D01*
X001549Y002843D01*
X001586Y002867D01*
X001626Y002886D01*
X001667Y002903D01*
X001710Y002915D01*
X001753Y002924D01*
X001797Y002929D01*
X001841Y002930D01*
X001885Y002927D01*
X001929Y002920D01*
X001972Y002909D01*
X002014Y002895D01*
X002054Y002877D01*
X002093Y002855D01*
X002129Y002831D01*
X002163Y002803D01*
X002195Y002772D01*
X002224Y002738D01*
X002250Y002702D01*
X002272Y002664D01*
X002291Y002624D01*
X002306Y002582D01*
X002318Y002540D01*
X002326Y002496D01*
X002330Y002452D01*
X002330Y002408D01*
X002326Y002364D01*
X002318Y002320D01*
X002306Y002278D01*
X002291Y002236D01*
X002272Y002196D01*
X002250Y002158D01*
X002224Y002122D01*
X002195Y002088D01*
X002163Y002057D01*
X002129Y002029D01*
X002093Y002005D01*
X002054Y001983D01*
X002014Y001965D01*
X001972Y001951D01*
X001929Y001940D01*
X001885Y001933D01*
X001841Y001930D01*
X001797Y001931D01*
X001753Y001936D01*
X001710Y001945D01*
X001667Y001957D01*
X001626Y001974D01*
X001586Y001993D01*
X001549Y002017D01*
X001513Y002043D01*
X001480Y002073D01*
X001450Y002105D01*
X001423Y002140D01*
X001399Y002177D01*
X001378Y002216D01*
X001361Y002257D01*
X001348Y002299D01*
X001338Y002342D01*
X001332Y002386D01*
X001330Y002430D01*
X014930Y016180D02*
X022180Y016180D01*
X021680Y016430D02*
X021680Y016930D01*
X022180Y017180D02*
X014930Y017180D01*
X014680Y016930D02*
X014680Y016430D01*
X014571Y016620D02*
X014431Y016480D01*
X014290Y016620D01*
X014290Y016900D01*
X014110Y016900D02*
X013830Y016900D01*
X013830Y016690D01*
X013970Y016760D01*
X014040Y016760D01*
X014110Y016690D01*
X014110Y016550D01*
X014040Y016480D01*
X013900Y016480D01*
X013830Y016550D01*
X014571Y016620D02*
X014571Y016900D01*
X014430Y017680D02*
X014180Y017930D01*
X014180Y018430D01*
X014430Y018680D01*
X014930Y018680D01*
X015180Y018430D01*
X015430Y018680D01*
X015930Y018680D01*
X016180Y018430D01*
X016430Y018680D01*
X016930Y018680D01*
X017180Y018430D01*
X017430Y018680D01*
X017930Y018680D01*
X018180Y018430D01*
X018430Y018680D01*
X018930Y018680D01*
X019180Y018430D01*
X019430Y018680D01*
X019930Y018680D01*
X020180Y018430D01*
X020430Y018680D01*
X020930Y018680D01*
X021180Y018430D01*
X021430Y018680D01*
X021930Y018680D01*
X022180Y018430D01*
X022180Y017930D01*
X021930Y017680D01*
X021430Y017680D01*
X021180Y017930D01*
X020930Y017680D01*
X020430Y017680D01*
X020180Y017930D01*
X019930Y017680D01*
X019430Y017680D01*
X019180Y017930D01*
X018930Y017680D01*
X018430Y017680D01*
X018180Y017930D01*
X017930Y017680D01*
X017430Y017680D01*
X017180Y017930D01*
X016930Y017680D01*
X016430Y017680D01*
X016180Y017930D01*
X015930Y017680D01*
X015430Y017680D01*
X015180Y017930D01*
X014930Y017680D01*
X014430Y017680D01*
X013580Y017930D02*
X013580Y018430D01*
X013330Y018680D01*
X012830Y018680D01*
X012580Y018430D01*
X012330Y018680D01*
X011830Y018680D01*
X011580Y018430D01*
X011330Y018680D01*
X010830Y018680D01*
X010580Y018430D01*
X010330Y018680D01*
X009830Y018680D01*
X009580Y018430D01*
X009330Y018680D01*
X008830Y018680D01*
X008580Y018430D01*
X008330Y018680D01*
X007830Y018680D01*
X007580Y018430D01*
X007330Y018680D01*
X006830Y018680D01*
X006580Y018430D01*
X006330Y018680D01*
X005830Y018680D01*
X005580Y018430D01*
X005580Y017930D01*
X005830Y017680D01*
X006330Y017680D01*
X006580Y017930D01*
X006830Y017680D01*
X007330Y017680D01*
X007580Y017930D01*
X007830Y017680D01*
X008330Y017680D01*
X008580Y017930D01*
X008830Y017680D01*
X009330Y017680D01*
X009580Y017930D01*
X009830Y017680D01*
X010330Y017680D01*
X010580Y017930D01*
X010830Y017680D01*
X011330Y017680D01*
X011580Y017930D01*
X011830Y017680D01*
X012330Y017680D01*
X012580Y017930D01*
X012830Y017680D01*
X013330Y017680D01*
X013580Y017930D01*
X013330Y019680D02*
X012830Y019680D01*
X012580Y019930D01*
X012330Y019680D01*
X011830Y019680D01*
X011580Y019930D01*
X011330Y019680D01*
X010830Y019680D01*
X010580Y019930D01*
X010330Y019680D01*
X009830Y019680D01*
X009580Y019930D01*
X009330Y019680D01*
X008830Y019680D01*
X008580Y019930D01*
X008330Y019680D01*
X007830Y019680D01*
X007580Y019930D01*
X007330Y019680D01*
X006830Y019680D01*
X006580Y019930D01*
X006330Y019680D01*
X005830Y019680D01*
X005580Y019930D01*
X005580Y020430D01*
X005830Y020680D01*
X006330Y020680D01*
X006580Y020430D01*
X006830Y020680D01*
X007330Y020680D01*
X007580Y020430D01*
X007830Y020680D01*
X008330Y020680D01*
X008580Y020430D01*
X008830Y020680D01*
X009330Y020680D01*
X009580Y020430D01*
X009830Y020680D01*
X010330Y020680D01*
X010580Y020430D01*
X010830Y020680D01*
X011330Y020680D01*
X011580Y020430D01*
X011830Y020680D01*
X012330Y020680D01*
X012580Y020430D01*
X012830Y020680D01*
X013330Y020680D01*
X013580Y020430D01*
X013580Y019930D01*
X013330Y019680D01*
X014180Y019930D02*
X014180Y020430D01*
X014430Y020680D01*
X014930Y020680D01*
X015180Y020430D01*
X015430Y020680D01*
X015930Y020680D01*
X016180Y020430D01*
X016430Y020680D01*
X016930Y020680D01*
X017180Y020430D01*
X017430Y020680D01*
X017930Y020680D01*
X018180Y020430D01*
X018430Y020680D01*
X018930Y020680D01*
X019180Y020430D01*
X019430Y020680D01*
X019930Y020680D01*
X020180Y020430D01*
X020430Y020680D01*
X020930Y020680D01*
X021180Y020430D01*
X021430Y020680D01*
X021930Y020680D01*
X022180Y020430D01*
X022180Y019930D01*
X021930Y019680D01*
X021430Y019680D01*
X021180Y019930D01*
X020930Y019680D01*
X020430Y019680D01*
X020180Y019930D01*
X019930Y019680D01*
X019430Y019680D01*
X019180Y019930D01*
X018930Y019680D01*
X018430Y019680D01*
X018180Y019930D01*
X017930Y019680D01*
X017430Y019680D01*
X017180Y019930D01*
X016930Y019680D01*
X016430Y019680D01*
X016180Y019930D01*
X015930Y019680D01*
X015430Y019680D01*
X015180Y019930D01*
X014930Y019680D01*
X014430Y019680D01*
X014180Y019930D01*
X015680Y016930D02*
X015680Y016430D01*
X016680Y016430D02*
X016680Y016930D01*
X017680Y016930D02*
X017680Y016430D01*
X018680Y016430D02*
X018680Y016930D01*
X019680Y016930D02*
X019680Y016430D01*
X020680Y016430D02*
X020680Y016930D01*
X005080Y017930D02*
X005080Y018430D01*
X004830Y018680D01*
X004330Y018680D01*
X004080Y018430D01*
X004080Y017930D01*
X004330Y017680D01*
X004830Y017680D01*
X005080Y017930D01*
X002830Y018374D02*
X002830Y019586D01*
X002318Y019980D02*
X001342Y019980D01*
X000830Y019586D02*
X000830Y018374D01*
X001330Y017980D02*
X002318Y017980D01*
X001330Y018980D02*
X001332Y019024D01*
X001338Y019068D01*
X001348Y019111D01*
X001361Y019153D01*
X001378Y019194D01*
X001399Y019233D01*
X001423Y019270D01*
X001450Y019305D01*
X001480Y019337D01*
X001513Y019367D01*
X001549Y019393D01*
X001586Y019417D01*
X001626Y019436D01*
X001667Y019453D01*
X001710Y019465D01*
X001753Y019474D01*
X001797Y019479D01*
X001841Y019480D01*
X001885Y019477D01*
X001929Y019470D01*
X001972Y019459D01*
X002014Y019445D01*
X002054Y019427D01*
X002093Y019405D01*
X002129Y019381D01*
X002163Y019353D01*
X002195Y019322D01*
X002224Y019288D01*
X002250Y019252D01*
X002272Y019214D01*
X002291Y019174D01*
X002306Y019132D01*
X002318Y019090D01*
X002326Y019046D01*
X002330Y019002D01*
X002330Y018958D01*
X002326Y018914D01*
X002318Y018870D01*
X002306Y018828D01*
X002291Y018786D01*
X002272Y018746D01*
X002250Y018708D01*
X002224Y018672D01*
X002195Y018638D01*
X002163Y018607D01*
X002129Y018579D01*
X002093Y018555D01*
X002054Y018533D01*
X002014Y018515D01*
X001972Y018501D01*
X001929Y018490D01*
X001885Y018483D01*
X001841Y018480D01*
X001797Y018481D01*
X001753Y018486D01*
X001710Y018495D01*
X001667Y018507D01*
X001626Y018524D01*
X001586Y018543D01*
X001549Y018567D01*
X001513Y018593D01*
X001480Y018623D01*
X001450Y018655D01*
X001423Y018690D01*
X001399Y018727D01*
X001378Y018766D01*
X001361Y018807D01*
X001348Y018849D01*
X001338Y018892D01*
X001332Y018936D01*
X001330Y018980D01*
D12*
X000380Y020030D02*
X000384Y020091D01*
X000391Y020152D01*
X000402Y020212D01*
X000417Y020272D01*
X000436Y020330D01*
X000458Y020387D01*
X000484Y020443D01*
X000513Y020496D01*
X000545Y020548D01*
X000581Y020598D01*
X000620Y020646D01*
X000662Y020690D01*
X000706Y020733D01*
X000753Y020772D01*
X000802Y020808D01*
X000854Y020841D01*
X000907Y020871D01*
X000963Y020898D01*
X001019Y020920D01*
X001078Y020940D01*
X001137Y020955D01*
X001197Y020967D01*
X001258Y020975D01*
X001319Y020979D01*
X001380Y020980D01*
X021480Y020980D01*
X022480Y020080D02*
X022480Y017180D01*
X022480Y016080D02*
X023480Y015080D01*
X023480Y002280D01*
X022480Y001280D01*
X022478Y001221D01*
X022472Y001163D01*
X022463Y001104D01*
X022449Y001047D01*
X022432Y000991D01*
X022411Y000936D01*
X022387Y000882D01*
X022359Y000830D01*
X022328Y000780D01*
X022294Y000732D01*
X022257Y000687D01*
X022216Y000644D01*
X022173Y000603D01*
X022128Y000566D01*
X022080Y000532D01*
X022030Y000501D01*
X021978Y000473D01*
X021924Y000449D01*
X021869Y000428D01*
X021813Y000411D01*
X021756Y000397D01*
X021697Y000388D01*
X021639Y000382D01*
X021580Y000380D01*
X001480Y000380D01*
X001417Y000379D01*
X001353Y000382D01*
X001290Y000388D01*
X001227Y000399D01*
X001165Y000413D01*
X001104Y000431D01*
X001045Y000452D01*
X000986Y000477D01*
X000930Y000506D01*
X000875Y000538D01*
X000822Y000573D01*
X000771Y000611D01*
X000723Y000652D01*
X000677Y000696D01*
X000634Y000743D01*
X000594Y000792D01*
X000557Y000844D01*
X000524Y000898D01*
X000493Y000954D01*
X000466Y001011D01*
X000443Y001070D01*
X000423Y001130D01*
X000406Y001192D01*
X000394Y001254D01*
X000385Y001317D01*
X000380Y001380D01*
X000380Y004580D01*
X000380Y004780D01*
X000380Y020030D01*
X010530Y014030D02*
X010530Y012330D01*
X010680Y012180D01*
X010880Y012180D01*
X012480Y012180D02*
X012680Y012180D01*
X012830Y012330D01*
X012830Y014030D01*
X012680Y014180D01*
X012480Y014180D01*
X010930Y014180D02*
X010680Y014180D01*
X010530Y014030D01*
X010680Y010180D02*
X010530Y010030D01*
X010530Y008330D01*
X010680Y008180D01*
X010880Y008180D01*
X012480Y008180D02*
X012680Y008180D01*
X012830Y008330D01*
X012830Y010030D01*
X012680Y010180D01*
X012480Y010180D01*
X010880Y010180D02*
X010680Y010180D01*
X004630Y002030D02*
X004330Y002030D01*
X004307Y002028D01*
X004284Y002023D01*
X004262Y002014D01*
X004242Y002001D01*
X004224Y001986D01*
X004209Y001968D01*
X004196Y001948D01*
X004187Y001926D01*
X004182Y001903D01*
X004180Y001880D01*
X004180Y000980D01*
X004182Y000957D01*
X004187Y000934D01*
X004196Y000912D01*
X004209Y000892D01*
X004224Y000874D01*
X004242Y000859D01*
X004262Y000846D01*
X004284Y000837D01*
X004307Y000832D01*
X004330Y000830D01*
X004630Y000830D01*
X004653Y000832D01*
X004676Y000837D01*
X004698Y000846D01*
X004718Y000859D01*
X004736Y000874D01*
X004751Y000892D01*
X004764Y000912D01*
X004773Y000934D01*
X004778Y000957D01*
X004780Y000980D01*
X004780Y001880D01*
X004778Y001903D01*
X004773Y001926D01*
X004764Y001948D01*
X004751Y001968D01*
X004736Y001986D01*
X004718Y002001D01*
X004698Y002014D01*
X004676Y002023D01*
X004653Y002028D01*
X004630Y002030D01*
X021480Y020980D02*
X021540Y020981D01*
X021599Y020978D01*
X021659Y020972D01*
X021718Y020962D01*
X021776Y020949D01*
X021833Y020931D01*
X021889Y020911D01*
X021944Y020886D01*
X021997Y020859D01*
X022048Y020828D01*
X022097Y020794D01*
X022144Y020757D01*
X022188Y020717D01*
X022230Y020674D01*
X022269Y020629D01*
X022305Y020581D01*
X022338Y020531D01*
X022368Y020480D01*
X022395Y020426D01*
X022418Y020371D01*
X022437Y020314D01*
X022454Y020257D01*
X022466Y020198D01*
X022475Y020139D01*
X022480Y020080D01*
D13*
X023040Y014651D02*
X023295Y014651D01*
X023295Y014481D02*
X023040Y014481D01*
X022955Y014566D01*
X023040Y014651D01*
X023040Y014481D02*
X022955Y014395D01*
X022955Y014310D01*
X023295Y014310D01*
X023210Y014098D02*
X023040Y014098D01*
X022955Y014013D01*
X022955Y013843D01*
X023040Y013758D01*
X023210Y013758D01*
X023295Y013843D01*
X023295Y014013D01*
X023210Y014098D01*
X023295Y013546D02*
X023295Y013291D01*
X023210Y013205D01*
X023040Y013205D01*
X022955Y013291D01*
X022955Y013546D01*
X023210Y013014D02*
X023295Y013014D01*
X023295Y012929D01*
X023210Y012929D01*
X023210Y013014D01*
X023210Y012717D02*
X023125Y012632D01*
X023125Y012462D01*
X023040Y012377D01*
X022955Y012462D01*
X022955Y012717D01*
X023210Y012717D02*
X023295Y012632D01*
X023295Y012377D01*
X023295Y012165D02*
X023295Y011909D01*
X023210Y011824D01*
X023040Y011824D01*
X022955Y011909D01*
X022955Y012165D01*
X022955Y011541D02*
X023295Y011541D01*
X023295Y011456D02*
X023295Y011626D01*
X022955Y011541D02*
X022955Y011456D01*
X022785Y011541D02*
X022699Y011541D01*
X023040Y011244D02*
X023295Y011244D01*
X023040Y011244D02*
X022955Y011159D01*
X022955Y010903D01*
X023295Y010903D01*
X023210Y010691D02*
X023040Y010691D01*
X022955Y010606D01*
X022955Y010436D01*
X023040Y010351D01*
X023210Y010351D01*
X023295Y010436D01*
X023295Y010606D01*
X023210Y010691D01*
X022955Y010146D02*
X022955Y010061D01*
X023125Y009891D01*
X023295Y009891D02*
X022955Y009891D01*
X022955Y009692D02*
X022955Y009522D01*
X022870Y009607D02*
X023210Y009607D01*
X023295Y009692D01*
X023125Y009310D02*
X023125Y008970D01*
X023210Y008970D02*
X023040Y008970D01*
X022955Y009055D01*
X022955Y009225D01*
X023040Y009310D01*
X023125Y009310D01*
X023295Y009225D02*
X023295Y009055D01*
X023210Y008970D01*
X023125Y008758D02*
X023125Y008417D01*
X023210Y008417D02*
X023040Y008417D01*
X022955Y008502D01*
X022955Y008673D01*
X023040Y008758D01*
X023125Y008758D01*
X023295Y008673D02*
X023295Y008502D01*
X023210Y008417D01*
X022955Y008212D02*
X022955Y008127D01*
X023125Y007957D01*
X023295Y007957D02*
X022955Y007957D01*
X023040Y007759D02*
X023040Y007589D01*
X022870Y007674D02*
X022785Y007759D01*
X022870Y007674D02*
X023295Y007674D01*
X023295Y007397D02*
X023295Y007312D01*
X023210Y007312D01*
X023210Y007397D01*
X023295Y007397D01*
X023210Y007100D02*
X022955Y007100D01*
X023210Y007100D02*
X023295Y007015D01*
X023210Y006930D01*
X023295Y006845D01*
X023210Y006760D01*
X022955Y006760D01*
X022955Y006548D02*
X023210Y006548D01*
X023295Y006463D01*
X023210Y006378D01*
X023295Y006293D01*
X023210Y006207D01*
X022955Y006207D01*
X022955Y005995D02*
X023210Y005995D01*
X023295Y005910D01*
X023210Y005825D01*
X023295Y005740D01*
X023210Y005655D01*
X022955Y005655D01*
X005049Y002567D02*
X005049Y002430D01*
X004981Y002362D01*
X004776Y002362D01*
X004913Y002362D02*
X005049Y002225D01*
X004776Y002225D02*
X004776Y002635D01*
X004981Y002635D01*
X005049Y002567D01*
X004589Y002635D02*
X004589Y002225D01*
X004452Y002362D01*
X004315Y002225D01*
X004315Y002635D01*
X004129Y002567D02*
X004129Y002430D01*
X004060Y002362D01*
X003855Y002362D01*
X003855Y002225D02*
X003855Y002635D01*
X004060Y002635D01*
X004129Y002567D01*
D14*
X001105Y000805D02*
X001105Y000555D01*
X001105Y000638D02*
X001230Y000638D01*
X001272Y000680D01*
X001272Y000764D01*
X001230Y000805D01*
X001105Y000805D01*
X001188Y000638D02*
X001272Y000555D01*
X001381Y000555D02*
X001548Y000555D01*
X001657Y000597D02*
X001699Y000555D01*
X001783Y000555D01*
X001824Y000597D01*
X001824Y000638D01*
X001783Y000680D01*
X001699Y000680D01*
X001657Y000722D01*
X001657Y000764D01*
X001699Y000805D01*
X001783Y000805D01*
X001824Y000764D01*
X001934Y000805D02*
X001934Y000555D01*
X002101Y000555D01*
X002017Y000680D02*
X001934Y000680D01*
X001934Y000805D02*
X002101Y000805D01*
X002210Y000805D02*
X002377Y000805D01*
X002293Y000805D02*
X002293Y000555D01*
X001548Y000805D02*
X001381Y000805D01*
X001381Y000555D01*
X001381Y000680D02*
X001465Y000680D01*
X009305Y001855D02*
X009305Y002125D01*
X009440Y002125D01*
X009485Y002080D01*
X009485Y001990D01*
X009440Y001945D01*
X009305Y001945D01*
X009395Y001945D02*
X009485Y001855D01*
X009600Y001900D02*
X009645Y001855D01*
X009735Y001855D01*
X009780Y001900D01*
X009780Y001945D01*
X009735Y001990D01*
X009645Y001990D01*
X009600Y002035D01*
X009600Y002080D01*
X009645Y002125D01*
X009735Y002125D01*
X009780Y002080D01*
X009894Y002125D02*
X010074Y002125D01*
X009984Y002125D02*
X009984Y001855D01*
X010350Y002205D02*
X010305Y002250D01*
X010350Y002205D02*
X010440Y002205D01*
X010485Y002250D01*
X010485Y002295D01*
X010440Y002340D01*
X010395Y002340D01*
X010440Y002340D02*
X010485Y002385D01*
X010485Y002430D01*
X010440Y002475D01*
X010350Y002475D01*
X010305Y002430D01*
X010600Y002475D02*
X010600Y002295D01*
X010690Y002205D01*
X010780Y002295D01*
X010780Y002475D01*
X010894Y002430D02*
X010939Y002475D01*
X011029Y002475D01*
X011074Y002430D01*
X011074Y002385D01*
X011029Y002340D01*
X011074Y002295D01*
X011074Y002250D01*
X011029Y002205D01*
X010939Y002205D01*
X010894Y002250D01*
X010984Y002340D02*
X011029Y002340D01*
X011455Y002125D02*
X011455Y001990D01*
X011545Y002035D01*
X011590Y002035D01*
X011635Y001990D01*
X011635Y001900D01*
X011590Y001855D01*
X011500Y001855D01*
X011455Y001900D01*
X011455Y002125D02*
X011635Y002125D01*
X011750Y002125D02*
X011750Y001945D01*
X011840Y001855D01*
X011930Y001945D01*
X011930Y002125D01*
X012305Y002250D02*
X012350Y002205D01*
X012440Y002205D01*
X012485Y002250D01*
X012485Y002340D01*
X012395Y002340D01*
X012305Y002430D02*
X012305Y002250D01*
X012305Y002430D02*
X012350Y002475D01*
X012440Y002475D01*
X012485Y002430D01*
X012600Y002475D02*
X012780Y002205D01*
X012780Y002475D01*
X012894Y002475D02*
X012894Y002205D01*
X013029Y002205D01*
X013074Y002250D01*
X013074Y002430D01*
X013029Y002475D01*
X012894Y002475D01*
X012600Y002475D02*
X012600Y002205D01*
X013305Y002080D02*
X013305Y001900D01*
X013350Y001855D01*
X013440Y001855D01*
X013485Y001900D01*
X013485Y001990D01*
X013395Y001990D01*
X013305Y002080D02*
X013350Y002125D01*
X013440Y002125D01*
X013485Y002080D01*
X013600Y002125D02*
X013780Y001855D01*
X013780Y002125D01*
X013894Y002125D02*
X013894Y001855D01*
X014029Y001855D01*
X014074Y001900D01*
X014074Y002080D01*
X014029Y002125D01*
X013894Y002125D01*
X013600Y002125D02*
X013600Y001855D01*
X014355Y002295D02*
X014445Y002205D01*
X014535Y002295D01*
X014535Y002475D01*
X014650Y002475D02*
X014740Y002475D01*
X014695Y002475D02*
X014695Y002205D01*
X014650Y002205D02*
X014740Y002205D01*
X014846Y002205D02*
X014846Y002475D01*
X015026Y002205D01*
X015026Y002475D01*
X014355Y002475D02*
X014355Y002295D01*
X013205Y007955D02*
X012935Y007955D01*
X012935Y008090D01*
X012980Y008135D01*
X013070Y008135D01*
X013115Y008090D01*
X013115Y007955D01*
X013115Y008045D02*
X013205Y008135D01*
X013205Y008250D02*
X013205Y008430D01*
X013205Y008544D02*
X012935Y008544D01*
X012935Y008724D01*
X013025Y008839D02*
X012935Y008929D01*
X013205Y008929D01*
X013205Y008839D02*
X013205Y009019D01*
X013205Y009134D02*
X012935Y009314D01*
X012980Y009428D02*
X012935Y009473D01*
X012935Y009563D01*
X012980Y009608D01*
X013025Y009608D01*
X013205Y009428D01*
X013205Y009608D01*
X013205Y009723D02*
X012935Y009723D01*
X012935Y009903D01*
X012935Y010018D02*
X012935Y010108D01*
X012935Y010063D02*
X013205Y010063D01*
X013205Y010018D02*
X013205Y010108D01*
X013205Y010214D02*
X012935Y010394D01*
X012935Y010214D02*
X013205Y010394D01*
X013010Y010955D02*
X013055Y011000D01*
X013055Y011045D01*
X013010Y011090D01*
X012785Y011090D01*
X012785Y011045D02*
X012785Y011135D01*
X012830Y011250D02*
X012875Y011250D01*
X012920Y011295D01*
X012920Y011430D01*
X013010Y011430D02*
X012830Y011430D01*
X012785Y011385D01*
X012785Y011295D01*
X012830Y011250D01*
X013010Y011250D02*
X013055Y011295D01*
X013055Y011385D01*
X013010Y011430D01*
X012935Y011955D02*
X012935Y012090D01*
X012980Y012135D01*
X013070Y012135D01*
X013115Y012090D01*
X013115Y011955D01*
X013205Y011955D02*
X012935Y011955D01*
X013115Y012045D02*
X013205Y012135D01*
X013205Y012250D02*
X012935Y012250D01*
X012935Y012430D01*
X012935Y012544D02*
X012935Y012724D01*
X013025Y012839D02*
X012935Y012929D01*
X013205Y012929D01*
X013205Y012839D02*
X013205Y013019D01*
X013205Y013134D02*
X012935Y013314D01*
X012980Y013428D02*
X012935Y013473D01*
X012935Y013563D01*
X012980Y013608D01*
X013025Y013608D01*
X013205Y013428D01*
X013205Y013608D01*
X013205Y013723D02*
X012935Y013723D01*
X012935Y013903D01*
X012935Y014018D02*
X012935Y014108D01*
X012935Y014063D02*
X013205Y014063D01*
X013205Y014018D02*
X013205Y014108D01*
X013205Y014214D02*
X012935Y014394D01*
X012935Y014214D02*
X013205Y014394D01*
X013010Y014955D02*
X013055Y015000D01*
X013055Y015045D01*
X013010Y015090D01*
X012785Y015090D01*
X012785Y015045D02*
X012785Y015135D01*
X012875Y015250D02*
X012785Y015340D01*
X013055Y015340D01*
X013055Y015250D02*
X013055Y015430D01*
X013010Y015544D02*
X013055Y015589D01*
X013055Y015679D01*
X013010Y015724D01*
X012965Y015724D01*
X012920Y015679D01*
X012920Y015634D01*
X012920Y015679D02*
X012875Y015724D01*
X012830Y015724D01*
X012785Y015679D01*
X012785Y015589D01*
X012830Y015544D01*
X013070Y013813D02*
X013070Y013723D01*
X013070Y012634D02*
X013070Y012544D01*
X013205Y012544D02*
X012935Y012544D01*
X013070Y012340D02*
X013070Y012250D01*
X013205Y012250D02*
X013205Y012430D01*
X015805Y012555D02*
X015895Y012555D01*
X015850Y012555D02*
X015850Y012825D01*
X015805Y012825D02*
X015895Y012825D01*
X016001Y012825D02*
X016182Y012555D01*
X016182Y012825D01*
X016296Y012690D02*
X016476Y012690D01*
X016431Y012555D02*
X016431Y012825D01*
X016296Y012690D01*
X016001Y012555D02*
X016001Y012825D01*
X016001Y013555D02*
X016001Y013825D01*
X016182Y013555D01*
X016182Y013825D01*
X016296Y013780D02*
X016341Y013825D01*
X016431Y013825D01*
X016476Y013780D01*
X016476Y013735D01*
X016431Y013690D01*
X016476Y013645D01*
X016476Y013600D01*
X016431Y013555D01*
X016341Y013555D01*
X016296Y013600D01*
X016386Y013690D02*
X016431Y013690D01*
X015895Y013555D02*
X015805Y013555D01*
X015850Y013555D02*
X015850Y013825D01*
X015805Y013825D02*
X015895Y013825D01*
X015895Y014555D02*
X015805Y014555D01*
X015850Y014555D02*
X015850Y014825D01*
X015805Y014825D02*
X015895Y014825D01*
X016001Y014825D02*
X016182Y014555D01*
X016182Y014825D01*
X016296Y014780D02*
X016341Y014825D01*
X016431Y014825D01*
X016476Y014780D01*
X016476Y014735D01*
X016296Y014555D01*
X016476Y014555D01*
X016001Y014555D02*
X016001Y014825D01*
X016001Y015555D02*
X016001Y015825D01*
X016182Y015555D01*
X016182Y015825D01*
X016296Y015735D02*
X016386Y015825D01*
X016386Y015555D01*
X016296Y015555D02*
X016476Y015555D01*
X015895Y015555D02*
X015805Y015555D01*
X015850Y015555D02*
X015850Y015825D01*
X015805Y015825D02*
X015895Y015825D01*
X011474Y019250D02*
X011429Y019205D01*
X011339Y019205D01*
X011294Y019250D01*
X011474Y019430D01*
X011474Y019250D01*
X011294Y019250D02*
X011294Y019430D01*
X011339Y019475D01*
X011429Y019475D01*
X011474Y019430D01*
X011180Y019205D02*
X011000Y019205D01*
X011090Y019205D02*
X011090Y019475D01*
X011000Y019385D01*
X010885Y019430D02*
X010840Y019475D01*
X010705Y019475D01*
X010705Y019205D01*
X010840Y019205D01*
X010885Y019250D01*
X010885Y019430D01*
X010384Y019125D02*
X010384Y018855D01*
X010294Y018855D02*
X010474Y018855D01*
X010294Y019035D02*
X010384Y019125D01*
X010090Y019125D02*
X010090Y018855D01*
X010000Y018855D02*
X010180Y018855D01*
X010000Y019035D02*
X010090Y019125D01*
X009885Y019080D02*
X009885Y018900D01*
X009840Y018855D01*
X009705Y018855D01*
X009705Y019125D01*
X009840Y019125D01*
X009885Y019080D01*
X009474Y019205D02*
X009294Y019205D01*
X009474Y019385D01*
X009474Y019430D01*
X009429Y019475D01*
X009339Y019475D01*
X009294Y019430D01*
X009090Y019475D02*
X009090Y019205D01*
X009000Y019205D02*
X009180Y019205D01*
X009000Y019385D02*
X009090Y019475D01*
X008885Y019430D02*
X008840Y019475D01*
X008705Y019475D01*
X008705Y019205D01*
X008840Y019205D01*
X008885Y019250D01*
X008885Y019430D01*
X008474Y019080D02*
X008474Y019035D01*
X008429Y018990D01*
X008474Y018945D01*
X008474Y018900D01*
X008429Y018855D01*
X008339Y018855D01*
X008294Y018900D01*
X008180Y018855D02*
X008000Y018855D01*
X008090Y018855D02*
X008090Y019125D01*
X008000Y019035D01*
X007885Y019080D02*
X007840Y019125D01*
X007705Y019125D01*
X007705Y018855D01*
X007840Y018855D01*
X007885Y018900D01*
X007885Y019080D01*
X008294Y019080D02*
X008339Y019125D01*
X008429Y019125D01*
X008474Y019080D01*
X008429Y018990D02*
X008384Y018990D01*
X007474Y019250D02*
X007429Y019205D01*
X007294Y019205D01*
X007294Y019475D01*
X007429Y019475D01*
X007474Y019430D01*
X007474Y019250D01*
X007180Y019205D02*
X007180Y019475D01*
X007000Y019475D02*
X007180Y019205D01*
X007000Y019205D02*
X007000Y019475D01*
X006885Y019430D02*
X006840Y019475D01*
X006750Y019475D01*
X006705Y019430D01*
X006705Y019250D01*
X006750Y019205D01*
X006840Y019205D01*
X006885Y019250D01*
X006885Y019340D01*
X006795Y019340D01*
X006474Y019125D02*
X006294Y019125D01*
X006294Y018855D01*
X006180Y018855D02*
X006000Y018855D01*
X006000Y019125D01*
X006180Y019125D01*
X006185Y019255D02*
X006185Y019435D01*
X006095Y019525D01*
X006005Y019435D01*
X006005Y019255D01*
X006005Y019390D02*
X006185Y019390D01*
X005885Y019080D02*
X005885Y018990D01*
X005840Y018945D01*
X005705Y018945D01*
X005705Y018855D02*
X005705Y019125D01*
X005840Y019125D01*
X005885Y019080D01*
X006000Y018990D02*
X006090Y018990D01*
X006294Y018990D02*
X006384Y018990D01*
X005885Y018855D02*
X005795Y018945D01*
X003255Y018874D02*
X003120Y018739D01*
X003165Y018694D02*
X002985Y018874D01*
X002985Y018694D02*
X003255Y018694D01*
X003210Y018580D02*
X003030Y018580D01*
X003210Y018400D01*
X003255Y018445D01*
X003255Y018535D01*
X003210Y018580D01*
X003030Y018580D02*
X002985Y018535D01*
X002985Y018445D01*
X003030Y018400D01*
X003210Y018400D01*
X003255Y018285D02*
X003255Y018105D01*
X003255Y018195D02*
X002985Y018195D01*
X003075Y018105D01*
X002999Y020595D02*
X003044Y020640D01*
X002999Y020595D02*
X002909Y020595D01*
X002864Y020640D01*
X002864Y020820D01*
X002909Y020865D01*
X002999Y020865D01*
X003044Y020820D01*
X002750Y020820D02*
X002705Y020865D01*
X002615Y020865D01*
X002570Y020820D01*
X002570Y020640D01*
X002615Y020595D01*
X002705Y020595D01*
X002750Y020640D01*
X002455Y020685D02*
X002455Y020865D01*
X002455Y020685D02*
X002365Y020595D01*
X002275Y020685D01*
X002275Y020865D01*
X010135Y014492D02*
X010405Y014492D01*
X010405Y014312D02*
X010135Y014312D01*
X010225Y014402D01*
X010135Y014492D01*
X010135Y014198D02*
X010405Y014198D01*
X010315Y014108D01*
X010405Y014018D01*
X010135Y014018D01*
X010180Y013903D02*
X010270Y013903D01*
X010315Y013858D01*
X010315Y013723D01*
X010405Y013723D02*
X010135Y013723D01*
X010135Y013858D01*
X010180Y013903D01*
X010180Y013608D02*
X010135Y013563D01*
X010135Y013473D01*
X010180Y013428D01*
X010135Y013314D02*
X010405Y013134D01*
X010405Y013019D02*
X010405Y012839D01*
X010405Y012929D02*
X010135Y012929D01*
X010225Y012839D01*
X010135Y012724D02*
X010135Y012544D01*
X010405Y012544D01*
X010405Y012430D02*
X010405Y012250D01*
X010135Y012250D01*
X010135Y012430D01*
X010270Y012340D02*
X010270Y012250D01*
X010270Y012135D02*
X010180Y012135D01*
X010135Y012090D01*
X010135Y011955D01*
X010405Y011955D01*
X010315Y011955D02*
X010315Y012090D01*
X010270Y012135D01*
X010315Y012045D02*
X010405Y012135D01*
X010270Y012544D02*
X010270Y012634D01*
X010405Y013428D02*
X010225Y013608D01*
X010180Y013608D01*
X010405Y013608D02*
X010405Y013428D01*
X010510Y014955D02*
X010555Y015000D01*
X010555Y015045D01*
X010510Y015090D01*
X010285Y015090D01*
X010285Y015045D02*
X010285Y015135D01*
X010375Y015250D02*
X010285Y015340D01*
X010555Y015340D01*
X010555Y015250D02*
X010555Y015430D01*
X010555Y015544D02*
X010375Y015724D01*
X010330Y015724D01*
X010285Y015679D01*
X010285Y015589D01*
X010330Y015544D01*
X010555Y015544D02*
X010555Y015724D01*
X010465Y011430D02*
X010510Y011430D01*
X010555Y011385D01*
X010555Y011295D01*
X010510Y011250D01*
X010465Y011250D01*
X010420Y011295D01*
X010420Y011385D01*
X010465Y011430D01*
X010420Y011385D02*
X010375Y011430D01*
X010330Y011430D01*
X010285Y011385D01*
X010285Y011295D01*
X010330Y011250D01*
X010375Y011250D01*
X010420Y011295D01*
X010285Y011135D02*
X010285Y011045D01*
X010285Y011090D02*
X010510Y011090D01*
X010555Y011045D01*
X010555Y011000D01*
X010510Y010955D01*
X010405Y010492D02*
X010135Y010492D01*
X010225Y010402D01*
X010135Y010312D01*
X010405Y010312D01*
X010405Y010198D02*
X010135Y010198D01*
X010135Y010018D02*
X010405Y010018D01*
X010315Y010108D01*
X010405Y010198D01*
X010270Y009903D02*
X010180Y009903D01*
X010135Y009858D01*
X010135Y009723D01*
X010405Y009723D01*
X010315Y009723D02*
X010315Y009858D01*
X010270Y009903D01*
X010225Y009608D02*
X010180Y009608D01*
X010135Y009563D01*
X010135Y009473D01*
X010180Y009428D01*
X010135Y009314D02*
X010405Y009134D01*
X010405Y009019D02*
X010405Y008839D01*
X010405Y008929D02*
X010135Y008929D01*
X010225Y008839D01*
X010135Y008724D02*
X010135Y008544D01*
X010405Y008544D01*
X010405Y008430D02*
X010405Y008250D01*
X010135Y008250D01*
X010135Y008430D01*
X010270Y008340D02*
X010270Y008250D01*
X010270Y008135D02*
X010315Y008090D01*
X010315Y007955D01*
X010405Y007955D02*
X010135Y007955D01*
X010135Y008090D01*
X010180Y008135D01*
X010270Y008135D01*
X010315Y008045D02*
X010405Y008135D01*
X010270Y008544D02*
X010270Y008634D01*
X010405Y009428D02*
X010225Y009608D01*
X010405Y009608D02*
X010405Y009428D01*
X013070Y009723D02*
X013070Y009813D01*
X013070Y008634D02*
X013070Y008544D01*
X012935Y008430D02*
X012935Y008250D01*
X013205Y008250D01*
X013070Y008250D02*
X013070Y008340D01*
X015805Y008555D02*
X015805Y008825D01*
X015940Y008825D01*
X015985Y008780D01*
X015985Y008690D01*
X015940Y008645D01*
X015805Y008645D01*
X015895Y008645D02*
X015985Y008555D01*
X016100Y008555D02*
X016100Y008825D01*
X016280Y008825D01*
X016394Y008825D02*
X016574Y008825D01*
X016484Y008690D02*
X016394Y008690D01*
X016394Y008555D02*
X016394Y008825D01*
X016190Y008690D02*
X016100Y008690D01*
X016100Y008555D02*
X016280Y008555D01*
X016984Y008555D02*
X016984Y008825D01*
X017119Y008825D01*
X017164Y008780D01*
X017164Y008690D01*
X017119Y008645D01*
X016984Y008645D01*
X017278Y008555D02*
X017278Y008825D01*
X017458Y008825D02*
X017458Y008555D01*
X017368Y008645D01*
X017278Y008555D01*
X017573Y008555D02*
X017573Y008825D01*
X017663Y008735D01*
X017753Y008825D01*
X017753Y008555D01*
X017868Y008600D02*
X017913Y008555D01*
X018003Y008555D01*
X018048Y008600D01*
X018048Y008645D01*
X018003Y008690D01*
X017958Y008690D01*
X018003Y008690D02*
X018048Y008735D01*
X018048Y008780D01*
X018003Y008825D01*
X017913Y008825D01*
X017868Y008780D01*
X018162Y008555D02*
X018342Y008825D01*
X018457Y008690D02*
X018637Y008690D01*
X018592Y008555D02*
X018592Y008825D01*
X018457Y008690D01*
X018457Y009555D02*
X018637Y009735D01*
X018637Y009780D01*
X018592Y009825D01*
X018502Y009825D01*
X018457Y009780D01*
X018342Y009825D02*
X018162Y009555D01*
X018048Y009555D02*
X017868Y009555D01*
X017958Y009555D02*
X017958Y009825D01*
X017868Y009735D01*
X017753Y009825D02*
X017753Y009555D01*
X017573Y009555D02*
X017573Y009825D01*
X017663Y009735D01*
X017753Y009825D01*
X017458Y009825D02*
X017458Y009555D01*
X017368Y009645D01*
X017278Y009555D01*
X017278Y009825D01*
X017164Y009780D02*
X017164Y009690D01*
X017119Y009645D01*
X016984Y009645D01*
X016984Y009555D02*
X016984Y009825D01*
X017119Y009825D01*
X017164Y009780D01*
X016574Y009825D02*
X016394Y009825D01*
X016394Y009555D01*
X016280Y009555D02*
X016100Y009555D01*
X016100Y009825D01*
X016280Y009825D01*
X016190Y009690D02*
X016100Y009690D01*
X015985Y009690D02*
X015940Y009645D01*
X015805Y009645D01*
X015805Y009555D02*
X015805Y009825D01*
X015940Y009825D01*
X015985Y009780D01*
X015985Y009690D01*
X015895Y009645D02*
X015985Y009555D01*
X016394Y009690D02*
X016484Y009690D01*
X016394Y010555D02*
X016394Y010825D01*
X016484Y010735D01*
X016574Y010825D01*
X016574Y010555D01*
X016689Y010600D02*
X016734Y010555D01*
X016824Y010555D01*
X016869Y010600D01*
X016869Y010645D01*
X016824Y010690D01*
X016779Y010690D01*
X016824Y010690D02*
X016869Y010735D01*
X016869Y010780D01*
X016824Y010825D01*
X016734Y010825D01*
X016689Y010780D01*
X016280Y010825D02*
X016280Y010555D01*
X016190Y010645D01*
X016100Y010555D01*
X016100Y010825D01*
X015985Y010780D02*
X015985Y010690D01*
X015940Y010645D01*
X015805Y010645D01*
X015805Y010555D02*
X015805Y010825D01*
X015940Y010825D01*
X015985Y010780D01*
X016100Y011555D02*
X016190Y011645D01*
X016280Y011555D01*
X016280Y011825D01*
X016394Y011825D02*
X016484Y011735D01*
X016574Y011825D01*
X016574Y011555D01*
X016689Y011555D02*
X016869Y011555D01*
X016779Y011555D02*
X016779Y011825D01*
X016689Y011735D01*
X016394Y011825D02*
X016394Y011555D01*
X016100Y011555D02*
X016100Y011825D01*
X015985Y011780D02*
X015985Y011690D01*
X015940Y011645D01*
X015805Y011645D01*
X015805Y011555D02*
X015805Y011825D01*
X015940Y011825D01*
X015985Y011780D01*
X016984Y011555D02*
X017164Y011825D01*
X017278Y011780D02*
X017323Y011825D01*
X017413Y011825D01*
X017458Y011780D01*
X017458Y011735D01*
X017278Y011555D01*
X017458Y011555D01*
X017413Y010825D02*
X017278Y010690D01*
X017458Y010690D01*
X017413Y010555D02*
X017413Y010825D01*
X017164Y010825D02*
X016984Y010555D01*
X018457Y009555D02*
X018637Y009555D01*
D15*
X017919Y002495D02*
X017775Y002352D01*
X017602Y002352D02*
X017602Y002065D01*
X017775Y002065D02*
X018062Y002065D01*
X017919Y002065D02*
X017919Y002495D01*
X018315Y002152D02*
X018458Y002295D01*
X018602Y002152D01*
X018602Y001865D01*
X018775Y001865D02*
X019062Y002152D01*
X019062Y002224D01*
X018991Y002295D01*
X018847Y002295D01*
X018775Y002224D01*
X018602Y002080D02*
X018315Y002080D01*
X018315Y002152D02*
X018315Y001865D01*
X018775Y001865D02*
X019062Y001865D01*
X019315Y002065D02*
X019315Y002352D01*
X019458Y002495D01*
X019602Y002352D01*
X019602Y002065D01*
X019775Y002137D02*
X019847Y002065D01*
X019991Y002065D01*
X020062Y002137D01*
X020062Y002208D01*
X019991Y002280D01*
X019919Y002280D01*
X019991Y002280D02*
X020062Y002352D01*
X020062Y002424D01*
X019991Y002495D01*
X019847Y002495D01*
X019775Y002424D01*
X019602Y002280D02*
X019315Y002280D01*
X020315Y002152D02*
X020315Y001865D01*
X020315Y002080D02*
X020602Y002080D01*
X020602Y002152D02*
X020458Y002295D01*
X020315Y002152D01*
X020602Y002152D02*
X020602Y001865D01*
X020775Y002080D02*
X021062Y002080D01*
X020991Y001865D02*
X020991Y002295D01*
X020775Y002080D01*
X021315Y002065D02*
X021315Y002352D01*
X021458Y002495D01*
X021602Y002352D01*
X021602Y002065D01*
X021775Y002137D02*
X021847Y002065D01*
X021991Y002065D01*
X022062Y002137D01*
X022062Y002280D01*
X021991Y002352D01*
X021919Y002352D01*
X021775Y002280D01*
X021775Y002495D01*
X022062Y002495D01*
X021602Y002280D02*
X021315Y002280D01*
X017602Y002280D02*
X017315Y002280D01*
X017315Y002352D02*
X017315Y002065D01*
X017062Y001937D02*
X016991Y001865D01*
X016847Y001865D01*
X016775Y001937D01*
X017062Y002224D01*
X017062Y001937D01*
X016775Y001937D02*
X016775Y002224D01*
X016847Y002295D01*
X016991Y002295D01*
X017062Y002224D01*
X017315Y002352D02*
X017458Y002495D01*
X017602Y002352D01*
X016602Y002152D02*
X016602Y001865D01*
X016602Y002080D02*
X016315Y002080D01*
X016315Y002152D02*
X016315Y001865D01*
X016315Y002152D02*
X016458Y002295D01*
X016602Y002152D01*
X016530Y018865D02*
X016315Y018865D01*
X016315Y019295D01*
X016530Y019295D01*
X016602Y019224D01*
X016602Y018937D01*
X016530Y018865D01*
X016775Y018937D02*
X016847Y018865D01*
X016991Y018865D01*
X017062Y018937D01*
X017062Y019080D01*
X016991Y019152D01*
X016919Y019152D01*
X016775Y019080D01*
X016775Y019295D01*
X017062Y019295D01*
X017315Y019495D02*
X017315Y019065D01*
X017530Y019065D01*
X017602Y019137D01*
X017602Y019424D01*
X017530Y019495D01*
X017315Y019495D01*
X017775Y019280D02*
X018062Y019280D01*
X017991Y019065D02*
X017991Y019495D01*
X017775Y019280D01*
X018315Y019295D02*
X018315Y018865D01*
X018530Y018865D01*
X018602Y018937D01*
X018602Y019224D01*
X018530Y019295D01*
X018315Y019295D01*
X018775Y019224D02*
X018847Y019295D01*
X018991Y019295D01*
X019062Y019224D01*
X019062Y019152D01*
X018991Y019080D01*
X019062Y019008D01*
X019062Y018937D01*
X018991Y018865D01*
X018847Y018865D01*
X018775Y018937D01*
X018919Y019080D02*
X018991Y019080D01*
X019315Y019065D02*
X019530Y019065D01*
X019602Y019137D01*
X019602Y019424D01*
X019530Y019495D01*
X019315Y019495D01*
X019315Y019065D01*
X019775Y019065D02*
X020062Y019352D01*
X020062Y019424D01*
X019991Y019495D01*
X019847Y019495D01*
X019775Y019424D01*
X019775Y019065D02*
X020062Y019065D01*
X020315Y018865D02*
X020530Y018865D01*
X020602Y018937D01*
X020602Y019224D01*
X020530Y019295D01*
X020315Y019295D01*
X020315Y018865D01*
X020775Y018865D02*
X021062Y018865D01*
X020919Y018865D02*
X020919Y019295D01*
X020775Y019152D01*
X021315Y019065D02*
X021315Y019495D01*
X021530Y019495D01*
X021602Y019424D01*
X021602Y019137D01*
X021530Y019065D01*
X021315Y019065D01*
X021775Y019137D02*
X022062Y019424D01*
X022062Y019137D01*
X021991Y019065D01*
X021847Y019065D01*
X021775Y019137D01*
X021775Y019424D01*
X021847Y019495D01*
X021991Y019495D01*
X022062Y019424D01*
X016062Y019495D02*
X015919Y019424D01*
X015775Y019280D01*
X015991Y019280D01*
X016062Y019208D01*
X016062Y019137D01*
X015991Y019065D01*
X015847Y019065D01*
X015775Y019137D01*
X015775Y019280D01*
X015602Y019137D02*
X015602Y019424D01*
X015530Y019495D01*
X015315Y019495D01*
X015315Y019065D01*
X015530Y019065D01*
X015602Y019137D01*
X015062Y019224D02*
X014775Y018937D01*
X014775Y018865D01*
X014602Y018937D02*
X014602Y019224D01*
X014530Y019295D01*
X014315Y019295D01*
X014315Y018865D01*
X014530Y018865D01*
X014602Y018937D01*
X014775Y019295D02*
X015062Y019295D01*
X015062Y019224D01*
X013512Y019208D02*
X013512Y019137D01*
X013441Y019065D01*
X013297Y019065D01*
X013225Y019137D01*
X013225Y019208D01*
X013297Y019280D01*
X013441Y019280D01*
X013512Y019208D01*
X013441Y019280D02*
X013512Y019352D01*
X013512Y019424D01*
X013441Y019495D01*
X013297Y019495D01*
X013225Y019424D01*
X013225Y019352D01*
X013297Y019280D01*
X013052Y019137D02*
X013052Y019424D01*
X012980Y019495D01*
X012765Y019495D01*
X012765Y019065D01*
X012980Y019065D01*
X013052Y019137D01*
X012512Y019080D02*
X012297Y019080D01*
X012225Y019152D01*
X012225Y019224D01*
X012297Y019295D01*
X012441Y019295D01*
X012512Y019224D01*
X012512Y018937D01*
X012441Y018865D01*
X012297Y018865D01*
X012225Y018937D01*
X012052Y018937D02*
X012052Y019224D01*
X011980Y019295D01*
X011765Y019295D01*
X011765Y018865D01*
X011980Y018865D01*
X012052Y018937D01*
D16*
X008288Y015430D02*
X007930Y015430D01*
X007928Y015403D01*
X007923Y015376D01*
X007913Y015350D01*
X007901Y015326D01*
X007885Y015304D01*
X007867Y015284D01*
X007845Y015267D01*
X007822Y015252D01*
X007797Y015242D01*
X007771Y015234D01*
X007744Y015230D01*
X007716Y015230D01*
X007689Y015234D01*
X007663Y015242D01*
X007638Y015252D01*
X007615Y015267D01*
X007593Y015284D01*
X007575Y015304D01*
X007559Y015326D01*
X007547Y015350D01*
X007537Y015376D01*
X007532Y015403D01*
X007530Y015430D01*
X007173Y015430D01*
X007150Y015428D01*
X007127Y015423D01*
X007105Y015414D01*
X007085Y015401D01*
X007067Y015386D01*
X007052Y015368D01*
X007039Y015348D01*
X007030Y015326D01*
X007025Y015303D01*
X007023Y015280D01*
X007023Y015269D02*
X007023Y012068D01*
X007023Y012080D02*
X007025Y012057D01*
X007030Y012034D01*
X007039Y012012D01*
X007052Y011992D01*
X007067Y011974D01*
X007085Y011959D01*
X007105Y011946D01*
X007127Y011937D01*
X007150Y011932D01*
X007173Y011930D01*
X008288Y011930D01*
X008311Y011932D01*
X008334Y011937D01*
X008356Y011946D01*
X008376Y011959D01*
X008394Y011974D01*
X008409Y011992D01*
X008422Y012012D01*
X008431Y012034D01*
X008436Y012057D01*
X008438Y012080D01*
X008438Y012068D02*
X008438Y015269D01*
X008438Y015280D02*
X008436Y015303D01*
X008431Y015326D01*
X008422Y015348D01*
X008409Y015368D01*
X008394Y015386D01*
X008376Y015401D01*
X008356Y015414D01*
X008334Y015423D01*
X008311Y015428D01*
X008288Y015430D01*
X005430Y016430D02*
X001430Y016430D01*
X001430Y012430D01*
X005430Y012430D01*
X005430Y008430D01*
X001430Y008430D01*
X001430Y004430D01*
X005430Y004430D01*
X005430Y008430D01*
X001430Y008430D01*
X001430Y012430D01*
X005430Y012430D01*
X005430Y016430D01*
X005304Y019660D02*
X005304Y020000D01*
X005304Y019830D02*
X005077Y019830D01*
X004936Y019830D02*
X004822Y019830D01*
X004936Y019830D02*
X004936Y019717D01*
X004879Y019660D01*
X004766Y019660D01*
X004709Y019717D01*
X004709Y019944D01*
X004766Y020000D01*
X004879Y020000D01*
X004936Y019944D01*
X005077Y020000D02*
X005077Y019660D01*
X004577Y019660D02*
X004463Y019660D01*
X004520Y019660D02*
X004520Y020000D01*
X004463Y020000D02*
X004577Y020000D01*
X004322Y020000D02*
X004322Y019660D01*
X004322Y019830D02*
X004095Y019830D01*
X003953Y019773D02*
X003727Y019773D01*
X003727Y019887D02*
X003953Y019887D01*
X004095Y020000D02*
X004095Y019660D01*
X003585Y019660D02*
X003585Y020000D01*
X003358Y020000D02*
X003358Y019660D01*
X003217Y019717D02*
X003217Y019944D01*
X003160Y020000D01*
X003047Y020000D01*
X002990Y019944D01*
X002990Y019717D01*
X003047Y019660D01*
X003160Y019660D01*
X003217Y019717D01*
X003358Y020000D02*
X003585Y019660D01*
X001050Y015750D02*
X000823Y015750D01*
X000710Y015637D01*
X000823Y015523D01*
X001050Y015523D01*
X000880Y015382D02*
X000880Y015155D01*
X000767Y015268D02*
X000994Y015268D01*
X000994Y013900D02*
X000767Y013900D01*
X000710Y013843D01*
X000710Y013730D01*
X000767Y013673D01*
X000880Y013673D01*
X000880Y013787D01*
X000994Y013900D02*
X001050Y013843D01*
X001050Y013730D01*
X000994Y013673D01*
X001050Y013532D02*
X000710Y013305D01*
X001050Y013305D01*
X001050Y013163D02*
X001050Y012993D01*
X000994Y012937D01*
X000767Y012937D01*
X000710Y012993D01*
X000710Y013163D01*
X001050Y013163D01*
X001050Y013532D02*
X000710Y013532D01*
X000767Y012100D02*
X000710Y012043D01*
X000710Y011930D01*
X000767Y011873D01*
X000994Y011873D01*
X001050Y011930D01*
X001050Y012043D01*
X000994Y012100D01*
X000767Y012100D01*
X000767Y011732D02*
X000710Y011675D01*
X000710Y011562D01*
X000767Y011505D01*
X001050Y011505D01*
X001050Y011363D02*
X001050Y011137D01*
X001050Y011250D02*
X000710Y011250D01*
X000710Y010995D02*
X000710Y010768D01*
X000710Y010882D02*
X001050Y010882D01*
X000937Y010995D01*
X001050Y011732D02*
X000767Y011732D01*
X000767Y010100D02*
X000710Y010043D01*
X000710Y009930D01*
X000767Y009873D01*
X000994Y009873D01*
X001050Y009930D01*
X001050Y010043D01*
X000994Y010100D01*
X000767Y010100D01*
X000767Y009732D02*
X000710Y009675D01*
X000710Y009562D01*
X000767Y009505D01*
X001050Y009505D01*
X001050Y009363D02*
X001050Y009137D01*
X001050Y009250D02*
X000710Y009250D01*
X000710Y008995D02*
X000937Y008768D01*
X000994Y008768D01*
X001050Y008825D01*
X001050Y008938D01*
X000994Y008995D01*
X000710Y008995D02*
X000710Y008768D01*
X000817Y008100D02*
X000760Y008043D01*
X000760Y007930D01*
X000817Y007873D01*
X001044Y007873D01*
X001100Y007930D01*
X001100Y008043D01*
X001044Y008100D01*
X000817Y008100D01*
X000817Y007732D02*
X000760Y007675D01*
X000760Y007562D01*
X000817Y007505D01*
X001100Y007505D01*
X001100Y007363D02*
X001100Y007137D01*
X001100Y007250D02*
X000760Y007250D01*
X000817Y006995D02*
X000760Y006938D01*
X000760Y006825D01*
X000817Y006768D01*
X000873Y006768D01*
X000930Y006825D01*
X000930Y006882D01*
X000930Y006825D02*
X000987Y006768D01*
X001044Y006768D01*
X001100Y006825D01*
X001100Y006938D01*
X001044Y006995D01*
X001100Y007732D02*
X000817Y007732D01*
X000817Y006100D02*
X000760Y006043D01*
X000760Y005930D01*
X000817Y005873D01*
X001044Y005873D01*
X001100Y005930D01*
X001100Y006043D01*
X001044Y006100D01*
X000817Y006100D01*
X000817Y005732D02*
X000760Y005675D01*
X000760Y005562D01*
X000817Y005505D01*
X001100Y005505D01*
X001100Y005363D02*
X001100Y005137D01*
X001100Y005250D02*
X000760Y005250D01*
X000930Y004995D02*
X000930Y004768D01*
X000760Y004825D02*
X001100Y004825D01*
X000930Y004995D01*
X000817Y005732D02*
X001100Y005732D01*
X001050Y009732D02*
X000767Y009732D01*
X006793Y009410D02*
X008377Y009410D01*
X008240Y007665D02*
X008242Y007681D01*
X008247Y007696D01*
X008256Y007710D01*
X008268Y007721D01*
X008282Y007729D01*
X008298Y007734D01*
X008314Y007735D01*
X008330Y007732D01*
X008345Y007726D01*
X008358Y007716D01*
X008368Y007703D01*
X008376Y007689D01*
X008380Y007673D01*
X008380Y007657D01*
X008376Y007641D01*
X008368Y007627D01*
X008358Y007614D01*
X008345Y007604D01*
X008330Y007598D01*
X008314Y007595D01*
X008298Y007596D01*
X008282Y007601D01*
X008268Y007609D01*
X008256Y007620D01*
X008247Y007634D01*
X008242Y007649D01*
X008240Y007665D01*
X008377Y007460D02*
X006793Y007460D01*
X005730Y003180D02*
X005730Y002880D01*
X005580Y003030D02*
X005880Y003030D01*
X005330Y002580D02*
X005332Y002660D01*
X005338Y002739D01*
X005348Y002818D01*
X005362Y002897D01*
X005379Y002975D01*
X005401Y003052D01*
X005426Y003127D01*
X005456Y003201D01*
X005488Y003274D01*
X005525Y003345D01*
X005565Y003414D01*
X005608Y003481D01*
X005655Y003546D01*
X005704Y003608D01*
X005757Y003668D01*
X005813Y003725D01*
X005871Y003780D01*
X005932Y003831D01*
X005996Y003879D01*
X006062Y003924D01*
X006130Y003966D01*
X006200Y004004D01*
X006272Y004038D01*
X006345Y004069D01*
X006420Y004097D01*
X006497Y004120D01*
X006574Y004140D01*
X006652Y004156D01*
X006731Y004168D01*
X006810Y004176D01*
X006890Y004180D01*
X006970Y004180D01*
X007050Y004176D01*
X007129Y004168D01*
X007208Y004156D01*
X007286Y004140D01*
X007363Y004120D01*
X007440Y004097D01*
X007515Y004069D01*
X007588Y004038D01*
X007660Y004004D01*
X007730Y003966D01*
X007798Y003924D01*
X007864Y003879D01*
X007928Y003831D01*
X007989Y003780D01*
X008047Y003725D01*
X008103Y003668D01*
X008156Y003608D01*
X008205Y003546D01*
X008252Y003481D01*
X008295Y003414D01*
X008335Y003345D01*
X008372Y003274D01*
X008404Y003201D01*
X008434Y003127D01*
X008459Y003052D01*
X008481Y002975D01*
X008498Y002897D01*
X008512Y002818D01*
X008522Y002739D01*
X008528Y002660D01*
X008530Y002580D01*
X008528Y002500D01*
X008522Y002421D01*
X008512Y002342D01*
X008498Y002263D01*
X008481Y002185D01*
X008459Y002108D01*
X008434Y002033D01*
X008404Y001959D01*
X008372Y001886D01*
X008335Y001815D01*
X008295Y001746D01*
X008252Y001679D01*
X008205Y001614D01*
X008156Y001552D01*
X008103Y001492D01*
X008047Y001435D01*
X007989Y001380D01*
X007928Y001329D01*
X007864Y001281D01*
X007798Y001236D01*
X007730Y001194D01*
X007660Y001156D01*
X007588Y001122D01*
X007515Y001091D01*
X007440Y001063D01*
X007363Y001040D01*
X007286Y001020D01*
X007208Y001004D01*
X007129Y000992D01*
X007050Y000984D01*
X006970Y000980D01*
X006890Y000980D01*
X006810Y000984D01*
X006731Y000992D01*
X006652Y001004D01*
X006574Y001020D01*
X006497Y001040D01*
X006420Y001063D01*
X006345Y001091D01*
X006272Y001122D01*
X006200Y001156D01*
X006130Y001194D01*
X006062Y001236D01*
X005996Y001281D01*
X005932Y001329D01*
X005871Y001380D01*
X005813Y001435D01*
X005757Y001492D01*
X005704Y001552D01*
X005655Y001614D01*
X005608Y001679D01*
X005565Y001746D01*
X005525Y001815D01*
X005488Y001886D01*
X005456Y001959D01*
X005426Y002033D01*
X005401Y002108D01*
X005379Y002185D01*
X005362Y002263D01*
X005348Y002342D01*
X005338Y002421D01*
X005332Y002500D01*
X005330Y002580D01*
X013460Y004517D02*
X013517Y004460D01*
X013630Y004460D01*
X013687Y004517D01*
X013687Y004630D01*
X013573Y004630D01*
X013460Y004517D02*
X013460Y004744D01*
X013517Y004800D01*
X013630Y004800D01*
X013687Y004744D01*
X013828Y004800D02*
X014055Y004460D01*
X014055Y004800D01*
X014197Y004800D02*
X014367Y004800D01*
X014423Y004744D01*
X014423Y004517D01*
X014367Y004460D01*
X014197Y004460D01*
X014197Y004800D01*
X013828Y004800D02*
X013828Y004460D01*
D17*
X013680Y002455D03*
X012680Y001905D03*
X011680Y002455D03*
X010680Y001905D03*
X009680Y002455D03*
X014680Y001905D03*
X011080Y018905D03*
X010080Y019455D03*
X009080Y018905D03*
X008080Y019455D03*
X007080Y018905D03*
D18*
X007080Y019630D03*
X006080Y019630D03*
X006080Y018730D03*
X008080Y018730D03*
X009080Y019630D03*
X010080Y018730D03*
X011080Y019630D03*
X012080Y018730D03*
X013080Y019630D03*
X014680Y018730D03*
X015680Y019630D03*
X016680Y018730D03*
X017680Y019630D03*
X018680Y018730D03*
X019680Y019630D03*
X020680Y018730D03*
X021680Y019630D03*
X021680Y002630D03*
X020680Y001730D03*
X019680Y002630D03*
X018680Y001730D03*
X017680Y002630D03*
X016680Y001730D03*
X014680Y002630D03*
X013680Y001730D03*
X012680Y002630D03*
X011680Y001730D03*
X010680Y002630D03*
X009680Y001730D03*
D19*
X016680Y002530D03*
X017680Y001830D03*
X018680Y002530D03*
X019680Y001830D03*
X020680Y002530D03*
X021680Y001830D03*
X021680Y018830D03*
X020680Y019530D03*
X019680Y018830D03*
X018680Y019530D03*
X017680Y018830D03*
X016680Y019530D03*
X015680Y018830D03*
X014680Y019530D03*
X013080Y018830D03*
X012080Y019530D03*
X003580Y019130D03*
D20*
X004580Y019015D03*
D21*
X003730Y019380D03*
D22*
X001830Y020390D03*
D23*
X003580Y017745D03*
D24*
X003583Y017585D03*
D25*
X003580Y017855D03*
D26*
X001830Y020785D03*
D27*
X003480Y018530D02*
X003480Y018430D01*
X003680Y018430D02*
X003680Y018530D01*
X001830Y017030D02*
X001730Y017030D01*
X001730Y016830D02*
X001830Y016830D01*
X008330Y016230D02*
X008330Y016130D01*
X008530Y016130D02*
X008530Y016230D01*
X009080Y016230D02*
X009080Y016130D01*
X009280Y016130D02*
X009280Y016230D01*
X013330Y015230D02*
X013330Y015130D01*
X013530Y015130D02*
X013530Y015230D01*
X013880Y012780D02*
X013980Y012780D01*
X013980Y012580D02*
X013880Y012580D01*
X013880Y012030D02*
X013980Y012030D01*
X013980Y011830D02*
X013880Y011830D01*
X013880Y011280D02*
X013980Y011280D01*
X013980Y011080D02*
X013880Y011080D01*
X013880Y010530D02*
X013980Y010530D01*
X013980Y010330D02*
X013880Y010330D01*
X013880Y009780D02*
X013980Y009780D01*
X013980Y009580D02*
X013880Y009580D01*
X013880Y008780D02*
X013980Y008780D01*
X013980Y008580D02*
X013880Y008580D01*
X013880Y008030D02*
X013980Y008030D01*
X013980Y007830D02*
X013880Y007830D01*
X013880Y007280D02*
X013980Y007280D01*
X013980Y007080D02*
X013880Y007080D01*
X013880Y006280D02*
X013980Y006280D01*
X013980Y006080D02*
X013880Y006080D01*
X011780Y007130D02*
X011780Y007230D01*
X011580Y007230D02*
X011580Y007130D01*
X011030Y007130D02*
X011030Y007230D01*
X010830Y007230D02*
X010830Y007130D01*
X010280Y007130D02*
X010280Y007230D01*
X010080Y007230D02*
X010080Y007130D01*
X006980Y004905D02*
X006880Y004905D01*
X006880Y004705D02*
X006980Y004705D01*
X005280Y001480D02*
X005280Y001380D01*
X005080Y001380D02*
X005080Y001480D01*
X003530Y001480D02*
X003530Y001380D01*
X003330Y001380D02*
X003330Y001480D01*
M02*
