G75*
G70*
%OFA0B0*%
%FSLAX24Y24*%
%IPPOS*%
%LPD*%
%AMOC8*
5,1,8,0,0,1.08239X$1,22.5*
%
%ADD10C,0.0600*%
%ADD11R,0.0600X0.0600*%
%ADD12C,0.1300*%
%ADD13OC8,0.0630*%
%ADD14C,0.0630*%
%ADD15C,0.0240*%
%ADD16C,0.0357*%
%ADD17C,0.0080*%
%ADD18C,0.0160*%
%ADD19C,0.0320*%
%ADD20C,0.0120*%
D10*
X009680Y001180D03*
X010680Y001180D03*
X011680Y001180D03*
X012680Y001180D03*
X013680Y001180D03*
X014680Y001180D03*
X016680Y001180D03*
X017680Y001180D03*
X018680Y001180D03*
X019680Y001180D03*
X020680Y001180D03*
X021680Y001180D03*
X021680Y003180D03*
X020680Y003180D03*
X019680Y003180D03*
X018680Y003180D03*
X017680Y003180D03*
X016680Y003180D03*
X016180Y004680D03*
X015180Y004680D03*
X015180Y005680D03*
X016180Y005680D03*
X016180Y006680D03*
X016180Y007680D03*
X015180Y007680D03*
X015180Y006680D03*
X015180Y008680D03*
X015180Y009680D03*
X015180Y010680D03*
X015180Y011680D03*
X015180Y012680D03*
X015180Y013680D03*
X015180Y014680D03*
X017180Y014680D03*
X017180Y013680D03*
X018180Y013680D03*
X018180Y014680D03*
X019180Y014680D03*
X019180Y013680D03*
X020180Y013680D03*
X020180Y014680D03*
X021180Y014680D03*
X021180Y013680D03*
X022180Y013680D03*
X022180Y014680D03*
X022180Y015680D03*
X021180Y015680D03*
X020180Y015680D03*
X019180Y015680D03*
X018180Y015680D03*
X017180Y015680D03*
X017180Y016680D03*
X018180Y016680D03*
X019180Y016680D03*
X020180Y016680D03*
X021180Y016680D03*
X020680Y018180D03*
X019680Y018180D03*
X018680Y018180D03*
X017680Y018180D03*
X016680Y018180D03*
X015680Y018180D03*
X014680Y018180D03*
X015180Y016680D03*
X016180Y016680D03*
X015680Y020180D03*
X014680Y020180D03*
X016680Y020180D03*
X017680Y020180D03*
X018680Y020180D03*
X019680Y020180D03*
X020680Y020180D03*
X020180Y012680D03*
X019180Y012680D03*
X018180Y012680D03*
X017180Y012680D03*
X018180Y011680D03*
X018180Y010680D03*
X019180Y010680D03*
X019180Y011680D03*
X020180Y011680D03*
X020180Y010680D03*
X021180Y010680D03*
X021180Y011680D03*
X022180Y011680D03*
X022180Y010680D03*
X022180Y009680D03*
X021180Y009680D03*
X020180Y009680D03*
X019180Y009680D03*
X019180Y008680D03*
X020180Y008680D03*
X021180Y008680D03*
X022180Y008680D03*
X022180Y007680D03*
X022180Y006680D03*
X021180Y006680D03*
X021180Y007680D03*
X020180Y007680D03*
X020180Y006680D03*
X019180Y006680D03*
X019180Y007680D03*
X018180Y007680D03*
X018180Y006680D03*
X017180Y006680D03*
X017180Y007680D03*
X017180Y005680D03*
X018180Y005680D03*
X019180Y005680D03*
X020180Y005680D03*
X021180Y005680D03*
X022180Y005680D03*
X021180Y004680D03*
X020180Y004680D03*
X019180Y004680D03*
X018180Y004680D03*
X017180Y004680D03*
X014680Y003180D03*
X013680Y003180D03*
X012680Y003180D03*
X011680Y003180D03*
X010680Y003180D03*
X009680Y003180D03*
X011180Y008680D03*
X011180Y009680D03*
X011180Y010680D03*
X011180Y011680D03*
X011180Y012680D03*
X011180Y013680D03*
X011180Y014680D03*
X011180Y015680D03*
X012180Y015680D03*
X012180Y014680D03*
X012180Y013680D03*
X012180Y012680D03*
X012180Y011680D03*
X012180Y010680D03*
X012180Y009680D03*
X012180Y008680D03*
X021180Y012680D03*
X022180Y012680D03*
X012080Y018180D03*
X011080Y018180D03*
X010080Y018180D03*
X009080Y018180D03*
X008080Y018180D03*
X007080Y018180D03*
X006080Y018180D03*
X004580Y018180D03*
X006080Y020180D03*
X007080Y020180D03*
X008080Y020180D03*
X009080Y020180D03*
X010080Y020180D03*
X011080Y020180D03*
X012080Y020180D03*
D11*
X013080Y020180D03*
X013080Y018180D03*
X015180Y015680D03*
X021680Y018180D03*
X022180Y016680D03*
X021680Y020180D03*
X022180Y004680D03*
D12*
X003430Y005430D03*
X003430Y007430D03*
X003430Y009430D03*
X003430Y011430D03*
X003430Y013430D03*
X003430Y015430D03*
D13*
X007630Y002580D03*
D14*
X006230Y002580D03*
D15*
X009680Y003180D02*
X009680Y001180D01*
X010680Y001180D02*
X010680Y003180D01*
X014680Y003180D02*
X014680Y001180D01*
X016680Y001180D02*
X016680Y003180D01*
X017680Y003180D02*
X017680Y001180D01*
X018680Y001180D02*
X018680Y003180D01*
X019680Y003180D02*
X019680Y001180D01*
X020680Y001180D02*
X020680Y003180D01*
X021680Y003180D02*
X021680Y001180D01*
X021680Y018180D02*
X021680Y020180D01*
X020680Y020180D02*
X020680Y018180D01*
X019680Y018180D02*
X019680Y020180D01*
X018680Y020180D02*
X018680Y018180D01*
X017680Y018180D02*
X017680Y020180D01*
X016680Y020180D02*
X016680Y018180D01*
X015680Y018180D02*
X015680Y020180D01*
X014680Y020180D02*
X014680Y018180D01*
X013080Y018180D02*
X013080Y020180D01*
X012080Y020180D02*
X012080Y018180D01*
X011080Y018180D02*
X011080Y020180D01*
X010080Y020180D02*
X010080Y018180D01*
X009080Y018180D02*
X009080Y020180D01*
X008080Y020180D02*
X008080Y018180D01*
X006080Y018180D02*
X006080Y020180D01*
D16*
X000930Y016930D03*
X007330Y011930D03*
X008030Y012580D03*
X007430Y012680D03*
X007930Y013180D03*
X007930Y014180D03*
X007430Y014180D03*
X007430Y015180D03*
X009730Y013780D03*
X008680Y011030D03*
X009430Y010680D03*
X009180Y010180D03*
X008730Y009980D03*
X007930Y009680D03*
X007680Y009930D03*
X007430Y009680D03*
X007180Y009930D03*
X006930Y009680D03*
X006680Y009930D03*
X006430Y009680D03*
X005680Y009930D03*
X004930Y009180D03*
X004930Y007680D03*
X005680Y006930D03*
X006430Y006930D03*
X006680Y007180D03*
X006930Y006930D03*
X007180Y007180D03*
X007430Y006930D03*
X007680Y007180D03*
X007930Y006930D03*
X008180Y007180D03*
X008430Y006930D03*
X008680Y007180D03*
X009380Y008180D03*
X010130Y007930D03*
X011680Y010180D03*
X013030Y008030D03*
X014030Y006680D03*
X013930Y013180D03*
X013055Y013805D03*
X013430Y014430D03*
X004930Y010680D03*
X005180Y005930D03*
X003430Y002680D03*
D17*
X009430Y010680D02*
X009430Y011180D01*
X008930Y011680D01*
X008430Y011680D01*
X007430Y012680D01*
X007105Y012455D02*
X007280Y012280D01*
X007430Y012280D01*
X008680Y011030D01*
X007330Y011930D02*
X006830Y012430D01*
X006830Y013080D01*
X007430Y013680D01*
X009180Y013680D01*
X009280Y013780D01*
X009730Y013780D01*
X009980Y013480D02*
X007630Y013480D01*
X007105Y012955D01*
X007105Y012455D01*
X007930Y014180D02*
X008930Y015180D01*
X014680Y015180D01*
X015180Y014680D01*
X012430Y012180D02*
X011930Y012180D01*
X011680Y012430D01*
X011680Y012930D01*
D18*
X000571Y000894D02*
X000711Y000711D01*
X000894Y000571D01*
X001106Y000481D01*
X001206Y000460D01*
X021680Y000460D01*
X021793Y000469D01*
X022007Y000538D01*
X022189Y000671D01*
X022322Y000853D01*
X022391Y001067D01*
X022400Y001180D01*
X022400Y001236D01*
X022443Y001339D01*
X023400Y002296D01*
X023400Y004337D01*
X023400Y004337D01*
X023400Y004316D01*
X023383Y004276D01*
X023372Y004234D01*
X023359Y004218D01*
X023351Y004199D01*
X023320Y004168D01*
X023009Y003768D01*
X023001Y003749D01*
X022970Y003718D01*
X022944Y003683D01*
X022926Y003673D01*
X022911Y003659D01*
X022871Y003642D01*
X022833Y003620D01*
X022813Y003618D01*
X022794Y003610D01*
X022750Y003610D01*
X022707Y003605D01*
X022687Y003610D01*
X021844Y003610D01*
X021941Y003570D01*
X022070Y003441D01*
X022140Y003271D01*
X022140Y003088D01*
X022070Y002919D01*
X021960Y002809D01*
X021960Y001551D01*
X022070Y001441D01*
X022140Y001271D01*
X022140Y001088D01*
X022070Y000919D01*
X021941Y000790D01*
X021771Y000720D01*
X021588Y000720D01*
X021419Y000790D01*
X021290Y000919D01*
X021220Y001088D01*
X021220Y001271D01*
X021290Y001441D01*
X021400Y001551D01*
X021400Y002809D01*
X021290Y002919D01*
X021220Y003088D01*
X021220Y003271D01*
X021290Y003441D01*
X021419Y003570D01*
X021516Y003610D01*
X020844Y003610D01*
X020941Y003570D01*
X021070Y003441D01*
X021140Y003271D01*
X021140Y003088D01*
X021070Y002919D01*
X020960Y002809D01*
X020960Y001551D01*
X021070Y001441D01*
X021140Y001271D01*
X021140Y001088D01*
X021070Y000919D01*
X020941Y000790D01*
X020771Y000720D01*
X020588Y000720D01*
X020419Y000790D01*
X020290Y000919D01*
X020220Y001088D01*
X020220Y001271D01*
X020290Y001441D01*
X020400Y001551D01*
X020400Y002809D01*
X020290Y002919D01*
X020220Y003088D01*
X020220Y003271D01*
X020290Y003441D01*
X020419Y003570D01*
X020516Y003610D01*
X019844Y003610D01*
X019941Y003570D01*
X020070Y003441D01*
X020140Y003271D01*
X020140Y003088D01*
X020070Y002919D01*
X019960Y002809D01*
X019960Y001551D01*
X020070Y001441D01*
X020140Y001271D01*
X020140Y001088D01*
X020070Y000919D01*
X019941Y000790D01*
X019771Y000720D01*
X019588Y000720D01*
X019419Y000790D01*
X019290Y000919D01*
X019220Y001088D01*
X019220Y001271D01*
X019290Y001441D01*
X019400Y001551D01*
X019400Y002809D01*
X019290Y002919D01*
X019220Y003088D01*
X019220Y003271D01*
X019290Y003441D01*
X019419Y003570D01*
X019516Y003610D01*
X018844Y003610D01*
X018941Y003570D01*
X019070Y003441D01*
X019140Y003271D01*
X019140Y003088D01*
X019070Y002919D01*
X018960Y002809D01*
X018960Y001551D01*
X019070Y001441D01*
X019140Y001271D01*
X019140Y001088D01*
X019070Y000919D01*
X018941Y000790D01*
X018771Y000720D01*
X018588Y000720D01*
X018419Y000790D01*
X018290Y000919D01*
X018220Y001088D01*
X018220Y001271D01*
X018290Y001441D01*
X018400Y001551D01*
X018400Y002809D01*
X018290Y002919D01*
X018220Y003088D01*
X018220Y003271D01*
X018290Y003441D01*
X018419Y003570D01*
X018516Y003610D01*
X017844Y003610D01*
X017941Y003570D01*
X018070Y003441D01*
X018140Y003271D01*
X018140Y003088D01*
X018070Y002919D01*
X017960Y002809D01*
X017960Y001551D01*
X018070Y001441D01*
X018140Y001271D01*
X018140Y001088D01*
X018070Y000919D01*
X017941Y000790D01*
X017771Y000720D01*
X017588Y000720D01*
X017419Y000790D01*
X017290Y000919D01*
X017220Y001088D01*
X017220Y001271D01*
X017290Y001441D01*
X017400Y001551D01*
X017400Y002809D01*
X017290Y002919D01*
X017220Y003088D01*
X017220Y003271D01*
X017290Y003441D01*
X017419Y003570D01*
X017516Y003610D01*
X016844Y003610D01*
X016941Y003570D01*
X017070Y003441D01*
X017140Y003271D01*
X017140Y003088D01*
X017070Y002919D01*
X016960Y002809D01*
X016960Y001551D01*
X017070Y001441D01*
X017140Y001271D01*
X017140Y001088D01*
X017070Y000919D01*
X016941Y000790D01*
X016771Y000720D01*
X016588Y000720D01*
X016419Y000790D01*
X016290Y000919D01*
X016220Y001088D01*
X016220Y001271D01*
X016290Y001441D01*
X016400Y001551D01*
X016400Y002809D01*
X016290Y002919D01*
X016220Y003088D01*
X016220Y003271D01*
X016290Y003441D01*
X016419Y003570D01*
X016516Y003610D01*
X014844Y003610D01*
X014941Y003570D01*
X015070Y003441D01*
X015140Y003271D01*
X015140Y003088D01*
X015070Y002919D01*
X014960Y002809D01*
X014960Y001551D01*
X015070Y001441D01*
X015140Y001271D01*
X015140Y001088D01*
X015070Y000919D01*
X014941Y000790D01*
X014771Y000720D01*
X014588Y000720D01*
X014419Y000790D01*
X014290Y000919D01*
X014220Y001088D01*
X014220Y001271D01*
X014290Y001441D01*
X014400Y001551D01*
X014400Y002809D01*
X014290Y002919D01*
X014220Y003088D01*
X014220Y003271D01*
X014290Y003441D01*
X014419Y003570D01*
X014516Y003610D01*
X013845Y003610D01*
X013857Y003606D01*
X013921Y003573D01*
X013980Y003531D01*
X014031Y003480D01*
X014073Y003421D01*
X014106Y003357D01*
X014129Y003288D01*
X014140Y003216D01*
X014140Y003200D01*
X013700Y003200D01*
X013700Y003160D01*
X014140Y003160D01*
X014140Y003144D01*
X014129Y003072D01*
X014106Y003003D01*
X014073Y002939D01*
X014031Y002880D01*
X013980Y002829D01*
X013921Y002787D01*
X013857Y002754D01*
X013788Y002731D01*
X013716Y002720D01*
X013700Y002720D01*
X013700Y003160D01*
X013660Y003160D01*
X013660Y002720D01*
X013644Y002720D01*
X013572Y002731D01*
X013503Y002754D01*
X013439Y002787D01*
X013380Y002829D01*
X013329Y002880D01*
X013287Y002939D01*
X013254Y003003D01*
X013231Y003072D01*
X013220Y003144D01*
X013220Y003160D01*
X013660Y003160D01*
X013660Y003200D01*
X013220Y003200D01*
X013220Y003216D01*
X013231Y003288D01*
X013254Y003357D01*
X013287Y003421D01*
X013329Y003480D01*
X013380Y003531D01*
X013439Y003573D01*
X013503Y003606D01*
X013515Y003610D01*
X012845Y003610D01*
X012857Y003606D01*
X012921Y003573D01*
X012980Y003531D01*
X013031Y003480D01*
X013073Y003421D01*
X013106Y003357D01*
X013129Y003288D01*
X013140Y003216D01*
X013140Y003200D01*
X012700Y003200D01*
X012700Y003160D01*
X013140Y003160D01*
X013140Y003144D01*
X013129Y003072D01*
X013106Y003003D01*
X013073Y002939D01*
X013031Y002880D01*
X012980Y002829D01*
X012921Y002787D01*
X012857Y002754D01*
X012788Y002731D01*
X012716Y002720D01*
X012700Y002720D01*
X012700Y003160D01*
X012660Y003160D01*
X012660Y002720D01*
X012644Y002720D01*
X012572Y002731D01*
X012503Y002754D01*
X012439Y002787D01*
X012380Y002829D01*
X012329Y002880D01*
X012287Y002939D01*
X012254Y003003D01*
X012231Y003072D01*
X012220Y003144D01*
X012220Y003160D01*
X012660Y003160D01*
X012660Y003200D01*
X012220Y003200D01*
X012220Y003216D01*
X012230Y003277D01*
X012140Y003187D01*
X012140Y003088D01*
X012070Y002919D01*
X012000Y002849D01*
X012000Y001511D01*
X012070Y001441D01*
X012140Y001271D01*
X012140Y001088D01*
X012070Y000919D01*
X011941Y000790D01*
X011771Y000720D01*
X011588Y000720D01*
X011419Y000790D01*
X011290Y000919D01*
X011220Y001088D01*
X011220Y001271D01*
X011290Y001441D01*
X011360Y001511D01*
X011360Y002849D01*
X011290Y002919D01*
X011220Y003088D01*
X011220Y003271D01*
X011290Y003441D01*
X011419Y003570D01*
X011588Y003640D01*
X011687Y003640D01*
X012159Y004111D01*
X012249Y004201D01*
X012366Y004250D01*
X015015Y004250D01*
X015003Y004254D01*
X014939Y004287D01*
X014880Y004329D01*
X014829Y004380D01*
X014787Y004439D01*
X014754Y004503D01*
X014731Y004572D01*
X014720Y004644D01*
X014720Y004660D01*
X015160Y004660D01*
X015160Y004700D01*
X015160Y005140D01*
X015144Y005140D01*
X015072Y005129D01*
X015003Y005106D01*
X014939Y005073D01*
X014880Y005031D01*
X014829Y004980D01*
X014787Y004921D01*
X014754Y004857D01*
X014731Y004788D01*
X014720Y004716D01*
X014720Y004700D01*
X015160Y004700D01*
X015200Y004700D01*
X015200Y005140D01*
X015216Y005140D01*
X015288Y005129D01*
X015357Y005106D01*
X015421Y005073D01*
X015480Y005031D01*
X015531Y004980D01*
X015573Y004921D01*
X015606Y004857D01*
X015629Y004788D01*
X015640Y004716D01*
X015640Y004700D01*
X015200Y004700D01*
X015200Y004660D01*
X015640Y004660D01*
X015640Y004644D01*
X015629Y004572D01*
X015606Y004503D01*
X015573Y004439D01*
X015531Y004380D01*
X015480Y004329D01*
X015421Y004287D01*
X015357Y004254D01*
X015345Y004250D01*
X016015Y004250D01*
X016003Y004254D01*
X015939Y004287D01*
X015880Y004329D01*
X015829Y004380D01*
X015787Y004439D01*
X015754Y004503D01*
X015731Y004572D01*
X015720Y004644D01*
X015720Y004660D01*
X016160Y004660D01*
X016160Y004700D01*
X016160Y005140D01*
X016144Y005140D01*
X016072Y005129D01*
X016003Y005106D01*
X015939Y005073D01*
X015880Y005031D01*
X015829Y004980D01*
X015787Y004921D01*
X015754Y004857D01*
X015731Y004788D01*
X015720Y004716D01*
X015720Y004700D01*
X016160Y004700D01*
X016200Y004700D01*
X016200Y005140D01*
X016216Y005140D01*
X016288Y005129D01*
X016357Y005106D01*
X016421Y005073D01*
X016480Y005031D01*
X016531Y004980D01*
X016573Y004921D01*
X016606Y004857D01*
X016629Y004788D01*
X016640Y004716D01*
X016640Y004700D01*
X016200Y004700D01*
X016200Y004660D01*
X016640Y004660D01*
X016640Y004644D01*
X016629Y004572D01*
X016606Y004503D01*
X016573Y004439D01*
X016531Y004380D01*
X016480Y004329D01*
X016421Y004287D01*
X016357Y004254D01*
X016345Y004250D01*
X017015Y004250D01*
X017003Y004254D01*
X016939Y004287D01*
X016880Y004329D01*
X016829Y004380D01*
X016787Y004439D01*
X016754Y004503D01*
X016731Y004572D01*
X016720Y004644D01*
X016720Y004660D01*
X017160Y004660D01*
X017160Y004700D01*
X017160Y005140D01*
X017144Y005140D01*
X017072Y005129D01*
X017003Y005106D01*
X016939Y005073D01*
X016880Y005031D01*
X016829Y004980D01*
X016787Y004921D01*
X016754Y004857D01*
X016731Y004788D01*
X016720Y004716D01*
X016720Y004700D01*
X017160Y004700D01*
X017200Y004700D01*
X017200Y005140D01*
X017216Y005140D01*
X017288Y005129D01*
X017357Y005106D01*
X017421Y005073D01*
X017480Y005031D01*
X017531Y004980D01*
X017573Y004921D01*
X017606Y004857D01*
X017629Y004788D01*
X017640Y004716D01*
X017640Y004700D01*
X017200Y004700D01*
X017200Y004660D01*
X017640Y004660D01*
X017640Y004644D01*
X017629Y004572D01*
X017606Y004503D01*
X017573Y004439D01*
X017531Y004380D01*
X017480Y004329D01*
X017421Y004287D01*
X017357Y004254D01*
X017345Y004250D01*
X018015Y004250D01*
X018003Y004254D01*
X017939Y004287D01*
X017880Y004329D01*
X017829Y004380D01*
X017787Y004439D01*
X017754Y004503D01*
X017731Y004572D01*
X017720Y004644D01*
X017720Y004660D01*
X018160Y004660D01*
X018160Y004700D01*
X018160Y005140D01*
X018144Y005140D01*
X018072Y005129D01*
X018003Y005106D01*
X017939Y005073D01*
X017880Y005031D01*
X017829Y004980D01*
X017787Y004921D01*
X017754Y004857D01*
X017731Y004788D01*
X017720Y004716D01*
X017720Y004700D01*
X018160Y004700D01*
X018200Y004700D01*
X018200Y005140D01*
X018216Y005140D01*
X018288Y005129D01*
X018357Y005106D01*
X018421Y005073D01*
X018480Y005031D01*
X018531Y004980D01*
X018573Y004921D01*
X018606Y004857D01*
X018629Y004788D01*
X018640Y004716D01*
X018640Y004700D01*
X018200Y004700D01*
X018200Y004660D01*
X018640Y004660D01*
X018640Y004644D01*
X018629Y004572D01*
X018606Y004503D01*
X018573Y004439D01*
X018531Y004380D01*
X018480Y004329D01*
X018421Y004287D01*
X018357Y004254D01*
X018345Y004250D01*
X019015Y004250D01*
X019003Y004254D01*
X018939Y004287D01*
X018880Y004329D01*
X018829Y004380D01*
X018787Y004439D01*
X018754Y004503D01*
X018731Y004572D01*
X018720Y004644D01*
X018720Y004660D01*
X019160Y004660D01*
X019160Y004700D01*
X019160Y005140D01*
X019144Y005140D01*
X019072Y005129D01*
X019003Y005106D01*
X018939Y005073D01*
X018880Y005031D01*
X018829Y004980D01*
X018787Y004921D01*
X018754Y004857D01*
X018731Y004788D01*
X018720Y004716D01*
X018720Y004700D01*
X019160Y004700D01*
X019200Y004700D01*
X019200Y005140D01*
X019216Y005140D01*
X019288Y005129D01*
X019357Y005106D01*
X019421Y005073D01*
X019480Y005031D01*
X019531Y004980D01*
X019573Y004921D01*
X019606Y004857D01*
X019629Y004788D01*
X019640Y004716D01*
X019640Y004700D01*
X019200Y004700D01*
X019200Y004660D01*
X019640Y004660D01*
X019640Y004644D01*
X019629Y004572D01*
X019606Y004503D01*
X019573Y004439D01*
X019531Y004380D01*
X019480Y004329D01*
X019421Y004287D01*
X019357Y004254D01*
X019345Y004250D01*
X020015Y004250D01*
X020003Y004254D01*
X019939Y004287D01*
X019880Y004329D01*
X019829Y004380D01*
X019787Y004439D01*
X019754Y004503D01*
X019731Y004572D01*
X019720Y004644D01*
X019720Y004660D01*
X020160Y004660D01*
X020160Y004700D01*
X020160Y005140D01*
X020144Y005140D01*
X020072Y005129D01*
X020003Y005106D01*
X019939Y005073D01*
X019880Y005031D01*
X019829Y004980D01*
X019787Y004921D01*
X019754Y004857D01*
X019731Y004788D01*
X019720Y004716D01*
X019720Y004700D01*
X020160Y004700D01*
X020200Y004700D01*
X020200Y005140D01*
X020216Y005140D01*
X020288Y005129D01*
X020357Y005106D01*
X020421Y005073D01*
X020480Y005031D01*
X020531Y004980D01*
X020573Y004921D01*
X020606Y004857D01*
X020629Y004788D01*
X020640Y004716D01*
X020640Y004700D01*
X020200Y004700D01*
X020200Y004660D01*
X020640Y004660D01*
X020640Y004644D01*
X020629Y004572D01*
X020606Y004503D01*
X020573Y004439D01*
X020531Y004380D01*
X020480Y004329D01*
X020421Y004287D01*
X020357Y004254D01*
X020345Y004250D01*
X021015Y004250D01*
X021003Y004254D01*
X020939Y004287D01*
X020880Y004329D01*
X020829Y004380D01*
X020787Y004439D01*
X020754Y004503D01*
X020731Y004572D01*
X020720Y004644D01*
X020720Y004660D01*
X021160Y004660D01*
X021160Y004700D01*
X021160Y005140D01*
X021144Y005140D01*
X021072Y005129D01*
X021003Y005106D01*
X020939Y005073D01*
X020880Y005031D01*
X020829Y004980D01*
X020787Y004921D01*
X020754Y004857D01*
X020731Y004788D01*
X020720Y004716D01*
X020720Y004700D01*
X021160Y004700D01*
X021200Y004700D01*
X021200Y005140D01*
X021216Y005140D01*
X021288Y005129D01*
X021357Y005106D01*
X021421Y005073D01*
X021480Y005031D01*
X021531Y004980D01*
X021573Y004921D01*
X021606Y004857D01*
X021629Y004788D01*
X021640Y004716D01*
X021640Y004700D01*
X021200Y004700D01*
X021200Y004660D01*
X021640Y004660D01*
X021640Y004644D01*
X021629Y004572D01*
X021606Y004503D01*
X021573Y004439D01*
X021531Y004380D01*
X021480Y004329D01*
X021421Y004287D01*
X021357Y004254D01*
X021345Y004250D01*
X021785Y004250D01*
X021782Y004252D01*
X021752Y004282D01*
X021731Y004318D01*
X021720Y004359D01*
X021720Y004660D01*
X022160Y004660D01*
X022160Y004700D01*
X022160Y005140D01*
X021859Y005140D01*
X021818Y005129D01*
X021782Y005108D01*
X021752Y005078D01*
X021731Y005042D01*
X021720Y005001D01*
X021720Y004700D01*
X022160Y004700D01*
X022200Y004700D01*
X022200Y005140D01*
X022501Y005140D01*
X022542Y005129D01*
X022578Y005108D01*
X022608Y005078D01*
X022629Y005042D01*
X022640Y005001D01*
X022640Y004700D01*
X022200Y004700D01*
X022200Y004660D01*
X022640Y004660D01*
X022640Y004359D01*
X022630Y004323D01*
X022760Y004490D01*
X022760Y013940D01*
X022570Y013940D01*
X022640Y013771D01*
X022640Y013588D01*
X022570Y013419D01*
X022441Y013290D01*
X022271Y013220D01*
X022088Y013220D01*
X021919Y013290D01*
X021790Y013419D01*
X021720Y013588D01*
X021720Y013771D01*
X021790Y013940D01*
X021570Y013940D01*
X021640Y013771D01*
X021640Y013588D01*
X021570Y013419D01*
X021441Y013290D01*
X021271Y013220D01*
X021088Y013220D01*
X020919Y013290D01*
X020790Y013419D01*
X020720Y013588D01*
X020720Y013771D01*
X020790Y013940D01*
X020632Y013940D01*
X020544Y013977D01*
X020477Y014044D01*
X020440Y014132D01*
X020440Y014290D01*
X020271Y014220D01*
X020088Y014220D01*
X019919Y014290D01*
X019790Y014419D01*
X019720Y014588D01*
X019720Y014771D01*
X019790Y014941D01*
X019919Y015070D01*
X020088Y015140D01*
X020271Y015140D01*
X020440Y015070D01*
X020440Y015290D01*
X020271Y015220D01*
X020088Y015220D01*
X019919Y015290D01*
X019790Y015419D01*
X019720Y015588D01*
X019720Y015771D01*
X019790Y015941D01*
X019919Y016070D01*
X020088Y016140D01*
X020271Y016140D01*
X020440Y016070D01*
X020440Y016081D01*
X020292Y016229D01*
X020271Y016220D01*
X020088Y016220D01*
X019919Y016290D01*
X019790Y016419D01*
X019720Y016588D01*
X019720Y016771D01*
X019790Y016941D01*
X019919Y017070D01*
X020088Y017140D01*
X020271Y017140D01*
X020441Y017070D01*
X020570Y016941D01*
X020640Y016771D01*
X020640Y016588D01*
X020631Y016568D01*
X020680Y016519D01*
X020729Y016568D01*
X020720Y016588D01*
X020720Y016771D01*
X020790Y016941D01*
X020919Y017070D01*
X021088Y017140D01*
X021271Y017140D01*
X021441Y017070D01*
X021570Y016941D01*
X021640Y016771D01*
X021640Y016588D01*
X021631Y016568D01*
X021680Y016519D01*
X021720Y016559D01*
X021720Y017046D01*
X021814Y017140D01*
X022400Y017140D01*
X022400Y020180D01*
X022391Y020293D01*
X022322Y020507D01*
X022189Y020689D01*
X022007Y020822D01*
X021793Y020891D01*
X021680Y020900D01*
X001206Y020900D01*
X001106Y020879D01*
X000894Y020789D01*
X000711Y020649D01*
X000571Y020466D01*
X000481Y020254D01*
X000460Y020154D01*
X000460Y001206D01*
X000481Y001106D01*
X000571Y000894D01*
X000537Y000973D02*
X009268Y000973D01*
X009290Y000919D02*
X009419Y000790D01*
X009588Y000720D01*
X009771Y000720D01*
X009941Y000790D01*
X010070Y000919D01*
X010140Y001088D01*
X010140Y001271D01*
X010070Y001441D01*
X009960Y001551D01*
X009960Y002809D01*
X010070Y002919D01*
X010140Y003088D01*
X010140Y003271D01*
X010070Y003441D01*
X009941Y003570D01*
X009771Y003640D01*
X009588Y003640D01*
X009419Y003570D01*
X009290Y003441D01*
X009220Y003271D01*
X009220Y003088D01*
X009290Y002919D01*
X009400Y002809D01*
X009400Y001551D01*
X009290Y001441D01*
X009220Y001271D01*
X009220Y001088D01*
X009290Y000919D01*
X009395Y000814D02*
X000632Y000814D01*
X000784Y000656D02*
X022168Y000656D01*
X022293Y000814D02*
X021965Y000814D01*
X022092Y000973D02*
X022360Y000973D01*
X022396Y001131D02*
X022140Y001131D01*
X022133Y001290D02*
X022422Y001290D01*
X022552Y001448D02*
X022063Y001448D01*
X021960Y001607D02*
X022711Y001607D01*
X022869Y001765D02*
X021960Y001765D01*
X021960Y001924D02*
X023028Y001924D01*
X023186Y002082D02*
X021960Y002082D01*
X021960Y002241D02*
X023345Y002241D01*
X023400Y002399D02*
X021960Y002399D01*
X021960Y002558D02*
X023400Y002558D01*
X023400Y002716D02*
X021960Y002716D01*
X022025Y002875D02*
X023400Y002875D01*
X023400Y003033D02*
X022117Y003033D01*
X022140Y003192D02*
X023400Y003192D01*
X023400Y003350D02*
X022107Y003350D01*
X022002Y003509D02*
X023400Y003509D01*
X023400Y003667D02*
X022920Y003667D01*
X023054Y003826D02*
X023400Y003826D01*
X023400Y003984D02*
X023177Y003984D01*
X023301Y004143D02*
X023400Y004143D01*
X023394Y004301D02*
X023400Y004301D01*
X022736Y004460D02*
X022640Y004460D01*
X022640Y004618D02*
X022760Y004618D01*
X022760Y004777D02*
X022640Y004777D01*
X022640Y004935D02*
X022760Y004935D01*
X022760Y005094D02*
X022593Y005094D01*
X022760Y005252D02*
X022349Y005252D01*
X022271Y005220D02*
X022441Y005290D01*
X022570Y005419D01*
X022640Y005588D01*
X022640Y005771D01*
X022570Y005941D01*
X022441Y006070D01*
X022271Y006140D01*
X022088Y006140D01*
X021919Y006070D01*
X021790Y005941D01*
X021720Y005771D01*
X021720Y005588D01*
X021790Y005419D01*
X021919Y005290D01*
X022088Y005220D01*
X022271Y005220D01*
X022200Y005094D02*
X022160Y005094D01*
X022160Y004935D02*
X022200Y004935D01*
X022200Y004777D02*
X022160Y004777D01*
X021720Y004777D02*
X021630Y004777D01*
X021636Y004618D02*
X021720Y004618D01*
X021720Y004460D02*
X021584Y004460D01*
X021441Y004301D02*
X021741Y004301D01*
X021720Y004935D02*
X021563Y004935D01*
X021382Y005094D02*
X021767Y005094D01*
X022011Y005252D02*
X021349Y005252D01*
X021271Y005220D02*
X021441Y005290D01*
X021570Y005419D01*
X021640Y005588D01*
X021640Y005771D01*
X021570Y005941D01*
X021441Y006070D01*
X021271Y006140D01*
X021088Y006140D01*
X020919Y006070D01*
X020790Y005941D01*
X020720Y005771D01*
X020720Y005588D01*
X020790Y005419D01*
X020919Y005290D01*
X021088Y005220D01*
X021271Y005220D01*
X021200Y005094D02*
X021160Y005094D01*
X021160Y004935D02*
X021200Y004935D01*
X021200Y004777D02*
X021160Y004777D01*
X020978Y005094D02*
X020382Y005094D01*
X020349Y005252D02*
X021011Y005252D01*
X020799Y005411D02*
X020561Y005411D01*
X020570Y005419D02*
X020640Y005588D01*
X020640Y005771D01*
X020570Y005941D01*
X020441Y006070D01*
X020271Y006140D01*
X020088Y006140D01*
X019919Y006070D01*
X019790Y005941D01*
X019720Y005771D01*
X019720Y005588D01*
X019790Y005419D01*
X019919Y005290D01*
X020088Y005220D01*
X020271Y005220D01*
X020441Y005290D01*
X020570Y005419D01*
X020632Y005569D02*
X020728Y005569D01*
X020720Y005728D02*
X020640Y005728D01*
X020593Y005886D02*
X020767Y005886D01*
X020894Y006045D02*
X020466Y006045D01*
X020441Y006290D02*
X020271Y006220D01*
X020088Y006220D01*
X019919Y006290D01*
X019790Y006419D01*
X019720Y006588D01*
X019720Y006771D01*
X019790Y006941D01*
X019919Y007070D01*
X020088Y007140D01*
X020271Y007140D01*
X020441Y007070D01*
X020570Y006941D01*
X020640Y006771D01*
X020640Y006588D01*
X020570Y006419D01*
X020441Y006290D01*
X020512Y006362D02*
X020848Y006362D01*
X020790Y006419D02*
X020919Y006290D01*
X021088Y006220D01*
X021271Y006220D01*
X021441Y006290D01*
X021570Y006419D01*
X021640Y006588D01*
X021640Y006771D01*
X021570Y006941D01*
X021441Y007070D01*
X021271Y007140D01*
X021088Y007140D01*
X020919Y007070D01*
X020790Y006941D01*
X020720Y006771D01*
X020720Y006588D01*
X020790Y006419D01*
X020748Y006520D02*
X020612Y006520D01*
X020640Y006679D02*
X020720Y006679D01*
X020747Y006837D02*
X020613Y006837D01*
X020515Y006996D02*
X020845Y006996D01*
X020919Y007290D02*
X021088Y007220D01*
X021271Y007220D01*
X021441Y007290D01*
X021570Y007419D01*
X021640Y007588D01*
X021640Y007771D01*
X021570Y007941D01*
X021441Y008070D01*
X021271Y008140D01*
X021088Y008140D01*
X020919Y008070D01*
X020790Y007941D01*
X020720Y007771D01*
X020720Y007588D01*
X020790Y007419D01*
X020919Y007290D01*
X020897Y007313D02*
X020463Y007313D01*
X020441Y007290D02*
X020570Y007419D01*
X020640Y007588D01*
X020640Y007771D01*
X020570Y007941D01*
X020441Y008070D01*
X020271Y008140D01*
X020088Y008140D01*
X019919Y008070D01*
X019790Y007941D01*
X019720Y007771D01*
X019720Y007588D01*
X019790Y007419D01*
X019919Y007290D01*
X020088Y007220D01*
X020271Y007220D01*
X020441Y007290D01*
X020591Y007471D02*
X020769Y007471D01*
X020720Y007630D02*
X020640Y007630D01*
X020633Y007788D02*
X020727Y007788D01*
X020796Y007947D02*
X020564Y007947D01*
X020356Y008105D02*
X021004Y008105D01*
X021088Y008220D02*
X020919Y008290D01*
X020790Y008419D01*
X020720Y008588D01*
X020720Y008771D01*
X020790Y008941D01*
X020919Y009070D01*
X021088Y009140D01*
X021271Y009140D01*
X021441Y009070D01*
X021570Y008941D01*
X021640Y008771D01*
X021640Y008588D01*
X021570Y008419D01*
X021441Y008290D01*
X021271Y008220D01*
X021088Y008220D01*
X020983Y008264D02*
X020377Y008264D01*
X020441Y008290D02*
X020570Y008419D01*
X020640Y008588D01*
X020640Y008771D01*
X020570Y008941D01*
X020441Y009070D01*
X020271Y009140D01*
X020088Y009140D01*
X019919Y009070D01*
X019790Y008941D01*
X019720Y008771D01*
X019720Y008588D01*
X019790Y008419D01*
X019919Y008290D01*
X020088Y008220D01*
X020271Y008220D01*
X020441Y008290D01*
X020571Y008422D02*
X020789Y008422D01*
X020723Y008581D02*
X020637Y008581D01*
X020640Y008739D02*
X020720Y008739D01*
X020772Y008898D02*
X020588Y008898D01*
X020455Y009056D02*
X020905Y009056D01*
X020919Y009290D02*
X021088Y009220D01*
X021271Y009220D01*
X021441Y009290D01*
X021570Y009419D01*
X021640Y009588D01*
X021640Y009771D01*
X021570Y009941D01*
X021441Y010070D01*
X021271Y010140D01*
X021088Y010140D01*
X020919Y010070D01*
X020790Y009941D01*
X020720Y009771D01*
X020720Y009588D01*
X020790Y009419D01*
X020919Y009290D01*
X020836Y009373D02*
X020524Y009373D01*
X020570Y009419D02*
X020640Y009588D01*
X020640Y009771D01*
X020570Y009941D01*
X020441Y010070D01*
X020271Y010140D01*
X020088Y010140D01*
X019919Y010070D01*
X019790Y009941D01*
X019720Y009771D01*
X019720Y009588D01*
X019790Y009419D01*
X019919Y009290D01*
X020088Y009220D01*
X020271Y009220D01*
X020441Y009290D01*
X020570Y009419D01*
X020616Y009532D02*
X020744Y009532D01*
X020720Y009690D02*
X020640Y009690D01*
X020608Y009849D02*
X020752Y009849D01*
X020856Y010007D02*
X020504Y010007D01*
X020441Y010290D02*
X020271Y010220D01*
X020088Y010220D01*
X019919Y010290D01*
X019790Y010419D01*
X019720Y010588D01*
X019720Y010771D01*
X019790Y010941D01*
X019919Y011070D01*
X020088Y011140D01*
X020271Y011140D01*
X020441Y011070D01*
X020570Y010941D01*
X020640Y010771D01*
X020640Y010588D01*
X020570Y010419D01*
X020441Y010290D01*
X020475Y010324D02*
X020885Y010324D01*
X020919Y010290D02*
X021088Y010220D01*
X021271Y010220D01*
X021441Y010290D01*
X021570Y010419D01*
X021640Y010588D01*
X021640Y010771D01*
X021570Y010941D01*
X021441Y011070D01*
X021271Y011140D01*
X021088Y011140D01*
X020919Y011070D01*
X020790Y010941D01*
X020720Y010771D01*
X020720Y010588D01*
X020790Y010419D01*
X020919Y010290D01*
X020764Y010483D02*
X020596Y010483D01*
X020640Y010641D02*
X020720Y010641D01*
X020732Y010800D02*
X020628Y010800D01*
X020553Y010958D02*
X020807Y010958D01*
X021032Y011117D02*
X020328Y011117D01*
X020271Y011220D02*
X020441Y011290D01*
X020570Y011419D01*
X020640Y011588D01*
X020640Y011771D01*
X020570Y011941D01*
X020441Y012070D01*
X020271Y012140D01*
X020088Y012140D01*
X019919Y012070D01*
X019790Y011941D01*
X019720Y011771D01*
X019720Y011588D01*
X019790Y011419D01*
X019919Y011290D01*
X020088Y011220D01*
X020271Y011220D01*
X020404Y011275D02*
X020956Y011275D01*
X020919Y011290D02*
X021088Y011220D01*
X021271Y011220D01*
X021441Y011290D01*
X021570Y011419D01*
X021640Y011588D01*
X021640Y011771D01*
X021570Y011941D01*
X021441Y012070D01*
X021271Y012140D01*
X021088Y012140D01*
X020919Y012070D01*
X020790Y011941D01*
X020720Y011771D01*
X020720Y011588D01*
X020790Y011419D01*
X020919Y011290D01*
X020784Y011434D02*
X020576Y011434D01*
X020640Y011592D02*
X020720Y011592D01*
X020720Y011751D02*
X020640Y011751D01*
X020583Y011909D02*
X020777Y011909D01*
X020917Y012068D02*
X020443Y012068D01*
X020441Y012290D02*
X020271Y012220D01*
X020088Y012220D01*
X019919Y012290D01*
X019790Y012419D01*
X019720Y012588D01*
X019720Y012771D01*
X019790Y012941D01*
X019919Y013070D01*
X020088Y013140D01*
X020271Y013140D01*
X020441Y013070D01*
X020570Y012941D01*
X020640Y012771D01*
X020640Y012588D01*
X020570Y012419D01*
X020441Y012290D01*
X020535Y012385D02*
X020825Y012385D01*
X020790Y012419D02*
X020919Y012290D01*
X021088Y012220D01*
X021271Y012220D01*
X021441Y012290D01*
X021570Y012419D01*
X021640Y012588D01*
X021640Y012771D01*
X021570Y012941D01*
X021441Y013070D01*
X021271Y013140D01*
X021088Y013140D01*
X020919Y013070D01*
X020790Y012941D01*
X020720Y012771D01*
X020720Y012588D01*
X020790Y012419D01*
X020739Y012543D02*
X020621Y012543D01*
X020640Y012702D02*
X020720Y012702D01*
X020757Y012860D02*
X020603Y012860D01*
X020492Y013019D02*
X020868Y013019D01*
X020874Y013336D02*
X020486Y013336D01*
X020441Y013290D02*
X020570Y013419D01*
X020640Y013588D01*
X020640Y013771D01*
X020570Y013941D01*
X020441Y014070D01*
X020271Y014140D01*
X020088Y014140D01*
X019919Y014070D01*
X019790Y013941D01*
X019720Y013771D01*
X019720Y013588D01*
X019790Y013419D01*
X019919Y013290D01*
X020088Y013220D01*
X020271Y013220D01*
X020441Y013290D01*
X020601Y013494D02*
X020759Y013494D01*
X020720Y013653D02*
X020640Y013653D01*
X020624Y013811D02*
X020736Y013811D01*
X020561Y013970D02*
X020541Y013970D01*
X020442Y014128D02*
X020300Y014128D01*
X020432Y014287D02*
X020440Y014287D01*
X020680Y014180D02*
X021680Y014180D01*
X023080Y014180D01*
X022760Y013811D02*
X022624Y013811D01*
X022640Y013653D02*
X022760Y013653D01*
X022760Y013494D02*
X022601Y013494D01*
X022486Y013336D02*
X022760Y013336D01*
X022760Y013177D02*
X015016Y013177D01*
X015068Y013229D02*
X014816Y012977D01*
X014728Y012940D01*
X014169Y012940D01*
X014122Y012893D01*
X013997Y012841D01*
X013863Y012841D01*
X013738Y012893D01*
X013643Y012988D01*
X013591Y013113D01*
X013591Y013247D01*
X013643Y013372D01*
X013738Y013467D01*
X013863Y013519D01*
X013997Y013519D01*
X014122Y013467D01*
X014169Y013420D01*
X014581Y013420D01*
X014729Y013568D01*
X014720Y013588D01*
X014720Y013771D01*
X014790Y013941D01*
X014919Y014070D01*
X015088Y014140D01*
X015271Y014140D01*
X015441Y014070D01*
X015570Y013941D01*
X015640Y013771D01*
X015640Y013588D01*
X015570Y013419D01*
X015441Y013290D01*
X015271Y013220D01*
X015088Y013220D01*
X015068Y013229D01*
X015088Y013140D02*
X014919Y013070D01*
X014790Y012941D01*
X014720Y012771D01*
X014720Y012588D01*
X014790Y012419D01*
X014919Y012290D01*
X015088Y012220D01*
X015271Y012220D01*
X015441Y012290D01*
X015570Y012419D01*
X015640Y012588D01*
X015640Y012771D01*
X015570Y012941D01*
X015441Y013070D01*
X015271Y013140D01*
X015088Y013140D01*
X014868Y013019D02*
X014858Y013019D01*
X014757Y012860D02*
X014043Y012860D01*
X013817Y012860D02*
X013171Y012860D01*
X013275Y012964D02*
X013275Y013546D01*
X013342Y013613D01*
X013394Y013738D01*
X013394Y013872D01*
X013342Y013997D01*
X013247Y014092D01*
X013122Y014144D01*
X012988Y014144D01*
X012863Y014092D01*
X012768Y013997D01*
X012716Y013872D01*
X012716Y013738D01*
X012768Y013613D01*
X012835Y013546D01*
X012835Y013146D01*
X012589Y012900D01*
X012587Y012900D01*
X012570Y012941D01*
X012441Y013070D01*
X012271Y013140D01*
X012088Y013140D01*
X011919Y013070D01*
X011893Y013043D01*
X011883Y013066D01*
X011566Y013383D01*
X011543Y013393D01*
X011570Y013419D01*
X011640Y013588D01*
X011640Y013771D01*
X011570Y013941D01*
X011441Y014070D01*
X011271Y014140D01*
X011088Y014140D01*
X010919Y014070D01*
X010790Y013941D01*
X010773Y013900D01*
X010089Y013900D01*
X010059Y013870D01*
X010017Y013972D01*
X009922Y014067D01*
X009797Y014119D01*
X009663Y014119D01*
X009538Y014067D01*
X009451Y013980D01*
X009197Y013980D01*
X009097Y013880D01*
X008091Y013880D01*
X008122Y013893D01*
X008217Y013988D01*
X008269Y014113D01*
X008269Y014236D01*
X009013Y014980D01*
X010829Y014980D01*
X010790Y014941D01*
X010720Y014771D01*
X010720Y014588D01*
X010790Y014419D01*
X010919Y014290D01*
X011088Y014220D01*
X011271Y014220D01*
X011441Y014290D01*
X011570Y014419D01*
X011640Y014588D01*
X011640Y014771D01*
X011570Y014941D01*
X011531Y014980D01*
X011829Y014980D01*
X011790Y014941D01*
X011720Y014771D01*
X011720Y014588D01*
X011790Y014419D01*
X011919Y014290D01*
X012088Y014220D01*
X012271Y014220D01*
X012441Y014290D01*
X012570Y014419D01*
X012578Y014440D01*
X013081Y014440D01*
X013091Y014429D01*
X013091Y014363D01*
X013143Y014238D01*
X013238Y014143D01*
X013363Y014091D01*
X013497Y014091D01*
X013622Y014143D01*
X013717Y014238D01*
X013769Y014363D01*
X013769Y014497D01*
X013717Y014622D01*
X013622Y014717D01*
X013497Y014769D01*
X013431Y014769D01*
X013316Y014883D01*
X013228Y014920D01*
X012578Y014920D01*
X012570Y014941D01*
X012531Y014980D01*
X014597Y014980D01*
X014745Y014832D01*
X014720Y014771D01*
X014720Y014588D01*
X014790Y014419D01*
X014919Y014290D01*
X015088Y014220D01*
X015271Y014220D01*
X015441Y014290D01*
X015570Y014419D01*
X015640Y014588D01*
X015640Y014771D01*
X015570Y014941D01*
X015441Y015070D01*
X015271Y015140D01*
X015088Y015140D01*
X015028Y015115D01*
X014923Y015220D01*
X015546Y015220D01*
X015640Y015314D01*
X015640Y016046D01*
X015546Y016140D01*
X015059Y016140D01*
X014816Y016383D01*
X014728Y016420D01*
X008382Y016420D01*
X008294Y016383D01*
X008227Y016316D01*
X007429Y015519D01*
X007363Y015519D01*
X007238Y015467D01*
X007143Y015372D01*
X007091Y015247D01*
X007091Y015113D01*
X007143Y014988D01*
X007238Y014893D01*
X007363Y014841D01*
X007497Y014841D01*
X007622Y014893D01*
X007717Y014988D01*
X007769Y015113D01*
X007769Y015179D01*
X008529Y015940D01*
X010790Y015940D01*
X010720Y015771D01*
X010720Y015588D01*
X010790Y015419D01*
X010829Y015380D01*
X008847Y015380D01*
X007986Y014519D01*
X007863Y014519D01*
X007738Y014467D01*
X007680Y014409D01*
X007622Y014467D01*
X007497Y014519D01*
X007363Y014519D01*
X007238Y014467D01*
X007143Y014372D01*
X007091Y014247D01*
X007091Y014181D01*
X006227Y013316D01*
X006190Y013228D01*
X006190Y012232D01*
X006227Y012144D01*
X006294Y012077D01*
X008391Y009979D01*
X008391Y009913D01*
X008443Y009788D01*
X008538Y009693D01*
X008663Y009641D01*
X008797Y009641D01*
X008922Y009693D01*
X008940Y009711D01*
X008940Y008332D01*
X008977Y008244D01*
X009041Y008179D01*
X009041Y008113D01*
X009093Y007988D01*
X009188Y007893D01*
X009313Y007841D01*
X009447Y007841D01*
X009572Y007893D01*
X009667Y007988D01*
X009686Y008034D01*
X009791Y007929D01*
X009791Y007863D01*
X009843Y007738D01*
X009938Y007643D01*
X010063Y007591D01*
X010197Y007591D01*
X010322Y007643D01*
X010417Y007738D01*
X010469Y007863D01*
X010469Y007997D01*
X010417Y008122D01*
X010322Y008217D01*
X010197Y008269D01*
X010131Y008269D01*
X009820Y008579D01*
X009820Y009681D01*
X010579Y010440D01*
X010782Y010440D01*
X010790Y010419D01*
X010919Y010290D01*
X011088Y010220D01*
X011271Y010220D01*
X011342Y010249D01*
X011341Y010247D01*
X011341Y010113D01*
X011342Y010111D01*
X011271Y010140D01*
X011088Y010140D01*
X010919Y010070D01*
X010790Y009941D01*
X010720Y009771D01*
X010720Y009588D01*
X010790Y009419D01*
X010919Y009290D01*
X011088Y009220D01*
X011271Y009220D01*
X011440Y009290D01*
X011440Y009132D01*
X011477Y009044D01*
X011729Y008792D01*
X011720Y008771D01*
X011720Y008588D01*
X011790Y008419D01*
X011919Y008290D01*
X012088Y008220D01*
X012271Y008220D01*
X012292Y008229D01*
X012694Y007827D01*
X012782Y007790D01*
X012791Y007790D01*
X012838Y007743D01*
X012963Y007691D01*
X013097Y007691D01*
X013222Y007743D01*
X013317Y007838D01*
X013369Y007963D01*
X013369Y008097D01*
X013317Y008222D01*
X013222Y008317D01*
X013097Y008369D01*
X012963Y008369D01*
X012869Y008330D01*
X012631Y008568D01*
X012640Y008588D01*
X012640Y008771D01*
X012570Y008941D01*
X012441Y009070D01*
X012271Y009140D01*
X012088Y009140D01*
X012068Y009131D01*
X011920Y009279D01*
X011920Y009290D01*
X012088Y009220D01*
X012271Y009220D01*
X012441Y009290D01*
X012570Y009419D01*
X012640Y009588D01*
X012640Y009771D01*
X012570Y009941D01*
X012441Y010070D01*
X012271Y010140D01*
X012088Y010140D01*
X012018Y010111D01*
X012019Y010113D01*
X012019Y010247D01*
X012018Y010249D01*
X012088Y010220D01*
X012271Y010220D01*
X012441Y010290D01*
X012570Y010419D01*
X012640Y010588D01*
X012640Y010771D01*
X012570Y010940D01*
X014581Y010940D01*
X014729Y010792D01*
X014720Y010771D01*
X014720Y010588D01*
X014790Y010419D01*
X014919Y010290D01*
X015088Y010220D01*
X015271Y010220D01*
X015441Y010290D01*
X015570Y010419D01*
X015640Y010588D01*
X015640Y010771D01*
X015570Y010941D01*
X015441Y011070D01*
X015271Y011140D01*
X015088Y011140D01*
X015068Y011131D01*
X014816Y011383D01*
X014728Y011420D01*
X012570Y011420D01*
X012640Y011588D01*
X012640Y011771D01*
X012570Y011940D01*
X014581Y011940D01*
X014729Y011792D01*
X014720Y011771D01*
X014720Y011588D01*
X014790Y011419D01*
X014919Y011290D01*
X015088Y011220D01*
X015271Y011220D01*
X015441Y011290D01*
X015570Y011419D01*
X015640Y011588D01*
X015640Y011771D01*
X015570Y011941D01*
X015441Y012070D01*
X015271Y012140D01*
X015088Y012140D01*
X015068Y012131D01*
X014816Y012383D01*
X014728Y012420D01*
X012570Y012420D01*
X012587Y012460D01*
X012771Y012460D01*
X012900Y012589D01*
X013275Y012964D01*
X013275Y013019D02*
X013630Y013019D01*
X013591Y013177D02*
X013275Y013177D01*
X013275Y013336D02*
X013628Y013336D01*
X013803Y013494D02*
X013275Y013494D01*
X013358Y013653D02*
X014720Y013653D01*
X014736Y013811D02*
X013394Y013811D01*
X013354Y013970D02*
X014819Y013970D01*
X015060Y014128D02*
X013586Y014128D01*
X013737Y014287D02*
X014928Y014287D01*
X014779Y014445D02*
X013769Y014445D01*
X013725Y014604D02*
X014720Y014604D01*
X014720Y014762D02*
X013514Y014762D01*
X013430Y014430D02*
X013180Y014680D01*
X012180Y014680D01*
X012578Y014921D02*
X014657Y014921D01*
X015419Y015079D02*
X016941Y015079D01*
X016919Y015070D02*
X017088Y015140D01*
X017271Y015140D01*
X017441Y015070D01*
X017570Y014941D01*
X017640Y014771D01*
X017640Y014588D01*
X017570Y014419D01*
X017441Y014290D01*
X017271Y014220D01*
X017088Y014220D01*
X016919Y014290D01*
X016790Y014419D01*
X016720Y014588D01*
X016720Y014771D01*
X016790Y014941D01*
X016919Y015070D01*
X016782Y014921D02*
X015578Y014921D01*
X015640Y014762D02*
X016720Y014762D01*
X016720Y014604D02*
X015640Y014604D01*
X015581Y014445D02*
X016779Y014445D01*
X016928Y014287D02*
X015432Y014287D01*
X015300Y014128D02*
X017060Y014128D01*
X017088Y014140D02*
X016919Y014070D01*
X016790Y013941D01*
X016720Y013771D01*
X016720Y013588D01*
X016790Y013419D01*
X016919Y013290D01*
X017088Y013220D01*
X017271Y013220D01*
X017441Y013290D01*
X017570Y013419D01*
X017640Y013588D01*
X017640Y013771D01*
X017570Y013941D01*
X017441Y014070D01*
X017271Y014140D01*
X017088Y014140D01*
X017300Y014128D02*
X018060Y014128D01*
X018088Y014140D02*
X017919Y014070D01*
X017790Y013941D01*
X017720Y013771D01*
X017720Y013588D01*
X017790Y013419D01*
X017919Y013290D01*
X018088Y013220D01*
X018271Y013220D01*
X018441Y013290D01*
X018570Y013419D01*
X018640Y013588D01*
X018640Y013771D01*
X018570Y013941D01*
X018441Y014070D01*
X018271Y014140D01*
X018088Y014140D01*
X018088Y014220D02*
X018271Y014220D01*
X018441Y014290D01*
X018570Y014419D01*
X018640Y014588D01*
X018640Y014771D01*
X018570Y014941D01*
X018441Y015070D01*
X018271Y015140D01*
X018088Y015140D01*
X017919Y015070D01*
X017790Y014941D01*
X017720Y014771D01*
X017720Y014588D01*
X017790Y014419D01*
X017919Y014290D01*
X018088Y014220D01*
X017928Y014287D02*
X017432Y014287D01*
X017581Y014445D02*
X017779Y014445D01*
X017720Y014604D02*
X017640Y014604D01*
X017640Y014762D02*
X017720Y014762D01*
X017782Y014921D02*
X017578Y014921D01*
X017419Y015079D02*
X017941Y015079D01*
X018046Y015238D02*
X017314Y015238D01*
X017271Y015220D02*
X017441Y015290D01*
X017570Y015419D01*
X017640Y015588D01*
X017640Y015771D01*
X017570Y015941D01*
X017441Y016070D01*
X017271Y016140D01*
X017088Y016140D01*
X016919Y016070D01*
X016790Y015941D01*
X016720Y015771D01*
X016720Y015588D01*
X016790Y015419D01*
X016919Y015290D01*
X017088Y015220D01*
X017271Y015220D01*
X017046Y015238D02*
X015564Y015238D01*
X015640Y015396D02*
X016813Y015396D01*
X016734Y015555D02*
X015640Y015555D01*
X015640Y015713D02*
X016720Y015713D01*
X016761Y015872D02*
X015640Y015872D01*
X015640Y016030D02*
X016879Y016030D01*
X016919Y016290D02*
X017088Y016220D01*
X017271Y016220D01*
X017441Y016290D01*
X017570Y016419D01*
X017640Y016588D01*
X017640Y016771D01*
X017570Y016941D01*
X017441Y017070D01*
X017271Y017140D01*
X017088Y017140D01*
X016919Y017070D01*
X016790Y016941D01*
X016720Y016771D01*
X016720Y016588D01*
X016790Y016419D01*
X016919Y016290D01*
X016862Y016347D02*
X016498Y016347D01*
X016441Y016290D02*
X016570Y016419D01*
X016640Y016588D01*
X016640Y016771D01*
X016570Y016941D01*
X016441Y017070D01*
X016271Y017140D01*
X016088Y017140D01*
X015919Y017070D01*
X015790Y016941D01*
X015720Y016771D01*
X015720Y016588D01*
X015790Y016419D01*
X015919Y016290D01*
X016088Y016220D01*
X016271Y016220D01*
X016441Y016290D01*
X016606Y016506D02*
X016754Y016506D01*
X016720Y016664D02*
X016640Y016664D01*
X016619Y016823D02*
X016741Y016823D01*
X016830Y016981D02*
X016530Y016981D01*
X016273Y017140D02*
X017087Y017140D01*
X017273Y017140D02*
X018087Y017140D01*
X018088Y017140D02*
X017919Y017070D01*
X017790Y016941D01*
X017720Y016771D01*
X017720Y016588D01*
X017790Y016419D01*
X017919Y016290D01*
X018088Y016220D01*
X018271Y016220D01*
X018441Y016290D01*
X018570Y016419D01*
X018640Y016588D01*
X018640Y016771D01*
X018570Y016941D01*
X018441Y017070D01*
X018271Y017140D01*
X018088Y017140D01*
X018273Y017140D02*
X019087Y017140D01*
X019088Y017140D02*
X018919Y017070D01*
X018790Y016941D01*
X018720Y016771D01*
X018720Y016588D01*
X018790Y016419D01*
X018919Y016290D01*
X019088Y016220D01*
X019271Y016220D01*
X019441Y016290D01*
X019570Y016419D01*
X019640Y016588D01*
X019640Y016771D01*
X019570Y016941D01*
X019441Y017070D01*
X019271Y017140D01*
X019088Y017140D01*
X019273Y017140D02*
X020087Y017140D01*
X020273Y017140D02*
X021087Y017140D01*
X021273Y017140D02*
X021813Y017140D01*
X021720Y016981D02*
X021530Y016981D01*
X021619Y016823D02*
X021720Y016823D01*
X021720Y016664D02*
X021640Y016664D01*
X021180Y016680D02*
X021680Y016180D01*
X022180Y016680D01*
X022400Y017298D02*
X000460Y017298D01*
X000460Y017140D02*
X000660Y017140D01*
X000643Y017122D02*
X000591Y016997D01*
X000591Y016863D01*
X000643Y016738D01*
X000690Y016691D01*
X000690Y005132D01*
X000727Y005044D01*
X003091Y002679D01*
X003091Y002613D01*
X003143Y002488D01*
X003238Y002393D01*
X003363Y002341D01*
X003497Y002341D01*
X003622Y002393D01*
X003717Y002488D01*
X003769Y002613D01*
X003769Y002747D01*
X003717Y002872D01*
X003622Y002967D01*
X003497Y003019D01*
X003431Y003019D01*
X001170Y005279D01*
X001170Y016691D01*
X001217Y016738D01*
X001269Y016863D01*
X001269Y016997D01*
X001217Y017122D01*
X001122Y017217D01*
X000997Y017269D01*
X000863Y017269D01*
X000738Y017217D01*
X000643Y017122D01*
X000591Y016981D02*
X000460Y016981D01*
X000460Y016823D02*
X000608Y016823D01*
X000690Y016664D02*
X000460Y016664D01*
X000460Y016506D02*
X000690Y016506D01*
X000690Y016347D02*
X000460Y016347D01*
X000460Y016189D02*
X000690Y016189D01*
X000690Y016030D02*
X000460Y016030D01*
X000460Y015872D02*
X000690Y015872D01*
X000690Y015713D02*
X000460Y015713D01*
X000460Y015555D02*
X000690Y015555D01*
X000690Y015396D02*
X000460Y015396D01*
X000460Y015238D02*
X000690Y015238D01*
X000690Y015079D02*
X000460Y015079D01*
X000460Y014921D02*
X000690Y014921D01*
X000690Y014762D02*
X000460Y014762D01*
X000460Y014604D02*
X000690Y014604D01*
X000690Y014445D02*
X000460Y014445D01*
X000460Y014287D02*
X000690Y014287D01*
X000690Y014128D02*
X000460Y014128D01*
X000460Y013970D02*
X000690Y013970D01*
X000690Y013811D02*
X000460Y013811D01*
X000460Y013653D02*
X000690Y013653D01*
X000690Y013494D02*
X000460Y013494D01*
X000460Y013336D02*
X000690Y013336D01*
X000690Y013177D02*
X000460Y013177D01*
X000460Y013019D02*
X000690Y013019D01*
X000690Y012860D02*
X000460Y012860D01*
X000460Y012702D02*
X000690Y012702D01*
X000690Y012543D02*
X000460Y012543D01*
X000460Y012385D02*
X000690Y012385D01*
X000690Y012226D02*
X000460Y012226D01*
X000460Y012068D02*
X000690Y012068D01*
X000690Y011909D02*
X000460Y011909D01*
X000460Y011751D02*
X000690Y011751D01*
X000690Y011592D02*
X000460Y011592D01*
X000460Y011434D02*
X000690Y011434D01*
X000690Y011275D02*
X000460Y011275D01*
X000460Y011117D02*
X000690Y011117D01*
X000690Y010958D02*
X000460Y010958D01*
X000460Y010800D02*
X000690Y010800D01*
X000690Y010641D02*
X000460Y010641D01*
X000460Y010483D02*
X000690Y010483D01*
X000690Y010324D02*
X000460Y010324D01*
X000460Y010166D02*
X000690Y010166D01*
X000690Y010007D02*
X000460Y010007D01*
X000460Y009849D02*
X000690Y009849D01*
X000690Y009690D02*
X000460Y009690D01*
X000460Y009532D02*
X000690Y009532D01*
X000690Y009373D02*
X000460Y009373D01*
X000460Y009215D02*
X000690Y009215D01*
X000690Y009056D02*
X000460Y009056D01*
X000460Y008898D02*
X000690Y008898D01*
X000690Y008739D02*
X000460Y008739D01*
X000460Y008581D02*
X000690Y008581D01*
X000690Y008422D02*
X000460Y008422D01*
X000460Y008264D02*
X000690Y008264D01*
X000690Y008105D02*
X000460Y008105D01*
X000460Y007947D02*
X000690Y007947D01*
X000690Y007788D02*
X000460Y007788D01*
X000460Y007630D02*
X000690Y007630D01*
X000690Y007471D02*
X000460Y007471D01*
X000460Y007313D02*
X000690Y007313D01*
X000690Y007154D02*
X000460Y007154D01*
X000460Y006996D02*
X000690Y006996D01*
X000690Y006837D02*
X000460Y006837D01*
X000460Y006679D02*
X000690Y006679D01*
X000690Y006520D02*
X000460Y006520D01*
X000460Y006362D02*
X000690Y006362D01*
X000690Y006203D02*
X000460Y006203D01*
X000460Y006045D02*
X000690Y006045D01*
X000690Y005886D02*
X000460Y005886D01*
X000460Y005728D02*
X000690Y005728D01*
X000690Y005569D02*
X000460Y005569D01*
X000460Y005411D02*
X000690Y005411D01*
X000690Y005252D02*
X000460Y005252D01*
X000460Y005094D02*
X000706Y005094D01*
X000836Y004935D02*
X000460Y004935D01*
X000460Y004777D02*
X000994Y004777D01*
X001153Y004618D02*
X000460Y004618D01*
X000460Y004460D02*
X001311Y004460D01*
X001470Y004301D02*
X000460Y004301D01*
X000460Y004143D02*
X001628Y004143D01*
X001787Y003984D02*
X000460Y003984D01*
X000460Y003826D02*
X001945Y003826D01*
X002104Y003667D02*
X000460Y003667D01*
X000460Y003509D02*
X002262Y003509D01*
X002421Y003350D02*
X000460Y003350D01*
X000460Y003192D02*
X002579Y003192D01*
X002738Y003033D02*
X000460Y003033D01*
X000460Y002875D02*
X002896Y002875D01*
X003055Y002716D02*
X000460Y002716D01*
X000460Y002558D02*
X003114Y002558D01*
X003232Y002399D02*
X000460Y002399D01*
X000460Y002241D02*
X005898Y002241D01*
X005961Y002177D02*
X006136Y002105D01*
X006324Y002105D01*
X006499Y002177D01*
X006633Y002311D01*
X006705Y002486D01*
X006705Y002674D01*
X006633Y002849D01*
X006499Y002983D01*
X006324Y003055D01*
X006136Y003055D01*
X005961Y002983D01*
X005827Y002849D01*
X005755Y002674D01*
X005755Y002486D01*
X005827Y002311D01*
X005961Y002177D01*
X005791Y002399D02*
X003628Y002399D01*
X003746Y002558D02*
X005755Y002558D01*
X005772Y002716D02*
X003769Y002716D01*
X003715Y002875D02*
X005853Y002875D01*
X006082Y003033D02*
X003416Y003033D01*
X003258Y003192D02*
X009220Y003192D01*
X009243Y003033D02*
X007849Y003033D01*
X007827Y003055D02*
X007630Y003055D01*
X007630Y002580D01*
X008105Y002580D01*
X008105Y002777D01*
X007827Y003055D01*
X007630Y003055D02*
X007433Y003055D01*
X007155Y002777D01*
X007155Y002580D01*
X007630Y002580D01*
X007630Y002580D01*
X007630Y002580D01*
X008105Y002580D01*
X008105Y002383D01*
X007827Y002105D01*
X007630Y002105D01*
X007630Y002580D01*
X007630Y002580D01*
X007630Y002580D01*
X007630Y003055D01*
X007630Y003033D02*
X007630Y003033D01*
X007630Y002875D02*
X007630Y002875D01*
X007630Y002716D02*
X007630Y002716D01*
X007630Y002580D02*
X007155Y002580D01*
X007155Y002383D01*
X007433Y002105D01*
X007630Y002105D01*
X007630Y002580D01*
X007630Y002558D02*
X007630Y002558D01*
X007630Y002399D02*
X007630Y002399D01*
X007630Y002241D02*
X007630Y002241D01*
X007298Y002241D02*
X006562Y002241D01*
X006669Y002399D02*
X007155Y002399D01*
X007155Y002558D02*
X006705Y002558D01*
X006688Y002716D02*
X007155Y002716D01*
X007253Y002875D02*
X006607Y002875D01*
X006378Y003033D02*
X007411Y003033D01*
X008007Y002875D02*
X009335Y002875D01*
X009400Y002716D02*
X008105Y002716D01*
X008105Y002558D02*
X009400Y002558D01*
X009400Y002399D02*
X008105Y002399D01*
X007962Y002241D02*
X009400Y002241D01*
X009400Y002082D02*
X000460Y002082D01*
X000460Y001924D02*
X009400Y001924D01*
X009400Y001765D02*
X000460Y001765D01*
X000460Y001607D02*
X009400Y001607D01*
X009297Y001448D02*
X000460Y001448D01*
X000460Y001290D02*
X009227Y001290D01*
X009220Y001131D02*
X000476Y001131D01*
X001068Y000497D02*
X021879Y000497D01*
X021395Y000814D02*
X020965Y000814D01*
X021092Y000973D02*
X021268Y000973D01*
X021220Y001131D02*
X021140Y001131D01*
X021133Y001290D02*
X021227Y001290D01*
X021297Y001448D02*
X021063Y001448D01*
X020960Y001607D02*
X021400Y001607D01*
X021400Y001765D02*
X020960Y001765D01*
X020960Y001924D02*
X021400Y001924D01*
X021400Y002082D02*
X020960Y002082D01*
X020960Y002241D02*
X021400Y002241D01*
X021400Y002399D02*
X020960Y002399D01*
X020960Y002558D02*
X021400Y002558D01*
X021400Y002716D02*
X020960Y002716D01*
X021025Y002875D02*
X021335Y002875D01*
X021243Y003033D02*
X021117Y003033D01*
X021140Y003192D02*
X021220Y003192D01*
X021253Y003350D02*
X021107Y003350D01*
X021002Y003509D02*
X021358Y003509D01*
X020919Y004301D02*
X020441Y004301D01*
X020584Y004460D02*
X020776Y004460D01*
X020724Y004618D02*
X020636Y004618D01*
X020630Y004777D02*
X020730Y004777D01*
X020797Y004935D02*
X020563Y004935D01*
X020200Y004935D02*
X020160Y004935D01*
X020160Y004777D02*
X020200Y004777D01*
X020200Y005094D02*
X020160Y005094D01*
X019978Y005094D02*
X019382Y005094D01*
X019349Y005252D02*
X020011Y005252D01*
X019799Y005411D02*
X019561Y005411D01*
X019570Y005419D02*
X019441Y005290D01*
X019271Y005220D01*
X019088Y005220D01*
X018919Y005290D01*
X018790Y005419D01*
X018720Y005588D01*
X018720Y005771D01*
X018790Y005941D01*
X018919Y006070D01*
X019088Y006140D01*
X019271Y006140D01*
X019441Y006070D01*
X019570Y005941D01*
X019640Y005771D01*
X019640Y005588D01*
X019570Y005419D01*
X019632Y005569D02*
X019728Y005569D01*
X019720Y005728D02*
X019640Y005728D01*
X019593Y005886D02*
X019767Y005886D01*
X019894Y006045D02*
X019466Y006045D01*
X019441Y006290D02*
X019271Y006220D01*
X019088Y006220D01*
X018919Y006290D01*
X018790Y006419D01*
X018720Y006588D01*
X018720Y006771D01*
X018790Y006941D01*
X018919Y007070D01*
X019088Y007140D01*
X019271Y007140D01*
X019441Y007070D01*
X019570Y006941D01*
X019640Y006771D01*
X019640Y006588D01*
X019570Y006419D01*
X019441Y006290D01*
X019512Y006362D02*
X019848Y006362D01*
X019748Y006520D02*
X019612Y006520D01*
X019640Y006679D02*
X019720Y006679D01*
X019747Y006837D02*
X019613Y006837D01*
X019515Y006996D02*
X019845Y006996D01*
X019897Y007313D02*
X019463Y007313D01*
X019441Y007290D02*
X019570Y007419D01*
X019640Y007588D01*
X019640Y007771D01*
X019570Y007941D01*
X019441Y008070D01*
X019271Y008140D01*
X019088Y008140D01*
X018919Y008070D01*
X018790Y007941D01*
X018720Y007771D01*
X018720Y007588D01*
X018790Y007419D01*
X018919Y007290D01*
X019088Y007220D01*
X019271Y007220D01*
X019441Y007290D01*
X019591Y007471D02*
X019769Y007471D01*
X019720Y007630D02*
X019640Y007630D01*
X019633Y007788D02*
X019727Y007788D01*
X019796Y007947D02*
X019564Y007947D01*
X019356Y008105D02*
X020004Y008105D01*
X019983Y008264D02*
X019377Y008264D01*
X019441Y008290D02*
X019570Y008419D01*
X019640Y008588D01*
X019640Y008771D01*
X019570Y008941D01*
X019441Y009070D01*
X019271Y009140D01*
X019088Y009140D01*
X018919Y009070D01*
X018790Y008941D01*
X018720Y008771D01*
X018720Y008588D01*
X018790Y008419D01*
X018919Y008290D01*
X019088Y008220D01*
X019271Y008220D01*
X019441Y008290D01*
X019571Y008422D02*
X019789Y008422D01*
X019723Y008581D02*
X019637Y008581D01*
X019640Y008739D02*
X019720Y008739D01*
X019772Y008898D02*
X019588Y008898D01*
X019455Y009056D02*
X019905Y009056D01*
X019836Y009373D02*
X019524Y009373D01*
X019570Y009419D02*
X019441Y009290D01*
X019271Y009220D01*
X019088Y009220D01*
X018919Y009290D01*
X018790Y009419D01*
X018720Y009588D01*
X018720Y009771D01*
X018790Y009941D01*
X018919Y010070D01*
X019088Y010140D01*
X019271Y010140D01*
X019441Y010070D01*
X019570Y009941D01*
X019640Y009771D01*
X019640Y009588D01*
X019570Y009419D01*
X019616Y009532D02*
X019744Y009532D01*
X019720Y009690D02*
X019640Y009690D01*
X019608Y009849D02*
X019752Y009849D01*
X019856Y010007D02*
X019504Y010007D01*
X019441Y010290D02*
X019271Y010220D01*
X019088Y010220D01*
X018919Y010290D01*
X018790Y010419D01*
X018720Y010588D01*
X018720Y010771D01*
X018790Y010941D01*
X018919Y011070D01*
X019088Y011140D01*
X019271Y011140D01*
X019441Y011070D01*
X019570Y010941D01*
X019640Y010771D01*
X019640Y010588D01*
X019570Y010419D01*
X019441Y010290D01*
X019475Y010324D02*
X019885Y010324D01*
X019764Y010483D02*
X019596Y010483D01*
X019640Y010641D02*
X019720Y010641D01*
X019732Y010800D02*
X019628Y010800D01*
X019553Y010958D02*
X019807Y010958D01*
X020032Y011117D02*
X019328Y011117D01*
X019271Y011220D02*
X019441Y011290D01*
X019570Y011419D01*
X019640Y011588D01*
X019640Y011771D01*
X019570Y011941D01*
X019441Y012070D01*
X019271Y012140D01*
X019088Y012140D01*
X018919Y012070D01*
X018790Y011941D01*
X018720Y011771D01*
X018720Y011588D01*
X018790Y011419D01*
X018919Y011290D01*
X019088Y011220D01*
X019271Y011220D01*
X019404Y011275D02*
X019956Y011275D01*
X019784Y011434D02*
X019576Y011434D01*
X019640Y011592D02*
X019720Y011592D01*
X019720Y011751D02*
X019640Y011751D01*
X019583Y011909D02*
X019777Y011909D01*
X019917Y012068D02*
X019443Y012068D01*
X019441Y012290D02*
X019271Y012220D01*
X019088Y012220D01*
X018919Y012290D01*
X018790Y012419D01*
X018720Y012588D01*
X018720Y012771D01*
X018790Y012941D01*
X018919Y013070D01*
X019088Y013140D01*
X019271Y013140D01*
X019441Y013070D01*
X019570Y012941D01*
X019640Y012771D01*
X019640Y012588D01*
X019570Y012419D01*
X019441Y012290D01*
X019535Y012385D02*
X019825Y012385D01*
X019739Y012543D02*
X019621Y012543D01*
X019640Y012702D02*
X019720Y012702D01*
X019757Y012860D02*
X019603Y012860D01*
X019492Y013019D02*
X019868Y013019D01*
X019874Y013336D02*
X019486Y013336D01*
X019441Y013290D02*
X019570Y013419D01*
X019640Y013588D01*
X019640Y013771D01*
X019570Y013941D01*
X019441Y014070D01*
X019271Y014140D01*
X019088Y014140D01*
X018919Y014070D01*
X018790Y013941D01*
X018720Y013771D01*
X018720Y013588D01*
X018790Y013419D01*
X018919Y013290D01*
X019088Y013220D01*
X019271Y013220D01*
X019441Y013290D01*
X019601Y013494D02*
X019759Y013494D01*
X019720Y013653D02*
X019640Y013653D01*
X019624Y013811D02*
X019736Y013811D01*
X019819Y013970D02*
X019541Y013970D01*
X019300Y014128D02*
X020060Y014128D01*
X019928Y014287D02*
X019432Y014287D01*
X019441Y014290D02*
X019570Y014419D01*
X019640Y014588D01*
X019640Y014771D01*
X019570Y014941D01*
X019441Y015070D01*
X019271Y015140D01*
X019088Y015140D01*
X018919Y015070D01*
X018790Y014941D01*
X018720Y014771D01*
X018720Y014588D01*
X018790Y014419D01*
X018919Y014290D01*
X019088Y014220D01*
X019271Y014220D01*
X019441Y014290D01*
X019581Y014445D02*
X019779Y014445D01*
X019720Y014604D02*
X019640Y014604D01*
X019640Y014762D02*
X019720Y014762D01*
X019782Y014921D02*
X019578Y014921D01*
X019419Y015079D02*
X019941Y015079D01*
X020046Y015238D02*
X019314Y015238D01*
X019271Y015220D02*
X019441Y015290D01*
X019570Y015419D01*
X019640Y015588D01*
X019640Y015771D01*
X019570Y015941D01*
X019441Y016070D01*
X019271Y016140D01*
X019088Y016140D01*
X018919Y016070D01*
X018790Y015941D01*
X018720Y015771D01*
X018720Y015588D01*
X018790Y015419D01*
X018919Y015290D01*
X019088Y015220D01*
X019271Y015220D01*
X019046Y015238D02*
X018314Y015238D01*
X018271Y015220D02*
X018441Y015290D01*
X018570Y015419D01*
X018640Y015588D01*
X018640Y015771D01*
X018570Y015941D01*
X018441Y016070D01*
X018271Y016140D01*
X018088Y016140D01*
X017919Y016070D01*
X017790Y015941D01*
X017720Y015771D01*
X017720Y015588D01*
X017790Y015419D01*
X017919Y015290D01*
X018088Y015220D01*
X018271Y015220D01*
X018419Y015079D02*
X018941Y015079D01*
X018782Y014921D02*
X018578Y014921D01*
X018640Y014762D02*
X018720Y014762D01*
X018720Y014604D02*
X018640Y014604D01*
X018581Y014445D02*
X018779Y014445D01*
X018928Y014287D02*
X018432Y014287D01*
X018300Y014128D02*
X019060Y014128D01*
X018819Y013970D02*
X018541Y013970D01*
X018624Y013811D02*
X018736Y013811D01*
X018720Y013653D02*
X018640Y013653D01*
X018601Y013494D02*
X018759Y013494D01*
X018874Y013336D02*
X018486Y013336D01*
X018441Y013070D02*
X018271Y013140D01*
X018088Y013140D01*
X017919Y013070D01*
X017790Y012941D01*
X017720Y012771D01*
X017720Y012588D01*
X017790Y012419D01*
X017919Y012290D01*
X018088Y012220D01*
X018271Y012220D01*
X018441Y012290D01*
X018570Y012419D01*
X018640Y012588D01*
X018640Y012771D01*
X018570Y012941D01*
X018441Y013070D01*
X018492Y013019D02*
X018868Y013019D01*
X018757Y012860D02*
X018603Y012860D01*
X018640Y012702D02*
X018720Y012702D01*
X018739Y012543D02*
X018621Y012543D01*
X018535Y012385D02*
X018825Y012385D01*
X019074Y012226D02*
X018286Y012226D01*
X018271Y012140D02*
X018088Y012140D01*
X017919Y012070D01*
X017790Y011941D01*
X017720Y011771D01*
X017720Y011588D01*
X017790Y011419D01*
X017919Y011290D01*
X018088Y011220D01*
X018271Y011220D01*
X018441Y011290D01*
X018570Y011419D01*
X018640Y011588D01*
X018640Y011771D01*
X018570Y011941D01*
X018441Y012070D01*
X018271Y012140D01*
X018443Y012068D02*
X018917Y012068D01*
X018777Y011909D02*
X018583Y011909D01*
X018640Y011751D02*
X018720Y011751D01*
X018720Y011592D02*
X018640Y011592D01*
X018576Y011434D02*
X018784Y011434D01*
X018956Y011275D02*
X018404Y011275D01*
X018328Y011117D02*
X019032Y011117D01*
X018807Y010958D02*
X018553Y010958D01*
X018570Y010941D02*
X018441Y011070D01*
X018271Y011140D01*
X018088Y011140D01*
X017919Y011070D01*
X017790Y010941D01*
X017720Y010771D01*
X017720Y010588D01*
X017790Y010419D01*
X017919Y010290D01*
X018088Y010220D01*
X018271Y010220D01*
X018441Y010290D01*
X018570Y010419D01*
X018640Y010588D01*
X018640Y010771D01*
X018570Y010941D01*
X018628Y010800D02*
X018732Y010800D01*
X018720Y010641D02*
X018640Y010641D01*
X018596Y010483D02*
X018764Y010483D01*
X018885Y010324D02*
X018475Y010324D01*
X018856Y010007D02*
X015504Y010007D01*
X015441Y010070D02*
X015271Y010140D01*
X015088Y010140D01*
X014919Y010070D01*
X014790Y009941D01*
X014720Y009771D01*
X014720Y009588D01*
X014790Y009419D01*
X014919Y009290D01*
X015088Y009220D01*
X015271Y009220D01*
X015441Y009290D01*
X015570Y009419D01*
X015640Y009588D01*
X015640Y009771D01*
X015570Y009941D01*
X015441Y010070D01*
X015475Y010324D02*
X017885Y010324D01*
X017764Y010483D02*
X015596Y010483D01*
X015640Y010641D02*
X017720Y010641D01*
X017732Y010800D02*
X015628Y010800D01*
X015553Y010958D02*
X017807Y010958D01*
X018032Y011117D02*
X015328Y011117D01*
X015404Y011275D02*
X017956Y011275D01*
X017784Y011434D02*
X015576Y011434D01*
X015640Y011592D02*
X017720Y011592D01*
X017720Y011751D02*
X015640Y011751D01*
X015583Y011909D02*
X017777Y011909D01*
X017917Y012068D02*
X015443Y012068D01*
X015286Y012226D02*
X017074Y012226D01*
X017088Y012220D02*
X017271Y012220D01*
X017441Y012290D01*
X017570Y012419D01*
X017640Y012588D01*
X017640Y012771D01*
X017570Y012941D01*
X017441Y013070D01*
X017271Y013140D01*
X017088Y013140D01*
X016919Y013070D01*
X016790Y012941D01*
X016720Y012771D01*
X016720Y012588D01*
X016790Y012419D01*
X016919Y012290D01*
X017088Y012220D01*
X017286Y012226D02*
X018074Y012226D01*
X017825Y012385D02*
X017535Y012385D01*
X017621Y012543D02*
X017739Y012543D01*
X017720Y012702D02*
X017640Y012702D01*
X017603Y012860D02*
X017757Y012860D01*
X017868Y013019D02*
X017492Y013019D01*
X017486Y013336D02*
X017874Y013336D01*
X017759Y013494D02*
X017601Y013494D01*
X017640Y013653D02*
X017720Y013653D01*
X017736Y013811D02*
X017624Y013811D01*
X017541Y013970D02*
X017819Y013970D01*
X016819Y013970D02*
X015541Y013970D01*
X015624Y013811D02*
X016736Y013811D01*
X016720Y013653D02*
X015640Y013653D01*
X015601Y013494D02*
X016759Y013494D01*
X016874Y013336D02*
X015486Y013336D01*
X015492Y013019D02*
X016868Y013019D01*
X016757Y012860D02*
X015603Y012860D01*
X015640Y012702D02*
X016720Y012702D01*
X016739Y012543D02*
X015621Y012543D01*
X015535Y012385D02*
X016825Y012385D01*
X015074Y012226D02*
X014973Y012226D01*
X014825Y012385D02*
X014813Y012385D01*
X014739Y012543D02*
X012854Y012543D01*
X013013Y012702D02*
X014720Y012702D01*
X014680Y013180D02*
X015180Y013680D01*
X014655Y013494D02*
X014057Y013494D01*
X013930Y013180D02*
X014680Y013180D01*
X014680Y012180D02*
X015180Y011680D01*
X014956Y011275D02*
X014924Y011275D01*
X014784Y011434D02*
X012576Y011434D01*
X012640Y011592D02*
X014720Y011592D01*
X014720Y011751D02*
X012640Y011751D01*
X012583Y011909D02*
X014612Y011909D01*
X014680Y012180D02*
X012430Y012180D01*
X012492Y013019D02*
X012707Y013019D01*
X012835Y013177D02*
X011772Y013177D01*
X011919Y013290D02*
X012088Y013220D01*
X012271Y013220D01*
X012441Y013290D01*
X012570Y013419D01*
X012640Y013588D01*
X012640Y013771D01*
X012570Y013941D01*
X012441Y014070D01*
X012271Y014140D01*
X012088Y014140D01*
X011919Y014070D01*
X011790Y013941D01*
X011720Y013771D01*
X011720Y013588D01*
X011790Y013419D01*
X011919Y013290D01*
X011874Y013336D02*
X011614Y013336D01*
X011601Y013494D02*
X011759Y013494D01*
X011720Y013653D02*
X011640Y013653D01*
X011624Y013811D02*
X011736Y013811D01*
X011819Y013970D02*
X011541Y013970D01*
X011300Y014128D02*
X012060Y014128D01*
X011928Y014287D02*
X011432Y014287D01*
X011581Y014445D02*
X011779Y014445D01*
X011720Y014604D02*
X011640Y014604D01*
X011640Y014762D02*
X011720Y014762D01*
X011782Y014921D02*
X011578Y014921D01*
X010782Y014921D02*
X008953Y014921D01*
X008795Y014762D02*
X010720Y014762D01*
X010720Y014604D02*
X008636Y014604D01*
X008478Y014445D02*
X010779Y014445D01*
X010928Y014287D02*
X008319Y014287D01*
X008269Y014128D02*
X011060Y014128D01*
X010819Y013970D02*
X010018Y013970D01*
X009187Y013970D02*
X008199Y013970D01*
X007716Y014445D02*
X007644Y014445D01*
X007430Y014180D02*
X006430Y013180D01*
X006430Y012280D01*
X008730Y009980D01*
X008418Y009849D02*
X006013Y009849D01*
X006019Y009863D02*
X006019Y009997D01*
X006000Y010043D01*
X006000Y013244D01*
X005951Y013361D01*
X004182Y015130D01*
X004240Y015269D01*
X004240Y015591D01*
X004117Y015889D01*
X003889Y016117D01*
X003591Y016240D01*
X003269Y016240D01*
X002971Y016117D01*
X002743Y015889D01*
X002620Y015591D01*
X002620Y015269D01*
X002743Y014971D01*
X002971Y014743D01*
X003269Y014620D01*
X003591Y014620D01*
X003730Y014678D01*
X005360Y013047D01*
X005360Y010043D01*
X005341Y009997D01*
X005341Y009863D01*
X005360Y009817D01*
X005360Y007043D01*
X005341Y006997D01*
X005341Y006863D01*
X005393Y006738D01*
X005488Y006643D01*
X005613Y006591D01*
X005747Y006591D01*
X005872Y006643D01*
X005967Y006738D01*
X006019Y006863D01*
X006019Y006997D01*
X006000Y007043D01*
X006000Y009817D01*
X006019Y009863D01*
X006015Y010007D02*
X008364Y010007D01*
X008205Y010166D02*
X006000Y010166D01*
X006000Y010324D02*
X008047Y010324D01*
X007888Y010483D02*
X006000Y010483D01*
X006000Y010641D02*
X007730Y010641D01*
X007571Y010800D02*
X006000Y010800D01*
X006000Y010958D02*
X007413Y010958D01*
X007254Y011117D02*
X006000Y011117D01*
X006000Y011275D02*
X007096Y011275D01*
X006937Y011434D02*
X006000Y011434D01*
X006000Y011592D02*
X006779Y011592D01*
X006620Y011751D02*
X006000Y011751D01*
X006000Y011909D02*
X006462Y011909D01*
X006303Y012068D02*
X006000Y012068D01*
X006000Y012226D02*
X006193Y012226D01*
X006190Y012385D02*
X006000Y012385D01*
X006000Y012543D02*
X006190Y012543D01*
X006190Y012702D02*
X006000Y012702D01*
X006000Y012860D02*
X006190Y012860D01*
X006190Y013019D02*
X006000Y013019D01*
X006000Y013177D02*
X006190Y013177D01*
X006246Y013336D02*
X005962Y013336D01*
X005819Y013494D02*
X006405Y013494D01*
X006563Y013653D02*
X005660Y013653D01*
X005502Y013811D02*
X006722Y013811D01*
X006880Y013970D02*
X005343Y013970D01*
X005185Y014128D02*
X007039Y014128D01*
X007107Y014287D02*
X005026Y014287D01*
X004868Y014445D02*
X007216Y014445D01*
X007210Y014921D02*
X004392Y014921D01*
X004234Y015079D02*
X007105Y015079D01*
X007091Y015238D02*
X004227Y015238D01*
X004240Y015396D02*
X007167Y015396D01*
X007465Y015555D02*
X004240Y015555D01*
X004190Y015713D02*
X007624Y015713D01*
X007782Y015872D02*
X004124Y015872D01*
X003975Y016030D02*
X007941Y016030D01*
X008099Y016189D02*
X003715Y016189D01*
X003145Y016189D02*
X001170Y016189D01*
X001170Y016347D02*
X008258Y016347D01*
X008430Y016180D02*
X014680Y016180D01*
X015180Y015680D01*
X015011Y016189D02*
X020332Y016189D01*
X020680Y016180D02*
X021680Y016180D01*
X021680Y015180D01*
X023080Y015180D01*
X023080Y015080D01*
X021680Y015180D02*
X021680Y014180D01*
X021624Y013811D02*
X021736Y013811D01*
X021720Y013653D02*
X021640Y013653D01*
X021601Y013494D02*
X021759Y013494D01*
X021874Y013336D02*
X021486Y013336D01*
X021790Y012941D02*
X021919Y013070D01*
X022088Y013140D01*
X022271Y013140D01*
X022441Y013070D01*
X022570Y012941D01*
X022640Y012771D01*
X022640Y012588D01*
X022570Y012419D01*
X022441Y012290D01*
X022271Y012220D01*
X022088Y012220D01*
X021919Y012290D01*
X021790Y012419D01*
X021720Y012588D01*
X021720Y012771D01*
X021790Y012941D01*
X021757Y012860D02*
X021603Y012860D01*
X021640Y012702D02*
X021720Y012702D01*
X021739Y012543D02*
X021621Y012543D01*
X021535Y012385D02*
X021825Y012385D01*
X022074Y012226D02*
X021286Y012226D01*
X021074Y012226D02*
X020286Y012226D01*
X020074Y012226D02*
X019286Y012226D01*
X021443Y012068D02*
X021917Y012068D01*
X021919Y012070D02*
X021790Y011941D01*
X021720Y011771D01*
X021720Y011588D01*
X021790Y011419D01*
X021919Y011290D01*
X022088Y011220D01*
X022271Y011220D01*
X022441Y011290D01*
X022570Y011419D01*
X022640Y011588D01*
X022640Y011771D01*
X022570Y011941D01*
X022441Y012070D01*
X022271Y012140D01*
X022088Y012140D01*
X021919Y012070D01*
X021777Y011909D02*
X021583Y011909D01*
X021640Y011751D02*
X021720Y011751D01*
X021720Y011592D02*
X021640Y011592D01*
X021576Y011434D02*
X021784Y011434D01*
X021956Y011275D02*
X021404Y011275D01*
X021328Y011117D02*
X022032Y011117D01*
X022088Y011140D02*
X021919Y011070D01*
X021790Y010941D01*
X021720Y010771D01*
X021720Y010588D01*
X021790Y010419D01*
X021919Y010290D01*
X022088Y010220D01*
X022271Y010220D01*
X022441Y010290D01*
X022570Y010419D01*
X022640Y010588D01*
X022640Y010771D01*
X022570Y010941D01*
X022441Y011070D01*
X022271Y011140D01*
X022088Y011140D01*
X022328Y011117D02*
X022760Y011117D01*
X022760Y011275D02*
X022404Y011275D01*
X022576Y011434D02*
X022760Y011434D01*
X022760Y011592D02*
X022640Y011592D01*
X022640Y011751D02*
X022760Y011751D01*
X022760Y011909D02*
X022583Y011909D01*
X022443Y012068D02*
X022760Y012068D01*
X022760Y012226D02*
X022286Y012226D01*
X022535Y012385D02*
X022760Y012385D01*
X022760Y012543D02*
X022621Y012543D01*
X022640Y012702D02*
X022760Y012702D01*
X022760Y012860D02*
X022603Y012860D01*
X022492Y013019D02*
X022760Y013019D01*
X021868Y013019D02*
X021492Y013019D01*
X020680Y014180D02*
X020680Y015180D01*
X020680Y016180D01*
X021180Y016680D01*
X020830Y016981D02*
X020530Y016981D01*
X020619Y016823D02*
X020741Y016823D01*
X020720Y016664D02*
X020640Y016664D01*
X020180Y016680D02*
X020680Y016180D01*
X019879Y016030D02*
X019481Y016030D01*
X019599Y015872D02*
X019761Y015872D01*
X019720Y015713D02*
X019640Y015713D01*
X019626Y015555D02*
X019734Y015555D01*
X019813Y015396D02*
X019547Y015396D01*
X018813Y015396D02*
X018547Y015396D01*
X018626Y015555D02*
X018734Y015555D01*
X018720Y015713D02*
X018640Y015713D01*
X018599Y015872D02*
X018761Y015872D01*
X018879Y016030D02*
X018481Y016030D01*
X018498Y016347D02*
X018862Y016347D01*
X018754Y016506D02*
X018606Y016506D01*
X018640Y016664D02*
X018720Y016664D01*
X018741Y016823D02*
X018619Y016823D01*
X018530Y016981D02*
X018830Y016981D01*
X019530Y016981D02*
X019830Y016981D01*
X019741Y016823D02*
X019619Y016823D01*
X019640Y016664D02*
X019720Y016664D01*
X019754Y016506D02*
X019606Y016506D01*
X019498Y016347D02*
X019862Y016347D01*
X020314Y015238D02*
X020440Y015238D01*
X020440Y015079D02*
X020419Y015079D01*
X020680Y015180D02*
X021680Y015180D01*
X022400Y017457D02*
X000460Y017457D01*
X000460Y017615D02*
X022400Y017615D01*
X022400Y017774D02*
X022100Y017774D01*
X022140Y017814D02*
X022140Y018546D01*
X022046Y018640D01*
X021960Y018640D01*
X021960Y019720D01*
X022046Y019720D01*
X022140Y019814D01*
X022140Y020546D01*
X022046Y020640D01*
X021314Y020640D01*
X021220Y020546D01*
X021220Y019814D01*
X021314Y019720D01*
X021400Y019720D01*
X021400Y018640D01*
X021314Y018640D01*
X021220Y018546D01*
X021220Y017814D01*
X021314Y017720D01*
X022046Y017720D01*
X022140Y017814D01*
X022140Y017932D02*
X022400Y017932D01*
X022400Y018091D02*
X022140Y018091D01*
X022140Y018249D02*
X022400Y018249D01*
X022400Y018408D02*
X022140Y018408D01*
X022120Y018566D02*
X022400Y018566D01*
X022400Y018725D02*
X021960Y018725D01*
X021960Y018883D02*
X022400Y018883D01*
X022400Y019042D02*
X021960Y019042D01*
X021960Y019200D02*
X022400Y019200D01*
X022400Y019359D02*
X021960Y019359D01*
X021960Y019517D02*
X022400Y019517D01*
X022400Y019676D02*
X021960Y019676D01*
X022140Y019834D02*
X022400Y019834D01*
X022400Y019993D02*
X022140Y019993D01*
X022140Y020151D02*
X022400Y020151D01*
X022386Y020310D02*
X022140Y020310D01*
X022140Y020468D02*
X022334Y020468D01*
X022235Y020627D02*
X022060Y020627D01*
X022057Y020785D02*
X000888Y020785D01*
X000694Y020627D02*
X005956Y020627D01*
X005988Y020640D02*
X005819Y020570D01*
X005690Y020441D01*
X005620Y020271D01*
X005620Y020088D01*
X005690Y019919D01*
X005800Y019809D01*
X005800Y018551D01*
X005690Y018441D01*
X005620Y018271D01*
X005620Y018088D01*
X005690Y017919D01*
X005819Y017790D01*
X005988Y017720D01*
X006171Y017720D01*
X006341Y017790D01*
X006470Y017919D01*
X006540Y018088D01*
X006540Y018271D01*
X006470Y018441D01*
X006360Y018551D01*
X006360Y019809D01*
X006470Y019919D01*
X006540Y020088D01*
X006540Y020271D01*
X006470Y020441D01*
X006341Y020570D01*
X006171Y020640D01*
X005988Y020640D01*
X006204Y020627D02*
X006966Y020627D01*
X006972Y020629D02*
X006903Y020606D01*
X006839Y020573D01*
X006780Y020531D01*
X006729Y020480D01*
X006687Y020421D01*
X006654Y020357D01*
X006631Y020288D01*
X006620Y020216D01*
X006620Y020200D01*
X007060Y020200D01*
X007060Y020640D01*
X007044Y020640D01*
X006972Y020629D01*
X007060Y020627D02*
X007100Y020627D01*
X007100Y020640D02*
X007100Y020200D01*
X007060Y020200D01*
X007060Y020160D01*
X006620Y020160D01*
X006620Y020144D01*
X006631Y020072D01*
X006654Y020003D01*
X006687Y019939D01*
X006729Y019880D01*
X006780Y019829D01*
X006839Y019787D01*
X006903Y019754D01*
X006972Y019731D01*
X007044Y019720D01*
X007060Y019720D01*
X007060Y020160D01*
X007100Y020160D01*
X007100Y020200D01*
X007540Y020200D01*
X007540Y020216D01*
X007529Y020288D01*
X007506Y020357D01*
X007473Y020421D01*
X007431Y020480D01*
X007380Y020531D01*
X007321Y020573D01*
X007257Y020606D01*
X007188Y020629D01*
X007116Y020640D01*
X007100Y020640D01*
X007194Y020627D02*
X007956Y020627D01*
X007988Y020640D02*
X007819Y020570D01*
X007690Y020441D01*
X007620Y020271D01*
X007620Y020088D01*
X007690Y019919D01*
X007800Y019809D01*
X007800Y018551D01*
X007690Y018441D01*
X007620Y018271D01*
X007620Y018088D01*
X007690Y017919D01*
X007819Y017790D01*
X007988Y017720D01*
X008171Y017720D01*
X008341Y017790D01*
X008470Y017919D01*
X008540Y018088D01*
X008540Y018271D01*
X008470Y018441D01*
X008360Y018551D01*
X008360Y019809D01*
X008470Y019919D01*
X008540Y020088D01*
X008540Y020271D01*
X008470Y020441D01*
X008341Y020570D01*
X008171Y020640D01*
X007988Y020640D01*
X008204Y020627D02*
X008956Y020627D01*
X008988Y020640D02*
X008819Y020570D01*
X008690Y020441D01*
X008620Y020271D01*
X008620Y020088D01*
X008690Y019919D01*
X008800Y019809D01*
X008800Y018551D01*
X008690Y018441D01*
X008620Y018271D01*
X008620Y018088D01*
X008690Y017919D01*
X008819Y017790D01*
X008988Y017720D01*
X009171Y017720D01*
X009341Y017790D01*
X009470Y017919D01*
X009540Y018088D01*
X009540Y018271D01*
X009470Y018441D01*
X009360Y018551D01*
X009360Y019809D01*
X009470Y019919D01*
X009540Y020088D01*
X009540Y020271D01*
X009470Y020441D01*
X009341Y020570D01*
X009171Y020640D01*
X008988Y020640D01*
X009204Y020627D02*
X009956Y020627D01*
X009988Y020640D02*
X009819Y020570D01*
X009690Y020441D01*
X009620Y020271D01*
X009620Y020088D01*
X009690Y019919D01*
X009800Y019809D01*
X009800Y018551D01*
X009690Y018441D01*
X009620Y018271D01*
X009620Y018088D01*
X009690Y017919D01*
X009819Y017790D01*
X009988Y017720D01*
X010171Y017720D01*
X010341Y017790D01*
X010470Y017919D01*
X010540Y018088D01*
X010540Y018271D01*
X010470Y018441D01*
X010360Y018551D01*
X010360Y019809D01*
X010470Y019919D01*
X010540Y020088D01*
X010540Y020271D01*
X010470Y020441D01*
X010341Y020570D01*
X010171Y020640D01*
X009988Y020640D01*
X010204Y020627D02*
X010956Y020627D01*
X010988Y020640D02*
X010819Y020570D01*
X010690Y020441D01*
X010620Y020271D01*
X010620Y020088D01*
X010690Y019919D01*
X010800Y019809D01*
X010800Y018551D01*
X010690Y018441D01*
X010620Y018271D01*
X010620Y018088D01*
X010690Y017919D01*
X010819Y017790D01*
X010988Y017720D01*
X011171Y017720D01*
X011341Y017790D01*
X011470Y017919D01*
X011540Y018088D01*
X011540Y018271D01*
X011470Y018441D01*
X011360Y018551D01*
X011360Y019809D01*
X011470Y019919D01*
X011540Y020088D01*
X011540Y020271D01*
X011470Y020441D01*
X011341Y020570D01*
X011171Y020640D01*
X010988Y020640D01*
X011204Y020627D02*
X011956Y020627D01*
X011988Y020640D02*
X011819Y020570D01*
X011690Y020441D01*
X011620Y020271D01*
X011620Y020088D01*
X011690Y019919D01*
X011800Y019809D01*
X011800Y018551D01*
X011690Y018441D01*
X011620Y018271D01*
X011620Y018088D01*
X011690Y017919D01*
X011819Y017790D01*
X011988Y017720D01*
X012171Y017720D01*
X012341Y017790D01*
X012470Y017919D01*
X012540Y018088D01*
X012540Y018271D01*
X012470Y018441D01*
X012360Y018551D01*
X012360Y019809D01*
X012470Y019919D01*
X012540Y020088D01*
X012540Y020271D01*
X012470Y020441D01*
X012341Y020570D01*
X012171Y020640D01*
X011988Y020640D01*
X012204Y020627D02*
X012700Y020627D01*
X012714Y020640D02*
X012620Y020546D01*
X012620Y019814D01*
X012714Y019720D01*
X012800Y019720D01*
X012800Y018640D01*
X012714Y018640D01*
X012620Y018546D01*
X012620Y017814D01*
X012714Y017720D01*
X013446Y017720D01*
X013540Y017814D01*
X013540Y018546D01*
X013446Y018640D01*
X013360Y018640D01*
X013360Y019720D01*
X013446Y019720D01*
X013540Y019814D01*
X013540Y020546D01*
X013446Y020640D01*
X012714Y020640D01*
X012620Y020468D02*
X012443Y020468D01*
X012524Y020310D02*
X012620Y020310D01*
X012620Y020151D02*
X012540Y020151D01*
X012500Y019993D02*
X012620Y019993D01*
X012620Y019834D02*
X012385Y019834D01*
X012360Y019676D02*
X012800Y019676D01*
X012800Y019517D02*
X012360Y019517D01*
X012360Y019359D02*
X012800Y019359D01*
X012800Y019200D02*
X012360Y019200D01*
X012360Y019042D02*
X012800Y019042D01*
X012800Y018883D02*
X012360Y018883D01*
X012360Y018725D02*
X012800Y018725D01*
X012640Y018566D02*
X012360Y018566D01*
X012484Y018408D02*
X012620Y018408D01*
X012620Y018249D02*
X012540Y018249D01*
X012540Y018091D02*
X012620Y018091D01*
X012620Y017932D02*
X012475Y017932D01*
X012301Y017774D02*
X012660Y017774D01*
X013500Y017774D02*
X014459Y017774D01*
X014419Y017790D02*
X014588Y017720D01*
X014771Y017720D01*
X014941Y017790D01*
X015070Y017919D01*
X015140Y018088D01*
X015140Y018271D01*
X015070Y018441D01*
X014960Y018551D01*
X014960Y019809D01*
X015070Y019919D01*
X015140Y020088D01*
X015140Y020271D01*
X015070Y020441D01*
X014941Y020570D01*
X014771Y020640D01*
X014588Y020640D01*
X014419Y020570D01*
X014290Y020441D01*
X014220Y020271D01*
X014220Y020088D01*
X014290Y019919D01*
X014400Y019809D01*
X014400Y018551D01*
X014290Y018441D01*
X014220Y018271D01*
X014220Y018088D01*
X014290Y017919D01*
X014419Y017790D01*
X014285Y017932D02*
X013540Y017932D01*
X013540Y018091D02*
X014220Y018091D01*
X014220Y018249D02*
X013540Y018249D01*
X013540Y018408D02*
X014276Y018408D01*
X014400Y018566D02*
X013520Y018566D01*
X013360Y018725D02*
X014400Y018725D01*
X014400Y018883D02*
X013360Y018883D01*
X013360Y019042D02*
X014400Y019042D01*
X014400Y019200D02*
X013360Y019200D01*
X013360Y019359D02*
X014400Y019359D01*
X014400Y019517D02*
X013360Y019517D01*
X013360Y019676D02*
X014400Y019676D01*
X014375Y019834D02*
X013540Y019834D01*
X013540Y019993D02*
X014260Y019993D01*
X014220Y020151D02*
X013540Y020151D01*
X013540Y020310D02*
X014236Y020310D01*
X014317Y020468D02*
X013540Y020468D01*
X013460Y020627D02*
X014556Y020627D01*
X014804Y020627D02*
X015556Y020627D01*
X015588Y020640D02*
X015419Y020570D01*
X015290Y020441D01*
X015220Y020271D01*
X015220Y020088D01*
X015290Y019919D01*
X015400Y019809D01*
X015400Y018551D01*
X015290Y018441D01*
X015220Y018271D01*
X015220Y018088D01*
X015290Y017919D01*
X015419Y017790D01*
X015588Y017720D01*
X015771Y017720D01*
X015941Y017790D01*
X016070Y017919D01*
X016140Y018088D01*
X016140Y018271D01*
X016070Y018441D01*
X015960Y018551D01*
X015960Y019809D01*
X016070Y019919D01*
X016140Y020088D01*
X016140Y020271D01*
X016070Y020441D01*
X015941Y020570D01*
X015771Y020640D01*
X015588Y020640D01*
X015804Y020627D02*
X016556Y020627D01*
X016588Y020640D02*
X016419Y020570D01*
X016290Y020441D01*
X016220Y020271D01*
X016220Y020088D01*
X016290Y019919D01*
X016400Y019809D01*
X016400Y018551D01*
X016290Y018441D01*
X016220Y018271D01*
X016220Y018088D01*
X016290Y017919D01*
X016419Y017790D01*
X016588Y017720D01*
X016771Y017720D01*
X016941Y017790D01*
X017070Y017919D01*
X017140Y018088D01*
X017140Y018271D01*
X017070Y018441D01*
X016960Y018551D01*
X016960Y019809D01*
X017070Y019919D01*
X017140Y020088D01*
X017140Y020271D01*
X017070Y020441D01*
X016941Y020570D01*
X016771Y020640D01*
X016588Y020640D01*
X016804Y020627D02*
X017556Y020627D01*
X017588Y020640D02*
X017419Y020570D01*
X017290Y020441D01*
X017220Y020271D01*
X017220Y020088D01*
X017290Y019919D01*
X017400Y019809D01*
X017400Y018551D01*
X017290Y018441D01*
X017220Y018271D01*
X017220Y018088D01*
X017290Y017919D01*
X017419Y017790D01*
X017588Y017720D01*
X017771Y017720D01*
X017941Y017790D01*
X018070Y017919D01*
X018140Y018088D01*
X018140Y018271D01*
X018070Y018441D01*
X017960Y018551D01*
X017960Y019809D01*
X018070Y019919D01*
X018140Y020088D01*
X018140Y020271D01*
X018070Y020441D01*
X017941Y020570D01*
X017771Y020640D01*
X017588Y020640D01*
X017804Y020627D02*
X018556Y020627D01*
X018588Y020640D02*
X018419Y020570D01*
X018290Y020441D01*
X018220Y020271D01*
X018220Y020088D01*
X018290Y019919D01*
X018400Y019809D01*
X018400Y018551D01*
X018290Y018441D01*
X018220Y018271D01*
X018220Y018088D01*
X018290Y017919D01*
X018419Y017790D01*
X018588Y017720D01*
X018771Y017720D01*
X018941Y017790D01*
X019070Y017919D01*
X019140Y018088D01*
X019140Y018271D01*
X019070Y018441D01*
X018960Y018551D01*
X018960Y019809D01*
X019070Y019919D01*
X019140Y020088D01*
X019140Y020271D01*
X019070Y020441D01*
X018941Y020570D01*
X018771Y020640D01*
X018588Y020640D01*
X018804Y020627D02*
X019556Y020627D01*
X019588Y020640D02*
X019419Y020570D01*
X019290Y020441D01*
X019220Y020271D01*
X019220Y020088D01*
X019290Y019919D01*
X019400Y019809D01*
X019400Y018551D01*
X019290Y018441D01*
X019220Y018271D01*
X019220Y018088D01*
X019290Y017919D01*
X019419Y017790D01*
X019588Y017720D01*
X019771Y017720D01*
X019941Y017790D01*
X020070Y017919D01*
X020140Y018088D01*
X020140Y018271D01*
X020070Y018441D01*
X019960Y018551D01*
X019960Y019809D01*
X020070Y019919D01*
X020140Y020088D01*
X020140Y020271D01*
X020070Y020441D01*
X019941Y020570D01*
X019771Y020640D01*
X019588Y020640D01*
X019804Y020627D02*
X020556Y020627D01*
X020588Y020640D02*
X020419Y020570D01*
X020290Y020441D01*
X020220Y020271D01*
X020220Y020088D01*
X020290Y019919D01*
X020400Y019809D01*
X020400Y018551D01*
X020290Y018441D01*
X020220Y018271D01*
X020220Y018088D01*
X020290Y017919D01*
X020419Y017790D01*
X020588Y017720D01*
X020771Y017720D01*
X020941Y017790D01*
X021070Y017919D01*
X021140Y018088D01*
X021140Y018271D01*
X021070Y018441D01*
X020960Y018551D01*
X020960Y019809D01*
X021070Y019919D01*
X021140Y020088D01*
X021140Y020271D01*
X021070Y020441D01*
X020941Y020570D01*
X020771Y020640D01*
X020588Y020640D01*
X020804Y020627D02*
X021300Y020627D01*
X021220Y020468D02*
X021043Y020468D01*
X021124Y020310D02*
X021220Y020310D01*
X021220Y020151D02*
X021140Y020151D01*
X021100Y019993D02*
X021220Y019993D01*
X021220Y019834D02*
X020985Y019834D01*
X020960Y019676D02*
X021400Y019676D01*
X021400Y019517D02*
X020960Y019517D01*
X020960Y019359D02*
X021400Y019359D01*
X021400Y019200D02*
X020960Y019200D01*
X020960Y019042D02*
X021400Y019042D01*
X021400Y018883D02*
X020960Y018883D01*
X020960Y018725D02*
X021400Y018725D01*
X021240Y018566D02*
X020960Y018566D01*
X021084Y018408D02*
X021220Y018408D01*
X021220Y018249D02*
X021140Y018249D01*
X021140Y018091D02*
X021220Y018091D01*
X021220Y017932D02*
X021075Y017932D01*
X020901Y017774D02*
X021260Y017774D01*
X020459Y017774D02*
X019901Y017774D01*
X020075Y017932D02*
X020285Y017932D01*
X020220Y018091D02*
X020140Y018091D01*
X020140Y018249D02*
X020220Y018249D01*
X020276Y018408D02*
X020084Y018408D01*
X019960Y018566D02*
X020400Y018566D01*
X020400Y018725D02*
X019960Y018725D01*
X019960Y018883D02*
X020400Y018883D01*
X020400Y019042D02*
X019960Y019042D01*
X019960Y019200D02*
X020400Y019200D01*
X020400Y019359D02*
X019960Y019359D01*
X019960Y019517D02*
X020400Y019517D01*
X020400Y019676D02*
X019960Y019676D01*
X019985Y019834D02*
X020375Y019834D01*
X020260Y019993D02*
X020100Y019993D01*
X020140Y020151D02*
X020220Y020151D01*
X020236Y020310D02*
X020124Y020310D01*
X020043Y020468D02*
X020317Y020468D01*
X019375Y019834D02*
X018985Y019834D01*
X018960Y019676D02*
X019400Y019676D01*
X019400Y019517D02*
X018960Y019517D01*
X018960Y019359D02*
X019400Y019359D01*
X019400Y019200D02*
X018960Y019200D01*
X018960Y019042D02*
X019400Y019042D01*
X019400Y018883D02*
X018960Y018883D01*
X018960Y018725D02*
X019400Y018725D01*
X019400Y018566D02*
X018960Y018566D01*
X019084Y018408D02*
X019276Y018408D01*
X019220Y018249D02*
X019140Y018249D01*
X019140Y018091D02*
X019220Y018091D01*
X019285Y017932D02*
X019075Y017932D01*
X018901Y017774D02*
X019459Y017774D01*
X018459Y017774D02*
X017901Y017774D01*
X018075Y017932D02*
X018285Y017932D01*
X018220Y018091D02*
X018140Y018091D01*
X018140Y018249D02*
X018220Y018249D01*
X018276Y018408D02*
X018084Y018408D01*
X017960Y018566D02*
X018400Y018566D01*
X018400Y018725D02*
X017960Y018725D01*
X017960Y018883D02*
X018400Y018883D01*
X018400Y019042D02*
X017960Y019042D01*
X017960Y019200D02*
X018400Y019200D01*
X018400Y019359D02*
X017960Y019359D01*
X017960Y019517D02*
X018400Y019517D01*
X018400Y019676D02*
X017960Y019676D01*
X017985Y019834D02*
X018375Y019834D01*
X018260Y019993D02*
X018100Y019993D01*
X018140Y020151D02*
X018220Y020151D01*
X018236Y020310D02*
X018124Y020310D01*
X018043Y020468D02*
X018317Y020468D01*
X019043Y020468D02*
X019317Y020468D01*
X019236Y020310D02*
X019124Y020310D01*
X019140Y020151D02*
X019220Y020151D01*
X019260Y019993D02*
X019100Y019993D01*
X017400Y019676D02*
X016960Y019676D01*
X016960Y019517D02*
X017400Y019517D01*
X017400Y019359D02*
X016960Y019359D01*
X016960Y019200D02*
X017400Y019200D01*
X017400Y019042D02*
X016960Y019042D01*
X016960Y018883D02*
X017400Y018883D01*
X017400Y018725D02*
X016960Y018725D01*
X016960Y018566D02*
X017400Y018566D01*
X017276Y018408D02*
X017084Y018408D01*
X017140Y018249D02*
X017220Y018249D01*
X017220Y018091D02*
X017140Y018091D01*
X017075Y017932D02*
X017285Y017932D01*
X017459Y017774D02*
X016901Y017774D01*
X016459Y017774D02*
X015901Y017774D01*
X016075Y017932D02*
X016285Y017932D01*
X016220Y018091D02*
X016140Y018091D01*
X016140Y018249D02*
X016220Y018249D01*
X016276Y018408D02*
X016084Y018408D01*
X015960Y018566D02*
X016400Y018566D01*
X016400Y018725D02*
X015960Y018725D01*
X015960Y018883D02*
X016400Y018883D01*
X016400Y019042D02*
X015960Y019042D01*
X015960Y019200D02*
X016400Y019200D01*
X016400Y019359D02*
X015960Y019359D01*
X015960Y019517D02*
X016400Y019517D01*
X016400Y019676D02*
X015960Y019676D01*
X015985Y019834D02*
X016375Y019834D01*
X016260Y019993D02*
X016100Y019993D01*
X016140Y020151D02*
X016220Y020151D01*
X016236Y020310D02*
X016124Y020310D01*
X016043Y020468D02*
X016317Y020468D01*
X017043Y020468D02*
X017317Y020468D01*
X017236Y020310D02*
X017124Y020310D01*
X017140Y020151D02*
X017220Y020151D01*
X017260Y019993D02*
X017100Y019993D01*
X016985Y019834D02*
X017375Y019834D01*
X015400Y019676D02*
X014960Y019676D01*
X014960Y019517D02*
X015400Y019517D01*
X015400Y019359D02*
X014960Y019359D01*
X014960Y019200D02*
X015400Y019200D01*
X015400Y019042D02*
X014960Y019042D01*
X014960Y018883D02*
X015400Y018883D01*
X015400Y018725D02*
X014960Y018725D01*
X014960Y018566D02*
X015400Y018566D01*
X015276Y018408D02*
X015084Y018408D01*
X015140Y018249D02*
X015220Y018249D01*
X015220Y018091D02*
X015140Y018091D01*
X015075Y017932D02*
X015285Y017932D01*
X015459Y017774D02*
X014901Y017774D01*
X015088Y017140D02*
X014919Y017070D01*
X014790Y016941D01*
X014720Y016771D01*
X014720Y016588D01*
X014790Y016419D01*
X014919Y016290D01*
X015088Y016220D01*
X015271Y016220D01*
X015441Y016290D01*
X015570Y016419D01*
X015640Y016588D01*
X015640Y016771D01*
X015570Y016941D01*
X015441Y017070D01*
X015271Y017140D01*
X015088Y017140D01*
X015087Y017140D02*
X001200Y017140D01*
X001269Y016981D02*
X014830Y016981D01*
X014741Y016823D02*
X001252Y016823D01*
X001170Y016664D02*
X014720Y016664D01*
X014754Y016506D02*
X001170Y016506D01*
X001170Y016030D02*
X002885Y016030D01*
X002736Y015872D02*
X001170Y015872D01*
X001170Y015713D02*
X002670Y015713D01*
X002620Y015555D02*
X001170Y015555D01*
X001170Y015396D02*
X002620Y015396D01*
X002633Y015238D02*
X001170Y015238D01*
X001170Y015079D02*
X002699Y015079D01*
X002794Y014921D02*
X001170Y014921D01*
X001170Y014762D02*
X002952Y014762D01*
X003169Y014199D02*
X003071Y014158D01*
X002979Y014105D01*
X002895Y014040D01*
X002820Y013965D01*
X002755Y013881D01*
X002702Y013789D01*
X002661Y013691D01*
X002634Y013588D01*
X002620Y013483D01*
X002620Y013468D01*
X003392Y013468D01*
X003392Y013392D01*
X003468Y013392D01*
X003468Y013468D01*
X004240Y013468D01*
X004240Y013483D01*
X004226Y013588D01*
X004199Y013691D01*
X004158Y013789D01*
X004105Y013881D01*
X004040Y013965D01*
X003965Y014040D01*
X003881Y014105D01*
X003789Y014158D01*
X003691Y014199D01*
X003588Y014226D01*
X003483Y014240D01*
X003468Y014240D01*
X003468Y013468D01*
X003392Y013468D01*
X003392Y014240D01*
X003377Y014240D01*
X003272Y014226D01*
X003169Y014199D01*
X003019Y014128D02*
X001170Y014128D01*
X001170Y013970D02*
X002824Y013970D01*
X002715Y013811D02*
X001170Y013811D01*
X001170Y013653D02*
X002651Y013653D01*
X002621Y013494D02*
X001170Y013494D01*
X001170Y013336D02*
X002625Y013336D01*
X002620Y013377D02*
X002634Y013272D01*
X002661Y013169D01*
X002702Y013071D01*
X002755Y012979D01*
X002820Y012895D01*
X002895Y012820D01*
X002979Y012755D01*
X003071Y012702D01*
X003169Y012661D01*
X003272Y012634D01*
X003377Y012620D01*
X003392Y012620D01*
X003392Y013392D01*
X002620Y013392D01*
X002620Y013377D01*
X002659Y013177D02*
X001170Y013177D01*
X001170Y013019D02*
X002732Y013019D01*
X002854Y012860D02*
X001170Y012860D01*
X001170Y012702D02*
X003072Y012702D01*
X003392Y012702D02*
X003468Y012702D01*
X003468Y012620D02*
X003483Y012620D01*
X003588Y012634D01*
X003691Y012661D01*
X003789Y012702D01*
X003881Y012755D01*
X003965Y012820D01*
X004040Y012895D01*
X004105Y012979D01*
X004158Y013071D01*
X004199Y013169D01*
X004226Y013272D01*
X004240Y013377D01*
X004240Y013392D01*
X003468Y013392D01*
X003468Y012620D01*
X003468Y012860D02*
X003392Y012860D01*
X003392Y013019D02*
X003468Y013019D01*
X003468Y013177D02*
X003392Y013177D01*
X003392Y013336D02*
X003468Y013336D01*
X003468Y013494D02*
X003392Y013494D01*
X003392Y013653D02*
X003468Y013653D01*
X003468Y013811D02*
X003392Y013811D01*
X003392Y013970D02*
X003468Y013970D01*
X003468Y014128D02*
X003392Y014128D01*
X003841Y014128D02*
X004279Y014128D01*
X004121Y014287D02*
X001170Y014287D01*
X001170Y014445D02*
X003962Y014445D01*
X003804Y014604D02*
X001170Y014604D01*
X001170Y012543D02*
X005360Y012543D01*
X005360Y012385D02*
X001170Y012385D01*
X001170Y012226D02*
X003235Y012226D01*
X003269Y012240D02*
X002971Y012117D01*
X002743Y011889D01*
X002620Y011591D01*
X002620Y011269D01*
X002743Y010971D01*
X002971Y010743D01*
X003269Y010620D01*
X003591Y010620D01*
X003889Y010743D01*
X004117Y010971D01*
X004240Y011269D01*
X004240Y011591D01*
X004117Y011889D01*
X003889Y012117D01*
X003591Y012240D01*
X003269Y012240D01*
X002922Y012068D02*
X001170Y012068D01*
X001170Y011909D02*
X002764Y011909D01*
X002686Y011751D02*
X001170Y011751D01*
X001170Y011592D02*
X002620Y011592D01*
X002620Y011434D02*
X001170Y011434D01*
X001170Y011275D02*
X002620Y011275D01*
X002683Y011117D02*
X001170Y011117D01*
X001170Y010958D02*
X002756Y010958D01*
X002915Y010800D02*
X001170Y010800D01*
X001170Y010641D02*
X003218Y010641D01*
X003269Y010240D02*
X002971Y010117D01*
X002743Y009889D01*
X002620Y009591D01*
X002620Y009269D01*
X002743Y008971D01*
X002971Y008743D01*
X003269Y008620D01*
X003591Y008620D01*
X003889Y008743D01*
X004117Y008971D01*
X004240Y009269D01*
X004240Y009591D01*
X004117Y009889D01*
X003889Y010117D01*
X003591Y010240D01*
X003269Y010240D01*
X003089Y010166D02*
X001170Y010166D01*
X001170Y010324D02*
X004610Y010324D01*
X004610Y010166D02*
X003771Y010166D01*
X003998Y010007D02*
X004610Y010007D01*
X004610Y009849D02*
X004133Y009849D01*
X004199Y009690D02*
X004610Y009690D01*
X004610Y009532D02*
X004240Y009532D01*
X004240Y009373D02*
X004610Y009373D01*
X004610Y009293D02*
X004591Y009247D01*
X004591Y009113D01*
X004643Y008988D01*
X004738Y008893D01*
X004863Y008841D01*
X004997Y008841D01*
X005122Y008893D01*
X005217Y008988D01*
X005269Y009113D01*
X005269Y009247D01*
X005250Y009293D01*
X005250Y010567D01*
X005269Y010613D01*
X005269Y010747D01*
X005217Y010872D01*
X005122Y010967D01*
X004997Y011019D01*
X004863Y011019D01*
X004738Y010967D01*
X004643Y010872D01*
X004591Y010747D01*
X004591Y010613D01*
X004610Y010567D01*
X004610Y009293D01*
X004591Y009215D02*
X004217Y009215D01*
X004152Y009056D02*
X004615Y009056D01*
X004733Y008898D02*
X004043Y008898D01*
X003878Y008739D02*
X005360Y008739D01*
X005360Y008581D02*
X001170Y008581D01*
X001170Y008739D02*
X002982Y008739D01*
X002817Y008898D02*
X001170Y008898D01*
X001170Y009056D02*
X002708Y009056D01*
X002643Y009215D02*
X001170Y009215D01*
X001170Y009373D02*
X002620Y009373D01*
X002620Y009532D02*
X001170Y009532D01*
X001170Y009690D02*
X002661Y009690D01*
X002727Y009849D02*
X001170Y009849D01*
X001170Y010007D02*
X002862Y010007D01*
X003642Y010641D02*
X004591Y010641D01*
X004610Y010483D02*
X001170Y010483D01*
X001170Y008422D02*
X005360Y008422D01*
X005360Y008264D02*
X001170Y008264D01*
X001170Y008105D02*
X002959Y008105D01*
X002971Y008117D02*
X002743Y007889D01*
X002620Y007591D01*
X002620Y007269D01*
X002743Y006971D01*
X002971Y006743D01*
X003269Y006620D01*
X003591Y006620D01*
X003889Y006743D01*
X004117Y006971D01*
X004240Y007269D01*
X004240Y007591D01*
X004117Y007889D01*
X003889Y008117D01*
X003591Y008240D01*
X003269Y008240D01*
X002971Y008117D01*
X002801Y007947D02*
X001170Y007947D01*
X001170Y007788D02*
X002702Y007788D01*
X002636Y007630D02*
X001170Y007630D01*
X001170Y007471D02*
X002620Y007471D01*
X002620Y007313D02*
X001170Y007313D01*
X001170Y007154D02*
X002668Y007154D01*
X002733Y006996D02*
X001170Y006996D01*
X001170Y006837D02*
X002877Y006837D01*
X003128Y006679D02*
X001170Y006679D01*
X001170Y006520D02*
X004610Y006520D01*
X004610Y006362D02*
X001170Y006362D01*
X001170Y006203D02*
X003180Y006203D01*
X003269Y006240D02*
X002971Y006117D01*
X002743Y005889D01*
X002620Y005591D01*
X002620Y005269D01*
X002743Y004971D01*
X002971Y004743D01*
X003269Y004620D01*
X003591Y004620D01*
X003889Y004743D01*
X004117Y004971D01*
X004240Y005269D01*
X004240Y005591D01*
X004117Y005889D01*
X003889Y006117D01*
X003591Y006240D01*
X003269Y006240D01*
X002899Y006045D02*
X001170Y006045D01*
X001170Y005886D02*
X002742Y005886D01*
X002676Y005728D02*
X001170Y005728D01*
X001170Y005569D02*
X002620Y005569D01*
X002620Y005411D02*
X001170Y005411D01*
X001197Y005252D02*
X002627Y005252D01*
X002693Y005094D02*
X001356Y005094D01*
X001514Y004935D02*
X002779Y004935D01*
X002938Y004777D02*
X001673Y004777D01*
X001831Y004618D02*
X014724Y004618D01*
X014730Y004777D02*
X003922Y004777D01*
X004081Y004935D02*
X014797Y004935D01*
X014978Y005094D02*
X004167Y005094D01*
X004233Y005252D02*
X015011Y005252D01*
X015088Y005220D02*
X014919Y005290D01*
X014790Y005419D01*
X014720Y005588D01*
X014720Y005771D01*
X014790Y005941D01*
X014919Y006070D01*
X015088Y006140D01*
X015271Y006140D01*
X015441Y006070D01*
X015570Y005941D01*
X015640Y005771D01*
X015640Y005588D01*
X015570Y005419D01*
X015441Y005290D01*
X015271Y005220D01*
X015088Y005220D01*
X015160Y005094D02*
X015200Y005094D01*
X015200Y004935D02*
X015160Y004935D01*
X015160Y004777D02*
X015200Y004777D01*
X015382Y005094D02*
X015978Y005094D01*
X016011Y005252D02*
X015349Y005252D01*
X015561Y005411D02*
X015799Y005411D01*
X015790Y005419D02*
X015919Y005290D01*
X016088Y005220D01*
X016271Y005220D01*
X016441Y005290D01*
X016570Y005419D01*
X016640Y005588D01*
X016640Y005771D01*
X016570Y005941D01*
X016441Y006070D01*
X016271Y006140D01*
X016088Y006140D01*
X015919Y006070D01*
X015790Y005941D01*
X015720Y005771D01*
X015720Y005588D01*
X015790Y005419D01*
X015728Y005569D02*
X015632Y005569D01*
X015640Y005728D02*
X015720Y005728D01*
X015767Y005886D02*
X015593Y005886D01*
X015466Y006045D02*
X015894Y006045D01*
X015919Y006290D02*
X016088Y006220D01*
X016271Y006220D01*
X016441Y006290D01*
X016570Y006419D01*
X016640Y006588D01*
X016640Y006771D01*
X016570Y006941D01*
X016441Y007070D01*
X016271Y007140D01*
X016088Y007140D01*
X015919Y007070D01*
X015790Y006941D01*
X015720Y006771D01*
X015720Y006588D01*
X015790Y006419D01*
X015919Y006290D01*
X015848Y006362D02*
X015512Y006362D01*
X015570Y006419D02*
X015640Y006588D01*
X015640Y006771D01*
X015570Y006941D01*
X015441Y007070D01*
X015271Y007140D01*
X015088Y007140D01*
X014919Y007070D01*
X014790Y006941D01*
X014720Y006771D01*
X014720Y006588D01*
X014790Y006419D01*
X014919Y006290D01*
X015088Y006220D01*
X015271Y006220D01*
X015441Y006290D01*
X015570Y006419D01*
X015612Y006520D02*
X015748Y006520D01*
X015720Y006679D02*
X015640Y006679D01*
X015613Y006837D02*
X015747Y006837D01*
X015845Y006996D02*
X015515Y006996D01*
X015441Y007290D02*
X015271Y007220D01*
X015088Y007220D01*
X014919Y007290D01*
X014790Y007419D01*
X014720Y007588D01*
X014720Y007771D01*
X014790Y007941D01*
X014919Y008070D01*
X015088Y008140D01*
X015271Y008140D01*
X015441Y008070D01*
X015570Y007941D01*
X015640Y007771D01*
X015640Y007588D01*
X015570Y007419D01*
X015441Y007290D01*
X015463Y007313D02*
X015897Y007313D01*
X015919Y007290D02*
X016088Y007220D01*
X016271Y007220D01*
X016441Y007290D01*
X016570Y007419D01*
X016640Y007588D01*
X016640Y007771D01*
X016570Y007941D01*
X016441Y008070D01*
X016271Y008140D01*
X016088Y008140D01*
X015919Y008070D01*
X015790Y007941D01*
X015720Y007771D01*
X015720Y007588D01*
X015790Y007419D01*
X015919Y007290D01*
X015769Y007471D02*
X015591Y007471D01*
X015640Y007630D02*
X015720Y007630D01*
X015727Y007788D02*
X015633Y007788D01*
X015564Y007947D02*
X015796Y007947D01*
X016004Y008105D02*
X015356Y008105D01*
X015271Y008220D02*
X015088Y008220D01*
X014919Y008290D01*
X014790Y008419D01*
X014720Y008588D01*
X014720Y008771D01*
X014790Y008941D01*
X014919Y009070D01*
X015088Y009140D01*
X015271Y009140D01*
X015441Y009070D01*
X015570Y008941D01*
X015640Y008771D01*
X015640Y008588D01*
X015570Y008419D01*
X015441Y008290D01*
X015271Y008220D01*
X015377Y008264D02*
X018983Y008264D01*
X019004Y008105D02*
X018356Y008105D01*
X018271Y008140D02*
X018088Y008140D01*
X017919Y008070D01*
X017790Y007941D01*
X017720Y007771D01*
X017720Y007588D01*
X017790Y007419D01*
X017919Y007290D01*
X018088Y007220D01*
X018271Y007220D01*
X018441Y007290D01*
X018570Y007419D01*
X018640Y007588D01*
X018640Y007771D01*
X018570Y007941D01*
X018441Y008070D01*
X018271Y008140D01*
X018004Y008105D02*
X017356Y008105D01*
X017271Y008140D02*
X017088Y008140D01*
X016919Y008070D01*
X016790Y007941D01*
X016720Y007771D01*
X016720Y007588D01*
X016790Y007419D01*
X016919Y007290D01*
X017088Y007220D01*
X017271Y007220D01*
X017441Y007290D01*
X017570Y007419D01*
X017640Y007588D01*
X017640Y007771D01*
X017570Y007941D01*
X017441Y008070D01*
X017271Y008140D01*
X017004Y008105D02*
X016356Y008105D01*
X016564Y007947D02*
X016796Y007947D01*
X016727Y007788D02*
X016633Y007788D01*
X016640Y007630D02*
X016720Y007630D01*
X016769Y007471D02*
X016591Y007471D01*
X016463Y007313D02*
X016897Y007313D01*
X016919Y007070D02*
X016790Y006941D01*
X016720Y006771D01*
X016720Y006588D01*
X016790Y006419D01*
X016919Y006290D01*
X017088Y006220D01*
X017271Y006220D01*
X017441Y006290D01*
X017570Y006419D01*
X017640Y006588D01*
X017640Y006771D01*
X017570Y006941D01*
X017441Y007070D01*
X017271Y007140D01*
X017088Y007140D01*
X016919Y007070D01*
X016845Y006996D02*
X016515Y006996D01*
X016613Y006837D02*
X016747Y006837D01*
X016720Y006679D02*
X016640Y006679D01*
X016612Y006520D02*
X016748Y006520D01*
X016848Y006362D02*
X016512Y006362D01*
X016466Y006045D02*
X016894Y006045D01*
X016919Y006070D02*
X016790Y005941D01*
X016720Y005771D01*
X016720Y005588D01*
X016790Y005419D01*
X016919Y005290D01*
X017088Y005220D01*
X017271Y005220D01*
X017441Y005290D01*
X017570Y005419D01*
X017640Y005588D01*
X017640Y005771D01*
X017570Y005941D01*
X017441Y006070D01*
X017271Y006140D01*
X017088Y006140D01*
X016919Y006070D01*
X016767Y005886D02*
X016593Y005886D01*
X016640Y005728D02*
X016720Y005728D01*
X016728Y005569D02*
X016632Y005569D01*
X016561Y005411D02*
X016799Y005411D01*
X017011Y005252D02*
X016349Y005252D01*
X016382Y005094D02*
X016978Y005094D01*
X017160Y005094D02*
X017200Y005094D01*
X017200Y004935D02*
X017160Y004935D01*
X017160Y004777D02*
X017200Y004777D01*
X017382Y005094D02*
X017978Y005094D01*
X018011Y005252D02*
X017349Y005252D01*
X017561Y005411D02*
X017799Y005411D01*
X017790Y005419D02*
X017919Y005290D01*
X018088Y005220D01*
X018271Y005220D01*
X018441Y005290D01*
X018570Y005419D01*
X018640Y005588D01*
X018640Y005771D01*
X018570Y005941D01*
X018441Y006070D01*
X018271Y006140D01*
X018088Y006140D01*
X017919Y006070D01*
X017790Y005941D01*
X017720Y005771D01*
X017720Y005588D01*
X017790Y005419D01*
X017728Y005569D02*
X017632Y005569D01*
X017640Y005728D02*
X017720Y005728D01*
X017767Y005886D02*
X017593Y005886D01*
X017466Y006045D02*
X017894Y006045D01*
X017919Y006290D02*
X018088Y006220D01*
X018271Y006220D01*
X018441Y006290D01*
X018570Y006419D01*
X018640Y006588D01*
X018640Y006771D01*
X018570Y006941D01*
X018441Y007070D01*
X018271Y007140D01*
X018088Y007140D01*
X017919Y007070D01*
X017790Y006941D01*
X017720Y006771D01*
X017720Y006588D01*
X017790Y006419D01*
X017919Y006290D01*
X017848Y006362D02*
X017512Y006362D01*
X017612Y006520D02*
X017748Y006520D01*
X017720Y006679D02*
X017640Y006679D01*
X017613Y006837D02*
X017747Y006837D01*
X017845Y006996D02*
X017515Y006996D01*
X017463Y007313D02*
X017897Y007313D01*
X017769Y007471D02*
X017591Y007471D01*
X017640Y007630D02*
X017720Y007630D01*
X017727Y007788D02*
X017633Y007788D01*
X017564Y007947D02*
X017796Y007947D01*
X018564Y007947D02*
X018796Y007947D01*
X018727Y007788D02*
X018633Y007788D01*
X018640Y007630D02*
X018720Y007630D01*
X018769Y007471D02*
X018591Y007471D01*
X018463Y007313D02*
X018897Y007313D01*
X018845Y006996D02*
X018515Y006996D01*
X018613Y006837D02*
X018747Y006837D01*
X018720Y006679D02*
X018640Y006679D01*
X018612Y006520D02*
X018748Y006520D01*
X018848Y006362D02*
X018512Y006362D01*
X018466Y006045D02*
X018894Y006045D01*
X018767Y005886D02*
X018593Y005886D01*
X018640Y005728D02*
X018720Y005728D01*
X018728Y005569D02*
X018632Y005569D01*
X018561Y005411D02*
X018799Y005411D01*
X019011Y005252D02*
X018349Y005252D01*
X018382Y005094D02*
X018978Y005094D01*
X019160Y005094D02*
X019200Y005094D01*
X019200Y004935D02*
X019160Y004935D01*
X019160Y004777D02*
X019200Y004777D01*
X019563Y004935D02*
X019797Y004935D01*
X019730Y004777D02*
X019630Y004777D01*
X019636Y004618D02*
X019724Y004618D01*
X019776Y004460D02*
X019584Y004460D01*
X019441Y004301D02*
X019919Y004301D01*
X020002Y003509D02*
X020358Y003509D01*
X020253Y003350D02*
X020107Y003350D01*
X020140Y003192D02*
X020220Y003192D01*
X020243Y003033D02*
X020117Y003033D01*
X020025Y002875D02*
X020335Y002875D01*
X020400Y002716D02*
X019960Y002716D01*
X019960Y002558D02*
X020400Y002558D01*
X020400Y002399D02*
X019960Y002399D01*
X019960Y002241D02*
X020400Y002241D01*
X020400Y002082D02*
X019960Y002082D01*
X019960Y001924D02*
X020400Y001924D01*
X020400Y001765D02*
X019960Y001765D01*
X019960Y001607D02*
X020400Y001607D01*
X020297Y001448D02*
X020063Y001448D01*
X020133Y001290D02*
X020227Y001290D01*
X020220Y001131D02*
X020140Y001131D01*
X020092Y000973D02*
X020268Y000973D01*
X020395Y000814D02*
X019965Y000814D01*
X019395Y000814D02*
X018965Y000814D01*
X019092Y000973D02*
X019268Y000973D01*
X019220Y001131D02*
X019140Y001131D01*
X019133Y001290D02*
X019227Y001290D01*
X019297Y001448D02*
X019063Y001448D01*
X018960Y001607D02*
X019400Y001607D01*
X019400Y001765D02*
X018960Y001765D01*
X018960Y001924D02*
X019400Y001924D01*
X019400Y002082D02*
X018960Y002082D01*
X018960Y002241D02*
X019400Y002241D01*
X019400Y002399D02*
X018960Y002399D01*
X018960Y002558D02*
X019400Y002558D01*
X019400Y002716D02*
X018960Y002716D01*
X019025Y002875D02*
X019335Y002875D01*
X019243Y003033D02*
X019117Y003033D01*
X019140Y003192D02*
X019220Y003192D01*
X019253Y003350D02*
X019107Y003350D01*
X019002Y003509D02*
X019358Y003509D01*
X018919Y004301D02*
X018441Y004301D01*
X018584Y004460D02*
X018776Y004460D01*
X018724Y004618D02*
X018636Y004618D01*
X018630Y004777D02*
X018730Y004777D01*
X018797Y004935D02*
X018563Y004935D01*
X018200Y004935D02*
X018160Y004935D01*
X018160Y004777D02*
X018200Y004777D01*
X018200Y005094D02*
X018160Y005094D01*
X017797Y004935D02*
X017563Y004935D01*
X017630Y004777D02*
X017730Y004777D01*
X017724Y004618D02*
X017636Y004618D01*
X017584Y004460D02*
X017776Y004460D01*
X017919Y004301D02*
X017441Y004301D01*
X016919Y004301D02*
X016441Y004301D01*
X016584Y004460D02*
X016776Y004460D01*
X016724Y004618D02*
X016636Y004618D01*
X016630Y004777D02*
X016730Y004777D01*
X016797Y004935D02*
X016563Y004935D01*
X016200Y004935D02*
X016160Y004935D01*
X016160Y004777D02*
X016200Y004777D01*
X016200Y005094D02*
X016160Y005094D01*
X015797Y004935D02*
X015563Y004935D01*
X015630Y004777D02*
X015730Y004777D01*
X015724Y004618D02*
X015636Y004618D01*
X015584Y004460D02*
X015776Y004460D01*
X015919Y004301D02*
X015441Y004301D01*
X014919Y004301D02*
X002148Y004301D01*
X001990Y004460D02*
X014776Y004460D01*
X015002Y003509D02*
X016358Y003509D01*
X016253Y003350D02*
X015107Y003350D01*
X015140Y003192D02*
X016220Y003192D01*
X016243Y003033D02*
X015117Y003033D01*
X015025Y002875D02*
X016335Y002875D01*
X016400Y002716D02*
X014960Y002716D01*
X014960Y002558D02*
X016400Y002558D01*
X016400Y002399D02*
X014960Y002399D01*
X014960Y002241D02*
X016400Y002241D01*
X016400Y002082D02*
X014960Y002082D01*
X014960Y001924D02*
X016400Y001924D01*
X016400Y001765D02*
X014960Y001765D01*
X014960Y001607D02*
X016400Y001607D01*
X016297Y001448D02*
X015063Y001448D01*
X015133Y001290D02*
X016227Y001290D01*
X016220Y001131D02*
X015140Y001131D01*
X015092Y000973D02*
X016268Y000973D01*
X016395Y000814D02*
X014965Y000814D01*
X014395Y000814D02*
X013959Y000814D01*
X013980Y000829D02*
X014031Y000880D01*
X014073Y000939D01*
X014106Y001003D01*
X014129Y001072D01*
X014140Y001144D01*
X014140Y001160D01*
X013700Y001160D01*
X013700Y001200D01*
X013660Y001200D01*
X013660Y001640D01*
X013644Y001640D01*
X013572Y001629D01*
X013503Y001606D01*
X013439Y001573D01*
X013380Y001531D01*
X013329Y001480D01*
X013287Y001421D01*
X013254Y001357D01*
X013231Y001288D01*
X013220Y001216D01*
X013220Y001200D01*
X013660Y001200D01*
X013660Y001160D01*
X013220Y001160D01*
X013220Y001144D01*
X013231Y001072D01*
X013254Y001003D01*
X013287Y000939D01*
X013329Y000880D01*
X013380Y000829D01*
X013439Y000787D01*
X013503Y000754D01*
X013572Y000731D01*
X013644Y000720D01*
X013660Y000720D01*
X013660Y001160D01*
X013700Y001160D01*
X013700Y000720D01*
X013716Y000720D01*
X013788Y000731D01*
X013857Y000754D01*
X013921Y000787D01*
X013980Y000829D01*
X014091Y000973D02*
X014268Y000973D01*
X014220Y001131D02*
X014138Y001131D01*
X014140Y001200D02*
X014140Y001216D01*
X014129Y001288D01*
X014106Y001357D01*
X014073Y001421D01*
X014031Y001480D01*
X013980Y001531D01*
X013921Y001573D01*
X013857Y001606D01*
X013788Y001629D01*
X013716Y001640D01*
X013700Y001640D01*
X013700Y001200D01*
X014140Y001200D01*
X014128Y001290D02*
X014227Y001290D01*
X014297Y001448D02*
X014054Y001448D01*
X013856Y001607D02*
X014400Y001607D01*
X014400Y001765D02*
X012000Y001765D01*
X012000Y001607D02*
X012504Y001607D01*
X012503Y001606D02*
X012439Y001573D01*
X012380Y001531D01*
X012329Y001480D01*
X012287Y001421D01*
X012254Y001357D01*
X012231Y001288D01*
X012220Y001216D01*
X012220Y001200D01*
X012660Y001200D01*
X012660Y001640D01*
X012644Y001640D01*
X012572Y001629D01*
X012503Y001606D01*
X012660Y001607D02*
X012700Y001607D01*
X012700Y001640D02*
X012700Y001200D01*
X012660Y001200D01*
X012660Y001160D01*
X012220Y001160D01*
X012220Y001144D01*
X012231Y001072D01*
X012254Y001003D01*
X012287Y000939D01*
X012329Y000880D01*
X012380Y000829D01*
X012439Y000787D01*
X012503Y000754D01*
X012572Y000731D01*
X012644Y000720D01*
X012660Y000720D01*
X012660Y001160D01*
X012700Y001160D01*
X012700Y001200D01*
X013140Y001200D01*
X013140Y001216D01*
X013129Y001288D01*
X013106Y001357D01*
X013073Y001421D01*
X013031Y001480D01*
X012980Y001531D01*
X012921Y001573D01*
X012857Y001606D01*
X012788Y001629D01*
X012716Y001640D01*
X012700Y001640D01*
X012856Y001607D02*
X013504Y001607D01*
X013660Y001607D02*
X013700Y001607D01*
X013700Y001448D02*
X013660Y001448D01*
X013660Y001290D02*
X013700Y001290D01*
X013700Y001131D02*
X013660Y001131D01*
X013660Y000973D02*
X013700Y000973D01*
X013700Y000814D02*
X013660Y000814D01*
X013401Y000814D02*
X012959Y000814D01*
X012980Y000829D02*
X013031Y000880D01*
X013073Y000939D01*
X013106Y001003D01*
X013129Y001072D01*
X013140Y001144D01*
X013140Y001160D01*
X012700Y001160D01*
X012700Y000720D01*
X012716Y000720D01*
X012788Y000731D01*
X012857Y000754D01*
X012921Y000787D01*
X012980Y000829D01*
X013091Y000973D02*
X013269Y000973D01*
X013222Y001131D02*
X013138Y001131D01*
X013128Y001290D02*
X013232Y001290D01*
X013306Y001448D02*
X013054Y001448D01*
X012700Y001448D02*
X012660Y001448D01*
X012660Y001290D02*
X012700Y001290D01*
X012700Y001131D02*
X012660Y001131D01*
X012660Y000973D02*
X012700Y000973D01*
X012700Y000814D02*
X012660Y000814D01*
X012401Y000814D02*
X011965Y000814D01*
X012092Y000973D02*
X012269Y000973D01*
X012222Y001131D02*
X012140Y001131D01*
X012133Y001290D02*
X012232Y001290D01*
X012306Y001448D02*
X012063Y001448D01*
X012000Y001924D02*
X014400Y001924D01*
X014400Y002082D02*
X012000Y002082D01*
X012000Y002241D02*
X014400Y002241D01*
X014400Y002399D02*
X012000Y002399D01*
X012000Y002558D02*
X014400Y002558D01*
X014400Y002716D02*
X012000Y002716D01*
X012025Y002875D02*
X012335Y002875D01*
X012244Y003033D02*
X012117Y003033D01*
X012144Y003192D02*
X012660Y003192D01*
X012700Y003192D02*
X013660Y003192D01*
X013700Y003192D02*
X014220Y003192D01*
X014243Y003033D02*
X014116Y003033D01*
X014025Y002875D02*
X014335Y002875D01*
X014253Y003350D02*
X014108Y003350D01*
X014002Y003509D02*
X014358Y003509D01*
X013700Y003033D02*
X013660Y003033D01*
X013660Y002875D02*
X013700Y002875D01*
X013335Y002875D02*
X013025Y002875D01*
X013116Y003033D02*
X013244Y003033D01*
X013252Y003350D02*
X013108Y003350D01*
X013002Y003509D02*
X013358Y003509D01*
X012700Y003033D02*
X012660Y003033D01*
X012660Y002875D02*
X012700Y002875D01*
X011873Y003826D02*
X002624Y003826D01*
X002465Y003984D02*
X012031Y003984D01*
X012190Y004143D02*
X002307Y004143D01*
X002782Y003667D02*
X011714Y003667D01*
X011358Y003509D02*
X011002Y003509D01*
X010941Y003570D02*
X011070Y003441D01*
X011140Y003271D01*
X011140Y003088D01*
X011070Y002919D01*
X010960Y002809D01*
X010960Y001551D01*
X011070Y001441D01*
X011140Y001271D01*
X011140Y001088D01*
X011070Y000919D01*
X010941Y000790D01*
X010771Y000720D01*
X010588Y000720D01*
X010419Y000790D01*
X010290Y000919D01*
X010220Y001088D01*
X010220Y001271D01*
X010290Y001441D01*
X010400Y001551D01*
X010400Y002809D01*
X010290Y002919D01*
X010220Y003088D01*
X010220Y003271D01*
X010290Y003441D01*
X010419Y003570D01*
X010588Y003640D01*
X010771Y003640D01*
X010941Y003570D01*
X011107Y003350D02*
X011253Y003350D01*
X011220Y003192D02*
X011140Y003192D01*
X011117Y003033D02*
X011243Y003033D01*
X011335Y002875D02*
X011025Y002875D01*
X010960Y002716D02*
X011360Y002716D01*
X011360Y002558D02*
X010960Y002558D01*
X010960Y002399D02*
X011360Y002399D01*
X011360Y002241D02*
X010960Y002241D01*
X010960Y002082D02*
X011360Y002082D01*
X011360Y001924D02*
X010960Y001924D01*
X010960Y001765D02*
X011360Y001765D01*
X011360Y001607D02*
X010960Y001607D01*
X011063Y001448D02*
X011297Y001448D01*
X011227Y001290D02*
X011133Y001290D01*
X011140Y001131D02*
X011220Y001131D01*
X011268Y000973D02*
X011092Y000973D01*
X010965Y000814D02*
X011395Y000814D01*
X010395Y000814D02*
X009965Y000814D01*
X010092Y000973D02*
X010268Y000973D01*
X010220Y001131D02*
X010140Y001131D01*
X010133Y001290D02*
X010227Y001290D01*
X010297Y001448D02*
X010063Y001448D01*
X009960Y001607D02*
X010400Y001607D01*
X010400Y001765D02*
X009960Y001765D01*
X009960Y001924D02*
X010400Y001924D01*
X010400Y002082D02*
X009960Y002082D01*
X009960Y002241D02*
X010400Y002241D01*
X010400Y002399D02*
X009960Y002399D01*
X009960Y002558D02*
X010400Y002558D01*
X010400Y002716D02*
X009960Y002716D01*
X010025Y002875D02*
X010335Y002875D01*
X010243Y003033D02*
X010117Y003033D01*
X010140Y003192D02*
X010220Y003192D01*
X010253Y003350D02*
X010107Y003350D01*
X010002Y003509D02*
X010358Y003509D01*
X009358Y003509D02*
X002941Y003509D01*
X003099Y003350D02*
X009253Y003350D01*
X005467Y005738D02*
X005519Y005863D01*
X005519Y005997D01*
X005467Y006122D01*
X005372Y006217D01*
X005327Y006236D01*
X005250Y006313D01*
X005250Y007567D01*
X005269Y007613D01*
X005269Y007747D01*
X005217Y007872D01*
X005122Y007967D01*
X004997Y008019D01*
X004863Y008019D01*
X004738Y007967D01*
X004643Y007872D01*
X004591Y007747D01*
X004591Y007613D01*
X004610Y007567D01*
X004610Y006116D01*
X004659Y005999D01*
X004749Y005909D01*
X004874Y005783D01*
X004893Y005738D01*
X004988Y005643D01*
X005113Y005591D01*
X005247Y005591D01*
X005372Y005643D01*
X005467Y005738D01*
X005457Y005728D02*
X014720Y005728D01*
X014728Y005569D02*
X004240Y005569D01*
X004240Y005411D02*
X014799Y005411D01*
X014767Y005886D02*
X005519Y005886D01*
X005499Y006045D02*
X014894Y006045D01*
X014848Y006362D02*
X014146Y006362D01*
X014097Y006341D02*
X014222Y006393D01*
X014317Y006488D01*
X014369Y006613D01*
X014369Y006747D01*
X014317Y006872D01*
X014222Y006967D01*
X014097Y007019D01*
X013963Y007019D01*
X013838Y006967D01*
X013791Y006920D01*
X013279Y006920D01*
X011631Y008568D01*
X011640Y008588D01*
X011640Y008771D01*
X011570Y008941D01*
X011441Y009070D01*
X011271Y009140D01*
X011088Y009140D01*
X010919Y009070D01*
X010790Y008941D01*
X010720Y008771D01*
X010720Y008588D01*
X010790Y008419D01*
X010919Y008290D01*
X011088Y008220D01*
X011271Y008220D01*
X011292Y008229D01*
X013044Y006477D01*
X013132Y006440D01*
X013791Y006440D01*
X013838Y006393D01*
X013963Y006341D01*
X014097Y006341D01*
X013914Y006362D02*
X005250Y006362D01*
X005250Y006520D02*
X013001Y006520D01*
X012842Y006679D02*
X005908Y006679D01*
X006008Y006837D02*
X012684Y006837D01*
X012525Y006996D02*
X006019Y006996D01*
X006000Y007154D02*
X012367Y007154D01*
X012208Y007313D02*
X006000Y007313D01*
X006000Y007471D02*
X012050Y007471D01*
X011891Y007630D02*
X010290Y007630D01*
X010438Y007788D02*
X011733Y007788D01*
X011574Y007947D02*
X010469Y007947D01*
X010424Y008105D02*
X011416Y008105D01*
X010983Y008264D02*
X010210Y008264D01*
X009977Y008422D02*
X010789Y008422D01*
X010723Y008581D02*
X009820Y008581D01*
X009820Y008739D02*
X010720Y008739D01*
X010772Y008898D02*
X009820Y008898D01*
X009820Y009056D02*
X010905Y009056D01*
X010836Y009373D02*
X009820Y009373D01*
X009820Y009215D02*
X011440Y009215D01*
X011455Y009056D02*
X011472Y009056D01*
X011588Y008898D02*
X011623Y008898D01*
X011640Y008739D02*
X011720Y008739D01*
X011723Y008581D02*
X011637Y008581D01*
X011777Y008422D02*
X011789Y008422D01*
X011936Y008264D02*
X011983Y008264D01*
X012094Y008105D02*
X012416Y008105D01*
X012574Y007947D02*
X012253Y007947D01*
X012411Y007788D02*
X012793Y007788D01*
X012830Y008030D02*
X012180Y008680D01*
X011680Y009180D01*
X011680Y010180D01*
X011341Y010166D02*
X010305Y010166D01*
X010463Y010324D02*
X010885Y010324D01*
X010856Y010007D02*
X010146Y010007D01*
X009988Y009849D02*
X010752Y009849D01*
X010720Y009690D02*
X009829Y009690D01*
X009820Y009532D02*
X010744Y009532D01*
X011180Y008680D02*
X013180Y006680D01*
X014030Y006680D01*
X013907Y006996D02*
X013204Y006996D01*
X013045Y007154D02*
X022760Y007154D01*
X022760Y006996D02*
X022515Y006996D01*
X022570Y006941D02*
X022441Y007070D01*
X022271Y007140D01*
X022088Y007140D01*
X021919Y007070D01*
X021790Y006941D01*
X021720Y006771D01*
X021720Y006588D01*
X021790Y006419D01*
X021919Y006290D01*
X022088Y006220D01*
X022271Y006220D01*
X022441Y006290D01*
X022570Y006419D01*
X022640Y006588D01*
X022640Y006771D01*
X022570Y006941D01*
X022613Y006837D02*
X022760Y006837D01*
X022760Y006679D02*
X022640Y006679D01*
X022612Y006520D02*
X022760Y006520D01*
X022760Y006362D02*
X022512Y006362D01*
X022760Y006203D02*
X005386Y006203D01*
X005452Y006679D02*
X005250Y006679D01*
X005250Y006837D02*
X005352Y006837D01*
X005341Y006996D02*
X005250Y006996D01*
X005250Y007154D02*
X005360Y007154D01*
X005360Y007313D02*
X005250Y007313D01*
X005250Y007471D02*
X005360Y007471D01*
X005360Y007630D02*
X005269Y007630D01*
X005252Y007788D02*
X005360Y007788D01*
X005360Y007947D02*
X005143Y007947D01*
X005360Y008105D02*
X003900Y008105D01*
X004059Y007947D02*
X004717Y007947D01*
X004608Y007788D02*
X004158Y007788D01*
X004224Y007630D02*
X004591Y007630D01*
X004610Y007471D02*
X004240Y007471D01*
X004240Y007313D02*
X004610Y007313D01*
X004610Y007154D02*
X004192Y007154D01*
X004127Y006996D02*
X004610Y006996D01*
X004610Y006837D02*
X003983Y006837D01*
X003732Y006679D02*
X004610Y006679D01*
X004610Y006203D02*
X003680Y006203D01*
X003961Y006045D02*
X004640Y006045D01*
X004749Y005909D02*
X004749Y005909D01*
X004771Y005886D02*
X004118Y005886D01*
X004184Y005728D02*
X004903Y005728D01*
X006000Y007630D02*
X009970Y007630D01*
X009822Y007788D02*
X006000Y007788D01*
X006000Y007947D02*
X009134Y007947D01*
X009044Y008105D02*
X006000Y008105D01*
X006000Y008264D02*
X008968Y008264D01*
X008940Y008422D02*
X006000Y008422D01*
X006000Y008581D02*
X008940Y008581D01*
X008940Y008739D02*
X006000Y008739D01*
X006000Y008898D02*
X008940Y008898D01*
X008940Y009056D02*
X006000Y009056D01*
X006000Y009215D02*
X008940Y009215D01*
X008940Y009373D02*
X006000Y009373D01*
X006000Y009532D02*
X008940Y009532D01*
X008940Y009690D02*
X008915Y009690D01*
X008545Y009690D02*
X006000Y009690D01*
X005360Y009690D02*
X005250Y009690D01*
X005250Y009532D02*
X005360Y009532D01*
X005360Y009373D02*
X005250Y009373D01*
X005269Y009215D02*
X005360Y009215D01*
X005360Y009056D02*
X005245Y009056D01*
X005360Y008898D02*
X005127Y008898D01*
X005250Y009849D02*
X005347Y009849D01*
X005345Y010007D02*
X005250Y010007D01*
X005250Y010166D02*
X005360Y010166D01*
X005360Y010324D02*
X005250Y010324D01*
X005250Y010483D02*
X005360Y010483D01*
X005360Y010641D02*
X005269Y010641D01*
X005247Y010800D02*
X005360Y010800D01*
X005360Y010958D02*
X005131Y010958D01*
X005360Y011117D02*
X004177Y011117D01*
X004240Y011275D02*
X005360Y011275D01*
X005360Y011434D02*
X004240Y011434D01*
X004240Y011592D02*
X005360Y011592D01*
X005360Y011751D02*
X004174Y011751D01*
X004096Y011909D02*
X005360Y011909D01*
X005360Y012068D02*
X003938Y012068D01*
X003625Y012226D02*
X005360Y012226D01*
X005360Y012702D02*
X003788Y012702D01*
X004006Y012860D02*
X005360Y012860D01*
X005360Y013019D02*
X004128Y013019D01*
X004201Y013177D02*
X005230Y013177D01*
X005072Y013336D02*
X004235Y013336D01*
X004239Y013494D02*
X004913Y013494D01*
X004755Y013653D02*
X004209Y013653D01*
X004145Y013811D02*
X004596Y013811D01*
X004438Y013970D02*
X004036Y013970D01*
X004709Y014604D02*
X008071Y014604D01*
X008229Y014762D02*
X004551Y014762D01*
X007430Y015180D02*
X008430Y016180D01*
X008461Y015872D02*
X010761Y015872D01*
X010720Y015713D02*
X008302Y015713D01*
X008144Y015555D02*
X010734Y015555D01*
X010813Y015396D02*
X007985Y015396D01*
X007827Y015238D02*
X008705Y015238D01*
X008546Y015079D02*
X007755Y015079D01*
X007650Y014921D02*
X008388Y014921D01*
X007930Y013180D02*
X011430Y013180D01*
X011680Y012930D01*
X012486Y013336D02*
X012835Y013336D01*
X012835Y013494D02*
X012601Y013494D01*
X012640Y013653D02*
X012752Y013653D01*
X012716Y013811D02*
X012624Y013811D01*
X012541Y013970D02*
X012756Y013970D01*
X012950Y014128D02*
X012300Y014128D01*
X012432Y014287D02*
X013123Y014287D01*
X013160Y014128D02*
X013274Y014128D01*
X014852Y016347D02*
X014862Y016347D01*
X015498Y016347D02*
X015862Y016347D01*
X015754Y016506D02*
X015606Y016506D01*
X015640Y016664D02*
X015720Y016664D01*
X015741Y016823D02*
X015619Y016823D01*
X015530Y016981D02*
X015830Y016981D01*
X016087Y017140D02*
X015273Y017140D01*
X017530Y016981D02*
X017830Y016981D01*
X017741Y016823D02*
X017619Y016823D01*
X017640Y016664D02*
X017720Y016664D01*
X017754Y016506D02*
X017606Y016506D01*
X017498Y016347D02*
X017862Y016347D01*
X017879Y016030D02*
X017481Y016030D01*
X017599Y015872D02*
X017761Y015872D01*
X017720Y015713D02*
X017640Y015713D01*
X017626Y015555D02*
X017734Y015555D01*
X017813Y015396D02*
X017547Y015396D01*
X015375Y019834D02*
X014985Y019834D01*
X015100Y019993D02*
X015260Y019993D01*
X015220Y020151D02*
X015140Y020151D01*
X015124Y020310D02*
X015236Y020310D01*
X015317Y020468D02*
X015043Y020468D01*
X011717Y020468D02*
X011443Y020468D01*
X011524Y020310D02*
X011636Y020310D01*
X011620Y020151D02*
X011540Y020151D01*
X011500Y019993D02*
X011660Y019993D01*
X011775Y019834D02*
X011385Y019834D01*
X011360Y019676D02*
X011800Y019676D01*
X011800Y019517D02*
X011360Y019517D01*
X011360Y019359D02*
X011800Y019359D01*
X011800Y019200D02*
X011360Y019200D01*
X011360Y019042D02*
X011800Y019042D01*
X011800Y018883D02*
X011360Y018883D01*
X011360Y018725D02*
X011800Y018725D01*
X011800Y018566D02*
X011360Y018566D01*
X011484Y018408D02*
X011676Y018408D01*
X011620Y018249D02*
X011540Y018249D01*
X011540Y018091D02*
X011620Y018091D01*
X011685Y017932D02*
X011475Y017932D01*
X011301Y017774D02*
X011859Y017774D01*
X010859Y017774D02*
X010301Y017774D01*
X010475Y017932D02*
X010685Y017932D01*
X010620Y018091D02*
X010540Y018091D01*
X010540Y018249D02*
X010620Y018249D01*
X010676Y018408D02*
X010484Y018408D01*
X010360Y018566D02*
X010800Y018566D01*
X010800Y018725D02*
X010360Y018725D01*
X010360Y018883D02*
X010800Y018883D01*
X010800Y019042D02*
X010360Y019042D01*
X010360Y019200D02*
X010800Y019200D01*
X010800Y019359D02*
X010360Y019359D01*
X010360Y019517D02*
X010800Y019517D01*
X010800Y019676D02*
X010360Y019676D01*
X010385Y019834D02*
X010775Y019834D01*
X010660Y019993D02*
X010500Y019993D01*
X010540Y020151D02*
X010620Y020151D01*
X010636Y020310D02*
X010524Y020310D01*
X010443Y020468D02*
X010717Y020468D01*
X009800Y019676D02*
X009360Y019676D01*
X009360Y019517D02*
X009800Y019517D01*
X009800Y019359D02*
X009360Y019359D01*
X009360Y019200D02*
X009800Y019200D01*
X009800Y019042D02*
X009360Y019042D01*
X009360Y018883D02*
X009800Y018883D01*
X009800Y018725D02*
X009360Y018725D01*
X009360Y018566D02*
X009800Y018566D01*
X009676Y018408D02*
X009484Y018408D01*
X009540Y018249D02*
X009620Y018249D01*
X009620Y018091D02*
X009540Y018091D01*
X009475Y017932D02*
X009685Y017932D01*
X009859Y017774D02*
X009301Y017774D01*
X008859Y017774D02*
X008301Y017774D01*
X008475Y017932D02*
X008685Y017932D01*
X008620Y018091D02*
X008540Y018091D01*
X008540Y018249D02*
X008620Y018249D01*
X008676Y018408D02*
X008484Y018408D01*
X008360Y018566D02*
X008800Y018566D01*
X008800Y018725D02*
X008360Y018725D01*
X008360Y018883D02*
X008800Y018883D01*
X008800Y019042D02*
X008360Y019042D01*
X008360Y019200D02*
X008800Y019200D01*
X008800Y019359D02*
X008360Y019359D01*
X008360Y019517D02*
X008800Y019517D01*
X008800Y019676D02*
X008360Y019676D01*
X008385Y019834D02*
X008775Y019834D01*
X008660Y019993D02*
X008500Y019993D01*
X008540Y020151D02*
X008620Y020151D01*
X008636Y020310D02*
X008524Y020310D01*
X008443Y020468D02*
X008717Y020468D01*
X009443Y020468D02*
X009717Y020468D01*
X009636Y020310D02*
X009524Y020310D01*
X009540Y020151D02*
X009620Y020151D01*
X009660Y019993D02*
X009500Y019993D01*
X009385Y019834D02*
X009775Y019834D01*
X007800Y019676D02*
X006360Y019676D01*
X006360Y019517D02*
X007800Y019517D01*
X007800Y019359D02*
X006360Y019359D01*
X006360Y019200D02*
X007800Y019200D01*
X007800Y019042D02*
X006360Y019042D01*
X006360Y018883D02*
X007800Y018883D01*
X007800Y018725D02*
X006360Y018725D01*
X006360Y018566D02*
X006829Y018566D01*
X006839Y018573D02*
X006780Y018531D01*
X006729Y018480D01*
X006687Y018421D01*
X006654Y018357D01*
X006631Y018288D01*
X006620Y018216D01*
X006620Y018200D01*
X007060Y018200D01*
X007060Y018640D01*
X007044Y018640D01*
X006972Y018629D01*
X006903Y018606D01*
X006839Y018573D01*
X007060Y018566D02*
X007100Y018566D01*
X007100Y018640D02*
X007100Y018200D01*
X007060Y018200D01*
X007060Y018160D01*
X006620Y018160D01*
X006620Y018144D01*
X006631Y018072D01*
X006654Y018003D01*
X006687Y017939D01*
X006729Y017880D01*
X006780Y017829D01*
X006839Y017787D01*
X006903Y017754D01*
X006972Y017731D01*
X007044Y017720D01*
X007060Y017720D01*
X007060Y018160D01*
X007100Y018160D01*
X007100Y018200D01*
X007540Y018200D01*
X007540Y018216D01*
X007529Y018288D01*
X007506Y018357D01*
X007473Y018421D01*
X007431Y018480D01*
X007380Y018531D01*
X007321Y018573D01*
X007257Y018606D01*
X007188Y018629D01*
X007116Y018640D01*
X007100Y018640D01*
X007100Y018408D02*
X007060Y018408D01*
X007060Y018249D02*
X007100Y018249D01*
X007100Y018160D02*
X007540Y018160D01*
X007540Y018144D01*
X007529Y018072D01*
X007506Y018003D01*
X007473Y017939D01*
X007431Y017880D01*
X007380Y017829D01*
X007321Y017787D01*
X007257Y017754D01*
X007188Y017731D01*
X007116Y017720D01*
X007100Y017720D01*
X007100Y018160D01*
X007100Y018091D02*
X007060Y018091D01*
X007060Y017932D02*
X007100Y017932D01*
X007100Y017774D02*
X007060Y017774D01*
X006865Y017774D02*
X006301Y017774D01*
X006475Y017932D02*
X006692Y017932D01*
X006628Y018091D02*
X006540Y018091D01*
X006540Y018249D02*
X006625Y018249D01*
X006680Y018408D02*
X006484Y018408D01*
X005800Y018566D02*
X004845Y018566D01*
X004841Y018570D02*
X004671Y018640D01*
X004488Y018640D01*
X004319Y018570D01*
X004190Y018441D01*
X004120Y018271D01*
X004120Y018088D01*
X004190Y017919D01*
X004319Y017790D01*
X004488Y017720D01*
X004671Y017720D01*
X004841Y017790D01*
X004970Y017919D01*
X005040Y018088D01*
X005040Y018271D01*
X004970Y018441D01*
X004841Y018570D01*
X004984Y018408D02*
X005676Y018408D01*
X005620Y018249D02*
X005040Y018249D01*
X005040Y018091D02*
X005620Y018091D01*
X005685Y017932D02*
X004975Y017932D01*
X004801Y017774D02*
X005859Y017774D01*
X005800Y018725D02*
X000460Y018725D01*
X000460Y018883D02*
X005800Y018883D01*
X005800Y019042D02*
X000460Y019042D01*
X000460Y019200D02*
X005800Y019200D01*
X005800Y019359D02*
X000460Y019359D01*
X000460Y019517D02*
X005800Y019517D01*
X005800Y019676D02*
X000460Y019676D01*
X000460Y019834D02*
X005775Y019834D01*
X005660Y019993D02*
X000460Y019993D01*
X000460Y020151D02*
X005620Y020151D01*
X005636Y020310D02*
X000504Y020310D01*
X000572Y020468D02*
X005717Y020468D01*
X006385Y019834D02*
X006775Y019834D01*
X006659Y019993D02*
X006500Y019993D01*
X006540Y020151D02*
X006620Y020151D01*
X006638Y020310D02*
X006524Y020310D01*
X006443Y020468D02*
X006721Y020468D01*
X007060Y020468D02*
X007100Y020468D01*
X007100Y020310D02*
X007060Y020310D01*
X007100Y020160D02*
X007540Y020160D01*
X007540Y020144D01*
X007529Y020072D01*
X007506Y020003D01*
X007473Y019939D01*
X007431Y019880D01*
X007380Y019829D01*
X007321Y019787D01*
X007257Y019754D01*
X007188Y019731D01*
X007116Y019720D01*
X007100Y019720D01*
X007100Y020160D01*
X007100Y020151D02*
X007060Y020151D01*
X007060Y019993D02*
X007100Y019993D01*
X007100Y019834D02*
X007060Y019834D01*
X007385Y019834D02*
X007775Y019834D01*
X007660Y019993D02*
X007501Y019993D01*
X007540Y020151D02*
X007620Y020151D01*
X007636Y020310D02*
X007522Y020310D01*
X007439Y020468D02*
X007717Y020468D01*
X007800Y018566D02*
X007331Y018566D01*
X007480Y018408D02*
X007676Y018408D01*
X007620Y018249D02*
X007535Y018249D01*
X007532Y018091D02*
X007620Y018091D01*
X007685Y017932D02*
X007468Y017932D01*
X007295Y017774D02*
X007859Y017774D01*
X004359Y017774D02*
X000460Y017774D01*
X000460Y017932D02*
X004185Y017932D01*
X004120Y018091D02*
X000460Y018091D01*
X000460Y018249D02*
X004120Y018249D01*
X004176Y018408D02*
X000460Y018408D01*
X000460Y018566D02*
X004315Y018566D01*
X000930Y016930D02*
X000930Y005180D01*
X003430Y002680D01*
X009180Y008380D02*
X009380Y008180D01*
X009180Y008380D02*
X009180Y010180D01*
X009580Y009780D02*
X010480Y010680D01*
X011180Y010680D01*
X012019Y010166D02*
X022760Y010166D01*
X022760Y010324D02*
X022475Y010324D01*
X022596Y010483D02*
X022760Y010483D01*
X022760Y010641D02*
X022640Y010641D01*
X022628Y010800D02*
X022760Y010800D01*
X022760Y010958D02*
X022553Y010958D01*
X021807Y010958D02*
X021553Y010958D01*
X021628Y010800D02*
X021732Y010800D01*
X021720Y010641D02*
X021640Y010641D01*
X021596Y010483D02*
X021764Y010483D01*
X021885Y010324D02*
X021475Y010324D01*
X021790Y009941D02*
X021919Y010070D01*
X022088Y010140D01*
X022271Y010140D01*
X022441Y010070D01*
X022570Y009941D01*
X022640Y009771D01*
X022640Y009588D01*
X022570Y009419D01*
X022441Y009290D01*
X022271Y009220D01*
X022088Y009220D01*
X021919Y009290D01*
X021790Y009419D01*
X021720Y009588D01*
X021720Y009771D01*
X021790Y009941D01*
X021856Y010007D02*
X021504Y010007D01*
X021608Y009849D02*
X021752Y009849D01*
X021720Y009690D02*
X021640Y009690D01*
X021616Y009532D02*
X021744Y009532D01*
X021836Y009373D02*
X021524Y009373D01*
X021455Y009056D02*
X021905Y009056D01*
X021919Y009070D02*
X021790Y008941D01*
X021720Y008771D01*
X021720Y008588D01*
X021790Y008419D01*
X021919Y008290D01*
X022088Y008220D01*
X022271Y008220D01*
X022441Y008290D01*
X022570Y008419D01*
X022640Y008588D01*
X022640Y008771D01*
X022570Y008941D01*
X022441Y009070D01*
X022271Y009140D01*
X022088Y009140D01*
X021919Y009070D01*
X021772Y008898D02*
X021588Y008898D01*
X021640Y008739D02*
X021720Y008739D01*
X021723Y008581D02*
X021637Y008581D01*
X021571Y008422D02*
X021789Y008422D01*
X021983Y008264D02*
X021377Y008264D01*
X021356Y008105D02*
X022004Y008105D01*
X022088Y008140D02*
X021919Y008070D01*
X021790Y007941D01*
X021720Y007771D01*
X021720Y007588D01*
X021790Y007419D01*
X021919Y007290D01*
X022088Y007220D01*
X022271Y007220D01*
X022441Y007290D01*
X022570Y007419D01*
X022640Y007588D01*
X022640Y007771D01*
X022570Y007941D01*
X022441Y008070D01*
X022271Y008140D01*
X022088Y008140D01*
X022356Y008105D02*
X022760Y008105D01*
X022760Y007947D02*
X022564Y007947D01*
X022633Y007788D02*
X022760Y007788D01*
X022760Y007630D02*
X022640Y007630D01*
X022591Y007471D02*
X022760Y007471D01*
X022760Y007313D02*
X022463Y007313D01*
X021897Y007313D02*
X021463Y007313D01*
X021591Y007471D02*
X021769Y007471D01*
X021720Y007630D02*
X021640Y007630D01*
X021633Y007788D02*
X021727Y007788D01*
X021796Y007947D02*
X021564Y007947D01*
X022377Y008264D02*
X022760Y008264D01*
X022760Y008422D02*
X022571Y008422D01*
X022637Y008581D02*
X022760Y008581D01*
X022760Y008739D02*
X022640Y008739D01*
X022588Y008898D02*
X022760Y008898D01*
X022760Y009056D02*
X022455Y009056D01*
X022524Y009373D02*
X022760Y009373D01*
X022760Y009215D02*
X011985Y009215D01*
X012455Y009056D02*
X014905Y009056D01*
X014772Y008898D02*
X012588Y008898D01*
X012640Y008739D02*
X014720Y008739D01*
X014723Y008581D02*
X012637Y008581D01*
X012777Y008422D02*
X014789Y008422D01*
X014983Y008264D02*
X013276Y008264D01*
X013366Y008105D02*
X015004Y008105D01*
X014796Y007947D02*
X013362Y007947D01*
X013267Y007788D02*
X014727Y007788D01*
X014720Y007630D02*
X012570Y007630D01*
X012728Y007471D02*
X014769Y007471D01*
X014897Y007313D02*
X012887Y007313D01*
X012830Y008030D02*
X013030Y008030D01*
X014153Y006996D02*
X014845Y006996D01*
X014747Y006837D02*
X014332Y006837D01*
X014369Y006679D02*
X014720Y006679D01*
X014748Y006520D02*
X014330Y006520D01*
X015571Y008422D02*
X018789Y008422D01*
X018723Y008581D02*
X015637Y008581D01*
X015640Y008739D02*
X018720Y008739D01*
X018772Y008898D02*
X015588Y008898D01*
X015455Y009056D02*
X018905Y009056D01*
X018836Y009373D02*
X015524Y009373D01*
X015616Y009532D02*
X018744Y009532D01*
X018720Y009690D02*
X015640Y009690D01*
X015608Y009849D02*
X018752Y009849D01*
X021515Y006996D02*
X021845Y006996D01*
X021747Y006837D02*
X021613Y006837D01*
X021640Y006679D02*
X021720Y006679D01*
X021748Y006520D02*
X021612Y006520D01*
X021512Y006362D02*
X021848Y006362D01*
X021894Y006045D02*
X021466Y006045D01*
X021593Y005886D02*
X021767Y005886D01*
X021720Y005728D02*
X021640Y005728D01*
X021632Y005569D02*
X021728Y005569D01*
X021799Y005411D02*
X021561Y005411D01*
X022561Y005411D02*
X022760Y005411D01*
X022760Y005569D02*
X022632Y005569D01*
X022640Y005728D02*
X022760Y005728D01*
X022760Y005886D02*
X022593Y005886D01*
X022466Y006045D02*
X022760Y006045D01*
X022760Y009532D02*
X022616Y009532D01*
X022640Y009690D02*
X022760Y009690D01*
X022760Y009849D02*
X022608Y009849D01*
X022504Y010007D02*
X022760Y010007D01*
X018358Y003509D02*
X018002Y003509D01*
X018107Y003350D02*
X018253Y003350D01*
X018220Y003192D02*
X018140Y003192D01*
X018117Y003033D02*
X018243Y003033D01*
X018335Y002875D02*
X018025Y002875D01*
X017960Y002716D02*
X018400Y002716D01*
X018400Y002558D02*
X017960Y002558D01*
X017960Y002399D02*
X018400Y002399D01*
X018400Y002241D02*
X017960Y002241D01*
X017960Y002082D02*
X018400Y002082D01*
X018400Y001924D02*
X017960Y001924D01*
X017960Y001765D02*
X018400Y001765D01*
X018400Y001607D02*
X017960Y001607D01*
X018063Y001448D02*
X018297Y001448D01*
X018227Y001290D02*
X018133Y001290D01*
X018140Y001131D02*
X018220Y001131D01*
X018268Y000973D02*
X018092Y000973D01*
X017965Y000814D02*
X018395Y000814D01*
X017395Y000814D02*
X016965Y000814D01*
X017092Y000973D02*
X017268Y000973D01*
X017220Y001131D02*
X017140Y001131D01*
X017133Y001290D02*
X017227Y001290D01*
X017297Y001448D02*
X017063Y001448D01*
X016960Y001607D02*
X017400Y001607D01*
X017400Y001765D02*
X016960Y001765D01*
X016960Y001924D02*
X017400Y001924D01*
X017400Y002082D02*
X016960Y002082D01*
X016960Y002241D02*
X017400Y002241D01*
X017400Y002399D02*
X016960Y002399D01*
X016960Y002558D02*
X017400Y002558D01*
X017400Y002716D02*
X016960Y002716D01*
X017025Y002875D02*
X017335Y002875D01*
X017243Y003033D02*
X017117Y003033D01*
X017140Y003192D02*
X017220Y003192D01*
X017253Y003350D02*
X017107Y003350D01*
X017002Y003509D02*
X017358Y003509D01*
X014836Y009373D02*
X012524Y009373D01*
X012616Y009532D02*
X014744Y009532D01*
X014720Y009690D02*
X012640Y009690D01*
X012608Y009849D02*
X014752Y009849D01*
X014856Y010007D02*
X012504Y010007D01*
X012475Y010324D02*
X014885Y010324D01*
X014764Y010483D02*
X012596Y010483D01*
X012640Y010641D02*
X014720Y010641D01*
X014721Y010800D02*
X012628Y010800D01*
X014680Y011180D02*
X015180Y010680D01*
X014680Y011180D02*
X009930Y011180D01*
X008530Y012580D01*
X008030Y012580D01*
X009580Y009780D02*
X009580Y008480D01*
X010130Y007930D01*
X009774Y007947D02*
X009626Y007947D01*
X004729Y010958D02*
X004104Y010958D01*
X003945Y010800D02*
X004613Y010800D01*
D19*
X004930Y010680D02*
X004930Y009180D01*
X005680Y009930D02*
X005680Y013180D01*
X003430Y015430D01*
X005680Y009930D02*
X005680Y006930D01*
X004930Y006180D02*
X004930Y007680D01*
X004930Y006180D02*
X005180Y005930D01*
X011680Y003180D02*
X011680Y001180D01*
X011680Y003180D02*
X012430Y003930D01*
X022730Y003930D01*
X023080Y004380D01*
X023080Y014180D01*
X023080Y015080D01*
D20*
X013055Y013805D02*
X013055Y013055D01*
X012680Y012680D01*
X012180Y012680D01*
X011180Y013680D02*
X010180Y013680D01*
X009980Y013480D01*
M02*
