G75*
G70*
%OFA0B0*%
%FSLAX24Y24*%
%IPPOS*%
%LPD*%
%AMOC8*
5,1,8,0,0,1.08239X$1,22.5*
%
%ADD10C,0.0660*%
%ADD11R,0.0660X0.0660*%
%ADD12C,0.1360*%
%ADD13OC8,0.0690*%
%ADD14C,0.0690*%
D10*
X009680Y001180D03*
X010680Y001180D03*
X011680Y001180D03*
X012680Y001180D03*
X013680Y001180D03*
X014680Y001180D03*
X016680Y001180D03*
X017680Y001180D03*
X018680Y001180D03*
X019680Y001180D03*
X020680Y001180D03*
X021680Y001180D03*
X021680Y003180D03*
X020680Y003180D03*
X019680Y003180D03*
X018680Y003180D03*
X017680Y003180D03*
X016680Y003180D03*
X016180Y004680D03*
X015180Y004680D03*
X015180Y005680D03*
X016180Y005680D03*
X016180Y006680D03*
X015180Y006680D03*
X015180Y007680D03*
X015180Y008680D03*
X015180Y009680D03*
X015180Y010680D03*
X015180Y011680D03*
X015180Y012680D03*
X015180Y013680D03*
X015180Y015680D03*
X016180Y015680D03*
X016180Y016680D03*
X015180Y016680D03*
X014680Y018180D03*
X015680Y018180D03*
X016680Y018180D03*
X017680Y018180D03*
X018680Y018180D03*
X019680Y018180D03*
X020680Y018180D03*
X020180Y016680D03*
X019180Y016680D03*
X018180Y016680D03*
X017180Y016680D03*
X017180Y015680D03*
X018180Y015680D03*
X019180Y015680D03*
X020180Y015680D03*
X021180Y015680D03*
X022180Y015680D03*
X022180Y014680D03*
X022180Y013680D03*
X021180Y013680D03*
X021180Y014680D03*
X020180Y014680D03*
X020180Y013680D03*
X019180Y013680D03*
X019180Y014680D03*
X018180Y014680D03*
X018180Y013680D03*
X017180Y013680D03*
X017180Y014680D03*
X017180Y012680D03*
X018180Y012680D03*
X019180Y012680D03*
X020180Y012680D03*
X021180Y012680D03*
X022180Y012680D03*
X022180Y011680D03*
X022180Y010680D03*
X021180Y010680D03*
X021180Y011680D03*
X020180Y011680D03*
X020180Y010680D03*
X019180Y010680D03*
X019180Y011680D03*
X018180Y011680D03*
X018180Y010680D03*
X017180Y011680D03*
X018180Y009680D03*
X019180Y009680D03*
X020180Y009680D03*
X021180Y009680D03*
X022180Y009680D03*
X022180Y008680D03*
X021180Y008680D03*
X020180Y008680D03*
X019180Y008680D03*
X019180Y007680D03*
X019180Y006680D03*
X018180Y006680D03*
X017180Y006680D03*
X017180Y005680D03*
X018180Y005680D03*
X019180Y005680D03*
X020180Y005680D03*
X021180Y005680D03*
X022180Y005680D03*
X022180Y006680D03*
X022180Y007680D03*
X021180Y007680D03*
X021180Y006680D03*
X020180Y006680D03*
X020180Y007680D03*
X020180Y004680D03*
X019180Y004680D03*
X018180Y004680D03*
X017180Y004680D03*
X014680Y003180D03*
X013680Y003180D03*
X012680Y003180D03*
X011680Y003180D03*
X010680Y003180D03*
X009680Y003180D03*
X011180Y008680D03*
X011180Y009680D03*
X011180Y010680D03*
X011180Y011680D03*
X011180Y012680D03*
X011180Y013680D03*
X011180Y014680D03*
X011180Y015680D03*
X012180Y015680D03*
X012180Y014680D03*
X012180Y013680D03*
X012180Y012680D03*
X012180Y011680D03*
X012180Y010680D03*
X012180Y009680D03*
X012180Y008680D03*
X021180Y004680D03*
X021180Y016680D03*
X020680Y020180D03*
X019680Y020180D03*
X018680Y020180D03*
X017680Y020180D03*
X016680Y020180D03*
X015680Y020180D03*
X014680Y020180D03*
X012080Y020180D03*
X011080Y020180D03*
X010080Y020180D03*
X009080Y020180D03*
X008080Y020180D03*
X007080Y020180D03*
X006080Y020180D03*
X006080Y018180D03*
X007080Y018180D03*
X008080Y018180D03*
X009080Y018180D03*
X010080Y018180D03*
X011080Y018180D03*
X012080Y018180D03*
X004580Y018180D03*
D11*
X013080Y018180D03*
X013080Y020180D03*
X015180Y014680D03*
X021680Y018180D03*
X022180Y016680D03*
X021680Y020180D03*
X022180Y004680D03*
D12*
X003430Y005430D03*
X003430Y007430D03*
X003430Y009430D03*
X003430Y011430D03*
X003430Y013430D03*
X003430Y015430D03*
D13*
X007630Y002580D03*
D14*
X006230Y002580D03*
M02*
