G75*
G70*
%OFA0B0*%
%FSLAX24Y24*%
%IPPOS*%
%LPD*%
%AMOC8*
5,1,8,0,0,1.08239X$1,22.5*
%
%ADD10C,0.0000*%
%ADD11C,0.0600*%
%ADD12R,0.0600X0.0600*%
%ADD13R,0.0300X0.0300*%
%ADD14R,0.0300X0.0800*%
%ADD15R,0.0413X0.0177*%
%ADD16R,0.1157X0.1409*%
%ADD17R,0.0709X0.1063*%
%ADD18C,0.1300*%
%ADD19OC8,0.0630*%
%ADD20C,0.0630*%
%ADD21R,0.0800X0.0260*%
%ADD22C,0.0160*%
%ADD23C,0.0080*%
%ADD24C,0.0357*%
%ADD25C,0.0320*%
%ADD26C,0.0120*%
%ADD27C,0.0240*%
D10*
X001180Y000180D02*
X021680Y000180D01*
X021740Y000182D01*
X021801Y000187D01*
X021860Y000196D01*
X021919Y000209D01*
X021978Y000225D01*
X022035Y000245D01*
X022090Y000268D01*
X022145Y000295D01*
X022197Y000324D01*
X022248Y000357D01*
X022297Y000393D01*
X022343Y000431D01*
X022387Y000473D01*
X022429Y000517D01*
X022467Y000563D01*
X022503Y000612D01*
X022536Y000663D01*
X022565Y000715D01*
X022592Y000770D01*
X022615Y000825D01*
X022635Y000882D01*
X022651Y000941D01*
X022664Y001000D01*
X022673Y001059D01*
X022678Y001120D01*
X022680Y001180D01*
X023680Y002180D01*
X023680Y015180D01*
X022680Y016180D01*
X022680Y020180D01*
X022678Y020240D01*
X022673Y020301D01*
X022664Y020360D01*
X022651Y020419D01*
X022635Y020478D01*
X022615Y020535D01*
X022592Y020590D01*
X022565Y020645D01*
X022536Y020697D01*
X022503Y020748D01*
X022467Y020797D01*
X022429Y020843D01*
X022387Y020887D01*
X022343Y020929D01*
X022297Y020967D01*
X022248Y021003D01*
X022197Y021036D01*
X022145Y021065D01*
X022090Y021092D01*
X022035Y021115D01*
X021978Y021135D01*
X021919Y021151D01*
X021860Y021164D01*
X021801Y021173D01*
X021740Y021178D01*
X021680Y021180D01*
X001180Y021180D01*
X000180Y020180D02*
X000180Y001180D01*
X000181Y001180D02*
X000192Y001115D01*
X000207Y001051D01*
X000225Y000988D01*
X000247Y000926D01*
X000272Y000865D01*
X000301Y000805D01*
X000333Y000748D01*
X000368Y000692D01*
X000406Y000638D01*
X000447Y000587D01*
X000491Y000538D01*
X000538Y000491D01*
X000587Y000447D01*
X000638Y000406D01*
X000692Y000368D01*
X000748Y000333D01*
X000805Y000301D01*
X000865Y000272D01*
X000926Y000247D01*
X000988Y000225D01*
X001051Y000207D01*
X001115Y000192D01*
X001180Y000181D01*
X000181Y020180D02*
X000192Y020245D01*
X000207Y020309D01*
X000225Y020372D01*
X000247Y020434D01*
X000272Y020495D01*
X000301Y020555D01*
X000333Y020612D01*
X000368Y020668D01*
X000406Y020722D01*
X000447Y020773D01*
X000491Y020822D01*
X000538Y020869D01*
X000587Y020913D01*
X000638Y020954D01*
X000692Y020992D01*
X000748Y021027D01*
X000805Y021059D01*
X000865Y021088D01*
X000926Y021113D01*
X000988Y021135D01*
X001051Y021153D01*
X001115Y021168D01*
X001180Y021179D01*
D11*
X004580Y018180D03*
X006080Y018180D03*
X007080Y018180D03*
X008080Y018180D03*
X009080Y018180D03*
X010080Y018180D03*
X011080Y018180D03*
X012080Y018180D03*
X012080Y020180D03*
X011080Y020180D03*
X010080Y020180D03*
X009080Y020180D03*
X008080Y020180D03*
X007080Y020180D03*
X006080Y020180D03*
X011180Y015680D03*
X011180Y014680D03*
X011180Y013680D03*
X011180Y012680D03*
X011180Y011680D03*
X011180Y010680D03*
X011180Y009680D03*
X011180Y008680D03*
X012180Y008680D03*
X012180Y009680D03*
X012180Y010680D03*
X012180Y011680D03*
X012180Y012680D03*
X012180Y013680D03*
X012180Y014680D03*
X012180Y015680D03*
X015180Y015680D03*
X016180Y015680D03*
X016180Y016680D03*
X015180Y016680D03*
X014680Y018180D03*
X015680Y018180D03*
X016680Y018180D03*
X017680Y018180D03*
X018680Y018180D03*
X019680Y018180D03*
X020680Y018180D03*
X020180Y016680D03*
X019180Y016680D03*
X018180Y016680D03*
X017180Y016680D03*
X017180Y015680D03*
X018180Y015680D03*
X019180Y015680D03*
X020180Y015680D03*
X021180Y015680D03*
X022180Y015680D03*
X022180Y014680D03*
X022180Y013680D03*
X021180Y013680D03*
X021180Y014680D03*
X020180Y014680D03*
X020180Y013680D03*
X019180Y013680D03*
X019180Y014680D03*
X018180Y014680D03*
X018180Y013680D03*
X017180Y013680D03*
X017180Y014680D03*
X017180Y012680D03*
X018180Y012680D03*
X019180Y012680D03*
X020180Y012680D03*
X021180Y012680D03*
X022180Y012680D03*
X022180Y011680D03*
X022180Y010680D03*
X021180Y010680D03*
X021180Y011680D03*
X020180Y011680D03*
X020180Y010680D03*
X019180Y010680D03*
X019180Y011680D03*
X018180Y011680D03*
X018180Y010680D03*
X017180Y011680D03*
X015180Y011680D03*
X015180Y010680D03*
X015180Y009680D03*
X015180Y008680D03*
X015180Y007680D03*
X015180Y006680D03*
X016180Y006680D03*
X016180Y005680D03*
X015180Y005680D03*
X015180Y004680D03*
X016180Y004680D03*
X017180Y004680D03*
X018180Y004680D03*
X019180Y004680D03*
X020180Y004680D03*
X021180Y004680D03*
X021180Y005680D03*
X020180Y005680D03*
X019180Y005680D03*
X018180Y005680D03*
X017180Y005680D03*
X017180Y006680D03*
X018180Y006680D03*
X019180Y006680D03*
X019180Y007680D03*
X020180Y007680D03*
X020180Y006680D03*
X021180Y006680D03*
X021180Y007680D03*
X022180Y007680D03*
X022180Y006680D03*
X022180Y005680D03*
X021680Y003180D03*
X020680Y003180D03*
X019680Y003180D03*
X018680Y003180D03*
X017680Y003180D03*
X016680Y003180D03*
X014680Y003180D03*
X013680Y003180D03*
X012680Y003180D03*
X011680Y003180D03*
X010680Y003180D03*
X009680Y003180D03*
X009680Y001180D03*
X010680Y001180D03*
X011680Y001180D03*
X012680Y001180D03*
X013680Y001180D03*
X014680Y001180D03*
X016680Y001180D03*
X017680Y001180D03*
X018680Y001180D03*
X019680Y001180D03*
X020680Y001180D03*
X021680Y001180D03*
X021180Y008680D03*
X020180Y008680D03*
X019180Y008680D03*
X019180Y009680D03*
X018180Y009680D03*
X020180Y009680D03*
X021180Y009680D03*
X022180Y009680D03*
X022180Y008680D03*
X015180Y012680D03*
X015180Y013680D03*
X021180Y016680D03*
X020680Y020180D03*
X019680Y020180D03*
X018680Y020180D03*
X017680Y020180D03*
X016680Y020180D03*
X015680Y020180D03*
X014680Y020180D03*
D12*
X013080Y020180D03*
X013080Y018180D03*
X015180Y014680D03*
X021680Y018180D03*
X022180Y016680D03*
X021680Y020180D03*
X022180Y004680D03*
D13*
X014230Y006180D03*
X013630Y006180D03*
X013630Y007180D03*
X014230Y007180D03*
X014230Y007930D03*
X013630Y007930D03*
X013630Y008680D03*
X014230Y008680D03*
X014230Y009430D03*
X013630Y009430D03*
X013630Y010430D03*
X014230Y010430D03*
X014230Y011180D03*
X013630Y011180D03*
X013630Y011930D03*
X014230Y011930D03*
X014230Y012680D03*
X013630Y012680D03*
X013430Y014880D03*
X013430Y015480D03*
X009180Y015880D03*
X009180Y016480D03*
X008430Y016480D03*
X008430Y015880D03*
X003580Y018180D03*
X003580Y018780D03*
X002080Y016930D03*
X001480Y016930D03*
X010180Y007480D03*
X010180Y006880D03*
X010930Y006880D03*
X010930Y007480D03*
X011680Y007480D03*
X011680Y006880D03*
X007230Y004805D03*
X006630Y004805D03*
X005180Y001730D03*
X005180Y001130D03*
X004480Y001130D03*
X004480Y001730D03*
X003430Y001730D03*
X003430Y001130D03*
D14*
X002580Y001330D03*
X001080Y001330D03*
X001080Y003530D03*
X002580Y003530D03*
X002580Y017880D03*
X001080Y017880D03*
X001080Y020080D03*
X002580Y020080D03*
D15*
X006490Y009326D03*
X006490Y009070D03*
X006490Y008814D03*
X006490Y008558D03*
X006490Y008302D03*
X006490Y008046D03*
X006490Y007790D03*
X006490Y007534D03*
X008670Y007534D03*
X008670Y007790D03*
X008670Y008046D03*
X008670Y008302D03*
X008670Y008558D03*
X008670Y008814D03*
X008670Y009070D03*
X008670Y009326D03*
D16*
X007580Y008430D03*
D17*
X007796Y005930D03*
X006064Y005930D03*
X006314Y010930D03*
X008046Y010930D03*
D18*
X003430Y011430D03*
X003430Y009430D03*
X003430Y007430D03*
X003430Y005430D03*
X003430Y013430D03*
X003430Y015430D03*
D19*
X007630Y002580D03*
D20*
X006230Y002580D03*
D21*
X006520Y012180D03*
X006520Y012680D03*
X006520Y013180D03*
X006520Y013680D03*
X006520Y014180D03*
X006520Y014680D03*
X006520Y015180D03*
X008940Y015180D03*
X008940Y014680D03*
X008940Y014180D03*
X008940Y013680D03*
X008940Y013180D03*
X008940Y012680D03*
X008940Y012180D03*
D22*
X000571Y000894D02*
X000711Y000711D01*
X000894Y000571D01*
X001106Y000481D01*
X001206Y000460D01*
X003989Y000460D01*
X003889Y000560D01*
X003760Y000689D01*
X003760Y001489D01*
X003739Y001510D01*
X003736Y001510D01*
X003650Y001424D01*
X003678Y001408D01*
X003708Y001378D01*
X003729Y001342D01*
X003740Y001301D01*
X003740Y001130D01*
X003430Y001130D01*
X003430Y001130D01*
X003740Y001130D01*
X003740Y000959D01*
X003729Y000918D01*
X003708Y000882D01*
X003678Y000852D01*
X003642Y000831D01*
X003601Y000820D01*
X003430Y000820D01*
X003430Y001130D01*
X003430Y001130D01*
X003430Y001130D01*
X003120Y001130D01*
X003120Y001301D01*
X003131Y001342D01*
X003152Y001378D01*
X003182Y001408D01*
X003210Y001424D01*
X003120Y001514D01*
X003120Y001946D01*
X003190Y002016D01*
X003190Y002441D01*
X003143Y002488D01*
X003091Y002613D01*
X003091Y002747D01*
X003143Y002872D01*
X003238Y002967D01*
X003363Y003019D01*
X003497Y003019D01*
X003622Y002967D01*
X003717Y002872D01*
X003769Y002747D01*
X003769Y002613D01*
X003717Y002488D01*
X003670Y002441D01*
X003670Y002016D01*
X003736Y001950D01*
X003921Y001950D01*
X003980Y001891D01*
X004039Y001950D01*
X004174Y001950D01*
X004264Y002040D01*
X004696Y002040D01*
X004790Y001946D01*
X004790Y001514D01*
X004706Y001430D01*
X004766Y001370D01*
X004894Y001370D01*
X004960Y001436D01*
X004932Y001452D01*
X004902Y001482D01*
X004881Y001518D01*
X004870Y001559D01*
X004870Y001730D01*
X005180Y001730D01*
X005180Y001730D01*
X005180Y002040D01*
X005351Y002040D01*
X005392Y002029D01*
X005428Y002008D01*
X005458Y001978D01*
X005479Y001942D01*
X005490Y001901D01*
X005490Y001730D01*
X005180Y001730D01*
X005180Y001730D01*
X005180Y001730D01*
X005180Y002040D01*
X005009Y002040D01*
X004968Y002029D01*
X004932Y002008D01*
X004902Y001978D01*
X004881Y001942D01*
X004870Y001901D01*
X004870Y001730D01*
X005180Y001730D01*
X005490Y001730D01*
X005490Y001559D01*
X005479Y001518D01*
X005458Y001482D01*
X005428Y001452D01*
X005400Y001436D01*
X005490Y001346D01*
X005490Y000914D01*
X005396Y000820D01*
X004964Y000820D01*
X004894Y000890D01*
X004766Y000890D01*
X004696Y000820D01*
X004264Y000820D01*
X004200Y000884D01*
X004200Y000871D01*
X004271Y000800D01*
X009409Y000800D01*
X009290Y000919D01*
X009282Y000940D01*
X006632Y000940D01*
X006544Y000977D01*
X006477Y001044D01*
X004231Y003290D01*
X002890Y003290D01*
X002890Y003064D01*
X002820Y002994D01*
X002820Y001866D01*
X002890Y001796D01*
X002890Y000864D01*
X002796Y000770D01*
X002364Y000770D01*
X002270Y000864D01*
X002270Y001796D01*
X002340Y001866D01*
X002340Y002994D01*
X002270Y003064D01*
X002270Y003996D01*
X002364Y004090D01*
X002796Y004090D01*
X002890Y003996D01*
X002890Y003770D01*
X004378Y003770D01*
X004466Y003733D01*
X005784Y002415D01*
X005755Y002486D01*
X005755Y002674D01*
X005827Y002849D01*
X005961Y002983D01*
X005990Y002995D01*
X005990Y003278D01*
X006027Y003366D01*
X006390Y003729D01*
X006390Y004519D01*
X006344Y004565D01*
X005357Y004565D01*
X005269Y004602D01*
X004544Y005327D01*
X004477Y005394D01*
X004440Y005482D01*
X004440Y005978D01*
X004477Y006066D01*
X004544Y006133D01*
X004544Y006133D01*
X005341Y006931D01*
X005341Y006997D01*
X005344Y007005D01*
X004149Y005810D01*
X004240Y005591D01*
X004240Y005269D01*
X004117Y004971D01*
X003889Y004743D01*
X003591Y004620D01*
X003269Y004620D01*
X002971Y004743D01*
X002743Y004971D01*
X002620Y005269D01*
X002620Y005591D01*
X002743Y005889D01*
X002971Y006117D01*
X003269Y006240D01*
X003591Y006240D01*
X003810Y006149D01*
X005005Y007344D01*
X004997Y007341D01*
X004863Y007341D01*
X004738Y007393D01*
X004643Y007488D01*
X004591Y007613D01*
X004591Y007747D01*
X004643Y007872D01*
X004738Y007967D01*
X004863Y008019D01*
X004929Y008019D01*
X004973Y008062D01*
X004401Y008062D01*
X004149Y007810D01*
X004240Y007591D01*
X004240Y007269D01*
X004117Y006971D01*
X003889Y006743D01*
X003591Y006620D01*
X003269Y006620D01*
X002971Y006743D01*
X002743Y006971D01*
X002620Y007269D01*
X002620Y007591D01*
X002743Y007889D01*
X002971Y008117D01*
X003269Y008240D01*
X003591Y008240D01*
X003810Y008149D01*
X004091Y008430D01*
X003810Y008711D01*
X003591Y008620D01*
X003269Y008620D01*
X002971Y008743D01*
X002743Y008971D01*
X002620Y009269D01*
X002620Y009591D01*
X002743Y009889D01*
X002971Y010117D01*
X003269Y010240D01*
X003591Y010240D01*
X003889Y010117D01*
X004117Y009889D01*
X004240Y009591D01*
X004240Y009269D01*
X004149Y009050D01*
X004401Y008798D01*
X004973Y008798D01*
X004929Y008841D01*
X004863Y008841D01*
X004738Y008893D01*
X004643Y008988D01*
X004591Y009113D01*
X004591Y009247D01*
X004643Y009372D01*
X004738Y009467D01*
X004863Y009519D01*
X004997Y009519D01*
X005005Y009516D01*
X003810Y010711D01*
X003591Y010620D01*
X003269Y010620D01*
X002971Y010743D01*
X002743Y010971D01*
X002620Y011269D01*
X002620Y011591D01*
X002743Y011889D01*
X002971Y012117D01*
X003269Y012240D01*
X003591Y012240D01*
X003889Y012117D01*
X004117Y011889D01*
X004240Y011591D01*
X004240Y011269D01*
X004149Y011050D01*
X004594Y010605D01*
X004591Y010613D01*
X004591Y010747D01*
X004643Y010872D01*
X004738Y010967D01*
X004863Y011019D01*
X004997Y011019D01*
X005043Y011000D01*
X005800Y011000D01*
X005800Y011528D01*
X005893Y011621D01*
X006734Y011621D01*
X006828Y011528D01*
X006828Y010332D01*
X006734Y010239D01*
X005893Y010239D01*
X005800Y010332D01*
X005800Y010360D01*
X005043Y010360D01*
X004997Y010341D01*
X004863Y010341D01*
X004855Y010344D01*
X005344Y009855D01*
X005341Y009863D01*
X005341Y009997D01*
X005393Y010122D01*
X005488Y010217D01*
X005613Y010269D01*
X005747Y010269D01*
X005872Y010217D01*
X005967Y010122D01*
X006019Y009997D01*
X006019Y009931D01*
X006375Y009574D01*
X006763Y009574D01*
X006857Y009481D01*
X006857Y009205D01*
X006873Y009233D01*
X006903Y009263D01*
X006940Y009284D01*
X006980Y009295D01*
X007500Y009295D01*
X007500Y008510D01*
X007660Y008510D01*
X007660Y009295D01*
X008180Y009295D01*
X008220Y009284D01*
X008257Y009263D01*
X008287Y009233D01*
X008303Y009205D01*
X008303Y009326D01*
X008670Y009326D01*
X008670Y009326D01*
X008303Y009326D01*
X008303Y009435D01*
X008314Y009476D01*
X008335Y009512D01*
X008365Y009542D01*
X008401Y009563D01*
X008411Y009566D01*
X008347Y009630D01*
X008230Y009747D01*
X008230Y010239D01*
X008126Y010239D01*
X008126Y010850D01*
X007966Y010850D01*
X007532Y010850D01*
X007532Y010377D01*
X007543Y010337D01*
X007564Y010300D01*
X007594Y010270D01*
X007630Y010249D01*
X007671Y010239D01*
X007966Y010239D01*
X007966Y010850D01*
X007966Y011010D01*
X007532Y011010D01*
X007532Y011483D01*
X007543Y011523D01*
X007564Y011560D01*
X007594Y011590D01*
X007630Y011611D01*
X007671Y011621D01*
X007966Y011621D01*
X007966Y011010D01*
X008126Y011010D01*
X008126Y011621D01*
X008422Y011621D01*
X008462Y011611D01*
X008499Y011590D01*
X008529Y011560D01*
X008550Y011523D01*
X008560Y011483D01*
X008560Y011347D01*
X008613Y011369D01*
X008747Y011369D01*
X008872Y011317D01*
X008967Y011222D01*
X008986Y011176D01*
X008990Y011179D01*
X008990Y011890D01*
X008474Y011890D01*
X008380Y011984D01*
X008380Y012097D01*
X008013Y011730D01*
X007609Y011730D01*
X007522Y011643D01*
X007397Y011591D01*
X007263Y011591D01*
X007138Y011643D01*
X007043Y011738D01*
X006991Y011863D01*
X006991Y011906D01*
X006982Y011901D01*
X006941Y011890D01*
X006520Y011890D01*
X006520Y012180D01*
X006520Y012180D01*
X006520Y012390D01*
X006520Y012390D01*
X006520Y012180D01*
X007080Y012180D01*
X007080Y012331D01*
X007069Y012372D01*
X007048Y012408D01*
X007026Y012430D01*
X007036Y012440D01*
X007191Y012440D01*
X007238Y012393D01*
X007363Y012341D01*
X007497Y012341D01*
X007622Y012393D01*
X007706Y012477D01*
X007743Y012388D01*
X007838Y012293D01*
X007960Y012242D01*
X007847Y012130D01*
X007609Y012130D01*
X007522Y012217D01*
X007397Y012269D01*
X007263Y012269D01*
X007138Y012217D01*
X007080Y012159D01*
X007080Y012180D01*
X006520Y012180D01*
X006520Y012180D01*
X006520Y012180D01*
X006520Y012180D01*
X005960Y012180D01*
X005960Y012331D01*
X005971Y012372D01*
X005992Y012408D01*
X006014Y012430D01*
X005960Y012484D01*
X005960Y012876D01*
X006014Y012930D01*
X006004Y012940D01*
X005882Y012940D01*
X005794Y012977D01*
X005544Y013227D01*
X005477Y013294D01*
X005440Y013382D01*
X005440Y014478D01*
X005477Y014566D01*
X005727Y014816D01*
X005794Y014883D01*
X005882Y014920D01*
X006004Y014920D01*
X006014Y014930D01*
X005960Y014984D01*
X005960Y015376D01*
X006054Y015470D01*
X006986Y015470D01*
X007036Y015420D01*
X007191Y015420D01*
X007238Y015467D01*
X007363Y015519D01*
X007497Y015519D01*
X007622Y015467D01*
X007717Y015372D01*
X007769Y015247D01*
X007769Y015113D01*
X007717Y014988D01*
X007622Y014893D01*
X007497Y014841D01*
X007363Y014841D01*
X007238Y014893D01*
X007191Y014940D01*
X007036Y014940D01*
X007026Y014930D01*
X007080Y014876D01*
X007080Y014484D01*
X007026Y014430D01*
X007036Y014420D01*
X007191Y014420D01*
X007238Y014467D01*
X007363Y014519D01*
X007497Y014519D01*
X007622Y014467D01*
X007680Y014409D01*
X007738Y014467D01*
X007863Y014519D01*
X007997Y014519D01*
X008040Y014501D01*
X008040Y014578D01*
X008077Y014666D01*
X008144Y014733D01*
X008294Y014883D01*
X008382Y014920D01*
X008424Y014920D01*
X008434Y014930D01*
X008380Y014984D01*
X008380Y015141D01*
X008294Y015227D01*
X008227Y015294D01*
X008190Y015382D01*
X008190Y015594D01*
X008120Y015664D01*
X008120Y016096D01*
X008210Y016186D01*
X008182Y016202D01*
X008152Y016232D01*
X008131Y016268D01*
X008120Y016309D01*
X008120Y016480D01*
X008120Y016651D01*
X008131Y016692D01*
X008152Y016728D01*
X008182Y016758D01*
X008218Y016779D01*
X008259Y016790D01*
X008430Y016790D01*
X008430Y016480D01*
X008430Y016480D01*
X008430Y016790D01*
X008601Y016790D01*
X008642Y016779D01*
X008678Y016758D01*
X008708Y016728D01*
X008729Y016692D01*
X008739Y016654D01*
X008769Y016683D01*
X008857Y016720D01*
X008894Y016720D01*
X008964Y016790D01*
X009396Y016790D01*
X009466Y016720D01*
X012928Y016720D01*
X013016Y016683D01*
X013430Y016269D01*
X014044Y016883D01*
X014132Y016920D01*
X014782Y016920D01*
X014790Y016941D01*
X014919Y017070D01*
X015088Y017140D01*
X015271Y017140D01*
X015441Y017070D01*
X015511Y017000D01*
X015849Y017000D01*
X015919Y017070D01*
X016088Y017140D01*
X016271Y017140D01*
X016441Y017070D01*
X016511Y017000D01*
X016849Y017000D01*
X016919Y017070D01*
X017088Y017140D01*
X017271Y017140D01*
X017441Y017070D01*
X017511Y017000D01*
X017849Y017000D01*
X017919Y017070D01*
X018088Y017140D01*
X018271Y017140D01*
X018441Y017070D01*
X018511Y017000D01*
X018849Y017000D01*
X018919Y017070D01*
X019088Y017140D01*
X019271Y017140D01*
X019441Y017070D01*
X019511Y017000D01*
X019849Y017000D01*
X019919Y017070D01*
X020088Y017140D01*
X020271Y017140D01*
X020441Y017070D01*
X020511Y017000D01*
X020849Y017000D01*
X020919Y017070D01*
X021088Y017140D01*
X021271Y017140D01*
X021441Y017070D01*
X021511Y017000D01*
X021720Y017000D01*
X021720Y017046D01*
X021814Y017140D01*
X022400Y017140D01*
X022400Y020180D01*
X022391Y020293D01*
X022322Y020507D01*
X022189Y020689D01*
X022007Y020822D01*
X021793Y020891D01*
X021680Y020900D01*
X001206Y020900D01*
X001106Y020879D01*
X000894Y020789D01*
X000711Y020649D01*
X000571Y020466D01*
X000481Y020254D01*
X000460Y020154D01*
X000460Y001206D01*
X000481Y001106D01*
X000571Y000894D01*
X000537Y000973D02*
X000770Y000973D01*
X000770Y000909D02*
X000781Y000868D01*
X000802Y000832D01*
X000832Y000802D01*
X000868Y000781D01*
X000909Y000770D01*
X001080Y000770D01*
X001251Y000770D01*
X001292Y000781D01*
X001328Y000802D01*
X001358Y000832D01*
X001379Y000868D01*
X001390Y000909D01*
X001390Y001330D01*
X001390Y001751D01*
X001379Y001792D01*
X001358Y001828D01*
X001328Y001858D01*
X001292Y001879D01*
X001251Y001890D01*
X001080Y001890D01*
X001080Y001330D01*
X001080Y001330D01*
X001390Y001330D01*
X001080Y001330D01*
X001080Y001330D01*
X001080Y001330D01*
X000770Y001330D01*
X000770Y001751D01*
X000781Y001792D01*
X000802Y001828D01*
X000832Y001858D01*
X000868Y001879D01*
X000909Y001890D01*
X001080Y001890D01*
X001080Y001330D01*
X001080Y000770D01*
X001080Y001330D01*
X001080Y001330D01*
X000770Y001330D01*
X000770Y000909D01*
X000820Y000814D02*
X000632Y000814D01*
X000784Y000656D02*
X003793Y000656D01*
X003760Y000814D02*
X002840Y000814D01*
X002890Y000973D02*
X003120Y000973D01*
X003120Y000959D02*
X003131Y000918D01*
X003152Y000882D01*
X003182Y000852D01*
X003218Y000831D01*
X003259Y000820D01*
X003430Y000820D01*
X003430Y001130D01*
X003120Y001130D01*
X003120Y000959D01*
X003120Y001131D02*
X002890Y001131D01*
X002890Y001290D02*
X003120Y001290D01*
X003186Y001448D02*
X002890Y001448D01*
X002890Y001607D02*
X003120Y001607D01*
X003120Y001765D02*
X002890Y001765D01*
X002820Y001924D02*
X003120Y001924D01*
X003190Y002082D02*
X002820Y002082D01*
X002820Y002241D02*
X003190Y002241D01*
X003190Y002399D02*
X002820Y002399D01*
X002820Y002558D02*
X003114Y002558D01*
X003091Y002716D02*
X002820Y002716D01*
X002820Y002875D02*
X003145Y002875D01*
X003430Y002680D02*
X003430Y001730D01*
X003670Y002082D02*
X005439Y002082D01*
X005484Y001924D02*
X005597Y001924D01*
X005490Y001765D02*
X005756Y001765D01*
X005914Y001607D02*
X005490Y001607D01*
X005421Y001448D02*
X006073Y001448D01*
X006231Y001290D02*
X005490Y001290D01*
X005490Y001131D02*
X006390Y001131D01*
X006554Y000973D02*
X005490Y000973D01*
X005180Y001130D02*
X004480Y001130D01*
X004724Y001448D02*
X004939Y001448D01*
X004870Y001607D02*
X004790Y001607D01*
X004790Y001765D02*
X004870Y001765D01*
X004876Y001924D02*
X004790Y001924D01*
X005180Y001924D02*
X005180Y001924D01*
X005180Y001765D02*
X005180Y001765D01*
X005280Y002241D02*
X003670Y002241D01*
X003670Y002399D02*
X005122Y002399D01*
X004963Y002558D02*
X003746Y002558D01*
X003769Y002716D02*
X004805Y002716D01*
X004646Y002875D02*
X003715Y002875D01*
X004329Y003192D02*
X002890Y003192D01*
X002859Y003033D02*
X004488Y003033D01*
X004849Y003350D02*
X006020Y003350D01*
X005990Y003192D02*
X005008Y003192D01*
X005166Y003033D02*
X005990Y003033D01*
X005853Y002875D02*
X005325Y002875D01*
X005483Y002716D02*
X005772Y002716D01*
X005755Y002558D02*
X005642Y002558D01*
X006065Y002134D02*
X006136Y002105D01*
X006324Y002105D01*
X006499Y002177D01*
X006633Y002311D01*
X006705Y002486D01*
X006705Y002674D01*
X006633Y002849D01*
X006499Y002983D01*
X006470Y002995D01*
X006470Y003131D01*
X006833Y003494D01*
X006870Y003582D01*
X006870Y004519D01*
X006936Y004585D01*
X006952Y004557D01*
X006982Y004527D01*
X007018Y004506D01*
X007059Y004495D01*
X007230Y004495D01*
X007401Y004495D01*
X007442Y004506D01*
X007478Y004527D01*
X007508Y004557D01*
X007529Y004593D01*
X007540Y004634D01*
X007540Y004805D01*
X007540Y004976D01*
X007529Y005017D01*
X007508Y005053D01*
X007478Y005083D01*
X007442Y005104D01*
X007401Y005115D01*
X007230Y005115D01*
X007230Y004805D01*
X007230Y004805D01*
X007540Y004805D01*
X007230Y004805D01*
X007230Y004805D01*
X007230Y005115D01*
X007059Y005115D01*
X007018Y005104D01*
X006982Y005083D01*
X006952Y005053D01*
X006936Y005025D01*
X006846Y005115D01*
X006414Y005115D01*
X006344Y005045D01*
X005504Y005045D01*
X004920Y005629D01*
X004920Y005711D01*
X004988Y005643D01*
X005113Y005591D01*
X005247Y005591D01*
X005293Y005610D01*
X005550Y005610D01*
X005550Y005332D01*
X005643Y005239D01*
X006484Y005239D01*
X006578Y005332D01*
X006578Y006528D01*
X006484Y006621D01*
X005820Y006621D01*
X005872Y006643D01*
X005967Y006738D01*
X006019Y006863D01*
X006019Y006929D01*
X006375Y007286D01*
X006763Y007286D01*
X006857Y007379D01*
X006857Y007655D01*
X006873Y007627D01*
X006903Y007597D01*
X006940Y007576D01*
X006980Y007565D01*
X007500Y007565D01*
X007500Y008350D01*
X007660Y008350D01*
X007660Y007565D01*
X008180Y007565D01*
X008220Y007576D01*
X008257Y007597D01*
X008287Y007627D01*
X008303Y007655D01*
X008303Y007534D01*
X008303Y007425D01*
X008314Y007384D01*
X008335Y007348D01*
X008365Y007318D01*
X008401Y007297D01*
X008442Y007286D01*
X008670Y007286D01*
X008897Y007286D01*
X008938Y007297D01*
X008975Y007318D01*
X009004Y007348D01*
X009025Y007384D01*
X009036Y007425D01*
X009036Y007534D01*
X008670Y007534D01*
X008670Y007534D01*
X008670Y007286D01*
X008670Y007534D01*
X008670Y007534D01*
X009036Y007534D01*
X009036Y007550D01*
X009538Y007550D01*
X009626Y007587D01*
X009824Y007784D01*
X009843Y007738D01*
X009877Y007704D01*
X009870Y007696D01*
X009870Y007264D01*
X009954Y007180D01*
X009870Y007096D01*
X009870Y006664D01*
X009964Y006570D01*
X010396Y006570D01*
X010466Y006640D01*
X010644Y006640D01*
X010690Y006594D01*
X010690Y003882D01*
X010727Y003794D01*
X011229Y003292D01*
X011220Y003271D01*
X011220Y003088D01*
X011290Y002919D01*
X011419Y002790D01*
X011588Y002720D01*
X011771Y002720D01*
X011941Y002790D01*
X012070Y002919D01*
X012140Y003088D01*
X012140Y003271D01*
X012070Y003441D01*
X011941Y003570D01*
X011771Y003640D01*
X011588Y003640D01*
X011568Y003631D01*
X011170Y004029D01*
X011170Y006594D01*
X011240Y006664D01*
X011240Y007096D01*
X011156Y007180D01*
X011240Y007264D01*
X011240Y007401D01*
X011370Y007531D01*
X011370Y007264D01*
X011460Y007174D01*
X011432Y007158D01*
X011402Y007128D01*
X011381Y007092D01*
X011370Y007051D01*
X011370Y006880D01*
X011680Y006880D01*
X011990Y006880D01*
X011990Y007051D01*
X011979Y007092D01*
X011958Y007128D01*
X011928Y007158D01*
X011900Y007174D01*
X011966Y007240D01*
X012528Y007240D01*
X012616Y007277D01*
X013031Y007691D01*
X013097Y007691D01*
X013222Y007743D01*
X013317Y007838D01*
X013320Y007845D01*
X013320Y007714D01*
X013390Y007644D01*
X013390Y007466D01*
X013320Y007396D01*
X013320Y006964D01*
X013414Y006870D01*
X013742Y006870D01*
X013691Y006747D01*
X013691Y006613D01*
X013742Y006490D01*
X013630Y006490D01*
X013630Y006180D01*
X013630Y006180D01*
X013630Y005870D01*
X013801Y005870D01*
X013842Y005881D01*
X013878Y005902D01*
X013908Y005932D01*
X013924Y005960D01*
X014014Y005870D01*
X014446Y005870D01*
X014540Y005964D01*
X014540Y006396D01*
X014470Y006466D01*
X014470Y006528D01*
X014433Y006616D01*
X014369Y006680D01*
X014433Y006744D01*
X014470Y006832D01*
X014470Y006894D01*
X014540Y006964D01*
X014540Y007396D01*
X014446Y007490D01*
X014014Y007490D01*
X013930Y007406D01*
X013870Y007466D01*
X013870Y007644D01*
X013930Y007704D01*
X014014Y007620D01*
X014446Y007620D01*
X014516Y007690D01*
X014720Y007690D01*
X014720Y007588D01*
X014790Y007419D01*
X014919Y007290D01*
X015088Y007220D01*
X015271Y007220D01*
X015441Y007290D01*
X015570Y007419D01*
X015640Y007588D01*
X015640Y007771D01*
X015570Y007941D01*
X015441Y008070D01*
X015271Y008140D01*
X015088Y008140D01*
X015068Y008131D01*
X015066Y008133D01*
X014978Y008170D01*
X014516Y008170D01*
X014446Y008240D01*
X014014Y008240D01*
X013930Y008156D01*
X013870Y008216D01*
X013870Y008394D01*
X013936Y008460D01*
X013952Y008432D01*
X013982Y008402D01*
X014018Y008381D01*
X014059Y008370D01*
X014230Y008370D01*
X014401Y008370D01*
X014442Y008381D01*
X014478Y008402D01*
X014508Y008432D01*
X014529Y008468D01*
X014540Y008509D01*
X014540Y008680D01*
X014540Y008851D01*
X014529Y008892D01*
X014508Y008928D01*
X014478Y008958D01*
X014442Y008979D01*
X014401Y008990D01*
X014230Y008990D01*
X014230Y008680D01*
X014230Y008680D01*
X014540Y008680D01*
X014230Y008680D01*
X014230Y008680D01*
X014230Y008990D01*
X014059Y008990D01*
X014018Y008979D01*
X013982Y008958D01*
X013952Y008928D01*
X013936Y008900D01*
X013846Y008990D01*
X013414Y008990D01*
X013320Y008896D01*
X013320Y008464D01*
X013390Y008394D01*
X013390Y008216D01*
X013340Y008166D01*
X013317Y008222D01*
X013222Y008317D01*
X013097Y008369D01*
X012963Y008369D01*
X012904Y008345D01*
X012920Y008382D01*
X012920Y010228D01*
X012883Y010316D01*
X012631Y010568D01*
X012640Y010588D01*
X012640Y010771D01*
X012570Y010941D01*
X012441Y011070D01*
X012271Y011140D01*
X012088Y011140D01*
X011920Y011070D01*
X011920Y011081D01*
X012068Y011229D01*
X012088Y011220D01*
X012271Y011220D01*
X012441Y011290D01*
X012570Y011419D01*
X012640Y011588D01*
X012640Y011771D01*
X012570Y011940D01*
X012978Y011940D01*
X013066Y011977D01*
X013133Y012044D01*
X013179Y012090D01*
X013320Y012090D01*
X013320Y011930D01*
X013630Y011930D01*
X013630Y011620D01*
X013801Y011620D01*
X013842Y011631D01*
X013878Y011652D01*
X013908Y011682D01*
X013924Y011710D01*
X013990Y011644D01*
X013990Y011466D01*
X013930Y011406D01*
X013846Y011490D01*
X013414Y011490D01*
X013320Y011396D01*
X013320Y010964D01*
X013390Y010894D01*
X013390Y010716D01*
X013320Y010646D01*
X013320Y010214D01*
X013390Y010144D01*
X013390Y009716D01*
X013320Y009646D01*
X013320Y009214D01*
X013414Y009120D01*
X013846Y009120D01*
X013930Y009204D01*
X014014Y009120D01*
X014401Y009120D01*
X014729Y008792D01*
X014720Y008771D01*
X014720Y008588D01*
X014790Y008419D01*
X014919Y008290D01*
X015088Y008220D01*
X015271Y008220D01*
X015441Y008290D01*
X015570Y008419D01*
X015640Y008588D01*
X015640Y008771D01*
X015570Y008941D01*
X015441Y009070D01*
X015271Y009140D01*
X015088Y009140D01*
X015068Y009131D01*
X014566Y009633D01*
X014540Y009644D01*
X014540Y009646D01*
X014446Y009740D01*
X014014Y009740D01*
X013930Y009656D01*
X013870Y009716D01*
X013870Y010144D01*
X013936Y010210D01*
X013952Y010182D01*
X013982Y010152D01*
X014018Y010131D01*
X014059Y010120D01*
X014230Y010120D01*
X014401Y010120D01*
X014442Y010131D01*
X014478Y010152D01*
X014508Y010182D01*
X014529Y010218D01*
X014540Y010259D01*
X014540Y010430D01*
X014540Y010601D01*
X014529Y010642D01*
X014508Y010678D01*
X014478Y010708D01*
X014442Y010729D01*
X014401Y010740D01*
X014230Y010740D01*
X014230Y010430D01*
X014230Y010430D01*
X014540Y010430D01*
X014230Y010430D01*
X014230Y010430D01*
X014230Y010740D01*
X014059Y010740D01*
X014018Y010729D01*
X013982Y010708D01*
X013952Y010678D01*
X013936Y010650D01*
X013870Y010716D01*
X013870Y010894D01*
X013930Y010954D01*
X014014Y010870D01*
X014446Y010870D01*
X014540Y010964D01*
X014540Y011396D01*
X014470Y011466D01*
X014470Y011644D01*
X014540Y011714D01*
X014540Y012146D01*
X014446Y012240D01*
X014209Y012240D01*
X014079Y012370D01*
X014230Y012370D01*
X014401Y012370D01*
X014442Y012381D01*
X014460Y012391D01*
X014460Y012339D01*
X014824Y011975D01*
X014790Y011941D01*
X014720Y011771D01*
X014720Y011588D01*
X014790Y011419D01*
X014919Y011290D01*
X015088Y011220D01*
X015271Y011220D01*
X015441Y011290D01*
X015570Y011419D01*
X015640Y011588D01*
X015640Y011771D01*
X015570Y011941D01*
X015441Y012070D01*
X015288Y012133D01*
X015271Y012150D01*
X015201Y012220D01*
X015271Y012220D01*
X015441Y012290D01*
X015570Y012419D01*
X015640Y012588D01*
X015640Y012771D01*
X015570Y012941D01*
X015441Y013070D01*
X015271Y013140D01*
X015088Y013140D01*
X014919Y013070D01*
X014900Y013051D01*
X014900Y013271D01*
X014771Y013400D01*
X014400Y013771D01*
X014400Y013771D01*
X014271Y013900D01*
X013589Y013900D01*
X013371Y013682D01*
X013394Y013738D01*
X013394Y013872D01*
X013342Y013997D01*
X013295Y014044D01*
X013295Y014119D01*
X013363Y014091D01*
X013497Y014091D01*
X013622Y014143D01*
X013717Y014238D01*
X013769Y014363D01*
X013769Y014497D01*
X013717Y014622D01*
X013708Y014631D01*
X013740Y014664D01*
X013740Y015096D01*
X013656Y015180D01*
X013740Y015264D01*
X013740Y015696D01*
X013670Y015766D01*
X013670Y015831D01*
X014279Y016440D01*
X014782Y016440D01*
X014790Y016419D01*
X014919Y016290D01*
X015088Y016220D01*
X015271Y016220D01*
X015441Y016290D01*
X015511Y016360D01*
X015849Y016360D01*
X015919Y016290D01*
X016088Y016220D01*
X016271Y016220D01*
X016441Y016290D01*
X016511Y016360D01*
X016849Y016360D01*
X016919Y016290D01*
X017088Y016220D01*
X017271Y016220D01*
X017441Y016290D01*
X017511Y016360D01*
X017849Y016360D01*
X017919Y016290D01*
X018088Y016220D01*
X018271Y016220D01*
X018441Y016290D01*
X018511Y016360D01*
X018849Y016360D01*
X018919Y016290D01*
X019088Y016220D01*
X019271Y016220D01*
X019441Y016290D01*
X019511Y016360D01*
X019849Y016360D01*
X019919Y016290D01*
X020088Y016220D01*
X020271Y016220D01*
X020441Y016290D01*
X020511Y016360D01*
X020849Y016360D01*
X020919Y016290D01*
X021088Y016220D01*
X021271Y016220D01*
X021441Y016290D01*
X021511Y016360D01*
X021720Y016360D01*
X021720Y016314D01*
X021814Y016220D01*
X022400Y016220D01*
X022400Y016124D01*
X022419Y016079D01*
X022271Y016140D01*
X022088Y016140D01*
X021919Y016070D01*
X021790Y015941D01*
X021720Y015771D01*
X021720Y015588D01*
X021790Y015419D01*
X021919Y015290D01*
X022088Y015220D01*
X022271Y015220D01*
X022441Y015290D01*
X022570Y015419D01*
X022640Y015588D01*
X022640Y015771D01*
X022603Y015861D01*
X023400Y015064D01*
X023400Y002296D01*
X022443Y001339D01*
X022400Y001236D01*
X022400Y001180D01*
X022391Y001067D01*
X022322Y000853D01*
X022189Y000671D01*
X022007Y000538D01*
X021793Y000469D01*
X021680Y000460D01*
X011671Y000460D01*
X011700Y000489D01*
X011771Y000560D01*
X011900Y000689D01*
X011900Y000773D01*
X011941Y000790D01*
X012070Y000919D01*
X012140Y001088D01*
X012140Y001271D01*
X012070Y001441D01*
X011941Y001570D01*
X011771Y001640D01*
X011588Y001640D01*
X011419Y001570D01*
X011290Y001441D01*
X011220Y001271D01*
X011220Y001088D01*
X011290Y000919D01*
X011399Y000810D01*
X011389Y000800D01*
X010951Y000800D01*
X011070Y000919D01*
X011140Y001088D01*
X011140Y001271D01*
X011070Y001441D01*
X010941Y001570D01*
X010771Y001640D01*
X010588Y001640D01*
X010419Y001570D01*
X010290Y001441D01*
X010220Y001271D01*
X010220Y001088D01*
X010290Y000919D01*
X010409Y000800D01*
X009951Y000800D01*
X010070Y000919D01*
X010140Y001088D01*
X010140Y001271D01*
X010070Y001441D01*
X009941Y001570D01*
X009771Y001640D01*
X009588Y001640D01*
X009419Y001570D01*
X009290Y001441D01*
X009282Y001420D01*
X006779Y001420D01*
X006065Y002134D01*
X006117Y002082D02*
X023186Y002082D01*
X023028Y001924D02*
X006276Y001924D01*
X006434Y001765D02*
X022869Y001765D01*
X022711Y001607D02*
X021852Y001607D01*
X021771Y001640D02*
X021588Y001640D01*
X021419Y001570D01*
X021290Y001441D01*
X021220Y001271D01*
X021220Y001088D01*
X021290Y000919D01*
X021419Y000790D01*
X021588Y000720D01*
X021771Y000720D01*
X021941Y000790D01*
X022070Y000919D01*
X022140Y001088D01*
X022140Y001271D01*
X022070Y001441D01*
X021941Y001570D01*
X021771Y001640D01*
X021508Y001607D02*
X020852Y001607D01*
X020771Y001640D02*
X020588Y001640D01*
X020419Y001570D01*
X020290Y001441D01*
X020220Y001271D01*
X020220Y001088D01*
X020290Y000919D01*
X020419Y000790D01*
X020588Y000720D01*
X020771Y000720D01*
X020941Y000790D01*
X021070Y000919D01*
X021140Y001088D01*
X021140Y001271D01*
X021070Y001441D01*
X020941Y001570D01*
X020771Y001640D01*
X021063Y001448D02*
X021297Y001448D01*
X021227Y001290D02*
X021133Y001290D01*
X021140Y001131D02*
X021220Y001131D01*
X021268Y000973D02*
X021092Y000973D01*
X020965Y000814D02*
X021395Y000814D01*
X021879Y000497D02*
X011708Y000497D01*
X011867Y000656D02*
X022168Y000656D01*
X022293Y000814D02*
X021965Y000814D01*
X022092Y000973D02*
X022360Y000973D01*
X022396Y001131D02*
X022140Y001131D01*
X022133Y001290D02*
X022422Y001290D01*
X022552Y001448D02*
X022063Y001448D01*
X023345Y002241D02*
X007962Y002241D01*
X007827Y002105D02*
X008105Y002383D01*
X008105Y002580D01*
X008105Y002777D01*
X007827Y003055D01*
X007630Y003055D01*
X007630Y002580D01*
X008105Y002580D01*
X007630Y002580D01*
X007630Y002580D01*
X007630Y002580D01*
X007630Y002105D01*
X007827Y002105D01*
X007630Y002105D02*
X007630Y002580D01*
X007630Y002580D01*
X007630Y002580D01*
X007155Y002580D01*
X007155Y002777D01*
X007433Y003055D01*
X007630Y003055D01*
X007630Y002580D01*
X007155Y002580D01*
X007155Y002383D01*
X007433Y002105D01*
X007630Y002105D01*
X007630Y002241D02*
X007630Y002241D01*
X007630Y002399D02*
X007630Y002399D01*
X007630Y002558D02*
X007630Y002558D01*
X007630Y002716D02*
X007630Y002716D01*
X007630Y002875D02*
X007630Y002875D01*
X007630Y003033D02*
X007630Y003033D01*
X007849Y003033D02*
X009243Y003033D01*
X009220Y003088D02*
X009290Y002919D01*
X009419Y002790D01*
X009588Y002720D01*
X009771Y002720D01*
X009941Y002790D01*
X010070Y002919D01*
X010140Y003088D01*
X010140Y003271D01*
X010070Y003441D01*
X009941Y003570D01*
X009771Y003640D01*
X009588Y003640D01*
X009419Y003570D01*
X009290Y003441D01*
X009220Y003271D01*
X009220Y003088D01*
X009220Y003192D02*
X006531Y003192D01*
X006470Y003033D02*
X007411Y003033D01*
X007253Y002875D02*
X006607Y002875D01*
X006688Y002716D02*
X007155Y002716D01*
X007155Y002558D02*
X006705Y002558D01*
X006669Y002399D02*
X007155Y002399D01*
X007298Y002241D02*
X006562Y002241D01*
X006230Y002580D02*
X006230Y003230D01*
X006630Y003630D01*
X006630Y004805D01*
X005405Y004805D01*
X004680Y005530D01*
X004680Y005930D01*
X005680Y006930D01*
X006284Y007534D01*
X006490Y007534D01*
X006490Y007790D02*
X005790Y007790D01*
X003430Y005430D01*
X004184Y005728D02*
X004440Y005728D01*
X004440Y005886D02*
X004225Y005886D01*
X004384Y006045D02*
X004468Y006045D01*
X004542Y006203D02*
X004614Y006203D01*
X004701Y006362D02*
X004772Y006362D01*
X004859Y006520D02*
X004931Y006520D01*
X005018Y006679D02*
X005089Y006679D01*
X005176Y006837D02*
X005248Y006837D01*
X005335Y006996D02*
X005341Y006996D01*
X004973Y007313D02*
X004240Y007313D01*
X004240Y007471D02*
X004660Y007471D01*
X004591Y007630D02*
X004224Y007630D01*
X004158Y007788D02*
X004608Y007788D01*
X004717Y007947D02*
X004286Y007947D01*
X004302Y008302D02*
X003430Y007430D01*
X003983Y006837D02*
X004498Y006837D01*
X004656Y006996D02*
X004127Y006996D01*
X004192Y007154D02*
X004815Y007154D01*
X004930Y007680D02*
X005296Y008046D01*
X006490Y008046D01*
X006490Y008302D02*
X004302Y008302D01*
X004083Y008422D02*
X000460Y008422D01*
X000460Y008264D02*
X003924Y008264D01*
X003940Y008581D02*
X000460Y008581D01*
X000460Y008739D02*
X002982Y008739D01*
X002817Y008898D02*
X000460Y008898D01*
X000460Y009056D02*
X002708Y009056D01*
X002643Y009215D02*
X000460Y009215D01*
X000460Y009373D02*
X002620Y009373D01*
X002620Y009532D02*
X000460Y009532D01*
X000460Y009690D02*
X002661Y009690D01*
X002727Y009849D02*
X000460Y009849D01*
X000460Y010007D02*
X002862Y010007D01*
X003089Y010166D02*
X000460Y010166D01*
X000460Y010324D02*
X004197Y010324D01*
X004355Y010166D02*
X003771Y010166D01*
X003998Y010007D02*
X004514Y010007D01*
X004672Y009849D02*
X004133Y009849D01*
X004199Y009690D02*
X004831Y009690D01*
X004989Y009532D02*
X004240Y009532D01*
X004240Y009373D02*
X004644Y009373D01*
X004591Y009215D02*
X004217Y009215D01*
X004152Y009056D02*
X004615Y009056D01*
X004733Y008898D02*
X004302Y008898D01*
X004302Y008558D02*
X003430Y009430D01*
X004302Y008558D02*
X006490Y008558D01*
X006490Y008814D02*
X005296Y008814D01*
X004930Y009180D01*
X005790Y009070D02*
X003430Y011430D01*
X004240Y011434D02*
X005800Y011434D01*
X005800Y011275D02*
X004240Y011275D01*
X004177Y011117D02*
X005800Y011117D01*
X005864Y011592D02*
X004240Y011592D01*
X004174Y011751D02*
X007038Y011751D01*
X007261Y011592D02*
X006764Y011592D01*
X006828Y011434D02*
X007532Y011434D01*
X007532Y011275D02*
X006828Y011275D01*
X006828Y011117D02*
X007532Y011117D01*
X007532Y010800D02*
X006828Y010800D01*
X006828Y010958D02*
X007966Y010958D01*
X007966Y010800D02*
X008126Y010800D01*
X008126Y010641D02*
X007966Y010641D01*
X007966Y010483D02*
X008126Y010483D01*
X008126Y010324D02*
X007966Y010324D01*
X008230Y010166D02*
X005924Y010166D01*
X006015Y010007D02*
X008230Y010007D01*
X008230Y009849D02*
X006101Y009849D01*
X006259Y009690D02*
X008287Y009690D01*
X008354Y009532D02*
X006806Y009532D01*
X006857Y009373D02*
X008303Y009373D01*
X008297Y009215D02*
X008303Y009215D01*
X007660Y009215D02*
X007500Y009215D01*
X007500Y009056D02*
X007660Y009056D01*
X007660Y008898D02*
X007500Y008898D01*
X007500Y008739D02*
X007660Y008739D01*
X007660Y008581D02*
X007500Y008581D01*
X007500Y008264D02*
X007660Y008264D01*
X007660Y008105D02*
X007500Y008105D01*
X007500Y007947D02*
X007660Y007947D01*
X007660Y007788D02*
X007500Y007788D01*
X007500Y007630D02*
X007660Y007630D01*
X008288Y007630D02*
X008303Y007630D01*
X008303Y007534D02*
X008670Y007534D01*
X008303Y007534D01*
X008303Y007471D02*
X006857Y007471D01*
X006857Y007630D02*
X006872Y007630D01*
X006790Y007313D02*
X008374Y007313D01*
X008670Y007313D02*
X008670Y007313D01*
X008670Y007471D02*
X008670Y007471D01*
X008670Y007534D02*
X008670Y007534D01*
X008670Y007790D02*
X009490Y007790D01*
X009830Y008130D01*
X009830Y009330D01*
X010180Y009680D01*
X011180Y009680D01*
X012180Y009680D01*
X012680Y010180D02*
X012180Y010680D01*
X012640Y010641D02*
X013320Y010641D01*
X013320Y010483D02*
X012717Y010483D01*
X012875Y010324D02*
X013320Y010324D01*
X013368Y010166D02*
X012920Y010166D01*
X012920Y010007D02*
X013390Y010007D01*
X013390Y009849D02*
X012920Y009849D01*
X012920Y009690D02*
X013364Y009690D01*
X013320Y009532D02*
X012920Y009532D01*
X012920Y009373D02*
X013320Y009373D01*
X013320Y009215D02*
X012920Y009215D01*
X012920Y009056D02*
X014465Y009056D01*
X014526Y008898D02*
X014623Y008898D01*
X014540Y008739D02*
X014720Y008739D01*
X014723Y008581D02*
X014540Y008581D01*
X014498Y008422D02*
X014789Y008422D01*
X014983Y008264D02*
X013870Y008264D01*
X013898Y008422D02*
X013962Y008422D01*
X014230Y008422D02*
X014230Y008422D01*
X014230Y008370D02*
X014230Y008680D01*
X014230Y008680D01*
X014230Y008370D01*
X014230Y008581D02*
X014230Y008581D01*
X014230Y008739D02*
X014230Y008739D01*
X014230Y008898D02*
X014230Y008898D01*
X013630Y008680D02*
X013630Y007930D01*
X013630Y007180D01*
X013728Y006837D02*
X011990Y006837D01*
X011990Y006880D02*
X011680Y006880D01*
X011680Y006880D01*
X011680Y006570D01*
X011851Y006570D01*
X011892Y006581D01*
X011928Y006602D01*
X011958Y006632D01*
X011979Y006668D01*
X011990Y006709D01*
X011990Y006880D01*
X011990Y006996D02*
X013320Y006996D01*
X013320Y007154D02*
X011932Y007154D01*
X011680Y006880D02*
X011680Y006880D01*
X011680Y006880D01*
X011680Y006570D01*
X011509Y006570D01*
X011468Y006581D01*
X011432Y006602D01*
X011402Y006632D01*
X011381Y006668D01*
X011370Y006709D01*
X011370Y006880D01*
X011680Y006880D01*
X011680Y006837D02*
X011680Y006837D01*
X011680Y006679D02*
X011680Y006679D01*
X011378Y006679D02*
X011240Y006679D01*
X011240Y006837D02*
X011370Y006837D01*
X011370Y006996D02*
X011240Y006996D01*
X011182Y007154D02*
X011428Y007154D01*
X011370Y007313D02*
X011240Y007313D01*
X011310Y007471D02*
X011370Y007471D01*
X011680Y007480D02*
X012480Y007480D01*
X013030Y008030D01*
X013267Y007788D02*
X013320Y007788D01*
X013390Y007630D02*
X012969Y007630D01*
X012810Y007471D02*
X013390Y007471D01*
X013320Y007313D02*
X012652Y007313D01*
X012180Y007930D02*
X012680Y008430D01*
X012680Y010180D01*
X012628Y010800D02*
X013390Y010800D01*
X013326Y010958D02*
X012553Y010958D01*
X012328Y011117D02*
X013320Y011117D01*
X013320Y011275D02*
X012404Y011275D01*
X012576Y011434D02*
X013357Y011434D01*
X013418Y011631D02*
X013459Y011620D01*
X013630Y011620D01*
X013630Y011930D01*
X013630Y011930D01*
X013630Y011930D01*
X013320Y011930D01*
X013320Y011759D01*
X013331Y011718D01*
X013352Y011682D01*
X013382Y011652D01*
X013418Y011631D01*
X013322Y011751D02*
X012640Y011751D01*
X012640Y011592D02*
X013990Y011592D01*
X013957Y011434D02*
X013903Y011434D01*
X013630Y011180D02*
X013630Y010430D01*
X013630Y009430D01*
X013896Y009690D02*
X013964Y009690D01*
X013870Y009849D02*
X014752Y009849D01*
X014720Y009771D02*
X014790Y009941D01*
X014919Y010070D01*
X015088Y010140D01*
X015271Y010140D01*
X015441Y010070D01*
X015570Y009941D01*
X015640Y009771D01*
X015640Y009588D01*
X015570Y009419D01*
X015441Y009290D01*
X015271Y009220D01*
X015088Y009220D01*
X014919Y009290D01*
X014790Y009419D01*
X014720Y009588D01*
X014720Y009771D01*
X014720Y009690D02*
X014496Y009690D01*
X014668Y009532D02*
X014744Y009532D01*
X014826Y009373D02*
X014836Y009373D01*
X014985Y009215D02*
X023400Y009215D01*
X023400Y009373D02*
X022524Y009373D01*
X022570Y009419D02*
X022441Y009290D01*
X022271Y009220D01*
X022088Y009220D01*
X021919Y009290D01*
X021790Y009419D01*
X021720Y009588D01*
X021720Y009771D01*
X021790Y009941D01*
X021919Y010070D01*
X022088Y010140D01*
X022271Y010140D01*
X022441Y010070D01*
X022570Y009941D01*
X022640Y009771D01*
X022640Y009588D01*
X022570Y009419D01*
X022616Y009532D02*
X023400Y009532D01*
X023400Y009690D02*
X022640Y009690D01*
X022608Y009849D02*
X023400Y009849D01*
X023400Y010007D02*
X022504Y010007D01*
X022441Y010290D02*
X022271Y010220D01*
X022088Y010220D01*
X021919Y010290D01*
X021790Y010419D01*
X021720Y010588D01*
X021720Y010771D01*
X021790Y010941D01*
X021919Y011070D01*
X022088Y011140D01*
X022271Y011140D01*
X022441Y011070D01*
X022570Y010941D01*
X022640Y010771D01*
X022640Y010588D01*
X022570Y010419D01*
X022441Y010290D01*
X022475Y010324D02*
X023400Y010324D01*
X023400Y010166D02*
X014492Y010166D01*
X014540Y010324D02*
X014885Y010324D01*
X014919Y010290D02*
X015088Y010220D01*
X015271Y010220D01*
X015441Y010290D01*
X015570Y010419D01*
X015640Y010588D01*
X015640Y010771D01*
X015570Y010941D01*
X015441Y011070D01*
X015271Y011140D01*
X015088Y011140D01*
X014919Y011070D01*
X014790Y010941D01*
X014720Y010771D01*
X014720Y010588D01*
X014790Y010419D01*
X014919Y010290D01*
X014764Y010483D02*
X014540Y010483D01*
X014529Y010641D02*
X014720Y010641D01*
X014732Y010800D02*
X013870Y010800D01*
X014230Y010641D02*
X014230Y010641D01*
X014230Y010483D02*
X014230Y010483D01*
X014230Y010430D02*
X014230Y010120D01*
X014230Y010430D01*
X014230Y010430D01*
X014230Y010324D02*
X014230Y010324D01*
X014230Y010166D02*
X014230Y010166D01*
X013968Y010166D02*
X013892Y010166D01*
X013870Y010007D02*
X014856Y010007D01*
X015504Y010007D02*
X017856Y010007D01*
X017919Y010070D02*
X017790Y009941D01*
X017720Y009771D01*
X017720Y009588D01*
X017790Y009419D01*
X017919Y009290D01*
X018088Y009220D01*
X018271Y009220D01*
X018441Y009290D01*
X018570Y009419D01*
X018640Y009588D01*
X018640Y009771D01*
X018570Y009941D01*
X018441Y010070D01*
X018271Y010140D01*
X018088Y010140D01*
X017919Y010070D01*
X017919Y010290D02*
X018088Y010220D01*
X018271Y010220D01*
X018441Y010290D01*
X018570Y010419D01*
X018640Y010588D01*
X018640Y010771D01*
X018570Y010941D01*
X018441Y011070D01*
X018271Y011140D01*
X018088Y011140D01*
X017919Y011070D01*
X017790Y010941D01*
X017720Y010771D01*
X017720Y010588D01*
X017790Y010419D01*
X017919Y010290D01*
X017885Y010324D02*
X015475Y010324D01*
X015596Y010483D02*
X017764Y010483D01*
X017720Y010641D02*
X015640Y010641D01*
X015628Y010800D02*
X017732Y010800D01*
X017807Y010958D02*
X015553Y010958D01*
X015328Y011117D02*
X018032Y011117D01*
X018088Y011220D02*
X018271Y011220D01*
X018441Y011290D01*
X018570Y011419D01*
X018640Y011588D01*
X018640Y011771D01*
X018570Y011941D01*
X018441Y012070D01*
X018271Y012140D01*
X018088Y012140D01*
X017919Y012070D01*
X017790Y011941D01*
X017720Y011771D01*
X017720Y011588D01*
X017790Y011419D01*
X017919Y011290D01*
X018088Y011220D01*
X017956Y011275D02*
X017404Y011275D01*
X017441Y011290D02*
X017271Y011220D01*
X017088Y011220D01*
X016919Y011290D01*
X016790Y011419D01*
X016720Y011588D01*
X016720Y011771D01*
X016790Y011941D01*
X016919Y012070D01*
X017088Y012140D01*
X017271Y012140D01*
X017441Y012070D01*
X017570Y011941D01*
X017640Y011771D01*
X017640Y011588D01*
X017570Y011419D01*
X017441Y011290D01*
X017576Y011434D02*
X017784Y011434D01*
X017720Y011592D02*
X017640Y011592D01*
X017640Y011751D02*
X017720Y011751D01*
X017777Y011909D02*
X017583Y011909D01*
X017443Y012068D02*
X017917Y012068D01*
X017919Y012290D02*
X018088Y012220D01*
X018271Y012220D01*
X018441Y012290D01*
X018570Y012419D01*
X018640Y012588D01*
X018640Y012771D01*
X018570Y012941D01*
X018441Y013070D01*
X018271Y013140D01*
X018088Y013140D01*
X017919Y013070D01*
X017790Y012941D01*
X017720Y012771D01*
X017720Y012588D01*
X017790Y012419D01*
X017919Y012290D01*
X017825Y012385D02*
X017535Y012385D01*
X017570Y012419D02*
X017441Y012290D01*
X017271Y012220D01*
X017088Y012220D01*
X016919Y012290D01*
X016790Y012419D01*
X016720Y012588D01*
X016720Y012771D01*
X016790Y012941D01*
X016919Y013070D01*
X017088Y013140D01*
X017271Y013140D01*
X017441Y013070D01*
X017570Y012941D01*
X017640Y012771D01*
X017640Y012588D01*
X017570Y012419D01*
X017621Y012543D02*
X017739Y012543D01*
X017720Y012702D02*
X017640Y012702D01*
X017603Y012860D02*
X017757Y012860D01*
X017868Y013019D02*
X017492Y013019D01*
X017441Y013290D02*
X017271Y013220D01*
X017088Y013220D01*
X016919Y013290D01*
X016790Y013419D01*
X016720Y013588D01*
X016720Y013771D01*
X016790Y013941D01*
X016919Y014070D01*
X017088Y014140D01*
X017271Y014140D01*
X017441Y014070D01*
X017570Y013941D01*
X017640Y013771D01*
X017640Y013588D01*
X017570Y013419D01*
X017441Y013290D01*
X017486Y013336D02*
X017874Y013336D01*
X017919Y013290D02*
X017790Y013419D01*
X017720Y013588D01*
X017720Y013771D01*
X017790Y013941D01*
X017919Y014070D01*
X018088Y014140D01*
X018271Y014140D01*
X018441Y014070D01*
X018570Y013941D01*
X018640Y013771D01*
X018640Y013588D01*
X018570Y013419D01*
X018441Y013290D01*
X018271Y013220D01*
X018088Y013220D01*
X017919Y013290D01*
X017759Y013494D02*
X017601Y013494D01*
X017640Y013653D02*
X017720Y013653D01*
X017736Y013811D02*
X017624Y013811D01*
X017541Y013970D02*
X017819Y013970D01*
X018060Y014128D02*
X017300Y014128D01*
X017271Y014220D02*
X017441Y014290D01*
X017570Y014419D01*
X017640Y014588D01*
X017640Y014771D01*
X017570Y014941D01*
X017441Y015070D01*
X017271Y015140D01*
X017088Y015140D01*
X016919Y015070D01*
X016790Y014941D01*
X016720Y014771D01*
X016720Y014588D01*
X016790Y014419D01*
X016919Y014290D01*
X017088Y014220D01*
X017271Y014220D01*
X017432Y014287D02*
X017928Y014287D01*
X017919Y014290D02*
X018088Y014220D01*
X018271Y014220D01*
X018441Y014290D01*
X018570Y014419D01*
X018640Y014588D01*
X018640Y014771D01*
X018570Y014941D01*
X018441Y015070D01*
X018271Y015140D01*
X018088Y015140D01*
X017919Y015070D01*
X017790Y014941D01*
X017720Y014771D01*
X017720Y014588D01*
X017790Y014419D01*
X017919Y014290D01*
X017779Y014445D02*
X017581Y014445D01*
X017640Y014604D02*
X017720Y014604D01*
X017720Y014762D02*
X017640Y014762D01*
X017578Y014921D02*
X017782Y014921D01*
X017941Y015079D02*
X017419Y015079D01*
X017314Y015238D02*
X018046Y015238D01*
X018088Y015220D02*
X018271Y015220D01*
X018441Y015290D01*
X018570Y015419D01*
X018640Y015588D01*
X018640Y015771D01*
X018570Y015941D01*
X018441Y016070D01*
X018271Y016140D01*
X018088Y016140D01*
X017919Y016070D01*
X017790Y015941D01*
X017720Y015771D01*
X017720Y015588D01*
X017790Y015419D01*
X017919Y015290D01*
X018088Y015220D01*
X018314Y015238D02*
X019046Y015238D01*
X019088Y015220D02*
X018919Y015290D01*
X018790Y015419D01*
X018720Y015588D01*
X018720Y015771D01*
X018790Y015941D01*
X018919Y016070D01*
X019088Y016140D01*
X019271Y016140D01*
X019441Y016070D01*
X019570Y015941D01*
X019640Y015771D01*
X019640Y015588D01*
X019570Y015419D01*
X019441Y015290D01*
X019271Y015220D01*
X019088Y015220D01*
X019088Y015140D02*
X018919Y015070D01*
X018790Y014941D01*
X018720Y014771D01*
X018720Y014588D01*
X018790Y014419D01*
X018919Y014290D01*
X019088Y014220D01*
X019271Y014220D01*
X019441Y014290D01*
X019570Y014419D01*
X019640Y014588D01*
X019640Y014771D01*
X019570Y014941D01*
X019441Y015070D01*
X019271Y015140D01*
X019088Y015140D01*
X018941Y015079D02*
X018419Y015079D01*
X018578Y014921D02*
X018782Y014921D01*
X018720Y014762D02*
X018640Y014762D01*
X018640Y014604D02*
X018720Y014604D01*
X018779Y014445D02*
X018581Y014445D01*
X018432Y014287D02*
X018928Y014287D01*
X019060Y014128D02*
X018300Y014128D01*
X018541Y013970D02*
X018819Y013970D01*
X018790Y013941D02*
X018720Y013771D01*
X018720Y013588D01*
X018790Y013419D01*
X018919Y013290D01*
X019088Y013220D01*
X019271Y013220D01*
X019441Y013290D01*
X019570Y013419D01*
X019640Y013588D01*
X019640Y013771D01*
X019570Y013941D01*
X019441Y014070D01*
X019271Y014140D01*
X019088Y014140D01*
X018919Y014070D01*
X018790Y013941D01*
X018736Y013811D02*
X018624Y013811D01*
X018640Y013653D02*
X018720Y013653D01*
X018759Y013494D02*
X018601Y013494D01*
X018486Y013336D02*
X018874Y013336D01*
X018919Y013070D02*
X018790Y012941D01*
X018720Y012771D01*
X018720Y012588D01*
X018790Y012419D01*
X018919Y012290D01*
X019088Y012220D01*
X019271Y012220D01*
X019441Y012290D01*
X019570Y012419D01*
X019640Y012588D01*
X019640Y012771D01*
X019570Y012941D01*
X019441Y013070D01*
X019271Y013140D01*
X019088Y013140D01*
X018919Y013070D01*
X018868Y013019D02*
X018492Y013019D01*
X018603Y012860D02*
X018757Y012860D01*
X018720Y012702D02*
X018640Y012702D01*
X018621Y012543D02*
X018739Y012543D01*
X018825Y012385D02*
X018535Y012385D01*
X018286Y012226D02*
X019074Y012226D01*
X019088Y012140D02*
X018919Y012070D01*
X018790Y011941D01*
X018720Y011771D01*
X018720Y011588D01*
X018790Y011419D01*
X018919Y011290D01*
X019088Y011220D01*
X019271Y011220D01*
X019441Y011290D01*
X019570Y011419D01*
X019640Y011588D01*
X019640Y011771D01*
X019570Y011941D01*
X019441Y012070D01*
X019271Y012140D01*
X019088Y012140D01*
X018917Y012068D02*
X018443Y012068D01*
X018583Y011909D02*
X018777Y011909D01*
X018720Y011751D02*
X018640Y011751D01*
X018640Y011592D02*
X018720Y011592D01*
X018784Y011434D02*
X018576Y011434D01*
X018404Y011275D02*
X018956Y011275D01*
X019032Y011117D02*
X018328Y011117D01*
X018553Y010958D02*
X018807Y010958D01*
X018790Y010941D02*
X018720Y010771D01*
X018720Y010588D01*
X018790Y010419D01*
X018919Y010290D01*
X019088Y010220D01*
X019271Y010220D01*
X019441Y010290D01*
X019570Y010419D01*
X019640Y010588D01*
X019640Y010771D01*
X019570Y010941D01*
X019441Y011070D01*
X019271Y011140D01*
X019088Y011140D01*
X018919Y011070D01*
X018790Y010941D01*
X018732Y010800D02*
X018628Y010800D01*
X018640Y010641D02*
X018720Y010641D01*
X018764Y010483D02*
X018596Y010483D01*
X018475Y010324D02*
X018885Y010324D01*
X018919Y010070D02*
X018790Y009941D01*
X018720Y009771D01*
X018720Y009588D01*
X018790Y009419D01*
X018919Y009290D01*
X019088Y009220D01*
X019271Y009220D01*
X019441Y009290D01*
X019570Y009419D01*
X019640Y009588D01*
X019640Y009771D01*
X019570Y009941D01*
X019441Y010070D01*
X019271Y010140D01*
X019088Y010140D01*
X018919Y010070D01*
X018856Y010007D02*
X018504Y010007D01*
X018608Y009849D02*
X018752Y009849D01*
X018720Y009690D02*
X018640Y009690D01*
X018616Y009532D02*
X018744Y009532D01*
X018836Y009373D02*
X018524Y009373D01*
X018905Y009056D02*
X015455Y009056D01*
X015588Y008898D02*
X018772Y008898D01*
X018790Y008941D02*
X018720Y008771D01*
X018720Y008588D01*
X018790Y008419D01*
X018919Y008290D01*
X019088Y008220D01*
X019271Y008220D01*
X019441Y008290D01*
X019570Y008419D01*
X019640Y008588D01*
X019640Y008771D01*
X019570Y008941D01*
X019441Y009070D01*
X019271Y009140D01*
X019088Y009140D01*
X018919Y009070D01*
X018790Y008941D01*
X018720Y008739D02*
X015640Y008739D01*
X015637Y008581D02*
X018723Y008581D01*
X018789Y008422D02*
X015571Y008422D01*
X015377Y008264D02*
X018983Y008264D01*
X019004Y008105D02*
X015356Y008105D01*
X015564Y007947D02*
X018796Y007947D01*
X018790Y007941D02*
X018720Y007771D01*
X018720Y007588D01*
X018790Y007419D01*
X018919Y007290D01*
X019088Y007220D01*
X019271Y007220D01*
X019441Y007290D01*
X019570Y007419D01*
X019640Y007588D01*
X019640Y007771D01*
X019570Y007941D01*
X019441Y008070D01*
X019271Y008140D01*
X019088Y008140D01*
X018919Y008070D01*
X018790Y007941D01*
X018727Y007788D02*
X015633Y007788D01*
X015640Y007630D02*
X018720Y007630D01*
X018769Y007471D02*
X015591Y007471D01*
X015463Y007313D02*
X018897Y007313D01*
X018919Y007070D02*
X018790Y006941D01*
X018720Y006771D01*
X018720Y006588D01*
X018790Y006419D01*
X018919Y006290D01*
X019088Y006220D01*
X019271Y006220D01*
X019441Y006290D01*
X019570Y006419D01*
X019640Y006588D01*
X019640Y006771D01*
X019570Y006941D01*
X019441Y007070D01*
X019271Y007140D01*
X019088Y007140D01*
X018919Y007070D01*
X018845Y006996D02*
X018515Y006996D01*
X018570Y006941D02*
X018441Y007070D01*
X018271Y007140D01*
X018088Y007140D01*
X017919Y007070D01*
X017790Y006941D01*
X017720Y006771D01*
X017720Y006588D01*
X017790Y006419D01*
X017919Y006290D01*
X018088Y006220D01*
X018271Y006220D01*
X018441Y006290D01*
X018570Y006419D01*
X018640Y006588D01*
X018640Y006771D01*
X018570Y006941D01*
X018613Y006837D02*
X018747Y006837D01*
X018720Y006679D02*
X018640Y006679D01*
X018612Y006520D02*
X018748Y006520D01*
X018848Y006362D02*
X018512Y006362D01*
X018441Y006070D02*
X018271Y006140D01*
X018088Y006140D01*
X017919Y006070D01*
X017790Y005941D01*
X017720Y005771D01*
X017720Y005588D01*
X017790Y005419D01*
X017919Y005290D01*
X018088Y005220D01*
X018271Y005220D01*
X018441Y005290D01*
X018570Y005419D01*
X018640Y005588D01*
X018640Y005771D01*
X018570Y005941D01*
X018441Y006070D01*
X018466Y006045D02*
X018894Y006045D01*
X018919Y006070D02*
X018790Y005941D01*
X018720Y005771D01*
X018720Y005588D01*
X018790Y005419D01*
X018919Y005290D01*
X019088Y005220D01*
X019271Y005220D01*
X019441Y005290D01*
X019570Y005419D01*
X019640Y005588D01*
X019640Y005771D01*
X019570Y005941D01*
X019441Y006070D01*
X019271Y006140D01*
X019088Y006140D01*
X018919Y006070D01*
X018767Y005886D02*
X018593Y005886D01*
X018640Y005728D02*
X018720Y005728D01*
X018728Y005569D02*
X018632Y005569D01*
X018561Y005411D02*
X018799Y005411D01*
X019011Y005252D02*
X018349Y005252D01*
X018288Y005129D02*
X018216Y005140D01*
X018200Y005140D01*
X018200Y004700D01*
X018160Y004700D01*
X018160Y005140D01*
X018144Y005140D01*
X018072Y005129D01*
X018003Y005106D01*
X017939Y005073D01*
X017880Y005031D01*
X017829Y004980D01*
X017787Y004921D01*
X017754Y004857D01*
X017731Y004788D01*
X017720Y004716D01*
X017720Y004700D01*
X018160Y004700D01*
X018160Y004660D01*
X017720Y004660D01*
X017720Y004644D01*
X017731Y004572D01*
X017754Y004503D01*
X017787Y004439D01*
X017829Y004380D01*
X017880Y004329D01*
X017939Y004287D01*
X018003Y004254D01*
X018072Y004231D01*
X018144Y004220D01*
X018160Y004220D01*
X018160Y004660D01*
X018200Y004660D01*
X018200Y004700D01*
X018640Y004700D01*
X018640Y004716D01*
X018629Y004788D01*
X018606Y004857D01*
X018573Y004921D01*
X018531Y004980D01*
X018480Y005031D01*
X018421Y005073D01*
X018357Y005106D01*
X018288Y005129D01*
X018200Y005094D02*
X018160Y005094D01*
X018160Y004935D02*
X018200Y004935D01*
X018200Y004777D02*
X018160Y004777D01*
X018200Y004660D02*
X018640Y004660D01*
X018640Y004644D01*
X018629Y004572D01*
X018606Y004503D01*
X018573Y004439D01*
X018531Y004380D01*
X018480Y004329D01*
X018421Y004287D01*
X018357Y004254D01*
X018288Y004231D01*
X018216Y004220D01*
X018200Y004220D01*
X018200Y004660D01*
X018200Y004618D02*
X018160Y004618D01*
X018160Y004460D02*
X018200Y004460D01*
X018200Y004301D02*
X018160Y004301D01*
X017919Y004301D02*
X017441Y004301D01*
X017421Y004287D02*
X017480Y004329D01*
X017531Y004380D01*
X017573Y004439D01*
X017606Y004503D01*
X017629Y004572D01*
X017640Y004644D01*
X017640Y004660D01*
X017200Y004660D01*
X017200Y004700D01*
X017160Y004700D01*
X017160Y005140D01*
X017144Y005140D01*
X017072Y005129D01*
X017003Y005106D01*
X016939Y005073D01*
X016880Y005031D01*
X016829Y004980D01*
X016787Y004921D01*
X016754Y004857D01*
X016731Y004788D01*
X016720Y004716D01*
X016720Y004700D01*
X017160Y004700D01*
X017160Y004660D01*
X016720Y004660D01*
X016720Y004644D01*
X016731Y004572D01*
X016754Y004503D01*
X016787Y004439D01*
X016829Y004380D01*
X016880Y004329D01*
X016939Y004287D01*
X017003Y004254D01*
X017072Y004231D01*
X017144Y004220D01*
X017160Y004220D01*
X017160Y004660D01*
X017200Y004660D01*
X017200Y004220D01*
X017216Y004220D01*
X017288Y004231D01*
X017357Y004254D01*
X017421Y004287D01*
X017200Y004301D02*
X017160Y004301D01*
X017160Y004460D02*
X017200Y004460D01*
X017200Y004618D02*
X017160Y004618D01*
X017200Y004700D02*
X017640Y004700D01*
X017640Y004716D01*
X017629Y004788D01*
X017606Y004857D01*
X017573Y004921D01*
X017531Y004980D01*
X017480Y005031D01*
X017421Y005073D01*
X017357Y005106D01*
X017288Y005129D01*
X017216Y005140D01*
X017200Y005140D01*
X017200Y004700D01*
X017200Y004777D02*
X017160Y004777D01*
X017160Y004935D02*
X017200Y004935D01*
X017200Y005094D02*
X017160Y005094D01*
X017088Y005220D02*
X016919Y005290D01*
X016790Y005419D01*
X016720Y005588D01*
X016720Y005771D01*
X016790Y005941D01*
X016919Y006070D01*
X017088Y006140D01*
X017271Y006140D01*
X017441Y006070D01*
X017570Y005941D01*
X017640Y005771D01*
X017640Y005588D01*
X017570Y005419D01*
X017441Y005290D01*
X017271Y005220D01*
X017088Y005220D01*
X017011Y005252D02*
X016349Y005252D01*
X016271Y005220D02*
X016441Y005290D01*
X016570Y005419D01*
X016640Y005588D01*
X016640Y005771D01*
X016570Y005941D01*
X016441Y006070D01*
X016271Y006140D01*
X016088Y006140D01*
X015919Y006070D01*
X015790Y005941D01*
X015720Y005771D01*
X015720Y005588D01*
X015790Y005419D01*
X015919Y005290D01*
X016088Y005220D01*
X016271Y005220D01*
X016288Y005129D02*
X016216Y005140D01*
X016200Y005140D01*
X016200Y004700D01*
X016160Y004700D01*
X016160Y005140D01*
X016144Y005140D01*
X016072Y005129D01*
X016003Y005106D01*
X015939Y005073D01*
X015880Y005031D01*
X015829Y004980D01*
X015787Y004921D01*
X015754Y004857D01*
X015731Y004788D01*
X015720Y004716D01*
X015720Y004700D01*
X016160Y004700D01*
X016160Y004660D01*
X015720Y004660D01*
X015720Y004644D01*
X015731Y004572D01*
X015754Y004503D01*
X015787Y004439D01*
X015829Y004380D01*
X015880Y004329D01*
X015939Y004287D01*
X016003Y004254D01*
X016072Y004231D01*
X016144Y004220D01*
X016160Y004220D01*
X016160Y004660D01*
X016200Y004660D01*
X016200Y004700D01*
X016640Y004700D01*
X016640Y004716D01*
X016629Y004788D01*
X016606Y004857D01*
X016573Y004921D01*
X016531Y004980D01*
X016480Y005031D01*
X016421Y005073D01*
X016357Y005106D01*
X016288Y005129D01*
X016200Y005094D02*
X016160Y005094D01*
X016160Y004935D02*
X016200Y004935D01*
X016200Y004777D02*
X016160Y004777D01*
X016200Y004660D02*
X016640Y004660D01*
X016640Y004644D01*
X016629Y004572D01*
X016606Y004503D01*
X016573Y004439D01*
X016531Y004380D01*
X016480Y004329D01*
X016421Y004287D01*
X016357Y004254D01*
X016288Y004231D01*
X016216Y004220D01*
X016200Y004220D01*
X016200Y004660D01*
X016200Y004618D02*
X016160Y004618D01*
X016160Y004460D02*
X016200Y004460D01*
X016200Y004301D02*
X016160Y004301D01*
X015919Y004301D02*
X015441Y004301D01*
X015421Y004287D02*
X015480Y004329D01*
X015531Y004380D01*
X015573Y004439D01*
X015606Y004503D01*
X015629Y004572D01*
X015640Y004644D01*
X015640Y004660D01*
X015200Y004660D01*
X015200Y004700D01*
X015160Y004700D01*
X015160Y005140D01*
X015144Y005140D01*
X015072Y005129D01*
X015003Y005106D01*
X014939Y005073D01*
X014880Y005031D01*
X014829Y004980D01*
X014787Y004921D01*
X014754Y004857D01*
X014731Y004788D01*
X014720Y004716D01*
X014720Y004700D01*
X015160Y004700D01*
X015160Y004660D01*
X014720Y004660D01*
X014720Y004644D01*
X014731Y004572D01*
X014754Y004503D01*
X014787Y004439D01*
X014829Y004380D01*
X014880Y004329D01*
X014939Y004287D01*
X015003Y004254D01*
X015072Y004231D01*
X015144Y004220D01*
X015160Y004220D01*
X015160Y004660D01*
X015200Y004660D01*
X015200Y004220D01*
X015216Y004220D01*
X015288Y004231D01*
X015357Y004254D01*
X015421Y004287D01*
X015200Y004301D02*
X015160Y004301D01*
X015160Y004460D02*
X015200Y004460D01*
X015200Y004618D02*
X015160Y004618D01*
X015200Y004700D02*
X015640Y004700D01*
X015640Y004716D01*
X015629Y004788D01*
X015606Y004857D01*
X015573Y004921D01*
X015531Y004980D01*
X015480Y005031D01*
X015421Y005073D01*
X015357Y005106D01*
X015288Y005129D01*
X015216Y005140D01*
X015200Y005140D01*
X015200Y004700D01*
X015200Y004777D02*
X015160Y004777D01*
X015160Y004935D02*
X015200Y004935D01*
X015200Y005094D02*
X015160Y005094D01*
X015088Y005220D02*
X014919Y005290D01*
X014790Y005419D01*
X014720Y005588D01*
X014720Y005771D01*
X014790Y005941D01*
X014919Y006070D01*
X015088Y006140D01*
X015271Y006140D01*
X015441Y006070D01*
X015570Y005941D01*
X015640Y005771D01*
X015640Y005588D01*
X015570Y005419D01*
X015441Y005290D01*
X015271Y005220D01*
X015088Y005220D01*
X015011Y005252D02*
X011170Y005252D01*
X011170Y005094D02*
X014978Y005094D01*
X014797Y004935D02*
X011170Y004935D01*
X011170Y004777D02*
X014730Y004777D01*
X014724Y004618D02*
X011170Y004618D01*
X011170Y004460D02*
X014776Y004460D01*
X014919Y004301D02*
X011170Y004301D01*
X011170Y004143D02*
X023400Y004143D01*
X023400Y004301D02*
X022619Y004301D01*
X022629Y004318D02*
X022640Y004359D01*
X022640Y004660D01*
X022200Y004660D01*
X022200Y004700D01*
X022160Y004700D01*
X022160Y005140D01*
X021859Y005140D01*
X021818Y005129D01*
X021782Y005108D01*
X021752Y005078D01*
X021731Y005042D01*
X021720Y005001D01*
X021720Y004700D01*
X022160Y004700D01*
X022160Y004660D01*
X022200Y004660D01*
X022200Y004220D01*
X022501Y004220D01*
X022542Y004231D01*
X022578Y004252D01*
X022608Y004282D01*
X022629Y004318D01*
X022640Y004460D02*
X023400Y004460D01*
X023400Y004618D02*
X022640Y004618D01*
X022640Y004700D02*
X022200Y004700D01*
X022200Y005140D01*
X022501Y005140D01*
X022542Y005129D01*
X022578Y005108D01*
X022608Y005078D01*
X022629Y005042D01*
X022640Y005001D01*
X022640Y004700D01*
X022640Y004777D02*
X023400Y004777D01*
X023400Y004935D02*
X022640Y004935D01*
X022593Y005094D02*
X023400Y005094D01*
X023400Y005252D02*
X022349Y005252D01*
X022271Y005220D02*
X022441Y005290D01*
X022570Y005419D01*
X022640Y005588D01*
X022640Y005771D01*
X022570Y005941D01*
X022441Y006070D01*
X022271Y006140D01*
X022088Y006140D01*
X021919Y006070D01*
X021790Y005941D01*
X021720Y005771D01*
X021720Y005588D01*
X021790Y005419D01*
X021919Y005290D01*
X022088Y005220D01*
X022271Y005220D01*
X022200Y005094D02*
X022160Y005094D01*
X022160Y004935D02*
X022200Y004935D01*
X022200Y004777D02*
X022160Y004777D01*
X022160Y004660D02*
X021720Y004660D01*
X021720Y004359D01*
X021731Y004318D01*
X021752Y004282D01*
X021782Y004252D01*
X021818Y004231D01*
X021859Y004220D01*
X022160Y004220D01*
X022160Y004660D01*
X022160Y004618D02*
X022200Y004618D01*
X022200Y004460D02*
X022160Y004460D01*
X022160Y004301D02*
X022200Y004301D01*
X021741Y004301D02*
X021441Y004301D01*
X021421Y004287D02*
X021480Y004329D01*
X021531Y004380D01*
X021573Y004439D01*
X021606Y004503D01*
X021629Y004572D01*
X021640Y004644D01*
X021640Y004660D01*
X021200Y004660D01*
X021200Y004700D01*
X021160Y004700D01*
X021160Y005140D01*
X021144Y005140D01*
X021072Y005129D01*
X021003Y005106D01*
X020939Y005073D01*
X020880Y005031D01*
X020829Y004980D01*
X020787Y004921D01*
X020754Y004857D01*
X020731Y004788D01*
X020720Y004716D01*
X020720Y004700D01*
X021160Y004700D01*
X021160Y004660D01*
X020720Y004660D01*
X020720Y004644D01*
X020731Y004572D01*
X020754Y004503D01*
X020787Y004439D01*
X020829Y004380D01*
X020880Y004329D01*
X020939Y004287D01*
X021003Y004254D01*
X021072Y004231D01*
X021144Y004220D01*
X021160Y004220D01*
X021160Y004660D01*
X021200Y004660D01*
X021200Y004220D01*
X021216Y004220D01*
X021288Y004231D01*
X021357Y004254D01*
X021421Y004287D01*
X021200Y004301D02*
X021160Y004301D01*
X021160Y004460D02*
X021200Y004460D01*
X021200Y004618D02*
X021160Y004618D01*
X021200Y004700D02*
X021640Y004700D01*
X021640Y004716D01*
X021629Y004788D01*
X021606Y004857D01*
X021573Y004921D01*
X021531Y004980D01*
X021480Y005031D01*
X021421Y005073D01*
X021357Y005106D01*
X021288Y005129D01*
X021216Y005140D01*
X021200Y005140D01*
X021200Y004700D01*
X021200Y004777D02*
X021160Y004777D01*
X021160Y004935D02*
X021200Y004935D01*
X021200Y005094D02*
X021160Y005094D01*
X021088Y005220D02*
X020919Y005290D01*
X020790Y005419D01*
X020720Y005588D01*
X020720Y005771D01*
X020790Y005941D01*
X020919Y006070D01*
X021088Y006140D01*
X021271Y006140D01*
X021441Y006070D01*
X021570Y005941D01*
X021640Y005771D01*
X021640Y005588D01*
X021570Y005419D01*
X021441Y005290D01*
X021271Y005220D01*
X021088Y005220D01*
X021011Y005252D02*
X020349Y005252D01*
X020271Y005220D02*
X020441Y005290D01*
X020570Y005419D01*
X020640Y005588D01*
X020640Y005771D01*
X020570Y005941D01*
X020441Y006070D01*
X020271Y006140D01*
X020088Y006140D01*
X019919Y006070D01*
X019790Y005941D01*
X019720Y005771D01*
X019720Y005588D01*
X019790Y005419D01*
X019919Y005290D01*
X020088Y005220D01*
X020271Y005220D01*
X020288Y005129D02*
X020216Y005140D01*
X020200Y005140D01*
X020200Y004700D01*
X020160Y004700D01*
X020160Y005140D01*
X020144Y005140D01*
X020072Y005129D01*
X020003Y005106D01*
X019939Y005073D01*
X019880Y005031D01*
X019829Y004980D01*
X019787Y004921D01*
X019754Y004857D01*
X019731Y004788D01*
X019720Y004716D01*
X019720Y004700D01*
X020160Y004700D01*
X020160Y004660D01*
X019720Y004660D01*
X019720Y004644D01*
X019731Y004572D01*
X019754Y004503D01*
X019787Y004439D01*
X019829Y004380D01*
X019880Y004329D01*
X019939Y004287D01*
X020003Y004254D01*
X020072Y004231D01*
X020144Y004220D01*
X020160Y004220D01*
X020160Y004660D01*
X020200Y004660D01*
X020200Y004700D01*
X020640Y004700D01*
X020640Y004716D01*
X020629Y004788D01*
X020606Y004857D01*
X020573Y004921D01*
X020531Y004980D01*
X020480Y005031D01*
X020421Y005073D01*
X020357Y005106D01*
X020288Y005129D01*
X020200Y005094D02*
X020160Y005094D01*
X020160Y004935D02*
X020200Y004935D01*
X020200Y004777D02*
X020160Y004777D01*
X020200Y004660D02*
X020640Y004660D01*
X020640Y004644D01*
X020629Y004572D01*
X020606Y004503D01*
X020573Y004439D01*
X020531Y004380D01*
X020480Y004329D01*
X020421Y004287D01*
X020357Y004254D01*
X020288Y004231D01*
X020216Y004220D01*
X020200Y004220D01*
X020200Y004660D01*
X020200Y004618D02*
X020160Y004618D01*
X020160Y004460D02*
X020200Y004460D01*
X020200Y004301D02*
X020160Y004301D01*
X019919Y004301D02*
X019441Y004301D01*
X019421Y004287D02*
X019480Y004329D01*
X019531Y004380D01*
X019573Y004439D01*
X019606Y004503D01*
X019629Y004572D01*
X019640Y004644D01*
X019640Y004660D01*
X019200Y004660D01*
X019200Y004700D01*
X019160Y004700D01*
X019160Y005140D01*
X019144Y005140D01*
X019072Y005129D01*
X019003Y005106D01*
X018939Y005073D01*
X018880Y005031D01*
X018829Y004980D01*
X018787Y004921D01*
X018754Y004857D01*
X018731Y004788D01*
X018720Y004716D01*
X018720Y004700D01*
X019160Y004700D01*
X019160Y004660D01*
X018720Y004660D01*
X018720Y004644D01*
X018731Y004572D01*
X018754Y004503D01*
X018787Y004439D01*
X018829Y004380D01*
X018880Y004329D01*
X018939Y004287D01*
X019003Y004254D01*
X019072Y004231D01*
X019144Y004220D01*
X019160Y004220D01*
X019160Y004660D01*
X019200Y004660D01*
X019200Y004220D01*
X019216Y004220D01*
X019288Y004231D01*
X019357Y004254D01*
X019421Y004287D01*
X019200Y004301D02*
X019160Y004301D01*
X019160Y004460D02*
X019200Y004460D01*
X019200Y004618D02*
X019160Y004618D01*
X019200Y004700D02*
X019640Y004700D01*
X019640Y004716D01*
X019629Y004788D01*
X019606Y004857D01*
X019573Y004921D01*
X019531Y004980D01*
X019480Y005031D01*
X019421Y005073D01*
X019357Y005106D01*
X019288Y005129D01*
X019216Y005140D01*
X019200Y005140D01*
X019200Y004700D01*
X019200Y004777D02*
X019160Y004777D01*
X019160Y004935D02*
X019200Y004935D01*
X019200Y005094D02*
X019160Y005094D01*
X018978Y005094D02*
X018382Y005094D01*
X018563Y004935D02*
X018797Y004935D01*
X018730Y004777D02*
X018630Y004777D01*
X018636Y004618D02*
X018724Y004618D01*
X018776Y004460D02*
X018584Y004460D01*
X018441Y004301D02*
X018919Y004301D01*
X018771Y003640D02*
X018588Y003640D01*
X018419Y003570D01*
X018290Y003441D01*
X018220Y003271D01*
X018220Y003088D01*
X018290Y002919D01*
X018419Y002790D01*
X018588Y002720D01*
X018771Y002720D01*
X018941Y002790D01*
X019070Y002919D01*
X019140Y003088D01*
X019140Y003271D01*
X019070Y003441D01*
X018941Y003570D01*
X018771Y003640D01*
X019002Y003509D02*
X019358Y003509D01*
X019419Y003570D02*
X019290Y003441D01*
X019220Y003271D01*
X019220Y003088D01*
X019290Y002919D01*
X019419Y002790D01*
X019588Y002720D01*
X019771Y002720D01*
X019941Y002790D01*
X020070Y002919D01*
X020140Y003088D01*
X020140Y003271D01*
X020070Y003441D01*
X019941Y003570D01*
X019771Y003640D01*
X019588Y003640D01*
X019419Y003570D01*
X019253Y003350D02*
X019107Y003350D01*
X019140Y003192D02*
X019220Y003192D01*
X019243Y003033D02*
X019117Y003033D01*
X019025Y002875D02*
X019335Y002875D01*
X020025Y002875D02*
X020335Y002875D01*
X020290Y002919D02*
X020419Y002790D01*
X020588Y002720D01*
X020771Y002720D01*
X020941Y002790D01*
X021070Y002919D01*
X021140Y003088D01*
X021140Y003271D01*
X021070Y003441D01*
X020941Y003570D01*
X020771Y003640D01*
X020588Y003640D01*
X020419Y003570D01*
X020290Y003441D01*
X020220Y003271D01*
X020220Y003088D01*
X020290Y002919D01*
X020243Y003033D02*
X020117Y003033D01*
X020140Y003192D02*
X020220Y003192D01*
X020253Y003350D02*
X020107Y003350D01*
X020002Y003509D02*
X020358Y003509D01*
X021002Y003509D02*
X021358Y003509D01*
X021419Y003570D02*
X021290Y003441D01*
X021220Y003271D01*
X021220Y003088D01*
X021290Y002919D01*
X021419Y002790D01*
X021588Y002720D01*
X021771Y002720D01*
X021941Y002790D01*
X022070Y002919D01*
X022140Y003088D01*
X022140Y003271D01*
X022070Y003441D01*
X021941Y003570D01*
X021771Y003640D01*
X021588Y003640D01*
X021419Y003570D01*
X021253Y003350D02*
X021107Y003350D01*
X021140Y003192D02*
X021220Y003192D01*
X021243Y003033D02*
X021117Y003033D01*
X021025Y002875D02*
X021335Y002875D01*
X022025Y002875D02*
X023400Y002875D01*
X023400Y003033D02*
X022117Y003033D01*
X022140Y003192D02*
X023400Y003192D01*
X023400Y003350D02*
X022107Y003350D01*
X022002Y003509D02*
X023400Y003509D01*
X023400Y003667D02*
X011532Y003667D01*
X011374Y003826D02*
X023400Y003826D01*
X023400Y003984D02*
X011215Y003984D01*
X010930Y003930D02*
X011680Y003180D01*
X011220Y003192D02*
X011140Y003192D01*
X011140Y003271D02*
X011140Y003088D01*
X011070Y002919D01*
X010941Y002790D01*
X010771Y002720D01*
X010588Y002720D01*
X010419Y002790D01*
X010290Y002919D01*
X010220Y003088D01*
X010220Y003271D01*
X010290Y003441D01*
X010419Y003570D01*
X010588Y003640D01*
X010771Y003640D01*
X010941Y003570D01*
X011070Y003441D01*
X011140Y003271D01*
X011171Y003350D02*
X011107Y003350D01*
X011012Y003509D02*
X011002Y003509D01*
X010854Y003667D02*
X006870Y003667D01*
X006870Y003826D02*
X010714Y003826D01*
X010690Y003984D02*
X006870Y003984D01*
X006870Y004143D02*
X010690Y004143D01*
X010690Y004301D02*
X006870Y004301D01*
X006870Y004460D02*
X010690Y004460D01*
X010690Y004618D02*
X007536Y004618D01*
X007540Y004777D02*
X010690Y004777D01*
X010690Y004935D02*
X007540Y004935D01*
X007460Y005094D02*
X010690Y005094D01*
X010690Y005252D02*
X008217Y005252D01*
X008212Y005249D02*
X008249Y005270D01*
X008279Y005300D01*
X008300Y005337D01*
X008310Y005377D01*
X008310Y005850D01*
X007876Y005850D01*
X007876Y005239D01*
X008172Y005239D01*
X008212Y005249D01*
X008310Y005411D02*
X010690Y005411D01*
X010690Y005569D02*
X008310Y005569D01*
X008310Y005728D02*
X010690Y005728D01*
X010690Y005886D02*
X007876Y005886D01*
X007876Y005850D02*
X007876Y006010D01*
X007716Y006010D01*
X007716Y005850D01*
X007282Y005850D01*
X007282Y005377D01*
X007293Y005337D01*
X007314Y005300D01*
X007344Y005270D01*
X007380Y005249D01*
X007421Y005239D01*
X007716Y005239D01*
X007716Y005850D01*
X007876Y005850D01*
X007876Y005728D02*
X007716Y005728D01*
X007716Y005886D02*
X006578Y005886D01*
X006578Y005728D02*
X007282Y005728D01*
X007282Y005569D02*
X006578Y005569D01*
X006578Y005411D02*
X007282Y005411D01*
X007376Y005252D02*
X006498Y005252D01*
X006392Y005094D02*
X005456Y005094D01*
X005297Y005252D02*
X005630Y005252D01*
X005550Y005411D02*
X005139Y005411D01*
X004980Y005569D02*
X005550Y005569D01*
X005930Y005680D02*
X006064Y005814D01*
X006064Y005930D01*
X006578Y006045D02*
X007282Y006045D01*
X007282Y006010D02*
X007716Y006010D01*
X007716Y006621D01*
X007421Y006621D01*
X007380Y006611D01*
X007344Y006590D01*
X007314Y006560D01*
X007293Y006523D01*
X007282Y006483D01*
X007282Y006010D01*
X007282Y006203D02*
X006578Y006203D01*
X006578Y006362D02*
X007282Y006362D01*
X007292Y006520D02*
X006578Y006520D01*
X006008Y006837D02*
X009870Y006837D01*
X009870Y006679D02*
X005908Y006679D01*
X006085Y006996D02*
X009870Y006996D01*
X009928Y007154D02*
X006243Y007154D01*
X007716Y006520D02*
X007876Y006520D01*
X007876Y006621D02*
X007876Y006010D01*
X008310Y006010D01*
X008310Y006483D01*
X008300Y006523D01*
X008279Y006560D01*
X008249Y006590D01*
X008212Y006611D01*
X008172Y006621D01*
X007876Y006621D01*
X007876Y006362D02*
X007716Y006362D01*
X007716Y006203D02*
X007876Y006203D01*
X007876Y006045D02*
X007716Y006045D01*
X007716Y005569D02*
X007876Y005569D01*
X007876Y005411D02*
X007716Y005411D01*
X007716Y005252D02*
X007876Y005252D01*
X007230Y005094D02*
X007230Y005094D01*
X007230Y004935D02*
X007230Y004935D01*
X007230Y004805D02*
X007230Y004495D01*
X007230Y004805D01*
X007230Y004805D01*
X007230Y004777D02*
X007230Y004777D01*
X007230Y004618D02*
X007230Y004618D01*
X007000Y005094D02*
X006868Y005094D01*
X006390Y004460D02*
X000460Y004460D01*
X000460Y004618D02*
X005253Y004618D01*
X005094Y004777D02*
X003922Y004777D01*
X004081Y004935D02*
X004936Y004935D01*
X004777Y005094D02*
X004167Y005094D01*
X004233Y005252D02*
X004619Y005252D01*
X004470Y005411D02*
X004240Y005411D01*
X004240Y005569D02*
X004440Y005569D01*
X003864Y006203D02*
X003680Y006203D01*
X004022Y006362D02*
X000460Y006362D01*
X000460Y006520D02*
X004181Y006520D01*
X004339Y006679D02*
X003732Y006679D01*
X003128Y006679D02*
X000460Y006679D01*
X000460Y006837D02*
X002877Y006837D01*
X002733Y006996D02*
X000460Y006996D01*
X000460Y007154D02*
X002668Y007154D01*
X002620Y007313D02*
X000460Y007313D01*
X000460Y007471D02*
X002620Y007471D01*
X002636Y007630D02*
X000460Y007630D01*
X000460Y007788D02*
X002702Y007788D01*
X002801Y007947D02*
X000460Y007947D01*
X000460Y008105D02*
X002959Y008105D01*
X003180Y006203D02*
X000460Y006203D01*
X000460Y006045D02*
X002899Y006045D01*
X002742Y005886D02*
X000460Y005886D01*
X000460Y005728D02*
X002676Y005728D01*
X002620Y005569D02*
X000460Y005569D01*
X000460Y005411D02*
X002620Y005411D01*
X002627Y005252D02*
X000460Y005252D01*
X000460Y005094D02*
X002693Y005094D01*
X002779Y004935D02*
X000460Y004935D01*
X000460Y004777D02*
X002938Y004777D01*
X002890Y003984D02*
X006390Y003984D01*
X006390Y003826D02*
X002890Y003826D01*
X002580Y003530D02*
X002580Y001330D01*
X002270Y001290D02*
X001390Y001290D01*
X001390Y001448D02*
X002270Y001448D01*
X002270Y001607D02*
X001390Y001607D01*
X001386Y001765D02*
X002270Y001765D01*
X002340Y001924D02*
X000460Y001924D01*
X000460Y002082D02*
X002340Y002082D01*
X002340Y002241D02*
X000460Y002241D01*
X000460Y002399D02*
X002340Y002399D01*
X002340Y002558D02*
X000460Y002558D01*
X000460Y002716D02*
X002340Y002716D01*
X002340Y002875D02*
X000460Y002875D01*
X000460Y003033D02*
X000801Y003033D01*
X000802Y003032D02*
X000832Y003002D01*
X000868Y002981D01*
X000909Y002970D01*
X001080Y002970D01*
X001251Y002970D01*
X001292Y002981D01*
X001328Y003002D01*
X001358Y003032D01*
X001379Y003068D01*
X001390Y003109D01*
X001390Y003530D01*
X001390Y003951D01*
X001379Y003992D01*
X001358Y004028D01*
X001328Y004058D01*
X001292Y004079D01*
X001251Y004090D01*
X001080Y004090D01*
X001080Y003530D01*
X001080Y003530D01*
X001390Y003530D01*
X001080Y003530D01*
X001080Y003530D01*
X001080Y003530D01*
X000770Y003530D01*
X000770Y003951D01*
X000781Y003992D01*
X000802Y004028D01*
X000832Y004058D01*
X000868Y004079D01*
X000909Y004090D01*
X001080Y004090D01*
X001080Y003530D01*
X001080Y002970D01*
X001080Y003530D01*
X001080Y003530D01*
X000770Y003530D01*
X000770Y003109D01*
X000781Y003068D01*
X000802Y003032D01*
X000770Y003192D02*
X000460Y003192D01*
X000460Y003350D02*
X000770Y003350D01*
X000770Y003509D02*
X000460Y003509D01*
X000460Y003667D02*
X000770Y003667D01*
X000770Y003826D02*
X000460Y003826D01*
X000460Y003984D02*
X000779Y003984D01*
X001080Y003984D02*
X001080Y003984D01*
X001080Y003826D02*
X001080Y003826D01*
X001080Y003667D02*
X001080Y003667D01*
X001080Y003509D02*
X001080Y003509D01*
X001080Y003350D02*
X001080Y003350D01*
X001080Y003192D02*
X001080Y003192D01*
X001080Y003033D02*
X001080Y003033D01*
X001359Y003033D02*
X002301Y003033D01*
X002270Y003192D02*
X001390Y003192D01*
X001390Y003350D02*
X002270Y003350D01*
X002270Y003509D02*
X001390Y003509D01*
X001390Y003667D02*
X002270Y003667D01*
X002270Y003826D02*
X001390Y003826D01*
X001381Y003984D02*
X002270Y003984D01*
X002580Y003530D02*
X004330Y003530D01*
X006680Y001180D01*
X009680Y001180D01*
X009508Y001607D02*
X006593Y001607D01*
X006751Y001448D02*
X009297Y001448D01*
X009852Y001607D02*
X010508Y001607D01*
X010297Y001448D02*
X010063Y001448D01*
X010133Y001290D02*
X010227Y001290D01*
X010220Y001131D02*
X010140Y001131D01*
X010092Y000973D02*
X010268Y000973D01*
X010395Y000814D02*
X009965Y000814D01*
X009395Y000814D02*
X004257Y000814D01*
X003952Y000497D02*
X001068Y000497D01*
X001080Y000814D02*
X001080Y000814D01*
X001080Y000973D02*
X001080Y000973D01*
X001080Y001131D02*
X001080Y001131D01*
X001080Y001290D02*
X001080Y001290D01*
X001080Y001448D02*
X001080Y001448D01*
X001080Y001607D02*
X001080Y001607D01*
X001080Y001765D02*
X001080Y001765D01*
X000774Y001765D02*
X000460Y001765D01*
X000460Y001607D02*
X000770Y001607D01*
X000770Y001448D02*
X000460Y001448D01*
X000460Y001290D02*
X000770Y001290D01*
X000770Y001131D02*
X000476Y001131D01*
X001390Y001131D02*
X002270Y001131D01*
X002270Y000973D02*
X001390Y000973D01*
X001340Y000814D02*
X002320Y000814D01*
X003430Y000973D02*
X003430Y000973D01*
X003740Y000973D02*
X003760Y000973D01*
X003760Y001131D02*
X003740Y001131D01*
X003740Y001290D02*
X003760Y001290D01*
X003760Y001448D02*
X003674Y001448D01*
X003948Y001924D02*
X004012Y001924D01*
X004691Y003509D02*
X006169Y003509D01*
X006328Y003667D02*
X004532Y003667D01*
X006390Y004143D02*
X000460Y004143D01*
X000460Y004301D02*
X006390Y004301D01*
X006839Y003509D02*
X009358Y003509D01*
X009253Y003350D02*
X006689Y003350D01*
X008007Y002875D02*
X009335Y002875D01*
X010025Y002875D02*
X010335Y002875D01*
X010243Y003033D02*
X010117Y003033D01*
X010140Y003192D02*
X010220Y003192D01*
X010253Y003350D02*
X010107Y003350D01*
X010002Y003509D02*
X010358Y003509D01*
X010930Y003930D02*
X010930Y006880D01*
X010180Y006880D01*
X009870Y007313D02*
X008966Y007313D01*
X009036Y007471D02*
X009870Y007471D01*
X009870Y007630D02*
X009669Y007630D01*
X010180Y007480D02*
X010130Y007930D01*
X009380Y008180D02*
X009246Y008046D01*
X008670Y008046D01*
X008300Y006520D02*
X010690Y006520D01*
X010690Y006362D02*
X008310Y006362D01*
X008310Y006203D02*
X010690Y006203D01*
X010690Y006045D02*
X008310Y006045D01*
X010930Y007480D02*
X010980Y007480D01*
X011430Y007930D01*
X012180Y007930D01*
X012920Y008422D02*
X013362Y008422D01*
X013390Y008264D02*
X013276Y008264D01*
X013320Y008581D02*
X012920Y008581D01*
X012920Y008739D02*
X013320Y008739D01*
X013321Y008898D02*
X012920Y008898D01*
X014230Y009430D02*
X014430Y009430D01*
X015180Y008680D01*
X015524Y009373D02*
X017836Y009373D01*
X017744Y009532D02*
X015616Y009532D01*
X015640Y009690D02*
X017720Y009690D01*
X017752Y009849D02*
X015608Y009849D01*
X014807Y010958D02*
X014534Y010958D01*
X014540Y011117D02*
X015032Y011117D01*
X014956Y011275D02*
X014540Y011275D01*
X014503Y011434D02*
X014784Y011434D01*
X014720Y011592D02*
X014470Y011592D01*
X014540Y011751D02*
X014720Y011751D01*
X014777Y011909D02*
X014540Y011909D01*
X014540Y012068D02*
X014731Y012068D01*
X014573Y012226D02*
X014460Y012226D01*
X014448Y012385D02*
X014460Y012385D01*
X014230Y012385D02*
X014230Y012385D01*
X014230Y012370D02*
X014230Y012680D01*
X014230Y012680D01*
X014230Y012990D01*
X014401Y012990D01*
X014442Y012979D01*
X014460Y012969D01*
X014460Y013089D01*
X014246Y013303D01*
X014269Y013247D01*
X014269Y013113D01*
X014218Y012990D01*
X014230Y012990D01*
X014230Y012680D01*
X014230Y012680D01*
X014230Y012370D01*
X014230Y012543D02*
X014230Y012543D01*
X014230Y012702D02*
X014230Y012702D01*
X014230Y012860D02*
X014230Y012860D01*
X014230Y013019D02*
X014460Y013019D01*
X014372Y013177D02*
X014269Y013177D01*
X013930Y013180D02*
X009930Y013180D01*
X009430Y012680D01*
X008940Y012680D01*
X008940Y012180D02*
X008680Y012180D01*
X008940Y012180D02*
X009180Y012180D01*
X009230Y012130D01*
X009230Y011080D01*
X009080Y010930D01*
X009080Y010530D01*
X009180Y010430D01*
X009180Y010180D01*
X008990Y011275D02*
X008914Y011275D01*
X008990Y011434D02*
X008560Y011434D01*
X008494Y011592D02*
X008990Y011592D01*
X008990Y011751D02*
X008033Y011751D01*
X007966Y011592D02*
X008126Y011592D01*
X008126Y011434D02*
X007966Y011434D01*
X007966Y011275D02*
X008126Y011275D01*
X008126Y011117D02*
X007966Y011117D01*
X007598Y011592D02*
X007399Y011592D01*
X007501Y012226D02*
X007943Y012226D01*
X007746Y012385D02*
X007602Y012385D01*
X007258Y012385D02*
X007062Y012385D01*
X007080Y012226D02*
X007159Y012226D01*
X007430Y012680D02*
X006520Y012680D01*
X006520Y012385D02*
X006520Y012385D01*
X006520Y012226D02*
X006520Y012226D01*
X006520Y012180D02*
X005960Y012180D01*
X005960Y012029D01*
X005971Y011988D01*
X005992Y011952D01*
X006022Y011922D01*
X006058Y011901D01*
X006099Y011890D01*
X006520Y011890D01*
X006520Y012180D01*
X006520Y012068D02*
X006520Y012068D01*
X006520Y011909D02*
X006520Y011909D01*
X006044Y011909D02*
X004096Y011909D01*
X003938Y012068D02*
X005960Y012068D01*
X005960Y012226D02*
X003625Y012226D01*
X003235Y012226D02*
X000460Y012226D01*
X000460Y012068D02*
X002922Y012068D01*
X002764Y011909D02*
X000460Y011909D01*
X000460Y011751D02*
X002686Y011751D01*
X002620Y011592D02*
X000460Y011592D01*
X000460Y011434D02*
X002620Y011434D01*
X002620Y011275D02*
X000460Y011275D01*
X000460Y011117D02*
X002683Y011117D01*
X002756Y010958D02*
X000460Y010958D01*
X000460Y010800D02*
X002915Y010800D01*
X003218Y010641D02*
X000460Y010641D01*
X000460Y010483D02*
X004038Y010483D01*
X003880Y010641D02*
X003642Y010641D01*
X004241Y010958D02*
X004729Y010958D01*
X004613Y010800D02*
X004400Y010800D01*
X004558Y010641D02*
X004591Y010641D01*
X004875Y010324D02*
X005808Y010324D01*
X005436Y010166D02*
X005034Y010166D01*
X005192Y010007D02*
X005345Y010007D01*
X005680Y009930D02*
X006284Y009326D01*
X006490Y009326D01*
X006490Y009070D02*
X005790Y009070D01*
X006857Y009215D02*
X006863Y009215D01*
X006820Y010324D02*
X007550Y010324D01*
X007532Y010483D02*
X006828Y010483D01*
X006828Y010641D02*
X007532Y010641D01*
X008192Y011909D02*
X008455Y011909D01*
X008380Y012068D02*
X008350Y012068D01*
X008030Y012580D02*
X008630Y013180D01*
X008940Y013180D01*
X008630Y013180D02*
X008280Y013530D01*
X008280Y014530D01*
X008430Y014680D01*
X008940Y014680D01*
X008940Y014180D02*
X012430Y014180D01*
X012930Y014280D02*
X012930Y014930D01*
X012180Y015680D01*
X011180Y015680D01*
X011180Y014680D02*
X009930Y014680D01*
X009680Y014930D01*
X009680Y015680D01*
X009480Y015880D01*
X009180Y015880D01*
X008805Y015980D02*
X008805Y016380D01*
X008905Y016480D01*
X009180Y016480D01*
X012880Y016480D01*
X013430Y015930D01*
X013430Y015480D01*
X013740Y015555D02*
X014734Y015555D01*
X014720Y015588D02*
X014790Y015419D01*
X014919Y015290D01*
X015088Y015220D01*
X015271Y015220D01*
X015441Y015290D01*
X015570Y015419D01*
X015640Y015588D01*
X015640Y015771D01*
X015570Y015941D01*
X015441Y016070D01*
X015271Y016140D01*
X015088Y016140D01*
X014919Y016070D01*
X014790Y015941D01*
X014720Y015771D01*
X014720Y015588D01*
X014720Y015713D02*
X013723Y015713D01*
X013711Y015872D02*
X014761Y015872D01*
X014879Y016030D02*
X013869Y016030D01*
X014028Y016189D02*
X022400Y016189D01*
X022640Y015713D02*
X022751Y015713D01*
X022626Y015555D02*
X022909Y015555D01*
X023068Y015396D02*
X022547Y015396D01*
X022314Y015238D02*
X023226Y015238D01*
X023385Y015079D02*
X022419Y015079D01*
X022441Y015070D02*
X022271Y015140D01*
X022088Y015140D01*
X021919Y015070D01*
X021790Y014941D01*
X021720Y014771D01*
X021720Y014588D01*
X021790Y014419D01*
X021919Y014290D01*
X022088Y014220D01*
X022271Y014220D01*
X022441Y014290D01*
X022570Y014419D01*
X022640Y014588D01*
X022640Y014771D01*
X022570Y014941D01*
X022441Y015070D01*
X022578Y014921D02*
X023400Y014921D01*
X023400Y014762D02*
X022640Y014762D01*
X022640Y014604D02*
X023400Y014604D01*
X023400Y014445D02*
X022581Y014445D01*
X022432Y014287D02*
X023400Y014287D01*
X023400Y014128D02*
X022300Y014128D01*
X022271Y014140D02*
X022088Y014140D01*
X021919Y014070D01*
X021790Y013941D01*
X021720Y013771D01*
X021720Y013588D01*
X021790Y013419D01*
X021919Y013290D01*
X022088Y013220D01*
X022271Y013220D01*
X022441Y013290D01*
X022570Y013419D01*
X022640Y013588D01*
X022640Y013771D01*
X022570Y013941D01*
X022441Y014070D01*
X022271Y014140D01*
X022060Y014128D02*
X021300Y014128D01*
X021271Y014140D02*
X021088Y014140D01*
X020919Y014070D01*
X020790Y013941D01*
X020720Y013771D01*
X020720Y013588D01*
X020790Y013419D01*
X020919Y013290D01*
X021088Y013220D01*
X021271Y013220D01*
X021441Y013290D01*
X021570Y013419D01*
X021640Y013588D01*
X021640Y013771D01*
X021570Y013941D01*
X021441Y014070D01*
X021271Y014140D01*
X021271Y014220D02*
X021441Y014290D01*
X021570Y014419D01*
X021640Y014588D01*
X021640Y014771D01*
X021570Y014941D01*
X021441Y015070D01*
X021271Y015140D01*
X021088Y015140D01*
X020919Y015070D01*
X020790Y014941D01*
X020720Y014771D01*
X020720Y014588D01*
X020790Y014419D01*
X020919Y014290D01*
X021088Y014220D01*
X021271Y014220D01*
X021432Y014287D02*
X021928Y014287D01*
X021779Y014445D02*
X021581Y014445D01*
X021640Y014604D02*
X021720Y014604D01*
X021720Y014762D02*
X021640Y014762D01*
X021578Y014921D02*
X021782Y014921D01*
X021941Y015079D02*
X021419Y015079D01*
X021314Y015238D02*
X022046Y015238D01*
X021813Y015396D02*
X021547Y015396D01*
X021570Y015419D02*
X021640Y015588D01*
X021640Y015771D01*
X021570Y015941D01*
X021441Y016070D01*
X021271Y016140D01*
X021088Y016140D01*
X020919Y016070D01*
X020790Y015941D01*
X020720Y015771D01*
X020720Y015588D01*
X020790Y015419D01*
X020919Y015290D01*
X021088Y015220D01*
X021271Y015220D01*
X021441Y015290D01*
X021570Y015419D01*
X021626Y015555D02*
X021734Y015555D01*
X021720Y015713D02*
X021640Y015713D01*
X021599Y015872D02*
X021761Y015872D01*
X021879Y016030D02*
X021481Y016030D01*
X021498Y016347D02*
X021720Y016347D01*
X022180Y016680D02*
X021180Y016680D01*
X020180Y016680D01*
X020498Y016347D02*
X020862Y016347D01*
X020879Y016030D02*
X020481Y016030D01*
X020441Y016070D02*
X020271Y016140D01*
X020088Y016140D01*
X019919Y016070D01*
X019790Y015941D01*
X019720Y015771D01*
X019720Y015588D01*
X019790Y015419D01*
X019919Y015290D01*
X020088Y015220D01*
X020271Y015220D01*
X020441Y015290D01*
X020570Y015419D01*
X020640Y015588D01*
X020640Y015771D01*
X020570Y015941D01*
X020441Y016070D01*
X020599Y015872D02*
X020761Y015872D01*
X020720Y015713D02*
X020640Y015713D01*
X020626Y015555D02*
X020734Y015555D01*
X020813Y015396D02*
X020547Y015396D01*
X020314Y015238D02*
X021046Y015238D01*
X020941Y015079D02*
X020419Y015079D01*
X020441Y015070D02*
X020271Y015140D01*
X020088Y015140D01*
X019919Y015070D01*
X019790Y014941D01*
X019720Y014771D01*
X019720Y014588D01*
X019790Y014419D01*
X019919Y014290D01*
X020088Y014220D01*
X020271Y014220D01*
X020441Y014290D01*
X020570Y014419D01*
X020640Y014588D01*
X020640Y014771D01*
X020570Y014941D01*
X020441Y015070D01*
X020578Y014921D02*
X020782Y014921D01*
X020720Y014762D02*
X020640Y014762D01*
X020640Y014604D02*
X020720Y014604D01*
X020779Y014445D02*
X020581Y014445D01*
X020432Y014287D02*
X020928Y014287D01*
X021060Y014128D02*
X020300Y014128D01*
X020271Y014140D02*
X020441Y014070D01*
X020570Y013941D01*
X020640Y013771D01*
X020640Y013588D01*
X020570Y013419D01*
X020441Y013290D01*
X020271Y013220D01*
X020088Y013220D01*
X019919Y013290D01*
X019790Y013419D01*
X019720Y013588D01*
X019720Y013771D01*
X019790Y013941D01*
X019919Y014070D01*
X020088Y014140D01*
X020271Y014140D01*
X020060Y014128D02*
X019300Y014128D01*
X019432Y014287D02*
X019928Y014287D01*
X019779Y014445D02*
X019581Y014445D01*
X019640Y014604D02*
X019720Y014604D01*
X019720Y014762D02*
X019640Y014762D01*
X019578Y014921D02*
X019782Y014921D01*
X019941Y015079D02*
X019419Y015079D01*
X019314Y015238D02*
X020046Y015238D01*
X019813Y015396D02*
X019547Y015396D01*
X019626Y015555D02*
X019734Y015555D01*
X019720Y015713D02*
X019640Y015713D01*
X019599Y015872D02*
X019761Y015872D01*
X019879Y016030D02*
X019481Y016030D01*
X019498Y016347D02*
X019862Y016347D01*
X020087Y017140D02*
X019273Y017140D01*
X019087Y017140D02*
X018273Y017140D01*
X018087Y017140D02*
X017273Y017140D01*
X017087Y017140D02*
X016273Y017140D01*
X016087Y017140D02*
X015273Y017140D01*
X015087Y017140D02*
X002380Y017140D01*
X002379Y017142D02*
X002358Y017178D01*
X002328Y017208D01*
X002292Y017229D01*
X002251Y017240D01*
X002080Y017240D01*
X002080Y016930D01*
X002080Y016930D01*
X002390Y016930D01*
X002390Y017101D01*
X002379Y017142D01*
X002390Y016981D02*
X014830Y016981D01*
X015180Y016680D02*
X014180Y016680D01*
X013430Y015930D01*
X013352Y016347D02*
X013508Y016347D01*
X013666Y016506D02*
X013194Y016506D01*
X013035Y016664D02*
X013825Y016664D01*
X013983Y016823D02*
X002390Y016823D01*
X002390Y016759D02*
X002390Y016930D01*
X002080Y016930D01*
X002080Y016930D01*
X002080Y017240D01*
X001909Y017240D01*
X001868Y017229D01*
X001832Y017208D01*
X001802Y017178D01*
X001786Y017150D01*
X001696Y017240D01*
X001302Y017240D01*
X001320Y017282D01*
X001320Y017344D01*
X001390Y017414D01*
X001390Y018346D01*
X001320Y018416D01*
X001320Y019544D01*
X001390Y019614D01*
X001390Y020546D01*
X001296Y020640D01*
X000864Y020640D01*
X000770Y020546D01*
X000770Y019614D01*
X000840Y019544D01*
X000840Y018416D01*
X000770Y018346D01*
X000770Y017414D01*
X000797Y017387D01*
X000794Y017383D01*
X000727Y017316D01*
X000690Y017228D01*
X000690Y017169D01*
X000643Y017122D01*
X000591Y016997D01*
X000591Y016863D01*
X000643Y016738D01*
X000738Y016643D01*
X000863Y016591D01*
X000997Y016591D01*
X001122Y016643D01*
X001169Y016690D01*
X001194Y016690D01*
X001264Y016620D01*
X001696Y016620D01*
X001786Y016710D01*
X001802Y016682D01*
X001832Y016652D01*
X001868Y016631D01*
X001909Y016620D01*
X002080Y016620D01*
X002251Y016620D01*
X002292Y016631D01*
X002328Y016652D01*
X002358Y016682D01*
X002379Y016718D01*
X002390Y016759D01*
X002340Y016664D02*
X008123Y016664D01*
X008120Y016506D02*
X000460Y016506D01*
X000460Y016664D02*
X000717Y016664D01*
X000608Y016823D02*
X000460Y016823D01*
X000460Y016981D02*
X000591Y016981D01*
X000660Y017140D02*
X000460Y017140D01*
X000460Y017298D02*
X000719Y017298D01*
X000770Y017457D02*
X000460Y017457D01*
X000460Y017615D02*
X000770Y017615D01*
X000770Y017774D02*
X000460Y017774D01*
X000460Y017932D02*
X000770Y017932D01*
X000770Y018091D02*
X000460Y018091D01*
X000460Y018249D02*
X000770Y018249D01*
X000831Y018408D02*
X000460Y018408D01*
X000460Y018566D02*
X000840Y018566D01*
X000840Y018725D02*
X000460Y018725D01*
X000460Y018883D02*
X000840Y018883D01*
X000840Y019042D02*
X000460Y019042D01*
X000460Y019200D02*
X000840Y019200D01*
X000840Y019359D02*
X000460Y019359D01*
X000460Y019517D02*
X000840Y019517D01*
X000770Y019676D02*
X000460Y019676D01*
X000460Y019834D02*
X000770Y019834D01*
X000770Y019993D02*
X000460Y019993D01*
X000460Y020151D02*
X000770Y020151D01*
X000770Y020310D02*
X000504Y020310D01*
X000572Y020468D02*
X000770Y020468D01*
X000694Y020627D02*
X000850Y020627D01*
X000888Y020785D02*
X022057Y020785D01*
X022046Y020640D02*
X021314Y020640D01*
X021220Y020546D01*
X021220Y019814D01*
X021314Y019720D01*
X022046Y019720D01*
X022140Y019814D01*
X022140Y020546D01*
X022046Y020640D01*
X022060Y020627D02*
X022235Y020627D01*
X022140Y020468D02*
X022334Y020468D01*
X022386Y020310D02*
X022140Y020310D01*
X022140Y020151D02*
X022400Y020151D01*
X022400Y019993D02*
X022140Y019993D01*
X022140Y019834D02*
X022400Y019834D01*
X022400Y019676D02*
X002890Y019676D01*
X002890Y019614D02*
X002820Y019544D01*
X002820Y019079D01*
X002879Y019020D01*
X003294Y019020D01*
X003364Y019090D01*
X003796Y019090D01*
X003866Y019020D01*
X004028Y019020D01*
X004116Y018983D01*
X004468Y018631D01*
X004488Y018640D01*
X004671Y018640D01*
X004841Y018570D01*
X004970Y018441D01*
X005040Y018271D01*
X005040Y018088D01*
X004970Y017919D01*
X004841Y017790D01*
X004671Y017720D01*
X004488Y017720D01*
X004319Y017790D01*
X004190Y017919D01*
X004120Y018088D01*
X004120Y018271D01*
X004129Y018292D01*
X003881Y018540D01*
X003866Y018540D01*
X003800Y018474D01*
X003828Y018458D01*
X003858Y018428D01*
X003879Y018392D01*
X003890Y018351D01*
X003890Y018180D01*
X003580Y018180D01*
X003580Y018180D01*
X003890Y018180D01*
X003890Y018009D01*
X003879Y017968D01*
X003858Y017932D01*
X004185Y017932D01*
X004120Y018091D02*
X003890Y018091D01*
X003890Y018249D02*
X004120Y018249D01*
X004013Y018408D02*
X003870Y018408D01*
X003580Y018180D02*
X003580Y017870D01*
X003751Y017870D01*
X003792Y017881D01*
X003828Y017902D01*
X003858Y017932D01*
X003580Y017932D02*
X003580Y017932D01*
X003580Y017870D02*
X003580Y018180D01*
X003580Y018180D01*
X003580Y018180D01*
X003270Y018180D01*
X003270Y018351D01*
X003281Y018392D01*
X003302Y018428D01*
X003332Y018458D01*
X003360Y018474D01*
X003294Y018540D01*
X002879Y018540D01*
X002820Y018481D01*
X002820Y018416D01*
X002890Y018346D01*
X002890Y017414D01*
X002796Y017320D01*
X002364Y017320D01*
X002270Y017414D01*
X002270Y018346D01*
X002340Y018416D01*
X002340Y018628D01*
X002377Y018716D01*
X002441Y018780D01*
X002377Y018844D01*
X002340Y018932D01*
X002340Y019544D01*
X002270Y019614D01*
X002270Y020546D01*
X002364Y020640D01*
X002796Y020640D01*
X002890Y020546D01*
X002890Y019614D01*
X002820Y019517D02*
X022400Y019517D01*
X022400Y019359D02*
X002820Y019359D01*
X002820Y019200D02*
X022400Y019200D01*
X022400Y019042D02*
X003845Y019042D01*
X004216Y018883D02*
X022400Y018883D01*
X022400Y018725D02*
X004375Y018725D01*
X003980Y018780D02*
X004580Y018180D01*
X004984Y018408D02*
X005676Y018408D01*
X005690Y018441D02*
X005620Y018271D01*
X005620Y018088D01*
X005690Y017919D01*
X005819Y017790D01*
X005988Y017720D01*
X006171Y017720D01*
X006341Y017790D01*
X006470Y017919D01*
X006540Y018088D01*
X006540Y018271D01*
X006470Y018441D01*
X006341Y018570D01*
X006171Y018640D01*
X005988Y018640D01*
X005819Y018570D01*
X005690Y018441D01*
X005815Y018566D02*
X004845Y018566D01*
X005040Y018249D02*
X005620Y018249D01*
X005620Y018091D02*
X005040Y018091D01*
X004975Y017932D02*
X005685Y017932D01*
X005859Y017774D02*
X004801Y017774D01*
X004359Y017774D02*
X002890Y017774D01*
X002890Y017932D02*
X003302Y017932D01*
X003332Y017902D01*
X003368Y017881D01*
X003409Y017870D01*
X003580Y017870D01*
X003580Y018091D02*
X003580Y018091D01*
X003580Y018180D02*
X003270Y018180D01*
X003270Y018009D01*
X003281Y017968D01*
X003302Y017932D01*
X003270Y018091D02*
X002890Y018091D01*
X002890Y018249D02*
X003270Y018249D01*
X003290Y018408D02*
X002829Y018408D01*
X002580Y018580D02*
X002780Y018780D01*
X002580Y018980D01*
X002580Y020080D01*
X002270Y020151D02*
X001390Y020151D01*
X001390Y019993D02*
X002270Y019993D01*
X002270Y019834D02*
X001390Y019834D01*
X001390Y019676D02*
X002270Y019676D01*
X002340Y019517D02*
X001320Y019517D01*
X001320Y019359D02*
X002340Y019359D01*
X002340Y019200D02*
X001320Y019200D01*
X001320Y019042D02*
X002340Y019042D01*
X002360Y018883D02*
X001320Y018883D01*
X001320Y018725D02*
X002385Y018725D01*
X002340Y018566D02*
X001320Y018566D01*
X001329Y018408D02*
X002331Y018408D01*
X002270Y018249D02*
X001390Y018249D01*
X001390Y018091D02*
X002270Y018091D01*
X002270Y017932D02*
X001390Y017932D01*
X001390Y017774D02*
X002270Y017774D01*
X002270Y017615D02*
X001390Y017615D01*
X001390Y017457D02*
X002270Y017457D01*
X002080Y017140D02*
X002080Y017140D01*
X002080Y016981D02*
X002080Y016981D01*
X002080Y016930D02*
X002080Y016620D01*
X002080Y016930D01*
X002080Y016930D01*
X002080Y016823D02*
X002080Y016823D01*
X002080Y016664D02*
X002080Y016664D01*
X001820Y016664D02*
X001740Y016664D01*
X001480Y016930D02*
X000930Y016930D01*
X000930Y017180D01*
X001080Y017330D01*
X001080Y017880D01*
X001080Y020080D01*
X001390Y020310D02*
X002270Y020310D01*
X002270Y020468D02*
X001390Y020468D01*
X001310Y020627D02*
X002350Y020627D01*
X002810Y020627D02*
X005956Y020627D01*
X005988Y020640D02*
X005819Y020570D01*
X005690Y020441D01*
X005620Y020271D01*
X005620Y020088D01*
X005690Y019919D01*
X005819Y019790D01*
X005988Y019720D01*
X006171Y019720D01*
X006341Y019790D01*
X006470Y019919D01*
X006540Y020088D01*
X006540Y020271D01*
X006470Y020441D01*
X006341Y020570D01*
X006171Y020640D01*
X005988Y020640D01*
X006204Y020627D02*
X006966Y020627D01*
X006972Y020629D02*
X006903Y020606D01*
X006839Y020573D01*
X006780Y020531D01*
X006729Y020480D01*
X006687Y020421D01*
X006654Y020357D01*
X006631Y020288D01*
X006620Y020216D01*
X006620Y020200D01*
X007060Y020200D01*
X007060Y020640D01*
X007044Y020640D01*
X006972Y020629D01*
X007060Y020627D02*
X007100Y020627D01*
X007100Y020640D02*
X007100Y020200D01*
X007060Y020200D01*
X007060Y020160D01*
X006620Y020160D01*
X006620Y020144D01*
X006631Y020072D01*
X006654Y020003D01*
X006687Y019939D01*
X006729Y019880D01*
X006780Y019829D01*
X006839Y019787D01*
X006903Y019754D01*
X006972Y019731D01*
X007044Y019720D01*
X007060Y019720D01*
X007060Y020160D01*
X007100Y020160D01*
X007100Y020200D01*
X007540Y020200D01*
X007540Y020216D01*
X007529Y020288D01*
X007506Y020357D01*
X007473Y020421D01*
X007431Y020480D01*
X007380Y020531D01*
X007321Y020573D01*
X007257Y020606D01*
X007188Y020629D01*
X007116Y020640D01*
X007100Y020640D01*
X007194Y020627D02*
X007956Y020627D01*
X007988Y020640D02*
X007819Y020570D01*
X007690Y020441D01*
X007620Y020271D01*
X007620Y020088D01*
X007690Y019919D01*
X007819Y019790D01*
X007988Y019720D01*
X008171Y019720D01*
X008341Y019790D01*
X008470Y019919D01*
X008540Y020088D01*
X008540Y020271D01*
X008470Y020441D01*
X008341Y020570D01*
X008171Y020640D01*
X007988Y020640D01*
X008204Y020627D02*
X008956Y020627D01*
X008988Y020640D02*
X008819Y020570D01*
X008690Y020441D01*
X008620Y020271D01*
X008620Y020088D01*
X008690Y019919D01*
X008819Y019790D01*
X008988Y019720D01*
X009171Y019720D01*
X009341Y019790D01*
X009470Y019919D01*
X009540Y020088D01*
X009540Y020271D01*
X009470Y020441D01*
X009341Y020570D01*
X009171Y020640D01*
X008988Y020640D01*
X009204Y020627D02*
X009956Y020627D01*
X009988Y020640D02*
X009819Y020570D01*
X009690Y020441D01*
X009620Y020271D01*
X009620Y020088D01*
X009690Y019919D01*
X009819Y019790D01*
X009988Y019720D01*
X010171Y019720D01*
X010341Y019790D01*
X010470Y019919D01*
X010540Y020088D01*
X010540Y020271D01*
X010470Y020441D01*
X010341Y020570D01*
X010171Y020640D01*
X009988Y020640D01*
X010204Y020627D02*
X010956Y020627D01*
X010988Y020640D02*
X010819Y020570D01*
X010690Y020441D01*
X010620Y020271D01*
X010620Y020088D01*
X010690Y019919D01*
X010819Y019790D01*
X010988Y019720D01*
X011171Y019720D01*
X011341Y019790D01*
X011470Y019919D01*
X011540Y020088D01*
X011540Y020271D01*
X011470Y020441D01*
X011341Y020570D01*
X011171Y020640D01*
X010988Y020640D01*
X011204Y020627D02*
X011956Y020627D01*
X011988Y020640D02*
X011819Y020570D01*
X011690Y020441D01*
X011620Y020271D01*
X011620Y020088D01*
X011690Y019919D01*
X011819Y019790D01*
X011988Y019720D01*
X012171Y019720D01*
X012341Y019790D01*
X012470Y019919D01*
X012540Y020088D01*
X012540Y020271D01*
X012470Y020441D01*
X012341Y020570D01*
X012171Y020640D01*
X011988Y020640D01*
X012204Y020627D02*
X012700Y020627D01*
X012714Y020640D02*
X012620Y020546D01*
X012620Y019814D01*
X012714Y019720D01*
X013446Y019720D01*
X013540Y019814D01*
X013540Y020546D01*
X013446Y020640D01*
X012714Y020640D01*
X012620Y020468D02*
X012443Y020468D01*
X012524Y020310D02*
X012620Y020310D01*
X012620Y020151D02*
X012540Y020151D01*
X012500Y019993D02*
X012620Y019993D01*
X012620Y019834D02*
X012385Y019834D01*
X011775Y019834D02*
X011385Y019834D01*
X011500Y019993D02*
X011660Y019993D01*
X011620Y020151D02*
X011540Y020151D01*
X011524Y020310D02*
X011636Y020310D01*
X011717Y020468D02*
X011443Y020468D01*
X010717Y020468D02*
X010443Y020468D01*
X010524Y020310D02*
X010636Y020310D01*
X010620Y020151D02*
X010540Y020151D01*
X010500Y019993D02*
X010660Y019993D01*
X010775Y019834D02*
X010385Y019834D01*
X009775Y019834D02*
X009385Y019834D01*
X009500Y019993D02*
X009660Y019993D01*
X009620Y020151D02*
X009540Y020151D01*
X009524Y020310D02*
X009636Y020310D01*
X009717Y020468D02*
X009443Y020468D01*
X008717Y020468D02*
X008443Y020468D01*
X008524Y020310D02*
X008636Y020310D01*
X008620Y020151D02*
X008540Y020151D01*
X008500Y019993D02*
X008660Y019993D01*
X008775Y019834D02*
X008385Y019834D01*
X007775Y019834D02*
X007385Y019834D01*
X007380Y019829D02*
X007431Y019880D01*
X007473Y019939D01*
X007506Y020003D01*
X007529Y020072D01*
X007540Y020144D01*
X007540Y020160D01*
X007100Y020160D01*
X007100Y019720D01*
X007116Y019720D01*
X007188Y019731D01*
X007257Y019754D01*
X007321Y019787D01*
X007380Y019829D01*
X007501Y019993D02*
X007660Y019993D01*
X007620Y020151D02*
X007540Y020151D01*
X007522Y020310D02*
X007636Y020310D01*
X007717Y020468D02*
X007439Y020468D01*
X007100Y020468D02*
X007060Y020468D01*
X007060Y020310D02*
X007100Y020310D01*
X007100Y020151D02*
X007060Y020151D01*
X007060Y019993D02*
X007100Y019993D01*
X007100Y019834D02*
X007060Y019834D01*
X006775Y019834D02*
X006385Y019834D01*
X006500Y019993D02*
X006659Y019993D01*
X006620Y020151D02*
X006540Y020151D01*
X006524Y020310D02*
X006638Y020310D01*
X006721Y020468D02*
X006443Y020468D01*
X005775Y019834D02*
X002890Y019834D01*
X002890Y019993D02*
X005660Y019993D01*
X005620Y020151D02*
X002890Y020151D01*
X002890Y020310D02*
X005636Y020310D01*
X005717Y020468D02*
X002890Y020468D01*
X002858Y019042D02*
X003315Y019042D01*
X003580Y018780D02*
X002780Y018780D01*
X002580Y018580D02*
X002580Y017880D01*
X002890Y017615D02*
X022400Y017615D01*
X022400Y017457D02*
X002890Y017457D01*
X003269Y016240D02*
X002971Y016117D01*
X002743Y015889D01*
X002620Y015591D01*
X002620Y015269D01*
X002743Y014971D01*
X002971Y014743D01*
X003269Y014620D01*
X003591Y014620D01*
X003889Y014743D01*
X004117Y014971D01*
X004240Y015269D01*
X004240Y015591D01*
X004117Y015889D01*
X003889Y016117D01*
X003591Y016240D01*
X003269Y016240D01*
X003145Y016189D02*
X000460Y016189D01*
X000460Y016347D02*
X008120Y016347D01*
X008120Y016480D02*
X008430Y016480D01*
X008430Y016480D01*
X008120Y016480D01*
X008430Y016506D02*
X008430Y016506D01*
X008430Y016664D02*
X008430Y016664D01*
X008737Y016664D02*
X008750Y016664D01*
X008205Y016189D02*
X003715Y016189D01*
X003975Y016030D02*
X008120Y016030D01*
X008120Y015872D02*
X004124Y015872D01*
X004190Y015713D02*
X008120Y015713D01*
X008190Y015555D02*
X004240Y015555D01*
X004240Y015396D02*
X005980Y015396D01*
X005960Y015238D02*
X004227Y015238D01*
X004161Y015079D02*
X005960Y015079D01*
X006004Y014921D02*
X004066Y014921D01*
X003908Y014762D02*
X005673Y014762D01*
X005514Y014604D02*
X000460Y014604D01*
X000460Y014762D02*
X002952Y014762D01*
X002794Y014921D02*
X000460Y014921D01*
X000460Y015079D02*
X002699Y015079D01*
X002633Y015238D02*
X000460Y015238D01*
X000460Y015396D02*
X002620Y015396D01*
X002620Y015555D02*
X000460Y015555D01*
X000460Y015713D02*
X002670Y015713D01*
X002736Y015872D02*
X000460Y015872D01*
X000460Y016030D02*
X002885Y016030D01*
X001480Y016930D02*
X001430Y016930D01*
X001220Y016664D02*
X001143Y016664D01*
X001320Y017298D02*
X022400Y017298D01*
X022046Y017720D02*
X022140Y017814D01*
X022140Y018546D01*
X022046Y018640D01*
X021314Y018640D01*
X021220Y018546D01*
X021220Y017814D01*
X021314Y017720D01*
X022046Y017720D01*
X022100Y017774D02*
X022400Y017774D01*
X022400Y017932D02*
X022140Y017932D01*
X022140Y018091D02*
X022400Y018091D01*
X022400Y018249D02*
X022140Y018249D01*
X022140Y018408D02*
X022400Y018408D01*
X022400Y018566D02*
X022120Y018566D01*
X021240Y018566D02*
X020945Y018566D01*
X020941Y018570D02*
X020771Y018640D01*
X020588Y018640D01*
X020419Y018570D01*
X020290Y018441D01*
X020220Y018271D01*
X020220Y018088D01*
X020290Y017919D01*
X020419Y017790D01*
X020588Y017720D01*
X020771Y017720D01*
X020941Y017790D01*
X021070Y017919D01*
X021140Y018088D01*
X021140Y018271D01*
X021070Y018441D01*
X020941Y018570D01*
X021084Y018408D02*
X021220Y018408D01*
X021220Y018249D02*
X021140Y018249D01*
X021140Y018091D02*
X021220Y018091D01*
X021220Y017932D02*
X021075Y017932D01*
X020901Y017774D02*
X021260Y017774D01*
X021273Y017140D02*
X021813Y017140D01*
X021087Y017140D02*
X020273Y017140D01*
X019941Y017790D02*
X019771Y017720D01*
X019588Y017720D01*
X019419Y017790D01*
X019290Y017919D01*
X019220Y018088D01*
X019220Y018271D01*
X019290Y018441D01*
X019419Y018570D01*
X019588Y018640D01*
X019771Y018640D01*
X019941Y018570D01*
X020070Y018441D01*
X020140Y018271D01*
X020140Y018088D01*
X020070Y017919D01*
X019941Y017790D01*
X019901Y017774D02*
X020459Y017774D01*
X020285Y017932D02*
X020075Y017932D01*
X020140Y018091D02*
X020220Y018091D01*
X020220Y018249D02*
X020140Y018249D01*
X020084Y018408D02*
X020276Y018408D01*
X020415Y018566D02*
X019945Y018566D01*
X019415Y018566D02*
X018945Y018566D01*
X018941Y018570D02*
X018771Y018640D01*
X018588Y018640D01*
X018419Y018570D01*
X018290Y018441D01*
X018220Y018271D01*
X018220Y018088D01*
X018290Y017919D01*
X018419Y017790D01*
X018588Y017720D01*
X018771Y017720D01*
X018941Y017790D01*
X019070Y017919D01*
X019140Y018088D01*
X019140Y018271D01*
X019070Y018441D01*
X018941Y018570D01*
X019084Y018408D02*
X019276Y018408D01*
X019220Y018249D02*
X019140Y018249D01*
X019140Y018091D02*
X019220Y018091D01*
X019285Y017932D02*
X019075Y017932D01*
X018901Y017774D02*
X019459Y017774D01*
X018459Y017774D02*
X017901Y017774D01*
X017941Y017790D02*
X018070Y017919D01*
X018140Y018088D01*
X018140Y018271D01*
X018070Y018441D01*
X017941Y018570D01*
X017771Y018640D01*
X017588Y018640D01*
X017419Y018570D01*
X017290Y018441D01*
X017220Y018271D01*
X017220Y018088D01*
X017290Y017919D01*
X017419Y017790D01*
X017588Y017720D01*
X017771Y017720D01*
X017941Y017790D01*
X018075Y017932D02*
X018285Y017932D01*
X018220Y018091D02*
X018140Y018091D01*
X018140Y018249D02*
X018220Y018249D01*
X018276Y018408D02*
X018084Y018408D01*
X017945Y018566D02*
X018415Y018566D01*
X017459Y017774D02*
X016901Y017774D01*
X016941Y017790D02*
X017070Y017919D01*
X017140Y018088D01*
X017140Y018271D01*
X017070Y018441D01*
X016941Y018570D01*
X016771Y018640D01*
X016588Y018640D01*
X016419Y018570D01*
X016290Y018441D01*
X016220Y018271D01*
X016220Y018088D01*
X016290Y017919D01*
X016419Y017790D01*
X016588Y017720D01*
X016771Y017720D01*
X016941Y017790D01*
X017075Y017932D02*
X017285Y017932D01*
X017220Y018091D02*
X017140Y018091D01*
X017140Y018249D02*
X017220Y018249D01*
X017276Y018408D02*
X017084Y018408D01*
X016945Y018566D02*
X017415Y018566D01*
X016415Y018566D02*
X015945Y018566D01*
X015941Y018570D02*
X015771Y018640D01*
X015588Y018640D01*
X015419Y018570D01*
X015290Y018441D01*
X015220Y018271D01*
X015220Y018088D01*
X015290Y017919D01*
X015419Y017790D01*
X015588Y017720D01*
X015771Y017720D01*
X015941Y017790D01*
X016070Y017919D01*
X016140Y018088D01*
X016140Y018271D01*
X016070Y018441D01*
X015941Y018570D01*
X016084Y018408D02*
X016276Y018408D01*
X016220Y018249D02*
X016140Y018249D01*
X016140Y018091D02*
X016220Y018091D01*
X016285Y017932D02*
X016075Y017932D01*
X015901Y017774D02*
X016459Y017774D01*
X015459Y017774D02*
X014901Y017774D01*
X014941Y017790D02*
X015070Y017919D01*
X015140Y018088D01*
X015140Y018271D01*
X015070Y018441D01*
X014941Y018570D01*
X014771Y018640D01*
X014588Y018640D01*
X014419Y018570D01*
X014290Y018441D01*
X014220Y018271D01*
X014220Y018088D01*
X014290Y017919D01*
X014419Y017790D01*
X014588Y017720D01*
X014771Y017720D01*
X014941Y017790D01*
X015075Y017932D02*
X015285Y017932D01*
X015220Y018091D02*
X015140Y018091D01*
X015140Y018249D02*
X015220Y018249D01*
X015276Y018408D02*
X015084Y018408D01*
X014945Y018566D02*
X015415Y018566D01*
X014415Y018566D02*
X013520Y018566D01*
X013540Y018546D02*
X013446Y018640D01*
X012714Y018640D01*
X012620Y018546D01*
X012620Y017814D01*
X012714Y017720D01*
X013446Y017720D01*
X013540Y017814D01*
X013540Y018546D01*
X013540Y018408D02*
X014276Y018408D01*
X014220Y018249D02*
X013540Y018249D01*
X013540Y018091D02*
X014220Y018091D01*
X014285Y017932D02*
X013540Y017932D01*
X013500Y017774D02*
X014459Y017774D01*
X014186Y016347D02*
X014862Y016347D01*
X015498Y016347D02*
X015862Y016347D01*
X015919Y016070D02*
X015790Y015941D01*
X015720Y015771D01*
X015720Y015588D01*
X015790Y015419D01*
X015919Y015290D01*
X016088Y015220D01*
X016271Y015220D01*
X016441Y015290D01*
X016570Y015419D01*
X016640Y015588D01*
X016640Y015771D01*
X016570Y015941D01*
X016441Y016070D01*
X016271Y016140D01*
X016088Y016140D01*
X015919Y016070D01*
X015879Y016030D02*
X015481Y016030D01*
X015599Y015872D02*
X015761Y015872D01*
X015720Y015713D02*
X015640Y015713D01*
X015626Y015555D02*
X015734Y015555D01*
X015813Y015396D02*
X015547Y015396D01*
X015314Y015238D02*
X016046Y015238D01*
X016314Y015238D02*
X017046Y015238D01*
X017088Y015220D02*
X017271Y015220D01*
X017441Y015290D01*
X017570Y015419D01*
X017640Y015588D01*
X017640Y015771D01*
X017570Y015941D01*
X017441Y016070D01*
X017271Y016140D01*
X017088Y016140D01*
X016919Y016070D01*
X016790Y015941D01*
X016720Y015771D01*
X016720Y015588D01*
X016790Y015419D01*
X016919Y015290D01*
X017088Y015220D01*
X016941Y015079D02*
X015607Y015079D01*
X015640Y015046D02*
X015546Y015140D01*
X014814Y015140D01*
X014720Y015046D01*
X014720Y014314D01*
X014814Y014220D01*
X015546Y014220D01*
X015640Y014314D01*
X015640Y015046D01*
X015640Y014921D02*
X016782Y014921D01*
X016720Y014762D02*
X015640Y014762D01*
X015640Y014604D02*
X016720Y014604D01*
X016779Y014445D02*
X015640Y014445D01*
X015613Y014287D02*
X016928Y014287D01*
X017060Y014128D02*
X015300Y014128D01*
X015271Y014140D02*
X015088Y014140D01*
X014919Y014070D01*
X014790Y013941D01*
X014720Y013771D01*
X014720Y013588D01*
X014790Y013419D01*
X014919Y013290D01*
X015088Y013220D01*
X015271Y013220D01*
X015441Y013290D01*
X015570Y013419D01*
X015640Y013588D01*
X015640Y013771D01*
X015570Y013941D01*
X015441Y014070D01*
X015271Y014140D01*
X015060Y014128D02*
X013586Y014128D01*
X013737Y014287D02*
X014747Y014287D01*
X014720Y014445D02*
X013769Y014445D01*
X013725Y014604D02*
X014720Y014604D01*
X014720Y014762D02*
X013740Y014762D01*
X013740Y014921D02*
X014720Y014921D01*
X014753Y015079D02*
X013740Y015079D01*
X013714Y015238D02*
X015046Y015238D01*
X014813Y015396D02*
X013740Y015396D01*
X013430Y014880D02*
X013430Y014430D01*
X013055Y014155D02*
X012930Y014280D01*
X013055Y014155D02*
X013055Y013805D01*
X013354Y013970D02*
X014819Y013970D01*
X014736Y013811D02*
X014360Y013811D01*
X014519Y013653D02*
X014720Y013653D01*
X014759Y013494D02*
X014677Y013494D01*
X014836Y013336D02*
X014874Y013336D01*
X014900Y013177D02*
X023400Y013177D01*
X023400Y013019D02*
X022492Y013019D01*
X022441Y013070D02*
X022570Y012941D01*
X022640Y012771D01*
X022640Y012588D01*
X022570Y012419D01*
X022441Y012290D01*
X022271Y012220D01*
X022088Y012220D01*
X021919Y012290D01*
X021790Y012419D01*
X021720Y012588D01*
X021720Y012771D01*
X021790Y012941D01*
X021919Y013070D01*
X022088Y013140D01*
X022271Y013140D01*
X022441Y013070D01*
X022603Y012860D02*
X023400Y012860D01*
X023400Y012702D02*
X022640Y012702D01*
X022621Y012543D02*
X023400Y012543D01*
X023400Y012385D02*
X022535Y012385D01*
X022286Y012226D02*
X023400Y012226D01*
X023400Y012068D02*
X022443Y012068D01*
X022441Y012070D02*
X022271Y012140D01*
X022088Y012140D01*
X021919Y012070D01*
X021790Y011941D01*
X021720Y011771D01*
X021720Y011588D01*
X021790Y011419D01*
X021919Y011290D01*
X022088Y011220D01*
X022271Y011220D01*
X022441Y011290D01*
X022570Y011419D01*
X022640Y011588D01*
X022640Y011771D01*
X022570Y011941D01*
X022441Y012070D01*
X022583Y011909D02*
X023400Y011909D01*
X023400Y011751D02*
X022640Y011751D01*
X022640Y011592D02*
X023400Y011592D01*
X023400Y011434D02*
X022576Y011434D01*
X022404Y011275D02*
X023400Y011275D01*
X023400Y011117D02*
X022328Y011117D01*
X022553Y010958D02*
X023400Y010958D01*
X023400Y010800D02*
X022628Y010800D01*
X022640Y010641D02*
X023400Y010641D01*
X023400Y010483D02*
X022596Y010483D01*
X021885Y010324D02*
X021475Y010324D01*
X021441Y010290D02*
X021570Y010419D01*
X021640Y010588D01*
X021640Y010771D01*
X021570Y010941D01*
X021441Y011070D01*
X021271Y011140D01*
X021088Y011140D01*
X020919Y011070D01*
X020790Y010941D01*
X020720Y010771D01*
X020720Y010588D01*
X020790Y010419D01*
X020919Y010290D01*
X021088Y010220D01*
X021271Y010220D01*
X021441Y010290D01*
X021441Y010070D02*
X021271Y010140D01*
X021088Y010140D01*
X020919Y010070D01*
X020790Y009941D01*
X020720Y009771D01*
X020720Y009588D01*
X020790Y009419D01*
X020919Y009290D01*
X021088Y009220D01*
X021271Y009220D01*
X021441Y009290D01*
X021570Y009419D01*
X021640Y009588D01*
X021640Y009771D01*
X021570Y009941D01*
X021441Y010070D01*
X021504Y010007D02*
X021856Y010007D01*
X021752Y009849D02*
X021608Y009849D01*
X021640Y009690D02*
X021720Y009690D01*
X021744Y009532D02*
X021616Y009532D01*
X021524Y009373D02*
X021836Y009373D01*
X021919Y009070D02*
X021790Y008941D01*
X021720Y008771D01*
X021720Y008588D01*
X021790Y008419D01*
X021919Y008290D01*
X022088Y008220D01*
X022271Y008220D01*
X022441Y008290D01*
X022570Y008419D01*
X022640Y008588D01*
X022640Y008771D01*
X022570Y008941D01*
X022441Y009070D01*
X022271Y009140D01*
X022088Y009140D01*
X021919Y009070D01*
X021905Y009056D02*
X021455Y009056D01*
X021441Y009070D02*
X021271Y009140D01*
X021088Y009140D01*
X020919Y009070D01*
X020790Y008941D01*
X020720Y008771D01*
X020720Y008588D01*
X020790Y008419D01*
X020919Y008290D01*
X021088Y008220D01*
X021271Y008220D01*
X021441Y008290D01*
X021570Y008419D01*
X021640Y008588D01*
X021640Y008771D01*
X021570Y008941D01*
X021441Y009070D01*
X021588Y008898D02*
X021772Y008898D01*
X021720Y008739D02*
X021640Y008739D01*
X021637Y008581D02*
X021723Y008581D01*
X021789Y008422D02*
X021571Y008422D01*
X021377Y008264D02*
X021983Y008264D01*
X022004Y008105D02*
X021356Y008105D01*
X021441Y008070D02*
X021271Y008140D01*
X021088Y008140D01*
X020919Y008070D01*
X020790Y007941D01*
X020720Y007771D01*
X020720Y007588D01*
X020790Y007419D01*
X020919Y007290D01*
X021088Y007220D01*
X021271Y007220D01*
X021441Y007290D01*
X021570Y007419D01*
X021640Y007588D01*
X021640Y007771D01*
X021570Y007941D01*
X021441Y008070D01*
X021564Y007947D02*
X021796Y007947D01*
X021790Y007941D02*
X021720Y007771D01*
X021720Y007588D01*
X021790Y007419D01*
X021919Y007290D01*
X022088Y007220D01*
X022271Y007220D01*
X022441Y007290D01*
X022570Y007419D01*
X022640Y007588D01*
X022640Y007771D01*
X022570Y007941D01*
X022441Y008070D01*
X022271Y008140D01*
X022088Y008140D01*
X021919Y008070D01*
X021790Y007941D01*
X021727Y007788D02*
X021633Y007788D01*
X021640Y007630D02*
X021720Y007630D01*
X021769Y007471D02*
X021591Y007471D01*
X021463Y007313D02*
X021897Y007313D01*
X021919Y007070D02*
X021790Y006941D01*
X021720Y006771D01*
X021720Y006588D01*
X021790Y006419D01*
X021919Y006290D01*
X022088Y006220D01*
X022271Y006220D01*
X022441Y006290D01*
X022570Y006419D01*
X022640Y006588D01*
X022640Y006771D01*
X022570Y006941D01*
X022441Y007070D01*
X022271Y007140D01*
X022088Y007140D01*
X021919Y007070D01*
X021845Y006996D02*
X021515Y006996D01*
X021570Y006941D02*
X021441Y007070D01*
X021271Y007140D01*
X021088Y007140D01*
X020919Y007070D01*
X020790Y006941D01*
X020720Y006771D01*
X020720Y006588D01*
X020790Y006419D01*
X020919Y006290D01*
X021088Y006220D01*
X021271Y006220D01*
X021441Y006290D01*
X021570Y006419D01*
X021640Y006588D01*
X021640Y006771D01*
X021570Y006941D01*
X021613Y006837D02*
X021747Y006837D01*
X021720Y006679D02*
X021640Y006679D01*
X021612Y006520D02*
X021748Y006520D01*
X021848Y006362D02*
X021512Y006362D01*
X021466Y006045D02*
X021894Y006045D01*
X021767Y005886D02*
X021593Y005886D01*
X021640Y005728D02*
X021720Y005728D01*
X021728Y005569D02*
X021632Y005569D01*
X021561Y005411D02*
X021799Y005411D01*
X022011Y005252D02*
X021349Y005252D01*
X021382Y005094D02*
X021767Y005094D01*
X021720Y004935D02*
X021563Y004935D01*
X021630Y004777D02*
X021720Y004777D01*
X021720Y004618D02*
X021636Y004618D01*
X021584Y004460D02*
X021720Y004460D01*
X020919Y004301D02*
X020441Y004301D01*
X020584Y004460D02*
X020776Y004460D01*
X020724Y004618D02*
X020636Y004618D01*
X020630Y004777D02*
X020730Y004777D01*
X020797Y004935D02*
X020563Y004935D01*
X020382Y005094D02*
X020978Y005094D01*
X020799Y005411D02*
X020561Y005411D01*
X020632Y005569D02*
X020728Y005569D01*
X020720Y005728D02*
X020640Y005728D01*
X020593Y005886D02*
X020767Y005886D01*
X020894Y006045D02*
X020466Y006045D01*
X020441Y006290D02*
X020271Y006220D01*
X020088Y006220D01*
X019919Y006290D01*
X019790Y006419D01*
X019720Y006588D01*
X019720Y006771D01*
X019790Y006941D01*
X019919Y007070D01*
X020088Y007140D01*
X020271Y007140D01*
X020441Y007070D01*
X020570Y006941D01*
X020640Y006771D01*
X020640Y006588D01*
X020570Y006419D01*
X020441Y006290D01*
X020512Y006362D02*
X020848Y006362D01*
X020748Y006520D02*
X020612Y006520D01*
X020640Y006679D02*
X020720Y006679D01*
X020747Y006837D02*
X020613Y006837D01*
X020515Y006996D02*
X020845Y006996D01*
X020897Y007313D02*
X020463Y007313D01*
X020441Y007290D02*
X020570Y007419D01*
X020640Y007588D01*
X020640Y007771D01*
X020570Y007941D01*
X020441Y008070D01*
X020271Y008140D01*
X020088Y008140D01*
X019919Y008070D01*
X019790Y007941D01*
X019720Y007771D01*
X019720Y007588D01*
X019790Y007419D01*
X019919Y007290D01*
X020088Y007220D01*
X020271Y007220D01*
X020441Y007290D01*
X020591Y007471D02*
X020769Y007471D01*
X020720Y007630D02*
X020640Y007630D01*
X020633Y007788D02*
X020727Y007788D01*
X020796Y007947D02*
X020564Y007947D01*
X020356Y008105D02*
X021004Y008105D01*
X020983Y008264D02*
X020377Y008264D01*
X020441Y008290D02*
X020570Y008419D01*
X020640Y008588D01*
X020640Y008771D01*
X020570Y008941D01*
X020441Y009070D01*
X020271Y009140D01*
X020088Y009140D01*
X019919Y009070D01*
X019790Y008941D01*
X019720Y008771D01*
X019720Y008588D01*
X019790Y008419D01*
X019919Y008290D01*
X020088Y008220D01*
X020271Y008220D01*
X020441Y008290D01*
X020571Y008422D02*
X020789Y008422D01*
X020723Y008581D02*
X020637Y008581D01*
X020640Y008739D02*
X020720Y008739D01*
X020772Y008898D02*
X020588Y008898D01*
X020455Y009056D02*
X020905Y009056D01*
X020836Y009373D02*
X020524Y009373D01*
X020570Y009419D02*
X020640Y009588D01*
X020640Y009771D01*
X020570Y009941D01*
X020441Y010070D01*
X020271Y010140D01*
X020088Y010140D01*
X019919Y010070D01*
X019790Y009941D01*
X019720Y009771D01*
X019720Y009588D01*
X019790Y009419D01*
X019919Y009290D01*
X020088Y009220D01*
X020271Y009220D01*
X020441Y009290D01*
X020570Y009419D01*
X020616Y009532D02*
X020744Y009532D01*
X020720Y009690D02*
X020640Y009690D01*
X020608Y009849D02*
X020752Y009849D01*
X020856Y010007D02*
X020504Y010007D01*
X020441Y010290D02*
X020271Y010220D01*
X020088Y010220D01*
X019919Y010290D01*
X019790Y010419D01*
X019720Y010588D01*
X019720Y010771D01*
X019790Y010941D01*
X019919Y011070D01*
X020088Y011140D01*
X020271Y011140D01*
X020441Y011070D01*
X020570Y010941D01*
X020640Y010771D01*
X020640Y010588D01*
X020570Y010419D01*
X020441Y010290D01*
X020475Y010324D02*
X020885Y010324D01*
X020764Y010483D02*
X020596Y010483D01*
X020640Y010641D02*
X020720Y010641D01*
X020732Y010800D02*
X020628Y010800D01*
X020553Y010958D02*
X020807Y010958D01*
X021032Y011117D02*
X020328Y011117D01*
X020271Y011220D02*
X020441Y011290D01*
X020570Y011419D01*
X020640Y011588D01*
X020640Y011771D01*
X020570Y011941D01*
X020441Y012070D01*
X020271Y012140D01*
X020088Y012140D01*
X019919Y012070D01*
X019790Y011941D01*
X019720Y011771D01*
X019720Y011588D01*
X019790Y011419D01*
X019919Y011290D01*
X020088Y011220D01*
X020271Y011220D01*
X020404Y011275D02*
X020956Y011275D01*
X020919Y011290D02*
X021088Y011220D01*
X021271Y011220D01*
X021441Y011290D01*
X021570Y011419D01*
X021640Y011588D01*
X021640Y011771D01*
X021570Y011941D01*
X021441Y012070D01*
X021271Y012140D01*
X021088Y012140D01*
X020919Y012070D01*
X020790Y011941D01*
X020720Y011771D01*
X020720Y011588D01*
X020790Y011419D01*
X020919Y011290D01*
X020784Y011434D02*
X020576Y011434D01*
X020640Y011592D02*
X020720Y011592D01*
X020720Y011751D02*
X020640Y011751D01*
X020583Y011909D02*
X020777Y011909D01*
X020917Y012068D02*
X020443Y012068D01*
X020441Y012290D02*
X020271Y012220D01*
X020088Y012220D01*
X019919Y012290D01*
X019790Y012419D01*
X019720Y012588D01*
X019720Y012771D01*
X019790Y012941D01*
X019919Y013070D01*
X020088Y013140D01*
X020271Y013140D01*
X020441Y013070D01*
X020570Y012941D01*
X020640Y012771D01*
X020640Y012588D01*
X020570Y012419D01*
X020441Y012290D01*
X020535Y012385D02*
X020825Y012385D01*
X020790Y012419D02*
X020919Y012290D01*
X021088Y012220D01*
X021271Y012220D01*
X021441Y012290D01*
X021570Y012419D01*
X021640Y012588D01*
X021640Y012771D01*
X021570Y012941D01*
X021441Y013070D01*
X021271Y013140D01*
X021088Y013140D01*
X020919Y013070D01*
X020790Y012941D01*
X020720Y012771D01*
X020720Y012588D01*
X020790Y012419D01*
X020739Y012543D02*
X020621Y012543D01*
X020640Y012702D02*
X020720Y012702D01*
X020757Y012860D02*
X020603Y012860D01*
X020492Y013019D02*
X020868Y013019D01*
X020874Y013336D02*
X020486Y013336D01*
X020601Y013494D02*
X020759Y013494D01*
X020720Y013653D02*
X020640Y013653D01*
X020624Y013811D02*
X020736Y013811D01*
X020819Y013970D02*
X020541Y013970D01*
X019819Y013970D02*
X019541Y013970D01*
X019624Y013811D02*
X019736Y013811D01*
X019720Y013653D02*
X019640Y013653D01*
X019601Y013494D02*
X019759Y013494D01*
X019874Y013336D02*
X019486Y013336D01*
X019492Y013019D02*
X019868Y013019D01*
X019757Y012860D02*
X019603Y012860D01*
X019640Y012702D02*
X019720Y012702D01*
X019739Y012543D02*
X019621Y012543D01*
X019535Y012385D02*
X019825Y012385D01*
X020074Y012226D02*
X019286Y012226D01*
X019443Y012068D02*
X019917Y012068D01*
X019777Y011909D02*
X019583Y011909D01*
X019640Y011751D02*
X019720Y011751D01*
X019720Y011592D02*
X019640Y011592D01*
X019576Y011434D02*
X019784Y011434D01*
X019956Y011275D02*
X019404Y011275D01*
X019328Y011117D02*
X020032Y011117D01*
X019807Y010958D02*
X019553Y010958D01*
X019628Y010800D02*
X019732Y010800D01*
X019720Y010641D02*
X019640Y010641D01*
X019596Y010483D02*
X019764Y010483D01*
X019885Y010324D02*
X019475Y010324D01*
X019504Y010007D02*
X019856Y010007D01*
X019752Y009849D02*
X019608Y009849D01*
X019640Y009690D02*
X019720Y009690D01*
X019744Y009532D02*
X019616Y009532D01*
X019524Y009373D02*
X019836Y009373D01*
X019905Y009056D02*
X019455Y009056D01*
X019588Y008898D02*
X019772Y008898D01*
X019720Y008739D02*
X019640Y008739D01*
X019637Y008581D02*
X019723Y008581D01*
X019789Y008422D02*
X019571Y008422D01*
X019377Y008264D02*
X019983Y008264D01*
X020004Y008105D02*
X019356Y008105D01*
X019564Y007947D02*
X019796Y007947D01*
X019727Y007788D02*
X019633Y007788D01*
X019640Y007630D02*
X019720Y007630D01*
X019769Y007471D02*
X019591Y007471D01*
X019463Y007313D02*
X019897Y007313D01*
X019845Y006996D02*
X019515Y006996D01*
X019613Y006837D02*
X019747Y006837D01*
X019720Y006679D02*
X019640Y006679D01*
X019612Y006520D02*
X019748Y006520D01*
X019848Y006362D02*
X019512Y006362D01*
X019466Y006045D02*
X019894Y006045D01*
X019767Y005886D02*
X019593Y005886D01*
X019640Y005728D02*
X019720Y005728D01*
X019728Y005569D02*
X019632Y005569D01*
X019561Y005411D02*
X019799Y005411D01*
X020011Y005252D02*
X019349Y005252D01*
X019382Y005094D02*
X019978Y005094D01*
X019797Y004935D02*
X019563Y004935D01*
X019630Y004777D02*
X019730Y004777D01*
X019724Y004618D02*
X019636Y004618D01*
X019584Y004460D02*
X019776Y004460D01*
X018358Y003509D02*
X018002Y003509D01*
X017941Y003570D02*
X017771Y003640D01*
X017588Y003640D01*
X017419Y003570D01*
X017290Y003441D01*
X017220Y003271D01*
X017220Y003088D01*
X017290Y002919D01*
X017419Y002790D01*
X017588Y002720D01*
X017771Y002720D01*
X017941Y002790D01*
X018070Y002919D01*
X018140Y003088D01*
X018140Y003271D01*
X018070Y003441D01*
X017941Y003570D01*
X018107Y003350D02*
X018253Y003350D01*
X018220Y003192D02*
X018140Y003192D01*
X018117Y003033D02*
X018243Y003033D01*
X018335Y002875D02*
X018025Y002875D01*
X017335Y002875D02*
X017025Y002875D01*
X017070Y002919D02*
X017140Y003088D01*
X017140Y003271D01*
X017070Y003441D01*
X016941Y003570D01*
X016771Y003640D01*
X016588Y003640D01*
X016419Y003570D01*
X016290Y003441D01*
X016220Y003271D01*
X016220Y003088D01*
X016290Y002919D01*
X016419Y002790D01*
X016588Y002720D01*
X016771Y002720D01*
X016941Y002790D01*
X017070Y002919D01*
X017117Y003033D02*
X017243Y003033D01*
X017220Y003192D02*
X017140Y003192D01*
X017107Y003350D02*
X017253Y003350D01*
X017358Y003509D02*
X017002Y003509D01*
X016358Y003509D02*
X015002Y003509D01*
X014941Y003570D02*
X014771Y003640D01*
X014588Y003640D01*
X014419Y003570D01*
X014290Y003441D01*
X014220Y003271D01*
X014220Y003088D01*
X014290Y002919D01*
X014419Y002790D01*
X014588Y002720D01*
X014771Y002720D01*
X014941Y002790D01*
X015070Y002919D01*
X015140Y003088D01*
X015140Y003271D01*
X015070Y003441D01*
X014941Y003570D01*
X015107Y003350D02*
X016253Y003350D01*
X016220Y003192D02*
X015140Y003192D01*
X015117Y003033D02*
X016243Y003033D01*
X016335Y002875D02*
X015025Y002875D01*
X014335Y002875D02*
X014025Y002875D01*
X014031Y002880D02*
X014073Y002939D01*
X014106Y003003D01*
X014129Y003072D01*
X014140Y003144D01*
X014140Y003160D01*
X013700Y003160D01*
X013700Y003200D01*
X013660Y003200D01*
X013660Y003640D01*
X013644Y003640D01*
X013572Y003629D01*
X013503Y003606D01*
X013439Y003573D01*
X013380Y003531D01*
X013329Y003480D01*
X013287Y003421D01*
X013254Y003357D01*
X013231Y003288D01*
X013220Y003216D01*
X013220Y003200D01*
X013660Y003200D01*
X013660Y003160D01*
X013220Y003160D01*
X013220Y003144D01*
X013231Y003072D01*
X013254Y003003D01*
X013287Y002939D01*
X013329Y002880D01*
X013380Y002829D01*
X013439Y002787D01*
X013503Y002754D01*
X013572Y002731D01*
X013644Y002720D01*
X013660Y002720D01*
X013660Y003160D01*
X013700Y003160D01*
X013700Y002720D01*
X013716Y002720D01*
X013788Y002731D01*
X013857Y002754D01*
X013921Y002787D01*
X013980Y002829D01*
X014031Y002880D01*
X014116Y003033D02*
X014243Y003033D01*
X014220Y003192D02*
X013700Y003192D01*
X013700Y003200D02*
X014140Y003200D01*
X014140Y003216D01*
X014129Y003288D01*
X014106Y003357D01*
X014073Y003421D01*
X014031Y003480D01*
X013980Y003531D01*
X013921Y003573D01*
X013857Y003606D01*
X013788Y003629D01*
X013716Y003640D01*
X013700Y003640D01*
X013700Y003200D01*
X013660Y003192D02*
X012700Y003192D01*
X012700Y003200D02*
X013140Y003200D01*
X013140Y003216D01*
X013129Y003288D01*
X013106Y003357D01*
X013073Y003421D01*
X013031Y003480D01*
X012980Y003531D01*
X012921Y003573D01*
X012857Y003606D01*
X012788Y003629D01*
X012716Y003640D01*
X012700Y003640D01*
X012700Y003200D01*
X012660Y003200D01*
X012660Y003640D01*
X012644Y003640D01*
X012572Y003629D01*
X012503Y003606D01*
X012439Y003573D01*
X012380Y003531D01*
X012329Y003480D01*
X012287Y003421D01*
X012254Y003357D01*
X012231Y003288D01*
X012220Y003216D01*
X012220Y003200D01*
X012660Y003200D01*
X012660Y003160D01*
X012220Y003160D01*
X012220Y003144D01*
X012231Y003072D01*
X012254Y003003D01*
X012287Y002939D01*
X012329Y002880D01*
X012380Y002829D01*
X012439Y002787D01*
X012503Y002754D01*
X012572Y002731D01*
X012644Y002720D01*
X012660Y002720D01*
X012660Y003160D01*
X012700Y003160D01*
X012700Y003200D01*
X012700Y003160D02*
X013140Y003160D01*
X013140Y003144D01*
X013129Y003072D01*
X013106Y003003D01*
X013073Y002939D01*
X013031Y002880D01*
X012980Y002829D01*
X012921Y002787D01*
X012857Y002754D01*
X012788Y002731D01*
X012716Y002720D01*
X012700Y002720D01*
X012700Y003160D01*
X012660Y003192D02*
X012140Y003192D01*
X012117Y003033D02*
X012244Y003033D01*
X012335Y002875D02*
X012025Y002875D01*
X012107Y003350D02*
X012252Y003350D01*
X012358Y003509D02*
X012002Y003509D01*
X012660Y003509D02*
X012700Y003509D01*
X012700Y003350D02*
X012660Y003350D01*
X012660Y003033D02*
X012700Y003033D01*
X012700Y002875D02*
X012660Y002875D01*
X013025Y002875D02*
X013335Y002875D01*
X013244Y003033D02*
X013116Y003033D01*
X013108Y003350D02*
X013252Y003350D01*
X013358Y003509D02*
X013002Y003509D01*
X013660Y003509D02*
X013700Y003509D01*
X013700Y003350D02*
X013660Y003350D01*
X013660Y003033D02*
X013700Y003033D01*
X013700Y002875D02*
X013660Y002875D01*
X014108Y003350D02*
X014253Y003350D01*
X014358Y003509D02*
X014002Y003509D01*
X015584Y004460D02*
X015776Y004460D01*
X015724Y004618D02*
X015636Y004618D01*
X015630Y004777D02*
X015730Y004777D01*
X015797Y004935D02*
X015563Y004935D01*
X015382Y005094D02*
X015978Y005094D01*
X016011Y005252D02*
X015349Y005252D01*
X015561Y005411D02*
X015799Y005411D01*
X015728Y005569D02*
X015632Y005569D01*
X015640Y005728D02*
X015720Y005728D01*
X015767Y005886D02*
X015593Y005886D01*
X015466Y006045D02*
X015894Y006045D01*
X015919Y006290D02*
X016088Y006220D01*
X016271Y006220D01*
X016441Y006290D01*
X016570Y006419D01*
X016640Y006588D01*
X016640Y006771D01*
X016570Y006941D01*
X016441Y007070D01*
X016271Y007140D01*
X016088Y007140D01*
X015919Y007070D01*
X015790Y006941D01*
X015720Y006771D01*
X015720Y006588D01*
X015790Y006419D01*
X015919Y006290D01*
X015848Y006362D02*
X015512Y006362D01*
X015570Y006419D02*
X015640Y006588D01*
X015640Y006771D01*
X015570Y006941D01*
X015441Y007070D01*
X015271Y007140D01*
X015088Y007140D01*
X014919Y007070D01*
X014790Y006941D01*
X014720Y006771D01*
X014720Y006588D01*
X014790Y006419D01*
X014919Y006290D01*
X015088Y006220D01*
X015271Y006220D01*
X015441Y006290D01*
X015570Y006419D01*
X015612Y006520D02*
X015748Y006520D01*
X015720Y006679D02*
X015640Y006679D01*
X015613Y006837D02*
X015747Y006837D01*
X015845Y006996D02*
X015515Y006996D01*
X014845Y006996D02*
X014540Y006996D01*
X014540Y007154D02*
X023400Y007154D01*
X023400Y006996D02*
X022515Y006996D01*
X022613Y006837D02*
X023400Y006837D01*
X023400Y006679D02*
X022640Y006679D01*
X022612Y006520D02*
X023400Y006520D01*
X023400Y006362D02*
X022512Y006362D01*
X022466Y006045D02*
X023400Y006045D01*
X023400Y006203D02*
X014540Y006203D01*
X014540Y006045D02*
X014894Y006045D01*
X014767Y005886D02*
X014462Y005886D01*
X014720Y005728D02*
X011170Y005728D01*
X011170Y005886D02*
X013409Y005886D01*
X013418Y005881D02*
X013459Y005870D01*
X013630Y005870D01*
X013630Y006180D01*
X013630Y006180D01*
X013630Y006180D01*
X013320Y006180D01*
X013320Y006351D01*
X013331Y006392D01*
X013352Y006428D01*
X013382Y006458D01*
X013418Y006479D01*
X013459Y006490D01*
X013630Y006490D01*
X013630Y006180D01*
X013320Y006180D01*
X013320Y006009D01*
X013331Y005968D01*
X013352Y005932D01*
X013382Y005902D01*
X013418Y005881D01*
X013320Y006045D02*
X011170Y006045D01*
X011170Y006203D02*
X013320Y006203D01*
X013323Y006362D02*
X011170Y006362D01*
X011170Y006520D02*
X013730Y006520D01*
X013691Y006679D02*
X011982Y006679D01*
X011170Y005569D02*
X014728Y005569D01*
X014799Y005411D02*
X011170Y005411D01*
X011117Y003033D02*
X011243Y003033D01*
X011335Y002875D02*
X011025Y002875D01*
X010852Y001607D02*
X011508Y001607D01*
X011297Y001448D02*
X011063Y001448D01*
X011133Y001290D02*
X011227Y001290D01*
X011220Y001131D02*
X011140Y001131D01*
X011092Y000973D02*
X011268Y000973D01*
X011395Y000814D02*
X010965Y000814D01*
X011852Y001607D02*
X012504Y001607D01*
X012503Y001606D02*
X012439Y001573D01*
X012380Y001531D01*
X012329Y001480D01*
X012287Y001421D01*
X012254Y001357D01*
X012231Y001288D01*
X012220Y001216D01*
X012220Y001200D01*
X012660Y001200D01*
X012660Y001640D01*
X012644Y001640D01*
X012572Y001629D01*
X012503Y001606D01*
X012660Y001607D02*
X012700Y001607D01*
X012700Y001640D02*
X012700Y001200D01*
X012660Y001200D01*
X012660Y001160D01*
X012220Y001160D01*
X012220Y001144D01*
X012231Y001072D01*
X012254Y001003D01*
X012287Y000939D01*
X012329Y000880D01*
X012380Y000829D01*
X012439Y000787D01*
X012503Y000754D01*
X012572Y000731D01*
X012644Y000720D01*
X012660Y000720D01*
X012660Y001160D01*
X012700Y001160D01*
X012700Y001200D01*
X013140Y001200D01*
X013140Y001216D01*
X013129Y001288D01*
X013106Y001357D01*
X013073Y001421D01*
X013031Y001480D01*
X012980Y001531D01*
X012921Y001573D01*
X012857Y001606D01*
X012788Y001629D01*
X012716Y001640D01*
X012700Y001640D01*
X012856Y001607D02*
X013504Y001607D01*
X013503Y001606D02*
X013439Y001573D01*
X013380Y001531D01*
X013329Y001480D01*
X013287Y001421D01*
X013254Y001357D01*
X013231Y001288D01*
X013220Y001216D01*
X013220Y001200D01*
X013660Y001200D01*
X013660Y001640D01*
X013644Y001640D01*
X013572Y001629D01*
X013503Y001606D01*
X013660Y001607D02*
X013700Y001607D01*
X013700Y001640D02*
X013700Y001200D01*
X013660Y001200D01*
X013660Y001160D01*
X013220Y001160D01*
X013220Y001144D01*
X013231Y001072D01*
X013254Y001003D01*
X013287Y000939D01*
X013329Y000880D01*
X013380Y000829D01*
X013439Y000787D01*
X013503Y000754D01*
X013572Y000731D01*
X013644Y000720D01*
X013660Y000720D01*
X013660Y001160D01*
X013700Y001160D01*
X013700Y001200D01*
X014140Y001200D01*
X014140Y001216D01*
X014129Y001288D01*
X014106Y001357D01*
X014073Y001421D01*
X014031Y001480D01*
X013980Y001531D01*
X013921Y001573D01*
X013857Y001606D01*
X013788Y001629D01*
X013716Y001640D01*
X013700Y001640D01*
X013856Y001607D02*
X014508Y001607D01*
X014588Y001640D02*
X014419Y001570D01*
X014290Y001441D01*
X014220Y001271D01*
X014220Y001088D01*
X014290Y000919D01*
X014419Y000790D01*
X014588Y000720D01*
X014771Y000720D01*
X014941Y000790D01*
X015070Y000919D01*
X015140Y001088D01*
X015140Y001271D01*
X015070Y001441D01*
X014941Y001570D01*
X014771Y001640D01*
X014588Y001640D01*
X014852Y001607D02*
X016508Y001607D01*
X016588Y001640D02*
X016419Y001570D01*
X016290Y001441D01*
X016220Y001271D01*
X016220Y001088D01*
X016290Y000919D01*
X016419Y000790D01*
X016588Y000720D01*
X016771Y000720D01*
X016941Y000790D01*
X017070Y000919D01*
X017140Y001088D01*
X017140Y001271D01*
X017070Y001441D01*
X016941Y001570D01*
X016771Y001640D01*
X016588Y001640D01*
X016852Y001607D02*
X017508Y001607D01*
X017588Y001640D02*
X017419Y001570D01*
X017290Y001441D01*
X017220Y001271D01*
X017220Y001088D01*
X017290Y000919D01*
X017419Y000790D01*
X017588Y000720D01*
X017771Y000720D01*
X017941Y000790D01*
X018070Y000919D01*
X018140Y001088D01*
X018140Y001271D01*
X018070Y001441D01*
X017941Y001570D01*
X017771Y001640D01*
X017588Y001640D01*
X017852Y001607D02*
X018508Y001607D01*
X018588Y001640D02*
X018419Y001570D01*
X018290Y001441D01*
X018220Y001271D01*
X018220Y001088D01*
X018290Y000919D01*
X018419Y000790D01*
X018588Y000720D01*
X018771Y000720D01*
X018941Y000790D01*
X019070Y000919D01*
X019140Y001088D01*
X019140Y001271D01*
X019070Y001441D01*
X018941Y001570D01*
X018771Y001640D01*
X018588Y001640D01*
X018297Y001448D02*
X018063Y001448D01*
X018133Y001290D02*
X018227Y001290D01*
X018220Y001131D02*
X018140Y001131D01*
X018092Y000973D02*
X018268Y000973D01*
X018395Y000814D02*
X017965Y000814D01*
X017395Y000814D02*
X016965Y000814D01*
X017092Y000973D02*
X017268Y000973D01*
X017220Y001131D02*
X017140Y001131D01*
X017133Y001290D02*
X017227Y001290D01*
X017297Y001448D02*
X017063Y001448D01*
X016297Y001448D02*
X015063Y001448D01*
X015133Y001290D02*
X016227Y001290D01*
X016220Y001131D02*
X015140Y001131D01*
X015092Y000973D02*
X016268Y000973D01*
X016395Y000814D02*
X014965Y000814D01*
X014395Y000814D02*
X013959Y000814D01*
X013980Y000829D02*
X014031Y000880D01*
X014073Y000939D01*
X014106Y001003D01*
X014129Y001072D01*
X014140Y001144D01*
X014140Y001160D01*
X013700Y001160D01*
X013700Y000720D01*
X013716Y000720D01*
X013788Y000731D01*
X013857Y000754D01*
X013921Y000787D01*
X013980Y000829D01*
X014091Y000973D02*
X014268Y000973D01*
X014220Y001131D02*
X014138Y001131D01*
X014128Y001290D02*
X014227Y001290D01*
X014297Y001448D02*
X014054Y001448D01*
X013700Y001448D02*
X013660Y001448D01*
X013660Y001290D02*
X013700Y001290D01*
X013700Y001131D02*
X013660Y001131D01*
X013660Y000973D02*
X013700Y000973D01*
X013700Y000814D02*
X013660Y000814D01*
X013401Y000814D02*
X012959Y000814D01*
X012980Y000829D02*
X013031Y000880D01*
X013073Y000939D01*
X013106Y001003D01*
X013129Y001072D01*
X013140Y001144D01*
X013140Y001160D01*
X012700Y001160D01*
X012700Y000720D01*
X012716Y000720D01*
X012788Y000731D01*
X012857Y000754D01*
X012921Y000787D01*
X012980Y000829D01*
X013091Y000973D02*
X013269Y000973D01*
X013222Y001131D02*
X013138Y001131D01*
X013128Y001290D02*
X013232Y001290D01*
X013306Y001448D02*
X013054Y001448D01*
X012700Y001448D02*
X012660Y001448D01*
X012660Y001290D02*
X012700Y001290D01*
X012700Y001131D02*
X012660Y001131D01*
X012660Y000973D02*
X012700Y000973D01*
X012700Y000814D02*
X012660Y000814D01*
X012401Y000814D02*
X011965Y000814D01*
X012092Y000973D02*
X012269Y000973D01*
X012222Y001131D02*
X012140Y001131D01*
X012133Y001290D02*
X012232Y001290D01*
X012306Y001448D02*
X012063Y001448D01*
X008105Y002399D02*
X023400Y002399D01*
X023400Y002558D02*
X008105Y002558D01*
X008105Y002716D02*
X023400Y002716D01*
X023400Y005411D02*
X022561Y005411D01*
X022632Y005569D02*
X023400Y005569D01*
X023400Y005728D02*
X022640Y005728D01*
X022593Y005886D02*
X023400Y005886D01*
X023400Y007313D02*
X022463Y007313D01*
X022591Y007471D02*
X023400Y007471D01*
X023400Y007630D02*
X022640Y007630D01*
X022633Y007788D02*
X023400Y007788D01*
X023400Y007947D02*
X022564Y007947D01*
X022356Y008105D02*
X023400Y008105D01*
X023400Y008264D02*
X022377Y008264D01*
X022571Y008422D02*
X023400Y008422D01*
X023400Y008581D02*
X022637Y008581D01*
X022640Y008739D02*
X023400Y008739D01*
X023400Y008898D02*
X022588Y008898D01*
X022455Y009056D02*
X023400Y009056D01*
X021764Y010483D02*
X021596Y010483D01*
X021640Y010641D02*
X021720Y010641D01*
X021732Y010800D02*
X021628Y010800D01*
X021553Y010958D02*
X021807Y010958D01*
X022032Y011117D02*
X021328Y011117D01*
X021404Y011275D02*
X021956Y011275D01*
X021784Y011434D02*
X021576Y011434D01*
X021640Y011592D02*
X021720Y011592D01*
X021720Y011751D02*
X021640Y011751D01*
X021583Y011909D02*
X021777Y011909D01*
X021917Y012068D02*
X021443Y012068D01*
X021286Y012226D02*
X022074Y012226D01*
X021825Y012385D02*
X021535Y012385D01*
X021621Y012543D02*
X021739Y012543D01*
X021720Y012702D02*
X021640Y012702D01*
X021603Y012860D02*
X021757Y012860D01*
X021868Y013019D02*
X021492Y013019D01*
X021486Y013336D02*
X021874Y013336D01*
X021759Y013494D02*
X021601Y013494D01*
X021640Y013653D02*
X021720Y013653D01*
X021736Y013811D02*
X021624Y013811D01*
X021541Y013970D02*
X021819Y013970D01*
X022541Y013970D02*
X023400Y013970D01*
X023400Y013811D02*
X022624Y013811D01*
X022640Y013653D02*
X023400Y013653D01*
X023400Y013494D02*
X022601Y013494D01*
X022486Y013336D02*
X023400Y013336D01*
X021074Y012226D02*
X020286Y012226D01*
X018074Y012226D02*
X017286Y012226D01*
X017074Y012226D02*
X015286Y012226D01*
X015443Y012068D02*
X016917Y012068D01*
X016777Y011909D02*
X015583Y011909D01*
X015640Y011751D02*
X016720Y011751D01*
X016720Y011592D02*
X015640Y011592D01*
X015576Y011434D02*
X016784Y011434D01*
X016956Y011275D02*
X015404Y011275D01*
X015535Y012385D02*
X016825Y012385D01*
X016739Y012543D02*
X015621Y012543D01*
X015640Y012702D02*
X016720Y012702D01*
X016757Y012860D02*
X015603Y012860D01*
X015492Y013019D02*
X016868Y013019D01*
X016874Y013336D02*
X015486Y013336D01*
X015601Y013494D02*
X016759Y013494D01*
X016720Y013653D02*
X015640Y013653D01*
X015624Y013811D02*
X016736Y013811D01*
X016819Y013970D02*
X015541Y013970D01*
X016547Y015396D02*
X016813Y015396D01*
X016734Y015555D02*
X016626Y015555D01*
X016640Y015713D02*
X016720Y015713D01*
X016761Y015872D02*
X016599Y015872D01*
X016481Y016030D02*
X016879Y016030D01*
X016862Y016347D02*
X016498Y016347D01*
X017498Y016347D02*
X017862Y016347D01*
X017879Y016030D02*
X017481Y016030D01*
X017599Y015872D02*
X017761Y015872D01*
X017720Y015713D02*
X017640Y015713D01*
X017626Y015555D02*
X017734Y015555D01*
X017813Y015396D02*
X017547Y015396D01*
X018547Y015396D02*
X018813Y015396D01*
X018734Y015555D02*
X018626Y015555D01*
X018640Y015713D02*
X018720Y015713D01*
X018761Y015872D02*
X018599Y015872D01*
X018481Y016030D02*
X018879Y016030D01*
X018862Y016347D02*
X018498Y016347D01*
X018588Y019720D02*
X018771Y019720D01*
X018941Y019790D01*
X019070Y019919D01*
X019140Y020088D01*
X019140Y020271D01*
X019070Y020441D01*
X018941Y020570D01*
X018771Y020640D01*
X018588Y020640D01*
X018419Y020570D01*
X018290Y020441D01*
X018220Y020271D01*
X018220Y020088D01*
X018290Y019919D01*
X018419Y019790D01*
X018588Y019720D01*
X018375Y019834D02*
X017985Y019834D01*
X017941Y019790D02*
X018070Y019919D01*
X018140Y020088D01*
X018140Y020271D01*
X018070Y020441D01*
X017941Y020570D01*
X017771Y020640D01*
X017588Y020640D01*
X017419Y020570D01*
X017290Y020441D01*
X017220Y020271D01*
X017220Y020088D01*
X017290Y019919D01*
X017419Y019790D01*
X017588Y019720D01*
X017771Y019720D01*
X017941Y019790D01*
X018100Y019993D02*
X018260Y019993D01*
X018220Y020151D02*
X018140Y020151D01*
X018124Y020310D02*
X018236Y020310D01*
X018317Y020468D02*
X018043Y020468D01*
X017804Y020627D02*
X018556Y020627D01*
X018804Y020627D02*
X019556Y020627D01*
X019588Y020640D02*
X019419Y020570D01*
X019290Y020441D01*
X019220Y020271D01*
X019220Y020088D01*
X019290Y019919D01*
X019419Y019790D01*
X019588Y019720D01*
X019771Y019720D01*
X019941Y019790D01*
X020070Y019919D01*
X020140Y020088D01*
X020140Y020271D01*
X020070Y020441D01*
X019941Y020570D01*
X019771Y020640D01*
X019588Y020640D01*
X019804Y020627D02*
X020556Y020627D01*
X020588Y020640D02*
X020419Y020570D01*
X020290Y020441D01*
X020220Y020271D01*
X020220Y020088D01*
X020290Y019919D01*
X020419Y019790D01*
X020588Y019720D01*
X020771Y019720D01*
X020941Y019790D01*
X021070Y019919D01*
X021140Y020088D01*
X021140Y020271D01*
X021070Y020441D01*
X020941Y020570D01*
X020771Y020640D01*
X020588Y020640D01*
X020804Y020627D02*
X021300Y020627D01*
X021220Y020468D02*
X021043Y020468D01*
X021124Y020310D02*
X021220Y020310D01*
X021220Y020151D02*
X021140Y020151D01*
X021100Y019993D02*
X021220Y019993D01*
X021220Y019834D02*
X020985Y019834D01*
X020375Y019834D02*
X019985Y019834D01*
X020100Y019993D02*
X020260Y019993D01*
X020220Y020151D02*
X020140Y020151D01*
X020124Y020310D02*
X020236Y020310D01*
X020317Y020468D02*
X020043Y020468D01*
X019375Y019834D02*
X018985Y019834D01*
X019100Y019993D02*
X019260Y019993D01*
X019220Y020151D02*
X019140Y020151D01*
X019124Y020310D02*
X019236Y020310D01*
X019317Y020468D02*
X019043Y020468D01*
X017556Y020627D02*
X016804Y020627D01*
X016771Y020640D02*
X016588Y020640D01*
X016419Y020570D01*
X016290Y020441D01*
X016220Y020271D01*
X016220Y020088D01*
X016290Y019919D01*
X016419Y019790D01*
X016588Y019720D01*
X016771Y019720D01*
X016941Y019790D01*
X017070Y019919D01*
X017140Y020088D01*
X017140Y020271D01*
X017070Y020441D01*
X016941Y020570D01*
X016771Y020640D01*
X016556Y020627D02*
X015804Y020627D01*
X015771Y020640D02*
X015588Y020640D01*
X015419Y020570D01*
X015290Y020441D01*
X015220Y020271D01*
X015220Y020088D01*
X015290Y019919D01*
X015419Y019790D01*
X015588Y019720D01*
X015771Y019720D01*
X015941Y019790D01*
X016070Y019919D01*
X016140Y020088D01*
X016140Y020271D01*
X016070Y020441D01*
X015941Y020570D01*
X015771Y020640D01*
X015556Y020627D02*
X014804Y020627D01*
X014771Y020640D02*
X014941Y020570D01*
X015070Y020441D01*
X015140Y020271D01*
X015140Y020088D01*
X015070Y019919D01*
X014941Y019790D01*
X014771Y019720D01*
X014588Y019720D01*
X014419Y019790D01*
X014290Y019919D01*
X014220Y020088D01*
X014220Y020271D01*
X014290Y020441D01*
X014419Y020570D01*
X014588Y020640D01*
X014771Y020640D01*
X014556Y020627D02*
X013460Y020627D01*
X013540Y020468D02*
X014317Y020468D01*
X014236Y020310D02*
X013540Y020310D01*
X013540Y020151D02*
X014220Y020151D01*
X014260Y019993D02*
X013540Y019993D01*
X013540Y019834D02*
X014375Y019834D01*
X014985Y019834D02*
X015375Y019834D01*
X015260Y019993D02*
X015100Y019993D01*
X015140Y020151D02*
X015220Y020151D01*
X015236Y020310D02*
X015124Y020310D01*
X015043Y020468D02*
X015317Y020468D01*
X016043Y020468D02*
X016317Y020468D01*
X016236Y020310D02*
X016124Y020310D01*
X016140Y020151D02*
X016220Y020151D01*
X016260Y019993D02*
X016100Y019993D01*
X015985Y019834D02*
X016375Y019834D01*
X016985Y019834D02*
X017375Y019834D01*
X017260Y019993D02*
X017100Y019993D01*
X017140Y020151D02*
X017220Y020151D01*
X017236Y020310D02*
X017124Y020310D01*
X017043Y020468D02*
X017317Y020468D01*
X012660Y017774D02*
X012301Y017774D01*
X012341Y017790D02*
X012470Y017919D01*
X012540Y018088D01*
X012540Y018271D01*
X012470Y018441D01*
X012341Y018570D01*
X012171Y018640D01*
X011988Y018640D01*
X011819Y018570D01*
X011690Y018441D01*
X011620Y018271D01*
X011620Y018088D01*
X011690Y017919D01*
X011819Y017790D01*
X011988Y017720D01*
X012171Y017720D01*
X012341Y017790D01*
X012475Y017932D02*
X012620Y017932D01*
X012620Y018091D02*
X012540Y018091D01*
X012540Y018249D02*
X012620Y018249D01*
X012620Y018408D02*
X012484Y018408D01*
X012345Y018566D02*
X012640Y018566D01*
X011815Y018566D02*
X011345Y018566D01*
X011341Y018570D02*
X011171Y018640D01*
X010988Y018640D01*
X010819Y018570D01*
X010690Y018441D01*
X010620Y018271D01*
X010620Y018088D01*
X010690Y017919D01*
X010819Y017790D01*
X010988Y017720D01*
X011171Y017720D01*
X011341Y017790D01*
X011470Y017919D01*
X011540Y018088D01*
X011540Y018271D01*
X011470Y018441D01*
X011341Y018570D01*
X011484Y018408D02*
X011676Y018408D01*
X011620Y018249D02*
X011540Y018249D01*
X011540Y018091D02*
X011620Y018091D01*
X011685Y017932D02*
X011475Y017932D01*
X011301Y017774D02*
X011859Y017774D01*
X010859Y017774D02*
X010301Y017774D01*
X010341Y017790D02*
X010470Y017919D01*
X010540Y018088D01*
X010540Y018271D01*
X010470Y018441D01*
X010341Y018570D01*
X010171Y018640D01*
X009988Y018640D01*
X009819Y018570D01*
X009690Y018441D01*
X009620Y018271D01*
X009620Y018088D01*
X009690Y017919D01*
X009819Y017790D01*
X009988Y017720D01*
X010171Y017720D01*
X010341Y017790D01*
X010475Y017932D02*
X010685Y017932D01*
X010620Y018091D02*
X010540Y018091D01*
X010540Y018249D02*
X010620Y018249D01*
X010676Y018408D02*
X010484Y018408D01*
X010345Y018566D02*
X010815Y018566D01*
X009815Y018566D02*
X009345Y018566D01*
X009341Y018570D02*
X009171Y018640D01*
X008988Y018640D01*
X008819Y018570D01*
X008690Y018441D01*
X008620Y018271D01*
X008620Y018088D01*
X008690Y017919D01*
X008819Y017790D01*
X008988Y017720D01*
X009171Y017720D01*
X009341Y017790D01*
X009470Y017919D01*
X009540Y018088D01*
X009540Y018271D01*
X009470Y018441D01*
X009341Y018570D01*
X009484Y018408D02*
X009676Y018408D01*
X009620Y018249D02*
X009540Y018249D01*
X009540Y018091D02*
X009620Y018091D01*
X009685Y017932D02*
X009475Y017932D01*
X009301Y017774D02*
X009859Y017774D01*
X008859Y017774D02*
X008301Y017774D01*
X008341Y017790D02*
X008470Y017919D01*
X008540Y018088D01*
X008540Y018271D01*
X008470Y018441D01*
X008341Y018570D01*
X008171Y018640D01*
X007988Y018640D01*
X007819Y018570D01*
X007690Y018441D01*
X007620Y018271D01*
X007620Y018088D01*
X007690Y017919D01*
X007819Y017790D01*
X007988Y017720D01*
X008171Y017720D01*
X008341Y017790D01*
X008475Y017932D02*
X008685Y017932D01*
X008620Y018091D02*
X008540Y018091D01*
X008540Y018249D02*
X008620Y018249D01*
X008676Y018408D02*
X008484Y018408D01*
X008345Y018566D02*
X008815Y018566D01*
X007815Y018566D02*
X007331Y018566D01*
X007321Y018573D02*
X007257Y018606D01*
X007188Y018629D01*
X007116Y018640D01*
X007100Y018640D01*
X007100Y018200D01*
X007060Y018200D01*
X007060Y018640D01*
X007044Y018640D01*
X006972Y018629D01*
X006903Y018606D01*
X006839Y018573D01*
X006780Y018531D01*
X006729Y018480D01*
X006687Y018421D01*
X006654Y018357D01*
X006631Y018288D01*
X006620Y018216D01*
X006620Y018200D01*
X007060Y018200D01*
X007060Y018160D01*
X006620Y018160D01*
X006620Y018144D01*
X006631Y018072D01*
X006654Y018003D01*
X006687Y017939D01*
X006729Y017880D01*
X006780Y017829D01*
X006839Y017787D01*
X006903Y017754D01*
X006972Y017731D01*
X007044Y017720D01*
X007060Y017720D01*
X007060Y018160D01*
X007100Y018160D01*
X007100Y018200D01*
X007540Y018200D01*
X007540Y018216D01*
X007529Y018288D01*
X007506Y018357D01*
X007473Y018421D01*
X007431Y018480D01*
X007380Y018531D01*
X007321Y018573D01*
X007100Y018566D02*
X007060Y018566D01*
X007060Y018408D02*
X007100Y018408D01*
X007100Y018249D02*
X007060Y018249D01*
X007100Y018160D02*
X007540Y018160D01*
X007540Y018144D01*
X007529Y018072D01*
X007506Y018003D01*
X007473Y017939D01*
X007431Y017880D01*
X007380Y017829D01*
X007321Y017787D01*
X007257Y017754D01*
X007188Y017731D01*
X007116Y017720D01*
X007100Y017720D01*
X007100Y018160D01*
X007100Y018091D02*
X007060Y018091D01*
X007060Y017932D02*
X007100Y017932D01*
X007100Y017774D02*
X007060Y017774D01*
X006865Y017774D02*
X006301Y017774D01*
X006475Y017932D02*
X006692Y017932D01*
X006628Y018091D02*
X006540Y018091D01*
X006540Y018249D02*
X006625Y018249D01*
X006680Y018408D02*
X006484Y018408D01*
X006345Y018566D02*
X006829Y018566D01*
X007480Y018408D02*
X007676Y018408D01*
X007620Y018249D02*
X007535Y018249D01*
X007532Y018091D02*
X007620Y018091D01*
X007685Y017932D02*
X007468Y017932D01*
X007295Y017774D02*
X007859Y017774D01*
X008430Y015880D02*
X008430Y015430D01*
X008670Y015190D01*
X008930Y015190D01*
X008940Y015180D01*
X008380Y015079D02*
X007755Y015079D01*
X007769Y015238D02*
X008283Y015238D01*
X008190Y015396D02*
X007693Y015396D01*
X007430Y015180D02*
X006520Y015180D01*
X007036Y014921D02*
X007210Y014921D01*
X007080Y014762D02*
X008173Y014762D01*
X008051Y014604D02*
X007080Y014604D01*
X007041Y014445D02*
X007216Y014445D01*
X007430Y014180D02*
X006520Y014180D01*
X006520Y013680D02*
X007430Y013680D01*
X007930Y014180D01*
X007716Y014445D02*
X007644Y014445D01*
X007650Y014921D02*
X008424Y014921D01*
X008430Y015880D02*
X008705Y015880D01*
X008805Y015980D01*
X006520Y014680D02*
X005930Y014680D01*
X005680Y014430D01*
X005680Y013430D01*
X005930Y013180D01*
X006520Y013180D01*
X007930Y013180D01*
X008940Y013680D02*
X009180Y013680D01*
X009280Y013780D01*
X009730Y013780D01*
X011180Y012680D02*
X011680Y012180D01*
X012930Y012180D01*
X013080Y012330D01*
X013780Y012330D01*
X014230Y011880D01*
X014230Y011930D01*
X014230Y011880D02*
X014230Y011180D01*
X013630Y011751D02*
X013630Y011751D01*
X013630Y011909D02*
X013630Y011909D01*
X013320Y011909D02*
X012583Y011909D01*
X012180Y011680D02*
X011680Y011180D01*
X011680Y010180D01*
X011956Y011117D02*
X012032Y011117D01*
X012180Y011680D02*
X011180Y011680D01*
X012180Y012680D02*
X013630Y012680D01*
X013320Y012068D02*
X013157Y012068D01*
X013394Y013811D02*
X013500Y013811D01*
X014230Y007930D02*
X014930Y007930D01*
X015180Y007680D01*
X014897Y007313D02*
X014540Y007313D01*
X014465Y007471D02*
X014769Y007471D01*
X014720Y007630D02*
X014456Y007630D01*
X014004Y007630D02*
X013870Y007630D01*
X013870Y007471D02*
X013995Y007471D01*
X014230Y007180D02*
X014230Y006880D01*
X014030Y006680D01*
X014230Y006480D01*
X014230Y006180D01*
X014540Y006362D02*
X014848Y006362D01*
X014748Y006520D02*
X014470Y006520D01*
X014371Y006679D02*
X014720Y006679D01*
X014747Y006837D02*
X014470Y006837D01*
X013630Y006362D02*
X013630Y006362D01*
X013630Y006203D02*
X013630Y006203D01*
X013630Y006045D02*
X013630Y006045D01*
X013630Y005886D02*
X013630Y005886D01*
X013851Y005886D02*
X013998Y005886D01*
X016382Y005094D02*
X016978Y005094D01*
X016797Y004935D02*
X016563Y004935D01*
X016630Y004777D02*
X016730Y004777D01*
X016724Y004618D02*
X016636Y004618D01*
X016584Y004460D02*
X016776Y004460D01*
X016919Y004301D02*
X016441Y004301D01*
X017382Y005094D02*
X017978Y005094D01*
X018011Y005252D02*
X017349Y005252D01*
X017561Y005411D02*
X017799Y005411D01*
X017728Y005569D02*
X017632Y005569D01*
X017640Y005728D02*
X017720Y005728D01*
X017767Y005886D02*
X017593Y005886D01*
X017466Y006045D02*
X017894Y006045D01*
X017848Y006362D02*
X017512Y006362D01*
X017570Y006419D02*
X017441Y006290D01*
X017271Y006220D01*
X017088Y006220D01*
X016919Y006290D01*
X016790Y006419D01*
X016720Y006588D01*
X016720Y006771D01*
X016790Y006941D01*
X016919Y007070D01*
X017088Y007140D01*
X017271Y007140D01*
X017441Y007070D01*
X017570Y006941D01*
X017640Y006771D01*
X017640Y006588D01*
X017570Y006419D01*
X017612Y006520D02*
X017748Y006520D01*
X017720Y006679D02*
X017640Y006679D01*
X017613Y006837D02*
X017747Y006837D01*
X017845Y006996D02*
X017515Y006996D01*
X016845Y006996D02*
X016515Y006996D01*
X016613Y006837D02*
X016747Y006837D01*
X016720Y006679D02*
X016640Y006679D01*
X016612Y006520D02*
X016748Y006520D01*
X016848Y006362D02*
X016512Y006362D01*
X016466Y006045D02*
X016894Y006045D01*
X016767Y005886D02*
X016593Y005886D01*
X016640Y005728D02*
X016720Y005728D01*
X016728Y005569D02*
X016632Y005569D01*
X016561Y005411D02*
X016799Y005411D01*
X017563Y004935D02*
X017797Y004935D01*
X017730Y004777D02*
X017630Y004777D01*
X017636Y004618D02*
X017724Y004618D01*
X017776Y004460D02*
X017584Y004460D01*
X018852Y001607D02*
X019508Y001607D01*
X019588Y001640D02*
X019419Y001570D01*
X019290Y001441D01*
X019220Y001271D01*
X019220Y001088D01*
X019290Y000919D01*
X019419Y000790D01*
X019588Y000720D01*
X019771Y000720D01*
X019941Y000790D01*
X020070Y000919D01*
X020140Y001088D01*
X020140Y001271D01*
X020070Y001441D01*
X019941Y001570D01*
X019771Y001640D01*
X019588Y001640D01*
X019852Y001607D02*
X020508Y001607D01*
X020297Y001448D02*
X020063Y001448D01*
X020133Y001290D02*
X020227Y001290D01*
X020220Y001131D02*
X020140Y001131D01*
X020092Y000973D02*
X020268Y000973D01*
X020395Y000814D02*
X019965Y000814D01*
X019395Y000814D02*
X018965Y000814D01*
X019092Y000973D02*
X019268Y000973D01*
X019220Y001131D02*
X019140Y001131D01*
X019133Y001290D02*
X019227Y001290D01*
X019297Y001448D02*
X019063Y001448D01*
X005978Y012385D02*
X000460Y012385D01*
X000460Y012543D02*
X005960Y012543D01*
X005960Y012702D02*
X003788Y012702D01*
X003789Y012702D02*
X003881Y012755D01*
X003965Y012820D01*
X004040Y012895D01*
X004105Y012979D01*
X004158Y013071D01*
X004199Y013169D01*
X004226Y013272D01*
X004240Y013377D01*
X004240Y013392D01*
X003468Y013392D01*
X003468Y013468D01*
X004240Y013468D01*
X004240Y013483D01*
X004226Y013588D01*
X004199Y013691D01*
X004158Y013789D01*
X004105Y013881D01*
X004040Y013965D01*
X003965Y014040D01*
X003881Y014105D01*
X003789Y014158D01*
X003691Y014199D01*
X003588Y014226D01*
X003483Y014240D01*
X003468Y014240D01*
X003468Y013468D01*
X003392Y013468D01*
X003392Y013392D01*
X003468Y013392D01*
X003468Y012620D01*
X003483Y012620D01*
X003588Y012634D01*
X003691Y012661D01*
X003789Y012702D01*
X004006Y012860D02*
X005960Y012860D01*
X005752Y013019D02*
X004128Y013019D01*
X004201Y013177D02*
X005594Y013177D01*
X005459Y013336D02*
X004235Y013336D01*
X004239Y013494D02*
X005440Y013494D01*
X005440Y013653D02*
X004209Y013653D01*
X004145Y013811D02*
X005440Y013811D01*
X005440Y013970D02*
X004036Y013970D01*
X003841Y014128D02*
X005440Y014128D01*
X005440Y014287D02*
X000460Y014287D01*
X000460Y014445D02*
X005440Y014445D01*
X003468Y014128D02*
X003392Y014128D01*
X003392Y014240D02*
X003377Y014240D01*
X003272Y014226D01*
X003169Y014199D01*
X003071Y014158D01*
X002979Y014105D01*
X002895Y014040D01*
X002820Y013965D01*
X002755Y013881D01*
X002702Y013789D01*
X002661Y013691D01*
X002634Y013588D01*
X002620Y013483D01*
X002620Y013468D01*
X003392Y013468D01*
X003392Y014240D01*
X003392Y013970D02*
X003468Y013970D01*
X003468Y013811D02*
X003392Y013811D01*
X003392Y013653D02*
X003468Y013653D01*
X003468Y013494D02*
X003392Y013494D01*
X003392Y013392D02*
X002620Y013392D01*
X002620Y013377D01*
X002634Y013272D01*
X002661Y013169D01*
X002702Y013071D01*
X002755Y012979D01*
X002820Y012895D01*
X002895Y012820D01*
X002979Y012755D01*
X003071Y012702D01*
X003169Y012661D01*
X003272Y012634D01*
X003377Y012620D01*
X003392Y012620D01*
X003392Y013392D01*
X003392Y013336D02*
X003468Y013336D01*
X003468Y013177D02*
X003392Y013177D01*
X003392Y013019D02*
X003468Y013019D01*
X003468Y012860D02*
X003392Y012860D01*
X003392Y012702D02*
X003468Y012702D01*
X003072Y012702D02*
X000460Y012702D01*
X000460Y012860D02*
X002854Y012860D01*
X002732Y013019D02*
X000460Y013019D01*
X000460Y013177D02*
X002659Y013177D01*
X002625Y013336D02*
X000460Y013336D01*
X000460Y013494D02*
X002621Y013494D01*
X002651Y013653D02*
X000460Y013653D01*
X000460Y013811D02*
X002715Y013811D01*
X002824Y013970D02*
X000460Y013970D01*
X000460Y014128D02*
X003019Y014128D01*
X003580Y018780D02*
X003980Y018780D01*
D23*
X008430Y012430D02*
X009580Y012430D01*
X009780Y012230D01*
X009780Y009930D01*
X009580Y009730D01*
X009580Y008880D01*
X009002Y008302D01*
X008670Y008302D01*
X008670Y008558D02*
X009008Y008558D01*
X009380Y008930D01*
X009380Y009780D01*
X009530Y009930D01*
X009530Y010280D01*
X009430Y010380D01*
X009430Y010680D01*
X008680Y010430D02*
X008680Y011030D01*
X008680Y010430D02*
X008430Y010180D01*
X008430Y009830D01*
X008630Y009630D01*
X008830Y009630D01*
X009005Y009455D01*
X009005Y009180D01*
X008895Y009070D01*
X008670Y009070D01*
X008670Y008814D02*
X008964Y008814D01*
X009205Y009055D01*
X009205Y009505D01*
X008730Y009980D01*
X007930Y011930D02*
X007330Y011930D01*
X007930Y011930D02*
X008430Y012430D01*
X019180Y016680D02*
X020180Y016680D01*
D24*
X013930Y013180D03*
X013055Y013805D03*
X013430Y014430D03*
X009730Y013780D03*
X007930Y014180D03*
X007430Y014180D03*
X007430Y015180D03*
X007930Y013180D03*
X007430Y012680D03*
X008030Y012580D03*
X007330Y011930D03*
X008680Y011030D03*
X009430Y010680D03*
X009180Y010180D03*
X008730Y009980D03*
X007930Y009680D03*
X007680Y009930D03*
X007430Y009680D03*
X007180Y009930D03*
X006930Y009680D03*
X006680Y009930D03*
X006430Y009680D03*
X005680Y009930D03*
X004930Y009180D03*
X004930Y007680D03*
X005680Y006930D03*
X006430Y006930D03*
X006680Y007180D03*
X006930Y006930D03*
X007180Y007180D03*
X007430Y006930D03*
X007680Y007180D03*
X007930Y006930D03*
X008180Y007180D03*
X008430Y006930D03*
X008680Y007180D03*
X009380Y008180D03*
X010130Y007930D03*
X011680Y010180D03*
X013030Y008030D03*
X014030Y006680D03*
X005180Y005930D03*
X003430Y002680D03*
X004930Y010680D03*
X000930Y016930D03*
D25*
X004930Y010680D02*
X006180Y010680D01*
X005930Y005930D02*
X005180Y005930D01*
X005930Y005930D02*
X005930Y005680D01*
X015180Y016680D02*
X016180Y016680D01*
X017180Y016680D01*
X018180Y016680D01*
X019180Y016680D01*
X022180Y016680D01*
D26*
X015180Y011930D02*
X015180Y011680D01*
X015180Y011930D02*
X014680Y012430D01*
X014680Y013180D01*
X014180Y013680D01*
X013680Y013680D01*
X013430Y013430D01*
X012930Y013430D01*
X012680Y013680D01*
X012680Y013930D01*
X012430Y014180D01*
X007930Y009680D02*
X008034Y009326D01*
X008670Y009326D01*
X006430Y010930D02*
X006314Y010930D01*
X006430Y010930D02*
X006180Y010680D01*
X004480Y001730D02*
X004130Y001730D01*
X003980Y001580D01*
X003830Y001730D01*
X003430Y001730D01*
X003980Y001580D02*
X003980Y000780D01*
X004180Y000580D01*
X011480Y000580D01*
X011680Y000780D01*
X011680Y001180D01*
D27*
X012180Y013680D02*
X011180Y013680D01*
M02*
