G75*
G70*
%OFA0B0*%
%FSLAX24Y24*%
%IPPOS*%
%LPD*%
%AMOC8*
5,1,8,0,0,1.08239X$1,22.5*
%
%ADD10R,0.0300X0.0300*%
%ADD11R,0.0300X0.0800*%
%ADD12R,0.0413X0.0177*%
%ADD13R,0.1157X0.1409*%
%ADD14R,0.0709X0.1063*%
%ADD15R,0.0800X0.0260*%
D10*
X003430Y001130D03*
X003430Y001730D03*
X004480Y001730D03*
X004480Y001130D03*
X005180Y001130D03*
X005180Y001730D03*
X006630Y004805D03*
X007230Y004805D03*
X010180Y006880D03*
X010180Y007480D03*
X010930Y007480D03*
X010930Y006880D03*
X011680Y006880D03*
X011680Y007480D03*
X013630Y007180D03*
X014230Y007180D03*
X014230Y007930D03*
X013630Y007930D03*
X013630Y008680D03*
X014230Y008680D03*
X014230Y009680D03*
X013630Y009680D03*
X013630Y010430D03*
X014230Y010430D03*
X014230Y011180D03*
X013630Y011180D03*
X013630Y011930D03*
X014230Y011930D03*
X014230Y012680D03*
X013630Y012680D03*
X013430Y014880D03*
X013430Y015480D03*
X009180Y015880D03*
X009180Y016480D03*
X008430Y016480D03*
X008430Y015880D03*
X003580Y018180D03*
X003580Y018780D03*
X002080Y016930D03*
X001480Y016930D03*
X013630Y006180D03*
X014230Y006180D03*
D11*
X001080Y001330D03*
X002580Y001330D03*
X002580Y003530D03*
X001080Y003530D03*
X001080Y017880D03*
X002580Y017880D03*
X002580Y020080D03*
X001080Y020080D03*
D12*
X006490Y009326D03*
X006490Y009070D03*
X006490Y008814D03*
X006490Y008558D03*
X006490Y008302D03*
X006490Y008046D03*
X006490Y007790D03*
X006490Y007534D03*
X008670Y007534D03*
X008670Y007790D03*
X008670Y008046D03*
X008670Y008302D03*
X008670Y008558D03*
X008670Y008814D03*
X008670Y009070D03*
X008670Y009326D03*
D13*
X007580Y008430D03*
D14*
X007796Y005930D03*
X006064Y005930D03*
X006314Y010930D03*
X008046Y010930D03*
D15*
X008940Y012180D03*
X008940Y012680D03*
X008940Y013180D03*
X008940Y013680D03*
X008940Y014180D03*
X008940Y014680D03*
X008940Y015180D03*
X006520Y015180D03*
X006520Y014680D03*
X006520Y014180D03*
X006520Y013680D03*
X006520Y013180D03*
X006520Y012680D03*
X006520Y012180D03*
M02*
