G75*
G70*
%OFA0B0*%
%FSLAX24Y24*%
%IPPOS*%
%LPD*%
%AMOC8*
5,1,8,0,0,1.08239X$1,22.5*
%
%ADD10R,0.0300X0.0300*%
%ADD11R,0.0800X0.0300*%
%ADD12R,0.0413X0.0177*%
%ADD13R,0.1157X0.1409*%
%ADD14R,0.0709X0.1063*%
%ADD15R,0.0800X0.0260*%
%ADD16R,0.1496X0.0551*%
%ADD17R,0.0460X0.0630*%
%ADD18R,0.0197X0.0256*%
D10*
X006480Y008180D03*
X007080Y008180D03*
X008630Y008305D03*
X009230Y008305D03*
X010630Y009555D03*
X011230Y009555D03*
X012130Y008368D03*
X012130Y007805D03*
X012730Y007805D03*
X012730Y008368D03*
X013880Y009555D03*
X014480Y009555D03*
X014568Y010118D03*
X015168Y010118D03*
X014605Y014430D03*
X014005Y014430D03*
X010418Y014180D03*
X009818Y014180D03*
X006980Y012430D03*
X006380Y012430D03*
X004493Y018568D03*
X004493Y019168D03*
X004493Y019755D03*
X004493Y020355D03*
X005180Y020355D03*
X005180Y019755D03*
D11*
X003530Y020218D03*
X003530Y018718D03*
X001330Y018718D03*
X001330Y020218D03*
D12*
X006490Y005576D03*
X006490Y005320D03*
X006490Y005064D03*
X006490Y004808D03*
X006490Y004552D03*
X006490Y004296D03*
X006490Y004040D03*
X006490Y003784D03*
X008670Y003784D03*
X008670Y004040D03*
X008670Y004296D03*
X008670Y004552D03*
X008670Y004808D03*
X008670Y005064D03*
X008670Y005320D03*
X008670Y005576D03*
D13*
X007580Y004680D03*
D14*
X006564Y002180D03*
X008296Y002180D03*
X008296Y007180D03*
X006564Y007180D03*
D15*
X010020Y007180D03*
X010020Y006680D03*
X010020Y006180D03*
X010020Y005680D03*
X010020Y005180D03*
X010020Y004680D03*
X010020Y004180D03*
X012440Y004180D03*
X012440Y004680D03*
X012440Y005180D03*
X012440Y005680D03*
X012440Y006180D03*
X012440Y006680D03*
X012440Y007180D03*
D16*
X004786Y016355D03*
X002424Y016355D03*
D17*
X008080Y011680D03*
X008680Y011680D03*
X009280Y011680D03*
X009280Y010680D03*
X008680Y010680D03*
X008080Y010680D03*
X012330Y010680D03*
X012930Y010680D03*
X013530Y010680D03*
X013530Y011680D03*
X012930Y011680D03*
X012330Y011680D03*
D18*
X010777Y012852D03*
X010462Y012852D03*
X010148Y012852D03*
X009833Y012852D03*
X009833Y013383D03*
X010148Y013383D03*
X010462Y013383D03*
X010777Y013383D03*
X014083Y013383D03*
X014398Y013383D03*
X014712Y013383D03*
X015027Y013383D03*
X015027Y012852D03*
X014712Y012852D03*
X014398Y012852D03*
X014083Y012852D03*
M02*
