G75*
G70*
%OFA0B0*%
%FSLAX24Y24*%
%IPPOS*%
%LPD*%
%AMOC8*
5,1,8,0,0,1.08239X$1,22.5*
%
%ADD10C,0.0000*%
%ADD11C,0.0600*%
%ADD12R,0.0600X0.0600*%
%ADD13R,0.0300X0.0300*%
%ADD14R,0.0800X0.0300*%
%ADD15R,0.0413X0.0177*%
%ADD16R,0.1157X0.1409*%
%ADD17R,0.0709X0.1063*%
%ADD18C,0.1300*%
%ADD19R,0.0800X0.0260*%
%ADD20R,0.1496X0.0551*%
%ADD21R,0.0460X0.0630*%
%ADD22R,0.0197X0.0256*%
%ADD23C,0.0740*%
%ADD24C,0.0320*%
%ADD25C,0.0160*%
%ADD26C,0.0120*%
%ADD27C,0.0080*%
%ADD28C,0.0357*%
%ADD29C,0.0100*%
%ADD30C,0.0500*%
%ADD31C,0.0240*%
D10*
X001180Y000180D02*
X021680Y000180D01*
X021740Y000182D01*
X021801Y000187D01*
X021860Y000196D01*
X021919Y000209D01*
X021978Y000225D01*
X022035Y000245D01*
X022090Y000268D01*
X022145Y000295D01*
X022197Y000324D01*
X022248Y000357D01*
X022297Y000393D01*
X022343Y000431D01*
X022387Y000473D01*
X022429Y000517D01*
X022467Y000563D01*
X022503Y000612D01*
X022536Y000663D01*
X022565Y000715D01*
X022592Y000770D01*
X022615Y000825D01*
X022635Y000882D01*
X022651Y000941D01*
X022664Y001000D01*
X022673Y001059D01*
X022678Y001120D01*
X022680Y001180D01*
X023680Y002180D01*
X023680Y015180D01*
X022930Y015930D01*
X022930Y020180D01*
X022928Y020240D01*
X022923Y020301D01*
X022914Y020360D01*
X022901Y020419D01*
X022885Y020478D01*
X022865Y020535D01*
X022842Y020590D01*
X022815Y020645D01*
X022786Y020697D01*
X022753Y020748D01*
X022717Y020797D01*
X022679Y020843D01*
X022637Y020887D01*
X022593Y020929D01*
X022547Y020967D01*
X022498Y021003D01*
X022447Y021036D01*
X022395Y021065D01*
X022340Y021092D01*
X022285Y021115D01*
X022228Y021135D01*
X022169Y021151D01*
X022110Y021164D01*
X022051Y021173D01*
X021990Y021178D01*
X021930Y021180D01*
X001180Y021180D01*
X000180Y020180D02*
X000180Y001180D01*
X000181Y001180D02*
X000192Y001115D01*
X000207Y001051D01*
X000225Y000988D01*
X000247Y000926D01*
X000272Y000865D01*
X000301Y000805D01*
X000333Y000748D01*
X000368Y000692D01*
X000406Y000638D01*
X000447Y000587D01*
X000491Y000538D01*
X000538Y000491D01*
X000587Y000447D01*
X000638Y000406D01*
X000692Y000368D01*
X000748Y000333D01*
X000805Y000301D01*
X000865Y000272D01*
X000926Y000247D01*
X000988Y000225D01*
X001051Y000207D01*
X001115Y000192D01*
X001180Y000181D01*
X000181Y020180D02*
X000192Y020245D01*
X000207Y020309D01*
X000225Y020372D01*
X000247Y020434D01*
X000272Y020495D01*
X000301Y020555D01*
X000333Y020612D01*
X000368Y020668D01*
X000406Y020722D01*
X000447Y020773D01*
X000491Y020822D01*
X000538Y020869D01*
X000587Y020913D01*
X000638Y020954D01*
X000692Y020992D01*
X000748Y021027D01*
X000805Y021059D01*
X000865Y021088D01*
X000926Y021113D01*
X000988Y021135D01*
X001051Y021153D01*
X001115Y021168D01*
X001180Y021179D01*
D11*
X006080Y020180D03*
X007080Y020180D03*
X008080Y020180D03*
X009080Y020180D03*
X010080Y020180D03*
X011080Y020180D03*
X012080Y020180D03*
X012080Y018180D03*
X011080Y018180D03*
X010080Y018180D03*
X009080Y018180D03*
X008080Y018180D03*
X007080Y018180D03*
X006080Y018180D03*
X008680Y014930D03*
X008680Y013930D03*
X008680Y012930D03*
X012930Y012930D03*
X012930Y013930D03*
X012930Y014930D03*
X016180Y014680D03*
X016180Y013680D03*
X016180Y012680D03*
X016180Y011680D03*
X016180Y010680D03*
X016180Y009680D03*
X016180Y008680D03*
X016180Y007680D03*
X016180Y006680D03*
X016180Y005680D03*
X017180Y005680D03*
X018180Y005680D03*
X019180Y005680D03*
X020180Y005680D03*
X021180Y005680D03*
X022180Y005680D03*
X022180Y006680D03*
X022180Y007680D03*
X021180Y007680D03*
X021180Y006680D03*
X020180Y006680D03*
X020180Y007680D03*
X019180Y007680D03*
X019180Y006680D03*
X018180Y006680D03*
X018180Y007680D03*
X017180Y007680D03*
X017180Y006680D03*
X017180Y008680D03*
X018180Y008680D03*
X019180Y008680D03*
X020180Y008680D03*
X021180Y008680D03*
X022180Y008680D03*
X022180Y009680D03*
X022180Y010680D03*
X021180Y010680D03*
X021180Y009680D03*
X020180Y009680D03*
X020180Y010680D03*
X019180Y010680D03*
X019180Y009680D03*
X018180Y009680D03*
X018180Y010680D03*
X017180Y010680D03*
X017180Y009680D03*
X017180Y011680D03*
X018180Y011680D03*
X019180Y011680D03*
X020180Y011680D03*
X021180Y011680D03*
X022180Y011680D03*
X022180Y012680D03*
X022180Y013680D03*
X021180Y013680D03*
X021180Y012680D03*
X020180Y012680D03*
X020180Y013680D03*
X019180Y013680D03*
X019180Y012680D03*
X018180Y012680D03*
X018180Y013680D03*
X017180Y013680D03*
X017180Y012680D03*
X017180Y014680D03*
X018180Y014680D03*
X019180Y014680D03*
X020180Y014680D03*
X021180Y014680D03*
X022180Y014680D03*
X022180Y015680D03*
X021180Y015680D03*
X020180Y015680D03*
X019180Y015680D03*
X018180Y015680D03*
X017180Y015680D03*
X016180Y015680D03*
X015680Y018180D03*
X014680Y018180D03*
X016680Y018180D03*
X017680Y018180D03*
X018680Y018180D03*
X019680Y018180D03*
X020680Y018180D03*
X020680Y020180D03*
X019680Y020180D03*
X018680Y020180D03*
X017680Y020180D03*
X016680Y020180D03*
X015680Y020180D03*
X014680Y020180D03*
X014680Y005930D03*
X014680Y004930D03*
X014680Y003180D03*
X013680Y003180D03*
X012680Y003180D03*
X011680Y003180D03*
X010680Y003180D03*
X009680Y003180D03*
X009680Y001180D03*
X010680Y001180D03*
X011680Y001180D03*
X012680Y001180D03*
X013680Y001180D03*
X014680Y001180D03*
X016680Y001180D03*
X017680Y001180D03*
X018680Y001180D03*
X019680Y001180D03*
X020680Y001180D03*
X021680Y001180D03*
X021680Y003180D03*
X020680Y003180D03*
X019680Y003180D03*
X018680Y003180D03*
X017680Y003180D03*
X016680Y003180D03*
D12*
X012930Y015930D03*
X013080Y018180D03*
X013080Y020180D03*
X008680Y015930D03*
X021680Y018180D03*
X021680Y020180D03*
D13*
X014605Y014430D03*
X014005Y014430D03*
X010418Y014180D03*
X009818Y014180D03*
X006980Y012430D03*
X006380Y012430D03*
X010630Y009555D03*
X011230Y009555D03*
X012130Y008368D03*
X012130Y007805D03*
X012730Y007805D03*
X012730Y008368D03*
X013880Y009555D03*
X014480Y009555D03*
X014568Y010118D03*
X015168Y010118D03*
X009230Y008305D03*
X008630Y008305D03*
X007080Y008180D03*
X006480Y008180D03*
X004493Y018568D03*
X004493Y019168D03*
X004493Y019755D03*
X004493Y020355D03*
X005180Y020355D03*
X005180Y019755D03*
D14*
X003530Y020218D03*
X003530Y018718D03*
X001330Y018718D03*
X001330Y020218D03*
D15*
X006490Y005576D03*
X006490Y005320D03*
X006490Y005064D03*
X006490Y004808D03*
X006490Y004552D03*
X006490Y004296D03*
X006490Y004040D03*
X006490Y003784D03*
X008670Y003784D03*
X008670Y004040D03*
X008670Y004296D03*
X008670Y004552D03*
X008670Y004808D03*
X008670Y005064D03*
X008670Y005320D03*
X008670Y005576D03*
D16*
X007580Y004680D03*
D17*
X008296Y002180D03*
X006564Y002180D03*
X006564Y007180D03*
X008296Y007180D03*
D18*
X003430Y007680D03*
X003430Y005680D03*
X003430Y003680D03*
X003430Y001680D03*
X003430Y011180D03*
X003430Y013180D03*
D19*
X010020Y007180D03*
X010020Y006680D03*
X010020Y006180D03*
X010020Y005680D03*
X010020Y005180D03*
X010020Y004680D03*
X010020Y004180D03*
X012440Y004180D03*
X012440Y004680D03*
X012440Y005180D03*
X012440Y005680D03*
X012440Y006180D03*
X012440Y006680D03*
X012440Y007180D03*
D20*
X004786Y016355D03*
X002424Y016355D03*
D21*
X008080Y011680D03*
X008680Y011680D03*
X009280Y011680D03*
X009280Y010680D03*
X008680Y010680D03*
X008080Y010680D03*
X012330Y010680D03*
X012930Y010680D03*
X013530Y010680D03*
X013530Y011680D03*
X012930Y011680D03*
X012330Y011680D03*
D22*
X010777Y012852D03*
X010462Y012852D03*
X010148Y012852D03*
X009833Y012852D03*
X009833Y013383D03*
X010148Y013383D03*
X010462Y013383D03*
X010777Y013383D03*
X014083Y013383D03*
X014398Y013383D03*
X014712Y013383D03*
X015027Y013383D03*
X015027Y012852D03*
X014712Y012852D03*
X014398Y012852D03*
X014083Y012852D03*
D23*
X016180Y016680D03*
X017180Y016680D03*
X018180Y016680D03*
X019180Y016680D03*
X020180Y016680D03*
X021180Y016680D03*
X022180Y016680D03*
X022180Y004680D03*
X021180Y004680D03*
X020180Y004680D03*
X019180Y004680D03*
X018180Y004680D03*
X017180Y004680D03*
X016180Y004680D03*
D24*
X015430Y005180D02*
X015430Y002180D01*
X009868Y002180D01*
X008868Y001180D01*
X006430Y002180D02*
X005180Y002180D01*
X004930Y006930D02*
X006180Y006930D01*
X014680Y005930D02*
X015430Y005180D01*
X014680Y004930D02*
X014680Y003180D01*
D25*
X000711Y000711D02*
X000571Y000894D01*
X000481Y001106D01*
X000460Y001206D01*
X000460Y020154D01*
X000481Y020254D01*
X000571Y020466D01*
X000711Y020649D01*
X000894Y020789D01*
X001106Y020879D01*
X001206Y020900D01*
X021930Y020900D01*
X022043Y020891D01*
X022257Y020822D01*
X022439Y020689D01*
X022572Y020507D01*
X022641Y020293D01*
X022650Y020180D01*
X022650Y016930D01*
X022629Y016980D01*
X022480Y017129D01*
X022285Y017210D01*
X022075Y017210D01*
X021880Y017129D01*
X021731Y016980D01*
X021706Y016920D01*
X021654Y016920D01*
X021629Y016980D01*
X021480Y017129D01*
X021285Y017210D01*
X021075Y017210D01*
X020880Y017129D01*
X020731Y016980D01*
X020706Y016920D01*
X020654Y016920D01*
X020629Y016980D01*
X020480Y017129D01*
X020285Y017210D01*
X020075Y017210D01*
X019880Y017129D01*
X019731Y016980D01*
X019706Y016920D01*
X019654Y016920D01*
X019629Y016980D01*
X019480Y017129D01*
X019285Y017210D01*
X019075Y017210D01*
X018880Y017129D01*
X018731Y016980D01*
X018706Y016920D01*
X018654Y016920D01*
X018629Y016980D01*
X018480Y017129D01*
X018285Y017210D01*
X018075Y017210D01*
X017880Y017129D01*
X017731Y016980D01*
X017706Y016920D01*
X017654Y016920D01*
X017629Y016980D01*
X017480Y017129D01*
X017285Y017210D01*
X017075Y017210D01*
X016880Y017129D01*
X016731Y016980D01*
X016706Y016920D01*
X016654Y016920D01*
X016629Y016980D01*
X016480Y017129D01*
X016285Y017210D01*
X016075Y017210D01*
X015880Y017129D01*
X015731Y016980D01*
X015650Y016785D01*
X015650Y016575D01*
X015675Y016514D01*
X015169Y016008D01*
X015102Y015941D01*
X015065Y015853D01*
X015065Y014195D01*
X015085Y014146D01*
X015085Y013671D01*
X015027Y013671D01*
X014920Y013671D01*
X014920Y013691D01*
X014967Y013738D01*
X015019Y013863D01*
X015019Y013997D01*
X014967Y014122D01*
X014892Y014197D01*
X014904Y014218D01*
X014915Y014259D01*
X014915Y014430D01*
X014915Y014601D01*
X014904Y014642D01*
X014883Y014678D01*
X014853Y014708D01*
X014817Y014729D01*
X014776Y014740D01*
X014605Y014740D01*
X014605Y014430D01*
X014605Y014430D01*
X014915Y014430D01*
X014605Y014430D01*
X014605Y014430D01*
X014605Y014740D01*
X014434Y014740D01*
X014393Y014729D01*
X014357Y014708D01*
X014327Y014678D01*
X014311Y014650D01*
X014221Y014740D01*
X013789Y014740D01*
X013695Y014646D01*
X013695Y014214D01*
X013765Y014144D01*
X013765Y013995D01*
X013802Y013907D01*
X013843Y013866D01*
X013843Y013596D01*
X013824Y013577D01*
X013824Y013189D01*
X013896Y013117D01*
X013870Y013092D01*
X013608Y013092D01*
X013566Y013133D01*
X013478Y013170D01*
X013328Y013170D01*
X013320Y013191D01*
X013191Y013320D01*
X013021Y013390D01*
X012838Y013390D01*
X012669Y013320D01*
X012540Y013191D01*
X012470Y013021D01*
X012470Y012838D01*
X012540Y012669D01*
X012669Y012540D01*
X012838Y012470D01*
X013021Y012470D01*
X013191Y012540D01*
X013320Y012669D01*
X013328Y012690D01*
X013331Y012690D01*
X013372Y012648D01*
X013461Y012612D01*
X013870Y012612D01*
X013918Y012564D01*
X013974Y012564D01*
X013566Y012155D01*
X013234Y012155D01*
X013230Y012151D01*
X013226Y012155D01*
X012982Y012155D01*
X012758Y012378D01*
X012691Y012446D01*
X012603Y012482D01*
X011822Y012482D01*
X011883Y012544D01*
X011920Y012632D01*
X011920Y013353D01*
X011883Y013441D01*
X011816Y013508D01*
X011441Y013883D01*
X011353Y013920D01*
X010684Y013920D01*
X010696Y013932D01*
X010717Y013968D01*
X010727Y014009D01*
X010727Y014180D01*
X010727Y014351D01*
X010717Y014392D01*
X010696Y014428D01*
X010666Y014458D01*
X010629Y014479D01*
X010589Y014490D01*
X010418Y014490D01*
X010418Y014180D01*
X010727Y014180D01*
X010418Y014180D01*
X010418Y014180D01*
X010417Y014180D01*
X010417Y014490D01*
X010246Y014490D01*
X010206Y014479D01*
X010169Y014458D01*
X010139Y014428D01*
X010123Y014400D01*
X010034Y014490D01*
X009601Y014490D01*
X009508Y014396D01*
X009508Y013964D01*
X009601Y013870D01*
X009613Y013870D01*
X009613Y013616D01*
X009574Y013577D01*
X009574Y013189D01*
X009646Y013117D01*
X009620Y013092D01*
X009358Y013092D01*
X009316Y013133D01*
X009228Y013170D01*
X009078Y013170D01*
X009070Y013191D01*
X008941Y013320D01*
X008771Y013390D01*
X008588Y013390D01*
X008419Y013320D01*
X008290Y013191D01*
X008220Y013021D01*
X008220Y012838D01*
X008290Y012669D01*
X008419Y012540D01*
X008588Y012470D01*
X008693Y012470D01*
X008664Y012441D01*
X008664Y012441D01*
X008477Y012253D01*
X008440Y012165D01*
X008440Y012155D01*
X008384Y012155D01*
X008380Y012151D01*
X008376Y012155D01*
X007784Y012155D01*
X007690Y012061D01*
X007690Y011920D01*
X007669Y011920D01*
X007622Y011967D01*
X007556Y011995D01*
X008018Y012457D01*
X008066Y012477D01*
X008133Y012544D01*
X008170Y012632D01*
X008170Y015081D01*
X008559Y015470D01*
X009046Y015470D01*
X009140Y015564D01*
X009140Y016296D01*
X009046Y016390D01*
X008314Y016390D01*
X008220Y016296D01*
X008220Y015809D01*
X007727Y015316D01*
X007690Y015228D01*
X007690Y012751D01*
X007290Y012351D01*
X007290Y012430D01*
X007290Y012601D01*
X007279Y012642D01*
X007258Y012678D01*
X007228Y012708D01*
X007192Y012729D01*
X007151Y012740D01*
X006980Y012740D01*
X006980Y012430D01*
X006980Y012430D01*
X007290Y012430D01*
X006980Y012430D01*
X006980Y012430D01*
X006980Y012120D01*
X007059Y012120D01*
X006964Y012025D01*
X006835Y011896D01*
X006835Y010651D01*
X006815Y010603D01*
X006815Y010507D01*
X006852Y010419D01*
X007669Y009602D01*
X007757Y009565D01*
X009206Y009565D01*
X009820Y008951D01*
X009820Y008614D01*
X009747Y008644D01*
X009613Y008644D01*
X009488Y008592D01*
X009479Y008583D01*
X009446Y008615D01*
X009014Y008615D01*
X008924Y008525D01*
X008908Y008553D01*
X008878Y008583D01*
X008842Y008604D01*
X008801Y008615D01*
X008630Y008615D01*
X008630Y008305D01*
X008630Y008305D01*
X008630Y007995D01*
X008801Y007995D01*
X008842Y008006D01*
X008878Y008027D01*
X008908Y008057D01*
X008924Y008085D01*
X009014Y007995D01*
X009446Y007995D01*
X009479Y008027D01*
X009488Y008018D01*
X009613Y007966D01*
X009747Y007966D01*
X009820Y007996D01*
X009820Y007470D01*
X009554Y007470D01*
X009460Y007376D01*
X009460Y006984D01*
X009514Y006930D01*
X009460Y006876D01*
X009460Y006629D01*
X009372Y006717D01*
X009247Y006769D01*
X009113Y006769D01*
X008988Y006717D01*
X008893Y006622D01*
X008841Y006497D01*
X008841Y006363D01*
X008893Y006238D01*
X008940Y006191D01*
X008940Y005812D01*
X008938Y005813D01*
X008897Y005824D01*
X008670Y005824D01*
X008670Y005576D01*
X008670Y005576D01*
X008670Y005824D01*
X008442Y005824D01*
X008401Y005813D01*
X008365Y005792D01*
X008335Y005762D01*
X008314Y005726D01*
X008303Y005685D01*
X008303Y005576D01*
X008670Y005576D01*
X008670Y005576D01*
X008303Y005576D01*
X008303Y005455D01*
X008287Y005483D01*
X008257Y005513D01*
X008220Y005534D01*
X008180Y005545D01*
X007660Y005545D01*
X007660Y004760D01*
X007500Y004760D01*
X007500Y005545D01*
X006980Y005545D01*
X006940Y005534D01*
X006903Y005513D01*
X006873Y005483D01*
X006857Y005455D01*
X006857Y005731D01*
X006763Y005824D01*
X006375Y005824D01*
X006019Y006181D01*
X006019Y006247D01*
X005967Y006372D01*
X005872Y006467D01*
X005747Y006519D01*
X005613Y006519D01*
X005488Y006467D01*
X005393Y006372D01*
X005341Y006247D01*
X005341Y006113D01*
X005344Y006105D01*
X004855Y006594D01*
X004863Y006591D01*
X004997Y006591D01*
X005043Y006610D01*
X006050Y006610D01*
X006050Y006582D01*
X006143Y006489D01*
X006984Y006489D01*
X007078Y006582D01*
X007078Y007778D01*
X006986Y007870D01*
X007080Y007870D01*
X007251Y007870D01*
X007292Y007881D01*
X007328Y007902D01*
X007358Y007932D01*
X007379Y007968D01*
X007390Y008009D01*
X007390Y008180D01*
X007390Y008351D01*
X007379Y008392D01*
X007358Y008428D01*
X007328Y008458D01*
X007292Y008479D01*
X007251Y008490D01*
X007080Y008490D01*
X007080Y008180D01*
X007080Y008180D01*
X007390Y008180D01*
X007080Y008180D01*
X007080Y008180D01*
X007080Y008490D01*
X006909Y008490D01*
X006868Y008479D01*
X006832Y008458D01*
X006802Y008428D01*
X006786Y008400D01*
X006696Y008490D01*
X006264Y008490D01*
X006194Y008420D01*
X005919Y008420D01*
X005872Y008467D01*
X005747Y008519D01*
X005613Y008519D01*
X005488Y008467D01*
X005393Y008372D01*
X005341Y008247D01*
X005341Y008113D01*
X005393Y007988D01*
X005488Y007893D01*
X005613Y007841D01*
X005747Y007841D01*
X005872Y007893D01*
X005919Y007940D01*
X006194Y007940D01*
X006262Y007871D01*
X006143Y007871D01*
X006050Y007778D01*
X006050Y007250D01*
X005043Y007250D01*
X004997Y007269D01*
X004863Y007269D01*
X004738Y007217D01*
X004643Y007122D01*
X004591Y006997D01*
X004591Y006863D01*
X004594Y006855D01*
X004149Y007300D01*
X004240Y007519D01*
X004240Y007841D01*
X004117Y008139D01*
X003889Y008367D01*
X003591Y008490D01*
X003269Y008490D01*
X002971Y008367D01*
X002743Y008139D01*
X002620Y007841D01*
X002620Y007519D01*
X002743Y007221D01*
X002971Y006993D01*
X003269Y006870D01*
X003591Y006870D01*
X003810Y006961D01*
X005005Y005766D01*
X004997Y005769D01*
X004863Y005769D01*
X004738Y005717D01*
X004643Y005622D01*
X004591Y005497D01*
X004591Y005363D01*
X004643Y005238D01*
X004738Y005143D01*
X004863Y005091D01*
X004929Y005091D01*
X004973Y005048D01*
X004401Y005048D01*
X004149Y005300D01*
X004240Y005519D01*
X004240Y005841D01*
X004117Y006139D01*
X003889Y006367D01*
X003591Y006490D01*
X003269Y006490D01*
X002971Y006367D01*
X002743Y006139D01*
X002620Y005841D01*
X002620Y005519D01*
X002743Y005221D01*
X002971Y004993D01*
X003269Y004870D01*
X003591Y004870D01*
X003810Y004961D01*
X004091Y004680D01*
X003810Y004399D01*
X003591Y004490D01*
X003269Y004490D01*
X002971Y004367D01*
X002743Y004139D01*
X002620Y003841D01*
X002620Y003519D01*
X002743Y003221D01*
X002971Y002993D01*
X003269Y002870D01*
X003591Y002870D01*
X003889Y002993D01*
X004117Y003221D01*
X004240Y003519D01*
X004240Y003841D01*
X004149Y004060D01*
X004401Y004312D01*
X004973Y004312D01*
X004929Y004269D01*
X004863Y004269D01*
X004738Y004217D01*
X004643Y004122D01*
X004591Y003997D01*
X004591Y003863D01*
X004643Y003738D01*
X004738Y003643D01*
X004863Y003591D01*
X004997Y003591D01*
X005005Y003594D01*
X003810Y002399D01*
X003591Y002490D01*
X003269Y002490D01*
X002971Y002367D01*
X002743Y002139D01*
X002620Y001841D01*
X002620Y001519D01*
X002743Y001221D01*
X002971Y000993D01*
X003148Y000920D01*
X001779Y000920D01*
X001420Y001279D01*
X001420Y018408D01*
X001796Y018408D01*
X003064Y018408D01*
X003996Y018408D01*
X004183Y018408D01*
X004183Y018396D02*
X004193Y018356D01*
X004214Y018319D01*
X004244Y018289D01*
X004281Y018268D01*
X004321Y018258D01*
X004492Y018258D01*
X004492Y018567D01*
X004493Y018567D01*
X004493Y018568D01*
X004802Y018568D01*
X004802Y018739D01*
X004792Y018779D01*
X004771Y018816D01*
X004741Y018846D01*
X004713Y018862D01*
X004791Y018940D01*
X004941Y018940D01*
X004988Y018893D01*
X005113Y018841D01*
X005247Y018841D01*
X005372Y018893D01*
X005467Y018988D01*
X005519Y019113D01*
X005519Y019247D01*
X005467Y019372D01*
X005420Y019419D01*
X005420Y019469D01*
X005490Y019539D01*
X005490Y019971D01*
X005406Y020055D01*
X005490Y020139D01*
X005490Y020571D01*
X005396Y020665D01*
X004964Y020665D01*
X004874Y020575D01*
X004799Y020575D01*
X004709Y020665D01*
X004276Y020665D01*
X004183Y020571D01*
X004183Y020139D01*
X004272Y020049D01*
X004244Y020033D01*
X004214Y020003D01*
X004193Y019967D01*
X004183Y019926D01*
X004183Y019755D01*
X004183Y019584D01*
X004193Y019543D01*
X004214Y019507D01*
X004244Y019477D01*
X004264Y019465D01*
X004183Y019384D01*
X004183Y018951D01*
X004272Y018862D01*
X004244Y018846D01*
X004214Y018816D01*
X004193Y018779D01*
X004183Y018739D01*
X004183Y018568D01*
X004492Y018568D01*
X004492Y018567D01*
X004183Y018567D01*
X004183Y018396D01*
X004090Y018501D02*
X004090Y018934D01*
X003996Y019027D01*
X003064Y019027D01*
X002994Y018957D01*
X001866Y018957D01*
X001796Y019027D01*
X001399Y019027D01*
X001380Y019038D01*
X001366Y019040D01*
X001353Y019045D01*
X001319Y019045D01*
X001285Y019049D01*
X001271Y019045D01*
X001070Y019045D01*
X001028Y019027D01*
X000864Y019027D01*
X000770Y018934D01*
X000770Y018501D01*
X000864Y018408D01*
X000460Y018408D01*
X000460Y018566D02*
X000770Y018566D01*
X000770Y018725D02*
X000460Y018725D01*
X000460Y018883D02*
X000770Y018883D01*
X001061Y019042D02*
X000460Y019042D01*
X000460Y019200D02*
X004183Y019200D01*
X004183Y019042D02*
X001361Y019042D01*
X001305Y018805D02*
X001118Y018805D01*
X001180Y018743D01*
X001180Y001180D01*
X001680Y000680D01*
X009180Y000680D01*
X009680Y001180D01*
X009852Y001607D02*
X010508Y001607D01*
X010588Y001640D02*
X010419Y001570D01*
X010290Y001441D01*
X010220Y001271D01*
X010220Y001088D01*
X010290Y000919D01*
X010419Y000790D01*
X010588Y000720D01*
X010771Y000720D01*
X010941Y000790D01*
X011070Y000919D01*
X011140Y001088D01*
X011140Y001271D01*
X011070Y001441D01*
X010941Y001570D01*
X010771Y001640D01*
X010588Y001640D01*
X010852Y001607D02*
X011508Y001607D01*
X011588Y001640D02*
X011419Y001570D01*
X011290Y001441D01*
X011220Y001271D01*
X011220Y001088D01*
X011290Y000919D01*
X011419Y000790D01*
X011588Y000720D01*
X011771Y000720D01*
X011941Y000790D01*
X012070Y000919D01*
X012140Y001088D01*
X012140Y001271D01*
X012070Y001441D01*
X011941Y001570D01*
X011771Y001640D01*
X011588Y001640D01*
X011852Y001607D02*
X012504Y001607D01*
X012503Y001606D02*
X012439Y001573D01*
X012380Y001531D01*
X012329Y001480D01*
X012287Y001421D01*
X012254Y001357D01*
X012231Y001288D01*
X012220Y001216D01*
X012220Y001200D01*
X012660Y001200D01*
X012660Y001640D01*
X012644Y001640D01*
X012572Y001629D01*
X012503Y001606D01*
X012660Y001607D02*
X012700Y001607D01*
X012700Y001640D02*
X012700Y001200D01*
X012660Y001200D01*
X012660Y001160D01*
X012220Y001160D01*
X012220Y001144D01*
X012231Y001072D01*
X012254Y001003D01*
X012287Y000939D01*
X012329Y000880D01*
X012380Y000829D01*
X012439Y000787D01*
X012503Y000754D01*
X012572Y000731D01*
X012644Y000720D01*
X012660Y000720D01*
X012660Y001160D01*
X012700Y001160D01*
X012700Y001200D01*
X013140Y001200D01*
X013140Y001216D01*
X013129Y001288D01*
X013106Y001357D01*
X013073Y001421D01*
X013031Y001480D01*
X012980Y001531D01*
X012921Y001573D01*
X012857Y001606D01*
X012788Y001629D01*
X012716Y001640D01*
X012700Y001640D01*
X012856Y001607D02*
X013504Y001607D01*
X013503Y001606D02*
X013439Y001573D01*
X013380Y001531D01*
X013329Y001480D01*
X013287Y001421D01*
X013254Y001357D01*
X013231Y001288D01*
X013220Y001216D01*
X013220Y001200D01*
X013660Y001200D01*
X013660Y001640D01*
X013644Y001640D01*
X013572Y001629D01*
X013503Y001606D01*
X013660Y001607D02*
X013700Y001607D01*
X013700Y001640D02*
X013700Y001200D01*
X013660Y001200D01*
X013660Y001160D01*
X013220Y001160D01*
X013220Y001144D01*
X013231Y001072D01*
X013254Y001003D01*
X013287Y000939D01*
X013329Y000880D01*
X013380Y000829D01*
X013439Y000787D01*
X013503Y000754D01*
X013572Y000731D01*
X013644Y000720D01*
X013660Y000720D01*
X013660Y001160D01*
X013700Y001160D01*
X013700Y001200D01*
X014140Y001200D01*
X014140Y001216D01*
X014129Y001288D01*
X014106Y001357D01*
X014073Y001421D01*
X014031Y001480D01*
X013980Y001531D01*
X013921Y001573D01*
X013857Y001606D01*
X013788Y001629D01*
X013716Y001640D01*
X013700Y001640D01*
X013856Y001607D02*
X014508Y001607D01*
X014588Y001640D02*
X014419Y001570D01*
X014290Y001441D01*
X014220Y001271D01*
X014220Y001088D01*
X014290Y000919D01*
X014419Y000790D01*
X014588Y000720D01*
X014771Y000720D01*
X014941Y000790D01*
X015070Y000919D01*
X015140Y001088D01*
X015140Y001271D01*
X015070Y001441D01*
X014941Y001570D01*
X014771Y001640D01*
X014588Y001640D01*
X014852Y001607D02*
X016508Y001607D01*
X016588Y001640D02*
X016419Y001570D01*
X016290Y001441D01*
X016220Y001271D01*
X016220Y001088D01*
X016290Y000919D01*
X016419Y000790D01*
X016588Y000720D01*
X016771Y000720D01*
X016941Y000790D01*
X017070Y000919D01*
X017140Y001088D01*
X017140Y001271D01*
X017070Y001441D01*
X016941Y001570D01*
X016771Y001640D01*
X016588Y001640D01*
X016852Y001607D02*
X017508Y001607D01*
X017588Y001640D02*
X017419Y001570D01*
X017290Y001441D01*
X017220Y001271D01*
X017220Y001088D01*
X017290Y000919D01*
X017419Y000790D01*
X017588Y000720D01*
X017771Y000720D01*
X017941Y000790D01*
X018070Y000919D01*
X018140Y001088D01*
X018140Y001271D01*
X018070Y001441D01*
X017941Y001570D01*
X017771Y001640D01*
X017588Y001640D01*
X017852Y001607D02*
X018508Y001607D01*
X018588Y001640D02*
X018419Y001570D01*
X018290Y001441D01*
X018220Y001271D01*
X018220Y001088D01*
X018290Y000919D01*
X018419Y000790D01*
X018588Y000720D01*
X018771Y000720D01*
X018941Y000790D01*
X019070Y000919D01*
X019140Y001088D01*
X019140Y001271D01*
X019070Y001441D01*
X018941Y001570D01*
X018771Y001640D01*
X018588Y001640D01*
X018297Y001448D02*
X018063Y001448D01*
X018133Y001290D02*
X018227Y001290D01*
X018220Y001131D02*
X018140Y001131D01*
X018092Y000973D02*
X018268Y000973D01*
X018395Y000814D02*
X017965Y000814D01*
X017395Y000814D02*
X016965Y000814D01*
X017092Y000973D02*
X017268Y000973D01*
X017220Y001131D02*
X017140Y001131D01*
X017133Y001290D02*
X017227Y001290D01*
X017297Y001448D02*
X017063Y001448D01*
X016297Y001448D02*
X015063Y001448D01*
X015133Y001290D02*
X016227Y001290D01*
X016220Y001131D02*
X015140Y001131D01*
X015092Y000973D02*
X016268Y000973D01*
X016395Y000814D02*
X014965Y000814D01*
X014395Y000814D02*
X013959Y000814D01*
X013980Y000829D02*
X014031Y000880D01*
X014073Y000939D01*
X014106Y001003D01*
X014129Y001072D01*
X014140Y001144D01*
X014140Y001160D01*
X013700Y001160D01*
X013700Y000720D01*
X013716Y000720D01*
X013788Y000731D01*
X013857Y000754D01*
X013921Y000787D01*
X013980Y000829D01*
X014091Y000973D02*
X014268Y000973D01*
X014220Y001131D02*
X014138Y001131D01*
X014128Y001290D02*
X014227Y001290D01*
X014297Y001448D02*
X014054Y001448D01*
X013700Y001448D02*
X013660Y001448D01*
X013660Y001290D02*
X013700Y001290D01*
X013700Y001131D02*
X013660Y001131D01*
X013660Y000973D02*
X013700Y000973D01*
X013700Y000814D02*
X013660Y000814D01*
X013401Y000814D02*
X012959Y000814D01*
X012980Y000829D02*
X013031Y000880D01*
X013073Y000939D01*
X013106Y001003D01*
X013129Y001072D01*
X013140Y001144D01*
X013140Y001160D01*
X012700Y001160D01*
X012700Y000720D01*
X012716Y000720D01*
X012788Y000731D01*
X012857Y000754D01*
X012921Y000787D01*
X012980Y000829D01*
X013091Y000973D02*
X013269Y000973D01*
X013222Y001131D02*
X013138Y001131D01*
X013128Y001290D02*
X013232Y001290D01*
X013306Y001448D02*
X013054Y001448D01*
X012700Y001448D02*
X012660Y001448D01*
X012660Y001290D02*
X012700Y001290D01*
X012700Y001131D02*
X012660Y001131D01*
X012660Y000973D02*
X012700Y000973D01*
X012700Y000814D02*
X012660Y000814D01*
X012401Y000814D02*
X011965Y000814D01*
X012092Y000973D02*
X012269Y000973D01*
X012222Y001131D02*
X012140Y001131D01*
X012133Y001290D02*
X012232Y001290D01*
X012306Y001448D02*
X012063Y001448D01*
X011297Y001448D02*
X011063Y001448D01*
X011133Y001290D02*
X011227Y001290D01*
X011220Y001131D02*
X011140Y001131D01*
X011092Y000973D02*
X011268Y000973D01*
X011395Y000814D02*
X010965Y000814D01*
X010395Y000814D02*
X009965Y000814D01*
X009941Y000790D02*
X010070Y000919D01*
X010140Y001088D01*
X010140Y001271D01*
X010070Y001441D01*
X009941Y001570D01*
X009778Y001637D01*
X010000Y001860D01*
X015494Y001860D01*
X015611Y001909D01*
X015701Y001999D01*
X015750Y002116D01*
X015750Y004370D01*
X015776Y004335D01*
X015835Y004276D01*
X015902Y004227D01*
X015977Y004189D01*
X016056Y004163D01*
X016138Y004150D01*
X016160Y004150D01*
X016160Y004660D01*
X016200Y004660D01*
X016200Y004700D01*
X016160Y004700D01*
X016160Y005210D01*
X016138Y005210D01*
X016056Y005197D01*
X015977Y005171D01*
X015902Y005133D01*
X015835Y005084D01*
X015776Y005025D01*
X015750Y004990D01*
X015750Y005244D01*
X015701Y005361D01*
X015611Y005451D01*
X015140Y005923D01*
X015140Y006021D01*
X015070Y006191D01*
X014941Y006320D01*
X014771Y006390D01*
X014588Y006390D01*
X014419Y006320D01*
X014290Y006191D01*
X014220Y006021D01*
X014220Y005838D01*
X014290Y005669D01*
X014419Y005540D01*
X014588Y005470D01*
X014687Y005470D01*
X014767Y005390D01*
X014588Y005390D01*
X014419Y005320D01*
X014290Y005191D01*
X014220Y005021D01*
X014220Y004838D01*
X014290Y004669D01*
X014360Y004599D01*
X014360Y003511D01*
X014290Y003441D01*
X014220Y003271D01*
X014220Y003088D01*
X014290Y002919D01*
X014419Y002790D01*
X014588Y002720D01*
X014771Y002720D01*
X014941Y002790D01*
X015070Y002919D01*
X015110Y003016D01*
X015110Y002500D01*
X013061Y002500D01*
X013271Y002710D01*
X013386Y002825D01*
X013439Y002787D01*
X013503Y002754D01*
X013572Y002731D01*
X013644Y002720D01*
X013660Y002720D01*
X013660Y003160D01*
X013700Y003160D01*
X013700Y003200D01*
X013660Y003200D01*
X013660Y003640D01*
X013644Y003640D01*
X013572Y003629D01*
X013503Y003606D01*
X013439Y003573D01*
X013400Y003545D01*
X013400Y004276D01*
X013834Y004710D01*
X013962Y004839D01*
X013962Y008546D01*
X014030Y008613D01*
X014081Y008738D01*
X014081Y008872D01*
X014053Y008940D01*
X014728Y008940D01*
X014816Y008977D01*
X014931Y009091D01*
X014997Y009091D01*
X015122Y009143D01*
X015217Y009238D01*
X015269Y009363D01*
X015269Y009497D01*
X015217Y009622D01*
X015122Y009717D01*
X014997Y009769D01*
X014863Y009769D01*
X014787Y009737D01*
X014779Y009767D01*
X014758Y009803D01*
X014751Y009811D01*
X014779Y009818D01*
X014816Y009839D01*
X014846Y009869D01*
X014862Y009897D01*
X014951Y009808D01*
X015384Y009808D01*
X015477Y009901D01*
X015477Y010334D01*
X015387Y010424D01*
X015387Y011409D01*
X015150Y011646D01*
X015021Y011775D01*
X014995Y011775D01*
X015368Y012148D01*
X015396Y012148D01*
X015525Y012276D01*
X015525Y014146D01*
X015545Y014195D01*
X015545Y015706D01*
X016014Y016175D01*
X016075Y016150D01*
X016285Y016150D01*
X016480Y016231D01*
X016629Y016380D01*
X016654Y016440D01*
X016706Y016440D01*
X016731Y016380D01*
X016880Y016231D01*
X017075Y016150D01*
X017285Y016150D01*
X017480Y016231D01*
X017629Y016380D01*
X017654Y016440D01*
X017706Y016440D01*
X017731Y016380D01*
X017880Y016231D01*
X018075Y016150D01*
X018285Y016150D01*
X018480Y016231D01*
X018629Y016380D01*
X018654Y016440D01*
X018706Y016440D01*
X018731Y016380D01*
X018880Y016231D01*
X019075Y016150D01*
X019285Y016150D01*
X019480Y016231D01*
X019629Y016380D01*
X019654Y016440D01*
X019706Y016440D01*
X019731Y016380D01*
X019880Y016231D01*
X020075Y016150D01*
X020285Y016150D01*
X020480Y016231D01*
X020629Y016380D01*
X020654Y016440D01*
X020706Y016440D01*
X020731Y016380D01*
X020880Y016231D01*
X021075Y016150D01*
X021285Y016150D01*
X021480Y016231D01*
X021629Y016380D01*
X021654Y016440D01*
X021706Y016440D01*
X021731Y016380D01*
X021880Y016231D01*
X022075Y016150D01*
X022285Y016150D01*
X022480Y016231D01*
X022629Y016380D01*
X022650Y016430D01*
X022650Y015874D01*
X022693Y015771D01*
X022771Y015693D01*
X023400Y015064D01*
X023400Y002296D01*
X022443Y001339D01*
X022400Y001236D01*
X022400Y001180D01*
X022391Y001067D01*
X022322Y000853D01*
X022189Y000671D01*
X022007Y000538D01*
X021793Y000469D01*
X021680Y000460D01*
X009276Y000460D01*
X009316Y000477D01*
X009383Y000544D01*
X009568Y000729D01*
X009588Y000720D01*
X009771Y000720D01*
X009941Y000790D01*
X010092Y000973D02*
X010268Y000973D01*
X010220Y001131D02*
X010140Y001131D01*
X010133Y001290D02*
X010227Y001290D01*
X010297Y001448D02*
X010063Y001448D01*
X009905Y001765D02*
X022869Y001765D01*
X022711Y001607D02*
X021852Y001607D01*
X021771Y001640D02*
X021588Y001640D01*
X021419Y001570D01*
X021290Y001441D01*
X021220Y001271D01*
X021220Y001088D01*
X021290Y000919D01*
X021419Y000790D01*
X021588Y000720D01*
X021771Y000720D01*
X021941Y000790D01*
X022070Y000919D01*
X022140Y001088D01*
X022140Y001271D01*
X022070Y001441D01*
X021941Y001570D01*
X021771Y001640D01*
X021508Y001607D02*
X020852Y001607D01*
X020771Y001640D02*
X020588Y001640D01*
X020419Y001570D01*
X020290Y001441D01*
X020220Y001271D01*
X020220Y001088D01*
X020290Y000919D01*
X020419Y000790D01*
X020588Y000720D01*
X020771Y000720D01*
X020941Y000790D01*
X021070Y000919D01*
X021140Y001088D01*
X021140Y001271D01*
X021070Y001441D01*
X020941Y001570D01*
X020771Y001640D01*
X021063Y001448D02*
X021297Y001448D01*
X021227Y001290D02*
X021133Y001290D01*
X021140Y001131D02*
X021220Y001131D01*
X021268Y000973D02*
X021092Y000973D01*
X020965Y000814D02*
X021395Y000814D01*
X021879Y000497D02*
X009336Y000497D01*
X009383Y000544D02*
X009383Y000544D01*
X009495Y000656D02*
X022168Y000656D01*
X022293Y000814D02*
X021965Y000814D01*
X022092Y000973D02*
X022360Y000973D01*
X022396Y001131D02*
X022140Y001131D01*
X022133Y001290D02*
X022422Y001290D01*
X022552Y001448D02*
X022063Y001448D01*
X023028Y001924D02*
X015626Y001924D01*
X015736Y002082D02*
X023186Y002082D01*
X023345Y002241D02*
X015750Y002241D01*
X015750Y002399D02*
X023400Y002399D01*
X023400Y002558D02*
X015750Y002558D01*
X015750Y002716D02*
X023400Y002716D01*
X023400Y002875D02*
X022025Y002875D01*
X022070Y002919D02*
X022140Y003088D01*
X022140Y003271D01*
X022070Y003441D01*
X021941Y003570D01*
X021771Y003640D01*
X021588Y003640D01*
X021419Y003570D01*
X021290Y003441D01*
X021220Y003271D01*
X021220Y003088D01*
X021290Y002919D01*
X021419Y002790D01*
X021588Y002720D01*
X021771Y002720D01*
X021941Y002790D01*
X022070Y002919D01*
X022117Y003033D02*
X023400Y003033D01*
X023400Y003192D02*
X022140Y003192D01*
X022107Y003350D02*
X023400Y003350D01*
X023400Y003509D02*
X022002Y003509D01*
X021358Y003509D02*
X021002Y003509D01*
X020941Y003570D02*
X021070Y003441D01*
X021140Y003271D01*
X021140Y003088D01*
X021070Y002919D01*
X020941Y002790D01*
X020771Y002720D01*
X020588Y002720D01*
X020419Y002790D01*
X020290Y002919D01*
X020220Y003088D01*
X020220Y003271D01*
X020290Y003441D01*
X020419Y003570D01*
X020588Y003640D01*
X020771Y003640D01*
X020941Y003570D01*
X021107Y003350D02*
X021253Y003350D01*
X021220Y003192D02*
X021140Y003192D01*
X021117Y003033D02*
X021243Y003033D01*
X021335Y002875D02*
X021025Y002875D01*
X020335Y002875D02*
X020025Y002875D01*
X020070Y002919D02*
X019941Y002790D01*
X019771Y002720D01*
X019588Y002720D01*
X019419Y002790D01*
X019290Y002919D01*
X019220Y003088D01*
X019220Y003271D01*
X019290Y003441D01*
X019419Y003570D01*
X019588Y003640D01*
X019771Y003640D01*
X019941Y003570D01*
X020070Y003441D01*
X020140Y003271D01*
X020140Y003088D01*
X020070Y002919D01*
X020117Y003033D02*
X020243Y003033D01*
X020220Y003192D02*
X020140Y003192D01*
X020107Y003350D02*
X020253Y003350D01*
X020358Y003509D02*
X020002Y003509D01*
X019358Y003509D02*
X019002Y003509D01*
X018941Y003570D02*
X018771Y003640D01*
X018588Y003640D01*
X018419Y003570D01*
X018290Y003441D01*
X018220Y003271D01*
X018220Y003088D01*
X018290Y002919D01*
X018419Y002790D01*
X018588Y002720D01*
X018771Y002720D01*
X018941Y002790D01*
X019070Y002919D01*
X019140Y003088D01*
X019140Y003271D01*
X019070Y003441D01*
X018941Y003570D01*
X019107Y003350D02*
X019253Y003350D01*
X019220Y003192D02*
X019140Y003192D01*
X019117Y003033D02*
X019243Y003033D01*
X019335Y002875D02*
X019025Y002875D01*
X018335Y002875D02*
X018025Y002875D01*
X018070Y002919D02*
X018140Y003088D01*
X018140Y003271D01*
X018070Y003441D01*
X017941Y003570D01*
X017771Y003640D01*
X017588Y003640D01*
X017419Y003570D01*
X017290Y003441D01*
X017220Y003271D01*
X017220Y003088D01*
X017290Y002919D01*
X017419Y002790D01*
X017588Y002720D01*
X017771Y002720D01*
X017941Y002790D01*
X018070Y002919D01*
X018117Y003033D02*
X018243Y003033D01*
X018220Y003192D02*
X018140Y003192D01*
X018107Y003350D02*
X018253Y003350D01*
X018358Y003509D02*
X018002Y003509D01*
X017358Y003509D02*
X017002Y003509D01*
X016941Y003570D02*
X017070Y003441D01*
X017140Y003271D01*
X017140Y003088D01*
X017070Y002919D01*
X016941Y002790D01*
X016771Y002720D01*
X016588Y002720D01*
X016419Y002790D01*
X016290Y002919D01*
X016220Y003088D01*
X016220Y003271D01*
X016290Y003441D01*
X016419Y003570D01*
X016588Y003640D01*
X016771Y003640D01*
X016941Y003570D01*
X017107Y003350D02*
X017253Y003350D01*
X017220Y003192D02*
X017140Y003192D01*
X017117Y003033D02*
X017243Y003033D01*
X017335Y002875D02*
X017025Y002875D01*
X016335Y002875D02*
X015750Y002875D01*
X015750Y003033D02*
X016243Y003033D01*
X016220Y003192D02*
X015750Y003192D01*
X015750Y003350D02*
X016253Y003350D01*
X016358Y003509D02*
X015750Y003509D01*
X015750Y003667D02*
X023400Y003667D01*
X023400Y003826D02*
X015750Y003826D01*
X015750Y003984D02*
X023400Y003984D01*
X023400Y004143D02*
X015750Y004143D01*
X015750Y004301D02*
X015809Y004301D01*
X016160Y004301D02*
X016200Y004301D01*
X016200Y004150D02*
X016222Y004150D01*
X016304Y004163D01*
X016383Y004189D01*
X016458Y004227D01*
X016525Y004276D01*
X016584Y004335D01*
X016633Y004402D01*
X016671Y004477D01*
X016680Y004504D01*
X016689Y004477D01*
X016727Y004402D01*
X016776Y004335D01*
X016835Y004276D01*
X016902Y004227D01*
X016977Y004189D01*
X017056Y004163D01*
X017138Y004150D01*
X017160Y004150D01*
X017160Y004660D01*
X017200Y004660D01*
X017200Y004700D01*
X017710Y004700D01*
X018160Y004700D01*
X018160Y005210D01*
X018138Y005210D01*
X018056Y005197D01*
X017977Y005171D01*
X017902Y005133D01*
X017835Y005084D01*
X017776Y005025D01*
X017727Y004958D01*
X017689Y004883D01*
X017680Y004856D01*
X017671Y004883D01*
X017633Y004958D01*
X017584Y005025D01*
X017525Y005084D01*
X017458Y005133D01*
X017383Y005171D01*
X017304Y005197D01*
X017222Y005210D01*
X017200Y005210D01*
X017200Y004700D01*
X017160Y004700D01*
X017160Y005210D01*
X017138Y005210D01*
X017056Y005197D01*
X016977Y005171D01*
X016902Y005133D01*
X016835Y005084D01*
X016776Y005025D01*
X016727Y004958D01*
X016689Y004883D01*
X016680Y004856D01*
X016671Y004883D01*
X016633Y004958D01*
X016584Y005025D01*
X016525Y005084D01*
X016458Y005133D01*
X016383Y005171D01*
X016304Y005197D01*
X016222Y005210D01*
X016200Y005210D01*
X016200Y004700D01*
X016710Y004700D01*
X017160Y004700D01*
X017160Y004660D01*
X016200Y004660D01*
X016200Y004150D01*
X016200Y004460D02*
X016160Y004460D01*
X016160Y004618D02*
X016200Y004618D01*
X016200Y004777D02*
X016160Y004777D01*
X016160Y004935D02*
X016200Y004935D01*
X016200Y005094D02*
X016160Y005094D01*
X016088Y005220D02*
X015919Y005290D01*
X015790Y005419D01*
X015720Y005588D01*
X015720Y005771D01*
X015790Y005941D01*
X015919Y006070D01*
X016088Y006140D01*
X016271Y006140D01*
X016441Y006070D01*
X016570Y005941D01*
X016640Y005771D01*
X016640Y005588D01*
X016570Y005419D01*
X016441Y005290D01*
X016271Y005220D01*
X016088Y005220D01*
X016011Y005252D02*
X015747Y005252D01*
X015750Y005094D02*
X015847Y005094D01*
X015799Y005411D02*
X015652Y005411D01*
X015728Y005569D02*
X015494Y005569D01*
X015335Y005728D02*
X015720Y005728D01*
X015767Y005886D02*
X015177Y005886D01*
X015130Y006045D02*
X015894Y006045D01*
X015919Y006290D02*
X016088Y006220D01*
X016271Y006220D01*
X016441Y006290D01*
X016570Y006419D01*
X016640Y006588D01*
X016640Y006771D01*
X016570Y006941D01*
X016441Y007070D01*
X016271Y007140D01*
X016088Y007140D01*
X015919Y007070D01*
X015790Y006941D01*
X015720Y006771D01*
X015720Y006588D01*
X015790Y006419D01*
X015919Y006290D01*
X015848Y006362D02*
X014840Y006362D01*
X015058Y006203D02*
X023400Y006203D01*
X023400Y006045D02*
X022466Y006045D01*
X022441Y006070D02*
X022271Y006140D01*
X022088Y006140D01*
X021919Y006070D01*
X021790Y005941D01*
X021720Y005771D01*
X021720Y005588D01*
X021790Y005419D01*
X021919Y005290D01*
X022088Y005220D01*
X022271Y005220D01*
X022441Y005290D01*
X022570Y005419D01*
X022640Y005588D01*
X022640Y005771D01*
X022570Y005941D01*
X022441Y006070D01*
X022441Y006290D02*
X022271Y006220D01*
X022088Y006220D01*
X021919Y006290D01*
X021790Y006419D01*
X021720Y006588D01*
X021720Y006771D01*
X021790Y006941D01*
X021919Y007070D01*
X022088Y007140D01*
X022271Y007140D01*
X022441Y007070D01*
X022570Y006941D01*
X022640Y006771D01*
X022640Y006588D01*
X022570Y006419D01*
X022441Y006290D01*
X022512Y006362D02*
X023400Y006362D01*
X023400Y006520D02*
X022612Y006520D01*
X022640Y006679D02*
X023400Y006679D01*
X023400Y006837D02*
X022613Y006837D01*
X022515Y006996D02*
X023400Y006996D01*
X023400Y007154D02*
X013962Y007154D01*
X013962Y006996D02*
X015845Y006996D01*
X015747Y006837D02*
X013962Y006837D01*
X013962Y006679D02*
X015720Y006679D01*
X015748Y006520D02*
X013962Y006520D01*
X013962Y006362D02*
X014520Y006362D01*
X014302Y006203D02*
X013962Y006203D01*
X013962Y006045D02*
X014230Y006045D01*
X014220Y005886D02*
X013962Y005886D01*
X013962Y005728D02*
X014266Y005728D01*
X014390Y005569D02*
X013962Y005569D01*
X013962Y005411D02*
X014747Y005411D01*
X014351Y005252D02*
X013962Y005252D01*
X013962Y005094D02*
X014250Y005094D01*
X014220Y004935D02*
X013962Y004935D01*
X013900Y004777D02*
X014246Y004777D01*
X014341Y004618D02*
X013742Y004618D01*
X013583Y004460D02*
X014360Y004460D01*
X014360Y004301D02*
X013425Y004301D01*
X013400Y004143D02*
X014360Y004143D01*
X014360Y003984D02*
X013400Y003984D01*
X013400Y003826D02*
X014360Y003826D01*
X014360Y003667D02*
X013400Y003667D01*
X013700Y003640D02*
X013700Y003200D01*
X014140Y003200D01*
X014140Y003216D01*
X014129Y003288D01*
X014106Y003357D01*
X014073Y003421D01*
X014031Y003480D01*
X013980Y003531D01*
X013921Y003573D01*
X013857Y003606D01*
X013788Y003629D01*
X013716Y003640D01*
X013700Y003640D01*
X013700Y003509D02*
X013660Y003509D01*
X013660Y003350D02*
X013700Y003350D01*
X013700Y003192D02*
X014220Y003192D01*
X014140Y003160D02*
X013700Y003160D01*
X013700Y002720D01*
X013716Y002720D01*
X013788Y002731D01*
X013857Y002754D01*
X013921Y002787D01*
X013980Y002829D01*
X014031Y002880D01*
X014073Y002939D01*
X014106Y003003D01*
X014129Y003072D01*
X014140Y003144D01*
X014140Y003160D01*
X014116Y003033D02*
X014243Y003033D01*
X014335Y002875D02*
X014025Y002875D01*
X013700Y002875D02*
X013660Y002875D01*
X013660Y003033D02*
X013700Y003033D01*
X014108Y003350D02*
X014253Y003350D01*
X014358Y003509D02*
X014002Y003509D01*
X012960Y003545D02*
X012921Y003573D01*
X012857Y003606D01*
X012788Y003629D01*
X012716Y003640D01*
X012700Y003640D01*
X012700Y003200D01*
X012660Y003200D01*
X012660Y003640D01*
X012644Y003640D01*
X012572Y003629D01*
X012503Y003606D01*
X012439Y003573D01*
X012380Y003531D01*
X012329Y003480D01*
X012287Y003421D01*
X012254Y003357D01*
X012231Y003288D01*
X012220Y003216D01*
X012220Y003200D01*
X012660Y003200D01*
X012660Y003160D01*
X012220Y003160D01*
X012220Y003144D01*
X012231Y003072D01*
X012254Y003003D01*
X012287Y002939D01*
X012315Y002900D01*
X012051Y002900D01*
X012070Y002919D01*
X012140Y003088D01*
X012140Y003271D01*
X012070Y003441D01*
X011941Y003570D01*
X011903Y003586D01*
X011941Y003602D01*
X012229Y003890D01*
X012906Y003890D01*
X012960Y003944D01*
X012960Y003545D01*
X012960Y003667D02*
X012006Y003667D01*
X012002Y003509D02*
X012358Y003509D01*
X012252Y003350D02*
X012107Y003350D01*
X012140Y003192D02*
X012660Y003192D01*
X012660Y003350D02*
X012700Y003350D01*
X012700Y003509D02*
X012660Y003509D01*
X012960Y003826D02*
X012165Y003826D01*
X012180Y004180D02*
X011805Y003805D01*
X009555Y003805D01*
X009064Y004296D01*
X008670Y004296D01*
X008670Y004808D02*
X009302Y004808D01*
X009430Y004680D01*
X010020Y004680D01*
X010020Y004230D02*
X010020Y004180D01*
X010580Y004180D01*
X010580Y004230D01*
X010819Y004230D01*
X010839Y004210D01*
X011021Y004210D01*
X011880Y005069D01*
X011880Y004984D01*
X011934Y004930D01*
X011880Y004876D01*
X011880Y004484D01*
X011934Y004430D01*
X011880Y004376D01*
X011880Y004219D01*
X011706Y004045D01*
X010580Y004045D01*
X010580Y004180D01*
X010020Y004180D01*
X010020Y004180D01*
X010020Y004180D01*
X009519Y004180D01*
X009519Y004180D01*
X010020Y004180D01*
X010020Y004180D01*
X010020Y004045D01*
X010020Y004045D01*
X010020Y004180D01*
X010020Y004180D01*
X010020Y004230D01*
X010020Y004230D01*
X010020Y004143D02*
X010020Y004143D01*
X010580Y004143D02*
X011803Y004143D01*
X011880Y004301D02*
X011112Y004301D01*
X011271Y004460D02*
X011904Y004460D01*
X011880Y004618D02*
X011429Y004618D01*
X011588Y004777D02*
X011880Y004777D01*
X011929Y004935D02*
X011746Y004935D01*
X012180Y004180D02*
X012440Y004180D01*
X012244Y003033D02*
X012117Y003033D01*
X013119Y002558D02*
X015110Y002558D01*
X015110Y002716D02*
X013277Y002716D01*
X015025Y002875D02*
X015110Y002875D01*
X016551Y004301D02*
X016809Y004301D01*
X016698Y004460D02*
X016662Y004460D01*
X017160Y004460D02*
X017200Y004460D01*
X017200Y004618D02*
X017160Y004618D01*
X017200Y004660D02*
X017200Y004150D01*
X017222Y004150D01*
X017304Y004163D01*
X017383Y004189D01*
X017458Y004227D01*
X017525Y004276D01*
X017584Y004335D01*
X017633Y004402D01*
X017671Y004477D01*
X017680Y004504D01*
X017689Y004477D01*
X017727Y004402D01*
X017776Y004335D01*
X017835Y004276D01*
X017902Y004227D01*
X017977Y004189D01*
X018056Y004163D01*
X018138Y004150D01*
X018160Y004150D01*
X018160Y004660D01*
X017200Y004660D01*
X017200Y004777D02*
X017160Y004777D01*
X017160Y004935D02*
X017200Y004935D01*
X017200Y005094D02*
X017160Y005094D01*
X017088Y005220D02*
X016919Y005290D01*
X016790Y005419D01*
X016720Y005588D01*
X016720Y005771D01*
X016790Y005941D01*
X016919Y006070D01*
X017088Y006140D01*
X017271Y006140D01*
X017441Y006070D01*
X017570Y005941D01*
X017640Y005771D01*
X017640Y005588D01*
X017570Y005419D01*
X017441Y005290D01*
X017271Y005220D01*
X017088Y005220D01*
X017011Y005252D02*
X016349Y005252D01*
X016513Y005094D02*
X016847Y005094D01*
X016715Y004935D02*
X016645Y004935D01*
X016561Y005411D02*
X016799Y005411D01*
X016728Y005569D02*
X016632Y005569D01*
X016640Y005728D02*
X016720Y005728D01*
X016767Y005886D02*
X016593Y005886D01*
X016466Y006045D02*
X016894Y006045D01*
X016919Y006290D02*
X017088Y006220D01*
X017271Y006220D01*
X017441Y006290D01*
X017570Y006419D01*
X017640Y006588D01*
X017640Y006771D01*
X017570Y006941D01*
X017441Y007070D01*
X017271Y007140D01*
X017088Y007140D01*
X016919Y007070D01*
X016790Y006941D01*
X016720Y006771D01*
X016720Y006588D01*
X016790Y006419D01*
X016919Y006290D01*
X016848Y006362D02*
X016512Y006362D01*
X016612Y006520D02*
X016748Y006520D01*
X016720Y006679D02*
X016640Y006679D01*
X016613Y006837D02*
X016747Y006837D01*
X016845Y006996D02*
X016515Y006996D01*
X016441Y007290D02*
X016271Y007220D01*
X016088Y007220D01*
X015919Y007290D01*
X015790Y007419D01*
X015720Y007588D01*
X015720Y007771D01*
X015790Y007941D01*
X015919Y008070D01*
X016088Y008140D01*
X016271Y008140D01*
X016441Y008070D01*
X016570Y007941D01*
X016640Y007771D01*
X016640Y007588D01*
X016570Y007419D01*
X016441Y007290D01*
X016463Y007313D02*
X016897Y007313D01*
X016919Y007290D02*
X017088Y007220D01*
X017271Y007220D01*
X017441Y007290D01*
X017570Y007419D01*
X017640Y007588D01*
X017640Y007771D01*
X017570Y007941D01*
X017441Y008070D01*
X017271Y008140D01*
X017088Y008140D01*
X016919Y008070D01*
X016790Y007941D01*
X016720Y007771D01*
X016720Y007588D01*
X016790Y007419D01*
X016919Y007290D01*
X016769Y007471D02*
X016591Y007471D01*
X016640Y007630D02*
X016720Y007630D01*
X016727Y007788D02*
X016633Y007788D01*
X016564Y007947D02*
X016796Y007947D01*
X017004Y008105D02*
X016356Y008105D01*
X016271Y008220D02*
X016088Y008220D01*
X015919Y008290D01*
X015790Y008419D01*
X015720Y008588D01*
X015720Y008771D01*
X015790Y008941D01*
X015919Y009070D01*
X016088Y009140D01*
X016271Y009140D01*
X016441Y009070D01*
X016570Y008941D01*
X016640Y008771D01*
X016640Y008588D01*
X016570Y008419D01*
X016441Y008290D01*
X016271Y008220D01*
X016377Y008264D02*
X016983Y008264D01*
X016919Y008290D02*
X017088Y008220D01*
X017271Y008220D01*
X017441Y008290D01*
X017570Y008419D01*
X017640Y008588D01*
X017640Y008771D01*
X017570Y008941D01*
X017441Y009070D01*
X017271Y009140D01*
X017088Y009140D01*
X016919Y009070D01*
X016790Y008941D01*
X016720Y008771D01*
X016720Y008588D01*
X016790Y008419D01*
X016919Y008290D01*
X016789Y008422D02*
X016571Y008422D01*
X016637Y008581D02*
X016723Y008581D01*
X016720Y008739D02*
X016640Y008739D01*
X016588Y008898D02*
X016772Y008898D01*
X016905Y009056D02*
X016455Y009056D01*
X016441Y009290D02*
X016570Y009419D01*
X016640Y009588D01*
X016640Y009771D01*
X016570Y009941D01*
X016441Y010070D01*
X016271Y010140D01*
X016088Y010140D01*
X015919Y010070D01*
X015790Y009941D01*
X015720Y009771D01*
X015720Y009588D01*
X015790Y009419D01*
X015919Y009290D01*
X016088Y009220D01*
X016271Y009220D01*
X016441Y009290D01*
X016524Y009373D02*
X016836Y009373D01*
X016790Y009419D02*
X016919Y009290D01*
X017088Y009220D01*
X017271Y009220D01*
X017441Y009290D01*
X017570Y009419D01*
X017640Y009588D01*
X017640Y009771D01*
X017570Y009941D01*
X017441Y010070D01*
X017271Y010140D01*
X017088Y010140D01*
X016919Y010070D01*
X016790Y009941D01*
X016720Y009771D01*
X016720Y009588D01*
X016790Y009419D01*
X016744Y009532D02*
X016616Y009532D01*
X016640Y009690D02*
X016720Y009690D01*
X016752Y009849D02*
X016608Y009849D01*
X016504Y010007D02*
X016856Y010007D01*
X016919Y010290D02*
X017088Y010220D01*
X017271Y010220D01*
X017441Y010290D01*
X017570Y010419D01*
X017640Y010588D01*
X017640Y010771D01*
X017570Y010941D01*
X017441Y011070D01*
X017271Y011140D01*
X017088Y011140D01*
X016919Y011070D01*
X016790Y010941D01*
X016720Y010771D01*
X016720Y010588D01*
X016790Y010419D01*
X016919Y010290D01*
X016885Y010324D02*
X016475Y010324D01*
X016441Y010290D02*
X016570Y010419D01*
X016640Y010588D01*
X016640Y010771D01*
X016570Y010941D01*
X016441Y011070D01*
X016271Y011140D01*
X016088Y011140D01*
X015919Y011070D01*
X015790Y010941D01*
X015720Y010771D01*
X015720Y010588D01*
X015790Y010419D01*
X015919Y010290D01*
X016088Y010220D01*
X016271Y010220D01*
X016441Y010290D01*
X016596Y010483D02*
X016764Y010483D01*
X016720Y010641D02*
X016640Y010641D01*
X016628Y010800D02*
X016732Y010800D01*
X016807Y010958D02*
X016553Y010958D01*
X016328Y011117D02*
X017032Y011117D01*
X017088Y011220D02*
X016919Y011290D01*
X016790Y011419D01*
X016720Y011588D01*
X016720Y011771D01*
X016790Y011941D01*
X016919Y012070D01*
X017088Y012140D01*
X017271Y012140D01*
X017441Y012070D01*
X017570Y011941D01*
X017640Y011771D01*
X017640Y011588D01*
X017570Y011419D01*
X017441Y011290D01*
X017271Y011220D01*
X017088Y011220D01*
X016956Y011275D02*
X016404Y011275D01*
X016441Y011290D02*
X016570Y011419D01*
X016640Y011588D01*
X016640Y011771D01*
X016570Y011941D01*
X016441Y012070D01*
X016271Y012140D01*
X016088Y012140D01*
X015919Y012070D01*
X015790Y011941D01*
X015720Y011771D01*
X015720Y011588D01*
X015790Y011419D01*
X015919Y011290D01*
X016088Y011220D01*
X016271Y011220D01*
X016441Y011290D01*
X016576Y011434D02*
X016784Y011434D01*
X016720Y011592D02*
X016640Y011592D01*
X016640Y011751D02*
X016720Y011751D01*
X016777Y011909D02*
X016583Y011909D01*
X016443Y012068D02*
X016917Y012068D01*
X016919Y012290D02*
X017088Y012220D01*
X017271Y012220D01*
X017441Y012290D01*
X017570Y012419D01*
X017640Y012588D01*
X017640Y012771D01*
X017570Y012941D01*
X017441Y013070D01*
X017271Y013140D01*
X017088Y013140D01*
X016919Y013070D01*
X016790Y012941D01*
X016720Y012771D01*
X016720Y012588D01*
X016790Y012419D01*
X016919Y012290D01*
X016825Y012385D02*
X016535Y012385D01*
X016570Y012419D02*
X016640Y012588D01*
X016640Y012771D01*
X016570Y012941D01*
X016441Y013070D01*
X016271Y013140D01*
X016088Y013140D01*
X015919Y013070D01*
X015790Y012941D01*
X015720Y012771D01*
X015720Y012588D01*
X015790Y012419D01*
X015919Y012290D01*
X016088Y012220D01*
X016271Y012220D01*
X016441Y012290D01*
X016570Y012419D01*
X016621Y012543D02*
X016739Y012543D01*
X016720Y012702D02*
X016640Y012702D01*
X016603Y012860D02*
X016757Y012860D01*
X016868Y013019D02*
X016492Y013019D01*
X016441Y013290D02*
X016271Y013220D01*
X016088Y013220D01*
X015919Y013290D01*
X015790Y013419D01*
X015720Y013588D01*
X015720Y013771D01*
X015790Y013941D01*
X015919Y014070D01*
X016088Y014140D01*
X016271Y014140D01*
X016441Y014070D01*
X016570Y013941D01*
X016640Y013771D01*
X016640Y013588D01*
X016570Y013419D01*
X016441Y013290D01*
X016486Y013336D02*
X016874Y013336D01*
X016919Y013290D02*
X017088Y013220D01*
X017271Y013220D01*
X017441Y013290D01*
X017570Y013419D01*
X017640Y013588D01*
X017640Y013771D01*
X017570Y013941D01*
X017441Y014070D01*
X017271Y014140D01*
X017088Y014140D01*
X016919Y014070D01*
X016790Y013941D01*
X016720Y013771D01*
X016720Y013588D01*
X016790Y013419D01*
X016919Y013290D01*
X016759Y013494D02*
X016601Y013494D01*
X016640Y013653D02*
X016720Y013653D01*
X016736Y013811D02*
X016624Y013811D01*
X016541Y013970D02*
X016819Y013970D01*
X017060Y014128D02*
X016300Y014128D01*
X016271Y014220D02*
X016088Y014220D01*
X015919Y014290D01*
X015790Y014419D01*
X015720Y014588D01*
X015720Y014771D01*
X015790Y014941D01*
X015919Y015070D01*
X016088Y015140D01*
X016271Y015140D01*
X016441Y015070D01*
X016570Y014941D01*
X016640Y014771D01*
X016640Y014588D01*
X016570Y014419D01*
X016441Y014290D01*
X016271Y014220D01*
X016432Y014287D02*
X016928Y014287D01*
X016919Y014290D02*
X017088Y014220D01*
X017271Y014220D01*
X017441Y014290D01*
X017570Y014419D01*
X017640Y014588D01*
X017640Y014771D01*
X017570Y014941D01*
X017441Y015070D01*
X017271Y015140D01*
X017088Y015140D01*
X016919Y015070D01*
X016790Y014941D01*
X016720Y014771D01*
X016720Y014588D01*
X016790Y014419D01*
X016919Y014290D01*
X016779Y014445D02*
X016581Y014445D01*
X016640Y014604D02*
X016720Y014604D01*
X016720Y014762D02*
X016640Y014762D01*
X016578Y014921D02*
X016782Y014921D01*
X016941Y015079D02*
X016419Y015079D01*
X016314Y015238D02*
X017046Y015238D01*
X017088Y015220D02*
X017271Y015220D01*
X017441Y015290D01*
X017570Y015419D01*
X017640Y015588D01*
X017640Y015771D01*
X017570Y015941D01*
X017441Y016070D01*
X017271Y016140D01*
X017088Y016140D01*
X016919Y016070D01*
X016790Y015941D01*
X016720Y015771D01*
X016720Y015588D01*
X016790Y015419D01*
X016919Y015290D01*
X017088Y015220D01*
X017314Y015238D02*
X018046Y015238D01*
X018088Y015220D02*
X018271Y015220D01*
X018441Y015290D01*
X018570Y015419D01*
X018640Y015588D01*
X018640Y015771D01*
X018570Y015941D01*
X018441Y016070D01*
X018271Y016140D01*
X018088Y016140D01*
X017919Y016070D01*
X017790Y015941D01*
X017720Y015771D01*
X017720Y015588D01*
X017790Y015419D01*
X017919Y015290D01*
X018088Y015220D01*
X018088Y015140D02*
X017919Y015070D01*
X017790Y014941D01*
X017720Y014771D01*
X017720Y014588D01*
X017790Y014419D01*
X017919Y014290D01*
X018088Y014220D01*
X018271Y014220D01*
X018441Y014290D01*
X018570Y014419D01*
X018640Y014588D01*
X018640Y014771D01*
X018570Y014941D01*
X018441Y015070D01*
X018271Y015140D01*
X018088Y015140D01*
X017941Y015079D02*
X017419Y015079D01*
X017578Y014921D02*
X017782Y014921D01*
X017720Y014762D02*
X017640Y014762D01*
X017640Y014604D02*
X017720Y014604D01*
X017779Y014445D02*
X017581Y014445D01*
X017432Y014287D02*
X017928Y014287D01*
X018060Y014128D02*
X017300Y014128D01*
X017541Y013970D02*
X017819Y013970D01*
X017790Y013941D02*
X017720Y013771D01*
X017720Y013588D01*
X017790Y013419D01*
X017919Y013290D01*
X018088Y013220D01*
X018271Y013220D01*
X018441Y013290D01*
X018570Y013419D01*
X018640Y013588D01*
X018640Y013771D01*
X018570Y013941D01*
X018441Y014070D01*
X018271Y014140D01*
X018088Y014140D01*
X017919Y014070D01*
X017790Y013941D01*
X017736Y013811D02*
X017624Y013811D01*
X017640Y013653D02*
X017720Y013653D01*
X017759Y013494D02*
X017601Y013494D01*
X017486Y013336D02*
X017874Y013336D01*
X017919Y013070D02*
X017790Y012941D01*
X017720Y012771D01*
X017720Y012588D01*
X017790Y012419D01*
X017919Y012290D01*
X018088Y012220D01*
X018271Y012220D01*
X018441Y012290D01*
X018570Y012419D01*
X018640Y012588D01*
X018640Y012771D01*
X018570Y012941D01*
X018441Y013070D01*
X018271Y013140D01*
X018088Y013140D01*
X017919Y013070D01*
X017868Y013019D02*
X017492Y013019D01*
X017603Y012860D02*
X017757Y012860D01*
X017720Y012702D02*
X017640Y012702D01*
X017621Y012543D02*
X017739Y012543D01*
X017825Y012385D02*
X017535Y012385D01*
X017286Y012226D02*
X018074Y012226D01*
X018088Y012140D02*
X017919Y012070D01*
X017790Y011941D01*
X017720Y011771D01*
X017720Y011588D01*
X017790Y011419D01*
X017919Y011290D01*
X018088Y011220D01*
X018271Y011220D01*
X018441Y011290D01*
X018570Y011419D01*
X018640Y011588D01*
X018640Y011771D01*
X018570Y011941D01*
X018441Y012070D01*
X018271Y012140D01*
X018088Y012140D01*
X017917Y012068D02*
X017443Y012068D01*
X017583Y011909D02*
X017777Y011909D01*
X017720Y011751D02*
X017640Y011751D01*
X017640Y011592D02*
X017720Y011592D01*
X017784Y011434D02*
X017576Y011434D01*
X017404Y011275D02*
X017956Y011275D01*
X018032Y011117D02*
X017328Y011117D01*
X017553Y010958D02*
X017807Y010958D01*
X017790Y010941D02*
X017720Y010771D01*
X017720Y010588D01*
X017790Y010419D01*
X017919Y010290D01*
X018088Y010220D01*
X018271Y010220D01*
X018441Y010290D01*
X018570Y010419D01*
X018640Y010588D01*
X018640Y010771D01*
X018570Y010941D01*
X018441Y011070D01*
X018271Y011140D01*
X018088Y011140D01*
X017919Y011070D01*
X017790Y010941D01*
X017732Y010800D02*
X017628Y010800D01*
X017640Y010641D02*
X017720Y010641D01*
X017764Y010483D02*
X017596Y010483D01*
X017475Y010324D02*
X017885Y010324D01*
X017919Y010070D02*
X017790Y009941D01*
X017720Y009771D01*
X017720Y009588D01*
X017790Y009419D01*
X017919Y009290D01*
X018088Y009220D01*
X018271Y009220D01*
X018441Y009290D01*
X018570Y009419D01*
X018640Y009588D01*
X018640Y009771D01*
X018570Y009941D01*
X018441Y010070D01*
X018271Y010140D01*
X018088Y010140D01*
X017919Y010070D01*
X017856Y010007D02*
X017504Y010007D01*
X017608Y009849D02*
X017752Y009849D01*
X017720Y009690D02*
X017640Y009690D01*
X017616Y009532D02*
X017744Y009532D01*
X017836Y009373D02*
X017524Y009373D01*
X017455Y009056D02*
X017905Y009056D01*
X017919Y009070D02*
X017790Y008941D01*
X017720Y008771D01*
X017720Y008588D01*
X017790Y008419D01*
X017919Y008290D01*
X018088Y008220D01*
X018271Y008220D01*
X018441Y008290D01*
X018570Y008419D01*
X018640Y008588D01*
X018640Y008771D01*
X018570Y008941D01*
X018441Y009070D01*
X018271Y009140D01*
X018088Y009140D01*
X017919Y009070D01*
X017772Y008898D02*
X017588Y008898D01*
X017640Y008739D02*
X017720Y008739D01*
X017723Y008581D02*
X017637Y008581D01*
X017571Y008422D02*
X017789Y008422D01*
X017983Y008264D02*
X017377Y008264D01*
X017356Y008105D02*
X018004Y008105D01*
X018088Y008140D02*
X017919Y008070D01*
X017790Y007941D01*
X017720Y007771D01*
X017720Y007588D01*
X017790Y007419D01*
X017919Y007290D01*
X018088Y007220D01*
X018271Y007220D01*
X018441Y007290D01*
X018570Y007419D01*
X018640Y007588D01*
X018640Y007771D01*
X018570Y007941D01*
X018441Y008070D01*
X018271Y008140D01*
X018088Y008140D01*
X018356Y008105D02*
X019004Y008105D01*
X019088Y008140D02*
X018919Y008070D01*
X018790Y007941D01*
X018720Y007771D01*
X018720Y007588D01*
X018790Y007419D01*
X018919Y007290D01*
X019088Y007220D01*
X019271Y007220D01*
X019441Y007290D01*
X019570Y007419D01*
X019640Y007588D01*
X019640Y007771D01*
X019570Y007941D01*
X019441Y008070D01*
X019271Y008140D01*
X019088Y008140D01*
X019088Y008220D02*
X018919Y008290D01*
X018790Y008419D01*
X018720Y008588D01*
X018720Y008771D01*
X018790Y008941D01*
X018919Y009070D01*
X019088Y009140D01*
X019271Y009140D01*
X019441Y009070D01*
X019570Y008941D01*
X019640Y008771D01*
X019640Y008588D01*
X019570Y008419D01*
X019441Y008290D01*
X019271Y008220D01*
X019088Y008220D01*
X018983Y008264D02*
X018377Y008264D01*
X018571Y008422D02*
X018789Y008422D01*
X018723Y008581D02*
X018637Y008581D01*
X018640Y008739D02*
X018720Y008739D01*
X018772Y008898D02*
X018588Y008898D01*
X018455Y009056D02*
X018905Y009056D01*
X018919Y009290D02*
X018790Y009419D01*
X018720Y009588D01*
X018720Y009771D01*
X018790Y009941D01*
X018919Y010070D01*
X019088Y010140D01*
X019271Y010140D01*
X019441Y010070D01*
X019570Y009941D01*
X019640Y009771D01*
X019640Y009588D01*
X019570Y009419D01*
X019441Y009290D01*
X019271Y009220D01*
X019088Y009220D01*
X018919Y009290D01*
X018836Y009373D02*
X018524Y009373D01*
X018616Y009532D02*
X018744Y009532D01*
X018720Y009690D02*
X018640Y009690D01*
X018608Y009849D02*
X018752Y009849D01*
X018856Y010007D02*
X018504Y010007D01*
X018475Y010324D02*
X018885Y010324D01*
X018919Y010290D02*
X019088Y010220D01*
X019271Y010220D01*
X019441Y010290D01*
X019570Y010419D01*
X019640Y010588D01*
X019640Y010771D01*
X019570Y010941D01*
X019441Y011070D01*
X019271Y011140D01*
X019088Y011140D01*
X018919Y011070D01*
X018790Y010941D01*
X018720Y010771D01*
X018720Y010588D01*
X018790Y010419D01*
X018919Y010290D01*
X018764Y010483D02*
X018596Y010483D01*
X018640Y010641D02*
X018720Y010641D01*
X018732Y010800D02*
X018628Y010800D01*
X018553Y010958D02*
X018807Y010958D01*
X019032Y011117D02*
X018328Y011117D01*
X018404Y011275D02*
X018956Y011275D01*
X018919Y011290D02*
X019088Y011220D01*
X019271Y011220D01*
X019441Y011290D01*
X019570Y011419D01*
X019640Y011588D01*
X019640Y011771D01*
X019570Y011941D01*
X019441Y012070D01*
X019271Y012140D01*
X019088Y012140D01*
X018919Y012070D01*
X018790Y011941D01*
X018720Y011771D01*
X018720Y011588D01*
X018790Y011419D01*
X018919Y011290D01*
X018784Y011434D02*
X018576Y011434D01*
X018640Y011592D02*
X018720Y011592D01*
X018720Y011751D02*
X018640Y011751D01*
X018583Y011909D02*
X018777Y011909D01*
X018917Y012068D02*
X018443Y012068D01*
X018286Y012226D02*
X019074Y012226D01*
X019088Y012220D02*
X018919Y012290D01*
X018790Y012419D01*
X018720Y012588D01*
X018720Y012771D01*
X018790Y012941D01*
X018919Y013070D01*
X019088Y013140D01*
X019271Y013140D01*
X019441Y013070D01*
X019570Y012941D01*
X019640Y012771D01*
X019640Y012588D01*
X019570Y012419D01*
X019441Y012290D01*
X019271Y012220D01*
X019088Y012220D01*
X019286Y012226D02*
X020074Y012226D01*
X020088Y012220D02*
X020271Y012220D01*
X020441Y012290D01*
X020570Y012419D01*
X020640Y012588D01*
X020640Y012771D01*
X020570Y012941D01*
X020441Y013070D01*
X020271Y013140D01*
X020088Y013140D01*
X019919Y013070D01*
X019790Y012941D01*
X019720Y012771D01*
X019720Y012588D01*
X019790Y012419D01*
X019919Y012290D01*
X020088Y012220D01*
X020088Y012140D02*
X019919Y012070D01*
X019790Y011941D01*
X019720Y011771D01*
X019720Y011588D01*
X019790Y011419D01*
X019919Y011290D01*
X020088Y011220D01*
X020271Y011220D01*
X020441Y011290D01*
X020570Y011419D01*
X020640Y011588D01*
X020640Y011771D01*
X020570Y011941D01*
X020441Y012070D01*
X020271Y012140D01*
X020088Y012140D01*
X019917Y012068D02*
X019443Y012068D01*
X019583Y011909D02*
X019777Y011909D01*
X019720Y011751D02*
X019640Y011751D01*
X019640Y011592D02*
X019720Y011592D01*
X019784Y011434D02*
X019576Y011434D01*
X019404Y011275D02*
X019956Y011275D01*
X020032Y011117D02*
X019328Y011117D01*
X019553Y010958D02*
X019807Y010958D01*
X019790Y010941D02*
X019919Y011070D01*
X020088Y011140D01*
X020271Y011140D01*
X020441Y011070D01*
X020570Y010941D01*
X020640Y010771D01*
X020640Y010588D01*
X020570Y010419D01*
X020441Y010290D01*
X020271Y010220D01*
X020088Y010220D01*
X019919Y010290D01*
X019790Y010419D01*
X019720Y010588D01*
X019720Y010771D01*
X019790Y010941D01*
X019732Y010800D02*
X019628Y010800D01*
X019640Y010641D02*
X019720Y010641D01*
X019764Y010483D02*
X019596Y010483D01*
X019475Y010324D02*
X019885Y010324D01*
X019919Y010070D02*
X019790Y009941D01*
X019720Y009771D01*
X019720Y009588D01*
X019790Y009419D01*
X019919Y009290D01*
X020088Y009220D01*
X020271Y009220D01*
X020441Y009290D01*
X020570Y009419D01*
X020640Y009588D01*
X020640Y009771D01*
X020570Y009941D01*
X020441Y010070D01*
X020271Y010140D01*
X020088Y010140D01*
X019919Y010070D01*
X019856Y010007D02*
X019504Y010007D01*
X019608Y009849D02*
X019752Y009849D01*
X019720Y009690D02*
X019640Y009690D01*
X019616Y009532D02*
X019744Y009532D01*
X019836Y009373D02*
X019524Y009373D01*
X019455Y009056D02*
X019905Y009056D01*
X019919Y009070D02*
X019790Y008941D01*
X019720Y008771D01*
X019720Y008588D01*
X019790Y008419D01*
X019919Y008290D01*
X020088Y008220D01*
X020271Y008220D01*
X020441Y008290D01*
X020570Y008419D01*
X020640Y008588D01*
X020640Y008771D01*
X020570Y008941D01*
X020441Y009070D01*
X020271Y009140D01*
X020088Y009140D01*
X019919Y009070D01*
X019772Y008898D02*
X019588Y008898D01*
X019640Y008739D02*
X019720Y008739D01*
X019723Y008581D02*
X019637Y008581D01*
X019571Y008422D02*
X019789Y008422D01*
X019983Y008264D02*
X019377Y008264D01*
X019356Y008105D02*
X020004Y008105D01*
X020088Y008140D02*
X019919Y008070D01*
X019790Y007941D01*
X019720Y007771D01*
X019720Y007588D01*
X019790Y007419D01*
X019919Y007290D01*
X020088Y007220D01*
X020271Y007220D01*
X020441Y007290D01*
X020570Y007419D01*
X020640Y007588D01*
X020640Y007771D01*
X020570Y007941D01*
X020441Y008070D01*
X020271Y008140D01*
X020088Y008140D01*
X020356Y008105D02*
X021004Y008105D01*
X021088Y008140D02*
X020919Y008070D01*
X020790Y007941D01*
X020720Y007771D01*
X020720Y007588D01*
X020790Y007419D01*
X020919Y007290D01*
X021088Y007220D01*
X021271Y007220D01*
X021441Y007290D01*
X021570Y007419D01*
X021640Y007588D01*
X021640Y007771D01*
X021570Y007941D01*
X021441Y008070D01*
X021271Y008140D01*
X021088Y008140D01*
X021088Y008220D02*
X020919Y008290D01*
X020790Y008419D01*
X020720Y008588D01*
X020720Y008771D01*
X020790Y008941D01*
X020919Y009070D01*
X021088Y009140D01*
X021271Y009140D01*
X021441Y009070D01*
X021570Y008941D01*
X021640Y008771D01*
X021640Y008588D01*
X021570Y008419D01*
X021441Y008290D01*
X021271Y008220D01*
X021088Y008220D01*
X020983Y008264D02*
X020377Y008264D01*
X020571Y008422D02*
X020789Y008422D01*
X020723Y008581D02*
X020637Y008581D01*
X020640Y008739D02*
X020720Y008739D01*
X020772Y008898D02*
X020588Y008898D01*
X020455Y009056D02*
X020905Y009056D01*
X020919Y009290D02*
X021088Y009220D01*
X021271Y009220D01*
X021441Y009290D01*
X021570Y009419D01*
X021640Y009588D01*
X021640Y009771D01*
X021570Y009941D01*
X021441Y010070D01*
X021271Y010140D01*
X021088Y010140D01*
X020919Y010070D01*
X020790Y009941D01*
X020720Y009771D01*
X020720Y009588D01*
X020790Y009419D01*
X020919Y009290D01*
X020836Y009373D02*
X020524Y009373D01*
X020616Y009532D02*
X020744Y009532D01*
X020720Y009690D02*
X020640Y009690D01*
X020608Y009849D02*
X020752Y009849D01*
X020856Y010007D02*
X020504Y010007D01*
X020475Y010324D02*
X020885Y010324D01*
X020919Y010290D02*
X021088Y010220D01*
X021271Y010220D01*
X021441Y010290D01*
X021570Y010419D01*
X021640Y010588D01*
X021640Y010771D01*
X021570Y010941D01*
X021441Y011070D01*
X021271Y011140D01*
X021088Y011140D01*
X020919Y011070D01*
X020790Y010941D01*
X020720Y010771D01*
X020720Y010588D01*
X020790Y010419D01*
X020919Y010290D01*
X020764Y010483D02*
X020596Y010483D01*
X020640Y010641D02*
X020720Y010641D01*
X020732Y010800D02*
X020628Y010800D01*
X020553Y010958D02*
X020807Y010958D01*
X021032Y011117D02*
X020328Y011117D01*
X020404Y011275D02*
X020956Y011275D01*
X020919Y011290D02*
X021088Y011220D01*
X021271Y011220D01*
X021441Y011290D01*
X021570Y011419D01*
X021640Y011588D01*
X021640Y011771D01*
X021570Y011941D01*
X021441Y012070D01*
X021271Y012140D01*
X021088Y012140D01*
X020919Y012070D01*
X020790Y011941D01*
X020720Y011771D01*
X020720Y011588D01*
X020790Y011419D01*
X020919Y011290D01*
X020784Y011434D02*
X020576Y011434D01*
X020640Y011592D02*
X020720Y011592D01*
X020720Y011751D02*
X020640Y011751D01*
X020583Y011909D02*
X020777Y011909D01*
X020917Y012068D02*
X020443Y012068D01*
X020286Y012226D02*
X021074Y012226D01*
X021088Y012220D02*
X021271Y012220D01*
X021441Y012290D01*
X021570Y012419D01*
X021640Y012588D01*
X021640Y012771D01*
X021570Y012941D01*
X021441Y013070D01*
X021271Y013140D01*
X021088Y013140D01*
X020919Y013070D01*
X020790Y012941D01*
X020720Y012771D01*
X020720Y012588D01*
X020790Y012419D01*
X020919Y012290D01*
X021088Y012220D01*
X021286Y012226D02*
X022074Y012226D01*
X022088Y012220D02*
X022271Y012220D01*
X022441Y012290D01*
X022570Y012419D01*
X022640Y012588D01*
X022640Y012771D01*
X022570Y012941D01*
X022441Y013070D01*
X022271Y013140D01*
X022088Y013140D01*
X021919Y013070D01*
X021790Y012941D01*
X021720Y012771D01*
X021720Y012588D01*
X021790Y012419D01*
X021919Y012290D01*
X022088Y012220D01*
X022088Y012140D02*
X021919Y012070D01*
X021790Y011941D01*
X021720Y011771D01*
X021720Y011588D01*
X021790Y011419D01*
X021919Y011290D01*
X022088Y011220D01*
X022271Y011220D01*
X022441Y011290D01*
X022570Y011419D01*
X022640Y011588D01*
X022640Y011771D01*
X022570Y011941D01*
X022441Y012070D01*
X022271Y012140D01*
X022088Y012140D01*
X021917Y012068D02*
X021443Y012068D01*
X021583Y011909D02*
X021777Y011909D01*
X021720Y011751D02*
X021640Y011751D01*
X021640Y011592D02*
X021720Y011592D01*
X021784Y011434D02*
X021576Y011434D01*
X021404Y011275D02*
X021956Y011275D01*
X022032Y011117D02*
X021328Y011117D01*
X021553Y010958D02*
X021807Y010958D01*
X021790Y010941D02*
X021720Y010771D01*
X021720Y010588D01*
X021790Y010419D01*
X021919Y010290D01*
X022088Y010220D01*
X022271Y010220D01*
X022441Y010290D01*
X022570Y010419D01*
X022640Y010588D01*
X022640Y010771D01*
X022570Y010941D01*
X022441Y011070D01*
X022271Y011140D01*
X022088Y011140D01*
X021919Y011070D01*
X021790Y010941D01*
X021732Y010800D02*
X021628Y010800D01*
X021640Y010641D02*
X021720Y010641D01*
X021764Y010483D02*
X021596Y010483D01*
X021475Y010324D02*
X021885Y010324D01*
X021919Y010070D02*
X021790Y009941D01*
X021720Y009771D01*
X021720Y009588D01*
X021790Y009419D01*
X021919Y009290D01*
X022088Y009220D01*
X022271Y009220D01*
X022441Y009290D01*
X022570Y009419D01*
X022640Y009588D01*
X022640Y009771D01*
X022570Y009941D01*
X022441Y010070D01*
X022271Y010140D01*
X022088Y010140D01*
X021919Y010070D01*
X021856Y010007D02*
X021504Y010007D01*
X021608Y009849D02*
X021752Y009849D01*
X021720Y009690D02*
X021640Y009690D01*
X021616Y009532D02*
X021744Y009532D01*
X021836Y009373D02*
X021524Y009373D01*
X021455Y009056D02*
X021905Y009056D01*
X021919Y009070D02*
X021790Y008941D01*
X021720Y008771D01*
X021720Y008588D01*
X021790Y008419D01*
X021919Y008290D01*
X022088Y008220D01*
X022271Y008220D01*
X022441Y008290D01*
X022570Y008419D01*
X022640Y008588D01*
X022640Y008771D01*
X022570Y008941D01*
X022441Y009070D01*
X022271Y009140D01*
X022088Y009140D01*
X021919Y009070D01*
X021772Y008898D02*
X021588Y008898D01*
X021640Y008739D02*
X021720Y008739D01*
X021723Y008581D02*
X021637Y008581D01*
X021571Y008422D02*
X021789Y008422D01*
X021983Y008264D02*
X021377Y008264D01*
X021356Y008105D02*
X022004Y008105D01*
X022088Y008140D02*
X021919Y008070D01*
X021790Y007941D01*
X021720Y007771D01*
X021720Y007588D01*
X021790Y007419D01*
X021919Y007290D01*
X022088Y007220D01*
X022271Y007220D01*
X022441Y007290D01*
X022570Y007419D01*
X022640Y007588D01*
X022640Y007771D01*
X022570Y007941D01*
X022441Y008070D01*
X022271Y008140D01*
X022088Y008140D01*
X022356Y008105D02*
X023400Y008105D01*
X023400Y007947D02*
X022564Y007947D01*
X022633Y007788D02*
X023400Y007788D01*
X023400Y007630D02*
X022640Y007630D01*
X022591Y007471D02*
X023400Y007471D01*
X023400Y007313D02*
X022463Y007313D01*
X021897Y007313D02*
X021463Y007313D01*
X021591Y007471D02*
X021769Y007471D01*
X021720Y007630D02*
X021640Y007630D01*
X021633Y007788D02*
X021727Y007788D01*
X021796Y007947D02*
X021564Y007947D01*
X020796Y007947D02*
X020564Y007947D01*
X020633Y007788D02*
X020727Y007788D01*
X020720Y007630D02*
X020640Y007630D01*
X020591Y007471D02*
X020769Y007471D01*
X020897Y007313D02*
X020463Y007313D01*
X020441Y007070D02*
X020271Y007140D01*
X020088Y007140D01*
X019919Y007070D01*
X019790Y006941D01*
X019720Y006771D01*
X019720Y006588D01*
X019790Y006419D01*
X019919Y006290D01*
X020088Y006220D01*
X020271Y006220D01*
X020441Y006290D01*
X020570Y006419D01*
X020640Y006588D01*
X020640Y006771D01*
X020570Y006941D01*
X020441Y007070D01*
X020515Y006996D02*
X020845Y006996D01*
X020790Y006941D02*
X020720Y006771D01*
X020720Y006588D01*
X020790Y006419D01*
X020919Y006290D01*
X021088Y006220D01*
X021271Y006220D01*
X021441Y006290D01*
X021570Y006419D01*
X021640Y006588D01*
X021640Y006771D01*
X021570Y006941D01*
X021441Y007070D01*
X021271Y007140D01*
X021088Y007140D01*
X020919Y007070D01*
X020790Y006941D01*
X020747Y006837D02*
X020613Y006837D01*
X020640Y006679D02*
X020720Y006679D01*
X020748Y006520D02*
X020612Y006520D01*
X020512Y006362D02*
X020848Y006362D01*
X020919Y006070D02*
X020790Y005941D01*
X020720Y005771D01*
X020720Y005588D01*
X020790Y005419D01*
X020919Y005290D01*
X021088Y005220D01*
X021271Y005220D01*
X021441Y005290D01*
X021570Y005419D01*
X021640Y005588D01*
X021640Y005771D01*
X021570Y005941D01*
X021441Y006070D01*
X021271Y006140D01*
X021088Y006140D01*
X020919Y006070D01*
X020894Y006045D02*
X020466Y006045D01*
X020441Y006070D02*
X020271Y006140D01*
X020088Y006140D01*
X019919Y006070D01*
X019790Y005941D01*
X019720Y005771D01*
X019720Y005588D01*
X019790Y005419D01*
X019919Y005290D01*
X020088Y005220D01*
X020271Y005220D01*
X020441Y005290D01*
X020570Y005419D01*
X020640Y005588D01*
X020640Y005771D01*
X020570Y005941D01*
X020441Y006070D01*
X020593Y005886D02*
X020767Y005886D01*
X020720Y005728D02*
X020640Y005728D01*
X020632Y005569D02*
X020728Y005569D01*
X020799Y005411D02*
X020561Y005411D01*
X020349Y005252D02*
X021011Y005252D01*
X021056Y005197D02*
X020977Y005171D01*
X020902Y005133D01*
X020835Y005084D01*
X020776Y005025D01*
X020727Y004958D01*
X020689Y004883D01*
X020680Y004856D01*
X020671Y004883D01*
X020633Y004958D01*
X020584Y005025D01*
X020525Y005084D01*
X020458Y005133D01*
X020383Y005171D01*
X020304Y005197D01*
X020222Y005210D01*
X020200Y005210D01*
X020200Y004700D01*
X020160Y004700D01*
X020160Y005210D01*
X020138Y005210D01*
X020056Y005197D01*
X019977Y005171D01*
X019902Y005133D01*
X019835Y005084D01*
X019776Y005025D01*
X019727Y004958D01*
X019689Y004883D01*
X019680Y004856D01*
X019671Y004883D01*
X019633Y004958D01*
X019584Y005025D01*
X019525Y005084D01*
X019458Y005133D01*
X019383Y005171D01*
X019304Y005197D01*
X019222Y005210D01*
X019200Y005210D01*
X019200Y004700D01*
X019710Y004700D01*
X020160Y004700D01*
X020160Y004660D01*
X019200Y004660D01*
X019200Y004700D01*
X019160Y004700D01*
X019160Y005210D01*
X019138Y005210D01*
X019056Y005197D01*
X018977Y005171D01*
X018902Y005133D01*
X018835Y005084D01*
X018776Y005025D01*
X018727Y004958D01*
X018689Y004883D01*
X018680Y004856D01*
X018671Y004883D01*
X018633Y004958D01*
X018584Y005025D01*
X018525Y005084D01*
X018458Y005133D01*
X018383Y005171D01*
X018304Y005197D01*
X018222Y005210D01*
X018200Y005210D01*
X018200Y004700D01*
X018160Y004700D01*
X018160Y004660D01*
X018200Y004660D01*
X018200Y004700D01*
X018710Y004700D01*
X019160Y004700D01*
X019160Y004660D01*
X019200Y004660D01*
X019200Y004150D01*
X019222Y004150D01*
X019304Y004163D01*
X019383Y004189D01*
X019458Y004227D01*
X019525Y004276D01*
X019584Y004335D01*
X019633Y004402D01*
X019671Y004477D01*
X019680Y004504D01*
X019689Y004477D01*
X019727Y004402D01*
X019776Y004335D01*
X019835Y004276D01*
X019902Y004227D01*
X019977Y004189D01*
X020056Y004163D01*
X020138Y004150D01*
X020160Y004150D01*
X020160Y004660D01*
X020200Y004660D01*
X020200Y004700D01*
X020650Y004700D01*
X021160Y004700D01*
X021160Y005210D01*
X021138Y005210D01*
X021056Y005197D01*
X021200Y005210D02*
X021200Y004700D01*
X021710Y004700D01*
X022160Y004700D01*
X022160Y005210D01*
X022138Y005210D01*
X022056Y005197D01*
X021977Y005171D01*
X021902Y005133D01*
X021835Y005084D01*
X021776Y005025D01*
X021727Y004958D01*
X021689Y004883D01*
X021680Y004856D01*
X021671Y004883D01*
X021633Y004958D01*
X021584Y005025D01*
X021525Y005084D01*
X021458Y005133D01*
X021383Y005171D01*
X021304Y005197D01*
X021222Y005210D01*
X021200Y005210D01*
X021200Y005094D02*
X021160Y005094D01*
X021160Y004935D02*
X021200Y004935D01*
X021200Y004777D02*
X021160Y004777D01*
X021160Y004700D02*
X021200Y004700D01*
X021200Y004660D01*
X022160Y004660D01*
X022160Y004700D01*
X022200Y004700D01*
X022200Y005210D01*
X022222Y005210D01*
X022304Y005197D01*
X022383Y005171D01*
X022458Y005133D01*
X022525Y005084D01*
X022584Y005025D01*
X022633Y004958D01*
X022671Y004883D01*
X022697Y004804D01*
X022710Y004722D01*
X022710Y004700D01*
X022200Y004700D01*
X022200Y004660D01*
X022710Y004660D01*
X022710Y004638D01*
X022697Y004556D01*
X022671Y004477D01*
X022633Y004402D01*
X022584Y004335D01*
X022525Y004276D01*
X022458Y004227D01*
X022383Y004189D01*
X022304Y004163D01*
X022222Y004150D01*
X022200Y004150D01*
X022200Y004660D01*
X022160Y004660D01*
X022160Y004150D01*
X022138Y004150D01*
X022056Y004163D01*
X021977Y004189D01*
X021902Y004227D01*
X021835Y004276D01*
X021776Y004335D01*
X021727Y004402D01*
X021689Y004477D01*
X021680Y004504D01*
X021671Y004477D01*
X021633Y004402D01*
X021584Y004335D01*
X021525Y004276D01*
X021458Y004227D01*
X021383Y004189D01*
X021304Y004163D01*
X021222Y004150D01*
X021200Y004150D01*
X021200Y004660D01*
X021160Y004660D01*
X021160Y004150D01*
X021138Y004150D01*
X021056Y004163D01*
X020977Y004189D01*
X020902Y004227D01*
X020835Y004276D01*
X020776Y004335D01*
X020727Y004402D01*
X020689Y004477D01*
X020680Y004504D01*
X020671Y004477D01*
X020633Y004402D01*
X020584Y004335D01*
X020525Y004276D01*
X020458Y004227D01*
X020383Y004189D01*
X020304Y004163D01*
X020222Y004150D01*
X020200Y004150D01*
X020200Y004660D01*
X021160Y004660D01*
X021160Y004700D01*
X021160Y004618D02*
X021200Y004618D01*
X021200Y004460D02*
X021160Y004460D01*
X021160Y004301D02*
X021200Y004301D01*
X020809Y004301D02*
X020551Y004301D01*
X020662Y004460D02*
X020698Y004460D01*
X020200Y004460D02*
X020160Y004460D01*
X020160Y004618D02*
X020200Y004618D01*
X020200Y004777D02*
X020160Y004777D01*
X020160Y004935D02*
X020200Y004935D01*
X020200Y005094D02*
X020160Y005094D01*
X020011Y005252D02*
X019349Y005252D01*
X019271Y005220D02*
X019441Y005290D01*
X019570Y005419D01*
X019640Y005588D01*
X019640Y005771D01*
X019570Y005941D01*
X019441Y006070D01*
X019271Y006140D01*
X019088Y006140D01*
X018919Y006070D01*
X018790Y005941D01*
X018720Y005771D01*
X018720Y005588D01*
X018790Y005419D01*
X018919Y005290D01*
X019088Y005220D01*
X019271Y005220D01*
X019200Y005094D02*
X019160Y005094D01*
X019160Y004935D02*
X019200Y004935D01*
X019200Y004777D02*
X019160Y004777D01*
X019160Y004660D02*
X018200Y004660D01*
X018200Y004150D01*
X018222Y004150D01*
X018304Y004163D01*
X018383Y004189D01*
X018458Y004227D01*
X018525Y004276D01*
X018584Y004335D01*
X018633Y004402D01*
X018671Y004477D01*
X018680Y004504D01*
X018689Y004477D01*
X018727Y004402D01*
X018776Y004335D01*
X018835Y004276D01*
X018902Y004227D01*
X018977Y004189D01*
X019056Y004163D01*
X019138Y004150D01*
X019160Y004150D01*
X019160Y004660D01*
X019160Y004618D02*
X019200Y004618D01*
X019200Y004460D02*
X019160Y004460D01*
X019160Y004301D02*
X019200Y004301D01*
X019551Y004301D02*
X019809Y004301D01*
X019698Y004460D02*
X019662Y004460D01*
X020160Y004301D02*
X020200Y004301D01*
X020645Y004935D02*
X020715Y004935D01*
X020847Y005094D02*
X020513Y005094D01*
X019847Y005094D02*
X019513Y005094D01*
X019645Y004935D02*
X019715Y004935D01*
X019799Y005411D02*
X019561Y005411D01*
X019632Y005569D02*
X019728Y005569D01*
X019720Y005728D02*
X019640Y005728D01*
X019593Y005886D02*
X019767Y005886D01*
X019894Y006045D02*
X019466Y006045D01*
X019441Y006290D02*
X019271Y006220D01*
X019088Y006220D01*
X018919Y006290D01*
X018790Y006419D01*
X018720Y006588D01*
X018720Y006771D01*
X018790Y006941D01*
X018919Y007070D01*
X019088Y007140D01*
X019271Y007140D01*
X019441Y007070D01*
X019570Y006941D01*
X019640Y006771D01*
X019640Y006588D01*
X019570Y006419D01*
X019441Y006290D01*
X019512Y006362D02*
X019848Y006362D01*
X019748Y006520D02*
X019612Y006520D01*
X019640Y006679D02*
X019720Y006679D01*
X019747Y006837D02*
X019613Y006837D01*
X019515Y006996D02*
X019845Y006996D01*
X019897Y007313D02*
X019463Y007313D01*
X019591Y007471D02*
X019769Y007471D01*
X019720Y007630D02*
X019640Y007630D01*
X019633Y007788D02*
X019727Y007788D01*
X019796Y007947D02*
X019564Y007947D01*
X018796Y007947D02*
X018564Y007947D01*
X018633Y007788D02*
X018727Y007788D01*
X018720Y007630D02*
X018640Y007630D01*
X018591Y007471D02*
X018769Y007471D01*
X018897Y007313D02*
X018463Y007313D01*
X018441Y007070D02*
X018271Y007140D01*
X018088Y007140D01*
X017919Y007070D01*
X017790Y006941D01*
X017720Y006771D01*
X017720Y006588D01*
X017790Y006419D01*
X017919Y006290D01*
X018088Y006220D01*
X018271Y006220D01*
X018441Y006290D01*
X018570Y006419D01*
X018640Y006588D01*
X018640Y006771D01*
X018570Y006941D01*
X018441Y007070D01*
X018515Y006996D02*
X018845Y006996D01*
X018747Y006837D02*
X018613Y006837D01*
X018640Y006679D02*
X018720Y006679D01*
X018748Y006520D02*
X018612Y006520D01*
X018512Y006362D02*
X018848Y006362D01*
X018894Y006045D02*
X018466Y006045D01*
X018441Y006070D02*
X018271Y006140D01*
X018088Y006140D01*
X017919Y006070D01*
X017790Y005941D01*
X017720Y005771D01*
X017720Y005588D01*
X017790Y005419D01*
X017919Y005290D01*
X018088Y005220D01*
X018271Y005220D01*
X018441Y005290D01*
X018570Y005419D01*
X018640Y005588D01*
X018640Y005771D01*
X018570Y005941D01*
X018441Y006070D01*
X018593Y005886D02*
X018767Y005886D01*
X018720Y005728D02*
X018640Y005728D01*
X018632Y005569D02*
X018728Y005569D01*
X018799Y005411D02*
X018561Y005411D01*
X018349Y005252D02*
X019011Y005252D01*
X018847Y005094D02*
X018513Y005094D01*
X018645Y004935D02*
X018715Y004935D01*
X018200Y004935D02*
X018160Y004935D01*
X018160Y004777D02*
X018200Y004777D01*
X018200Y004618D02*
X018160Y004618D01*
X018160Y004460D02*
X018200Y004460D01*
X018200Y004301D02*
X018160Y004301D01*
X018551Y004301D02*
X018809Y004301D01*
X018698Y004460D02*
X018662Y004460D01*
X018200Y005094D02*
X018160Y005094D01*
X018011Y005252D02*
X017349Y005252D01*
X017513Y005094D02*
X017847Y005094D01*
X017715Y004935D02*
X017645Y004935D01*
X017561Y005411D02*
X017799Y005411D01*
X017728Y005569D02*
X017632Y005569D01*
X017640Y005728D02*
X017720Y005728D01*
X017767Y005886D02*
X017593Y005886D01*
X017466Y006045D02*
X017894Y006045D01*
X017848Y006362D02*
X017512Y006362D01*
X017612Y006520D02*
X017748Y006520D01*
X017720Y006679D02*
X017640Y006679D01*
X017613Y006837D02*
X017747Y006837D01*
X017845Y006996D02*
X017515Y006996D01*
X017463Y007313D02*
X017897Y007313D01*
X017769Y007471D02*
X017591Y007471D01*
X017640Y007630D02*
X017720Y007630D01*
X017727Y007788D02*
X017633Y007788D01*
X017564Y007947D02*
X017796Y007947D01*
X016004Y008105D02*
X013962Y008105D01*
X013962Y007947D02*
X015796Y007947D01*
X015727Y007788D02*
X013962Y007788D01*
X013962Y007630D02*
X015720Y007630D01*
X015769Y007471D02*
X013962Y007471D01*
X013962Y007313D02*
X015897Y007313D01*
X015983Y008264D02*
X013962Y008264D01*
X013962Y008422D02*
X015789Y008422D01*
X015723Y008581D02*
X013997Y008581D01*
X014081Y008739D02*
X015720Y008739D01*
X015772Y008898D02*
X014071Y008898D01*
X013618Y009180D02*
X014680Y009180D01*
X014930Y009430D01*
X015149Y009690D02*
X015720Y009690D01*
X015744Y009532D02*
X015255Y009532D01*
X015269Y009373D02*
X015836Y009373D01*
X015905Y009056D02*
X014895Y009056D01*
X015194Y009215D02*
X023400Y009215D01*
X023400Y009373D02*
X022524Y009373D01*
X022616Y009532D02*
X023400Y009532D01*
X023400Y009690D02*
X022640Y009690D01*
X022608Y009849D02*
X023400Y009849D01*
X023400Y010007D02*
X022504Y010007D01*
X022475Y010324D02*
X023400Y010324D01*
X023400Y010166D02*
X015477Y010166D01*
X015477Y010324D02*
X015885Y010324D01*
X015764Y010483D02*
X015387Y010483D01*
X015387Y010641D02*
X015720Y010641D01*
X015732Y010800D02*
X015387Y010800D01*
X015387Y010958D02*
X015807Y010958D01*
X016032Y011117D02*
X015387Y011117D01*
X015387Y011275D02*
X015956Y011275D01*
X015784Y011434D02*
X015363Y011434D01*
X015204Y011592D02*
X015720Y011592D01*
X015720Y011751D02*
X015046Y011751D01*
X015129Y011909D02*
X015777Y011909D01*
X015917Y012068D02*
X015288Y012068D01*
X015475Y012226D02*
X016074Y012226D01*
X016286Y012226D02*
X017074Y012226D01*
X015825Y012385D02*
X015525Y012385D01*
X015525Y012543D02*
X015739Y012543D01*
X015720Y012702D02*
X015525Y012702D01*
X015525Y012860D02*
X015757Y012860D01*
X015868Y013019D02*
X015525Y013019D01*
X015525Y013177D02*
X023400Y013177D01*
X023400Y013019D02*
X022492Y013019D01*
X022603Y012860D02*
X023400Y012860D01*
X023400Y012702D02*
X022640Y012702D01*
X022621Y012543D02*
X023400Y012543D01*
X023400Y012385D02*
X022535Y012385D01*
X022286Y012226D02*
X023400Y012226D01*
X023400Y012068D02*
X022443Y012068D01*
X022583Y011909D02*
X023400Y011909D01*
X023400Y011751D02*
X022640Y011751D01*
X022640Y011592D02*
X023400Y011592D01*
X023400Y011434D02*
X022576Y011434D01*
X022404Y011275D02*
X023400Y011275D01*
X023400Y011117D02*
X022328Y011117D01*
X022553Y010958D02*
X023400Y010958D01*
X023400Y010800D02*
X022628Y010800D01*
X022640Y010641D02*
X023400Y010641D01*
X023400Y010483D02*
X022596Y010483D01*
X022455Y009056D02*
X023400Y009056D01*
X023400Y008898D02*
X022588Y008898D01*
X022640Y008739D02*
X023400Y008739D01*
X023400Y008581D02*
X022637Y008581D01*
X022571Y008422D02*
X023400Y008422D01*
X023400Y008264D02*
X022377Y008264D01*
X021845Y006996D02*
X021515Y006996D01*
X021613Y006837D02*
X021747Y006837D01*
X021720Y006679D02*
X021640Y006679D01*
X021612Y006520D02*
X021748Y006520D01*
X021848Y006362D02*
X021512Y006362D01*
X021466Y006045D02*
X021894Y006045D01*
X021767Y005886D02*
X021593Y005886D01*
X021640Y005728D02*
X021720Y005728D01*
X021728Y005569D02*
X021632Y005569D01*
X021561Y005411D02*
X021799Y005411D01*
X022011Y005252D02*
X021349Y005252D01*
X021513Y005094D02*
X021847Y005094D01*
X021715Y004935D02*
X021645Y004935D01*
X022160Y004935D02*
X022200Y004935D01*
X022200Y004777D02*
X022160Y004777D01*
X022160Y004618D02*
X022200Y004618D01*
X022200Y004460D02*
X022160Y004460D01*
X022160Y004301D02*
X022200Y004301D01*
X022551Y004301D02*
X023400Y004301D01*
X023400Y004460D02*
X022662Y004460D01*
X022707Y004618D02*
X023400Y004618D01*
X023400Y004777D02*
X022701Y004777D01*
X022645Y004935D02*
X023400Y004935D01*
X023400Y005094D02*
X022513Y005094D01*
X022349Y005252D02*
X023400Y005252D01*
X023400Y005411D02*
X022561Y005411D01*
X022632Y005569D02*
X023400Y005569D01*
X023400Y005728D02*
X022640Y005728D01*
X022593Y005886D02*
X023400Y005886D01*
X022200Y005094D02*
X022160Y005094D01*
X021698Y004460D02*
X021662Y004460D01*
X021551Y004301D02*
X021809Y004301D01*
X020508Y001607D02*
X019852Y001607D01*
X019771Y001640D02*
X019941Y001570D01*
X020070Y001441D01*
X020140Y001271D01*
X020140Y001088D01*
X020070Y000919D01*
X019941Y000790D01*
X019771Y000720D01*
X019588Y000720D01*
X019419Y000790D01*
X019290Y000919D01*
X019220Y001088D01*
X019220Y001271D01*
X019290Y001441D01*
X019419Y001570D01*
X019588Y001640D01*
X019771Y001640D01*
X019508Y001607D02*
X018852Y001607D01*
X019063Y001448D02*
X019297Y001448D01*
X019227Y001290D02*
X019133Y001290D01*
X019140Y001131D02*
X019220Y001131D01*
X019268Y000973D02*
X019092Y000973D01*
X018965Y000814D02*
X019395Y000814D01*
X019965Y000814D02*
X020395Y000814D01*
X020268Y000973D02*
X020092Y000973D01*
X020140Y001131D02*
X020220Y001131D01*
X020227Y001290D02*
X020133Y001290D01*
X020063Y001448D02*
X020297Y001448D01*
X017809Y004301D02*
X017551Y004301D01*
X017662Y004460D02*
X017698Y004460D01*
X017200Y004301D02*
X017160Y004301D01*
X012898Y007470D02*
X011974Y007470D01*
X011924Y007420D01*
X011919Y007420D01*
X011872Y007467D01*
X011747Y007519D01*
X011613Y007519D01*
X011488Y007467D01*
X011393Y007372D01*
X011365Y007306D01*
X011170Y007501D01*
X011170Y007941D01*
X011217Y007988D01*
X011269Y008113D01*
X011269Y008247D01*
X011217Y008372D01*
X011122Y008467D01*
X010997Y008519D01*
X010863Y008519D01*
X010738Y008467D01*
X010643Y008372D01*
X010591Y008247D01*
X010591Y008113D01*
X010643Y007988D01*
X010690Y007941D01*
X010690Y007382D01*
X010727Y007294D01*
X010794Y007227D01*
X010842Y007207D01*
X011053Y006996D01*
X010997Y007019D01*
X010863Y007019D01*
X010738Y006967D01*
X010691Y006920D01*
X010536Y006920D01*
X010526Y006930D01*
X010580Y006984D01*
X010580Y007376D01*
X010486Y007470D01*
X010220Y007470D01*
X010220Y008951D01*
X010223Y008954D01*
X010260Y009042D01*
X010260Y009138D01*
X010223Y009226D01*
X010134Y009315D01*
X010344Y009315D01*
X010414Y009245D01*
X010846Y009245D01*
X010930Y009329D01*
X011014Y009245D01*
X011144Y009245D01*
X011400Y008989D01*
X011400Y008567D01*
X011393Y008559D01*
X011341Y008435D01*
X011341Y008300D01*
X011393Y008176D01*
X011488Y008080D01*
X011613Y008029D01*
X011747Y008029D01*
X011872Y008080D01*
X011881Y008090D01*
X011885Y008086D01*
X011820Y008021D01*
X011820Y007589D01*
X011914Y007495D01*
X012346Y007495D01*
X012436Y007585D01*
X012452Y007557D01*
X012482Y007527D01*
X012518Y007506D01*
X012559Y007495D01*
X012730Y007495D01*
X012898Y007495D01*
X012898Y007470D01*
X012898Y007471D02*
X011863Y007471D01*
X011820Y007630D02*
X011170Y007630D01*
X011170Y007788D02*
X011820Y007788D01*
X011820Y007947D02*
X011176Y007947D01*
X011266Y008105D02*
X011463Y008105D01*
X011356Y008264D02*
X011262Y008264D01*
X011341Y008422D02*
X011167Y008422D01*
X011400Y008581D02*
X010220Y008581D01*
X010220Y008739D02*
X011400Y008739D01*
X011400Y008898D02*
X010220Y008898D01*
X010260Y009056D02*
X011333Y009056D01*
X011175Y009215D02*
X010228Y009215D01*
X010020Y009090D02*
X009305Y009805D01*
X007805Y009805D01*
X007055Y010555D01*
X006831Y010641D02*
X006670Y010641D01*
X006670Y010483D02*
X006825Y010483D01*
X006947Y010324D02*
X006670Y010324D01*
X006670Y010166D02*
X007105Y010166D01*
X007264Y010007D02*
X006670Y010007D01*
X006670Y009919D02*
X006670Y012194D01*
X006686Y012210D01*
X006702Y012182D01*
X006732Y012152D01*
X006768Y012131D01*
X006809Y012120D01*
X006980Y012120D01*
X006980Y012430D01*
X006980Y012430D01*
X006980Y012740D01*
X006809Y012740D01*
X006768Y012729D01*
X006732Y012708D01*
X006702Y012678D01*
X006686Y012650D01*
X006596Y012740D01*
X006164Y012740D01*
X006070Y012646D01*
X006070Y012214D01*
X006164Y012120D01*
X006190Y012120D01*
X006190Y009919D01*
X006143Y009872D01*
X006091Y009747D01*
X006091Y009613D01*
X006143Y009488D01*
X006238Y009393D01*
X006363Y009341D01*
X006497Y009341D01*
X006622Y009393D01*
X006717Y009488D01*
X006769Y009613D01*
X006769Y009747D01*
X006717Y009872D01*
X006670Y009919D01*
X006727Y009849D02*
X007422Y009849D01*
X007581Y009690D02*
X006769Y009690D01*
X006735Y009532D02*
X009239Y009532D01*
X009398Y009373D02*
X006574Y009373D01*
X006286Y009373D02*
X001420Y009373D01*
X001420Y009215D02*
X009556Y009215D01*
X009715Y009056D02*
X001420Y009056D01*
X001420Y008898D02*
X009820Y008898D01*
X009820Y008739D02*
X001420Y008739D01*
X001420Y008581D02*
X008379Y008581D01*
X008382Y008583D02*
X008352Y008553D01*
X008331Y008517D01*
X008320Y008476D01*
X008320Y008305D01*
X008630Y008305D01*
X008630Y008305D01*
X008630Y008305D01*
X008630Y008615D01*
X008459Y008615D01*
X008418Y008604D01*
X008382Y008583D01*
X008320Y008422D02*
X007362Y008422D01*
X007390Y008264D02*
X008320Y008264D01*
X008320Y008305D02*
X008320Y008134D01*
X008331Y008093D01*
X008352Y008057D01*
X008382Y008027D01*
X008418Y008006D01*
X008459Y007995D01*
X008630Y007995D01*
X008630Y008305D01*
X008320Y008305D01*
X008328Y008105D02*
X007390Y008105D01*
X007367Y007947D02*
X009820Y007947D01*
X009820Y007788D02*
X008791Y007788D01*
X008800Y007773D02*
X008779Y007810D01*
X008749Y007840D01*
X008712Y007861D01*
X008672Y007871D01*
X008376Y007871D01*
X008376Y007260D01*
X008216Y007260D01*
X008216Y007100D01*
X007782Y007100D01*
X007782Y006627D01*
X007793Y006587D01*
X007814Y006550D01*
X007844Y006520D01*
X007016Y006520D01*
X007078Y006679D02*
X007782Y006679D01*
X007782Y006837D02*
X007078Y006837D01*
X007078Y006996D02*
X007782Y006996D01*
X007782Y007260D02*
X008216Y007260D01*
X008216Y007871D01*
X007921Y007871D01*
X007880Y007861D01*
X007844Y007840D01*
X007814Y007810D01*
X007793Y007773D01*
X007782Y007733D01*
X007782Y007260D01*
X007782Y007313D02*
X007078Y007313D01*
X007078Y007471D02*
X007782Y007471D01*
X007782Y007630D02*
X007078Y007630D01*
X007068Y007788D02*
X007801Y007788D01*
X008216Y007788D02*
X008376Y007788D01*
X008376Y007630D02*
X008216Y007630D01*
X008216Y007471D02*
X008376Y007471D01*
X008376Y007313D02*
X008216Y007313D01*
X008216Y007154D02*
X007078Y007154D01*
X007080Y007870D02*
X007080Y008180D01*
X007080Y008180D01*
X007080Y007870D01*
X007080Y007947D02*
X007080Y007947D01*
X007080Y008105D02*
X007080Y008105D01*
X007080Y008264D02*
X007080Y008264D01*
X007080Y008422D02*
X007080Y008422D01*
X006798Y008422D02*
X006764Y008422D01*
X006480Y008180D02*
X005680Y008180D01*
X005917Y008422D02*
X006196Y008422D01*
X006060Y007788D02*
X004240Y007788D01*
X004240Y007630D02*
X006050Y007630D01*
X006050Y007471D02*
X004220Y007471D01*
X004155Y007313D02*
X006050Y007313D01*
X005434Y007947D02*
X004196Y007947D01*
X004131Y008105D02*
X005344Y008105D01*
X005348Y008264D02*
X003992Y008264D01*
X003755Y008422D02*
X005443Y008422D01*
X006125Y009532D02*
X001420Y009532D01*
X001420Y009690D02*
X006091Y009690D01*
X006133Y009849D02*
X001420Y009849D01*
X001420Y010007D02*
X006190Y010007D01*
X006190Y010166D02*
X001420Y010166D01*
X001420Y010324D02*
X006190Y010324D01*
X006190Y010483D02*
X003842Y010483D01*
X003881Y010505D02*
X003965Y010570D01*
X004040Y010645D01*
X004105Y010729D01*
X004158Y010821D01*
X004199Y010919D01*
X004226Y011022D01*
X004240Y011127D01*
X004240Y011142D01*
X003468Y011142D01*
X003468Y011218D01*
X004240Y011218D01*
X004240Y011233D01*
X004226Y011338D01*
X004199Y011441D01*
X004158Y011539D01*
X004105Y011631D01*
X004040Y011715D01*
X003965Y011790D01*
X003881Y011855D01*
X003789Y011908D01*
X003691Y011949D01*
X003588Y011976D01*
X003483Y011990D01*
X003468Y011990D01*
X003468Y011218D01*
X003392Y011218D01*
X003392Y011142D01*
X003468Y011142D01*
X003468Y010370D01*
X003483Y010370D01*
X003588Y010384D01*
X003691Y010411D01*
X003789Y010452D01*
X003881Y010505D01*
X004037Y010641D02*
X006190Y010641D01*
X006190Y010800D02*
X004146Y010800D01*
X004209Y010958D02*
X006190Y010958D01*
X006190Y011117D02*
X004239Y011117D01*
X004234Y011275D02*
X006190Y011275D01*
X006190Y011434D02*
X004201Y011434D01*
X004127Y011592D02*
X006190Y011592D01*
X006190Y011751D02*
X004005Y011751D01*
X003787Y011909D02*
X006190Y011909D01*
X006190Y012068D02*
X001420Y012068D01*
X001420Y012226D02*
X006070Y012226D01*
X006070Y012385D02*
X003626Y012385D01*
X003591Y012370D02*
X003889Y012493D01*
X004117Y012721D01*
X004240Y013019D01*
X004240Y013341D01*
X004220Y013390D01*
X005134Y014304D01*
X005196Y014455D01*
X005196Y015919D01*
X005600Y015919D01*
X005694Y016013D01*
X005694Y016697D01*
X005600Y016791D01*
X003972Y016791D01*
X003878Y016697D01*
X003878Y016013D01*
X003972Y015919D01*
X004376Y015919D01*
X004376Y014706D01*
X003640Y013970D01*
X003591Y013990D01*
X003269Y013990D01*
X002971Y013867D01*
X002743Y013639D01*
X002620Y013341D01*
X002620Y013019D01*
X002743Y012721D01*
X002971Y012493D01*
X003269Y012370D01*
X003591Y012370D01*
X003939Y012543D02*
X006070Y012543D01*
X006125Y012702D02*
X004097Y012702D01*
X004174Y012860D02*
X007690Y012860D01*
X007690Y013019D02*
X004240Y013019D01*
X004240Y013177D02*
X007690Y013177D01*
X007690Y013336D02*
X004240Y013336D01*
X004324Y013494D02*
X007690Y013494D01*
X007690Y013653D02*
X004482Y013653D01*
X004641Y013811D02*
X007690Y013811D01*
X007690Y013970D02*
X004799Y013970D01*
X004958Y014128D02*
X007690Y014128D01*
X007690Y014287D02*
X005116Y014287D01*
X005192Y014445D02*
X007690Y014445D01*
X007690Y014604D02*
X005196Y014604D01*
X005196Y014762D02*
X007690Y014762D01*
X007690Y014921D02*
X005196Y014921D01*
X005196Y015079D02*
X007690Y015079D01*
X007694Y015238D02*
X005196Y015238D01*
X005196Y015396D02*
X007807Y015396D01*
X007965Y015555D02*
X005196Y015555D01*
X005196Y015713D02*
X008124Y015713D01*
X008220Y015872D02*
X005196Y015872D01*
X005694Y016030D02*
X008220Y016030D01*
X008220Y016189D02*
X005694Y016189D01*
X005694Y016347D02*
X008271Y016347D01*
X008680Y015930D02*
X007930Y015180D01*
X007930Y012680D01*
X008170Y012702D02*
X008277Y012702D01*
X008220Y012860D02*
X008170Y012860D01*
X008170Y013019D02*
X008220Y013019D01*
X008170Y013177D02*
X008284Y013177D01*
X008170Y013336D02*
X008457Y013336D01*
X008531Y013494D02*
X008170Y013494D01*
X008170Y013653D02*
X008307Y013653D01*
X008290Y013669D02*
X008419Y013540D01*
X008588Y013470D01*
X008771Y013470D01*
X008941Y013540D01*
X009070Y013669D01*
X009140Y013838D01*
X009140Y014021D01*
X009070Y014191D01*
X008941Y014320D01*
X008771Y014390D01*
X008588Y014390D01*
X008419Y014320D01*
X008290Y014191D01*
X008220Y014021D01*
X008220Y013838D01*
X008290Y013669D01*
X008231Y013811D02*
X008170Y013811D01*
X008170Y013970D02*
X008220Y013970D01*
X008264Y014128D02*
X008170Y014128D01*
X008170Y014287D02*
X008386Y014287D01*
X008419Y014540D02*
X008588Y014470D01*
X008771Y014470D01*
X008941Y014540D01*
X009070Y014669D01*
X009140Y014838D01*
X009140Y015021D01*
X009070Y015191D01*
X008941Y015320D01*
X008771Y015390D01*
X008588Y015390D01*
X008419Y015320D01*
X008290Y015191D01*
X008220Y015021D01*
X008220Y014838D01*
X008290Y014669D01*
X008419Y014540D01*
X008356Y014604D02*
X008170Y014604D01*
X008170Y014762D02*
X008252Y014762D01*
X008220Y014921D02*
X008170Y014921D01*
X008170Y015079D02*
X008244Y015079D01*
X008327Y015238D02*
X008337Y015238D01*
X008485Y015396D02*
X015065Y015396D01*
X015065Y015238D02*
X013273Y015238D01*
X013320Y015191D02*
X013191Y015320D01*
X013021Y015390D01*
X012838Y015390D01*
X012669Y015320D01*
X012540Y015191D01*
X012470Y015021D01*
X012470Y014838D01*
X012540Y014669D01*
X012669Y014540D01*
X012838Y014470D01*
X013021Y014470D01*
X013191Y014540D01*
X013320Y014669D01*
X013390Y014838D01*
X013390Y015021D01*
X013320Y015191D01*
X013366Y015079D02*
X015065Y015079D01*
X015065Y014921D02*
X013390Y014921D01*
X013358Y014762D02*
X015065Y014762D01*
X015065Y014604D02*
X014914Y014604D01*
X014915Y014445D02*
X015065Y014445D01*
X015065Y014287D02*
X014915Y014287D01*
X014961Y014128D02*
X015085Y014128D01*
X015085Y013970D02*
X015019Y013970D01*
X014997Y013811D02*
X015085Y013811D01*
X015027Y013671D02*
X015027Y013383D01*
X015027Y013671D01*
X015027Y013653D02*
X015027Y013653D01*
X015027Y013494D02*
X015027Y013494D01*
X015027Y013383D02*
X015027Y013383D01*
X014680Y013416D02*
X014680Y013930D01*
X014605Y014445D02*
X014605Y014445D01*
X014605Y014604D02*
X014605Y014604D01*
X014005Y014430D02*
X014005Y014043D01*
X014083Y013965D01*
X014083Y013383D01*
X014398Y013383D01*
X013843Y013653D02*
X013303Y013653D01*
X013320Y013669D02*
X013390Y013838D01*
X013390Y014021D01*
X013320Y014191D01*
X013191Y014320D01*
X013021Y014390D01*
X012838Y014390D01*
X012669Y014320D01*
X012540Y014191D01*
X012470Y014021D01*
X012470Y013838D01*
X012540Y013669D01*
X012669Y013540D01*
X012838Y013470D01*
X013021Y013470D01*
X013191Y013540D01*
X013320Y013669D01*
X013379Y013811D02*
X013843Y013811D01*
X013775Y013970D02*
X013390Y013970D01*
X013346Y014128D02*
X013765Y014128D01*
X013695Y014287D02*
X013224Y014287D01*
X013254Y014604D02*
X013695Y014604D01*
X013695Y014445D02*
X010679Y014445D01*
X010727Y014287D02*
X012636Y014287D01*
X012514Y014128D02*
X010727Y014128D01*
X010717Y013970D02*
X012470Y013970D01*
X012481Y013811D02*
X011513Y013811D01*
X011672Y013653D02*
X012557Y013653D01*
X012781Y013494D02*
X011830Y013494D01*
X011920Y013336D02*
X012707Y013336D01*
X012534Y013177D02*
X011920Y013177D01*
X011920Y013019D02*
X012470Y013019D01*
X012470Y012860D02*
X011920Y012860D01*
X011920Y012702D02*
X012527Y012702D01*
X012666Y012543D02*
X011882Y012543D01*
X011680Y012680D02*
X009680Y010680D01*
X009280Y010680D01*
X009430Y010055D02*
X009930Y009555D01*
X010630Y009555D01*
X011230Y009555D02*
X011230Y009818D01*
X010805Y010243D01*
X009868Y010243D01*
X009430Y010055D02*
X008180Y010055D01*
X008080Y010155D01*
X008080Y010680D01*
X007430Y010680D02*
X007430Y011680D01*
X008080Y011680D01*
X007696Y012068D02*
X007629Y012068D01*
X007787Y012226D02*
X008465Y012226D01*
X008608Y012385D02*
X007946Y012385D01*
X008132Y012543D02*
X008416Y012543D01*
X008680Y012930D02*
X009180Y012930D01*
X009258Y012852D01*
X009833Y012852D01*
X009586Y013177D02*
X009076Y013177D01*
X008903Y013336D02*
X009574Y013336D01*
X009574Y013494D02*
X008829Y013494D01*
X009053Y013653D02*
X009613Y013653D01*
X009613Y013811D02*
X009129Y013811D01*
X009140Y013970D02*
X009508Y013970D01*
X009508Y014128D02*
X009096Y014128D01*
X008974Y014287D02*
X009508Y014287D01*
X009556Y014445D02*
X008170Y014445D01*
X009004Y014604D02*
X012606Y014604D01*
X012502Y014762D02*
X009108Y014762D01*
X009140Y014921D02*
X012470Y014921D01*
X012494Y015079D02*
X009116Y015079D01*
X009023Y015238D02*
X012587Y015238D01*
X012564Y015470D02*
X013296Y015470D01*
X013390Y015564D01*
X013390Y016296D01*
X013296Y016390D01*
X012564Y016390D01*
X012470Y016296D01*
X012470Y015564D01*
X012564Y015470D01*
X012479Y015555D02*
X009131Y015555D01*
X009140Y015713D02*
X012470Y015713D01*
X012470Y015872D02*
X009140Y015872D01*
X009140Y016030D02*
X012470Y016030D01*
X012470Y016189D02*
X009140Y016189D01*
X009089Y016347D02*
X012521Y016347D01*
X013339Y016347D02*
X015508Y016347D01*
X015666Y016506D02*
X005694Y016506D01*
X005694Y016664D02*
X015650Y016664D01*
X015665Y016823D02*
X001420Y016823D01*
X001420Y016981D02*
X015731Y016981D01*
X015904Y017140D02*
X001420Y017140D01*
X001420Y017298D02*
X022650Y017298D01*
X022650Y017140D02*
X022456Y017140D01*
X022629Y016981D02*
X022650Y016981D01*
X022650Y017457D02*
X001420Y017457D01*
X001420Y017615D02*
X022650Y017615D01*
X022650Y017774D02*
X022100Y017774D01*
X022140Y017814D02*
X022046Y017720D01*
X021314Y017720D01*
X021220Y017814D01*
X021220Y018546D01*
X021314Y018640D01*
X022046Y018640D01*
X022140Y018546D01*
X022140Y017814D01*
X022140Y017932D02*
X022650Y017932D01*
X022650Y018091D02*
X022140Y018091D01*
X022140Y018249D02*
X022650Y018249D01*
X022650Y018408D02*
X022140Y018408D01*
X022120Y018566D02*
X022650Y018566D01*
X022650Y018725D02*
X004802Y018725D01*
X004802Y018567D02*
X004493Y018567D01*
X004493Y018258D01*
X004664Y018258D01*
X004704Y018268D01*
X004741Y018289D01*
X004771Y018319D01*
X004792Y018356D01*
X004802Y018396D01*
X004802Y018567D01*
X004802Y018566D02*
X005815Y018566D01*
X005819Y018570D02*
X005690Y018441D01*
X005620Y018271D01*
X005620Y018088D01*
X005690Y017919D01*
X005819Y017790D01*
X005988Y017720D01*
X006171Y017720D01*
X006341Y017790D01*
X006470Y017919D01*
X006540Y018088D01*
X006540Y018271D01*
X006470Y018441D01*
X006341Y018570D01*
X006171Y018640D01*
X005988Y018640D01*
X005819Y018570D01*
X005676Y018408D02*
X004802Y018408D01*
X004493Y018408D02*
X004492Y018408D01*
X004492Y018566D02*
X004493Y018566D01*
X004183Y018566D02*
X004090Y018566D01*
X004090Y018501D02*
X003996Y018408D01*
X004090Y018725D02*
X004183Y018725D01*
X004251Y018883D02*
X004090Y018883D01*
X004505Y019180D02*
X005180Y019180D01*
X005180Y019755D01*
X004870Y019834D02*
X004802Y019834D01*
X004802Y019755D02*
X004802Y019926D01*
X004792Y019967D01*
X004771Y020003D01*
X004741Y020033D01*
X004713Y020049D01*
X004799Y020135D01*
X004874Y020135D01*
X004954Y020055D01*
X004870Y019971D01*
X004870Y019539D01*
X004940Y019469D01*
X004940Y019420D01*
X004766Y019420D01*
X004721Y019465D01*
X004741Y019477D01*
X004771Y019507D01*
X004792Y019543D01*
X004802Y019584D01*
X004802Y019755D01*
X004493Y019755D01*
X004493Y019755D01*
X004802Y019755D01*
X004802Y019676D02*
X004870Y019676D01*
X004892Y019517D02*
X004776Y019517D01*
X004492Y019755D02*
X004183Y019755D01*
X004492Y019755D01*
X004492Y019755D01*
X004183Y019834D02*
X000460Y019834D01*
X000460Y019676D02*
X004183Y019676D01*
X004209Y019517D02*
X000460Y019517D01*
X000460Y019359D02*
X004183Y019359D01*
X003992Y019918D02*
X004028Y019939D01*
X004058Y019969D01*
X004079Y020006D01*
X004090Y020046D01*
X004090Y020217D01*
X003530Y020217D01*
X003530Y019908D01*
X003951Y019908D01*
X003992Y019918D01*
X004071Y019993D02*
X004208Y019993D01*
X004183Y020151D02*
X004090Y020151D01*
X004090Y020218D02*
X004090Y020389D01*
X004079Y020429D01*
X004058Y020466D01*
X004028Y020496D01*
X003992Y020517D01*
X003951Y020527D01*
X003530Y020527D01*
X003530Y020218D01*
X003530Y020527D01*
X003109Y020527D01*
X003068Y020517D01*
X003032Y020496D01*
X003002Y020466D01*
X002981Y020429D01*
X002970Y020389D01*
X002970Y020218D01*
X003530Y020218D01*
X003530Y020218D01*
X004090Y020218D01*
X004090Y020310D02*
X004183Y020310D01*
X004183Y020468D02*
X004056Y020468D01*
X004238Y020627D02*
X000694Y020627D01*
X000832Y020496D02*
X000802Y020466D01*
X000781Y020429D01*
X000770Y020389D01*
X000770Y020218D01*
X001330Y020218D01*
X001330Y020527D01*
X001330Y020218D01*
X001330Y020218D01*
X001890Y020218D01*
X001890Y020389D01*
X001879Y020429D01*
X001858Y020466D01*
X001828Y020496D01*
X001792Y020517D01*
X001751Y020527D01*
X001330Y020527D01*
X000909Y020527D01*
X000868Y020517D01*
X000832Y020496D01*
X000804Y020468D02*
X000572Y020468D01*
X000504Y020310D02*
X000770Y020310D01*
X000770Y020217D02*
X000770Y020046D01*
X000781Y020006D01*
X000802Y019969D01*
X000832Y019939D01*
X000868Y019918D01*
X000909Y019908D01*
X001330Y019908D01*
X001751Y019908D01*
X001792Y019918D01*
X001828Y019939D01*
X001858Y019969D01*
X001879Y020006D01*
X001890Y020046D01*
X001890Y020217D01*
X001330Y020217D01*
X001330Y019908D01*
X001330Y020217D01*
X001330Y020217D01*
X001330Y020218D01*
X001330Y020217D01*
X000770Y020217D01*
X000770Y020151D02*
X000460Y020151D01*
X000460Y019993D02*
X000789Y019993D01*
X001330Y019993D02*
X001330Y019993D01*
X001330Y020151D02*
X001330Y020151D01*
X001330Y020310D02*
X001330Y020310D01*
X001330Y020468D02*
X001330Y020468D01*
X001856Y020468D02*
X003004Y020468D01*
X002970Y020310D02*
X001890Y020310D01*
X001890Y020151D02*
X002970Y020151D01*
X002970Y020217D02*
X002970Y020046D01*
X002981Y020006D01*
X003002Y019969D01*
X003032Y019939D01*
X003068Y019918D01*
X003109Y019908D01*
X003530Y019908D01*
X003530Y020217D01*
X003530Y020217D01*
X003530Y020218D01*
X003530Y020217D01*
X002970Y020217D01*
X002989Y019993D02*
X001871Y019993D01*
X000888Y020785D02*
X022307Y020785D01*
X022485Y020627D02*
X022060Y020627D01*
X022046Y020640D02*
X021314Y020640D01*
X021220Y020546D01*
X021220Y019814D01*
X021314Y019720D01*
X022046Y019720D01*
X022140Y019814D01*
X022140Y020546D01*
X022046Y020640D01*
X022140Y020468D02*
X022584Y020468D01*
X022636Y020310D02*
X022140Y020310D01*
X022140Y020151D02*
X022650Y020151D01*
X022650Y019993D02*
X022140Y019993D01*
X022140Y019834D02*
X022650Y019834D01*
X022650Y019676D02*
X005490Y019676D01*
X005490Y019834D02*
X005775Y019834D01*
X005819Y019790D02*
X005988Y019720D01*
X006171Y019720D01*
X006341Y019790D01*
X006470Y019919D01*
X006540Y020088D01*
X006540Y020271D01*
X006470Y020441D01*
X006341Y020570D01*
X006171Y020640D01*
X005988Y020640D01*
X005819Y020570D01*
X005690Y020441D01*
X005620Y020271D01*
X005620Y020088D01*
X005690Y019919D01*
X005819Y019790D01*
X005660Y019993D02*
X005469Y019993D01*
X005490Y020151D02*
X005620Y020151D01*
X005636Y020310D02*
X005490Y020310D01*
X005490Y020468D02*
X005717Y020468D01*
X005956Y020627D02*
X005435Y020627D01*
X004925Y020627D02*
X004747Y020627D01*
X004777Y019993D02*
X004891Y019993D01*
X005468Y019517D02*
X022650Y019517D01*
X022650Y019359D02*
X005473Y019359D01*
X005519Y019200D02*
X022650Y019200D01*
X022650Y019042D02*
X005489Y019042D01*
X005348Y018883D02*
X022650Y018883D01*
X021240Y018566D02*
X020945Y018566D01*
X020941Y018570D02*
X020771Y018640D01*
X020588Y018640D01*
X020419Y018570D01*
X020290Y018441D01*
X020220Y018271D01*
X020220Y018088D01*
X020290Y017919D01*
X020419Y017790D01*
X020588Y017720D01*
X020771Y017720D01*
X020941Y017790D01*
X021070Y017919D01*
X021140Y018088D01*
X021140Y018271D01*
X021070Y018441D01*
X020941Y018570D01*
X021084Y018408D02*
X021220Y018408D01*
X021220Y018249D02*
X021140Y018249D01*
X021140Y018091D02*
X021220Y018091D01*
X021220Y017932D02*
X021075Y017932D01*
X020901Y017774D02*
X021260Y017774D01*
X021456Y017140D02*
X021904Y017140D01*
X021731Y016981D02*
X021629Y016981D01*
X021180Y016680D02*
X022180Y016680D01*
X021763Y016347D02*
X021597Y016347D01*
X021378Y016189D02*
X021982Y016189D01*
X022088Y016140D02*
X021919Y016070D01*
X021790Y015941D01*
X021720Y015771D01*
X021720Y015588D01*
X021790Y015419D01*
X021919Y015290D01*
X022088Y015220D01*
X022271Y015220D01*
X022441Y015290D01*
X022570Y015419D01*
X022640Y015588D01*
X022640Y015771D01*
X022570Y015941D01*
X022441Y016070D01*
X022271Y016140D01*
X022088Y016140D01*
X021879Y016030D02*
X021481Y016030D01*
X021441Y016070D02*
X021570Y015941D01*
X021640Y015771D01*
X021640Y015588D01*
X021570Y015419D01*
X021441Y015290D01*
X021271Y015220D01*
X021088Y015220D01*
X020919Y015290D01*
X020790Y015419D01*
X020720Y015588D01*
X020720Y015771D01*
X020790Y015941D01*
X020919Y016070D01*
X021088Y016140D01*
X021271Y016140D01*
X021441Y016070D01*
X021599Y015872D02*
X021761Y015872D01*
X021720Y015713D02*
X021640Y015713D01*
X021626Y015555D02*
X021734Y015555D01*
X021813Y015396D02*
X021547Y015396D01*
X021314Y015238D02*
X022046Y015238D01*
X022088Y015140D02*
X021919Y015070D01*
X021790Y014941D01*
X021720Y014771D01*
X021720Y014588D01*
X021790Y014419D01*
X021919Y014290D01*
X022088Y014220D01*
X022271Y014220D01*
X022441Y014290D01*
X022570Y014419D01*
X022640Y014588D01*
X022640Y014771D01*
X022570Y014941D01*
X022441Y015070D01*
X022271Y015140D01*
X022088Y015140D01*
X021941Y015079D02*
X021419Y015079D01*
X021441Y015070D02*
X021271Y015140D01*
X021088Y015140D01*
X020919Y015070D01*
X020790Y014941D01*
X020720Y014771D01*
X020720Y014588D01*
X020790Y014419D01*
X020919Y014290D01*
X021088Y014220D01*
X021271Y014220D01*
X021441Y014290D01*
X021570Y014419D01*
X021640Y014588D01*
X021640Y014771D01*
X021570Y014941D01*
X021441Y015070D01*
X021578Y014921D02*
X021782Y014921D01*
X021720Y014762D02*
X021640Y014762D01*
X021640Y014604D02*
X021720Y014604D01*
X021779Y014445D02*
X021581Y014445D01*
X021432Y014287D02*
X021928Y014287D01*
X022060Y014128D02*
X021300Y014128D01*
X021271Y014140D02*
X021441Y014070D01*
X021570Y013941D01*
X021640Y013771D01*
X021640Y013588D01*
X021570Y013419D01*
X021441Y013290D01*
X021271Y013220D01*
X021088Y013220D01*
X020919Y013290D01*
X020790Y013419D01*
X020720Y013588D01*
X020720Y013771D01*
X020790Y013941D01*
X020919Y014070D01*
X021088Y014140D01*
X021271Y014140D01*
X021060Y014128D02*
X020300Y014128D01*
X020271Y014140D02*
X020441Y014070D01*
X020570Y013941D01*
X020640Y013771D01*
X020640Y013588D01*
X020570Y013419D01*
X020441Y013290D01*
X020271Y013220D01*
X020088Y013220D01*
X019919Y013290D01*
X019790Y013419D01*
X019720Y013588D01*
X019720Y013771D01*
X019790Y013941D01*
X019919Y014070D01*
X020088Y014140D01*
X020271Y014140D01*
X020271Y014220D02*
X020441Y014290D01*
X020570Y014419D01*
X020640Y014588D01*
X020640Y014771D01*
X020570Y014941D01*
X020441Y015070D01*
X020271Y015140D01*
X020088Y015140D01*
X019919Y015070D01*
X019790Y014941D01*
X019720Y014771D01*
X019720Y014588D01*
X019790Y014419D01*
X019919Y014290D01*
X020088Y014220D01*
X020271Y014220D01*
X020432Y014287D02*
X020928Y014287D01*
X020779Y014445D02*
X020581Y014445D01*
X020640Y014604D02*
X020720Y014604D01*
X020720Y014762D02*
X020640Y014762D01*
X020578Y014921D02*
X020782Y014921D01*
X020941Y015079D02*
X020419Y015079D01*
X020314Y015238D02*
X021046Y015238D01*
X020813Y015396D02*
X020547Y015396D01*
X020570Y015419D02*
X020640Y015588D01*
X020640Y015771D01*
X020570Y015941D01*
X020441Y016070D01*
X020271Y016140D01*
X020088Y016140D01*
X019919Y016070D01*
X019790Y015941D01*
X019720Y015771D01*
X019720Y015588D01*
X019790Y015419D01*
X019919Y015290D01*
X020088Y015220D01*
X020271Y015220D01*
X020441Y015290D01*
X020570Y015419D01*
X020626Y015555D02*
X020734Y015555D01*
X020720Y015713D02*
X020640Y015713D01*
X020599Y015872D02*
X020761Y015872D01*
X020879Y016030D02*
X020481Y016030D01*
X020378Y016189D02*
X020982Y016189D01*
X020763Y016347D02*
X020597Y016347D01*
X020180Y016680D02*
X021180Y016680D01*
X020731Y016981D02*
X020629Y016981D01*
X020456Y017140D02*
X020904Y017140D01*
X020459Y017774D02*
X019901Y017774D01*
X019941Y017790D02*
X020070Y017919D01*
X020140Y018088D01*
X020140Y018271D01*
X020070Y018441D01*
X019941Y018570D01*
X019771Y018640D01*
X019588Y018640D01*
X019419Y018570D01*
X019290Y018441D01*
X019220Y018271D01*
X019220Y018088D01*
X019290Y017919D01*
X019419Y017790D01*
X019588Y017720D01*
X019771Y017720D01*
X019941Y017790D01*
X020075Y017932D02*
X020285Y017932D01*
X020220Y018091D02*
X020140Y018091D01*
X020140Y018249D02*
X020220Y018249D01*
X020276Y018408D02*
X020084Y018408D01*
X019945Y018566D02*
X020415Y018566D01*
X019415Y018566D02*
X018945Y018566D01*
X018941Y018570D02*
X018771Y018640D01*
X018588Y018640D01*
X018419Y018570D01*
X018290Y018441D01*
X018220Y018271D01*
X018220Y018088D01*
X018290Y017919D01*
X018419Y017790D01*
X018588Y017720D01*
X018771Y017720D01*
X018941Y017790D01*
X019070Y017919D01*
X019140Y018088D01*
X019140Y018271D01*
X019070Y018441D01*
X018941Y018570D01*
X019084Y018408D02*
X019276Y018408D01*
X019220Y018249D02*
X019140Y018249D01*
X019140Y018091D02*
X019220Y018091D01*
X019285Y017932D02*
X019075Y017932D01*
X018901Y017774D02*
X019459Y017774D01*
X019456Y017140D02*
X019904Y017140D01*
X019731Y016981D02*
X019629Y016981D01*
X019180Y016680D02*
X020180Y016680D01*
X019982Y016189D02*
X019378Y016189D01*
X019271Y016140D02*
X019441Y016070D01*
X019570Y015941D01*
X019640Y015771D01*
X019640Y015588D01*
X019570Y015419D01*
X019441Y015290D01*
X019271Y015220D01*
X019088Y015220D01*
X018919Y015290D01*
X018790Y015419D01*
X018720Y015588D01*
X018720Y015771D01*
X018790Y015941D01*
X018919Y016070D01*
X019088Y016140D01*
X019271Y016140D01*
X019481Y016030D02*
X019879Y016030D01*
X019761Y015872D02*
X019599Y015872D01*
X019640Y015713D02*
X019720Y015713D01*
X019734Y015555D02*
X019626Y015555D01*
X019547Y015396D02*
X019813Y015396D01*
X020046Y015238D02*
X019314Y015238D01*
X019271Y015140D02*
X019088Y015140D01*
X018919Y015070D01*
X018790Y014941D01*
X018720Y014771D01*
X018720Y014588D01*
X018790Y014419D01*
X018919Y014290D01*
X019088Y014220D01*
X019271Y014220D01*
X019441Y014290D01*
X019570Y014419D01*
X019640Y014588D01*
X019640Y014771D01*
X019570Y014941D01*
X019441Y015070D01*
X019271Y015140D01*
X019419Y015079D02*
X019941Y015079D01*
X019782Y014921D02*
X019578Y014921D01*
X019640Y014762D02*
X019720Y014762D01*
X019720Y014604D02*
X019640Y014604D01*
X019581Y014445D02*
X019779Y014445D01*
X019928Y014287D02*
X019432Y014287D01*
X019300Y014128D02*
X020060Y014128D01*
X019819Y013970D02*
X019541Y013970D01*
X019570Y013941D02*
X019441Y014070D01*
X019271Y014140D01*
X019088Y014140D01*
X018919Y014070D01*
X018790Y013941D01*
X018720Y013771D01*
X018720Y013588D01*
X018790Y013419D01*
X018919Y013290D01*
X019088Y013220D01*
X019271Y013220D01*
X019441Y013290D01*
X019570Y013419D01*
X019640Y013588D01*
X019640Y013771D01*
X019570Y013941D01*
X019624Y013811D02*
X019736Y013811D01*
X019720Y013653D02*
X019640Y013653D01*
X019601Y013494D02*
X019759Y013494D01*
X019874Y013336D02*
X019486Y013336D01*
X019492Y013019D02*
X019868Y013019D01*
X019757Y012860D02*
X019603Y012860D01*
X019640Y012702D02*
X019720Y012702D01*
X019739Y012543D02*
X019621Y012543D01*
X019535Y012385D02*
X019825Y012385D01*
X020535Y012385D02*
X020825Y012385D01*
X020739Y012543D02*
X020621Y012543D01*
X020640Y012702D02*
X020720Y012702D01*
X020757Y012860D02*
X020603Y012860D01*
X020492Y013019D02*
X020868Y013019D01*
X020874Y013336D02*
X020486Y013336D01*
X020601Y013494D02*
X020759Y013494D01*
X020720Y013653D02*
X020640Y013653D01*
X020624Y013811D02*
X020736Y013811D01*
X020819Y013970D02*
X020541Y013970D01*
X021541Y013970D02*
X021819Y013970D01*
X021790Y013941D02*
X021720Y013771D01*
X021720Y013588D01*
X021790Y013419D01*
X021919Y013290D01*
X022088Y013220D01*
X022271Y013220D01*
X022441Y013290D01*
X022570Y013419D01*
X022640Y013588D01*
X022640Y013771D01*
X022570Y013941D01*
X022441Y014070D01*
X022271Y014140D01*
X022088Y014140D01*
X021919Y014070D01*
X021790Y013941D01*
X021736Y013811D02*
X021624Y013811D01*
X021640Y013653D02*
X021720Y013653D01*
X021759Y013494D02*
X021601Y013494D01*
X021486Y013336D02*
X021874Y013336D01*
X021868Y013019D02*
X021492Y013019D01*
X021603Y012860D02*
X021757Y012860D01*
X021720Y012702D02*
X021640Y012702D01*
X021621Y012543D02*
X021739Y012543D01*
X021825Y012385D02*
X021535Y012385D01*
X022486Y013336D02*
X023400Y013336D01*
X023400Y013494D02*
X022601Y013494D01*
X022640Y013653D02*
X023400Y013653D01*
X023400Y013811D02*
X022624Y013811D01*
X022541Y013970D02*
X023400Y013970D01*
X023400Y014128D02*
X022300Y014128D01*
X022432Y014287D02*
X023400Y014287D01*
X023400Y014445D02*
X022581Y014445D01*
X022640Y014604D02*
X023400Y014604D01*
X023400Y014762D02*
X022640Y014762D01*
X022578Y014921D02*
X023400Y014921D01*
X023385Y015079D02*
X022419Y015079D01*
X022314Y015238D02*
X023226Y015238D01*
X023068Y015396D02*
X022547Y015396D01*
X022626Y015555D02*
X022909Y015555D01*
X022751Y015713D02*
X022640Y015713D01*
X022651Y015872D02*
X022599Y015872D01*
X022650Y016030D02*
X022481Y016030D01*
X022378Y016189D02*
X022650Y016189D01*
X022650Y016347D02*
X022597Y016347D01*
X019763Y016347D02*
X019597Y016347D01*
X019180Y016680D02*
X018180Y016680D01*
X017180Y016680D01*
X016180Y016680D01*
X015305Y015805D01*
X015305Y014243D01*
X015545Y014287D02*
X015928Y014287D01*
X016060Y014128D02*
X015525Y014128D01*
X015525Y013970D02*
X015819Y013970D01*
X015736Y013811D02*
X015525Y013811D01*
X015525Y013653D02*
X015720Y013653D01*
X015759Y013494D02*
X015525Y013494D01*
X015525Y013336D02*
X015874Y013336D01*
X015027Y012852D02*
X015027Y012527D01*
X014680Y012180D01*
X014398Y012648D02*
X013430Y011680D01*
X012930Y011868D02*
X012555Y012243D01*
X011743Y012243D01*
X011305Y011805D01*
X011305Y010180D01*
X011555Y009930D01*
X011930Y009930D01*
X012368Y009493D01*
X012368Y008805D01*
X012730Y009105D02*
X013530Y009905D01*
X013530Y010680D01*
X014180Y010180D02*
X013880Y009880D01*
X013880Y009555D01*
X014480Y009555D02*
X014480Y009808D01*
X014480Y009555D01*
X014480Y009555D01*
X014480Y009690D02*
X014480Y009690D01*
X014480Y009808D02*
X014480Y009808D01*
X014567Y009865D02*
X014567Y010117D01*
X014568Y010117D01*
X014568Y009865D01*
X014567Y009865D01*
X014567Y010007D02*
X014568Y010007D01*
X014567Y010118D02*
X014567Y010427D01*
X014420Y010427D01*
X014420Y010941D01*
X014467Y010988D01*
X014519Y011113D01*
X014519Y011247D01*
X014482Y011335D01*
X014839Y011335D01*
X014948Y011226D01*
X014948Y010424D01*
X014862Y010338D01*
X014846Y010366D01*
X014816Y010396D01*
X014779Y010417D01*
X014739Y010427D01*
X014568Y010427D01*
X014568Y010118D01*
X014567Y010118D01*
X014567Y010166D02*
X014568Y010166D01*
X014567Y010324D02*
X014568Y010324D01*
X014420Y010483D02*
X014948Y010483D01*
X014948Y010641D02*
X014420Y010641D01*
X014420Y010800D02*
X014948Y010800D01*
X014948Y010958D02*
X014437Y010958D01*
X014519Y011117D02*
X014948Y011117D01*
X014899Y011275D02*
X014507Y011275D01*
X014180Y011180D02*
X014180Y010180D01*
X014825Y009849D02*
X014910Y009849D01*
X015425Y009849D02*
X015752Y009849D01*
X015856Y010007D02*
X015477Y010007D01*
X013055Y009930D02*
X012555Y009930D01*
X012330Y010155D01*
X012330Y010680D01*
X012330Y011680D02*
X011680Y011680D01*
X010987Y012327D02*
X010987Y012364D01*
X010987Y012609D01*
X011036Y012658D01*
X011036Y013046D01*
X010962Y013120D01*
X010974Y013127D01*
X011004Y013157D01*
X011025Y013194D01*
X011036Y013234D01*
X011036Y013383D01*
X010777Y013383D01*
X010777Y013383D01*
X011036Y013383D01*
X011036Y013440D01*
X011206Y013440D01*
X011440Y013206D01*
X011440Y012779D01*
X010987Y012327D01*
X010987Y012385D02*
X011045Y012385D01*
X010987Y012543D02*
X011204Y012543D01*
X011362Y012702D02*
X011036Y012702D01*
X011036Y012860D02*
X011440Y012860D01*
X011440Y013019D02*
X011036Y013019D01*
X011015Y013177D02*
X011440Y013177D01*
X011310Y013336D02*
X011036Y013336D01*
X011305Y013680D02*
X011680Y013305D01*
X011680Y012680D01*
X011305Y013680D02*
X010555Y013680D01*
X010462Y013587D01*
X010462Y013383D01*
X010148Y013383D02*
X009833Y013383D01*
X010462Y012852D02*
X010462Y012460D01*
X010180Y011680D02*
X009280Y011680D01*
X008680Y011680D02*
X008680Y012118D01*
X008868Y012305D01*
X009180Y012305D01*
X007640Y012702D02*
X007235Y012702D01*
X007290Y012543D02*
X007482Y012543D01*
X007323Y012385D02*
X007290Y012385D01*
X006980Y012385D02*
X006980Y012385D01*
X006980Y012543D02*
X006980Y012543D01*
X006980Y012702D02*
X006980Y012702D01*
X006725Y012702D02*
X006635Y012702D01*
X006430Y012430D02*
X006430Y009680D01*
X006670Y010800D02*
X006835Y010800D01*
X006835Y010958D02*
X006670Y010958D01*
X006670Y011117D02*
X006835Y011117D01*
X006835Y011275D02*
X006670Y011275D01*
X006670Y011434D02*
X006835Y011434D01*
X006835Y011592D02*
X006670Y011592D01*
X006670Y011751D02*
X006835Y011751D01*
X006848Y011909D02*
X006670Y011909D01*
X006670Y012068D02*
X007006Y012068D01*
X006980Y012226D02*
X006980Y012226D01*
X006430Y012430D02*
X006380Y012430D01*
X004115Y014445D02*
X001420Y014445D01*
X001420Y014287D02*
X003957Y014287D01*
X003798Y014128D02*
X001420Y014128D01*
X001420Y013970D02*
X003219Y013970D01*
X002916Y013811D02*
X001420Y013811D01*
X001420Y013653D02*
X002757Y013653D01*
X002683Y013494D02*
X001420Y013494D01*
X001420Y013336D02*
X002620Y013336D01*
X002620Y013177D02*
X001420Y013177D01*
X001420Y013019D02*
X002620Y013019D01*
X002686Y012860D02*
X001420Y012860D01*
X001420Y012702D02*
X002763Y012702D01*
X002921Y012543D02*
X001420Y012543D01*
X001420Y012385D02*
X003234Y012385D01*
X003272Y011976D02*
X003169Y011949D01*
X003071Y011908D01*
X002979Y011855D01*
X002895Y011790D01*
X002820Y011715D01*
X002755Y011631D01*
X002702Y011539D01*
X002661Y011441D01*
X002634Y011338D01*
X002620Y011233D01*
X002620Y011218D01*
X003392Y011218D01*
X003392Y011990D01*
X003377Y011990D01*
X003272Y011976D01*
X003392Y011909D02*
X003468Y011909D01*
X003468Y011751D02*
X003392Y011751D01*
X003392Y011592D02*
X003468Y011592D01*
X003468Y011434D02*
X003392Y011434D01*
X003392Y011275D02*
X003468Y011275D01*
X003392Y011142D02*
X002620Y011142D01*
X002620Y011127D01*
X002634Y011022D01*
X002661Y010919D01*
X002702Y010821D01*
X002755Y010729D01*
X002820Y010645D01*
X002895Y010570D01*
X002979Y010505D01*
X003071Y010452D01*
X003169Y010411D01*
X003272Y010384D01*
X003377Y010370D01*
X003392Y010370D01*
X003392Y011142D01*
X003392Y011117D02*
X003468Y011117D01*
X003468Y010958D02*
X003392Y010958D01*
X003392Y010800D02*
X003468Y010800D01*
X003468Y010641D02*
X003392Y010641D01*
X003392Y010483D02*
X003468Y010483D01*
X003018Y010483D02*
X001420Y010483D01*
X001420Y010641D02*
X002823Y010641D01*
X002714Y010800D02*
X001420Y010800D01*
X001420Y010958D02*
X002651Y010958D01*
X002621Y011117D02*
X001420Y011117D01*
X001420Y011275D02*
X002626Y011275D01*
X002659Y011434D02*
X001420Y011434D01*
X001420Y011592D02*
X002733Y011592D01*
X002855Y011751D02*
X001420Y011751D01*
X001420Y011909D02*
X003073Y011909D01*
X000940Y011909D02*
X000460Y011909D01*
X000460Y011751D02*
X000940Y011751D01*
X000940Y011592D02*
X000460Y011592D01*
X000460Y011434D02*
X000940Y011434D01*
X000940Y011275D02*
X000460Y011275D01*
X000460Y011117D02*
X000940Y011117D01*
X000940Y010958D02*
X000460Y010958D01*
X000460Y010800D02*
X000940Y010800D01*
X000940Y010641D02*
X000460Y010641D01*
X000460Y010483D02*
X000940Y010483D01*
X000940Y010324D02*
X000460Y010324D01*
X000460Y010166D02*
X000940Y010166D01*
X000940Y010007D02*
X000460Y010007D01*
X000460Y009849D02*
X000940Y009849D01*
X000940Y009690D02*
X000460Y009690D01*
X000460Y009532D02*
X000940Y009532D01*
X000940Y009373D02*
X000460Y009373D01*
X000460Y009215D02*
X000940Y009215D01*
X000940Y009056D02*
X000460Y009056D01*
X000460Y008898D02*
X000940Y008898D01*
X000940Y008739D02*
X000460Y008739D01*
X000460Y008581D02*
X000940Y008581D01*
X000940Y008422D02*
X000460Y008422D01*
X000460Y008264D02*
X000940Y008264D01*
X000940Y008105D02*
X000460Y008105D01*
X000460Y007947D02*
X000940Y007947D01*
X000940Y007788D02*
X000460Y007788D01*
X000460Y007630D02*
X000940Y007630D01*
X000940Y007471D02*
X000460Y007471D01*
X000460Y007313D02*
X000940Y007313D01*
X000940Y007154D02*
X000460Y007154D01*
X000460Y006996D02*
X000940Y006996D01*
X000940Y006837D02*
X000460Y006837D01*
X000460Y006679D02*
X000940Y006679D01*
X000940Y006520D02*
X000460Y006520D01*
X000460Y006362D02*
X000940Y006362D01*
X000940Y006203D02*
X000460Y006203D01*
X000460Y006045D02*
X000940Y006045D01*
X000940Y005886D02*
X000460Y005886D01*
X000460Y005728D02*
X000940Y005728D01*
X000940Y005569D02*
X000460Y005569D01*
X000460Y005411D02*
X000940Y005411D01*
X000940Y005252D02*
X000460Y005252D01*
X000460Y005094D02*
X000940Y005094D01*
X000940Y004935D02*
X000460Y004935D01*
X000460Y004777D02*
X000940Y004777D01*
X000940Y004618D02*
X000460Y004618D01*
X000460Y004460D02*
X000940Y004460D01*
X000940Y004301D02*
X000460Y004301D01*
X000460Y004143D02*
X000940Y004143D01*
X000940Y003984D02*
X000460Y003984D01*
X000460Y003826D02*
X000940Y003826D01*
X000940Y003667D02*
X000460Y003667D01*
X000460Y003509D02*
X000940Y003509D01*
X000940Y003350D02*
X000460Y003350D01*
X000460Y003192D02*
X000940Y003192D01*
X000940Y003033D02*
X000460Y003033D01*
X000460Y002875D02*
X000940Y002875D01*
X000940Y002716D02*
X000460Y002716D01*
X000460Y002558D02*
X000940Y002558D01*
X000940Y002399D02*
X000460Y002399D01*
X000460Y002241D02*
X000940Y002241D01*
X000940Y002082D02*
X000460Y002082D01*
X000460Y001924D02*
X000940Y001924D01*
X000940Y001765D02*
X000460Y001765D01*
X000460Y001607D02*
X000940Y001607D01*
X000940Y001448D02*
X000460Y001448D01*
X000460Y001290D02*
X000940Y001290D01*
X000940Y001132D02*
X000977Y001044D01*
X001044Y000977D01*
X001544Y000477D01*
X001584Y000460D01*
X001206Y000460D01*
X001106Y000481D01*
X000894Y000571D01*
X000711Y000711D01*
X000784Y000656D02*
X001365Y000656D01*
X001207Y000814D02*
X000632Y000814D01*
X000537Y000973D02*
X001048Y000973D01*
X001044Y000977D02*
X001044Y000977D01*
X000941Y001131D02*
X000476Y001131D01*
X000940Y001132D02*
X000940Y018408D01*
X000864Y018408D01*
X000940Y018249D02*
X000460Y018249D01*
X000460Y018091D02*
X000940Y018091D01*
X000940Y017932D02*
X000460Y017932D01*
X000460Y017774D02*
X000940Y017774D01*
X000940Y017615D02*
X000460Y017615D01*
X000460Y017457D02*
X000940Y017457D01*
X000940Y017298D02*
X000460Y017298D01*
X000460Y017140D02*
X000940Y017140D01*
X000940Y016981D02*
X000460Y016981D01*
X000460Y016823D02*
X000940Y016823D01*
X000940Y016664D02*
X000460Y016664D01*
X000460Y016506D02*
X000940Y016506D01*
X000940Y016347D02*
X000460Y016347D01*
X000460Y016189D02*
X000940Y016189D01*
X000940Y016030D02*
X000460Y016030D01*
X000460Y015872D02*
X000940Y015872D01*
X000940Y015713D02*
X000460Y015713D01*
X000460Y015555D02*
X000940Y015555D01*
X000940Y015396D02*
X000460Y015396D01*
X000460Y015238D02*
X000940Y015238D01*
X000940Y015079D02*
X000460Y015079D01*
X000460Y014921D02*
X000940Y014921D01*
X000940Y014762D02*
X000460Y014762D01*
X000460Y014604D02*
X000940Y014604D01*
X000940Y014445D02*
X000460Y014445D01*
X000460Y014287D02*
X000940Y014287D01*
X000940Y014128D02*
X000460Y014128D01*
X000460Y013970D02*
X000940Y013970D01*
X000940Y013811D02*
X000460Y013811D01*
X000460Y013653D02*
X000940Y013653D01*
X000940Y013494D02*
X000460Y013494D01*
X000460Y013336D02*
X000940Y013336D01*
X000940Y013177D02*
X000460Y013177D01*
X000460Y013019D02*
X000940Y013019D01*
X000940Y012860D02*
X000460Y012860D01*
X000460Y012702D02*
X000940Y012702D01*
X000940Y012543D02*
X000460Y012543D01*
X000460Y012385D02*
X000940Y012385D01*
X000940Y012226D02*
X000460Y012226D01*
X000460Y012068D02*
X000940Y012068D01*
X001420Y014604D02*
X004274Y014604D01*
X004376Y014762D02*
X001420Y014762D01*
X001420Y014921D02*
X004376Y014921D01*
X004376Y015079D02*
X001420Y015079D01*
X001420Y015238D02*
X004376Y015238D01*
X004376Y015396D02*
X001420Y015396D01*
X001420Y015555D02*
X004376Y015555D01*
X004376Y015713D02*
X001420Y015713D01*
X001420Y015872D02*
X004376Y015872D01*
X003878Y016030D02*
X003324Y016030D01*
X003321Y016018D02*
X003332Y016058D01*
X003332Y016297D01*
X002482Y016297D01*
X002482Y016413D01*
X003332Y016413D01*
X003332Y016652D01*
X003321Y016692D01*
X003300Y016729D01*
X003270Y016759D01*
X003234Y016780D01*
X003193Y016791D01*
X002482Y016791D01*
X002482Y016413D01*
X002366Y016413D01*
X002366Y016791D01*
X001655Y016791D01*
X001614Y016780D01*
X001578Y016759D01*
X001548Y016729D01*
X001527Y016692D01*
X001516Y016652D01*
X001516Y016413D01*
X002366Y016413D01*
X002366Y016297D01*
X002482Y016297D01*
X002482Y015919D01*
X003193Y015919D01*
X003234Y015930D01*
X003270Y015951D01*
X003300Y015981D01*
X003321Y016018D01*
X003332Y016189D02*
X003878Y016189D01*
X003878Y016347D02*
X002482Y016347D01*
X002366Y016347D02*
X001420Y016347D01*
X001516Y016297D02*
X001516Y016058D01*
X001527Y016018D01*
X001548Y015981D01*
X001578Y015951D01*
X001614Y015930D01*
X001655Y015919D01*
X002366Y015919D01*
X002366Y016297D01*
X001516Y016297D01*
X001516Y016189D02*
X001420Y016189D01*
X001420Y016030D02*
X001523Y016030D01*
X001516Y016506D02*
X001420Y016506D01*
X001420Y016664D02*
X001519Y016664D01*
X002366Y016664D02*
X002482Y016664D01*
X002482Y016506D02*
X002366Y016506D01*
X002366Y016189D02*
X002482Y016189D01*
X002482Y016030D02*
X002366Y016030D01*
X003332Y016506D02*
X003878Y016506D01*
X003878Y016664D02*
X003329Y016664D01*
X003064Y018408D02*
X002994Y018478D01*
X001866Y018478D01*
X001796Y018408D01*
X001420Y018249D02*
X005620Y018249D01*
X005620Y018091D02*
X001420Y018091D01*
X001420Y017932D02*
X005685Y017932D01*
X005859Y017774D02*
X001420Y017774D01*
X001330Y018718D02*
X001305Y018805D01*
X001330Y018718D02*
X003530Y018718D01*
X004734Y018883D02*
X005012Y018883D01*
X006345Y018566D02*
X006829Y018566D01*
X006839Y018573D02*
X006780Y018531D01*
X006729Y018480D01*
X006687Y018421D01*
X006654Y018357D01*
X006631Y018288D01*
X006620Y018216D01*
X006620Y018200D01*
X007060Y018200D01*
X007060Y018640D01*
X007044Y018640D01*
X006972Y018629D01*
X006903Y018606D01*
X006839Y018573D01*
X007060Y018566D02*
X007100Y018566D01*
X007100Y018640D02*
X007100Y018200D01*
X007060Y018200D01*
X007060Y018160D01*
X006620Y018160D01*
X006620Y018144D01*
X006631Y018072D01*
X006654Y018003D01*
X006687Y017939D01*
X006729Y017880D01*
X006780Y017829D01*
X006839Y017787D01*
X006903Y017754D01*
X006972Y017731D01*
X007044Y017720D01*
X007060Y017720D01*
X007060Y018160D01*
X007100Y018160D01*
X007100Y018200D01*
X007540Y018200D01*
X007540Y018216D01*
X007529Y018288D01*
X007506Y018357D01*
X007473Y018421D01*
X007431Y018480D01*
X007380Y018531D01*
X007321Y018573D01*
X007257Y018606D01*
X007188Y018629D01*
X007116Y018640D01*
X007100Y018640D01*
X007331Y018566D02*
X007815Y018566D01*
X007819Y018570D02*
X007690Y018441D01*
X007620Y018271D01*
X007620Y018088D01*
X007690Y017919D01*
X007819Y017790D01*
X007988Y017720D01*
X008171Y017720D01*
X008341Y017790D01*
X008470Y017919D01*
X008540Y018088D01*
X008540Y018271D01*
X008470Y018441D01*
X008341Y018570D01*
X008171Y018640D01*
X007988Y018640D01*
X007819Y018570D01*
X007676Y018408D02*
X007480Y018408D01*
X007535Y018249D02*
X007620Y018249D01*
X007540Y018160D02*
X007100Y018160D01*
X007100Y017720D01*
X007116Y017720D01*
X007188Y017731D01*
X007257Y017754D01*
X007321Y017787D01*
X007380Y017829D01*
X007431Y017880D01*
X007473Y017939D01*
X007506Y018003D01*
X007529Y018072D01*
X007540Y018144D01*
X007540Y018160D01*
X007532Y018091D02*
X007620Y018091D01*
X007685Y017932D02*
X007468Y017932D01*
X007295Y017774D02*
X007859Y017774D01*
X008301Y017774D02*
X008859Y017774D01*
X008819Y017790D02*
X008988Y017720D01*
X009171Y017720D01*
X009341Y017790D01*
X009470Y017919D01*
X009540Y018088D01*
X009540Y018271D01*
X009470Y018441D01*
X009341Y018570D01*
X009171Y018640D01*
X008988Y018640D01*
X008819Y018570D01*
X008690Y018441D01*
X008620Y018271D01*
X008620Y018088D01*
X008690Y017919D01*
X008819Y017790D01*
X008685Y017932D02*
X008475Y017932D01*
X008540Y018091D02*
X008620Y018091D01*
X008620Y018249D02*
X008540Y018249D01*
X008484Y018408D02*
X008676Y018408D01*
X008815Y018566D02*
X008345Y018566D01*
X009301Y017774D02*
X009859Y017774D01*
X009819Y017790D02*
X009988Y017720D01*
X010171Y017720D01*
X010341Y017790D01*
X010470Y017919D01*
X010540Y018088D01*
X010540Y018271D01*
X010470Y018441D01*
X010341Y018570D01*
X010171Y018640D01*
X009988Y018640D01*
X009819Y018570D01*
X009690Y018441D01*
X009620Y018271D01*
X009620Y018088D01*
X009690Y017919D01*
X009819Y017790D01*
X009685Y017932D02*
X009475Y017932D01*
X009540Y018091D02*
X009620Y018091D01*
X009620Y018249D02*
X009540Y018249D01*
X009484Y018408D02*
X009676Y018408D01*
X009815Y018566D02*
X009345Y018566D01*
X010345Y018566D02*
X010815Y018566D01*
X010819Y018570D02*
X010690Y018441D01*
X010620Y018271D01*
X010620Y018088D01*
X010690Y017919D01*
X010819Y017790D01*
X010988Y017720D01*
X011171Y017720D01*
X011341Y017790D01*
X011470Y017919D01*
X011540Y018088D01*
X011540Y018271D01*
X011470Y018441D01*
X011341Y018570D01*
X011171Y018640D01*
X010988Y018640D01*
X010819Y018570D01*
X010676Y018408D02*
X010484Y018408D01*
X010540Y018249D02*
X010620Y018249D01*
X010620Y018091D02*
X010540Y018091D01*
X010475Y017932D02*
X010685Y017932D01*
X010859Y017774D02*
X010301Y017774D01*
X011301Y017774D02*
X011859Y017774D01*
X011819Y017790D02*
X011690Y017919D01*
X011620Y018088D01*
X011620Y018271D01*
X011690Y018441D01*
X011819Y018570D01*
X011988Y018640D01*
X012171Y018640D01*
X012341Y018570D01*
X012470Y018441D01*
X012540Y018271D01*
X012540Y018088D01*
X012470Y017919D01*
X012341Y017790D01*
X012171Y017720D01*
X011988Y017720D01*
X011819Y017790D01*
X011685Y017932D02*
X011475Y017932D01*
X011540Y018091D02*
X011620Y018091D01*
X011620Y018249D02*
X011540Y018249D01*
X011484Y018408D02*
X011676Y018408D01*
X011815Y018566D02*
X011345Y018566D01*
X012345Y018566D02*
X012640Y018566D01*
X012620Y018546D02*
X012620Y017814D01*
X012714Y017720D01*
X013446Y017720D01*
X013540Y017814D01*
X013540Y018546D01*
X013446Y018640D01*
X012714Y018640D01*
X012620Y018546D01*
X012620Y018408D02*
X012484Y018408D01*
X012540Y018249D02*
X012620Y018249D01*
X012620Y018091D02*
X012540Y018091D01*
X012475Y017932D02*
X012620Y017932D01*
X012660Y017774D02*
X012301Y017774D01*
X013500Y017774D02*
X014459Y017774D01*
X014419Y017790D02*
X014290Y017919D01*
X014220Y018088D01*
X014220Y018271D01*
X014290Y018441D01*
X014419Y018570D01*
X014588Y018640D01*
X014771Y018640D01*
X014941Y018570D01*
X015070Y018441D01*
X015140Y018271D01*
X015140Y018088D01*
X015070Y017919D01*
X014941Y017790D01*
X014771Y017720D01*
X014588Y017720D01*
X014419Y017790D01*
X014285Y017932D02*
X013540Y017932D01*
X013540Y018091D02*
X014220Y018091D01*
X014220Y018249D02*
X013540Y018249D01*
X013540Y018408D02*
X014276Y018408D01*
X014415Y018566D02*
X013520Y018566D01*
X013446Y019720D02*
X012714Y019720D01*
X012620Y019814D01*
X012620Y020546D01*
X012714Y020640D01*
X013446Y020640D01*
X013540Y020546D01*
X013540Y019814D01*
X013446Y019720D01*
X013540Y019834D02*
X014375Y019834D01*
X014419Y019790D02*
X014588Y019720D01*
X014771Y019720D01*
X014941Y019790D01*
X015070Y019919D01*
X015140Y020088D01*
X015140Y020271D01*
X015070Y020441D01*
X014941Y020570D01*
X014771Y020640D01*
X014588Y020640D01*
X014419Y020570D01*
X014290Y020441D01*
X014220Y020271D01*
X014220Y020088D01*
X014290Y019919D01*
X014419Y019790D01*
X014260Y019993D02*
X013540Y019993D01*
X013540Y020151D02*
X014220Y020151D01*
X014236Y020310D02*
X013540Y020310D01*
X013540Y020468D02*
X014317Y020468D01*
X014556Y020627D02*
X013460Y020627D01*
X012700Y020627D02*
X012204Y020627D01*
X012171Y020640D02*
X011988Y020640D01*
X011819Y020570D01*
X011690Y020441D01*
X011620Y020271D01*
X011620Y020088D01*
X011690Y019919D01*
X011819Y019790D01*
X011988Y019720D01*
X012171Y019720D01*
X012341Y019790D01*
X012470Y019919D01*
X012540Y020088D01*
X012540Y020271D01*
X012470Y020441D01*
X012341Y020570D01*
X012171Y020640D01*
X011956Y020627D02*
X011204Y020627D01*
X011171Y020640D02*
X010988Y020640D01*
X010819Y020570D01*
X010690Y020441D01*
X010620Y020271D01*
X010620Y020088D01*
X010690Y019919D01*
X010819Y019790D01*
X010988Y019720D01*
X011171Y019720D01*
X011341Y019790D01*
X011470Y019919D01*
X011540Y020088D01*
X011540Y020271D01*
X011470Y020441D01*
X011341Y020570D01*
X011171Y020640D01*
X010956Y020627D02*
X010204Y020627D01*
X010171Y020640D02*
X009988Y020640D01*
X009819Y020570D01*
X009690Y020441D01*
X009620Y020271D01*
X009620Y020088D01*
X009690Y019919D01*
X009819Y019790D01*
X009988Y019720D01*
X010171Y019720D01*
X010341Y019790D01*
X010470Y019919D01*
X010540Y020088D01*
X010540Y020271D01*
X010470Y020441D01*
X010341Y020570D01*
X010171Y020640D01*
X009956Y020627D02*
X009204Y020627D01*
X009171Y020640D02*
X008988Y020640D01*
X008819Y020570D01*
X008690Y020441D01*
X008620Y020271D01*
X008620Y020088D01*
X008690Y019919D01*
X008819Y019790D01*
X008988Y019720D01*
X009171Y019720D01*
X009341Y019790D01*
X009470Y019919D01*
X009540Y020088D01*
X009540Y020271D01*
X009470Y020441D01*
X009341Y020570D01*
X009171Y020640D01*
X008956Y020627D02*
X008204Y020627D01*
X008171Y020640D02*
X007988Y020640D01*
X007819Y020570D01*
X007690Y020441D01*
X007620Y020271D01*
X007620Y020088D01*
X007690Y019919D01*
X007819Y019790D01*
X007988Y019720D01*
X008171Y019720D01*
X008341Y019790D01*
X008470Y019919D01*
X008540Y020088D01*
X008540Y020271D01*
X008470Y020441D01*
X008341Y020570D01*
X008171Y020640D01*
X007956Y020627D02*
X007194Y020627D01*
X007188Y020629D02*
X007116Y020640D01*
X007100Y020640D01*
X007100Y020200D01*
X007060Y020200D01*
X007060Y020640D01*
X007044Y020640D01*
X006972Y020629D01*
X006903Y020606D01*
X006839Y020573D01*
X006780Y020531D01*
X006729Y020480D01*
X006687Y020421D01*
X006654Y020357D01*
X006631Y020288D01*
X006620Y020216D01*
X006620Y020200D01*
X007060Y020200D01*
X007060Y020160D01*
X006620Y020160D01*
X006620Y020144D01*
X006631Y020072D01*
X006654Y020003D01*
X006687Y019939D01*
X006729Y019880D01*
X006780Y019829D01*
X006839Y019787D01*
X006903Y019754D01*
X006972Y019731D01*
X007044Y019720D01*
X007060Y019720D01*
X007060Y020160D01*
X007100Y020160D01*
X007100Y020200D01*
X007540Y020200D01*
X007540Y020216D01*
X007529Y020288D01*
X007506Y020357D01*
X007473Y020421D01*
X007431Y020480D01*
X007380Y020531D01*
X007321Y020573D01*
X007257Y020606D01*
X007188Y020629D01*
X007100Y020627D02*
X007060Y020627D01*
X006966Y020627D02*
X006204Y020627D01*
X006443Y020468D02*
X006721Y020468D01*
X006638Y020310D02*
X006524Y020310D01*
X006540Y020151D02*
X006620Y020151D01*
X006659Y019993D02*
X006500Y019993D01*
X006385Y019834D02*
X006775Y019834D01*
X007060Y019834D02*
X007100Y019834D01*
X007100Y019720D02*
X007116Y019720D01*
X007188Y019731D01*
X007257Y019754D01*
X007321Y019787D01*
X007380Y019829D01*
X007431Y019880D01*
X007473Y019939D01*
X007506Y020003D01*
X007529Y020072D01*
X007540Y020144D01*
X007540Y020160D01*
X007100Y020160D01*
X007100Y019720D01*
X007100Y019993D02*
X007060Y019993D01*
X007060Y020151D02*
X007100Y020151D01*
X007100Y020310D02*
X007060Y020310D01*
X007060Y020468D02*
X007100Y020468D01*
X007439Y020468D02*
X007717Y020468D01*
X007636Y020310D02*
X007522Y020310D01*
X007540Y020151D02*
X007620Y020151D01*
X007660Y019993D02*
X007501Y019993D01*
X007385Y019834D02*
X007775Y019834D01*
X008385Y019834D02*
X008775Y019834D01*
X008660Y019993D02*
X008500Y019993D01*
X008540Y020151D02*
X008620Y020151D01*
X008636Y020310D02*
X008524Y020310D01*
X008443Y020468D02*
X008717Y020468D01*
X009443Y020468D02*
X009717Y020468D01*
X009636Y020310D02*
X009524Y020310D01*
X009540Y020151D02*
X009620Y020151D01*
X009660Y019993D02*
X009500Y019993D01*
X009385Y019834D02*
X009775Y019834D01*
X010385Y019834D02*
X010775Y019834D01*
X010660Y019993D02*
X010500Y019993D01*
X010540Y020151D02*
X010620Y020151D01*
X010636Y020310D02*
X010524Y020310D01*
X010443Y020468D02*
X010717Y020468D01*
X011443Y020468D02*
X011717Y020468D01*
X011636Y020310D02*
X011524Y020310D01*
X011540Y020151D02*
X011620Y020151D01*
X011660Y019993D02*
X011500Y019993D01*
X011385Y019834D02*
X011775Y019834D01*
X012385Y019834D02*
X012620Y019834D01*
X012620Y019993D02*
X012500Y019993D01*
X012540Y020151D02*
X012620Y020151D01*
X012620Y020310D02*
X012524Y020310D01*
X012443Y020468D02*
X012620Y020468D01*
X014804Y020627D02*
X015556Y020627D01*
X015588Y020640D02*
X015419Y020570D01*
X015290Y020441D01*
X015220Y020271D01*
X015220Y020088D01*
X015290Y019919D01*
X015419Y019790D01*
X015588Y019720D01*
X015771Y019720D01*
X015941Y019790D01*
X016070Y019919D01*
X016140Y020088D01*
X016140Y020271D01*
X016070Y020441D01*
X015941Y020570D01*
X015771Y020640D01*
X015588Y020640D01*
X015804Y020627D02*
X016556Y020627D01*
X016588Y020640D02*
X016419Y020570D01*
X016290Y020441D01*
X016220Y020271D01*
X016220Y020088D01*
X016290Y019919D01*
X016419Y019790D01*
X016588Y019720D01*
X016771Y019720D01*
X016941Y019790D01*
X017070Y019919D01*
X017140Y020088D01*
X017140Y020271D01*
X017070Y020441D01*
X016941Y020570D01*
X016771Y020640D01*
X016588Y020640D01*
X016804Y020627D02*
X017556Y020627D01*
X017588Y020640D02*
X017419Y020570D01*
X017290Y020441D01*
X017220Y020271D01*
X017220Y020088D01*
X017290Y019919D01*
X017419Y019790D01*
X017588Y019720D01*
X017771Y019720D01*
X017941Y019790D01*
X018070Y019919D01*
X018140Y020088D01*
X018140Y020271D01*
X018070Y020441D01*
X017941Y020570D01*
X017771Y020640D01*
X017588Y020640D01*
X017804Y020627D02*
X018556Y020627D01*
X018588Y020640D02*
X018419Y020570D01*
X018290Y020441D01*
X018220Y020271D01*
X018220Y020088D01*
X018290Y019919D01*
X018419Y019790D01*
X018588Y019720D01*
X018771Y019720D01*
X018941Y019790D01*
X019070Y019919D01*
X019140Y020088D01*
X019140Y020271D01*
X019070Y020441D01*
X018941Y020570D01*
X018771Y020640D01*
X018588Y020640D01*
X018804Y020627D02*
X019556Y020627D01*
X019588Y020640D02*
X019419Y020570D01*
X019290Y020441D01*
X019220Y020271D01*
X019220Y020088D01*
X019290Y019919D01*
X019419Y019790D01*
X019588Y019720D01*
X019771Y019720D01*
X019941Y019790D01*
X020070Y019919D01*
X020140Y020088D01*
X020140Y020271D01*
X020070Y020441D01*
X019941Y020570D01*
X019771Y020640D01*
X019588Y020640D01*
X019804Y020627D02*
X020556Y020627D01*
X020588Y020640D02*
X020419Y020570D01*
X020290Y020441D01*
X020220Y020271D01*
X020220Y020088D01*
X020290Y019919D01*
X020419Y019790D01*
X020588Y019720D01*
X020771Y019720D01*
X020941Y019790D01*
X021070Y019919D01*
X021140Y020088D01*
X021140Y020271D01*
X021070Y020441D01*
X020941Y020570D01*
X020771Y020640D01*
X020588Y020640D01*
X020804Y020627D02*
X021300Y020627D01*
X021220Y020468D02*
X021043Y020468D01*
X021124Y020310D02*
X021220Y020310D01*
X021220Y020151D02*
X021140Y020151D01*
X021100Y019993D02*
X021220Y019993D01*
X021220Y019834D02*
X020985Y019834D01*
X020375Y019834D02*
X019985Y019834D01*
X020100Y019993D02*
X020260Y019993D01*
X020220Y020151D02*
X020140Y020151D01*
X020124Y020310D02*
X020236Y020310D01*
X020317Y020468D02*
X020043Y020468D01*
X019375Y019834D02*
X018985Y019834D01*
X019100Y019993D02*
X019260Y019993D01*
X019220Y020151D02*
X019140Y020151D01*
X019124Y020310D02*
X019236Y020310D01*
X019317Y020468D02*
X019043Y020468D01*
X018317Y020468D02*
X018043Y020468D01*
X018124Y020310D02*
X018236Y020310D01*
X018220Y020151D02*
X018140Y020151D01*
X018100Y019993D02*
X018260Y019993D01*
X018375Y019834D02*
X017985Y019834D01*
X017375Y019834D02*
X016985Y019834D01*
X017100Y019993D02*
X017260Y019993D01*
X017220Y020151D02*
X017140Y020151D01*
X017124Y020310D02*
X017236Y020310D01*
X017317Y020468D02*
X017043Y020468D01*
X016317Y020468D02*
X016043Y020468D01*
X016124Y020310D02*
X016236Y020310D01*
X016220Y020151D02*
X016140Y020151D01*
X016100Y019993D02*
X016260Y019993D01*
X016375Y019834D02*
X015985Y019834D01*
X015375Y019834D02*
X014985Y019834D01*
X015100Y019993D02*
X015260Y019993D01*
X015220Y020151D02*
X015140Y020151D01*
X015124Y020310D02*
X015236Y020310D01*
X015317Y020468D02*
X015043Y020468D01*
X015588Y018640D02*
X015419Y018570D01*
X015290Y018441D01*
X015220Y018271D01*
X015220Y018088D01*
X015290Y017919D01*
X015419Y017790D01*
X015588Y017720D01*
X015771Y017720D01*
X015941Y017790D01*
X016070Y017919D01*
X016140Y018088D01*
X016140Y018271D01*
X016070Y018441D01*
X015941Y018570D01*
X015771Y018640D01*
X015588Y018640D01*
X015415Y018566D02*
X014945Y018566D01*
X015084Y018408D02*
X015276Y018408D01*
X015220Y018249D02*
X015140Y018249D01*
X015140Y018091D02*
X015220Y018091D01*
X015285Y017932D02*
X015075Y017932D01*
X014901Y017774D02*
X015459Y017774D01*
X015901Y017774D02*
X016459Y017774D01*
X016419Y017790D02*
X016588Y017720D01*
X016771Y017720D01*
X016941Y017790D01*
X017070Y017919D01*
X017140Y018088D01*
X017140Y018271D01*
X017070Y018441D01*
X016941Y018570D01*
X016771Y018640D01*
X016588Y018640D01*
X016419Y018570D01*
X016290Y018441D01*
X016220Y018271D01*
X016220Y018088D01*
X016290Y017919D01*
X016419Y017790D01*
X016285Y017932D02*
X016075Y017932D01*
X016140Y018091D02*
X016220Y018091D01*
X016220Y018249D02*
X016140Y018249D01*
X016084Y018408D02*
X016276Y018408D01*
X016415Y018566D02*
X015945Y018566D01*
X016901Y017774D02*
X017459Y017774D01*
X017419Y017790D02*
X017588Y017720D01*
X017771Y017720D01*
X017941Y017790D01*
X018070Y017919D01*
X018140Y018088D01*
X018140Y018271D01*
X018070Y018441D01*
X017941Y018570D01*
X017771Y018640D01*
X017588Y018640D01*
X017419Y018570D01*
X017290Y018441D01*
X017220Y018271D01*
X017220Y018088D01*
X017290Y017919D01*
X017419Y017790D01*
X017285Y017932D02*
X017075Y017932D01*
X017140Y018091D02*
X017220Y018091D01*
X017220Y018249D02*
X017140Y018249D01*
X017084Y018408D02*
X017276Y018408D01*
X017415Y018566D02*
X016945Y018566D01*
X017945Y018566D02*
X018415Y018566D01*
X018276Y018408D02*
X018084Y018408D01*
X018140Y018249D02*
X018220Y018249D01*
X018220Y018091D02*
X018140Y018091D01*
X018075Y017932D02*
X018285Y017932D01*
X018459Y017774D02*
X017901Y017774D01*
X017904Y017140D02*
X017456Y017140D01*
X017629Y016981D02*
X017731Y016981D01*
X017763Y016347D02*
X017597Y016347D01*
X017378Y016189D02*
X017982Y016189D01*
X017879Y016030D02*
X017481Y016030D01*
X017599Y015872D02*
X017761Y015872D01*
X017720Y015713D02*
X017640Y015713D01*
X017626Y015555D02*
X017734Y015555D01*
X017813Y015396D02*
X017547Y015396D01*
X016813Y015396D02*
X016547Y015396D01*
X016570Y015419D02*
X016640Y015588D01*
X016640Y015771D01*
X016570Y015941D01*
X016441Y016070D01*
X016271Y016140D01*
X016088Y016140D01*
X015919Y016070D01*
X015790Y015941D01*
X015720Y015771D01*
X015720Y015588D01*
X015790Y015419D01*
X015919Y015290D01*
X016088Y015220D01*
X016271Y015220D01*
X016441Y015290D01*
X016570Y015419D01*
X016626Y015555D02*
X016734Y015555D01*
X016720Y015713D02*
X016640Y015713D01*
X016599Y015872D02*
X016761Y015872D01*
X016879Y016030D02*
X016481Y016030D01*
X016378Y016189D02*
X016982Y016189D01*
X016763Y016347D02*
X016597Y016347D01*
X016629Y016981D02*
X016731Y016981D01*
X016904Y017140D02*
X016456Y017140D01*
X015349Y016189D02*
X013390Y016189D01*
X013390Y016030D02*
X015191Y016030D01*
X015073Y015872D02*
X013390Y015872D01*
X013390Y015713D02*
X015065Y015713D01*
X015065Y015555D02*
X013381Y015555D01*
X015545Y015555D02*
X015734Y015555D01*
X015720Y015713D02*
X015552Y015713D01*
X015711Y015872D02*
X015761Y015872D01*
X015869Y016030D02*
X015879Y016030D01*
X015813Y015396D02*
X015545Y015396D01*
X015545Y015238D02*
X016046Y015238D01*
X015941Y015079D02*
X015545Y015079D01*
X015545Y014921D02*
X015782Y014921D01*
X015720Y014762D02*
X015545Y014762D01*
X015545Y014604D02*
X015720Y014604D01*
X015779Y014445D02*
X015545Y014445D01*
X014398Y012852D02*
X014398Y012648D01*
X014083Y012852D02*
X013508Y012852D01*
X013430Y012930D01*
X012930Y012930D01*
X013326Y013177D02*
X013836Y013177D01*
X013824Y013336D02*
X013153Y013336D01*
X013079Y013494D02*
X013824Y013494D01*
X013954Y012543D02*
X013194Y012543D01*
X012911Y012226D02*
X013637Y012226D01*
X013795Y012385D02*
X012752Y012385D01*
X010418Y014287D02*
X010417Y014287D01*
X010417Y014445D02*
X010418Y014445D01*
X010156Y014445D02*
X010079Y014445D01*
X007100Y017774D02*
X007060Y017774D01*
X007060Y017932D02*
X007100Y017932D01*
X007100Y018091D02*
X007060Y018091D01*
X007060Y018249D02*
X007100Y018249D01*
X007100Y018408D02*
X007060Y018408D01*
X006680Y018408D02*
X006484Y018408D01*
X006540Y018249D02*
X006625Y018249D01*
X006628Y018091D02*
X006540Y018091D01*
X006475Y017932D02*
X006692Y017932D01*
X006865Y017774D02*
X006301Y017774D01*
X003530Y019993D02*
X003530Y019993D01*
X003530Y020151D02*
X003530Y020151D01*
X003530Y020310D02*
X003530Y020310D01*
X003530Y020468D02*
X003530Y020468D01*
X008630Y008581D02*
X008630Y008581D01*
X008630Y008422D02*
X008630Y008422D01*
X008630Y008264D02*
X008630Y008264D01*
X008630Y008105D02*
X008630Y008105D01*
X008800Y007773D02*
X008810Y007733D01*
X008810Y007260D01*
X008376Y007260D01*
X008376Y007100D01*
X008376Y006489D01*
X008672Y006489D01*
X008712Y006499D01*
X008749Y006520D01*
X008779Y006550D01*
X008800Y006587D01*
X008810Y006627D01*
X008810Y007100D01*
X008376Y007100D01*
X008216Y007100D01*
X008216Y006489D01*
X007921Y006489D01*
X007880Y006499D01*
X007844Y006520D01*
X008216Y006520D02*
X008376Y006520D01*
X008376Y006679D02*
X008216Y006679D01*
X008216Y006837D02*
X008376Y006837D01*
X008376Y006996D02*
X008216Y006996D01*
X008376Y007154D02*
X009460Y007154D01*
X009460Y006996D02*
X008810Y006996D01*
X008810Y006837D02*
X009460Y006837D01*
X009460Y006679D02*
X009411Y006679D01*
X009180Y006430D02*
X009180Y005493D01*
X009007Y005320D01*
X008670Y005320D01*
X008670Y005728D02*
X008670Y005728D01*
X008940Y005886D02*
X006313Y005886D01*
X006155Y006045D02*
X008940Y006045D01*
X008928Y006203D02*
X006019Y006203D01*
X005971Y006362D02*
X008842Y006362D01*
X008851Y006520D02*
X008748Y006520D01*
X008810Y006679D02*
X008949Y006679D01*
X008810Y007313D02*
X009460Y007313D01*
X009820Y007471D02*
X008810Y007471D01*
X008810Y007630D02*
X009820Y007630D01*
X010220Y007630D02*
X010690Y007630D01*
X010690Y007788D02*
X010220Y007788D01*
X010220Y007947D02*
X010684Y007947D01*
X010594Y008105D02*
X010220Y008105D01*
X010220Y008264D02*
X010598Y008264D01*
X010693Y008422D02*
X010220Y008422D01*
X009680Y008305D02*
X009230Y008305D01*
X008979Y008581D02*
X008881Y008581D01*
X010220Y007471D02*
X010690Y007471D01*
X010719Y007313D02*
X010580Y007313D01*
X010580Y007154D02*
X010895Y007154D01*
X010807Y006996D02*
X010580Y006996D01*
X010930Y006680D02*
X010020Y006680D01*
X010930Y007430D02*
X010930Y008180D01*
X011680Y008368D02*
X012130Y008368D01*
X012130Y007805D01*
X011497Y007471D02*
X011200Y007471D01*
X011359Y007313D02*
X011368Y007313D01*
X011680Y007180D02*
X012440Y007180D01*
X012730Y007495D02*
X012730Y007805D01*
X012730Y007495D01*
X012730Y007630D02*
X012730Y007630D01*
X012730Y007788D02*
X012730Y007788D01*
X012730Y007805D02*
X012730Y007805D01*
X010930Y005680D02*
X010020Y005680D01*
X008315Y005728D02*
X006857Y005728D01*
X006857Y005569D02*
X008303Y005569D01*
X007660Y005411D02*
X007500Y005411D01*
X007500Y005252D02*
X007660Y005252D01*
X007660Y005094D02*
X007500Y005094D01*
X007500Y004935D02*
X007660Y004935D01*
X007660Y004777D02*
X007500Y004777D01*
X007500Y004600D02*
X007660Y004600D01*
X007660Y003815D01*
X008180Y003815D01*
X008220Y003826D01*
X008257Y003847D01*
X008287Y003877D01*
X008303Y003905D01*
X008303Y003784D01*
X008303Y003675D01*
X008314Y003634D01*
X008335Y003598D01*
X008365Y003568D01*
X008401Y003547D01*
X008442Y003536D01*
X008670Y003536D01*
X008897Y003536D01*
X008938Y003547D01*
X008960Y003559D01*
X008960Y002839D01*
X009210Y002589D01*
X009339Y002460D01*
X009707Y002460D01*
X009686Y002451D01*
X008721Y001486D01*
X008676Y001467D01*
X008580Y001372D01*
X008529Y001247D01*
X008529Y001113D01*
X008580Y000988D01*
X008648Y000920D01*
X003712Y000920D01*
X003889Y000993D01*
X004117Y001221D01*
X004240Y001519D01*
X004240Y001841D01*
X004149Y002060D01*
X005344Y003255D01*
X005341Y003247D01*
X005341Y003113D01*
X005393Y002988D01*
X005488Y002893D01*
X005613Y002841D01*
X005747Y002841D01*
X005872Y002893D01*
X005967Y002988D01*
X006019Y003113D01*
X006019Y003179D01*
X006375Y003536D01*
X006763Y003536D01*
X006857Y003629D01*
X006857Y003905D01*
X006873Y003877D01*
X006903Y003847D01*
X006940Y003826D01*
X006980Y003815D01*
X007500Y003815D01*
X007500Y004600D01*
X007500Y004460D02*
X007660Y004460D01*
X007660Y004301D02*
X007500Y004301D01*
X007500Y004143D02*
X007660Y004143D01*
X007660Y003984D02*
X007500Y003984D01*
X007500Y003826D02*
X007660Y003826D01*
X008218Y003826D02*
X008303Y003826D01*
X008303Y003784D02*
X008670Y003784D01*
X008670Y003536D01*
X008670Y003784D01*
X008670Y003784D01*
X008303Y003784D01*
X008305Y003667D02*
X006857Y003667D01*
X006857Y003826D02*
X006942Y003826D01*
X006490Y003784D02*
X006284Y003784D01*
X005680Y003180D01*
X005341Y003192D02*
X005281Y003192D01*
X005374Y003033D02*
X005122Y003033D01*
X004964Y002875D02*
X005532Y002875D01*
X005828Y002875D02*
X008960Y002875D01*
X008960Y003033D02*
X005986Y003033D01*
X006031Y003192D02*
X008960Y003192D01*
X008960Y003350D02*
X006189Y003350D01*
X006348Y003509D02*
X008960Y003509D01*
X008670Y003667D02*
X008670Y003667D01*
X008670Y003784D02*
X008670Y003784D01*
X008672Y002871D02*
X008376Y002871D01*
X008376Y002260D01*
X008216Y002260D01*
X008216Y002100D01*
X007782Y002100D01*
X007782Y001627D01*
X007793Y001587D01*
X007814Y001550D01*
X007844Y001520D01*
X007880Y001499D01*
X007921Y001489D01*
X008216Y001489D01*
X008216Y002100D01*
X008376Y002100D01*
X008376Y001489D01*
X008672Y001489D01*
X008712Y001499D01*
X008749Y001520D01*
X008779Y001550D01*
X008800Y001587D01*
X008810Y001627D01*
X008810Y002100D01*
X008376Y002100D01*
X008376Y002260D01*
X008810Y002260D01*
X008810Y002733D01*
X008800Y002773D01*
X008779Y002810D01*
X008749Y002840D01*
X008712Y002861D01*
X008672Y002871D01*
X008810Y002716D02*
X009083Y002716D01*
X009241Y002558D02*
X008810Y002558D01*
X008810Y002399D02*
X009634Y002399D01*
X009475Y002241D02*
X008376Y002241D01*
X008376Y002399D02*
X008216Y002399D01*
X008216Y002260D02*
X008216Y002871D01*
X007921Y002871D01*
X007880Y002861D01*
X007844Y002840D01*
X007814Y002810D01*
X007793Y002773D01*
X007782Y002733D01*
X007782Y002260D01*
X008216Y002260D01*
X008216Y002241D02*
X007078Y002241D01*
X007078Y002399D02*
X007782Y002399D01*
X007782Y002558D02*
X007078Y002558D01*
X007078Y002716D02*
X007782Y002716D01*
X008216Y002716D02*
X008376Y002716D01*
X008376Y002558D02*
X008216Y002558D01*
X008216Y002082D02*
X008376Y002082D01*
X008376Y001924D02*
X008216Y001924D01*
X008216Y001765D02*
X008376Y001765D01*
X008376Y001607D02*
X008216Y001607D01*
X008546Y001290D02*
X004145Y001290D01*
X004211Y001448D02*
X008656Y001448D01*
X008805Y001607D02*
X008841Y001607D01*
X008810Y001765D02*
X009000Y001765D01*
X009158Y001924D02*
X008810Y001924D01*
X008810Y002082D02*
X009317Y002082D01*
X008529Y001131D02*
X004027Y001131D01*
X003839Y000973D02*
X008596Y000973D01*
X007787Y001607D02*
X007078Y001607D01*
X007078Y001582D02*
X007078Y002778D01*
X006984Y002871D01*
X006143Y002871D01*
X006050Y002778D01*
X006050Y002500D01*
X005293Y002500D01*
X005247Y002519D01*
X005113Y002519D01*
X004988Y002467D01*
X004893Y002372D01*
X004841Y002247D01*
X004841Y002113D01*
X004893Y001988D01*
X004988Y001893D01*
X005113Y001841D01*
X005247Y001841D01*
X005293Y001860D01*
X006050Y001860D01*
X006050Y001582D01*
X006143Y001489D01*
X006984Y001489D01*
X007078Y001582D01*
X007078Y001765D02*
X007782Y001765D01*
X007782Y001924D02*
X007078Y001924D01*
X007078Y002082D02*
X007782Y002082D01*
X006050Y001765D02*
X004240Y001765D01*
X004240Y001607D02*
X006050Y001607D01*
X006050Y002558D02*
X004647Y002558D01*
X004805Y002716D02*
X006050Y002716D01*
X004920Y002399D02*
X004488Y002399D01*
X004330Y002241D02*
X004841Y002241D01*
X004854Y002082D02*
X004171Y002082D01*
X004206Y001924D02*
X004957Y001924D01*
X004127Y002716D02*
X001420Y002716D01*
X001420Y002558D02*
X003968Y002558D01*
X004285Y002875D02*
X003602Y002875D01*
X003929Y003033D02*
X004444Y003033D01*
X004602Y003192D02*
X004087Y003192D01*
X004170Y003350D02*
X004761Y003350D01*
X004919Y003509D02*
X004236Y003509D01*
X004240Y003667D02*
X004714Y003667D01*
X004607Y003826D02*
X004240Y003826D01*
X004181Y003984D02*
X004591Y003984D01*
X004663Y004143D02*
X004232Y004143D01*
X004390Y004301D02*
X004962Y004301D01*
X005296Y004296D02*
X004930Y003930D01*
X005296Y004296D02*
X006490Y004296D01*
X006490Y004552D02*
X004302Y004552D01*
X003430Y003680D01*
X002679Y003984D02*
X001420Y003984D01*
X001420Y003826D02*
X002620Y003826D01*
X002620Y003667D02*
X001420Y003667D01*
X001420Y003509D02*
X002624Y003509D01*
X002690Y003350D02*
X001420Y003350D01*
X001420Y003192D02*
X002773Y003192D01*
X002931Y003033D02*
X001420Y003033D01*
X001420Y002875D02*
X003258Y002875D01*
X003049Y002399D02*
X001420Y002399D01*
X001420Y002241D02*
X002845Y002241D01*
X002720Y002082D02*
X001420Y002082D01*
X001420Y001924D02*
X002654Y001924D01*
X002620Y001765D02*
X001420Y001765D01*
X001420Y001607D02*
X002620Y001607D01*
X002649Y001448D02*
X001420Y001448D01*
X001420Y001290D02*
X002715Y001290D01*
X002833Y001131D02*
X001568Y001131D01*
X001727Y000973D02*
X003021Y000973D01*
X003430Y001680D02*
X005790Y004040D01*
X006490Y004040D01*
X006490Y004808D02*
X004302Y004808D01*
X003430Y005680D01*
X004053Y006203D02*
X004568Y006203D01*
X004726Y006045D02*
X004156Y006045D01*
X004221Y005886D02*
X004885Y005886D01*
X004763Y005728D02*
X004240Y005728D01*
X004240Y005569D02*
X004621Y005569D01*
X004591Y005411D02*
X004195Y005411D01*
X004197Y005252D02*
X004637Y005252D01*
X004857Y005094D02*
X004356Y005094D01*
X003994Y004777D02*
X001420Y004777D01*
X001420Y004935D02*
X003112Y004935D01*
X002871Y005094D02*
X001420Y005094D01*
X001420Y005252D02*
X002731Y005252D01*
X002665Y005411D02*
X001420Y005411D01*
X001420Y005569D02*
X002620Y005569D01*
X002620Y005728D02*
X001420Y005728D01*
X001420Y005886D02*
X002639Y005886D01*
X002704Y006045D02*
X001420Y006045D01*
X001420Y006203D02*
X002807Y006203D01*
X002966Y006362D02*
X001420Y006362D01*
X001420Y006520D02*
X004251Y006520D01*
X004409Y006362D02*
X003894Y006362D01*
X004092Y006679D02*
X001420Y006679D01*
X001420Y006837D02*
X003934Y006837D01*
X004295Y007154D02*
X004675Y007154D01*
X004591Y006996D02*
X004454Y006996D01*
X004929Y006520D02*
X006112Y006520D01*
X005680Y006180D02*
X006284Y005576D01*
X006490Y005576D01*
X006490Y005320D02*
X005790Y005320D01*
X003430Y007680D01*
X002868Y008264D02*
X001420Y008264D01*
X001420Y008422D02*
X003105Y008422D01*
X002729Y008105D02*
X001420Y008105D01*
X001420Y007947D02*
X002664Y007947D01*
X002620Y007788D02*
X001420Y007788D01*
X001420Y007630D02*
X002620Y007630D01*
X002640Y007471D02*
X001420Y007471D01*
X001420Y007313D02*
X002705Y007313D01*
X002810Y007154D02*
X001420Y007154D01*
X001420Y006996D02*
X002969Y006996D01*
X004930Y005430D02*
X005296Y005064D01*
X006490Y005064D01*
X005341Y006203D02*
X005246Y006203D01*
X005389Y006362D02*
X005088Y006362D01*
X003836Y004935D02*
X003748Y004935D01*
X004029Y004618D02*
X001420Y004618D01*
X001420Y004460D02*
X003195Y004460D01*
X002905Y004301D02*
X001420Y004301D01*
X001420Y004143D02*
X002747Y004143D01*
X003665Y004460D02*
X003870Y004460D01*
X001524Y000497D02*
X001068Y000497D01*
X018300Y014128D02*
X019060Y014128D01*
X018928Y014287D02*
X018432Y014287D01*
X018581Y014445D02*
X018779Y014445D01*
X018720Y014604D02*
X018640Y014604D01*
X018640Y014762D02*
X018720Y014762D01*
X018782Y014921D02*
X018578Y014921D01*
X018419Y015079D02*
X018941Y015079D01*
X019046Y015238D02*
X018314Y015238D01*
X018547Y015396D02*
X018813Y015396D01*
X018734Y015555D02*
X018626Y015555D01*
X018640Y015713D02*
X018720Y015713D01*
X018761Y015872D02*
X018599Y015872D01*
X018481Y016030D02*
X018879Y016030D01*
X018982Y016189D02*
X018378Y016189D01*
X018597Y016347D02*
X018763Y016347D01*
X018731Y016981D02*
X018629Y016981D01*
X018456Y017140D02*
X018904Y017140D01*
X018819Y013970D02*
X018541Y013970D01*
X018624Y013811D02*
X018736Y013811D01*
X018720Y013653D02*
X018640Y013653D01*
X018601Y013494D02*
X018759Y013494D01*
X018874Y013336D02*
X018486Y013336D01*
X018492Y013019D02*
X018868Y013019D01*
X018757Y012860D02*
X018603Y012860D01*
X018640Y012702D02*
X018720Y012702D01*
X018739Y012543D02*
X018621Y012543D01*
X018535Y012385D02*
X018825Y012385D01*
D26*
X015305Y012368D02*
X015305Y014243D01*
X014712Y012852D02*
X014712Y012650D01*
X014055Y011680D02*
X013530Y011680D01*
X014055Y011680D02*
X014180Y011555D01*
X014930Y011555D01*
X015168Y011318D01*
X015168Y010118D01*
X013880Y009555D02*
X013618Y009555D01*
X013118Y009055D01*
X013118Y006805D01*
X012993Y006680D01*
X012440Y006680D01*
X012993Y006680D02*
X013118Y006555D01*
X013118Y005305D01*
X012993Y005180D01*
X012440Y005180D01*
X012440Y005680D02*
X011805Y005680D01*
X011680Y005555D01*
X011680Y005180D01*
X010930Y004430D01*
X011055Y005180D02*
X010020Y005180D01*
X009430Y005430D02*
X009430Y005868D01*
X009743Y006180D01*
X009430Y005430D02*
X009064Y005064D01*
X008670Y005064D01*
X008670Y004552D02*
X009183Y004552D01*
X009305Y004430D01*
X008945Y004040D02*
X008670Y004040D01*
X008945Y004040D02*
X009180Y003805D01*
X009180Y002930D01*
X009430Y002680D01*
X012930Y002680D01*
X013180Y002930D01*
X013180Y004368D01*
X013743Y004930D01*
X013743Y008805D01*
X013368Y008930D02*
X013618Y009180D01*
X013368Y008930D02*
X013368Y004930D01*
X013118Y004680D01*
X012440Y004680D01*
X011305Y005430D02*
X011305Y006305D01*
X010930Y006680D01*
X011430Y006493D02*
X011430Y006930D01*
X010930Y007430D01*
X011430Y006493D02*
X011743Y006180D01*
X012440Y006180D01*
X011305Y005430D02*
X011055Y005180D01*
X012730Y008368D02*
X012730Y009105D01*
X012868Y010743D02*
X012868Y011055D01*
X012743Y011180D01*
X012618Y011180D01*
X012330Y011468D01*
X009833Y013383D02*
X009833Y014165D01*
X009818Y014180D01*
X007930Y012680D02*
X007055Y011805D01*
X007055Y010555D01*
X008680Y010680D02*
X008680Y010930D01*
X008930Y011180D01*
X009180Y011180D01*
X009430Y011430D01*
X009430Y011530D01*
X009280Y011680D01*
X006564Y007180D02*
X006430Y007180D01*
X006180Y006930D01*
X011680Y001230D02*
X011680Y001180D01*
X004493Y019168D02*
X004505Y019180D01*
X004493Y020355D02*
X005180Y020355D01*
D27*
X014305Y012243D02*
X014305Y011930D01*
X014430Y011805D01*
X014743Y011805D01*
X015305Y012368D01*
X014712Y012650D02*
X014305Y012243D01*
X013530Y011680D02*
X013430Y011680D01*
X012930Y011680D02*
X012930Y011868D01*
X012330Y011680D02*
X012330Y011468D01*
X012868Y010743D02*
X012930Y010680D01*
X014480Y009793D02*
X014480Y009555D01*
X014480Y009793D02*
X014568Y009880D01*
X014568Y010118D01*
X014712Y013383D02*
X014680Y013416D01*
X010020Y009090D02*
X010020Y007180D01*
X010020Y006680D02*
X010555Y006680D01*
X010020Y006180D02*
X009743Y006180D01*
X009305Y004430D02*
X010930Y004430D01*
X006564Y002180D02*
X006430Y002180D01*
X009118Y011430D02*
X009118Y011518D01*
X009280Y011680D01*
D28*
X009180Y012305D03*
X009930Y012055D03*
X010462Y012460D03*
X011180Y012680D03*
X011680Y011680D03*
X009868Y010243D03*
X011243Y008555D03*
X011680Y008368D03*
X010930Y008180D03*
X011680Y007180D03*
X010930Y006680D03*
X010930Y005680D03*
X011180Y004180D03*
X008680Y003430D03*
X008430Y003180D03*
X008180Y003430D03*
X007930Y003180D03*
X007680Y003430D03*
X007430Y003180D03*
X007180Y003430D03*
X006930Y003180D03*
X006680Y003430D03*
X006430Y003180D03*
X005680Y003180D03*
X004930Y003930D03*
X004930Y005430D03*
X005680Y006180D03*
X004930Y006930D03*
X005680Y008180D03*
X006430Y009680D03*
X007430Y010680D03*
X007430Y011680D03*
X009680Y008305D03*
X009180Y006430D03*
X008430Y005930D03*
X008180Y006180D03*
X007930Y005930D03*
X007680Y006180D03*
X007430Y005930D03*
X007180Y006180D03*
X006930Y005930D03*
X005180Y002180D03*
X008868Y001180D03*
X012368Y008805D03*
X013055Y009930D03*
X013743Y008805D03*
X014930Y009430D03*
X014680Y010930D03*
X014180Y011180D03*
X014680Y012180D03*
X014680Y013930D03*
X005180Y019180D03*
D29*
X010148Y012852D02*
X010148Y012273D01*
X009930Y012055D01*
X010180Y011680D02*
X010777Y012277D01*
X010777Y012852D01*
D30*
X004786Y014536D02*
X003430Y013180D01*
X004786Y014536D02*
X004786Y016355D01*
D31*
X011230Y009555D02*
X011680Y009105D01*
X011680Y008368D01*
M02*
